<?xml version="1.0" encoding="utf-8"?>
<!-- Generator: Adobe Illustrator 25.0.1, SVG Export Plug-In . SVG Version: 6.00 Build 0)  -->
<svg version="1.1" id="Layer_1" xmlns="http://www.w3.org/2000/svg" xmlns:xlink="http://www.w3.org/1999/xlink" x="0px" y="0px"
	 viewBox="0 0 621 247.4" style="enable-background:new 0 0 621 247.4;" xml:space="preserve">
<style type="text/css">
	.st0{fill:#CECECE;}
	.st1{fill:#FFFFFF;}
	.st2{fill:none;stroke:#000000;stroke-width:0.5;stroke-miterlimit:10;}
</style>
<path d="M145.8,112.3H70.6c-6.1,0-11-4.8-11-10.9l0,0c0-6.1,4.9-11,11-11h75.1c6.1,0,11,4.9,11,11l0,0
	C156.7,107.5,151.7,112.3,145.8,112.3z"/>
<g id="Social_network">
	<path class="st0" d="M121.6,43.7h1.7v1.7h-1.7V43.7z"/>
	<path class="st0" d="M130.8,37.9c1.4,0,2.5-1.1,2.5-2.5v-6.8c0-1.4-1.1-2.5-2.5-2.5h-15.1c-1.4,0-2.5,1.1-2.5,2.5v6.7
		c0,1.1,0.6,2,1.7,2.3v2.7h-13.5v-2.7c1.1-0.3,1.7-1.3,1.7-2.3v-6.7c0-1.4-1.1-2.5-2.5-2.5H85.5c-1.4,0-2.5,1.1-2.5,2.5v6.7
		c0,1.4,1.1,2.5,2.5,2.5h9.7l1.9,2.5h-4.8c-1.4,0-2.5,1.1-2.5,2.5v4l-4.8,5.6c-0.2,0.2-0.2,0.3-0.2,0.6v16.9h-0.8
		c-0.5,0-0.8,0.4-0.8,0.8v5c0,0.5,0.4,0.8,0.8,0.8h13.4c0.5,0,0.8-0.4,0.8-0.8v-5c0-0.5-0.4-0.8-0.8-0.8h-1.8
		c1.1-1.1,1.8-2.7,1.8-4.2v-3.4H119v3.4c0,1.6,0.6,3.2,1.8,4.2H119c-0.5,0-0.8,0.4-0.8,0.8v5c0,0.5,0.4,0.8,0.8,0.8h13.4
		c0.5,0,0.8-0.4,0.8-0.8v-5c0-0.5-0.4-0.8-0.8-0.8h-0.8V53c0-0.2-0.1-0.4-0.2-0.6l-4.8-5.6v-4c0-1.4-1.1-2.5-2.5-2.5h-4.8l1.9-2.5
		C121.2,37.9,130.8,37.9,130.8,37.9z M96.2,36.5c-0.2-0.2-0.4-0.3-0.6-0.3H85.5c-0.5,0-0.8-0.4-0.8-0.8v-6.8c0-0.5,0.4-0.8,0.8-0.8
		h15.1c0.5,0,0.8,0.4,0.8,0.8v6.7c0,0.5-0.4,0.8-0.8,0.8s-0.8,0.4-0.8,0.8v4.2L96.2,36.5z M91.4,46.5l1.1,0.2
		c0.4,0.1,0.6,0.4,0.6,0.8v3c0,0-0.1,0.1-0.2,0.1l-1.5,1.5V46.5L91.4,46.5z M96.4,71.5v3.4H84.6v-3.4H96.4z M95.6,65.6
		c0,2.3-1.9,4.2-4.2,4.2h-5.1V53.3l3.4-3.9v4.8c0,0.3,0.2,0.6,0.6,0.8c0.3,0.2,0.6,0.1,0.9-0.2l3-3c0.6-0.6,1.7-0.6,2.3,0
		c0.6,0.6,0.6,1.7,0,2.3l0,0l-3.7,3.6c-1,1-1,2.6,0,3.6c0.5,0.5,1.1,0.7,1.8,0.7h1L95.6,65.6L95.6,65.6z M131.7,71.5v3.4h-11.8v-3.4
		H131.7z M126.1,55c0.3-0.2,0.6-0.4,0.6-0.8v-4.8l3.4,3.9v16.6h-5c-2.3,0-4.2-1.9-4.2-4.2v-3.4h1c1.4,0,2.5-1.1,2.5-2.5
		c0-0.6-0.2-1.3-0.7-1.8l-3.7-3.6c-0.6-0.6-0.6-1.7,0-2.3l0,0c0.6-0.6,1.7-0.6,2.3,0l3,3C125.5,55.1,125.8,55.2,126.1,55z
		 M124.1,42.1c0.5,0,0.8,0.4,0.8,0.8v9.4l-1.5-1.5c0,0-0.1-0.1-0.2-0.1v-3.5h-1.7v2.7c-0.2,0-0.4,0-0.6,0c-0.9,0-1.8,0.3-2.3,1
		c-1.3,1.3-1.3,3.4,0,4.8l3.7,3.7c0.2,0.2,0.3,0.6,0.2,0.9c-0.2,0.3-0.5,0.5-0.8,0.5H94.5c-0.3,0-0.6-0.2-0.8-0.5
		c-0.2-0.3-0.1-0.6,0.2-0.9l3.6-3.7c0.6-0.6,1-1.5,1-2.3c0-1.9-1.5-3.3-3.3-3.3c-0.2,0-0.4,0-0.6,0.1v-2.2c0-1.1-0.8-2.2-1.9-2.4
		l-1.5-0.3v-1.9c0-0.5,0.4-0.8,0.8-0.8h6.1l1.6,2.2c0.2,0.2,0.4,0.3,0.6,0.3c0.1,0,0.2,0,0.2,0c0.3-0.1,0.6-0.5,0.6-0.8v-1.7h13.4
		v1.7c0,0.3,0.2,0.6,0.6,0.8c0.1,0,0.2,0,0.2,0c0.2,0,0.6-0.2,0.6-0.3l1.6-2.2L124.1,42.1z M120.1,36.5l-3.6,4.7V37
		c0-0.5-0.4-0.8-0.8-0.8c-0.5,0-0.8-0.4-0.8-0.8v-6.8c0-0.5,0.4-0.8,0.8-0.8h15.1c0.5,0,0.8,0.4,0.8,0.8v6.7c0,0.5-0.4,0.8-0.8,0.8
		h-10C120.5,36.2,120.2,36.4,120.1,36.5z"/>
	<path class="st0" d="M86.3,29.5H88v1.7h-1.7V29.5z"/>
	<path class="st0" d="M89.7,29.5h10.1v1.7H89.7V29.5z"/>
	<path class="st0" d="M86.3,32.8h13.4v1.7H86.3V32.8z"/>
	<path class="st0" d="M116.6,29.5h1.7v1.7h-1.7V29.5z"/>
	<path class="st0" d="M119.9,29.5H130v1.7h-10.1V29.5z"/>
	<path class="st0" d="M116.6,32.8H130v1.7h-13.4V32.8z"/>
</g>
<g id="Layer_12">
	<path class="st0" d="M130.9,149.6h-2.1v-0.7c0-0.4-0.3-0.7-0.7-0.7h-3.6v-0.7c0-1.1-1-2.1-2.1-2.1s-2.1,1-2.1,2.1v0.7h-2.8v-0.7
		c0-1.1-1-2.1-2.1-2.1c-1.1,0-2.1,1-2.1,2.1v0.7h-2.8v-0.7c0-1.1-1-2.1-2.1-2.1c-1.1,0-2.1,1-2.1,2.1v0.7h-2.8v-0.7
		c0-1.1-1-2.1-2.1-2.1s-2.1,1-2.1,2.1v0.7h-2.8v-0.7c0-1.1-1-2.1-2.1-2.1c-1.1,0-2.1,1-2.1,2.1v0.7h-3.6c-0.4,0-0.7,0.3-0.7,0.7
		v36.7c0,0.4,0.3,0.7,0.7,0.7h0.7v2.1c0,0.4,0.3,0.7,0.7,0.7H131c0.4,0,0.7-0.3,0.7-0.7v-38.1C131.6,149.9,131.3,149.6,130.9,149.6z
		 M89.4,184.9V158h38.1v26.8H89.4z M121.8,147.5c0-0.4,0.3-0.7,0.7-0.7c0.4,0,0.7,0.3,0.7,0.7v2.8c0,0.4-0.3,0.7-0.7,0.7
		c-0.4,0-0.7-0.3-0.7-0.7V147.5z M114.7,147.5c0-0.4,0.3-0.7,0.7-0.7s0.7,0.3,0.7,0.7v2.8c0,0.4-0.3,0.7-0.7,0.7s-0.7-0.3-0.7-0.7
		V147.5z M107.6,147.5c0-0.4,0.3-0.7,0.7-0.7s0.7,0.3,0.7,0.7v2.8c0,0.4-0.3,0.7-0.7,0.7s-0.7-0.3-0.7-0.7V147.5z M100.6,147.5
		c0-0.4,0.3-0.7,0.7-0.7s0.7,0.3,0.7,0.7v2.8c0,0.4-0.3,0.7-0.7,0.7s-0.7-0.3-0.7-0.7V147.5z M93.6,147.5c0-0.4,0.3-0.7,0.7-0.7
		c0.4,0,0.7,0.3,0.7,0.7v2.8c0,0.4-0.3,0.7-0.7,0.7c-0.4,0-0.7-0.3-0.7-0.7V147.5z M92.2,149.6v0.7c0,1.1,1,2.1,2.1,2.1
		c1.1,0,2.1-1,2.1-2.1v-0.7h2.8v0.7c0,1.1,1,2.1,2.1,2.1c1.1,0,2.1-1,2.1-2.1v-0.7h2.8v0.7c0,1.1,1,2.1,2.1,2.1s2.1-1,2.1-2.1v-0.7
		h2.8v0.7c0,1.1,1,2.1,2.1,2.1s2.1-1,2.1-2.1v-0.7h2.8v0.7c0,1.1,1,2.1,2.1,2.1s2.1-1,2.1-2.1v-0.7h3v7H89.4v-7H92.2z M130.2,187.7
		H90.7v-1.5h37.3c0.4,0,0.7-0.3,0.7-0.7v-34.6h1.5V187.7z"/>
	<path class="st0" d="M115.5,163.7h0.6v-1.5h-2.8c-0.4,0-0.7,0.3-0.7,0.7v2.8h1.5v-1.5c4,3.2,4.7,8.9,1.5,12.8
		c-2.5,3.2-6.8,4.4-10.5,2.9l-0.5,1.3c1.2,0.5,2.5,0.7,3.8,0.7c5.8,0,10.6-4.8,10.6-10.6C118.9,168.5,117.6,165.6,115.5,163.7z"/>
	<path class="st0" d="M102.7,178.6c-4-3.2-4.7-8.9-1.5-12.8c2.5-3.2,6.8-4.4,10.5-2.9l0.5-1.3c-1.2-0.5-2.5-0.7-3.8-0.7
		c-5.8,0-10.6,4.8-10.6,10.6c0,2.9,1.2,5.7,3.4,7.8h-0.6v1.5h2.8c0.4,0,0.7-0.3,0.7-0.7v-2.8h-1.5L102.7,178.6L102.7,178.6z"/>
	<path class="st0" d="M102,171.5c0,3.5,2.8,6.3,6.3,6.3s6.3-2.8,6.3-6.3s-2.8-6.3-6.3-6.3S102,167.9,102,171.5z M113.3,170.7h-1.4
		v1.5h1.4c-0.3,2.2-2,3.9-4.2,4.2V175h-1.5v1.4c-2.2-0.3-3.9-2-4.2-4.2h1.4v-1.5h-1.4c0.3-2.2,2-3.9,4.2-4.2v1.4h1.5v-1.4
		C111.3,166.8,112.9,168.5,113.3,170.7z"/>
	<path class="st0" d="M109.1,169.3h-1.5v2.1c0,0.2,0.1,0.3,0.2,0.5l2.1,2.1l1-1l-1.9-1.9L109.1,169.3L109.1,169.3z"/>
</g>
<g>
	<g>
		<path class="st0" d="M516.1,75.1h-6.5c-1.5,0-3.2-1.3-3.2-3.9v-4.4c0-2.2-1.1-4-2.7-5.6c-3.9-3-5.7-7.3-5.7-12
			c0.2-8.2,6.9-14.5,14.8-14.8c4,0,7.9,1.5,10.7,4.3c2.7,2.8,4.4,6.6,4.4,10.7c0,4.4-1.9,8.8-5.6,11.6c-1.9,1.5-3,3.9-3,6v4.9
			C519.3,73.7,517.8,75.1,516.1,75.1L516.1,75.1z M512.9,36.6c-6.9,0-12.7,5.7-12.8,12.7c0,4,1.7,7.9,4.9,10.3
			c2.3,1.9,3.6,4.4,3.6,7.3v4.4c0,0.4,0,1.7,1.1,1.7h6.5c0.6,0,1.1-0.4,1.1-1.1V67c0-2.7,1.5-5.8,3.9-7.7c3-2.3,4.7-6,4.7-9.9
			c0-3.5-1.3-6.6-3.9-9.2C519.5,37.9,516.3,36.6,512.9,36.6L512.9,36.6z"/>
	</g>
	<g>
		<path class="st0" d="M518.3,68.8h-10.7c-0.6,0-1.1-0.4-1.1-1.1c0-0.6,0.4-1.1,1.1-1.1h10.7c0.6,0,1.1,0.4,1.1,1.1
			C519.3,68.4,518.9,68.8,518.3,68.8z"/>
	</g>
	<g>
		<path class="st0" d="M512.9,30.2c-0.6,0-1.1-0.4-1.1-1.1v-4.4c0-0.6,0.4-1.1,1.1-1.1c0.6,0,1.1,0.4,1.1,1.1v4.3
			C514,29.7,513.6,30.2,512.9,30.2z"/>
	</g>
	<g>
		<path class="st0" d="M527.2,36.2c-0.2,0-0.6,0-0.9-0.2c-0.4-0.4-0.4-1.1,0-1.5l3-3c0.4-0.4,1.1-0.4,1.5,0c0.4,0.4,0.4,1.1,0,1.5
			l-3,3C527.9,35.9,527.5,36.2,527.2,36.2L527.2,36.2z"/>
	</g>
	<g>
		<path class="st0" d="M537.6,50.6h-4.3c-0.6,0-1.1-0.4-1.1-1.1s0.4-1.1,1.1-1.1h4.3c0.6,0,1.1,0.4,1.1,1.1
			C538.6,50.1,538.2,50.6,537.6,50.6z"/>
	</g>
	<g>
		<path class="st0" d="M530.2,67.9c-0.2,0-0.6,0-0.9-0.2l-3-3c-0.4-0.4-0.4-1.1,0-1.5c0.4-0.4,1.1-0.4,1.5,0l3,3
			c0.4,0.4,0.4,1.1,0,1.5C530.9,67.9,530.7,67.9,530.2,67.9L530.2,67.9z"/>
	</g>
	<g>
		<path class="st0" d="M495.5,67.9c-0.2,0-0.6,0-0.9-0.2c-0.4-0.4-0.4-1.1,0-1.5l3-3c0.4-0.4,1.1-0.4,1.5,0c0.4,0.4,0.4,1.1,0,1.5
			l-3,3C495.9,67.9,495.8,67.9,495.5,67.9z"/>
	</g>
	<g>
		<path class="st0" d="M492.6,50.6h-4.3c-0.6,0-1.1-0.4-1.1-1.1s0.4-1.1,1.1-1.1h4.3c0.6,0,1.1,0.4,1.1,1.1
			C493.6,50.1,493.2,50.6,492.6,50.6z"/>
	</g>
	<g>
		<path class="st0" d="M498.5,36.2c-0.2,0-0.6,0-0.9-0.2l-3-3.2c-0.4-0.4-0.4-1.1,0-1.5c0.4-0.4,1.1-0.4,1.5,0l3.1,3
			c0.4,0.4,0.4,1.1,0,1.5C498.9,35.9,498.8,36.2,498.5,36.2L498.5,36.2z"/>
	</g>
	<g>
		<path class="st0" d="M521.5,50.6c-0.6,0-1.1-0.4-1.1-1.1c0-4-3.5-7.5-7.5-7.5c-0.6,0-1.1-0.4-1.1-1.1c0-0.6,0.4-1.1,1.1-1.1
			c5.3,0,9.7,4.3,9.7,9.7C522.5,50.1,522.1,50.6,521.5,50.6z"/>
	</g>
</g>
<g>
	<path class="st0" d="M499.4,155.7h19.1v1.2h-19.1V155.7z"/>
	<path class="st0" d="M499.4,162.1h19.1v1.2h-19.1V162.1z"/>
	<path class="st0" d="M499.4,165.3h12.7v1.2h-12.7V165.3z"/>
	<path class="st0" d="M499.4,158.9h19.1v1.2h-19.1V158.9z"/>
	<path class="st0" d="M504.8,147.8h-6v6h6V147.8z M503.5,152.5H500V149h3.6V152.5z"/>
	<path class="st0" d="M525.4,168.5v-29.3h-26.7v3.2h-3.2v26h-3.2V190h36.2v-21.7L525.4,168.5L525.4,168.5z M500,140.4h24.2v28h-1.9
		v-17.8l-8.3-8.3h-14V140.4z M514.3,144.5l5.9,5.9h-5.9V144.5z M496.8,143.6h16.3v7.9h7.9v16.9h-4.8v3.2h-11.6v-3.2h-7.9V143.6z
		 M503.5,169.6v3.2h13.9v-3.2h10v16.7h-33.8v-16.7H503.5z M493.7,188.9v-1.4h33.8v1.4H493.7z"/>
	<path class="st0" d="M517.5,176.4h-13.9v4.4h13.9V176.4z M516.3,179.6h-11.6v-1.9h11.6V179.6z"/>
</g>
<g>
	<path class="st1" d="M80.9,104.4c-0.3,0.2-1,0.3-1.7,0.3c-1.9,0-3.2-1.1-3.2-3.3c0-2,1.4-3.4,3.4-3.4c0.8,0,1.3,0.2,1.5,0.3
		l-0.2,0.6c-0.3-0.2-0.8-0.2-1.3-0.2c-1.5,0-2.6,1-2.6,2.7c0,1.6,0.9,2.7,2.5,2.7c0.5,0,1.1-0.1,1.4-0.2L80.9,104.4z"/>
	<path class="st1" d="M86,102.2c0,1.7-1.2,2.5-2.3,2.5c-1.3,0-2.3-1-2.3-2.4c0-1.5,1.1-2.5,2.3-2.5C85.2,99.8,86,100.8,86,102.2z
		 M82.3,102.2c0,1.1,0.6,1.8,1.5,1.8c0.8,0,1.5-0.7,1.5-1.9c0-0.8-0.4-1.8-1.4-1.8C82.7,100.4,82.3,101.3,82.3,102.2z"/>
	<path class="st1" d="M87.1,101.2c0-0.5,0-0.9,0-1.3h0.7v0.7l0,0c0.2-0.5,0.7-0.9,1.5-0.9c0.6,0,1.1,0.4,1.3,1l0,0
		c0.2-0.2,0.3-0.5,0.5-0.6c0.2-0.2,0.6-0.3,1.1-0.3c0.6,0,1.5,0.4,1.5,2v2.7h-0.8v-2.7c0-0.9-0.3-1.5-1.1-1.5c-0.5,0-0.9,0.3-1,0.8
		c0,0.1-0.1,0.2-0.1,0.4v2.9h-0.8v-2.8c0-0.7-0.3-1.3-1-1.3c-0.6,0-0.9,0.4-1.1,0.9c-0.1,0.2-0.1,0.2-0.1,0.4v2.8H87L87.1,101.2
		L87.1,101.2z"/>
	<path class="st1" d="M95.2,101.2c0-0.5,0-0.9,0-1.3h0.7v0.7l0,0c0.2-0.5,0.7-0.9,1.5-0.9c0.6,0,1.1,0.4,1.3,1l0,0
		c0.2-0.2,0.3-0.5,0.5-0.6c0.2-0.2,0.6-0.3,1.1-0.3c0.6,0,1.5,0.4,1.5,2v2.7h-0.8v-2.7c0-0.9-0.3-1.5-1.1-1.5c-0.5,0-0.9,0.3-1,0.8
		c0,0.1-0.1,0.2-0.1,0.4v2.9H98v-2.8c0-0.7-0.3-1.3-1-1.3c-0.6,0-0.9,0.4-1.1,0.9c-0.1,0.2-0.1,0.2-0.1,0.4v2.8h-0.8L95.2,101.2
		L95.2,101.2z"/>
	<path class="st1" d="M107.2,103.3c0,0.5,0,0.9,0,1.3h-0.7l-0.1-0.7l0,0c-0.2,0.4-0.7,0.9-1.5,0.9c-0.7,0-1.6-0.4-1.6-2v-2.7h0.9
		v2.6c0,0.9,0.2,1.5,1.1,1.5c0.6,0,1-0.4,1.1-0.8c0.1-0.2,0.1-0.2,0.1-0.4v-2.9h0.9L107.2,103.3L107.2,103.3z"/>
	<path class="st1" d="M108.7,101.2c0-0.5,0-0.9,0-1.3h0.7l0.1,0.8l0,0c0.2-0.5,0.8-0.9,1.5-0.9c0.6,0,1.7,0.4,1.7,2v2.8h-0.9V102
		c0-0.7-0.2-1.4-1.1-1.4c-0.6,0-1,0.4-1.1,0.9c0,0.1-0.1,0.2-0.1,0.4v2.8h-0.9C108.7,104.7,108.7,101.2,108.7,101.2z"/>
	<path class="st1" d="M115,98.6c0,0.3-0.2,0.5-0.6,0.5c-0.3,0-0.5-0.2-0.5-0.5c0-0.3,0.2-0.6,0.6-0.6C114.7,98,115,98.2,115,98.6z
		 M114,104.6v-4.7h0.9v4.7H114z"/>
	<path class="st1" d="M119.7,104.4c-0.2,0.1-0.7,0.2-1.4,0.2c-1.5,0-2.3-1-2.3-2.4c0-1.5,1-2.5,2.5-2.5c0.5,0,1,0.2,1.2,0.2
		l-0.2,0.7c-0.2-0.1-0.5-0.2-1-0.2c-1.1,0-1.7,0.8-1.7,1.8c0,1.1,0.7,1.8,1.6,1.8c0.5,0,0.8-0.2,1.1-0.2L119.7,104.4z"/>
	<path class="st1" d="M123.2,104.6l-0.1-0.6l0,0c-0.2,0.4-0.7,0.7-1.5,0.7c-1,0-1.5-0.6-1.5-1.4c0-1.1,1-1.8,2.8-1.8v-0.1
		c0-0.4-0.1-1.1-1.1-1.1c-0.4,0-0.9,0.2-1.2,0.3l-0.2-0.6c0.4-0.2,1-0.4,1.5-0.4c1.5,0,1.8,1,1.8,1.9v1.8c0,0.4,0,0.8,0.1,1.1
		L123.2,104.6L123.2,104.6z M123.1,102.2c-1,0-2,0.2-2,1.1c0,0.6,0.4,0.8,0.8,0.8c0.6,0,1-0.4,1.1-0.8c0-0.1,0.1-0.2,0.1-0.2V102.2z
		"/>
	<path class="st1" d="M126.3,98.5v1.4h1.2v0.6h-1.2v2.5c0,0.6,0.2,0.9,0.6,0.9c0.2,0,0.4,0,0.5-0.1v0.6c-0.2,0.1-0.4,0.1-0.7,0.1
		c-0.4,0-0.7-0.2-0.9-0.3c-0.2-0.2-0.3-0.6-0.3-1.2v-2.5h-0.7v-0.6h0.7v-1.1L126.3,98.5z"/>
	<path class="st1" d="M129.4,98.6c0,0.3-0.2,0.5-0.6,0.5c-0.3,0-0.5-0.2-0.5-0.5c0-0.3,0.2-0.6,0.6-0.6
		C129.2,98,129.4,98.2,129.4,98.6z M128.5,104.6v-4.7h0.9v4.7H128.5z"/>
	<path class="st1" d="M135,102.2c0,1.7-1.2,2.5-2.3,2.5c-1.3,0-2.3-1-2.3-2.4c0-1.5,1.1-2.5,2.3-2.5C134,99.8,135,100.8,135,102.2z
		 M131.3,102.2c0,1.1,0.6,1.8,1.5,1.8c0.8,0,1.5-0.7,1.5-1.9c0-0.8-0.4-1.8-1.4-1.8C131.7,100.4,131.3,101.3,131.3,102.2z"/>
	<path class="st1" d="M136.1,101.2c0-0.5,0-0.9,0-1.3h0.7l0.1,0.8l0,0c0.2-0.5,0.8-0.9,1.5-0.9c0.6,0,1.7,0.4,1.7,2v2.8h-0.9V102
		c0-0.7-0.2-1.4-1.1-1.4c-0.6,0-1,0.4-1.1,0.9c0,0.1-0.1,0.2-0.1,0.4v2.8h-0.9V101.2z"/>
</g>
<path d="M348,168.9h-75.1c-6.1,0-11-4.9-11-11l0,0c0-6.1,4.9-11,11-11H348c6.1,0,11,4.9,11,11l0,0
	C358.9,164.1,354.1,168.9,348,168.9z"/>
<g>
	<path class="st1" d="M287.8,154.8h-2v-0.7h4.8v0.7h-2v5.8h-0.9L287.8,154.8L287.8,154.8z"/>
	<path class="st1" d="M291.3,153.7h0.9v2.9l0,0c0.2-0.2,0.3-0.5,0.6-0.6c0.2-0.2,0.6-0.2,0.9-0.2c0.6,0,1.6,0.4,1.6,2v2.8h-0.9v-2.7
		c0-0.7-0.2-1.4-1.1-1.4c-0.6,0-1,0.4-1.1,0.9c-0.1,0.1-0.1,0.2-0.1,0.4v2.8h-0.9V153.7z"/>
	<path class="st1" d="M297.1,158.4c0,1.1,0.7,1.6,1.6,1.6c0.6,0,1-0.1,1.3-0.2l0.2,0.6c-0.3,0.2-0.8,0.3-1.5,0.3
		c-1.5,0-2.3-1-2.3-2.3c0-1.5,0.8-2.5,2.2-2.5c1.5,0,1.9,1.4,1.9,2.2c0,0.2,0,0.3,0,0.4L297.1,158.4L297.1,158.4z M299.6,157.8
		c0-0.6-0.2-1.4-1.2-1.4c-0.9,0-1.2,0.8-1.3,1.4H299.6z"/>
	<path class="st1" d="M309.1,157.2c0,2.3-1.4,3.5-3.1,3.5s-2.9-1.4-2.9-3.3c0-2.1,1.3-3.4,3.1-3.4
		C308,153.9,309.1,155.3,309.1,157.2z M304.1,157.4c0,1.4,0.7,2.7,2.1,2.7c1.4,0,2.1-1.2,2.1-2.7c0-1.3-0.6-2.7-2.1-2.7
		S304.1,155.9,304.1,157.4z"/>
	<path class="st1" d="M310.3,154.2c0.4-0.1,1-0.2,1.5-0.2c0.8,0,1.4,0.2,1.8,0.5c0.3,0.2,0.6,0.6,0.6,1.1c0,0.6-0.4,1.2-1.1,1.5l0,0
		c0.6,0.2,1.4,0.6,1.4,1.6c0,0.6-0.2,1-0.6,1.3c-0.5,0.4-1.2,0.6-2.3,0.6c-0.6,0-1.1,0-1.3-0.1V154.2L310.3,154.2z M311.1,156.8h0.7
		c0.9,0,1.5-0.5,1.5-1.1c0-0.7-0.6-1.1-1.5-1.1c-0.4,0-0.6,0-0.7,0.1V156.8z M311.1,160c0.2,0,0.4,0,0.7,0c0.9,0,1.7-0.3,1.7-1.3
		c0-0.9-0.7-1.3-1.7-1.3h-0.7V160z"/>
	<path class="st1" d="M315.5,154.2c0.4-0.1,1-0.2,1.6-0.2c0.8,0,1.5,0.2,1.9,0.6c0.3,0.3,0.6,0.8,0.6,1.4s-0.2,1.1-0.5,1.4
		c-0.5,0.5-1.2,0.7-2,0.7c-0.2,0-0.5,0-0.6-0.1v2.6h-0.8L315.5,154.2L315.5,154.2z M316.3,157.3c0.2,0.1,0.4,0.1,0.7,0.1
		c1.1,0,1.6-0.5,1.6-1.4c0-0.9-0.6-1.3-1.5-1.3c-0.4,0-0.6,0-0.8,0.1V157.3z"/>
	<path class="st1" d="M323.8,158.5l-0.6,2h-0.9l2.2-6.5h1.1l2.3,6.5h-0.9l-0.7-2H323.8z M325.9,157.9l-0.6-1.9
		c-0.2-0.4-0.2-0.8-0.3-1.2l0,0c-0.1,0.4-0.2,0.8-0.3,1.2l-0.6,1.9H325.9z"/>
	<path class="st1" d="M328.6,157.4c0-0.6,0-1.1,0-1.5h0.7v0.8l0,0c0.3-0.6,0.9-0.9,1.7-0.9c1.1,0,2,1,2,2.4c0,1.7-1.1,2.5-2.1,2.5
		c-0.6,0-1.1-0.2-1.5-0.7l0,0v2.6h-0.8L328.6,157.4L328.6,157.4z M329.4,158.7c0,0.2,0,0.2,0,0.3c0.2,0.6,0.6,1,1.3,1
		c0.9,0,1.5-0.7,1.5-1.8c0-1-0.5-1.8-1.4-1.8c-0.6,0-1.1,0.4-1.3,1.1c0,0.1-0.1,0.2-0.1,0.3V158.7L329.4,158.7z"/>
	<path class="st1" d="M334.1,157.4c0-0.6,0-1.1,0-1.5h0.7v0.8l0,0c0.3-0.6,0.9-0.9,1.7-0.9c1.1,0,2,1,2,2.4c0,1.7-1.1,2.5-2.1,2.5
		c-0.6,0-1.1-0.2-1.5-0.7l0,0v2.6h-0.8L334.1,157.4L334.1,157.4z M335,158.7c0,0.2,0,0.2,0,0.3c0.2,0.6,0.6,1,1.3,1
		c0.9,0,1.5-0.7,1.5-1.8c0-1-0.5-1.8-1.4-1.8c-0.6,0-1.1,0.4-1.3,1.1c0,0.1-0.1,0.2-0.1,0.3L335,158.7L335,158.7z"/>
</g>
<path d="M550.5,112.3h-75.1c-6.1,0-11-4.9-11-11l0,0c0-6.1,4.9-11,11-11h75.1c6.1,0,11,4.9,11,11l0,0
	C561.4,107.5,556.6,112.3,550.5,112.3z"/>
<g>
	<path class="st1" d="M496.9,101.5h-2.5v2.3h2.8v0.7h-3.6V98h3.6v0.7h-2.7v2.1h2.5L496.9,101.5L496.9,101.5z"/>
	<path class="st1" d="M502.3,97.7v5.7c0,0.4,0,0.9,0,1.2h-0.7v-0.8l0,0c-0.2,0.5-0.8,0.9-1.6,0.9c-1.1,0-2-1-2-2.4
		c0-1.5,1-2.5,2.1-2.5c0.7,0,1.2,0.3,1.5,0.7l0,0v-2.8L502.3,97.7L502.3,97.7z M501.4,101.8c0-0.1,0-0.2,0-0.3c-0.2-0.6-0.6-1-1.2-1
		c-0.9,0-1.4,0.8-1.4,1.8c0,1,0.5,1.7,1.4,1.7c0.6,0,1.1-0.4,1.2-1.1c0-0.1,0-0.2,0-0.4V101.8z"/>
	<path class="st1" d="M507.7,103.3c0,0.5,0,0.9,0,1.3h-0.7l-0.1-0.7l0,0c-0.2,0.4-0.7,0.9-1.5,0.9c-0.7,0-1.6-0.4-1.6-2v-2.7h0.9
		v2.6c0,0.9,0.2,1.5,1.1,1.5c0.6,0,1-0.4,1.1-0.8c0.1-0.2,0.1-0.2,0.1-0.4v-2.9h0.9L507.7,103.3L507.7,103.3z"/>
	<path class="st1" d="M512.4,104.4c-0.2,0.1-0.7,0.2-1.4,0.2c-1.5,0-2.3-1-2.3-2.4c0-1.5,1-2.5,2.5-2.5c0.5,0,1,0.2,1.2,0.2
		l-0.2,0.6c-0.2-0.1-0.5-0.2-1-0.2c-1.1,0-1.7,0.8-1.7,1.8c0,1.1,0.7,1.8,1.6,1.8c0.5,0,0.8-0.2,1.1-0.2L512.4,104.4z"/>
	<path class="st1" d="M516.1,104.6L516,104l0,0c-0.2,0.4-0.7,0.7-1.5,0.7c-1,0-1.5-0.6-1.5-1.4c0-1.1,1-1.8,2.8-1.8v-0.1
		c0-0.4-0.1-1.1-1.1-1.1c-0.4,0-0.9,0.2-1.2,0.3l-0.2-0.6c0.4-0.2,1-0.4,1.5-0.4c1.5,0,1.8,1,1.8,1.9v1.8c0,0.4,0,0.8,0.1,1.1
		L516.1,104.6L516.1,104.6z M515.9,102.2c-1,0-2,0.2-2,1.1c0,0.6,0.4,0.8,0.8,0.8c0.6,0,1-0.4,1.1-0.8c0-0.1,0.1-0.2,0.1-0.2V102.2z
		"/>
	<path class="st1" d="M519.1,98.5v1.4h1.2v0.6h-1.2v2.5c0,0.6,0.2,0.9,0.6,0.9c0.2,0,0.4,0,0.5-0.1v0.6c-0.2,0.1-0.4,0.1-0.7,0.1
		c-0.4,0-0.7-0.2-0.9-0.3c-0.2-0.2-0.3-0.6-0.3-1.2v-2.5h-0.7v-0.6h0.7v-1.1L519.1,98.5z"/>
	<path class="st1" d="M522.2,98.6c0,0.3-0.2,0.5-0.6,0.5c-0.3,0-0.5-0.2-0.5-0.5c0-0.3,0.2-0.6,0.6-0.6
		C522,98,522.2,98.2,522.2,98.6z M521.2,104.6v-4.7h0.9v4.7H521.2z"/>
	<path class="st1" d="M527.8,102.2c0,1.7-1.2,2.5-2.3,2.5c-1.3,0-2.3-1-2.3-2.4c0-1.5,1.1-2.5,2.3-2.5
		C526.9,99.8,527.8,100.8,527.8,102.2z M524.1,102.2c0,1.1,0.6,1.8,1.5,1.8c0.8,0,1.5-0.7,1.5-1.9c0-0.8-0.4-1.8-1.4-1.8
		C524.6,100.3,524.1,101.3,524.1,102.2z"/>
	<path class="st1" d="M528.8,101.2c0-0.5,0-0.9,0-1.3h0.7l0.1,0.8l0,0c0.2-0.5,0.8-0.9,1.5-0.9c0.6,0,1.7,0.4,1.7,2v2.8H532V102
		c0-0.7-0.2-1.4-1.1-1.4c-0.6,0-1,0.4-1.1,0.9c0,0.1-0.1,0.2-0.1,0.4v2.8h-0.9L528.8,101.2L528.8,101.2z"/>
</g>
<path d="M550.5,223.7h-75.1c-6.1,0-11-4.9-11-11l0,0c0-6.1,4.9-11,11-11h75.1c6.1,0,11,4.9,11,11l0,0
	C561.4,218.7,556.6,223.7,550.5,223.7z"/>
<g>
	<path class="st1" d="M482.3,209.4c0.5-0.1,1.1-0.2,1.8-0.2c1.2,0,2.1,0.2,2.7,0.8c0.6,0.6,0.9,1.3,0.9,2.3s-0.3,1.9-1,2.5
		c-0.6,0.6-1.6,1-2.9,1c-0.6,0-1.1,0-1.5-0.1L482.3,209.4L482.3,209.4z M483.1,215.2c0.2,0,0.5,0.1,0.9,0.1c1.8,0,2.7-1,2.7-2.7
		c0-1.5-0.9-2.5-2.7-2.5c-0.4,0-0.7,0-1,0.1V215.2z"/>
	<path class="st1" d="M493,213.6c0,1.7-1.2,2.5-2.3,2.5c-1.3,0-2.3-1-2.3-2.4c0-1.5,1.1-2.5,2.3-2.5
		C492.1,211.1,493,212.1,493,213.6z M489.2,213.6c0,1.1,0.6,1.8,1.5,1.8c0.8,0,1.5-0.7,1.5-1.9c0-0.8-0.4-1.8-1.4-1.8
		S489.2,212.7,489.2,213.6z"/>
	<path class="st1" d="M497.4,215.7c-0.2,0.1-0.7,0.2-1.4,0.2c-1.5,0-2.3-1-2.3-2.4s1-2.5,2.5-2.5c0.5,0,1,0.2,1.2,0.2l-0.2,0.6
		c-0.2-0.1-0.5-0.2-1-0.2c-1.1,0-1.7,0.8-1.7,1.8c0,1.1,0.7,1.8,1.6,1.8c0.5,0,0.8-0.2,1.1-0.2L497.4,215.7z"/>
	<path class="st1" d="M502.3,214.6c0,0.5,0,0.9,0,1.3h-0.7l-0.1-0.7l0,0c-0.2,0.4-0.7,0.9-1.5,0.9c-0.7,0-1.6-0.4-1.6-2v-2.8h0.9
		v2.6c0,0.9,0.2,1.5,1.1,1.5c0.6,0,1-0.4,1.1-0.8c0.1-0.2,0.1-0.2,0.1-0.4v-2.8h0.9L502.3,214.6L502.3,214.6z"/>
	<path class="st1" d="M503.8,212.5c0-0.5,0-0.9,0-1.3h0.7v0.7l0,0c0.2-0.5,0.7-0.9,1.5-0.9c0.6,0,1.1,0.4,1.3,1l0,0
		c0.2-0.2,0.3-0.5,0.5-0.6c0.2-0.2,0.6-0.3,1.1-0.3c0.6,0,1.5,0.4,1.5,2v2.7h-0.8v-2.7c0-0.9-0.3-1.5-1.1-1.5c-0.5,0-0.9,0.3-1,0.8
		c0,0.1-0.1,0.2-0.1,0.4v2.9h-0.8V213c0-0.7-0.3-1.3-1-1.3c-0.6,0-0.9,0.4-1.1,0.9c-0.1,0.2-0.1,0.2-0.1,0.4v2.8h-0.8L503.8,212.5
		L503.8,212.5z"/>
	<path class="st1" d="M512.4,213.7c0,1.1,0.7,1.6,1.6,1.6c0.6,0,1-0.1,1.3-0.2l0.2,0.6c-0.3,0.2-0.8,0.3-1.5,0.3
		c-1.5,0-2.3-1-2.3-2.3c0-1.5,0.8-2.5,2.2-2.5c1.5,0,1.9,1.4,1.9,2.2c0,0.2,0,0.3,0,0.4L512.4,213.7L512.4,213.7z M514.9,213.1
		c0-0.6-0.2-1.4-1.2-1.4c-0.9,0-1.2,0.8-1.3,1.4H514.9z"/>
	<path class="st1" d="M516.7,212.5c0-0.5,0-0.9,0-1.3h0.7l0.1,0.8l0,0c0.2-0.5,0.8-0.9,1.5-0.9c0.6,0,1.7,0.4,1.7,2v2.8h-0.9v-2.7
		c0-0.7-0.2-1.4-1.1-1.4c-0.6,0-1,0.4-1.1,0.9c0,0.1-0.1,0.2-0.1,0.4v2.8h-0.9L516.7,212.5L516.7,212.5z"/>
	<path class="st1" d="M523.1,209.8v1.4h1.2v0.6h-1.2v2.5c0,0.6,0.2,0.9,0.6,0.9c0.2,0,0.4,0,0.5-0.1v0.6c-0.2,0.1-0.4,0.1-0.7,0.1
		c-0.4,0-0.7-0.2-0.9-0.3c-0.2-0.2-0.3-0.6-0.3-1.2v-2.6h-0.7v-0.6h0.7v-1.1L523.1,209.8z"/>
	<path class="st1" d="M527.9,215.9l-0.1-0.6l0,0c-0.2,0.4-0.7,0.7-1.5,0.7c-1,0-1.5-0.6-1.5-1.4c0-1.1,1-1.8,2.8-1.8v-0.1
		c0-0.4-0.1-1.1-1.1-1.1c-0.4,0-0.9,0.2-1.2,0.3l-0.2-0.6c0.4-0.2,1-0.4,1.5-0.4c1.5,0,1.8,1,1.8,1.9v1.8c0,0.4,0,0.8,0.1,1.1
		L527.9,215.9L527.9,215.9z M527.7,213.5c-1,0-2,0.2-2,1.1c0,0.6,0.4,0.8,0.8,0.8c0.6,0,1-0.4,1.1-0.8c0-0.1,0.1-0.2,0.1-0.2V213.5z
		"/>
	<path class="st1" d="M530.9,209.8v1.4h1.2v0.6h-1.2v2.5c0,0.6,0.2,0.9,0.6,0.9c0.2,0,0.4,0,0.5-0.1v0.6c-0.2,0.1-0.4,0.1-0.7,0.1
		c-0.4,0-0.7-0.2-0.9-0.3c-0.2-0.2-0.3-0.6-0.3-1.2v-2.6h-0.7v-0.6h0.7v-1.1L530.9,209.8z"/>
	<path class="st1" d="M534.1,209.9c0,0.3-0.2,0.5-0.6,0.5c-0.3,0-0.5-0.2-0.5-0.5c0-0.3,0.2-0.6,0.6-0.6
		C533.8,209.3,534.1,209.6,534.1,209.9z M533.1,215.9v-4.7h0.9v4.7H533.1z"/>
	<path class="st1" d="M539.6,213.6c0,1.7-1.2,2.5-2.3,2.5c-1.3,0-2.3-1-2.3-2.4c0-1.5,1.1-2.5,2.3-2.5
		C538.7,211.1,539.6,212.1,539.6,213.6z M535.9,213.6c0,1.1,0.6,1.8,1.5,1.8c0.8,0,1.5-0.7,1.5-1.9c0-0.8-0.4-1.8-1.4-1.8
		C536.4,211.7,535.9,212.7,535.9,213.6z"/>
	<path class="st1" d="M540.7,212.5c0-0.5,0-0.9,0-1.3h0.7l0.1,0.8l0,0c0.2-0.5,0.8-0.9,1.5-0.9c0.6,0,1.7,0.4,1.7,2v2.8h-0.9v-2.7
		c0-0.7-0.2-1.4-1.1-1.4c-0.6,0-1,0.4-1.1,0.9c0,0.1-0.1,0.2-0.1,0.4v2.8h-0.9L540.7,212.5L540.7,212.5z"/>
</g>
<path d="M145.8,223.7H70.6c-6.1,0-11-4.9-11-11l0,0c0-6.1,4.9-11,11-11h75.1c6.1,0,11,4.9,11,11l0,0
	C156.7,218.7,151.7,223.7,145.8,223.7z"/>
<g>
	<path class="st1" d="M87.5,212.6c0,2.3-1.4,3.5-3.1,3.5c-1.7,0-2.9-1.4-2.9-3.3c0-2.1,1.3-3.4,3.1-3.4
		C86.3,209.3,87.5,210.6,87.5,212.6z M82.4,212.7c0,1.4,0.7,2.7,2.1,2.7s2.1-1.2,2.1-2.7c0-1.3-0.6-2.7-2.1-2.7
		C83.1,209.9,82.4,211.2,82.4,212.7z"/>
	<path class="st1" d="M88.5,212.7c0-0.6,0-1.1,0-1.5h0.7v0.9l0,0c0.2-0.6,0.7-1.1,1.3-1.1c0.1,0,0.2,0,0.2,0v0.8c-0.1,0-0.2,0-0.3,0
		c-0.6,0-1.1,0.5-1.1,1.1c0,0.1,0,0.2,0,0.4v2.5h-0.8C88.5,215.9,88.5,212.7,88.5,212.7z"/>
	<path class="st1" d="M95.7,211.2c0,0.3,0,0.7,0,1.3v2.7c0,1.1-0.2,1.7-0.6,2.2c-0.5,0.4-1.1,0.6-1.7,0.6c-0.6,0-1.2-0.2-1.5-0.4
		l0.2-0.7c0.3,0.2,0.8,0.4,1.4,0.4c0.9,0,1.5-0.5,1.5-1.6v-0.5l0,0c-0.2,0.4-0.7,0.8-1.5,0.8c-1.1,0-2-1-2-2.3
		c0-1.6,1.1-2.5,2.1-2.5c0.8,0,1.3,0.4,1.5,0.8l0,0v-0.7L95.7,211.2L95.7,211.2z M94.8,213.1c0-0.2,0-0.2-0.1-0.4
		c-0.2-0.5-0.6-0.9-1.2-0.9c-0.8,0-1.4,0.7-1.4,1.8c0,0.9,0.5,1.7,1.4,1.7c0.5,0,1-0.3,1.2-0.9c0.1-0.2,0.1-0.3,0.1-0.5V213.1z"/>
	<path class="st1" d="M99.6,215.9l-0.1-0.6l0,0c-0.2,0.4-0.7,0.7-1.5,0.7c-1,0-1.5-0.6-1.5-1.4c0-1.1,1-1.8,2.8-1.8v-0.1
		c0-0.4-0.1-1.1-1.1-1.1c-0.4,0-0.9,0.2-1.2,0.3l-0.2-0.6c0.4-0.2,1-0.4,1.5-0.4c1.5,0,1.8,1,1.8,1.9v1.8c0,0.4,0,0.8,0.1,1.1
		L99.6,215.9L99.6,215.9z M99.5,213.5c-1,0-2,0.2-2,1.1c0,0.6,0.4,0.8,0.8,0.8c0.6,0,1-0.4,1.1-0.8c0-0.1,0.1-0.2,0.1-0.2V213.5z"/>
	<path class="st1" d="M101.7,212.5c0-0.5,0-0.9,0-1.3h0.7l0.1,0.8l0,0c0.2-0.5,0.8-0.9,1.5-0.9c0.6,0,1.7,0.4,1.7,2v2.8h-0.9v-2.7
		c0-0.7-0.2-1.4-1.1-1.4c-0.6,0-1,0.4-1.1,0.9c0,0.1-0.1,0.2-0.1,0.4v2.8h-0.9C101.7,216.1,101.7,212.5,101.7,212.5z"/>
	<path class="st1" d="M108.1,209.9c0,0.3-0.2,0.5-0.6,0.5s-0.5-0.2-0.5-0.5c0-0.3,0.2-0.6,0.6-0.6
		C107.9,209.3,108.1,209.6,108.1,209.9z M107.1,215.9v-4.7h0.9v4.7H107.1z"/>
	<path class="st1" d="M108.8,215.4l2.1-2.7c0.2-0.2,0.4-0.5,0.6-0.7l0,0h-2.5v-0.7h3.6v0.6l-2.1,2.7c-0.2,0.2-0.4,0.5-0.6,0.7l0,0
		h2.7v0.6h-3.8L108.8,215.4L108.8,215.4z"/>
	<path class="st1" d="M116.1,215.9l-0.1-0.6l0,0c-0.2,0.4-0.7,0.7-1.5,0.7c-1,0-1.5-0.6-1.5-1.4c0-1.1,1-1.8,2.8-1.8v-0.1
		c0-0.4-0.1-1.1-1.1-1.1c-0.4,0-0.9,0.2-1.2,0.3l-0.2-0.6c0.4-0.2,1-0.4,1.5-0.4c1.5,0,1.8,1,1.8,1.9v1.8c0,0.4,0,0.8,0.1,1.1
		L116.1,215.9L116.1,215.9z M116,213.5c-1,0-2,0.2-2,1.1c0,0.6,0.4,0.8,0.8,0.8c0.6,0,1-0.4,1.1-0.8c0-0.1,0.1-0.2,0.1-0.2V213.5z"
		/>
	<path class="st1" d="M119.2,209.8v1.4h1.2v0.6h-1.2v2.5c0,0.6,0.2,0.9,0.6,0.9c0.2,0,0.4,0,0.5-0.1v0.6c-0.2,0.1-0.4,0.1-0.7,0.1
		c-0.4,0-0.7-0.2-0.9-0.3c-0.2-0.2-0.3-0.6-0.3-1.2v-2.6h-0.7v-0.6h0.7v-1.1L119.2,209.8z"/>
	<path class="st1" d="M122.3,209.9c0,0.3-0.2,0.5-0.6,0.5c-0.3,0-0.5-0.2-0.5-0.5c0-0.3,0.2-0.6,0.6-0.6S122.3,209.6,122.3,209.9z
		 M121.4,215.9v-4.7h0.9v4.7H121.4z"/>
	<path class="st1" d="M127.9,213.6c0,1.7-1.2,2.5-2.3,2.5c-1.3,0-2.3-1-2.3-2.4c0-1.5,1.1-2.5,2.3-2.5
		C127,211.1,127.9,212.1,127.9,213.6z M124.2,213.6c0,1.1,0.6,1.8,1.5,1.8c0.8,0,1.5-0.7,1.5-1.9c0-0.8-0.4-1.8-1.4-1.8
		C124.6,211.8,124.2,212.7,124.2,213.6z"/>
	<path class="st1" d="M128.9,212.5c0-0.5,0-0.9,0-1.3h0.7l0.1,0.8l0,0c0.2-0.5,0.8-0.9,1.5-0.9c0.6,0,1.7,0.4,1.7,2v2.8h-0.9v-2.7
		c0-0.7-0.2-1.4-1.1-1.4c-0.6,0-1,0.4-1.1,0.9c0,0.1-0.1,0.2-0.1,0.4v2.8h-0.9V212.5z"/>
</g>
<g>
	<path class="st2" d="M156.7,101.4h37.4c4.4,0,11,2.2,14.5,4.8l58.3,43.9"/>
</g>
<g>
	<path class="st2" d="M156.7,212.7h37.4c4.4,0,11-2.2,14.5-4.8l58.6-43.3"/>
</g>
<g>
	<path class="st2" d="M464.9,101.4h-37.4c-4.4,0-11,2.2-14.5,4.8l-58.3,43.9"/>
</g>
<g>
	<path class="st2" d="M464.9,212.7h-37.4c-4.4,0-11-2.2-14.5-4.8l-58.6-43.3"/>
</g>
</svg>
