<?xml version="1.0" encoding="utf-8"?>
<!-- Generator: Adobe Illustrator 25.0.1, SVG Export Plug-In . SVG Version: 6.00 Build 0)  -->
<svg version="1.1" id="Layer_1" xmlns="http://www.w3.org/2000/svg" xmlns:xlink="http://www.w3.org/1999/xlink" x="0px" y="0px"
	 viewBox="0 0 621 247.4" style="enable-background:new 0 0 621 247.4;" xml:space="preserve">
<style type="text/css">
	.st0{fill:#CECECE;}
	.st1{fill:#FFFFFF;}
	.st2{fill:none;stroke:#000000;stroke-width:0.5;stroke-miterlimit:10;}
</style>
<path d="M106.6,109.6h-93C6.1,109.6,0,103.6,0,96.1v0c0-7.5,6.1-13.6,13.6-13.6h93c7.5,0,13.6,6.1,13.6,13.6v0
	C120.1,103.6,114,109.6,106.6,109.6z"/>
<g id="Social_network">
	<path class="st0" d="M76.7,24.7h2.1v2.1h-2.1V24.7z"/>
	<path class="st0" d="M88.1,17.5c1.7,0,3.1-1.4,3.1-3.1V6c0-1.7-1.4-3.1-3.1-3.1H69.4c-1.7,0-3.1,1.4-3.1,3.1v8.3
		c0,1.3,0.8,2.5,2.1,2.9v3.3H51.7v-3.3c1.3-0.4,2.1-1.6,2.1-2.9V6c0-1.7-1.4-3.1-3.1-3.1H32c-1.7,0-3.1,1.4-3.1,3.1v8.3
		c0,1.7,1.4,3.1,3.1,3.1h12l2.3,3.1h-6c-1.7,0-3.1,1.4-3.1,3.1v4.9l-6,6.9c-0.2,0.2-0.3,0.4-0.3,0.7V57h-1c-0.6,0-1,0.5-1,1v6.2
		c0,0.6,0.5,1,1,1h16.6c0.6,0,1-0.5,1-1V58c0-0.6-0.5-1-1-1h-2.2c1.4-1.4,2.2-3.3,2.2-5.2v-4.2h27v4.2c0,2,0.8,3.9,2.2,5.2h-2.2
		c-0.6,0-1,0.5-1,1v6.2c0,0.6,0.5,1,1,1h16.6c0.6,0,1-0.5,1-1V58c0-0.6-0.5-1-1-1h-1V36.2c0-0.3-0.1-0.5-0.3-0.7l-6-6.9v-4.9
		c0-1.7-1.4-3.1-3.1-3.1h-6l2.3-3.1C76.2,17.5,88.1,17.5,88.1,17.5z M45.3,15.8c-0.2-0.3-0.5-0.4-0.8-0.4H32c-0.6,0-1-0.5-1-1V6
		c0-0.6,0.5-1,1-1h18.7c0.6,0,1,0.5,1,1v8.3c0,0.6-0.5,1-1,1s-1,0.5-1,1v5.2L45.3,15.8z M39.3,28.2l1.3,0.3c0.5,0.1,0.8,0.5,0.8,1
		v3.7c0,0-0.1,0.1-0.2,0.1l-1.9,1.9L39.3,28.2L39.3,28.2z M45.5,59.1v4.2H30.9v-4.2H45.5z M44.5,51.8c0,2.9-2.3,5.2-5.2,5.2H33V36.6
		l4.2-4.8v6c0,0.4,0.3,0.8,0.7,1c0.4,0.2,0.8,0.1,1.1-0.2l3.7-3.7c0.8-0.8,2.1-0.8,2.9,0c0.8,0.8,0.8,2.1,0,2.9l0,0L41,42.3
		c-1.2,1.2-1.2,3.2,0,4.4c0.6,0.6,1.4,0.9,2.2,0.9h1.2L44.5,51.8L44.5,51.8z M89.2,59.1v4.2H74.6v-4.2H89.2z M82.3,38.7
		c0.4-0.2,0.7-0.5,0.7-1v-6l4.2,4.8V57h-6.2c-2.9,0-5.2-2.3-5.2-5.2v-4.2h1.2c1.7,0,3.1-1.4,3.1-3.1c0-0.8-0.3-1.6-0.9-2.2l-4.6-4.5
		c-0.8-0.8-0.8-2.1,0-2.9l0,0c0.8-0.8,2.1-0.8,2.9,0l3.7,3.7C81.5,38.8,81.9,38.9,82.3,38.7z M79.8,22.7c0.6,0,1,0.5,1,1v11.6
		L79,33.4c0,0-0.1-0.1-0.2-0.1V29h-2.1v3.3c-0.2,0-0.5,0-0.7,0c-1.1,0-2.2,0.4-2.9,1.2c-1.6,1.6-1.6,4.2,0,5.9l4.6,4.6
		c0.3,0.3,0.4,0.7,0.2,1.1c-0.2,0.4-0.6,0.6-1,0.6H43.2c-0.4,0-0.8-0.3-1-0.6c-0.2-0.4-0.1-0.8,0.2-1.1l4.5-4.6
		c0.8-0.8,1.2-1.8,1.2-2.9c0-2.3-1.8-4.1-4.1-4.1c-0.3,0-0.5,0-0.8,0.1v-2.7c0-1.4-1-2.7-2.3-3l-1.8-0.4v-2.3c0-0.6,0.5-1,1-1h7.5
		l2,2.7c0.2,0.3,0.5,0.4,0.8,0.4c0.1,0,0.2,0,0.3,0c0.4-0.1,0.7-0.6,0.7-1v-2.1h16.6v2.1c0,0.4,0.3,0.8,0.7,1c0.1,0,0.2,0,0.3,0
		c0.3,0,0.7-0.2,0.8-0.4l2-2.7L79.8,22.7z M74.8,15.8l-4.4,5.8v-5.2c0-0.6-0.5-1-1-1c-0.6,0-1-0.5-1-1V6c0-0.6,0.5-1,1-1h18.7
		c0.6,0,1,0.5,1,1v8.3c0,0.6-0.5,1-1,1H75.7C75.4,15.4,75,15.6,74.8,15.8z"/>
	<path class="st0" d="M33,7.1h2.1v2.1H33V7.1z"/>
	<path class="st0" d="M37.2,7.1h12.5v2.1H37.2V7.1z"/>
	<path class="st0" d="M33,11.2h16.6v2.1H33V11.2z"/>
	<path class="st0" d="M70.5,7.1h2.1v2.1h-2.1V7.1z"/>
	<path class="st0" d="M74.6,7.1h12.5v2.1H74.6V7.1z"/>
	<path class="st0" d="M70.5,11.2h16.6v2.1H70.5V11.2z"/>
</g>
<g id="Layer_12">
	<path class="st0" d="M88.2,155.7h-2.6v-0.9c0-0.5-0.4-0.9-0.9-0.9h-4.4v-0.9c0-1.4-1.2-2.6-2.6-2.6c-1.4,0-2.6,1.2-2.6,2.6v0.9
		h-3.5v-0.9c0-1.4-1.2-2.6-2.6-2.6c-1.4,0-2.6,1.2-2.6,2.6v0.9h-3.5v-0.9c0-1.4-1.2-2.6-2.6-2.6c-1.4,0-2.6,1.2-2.6,2.6v0.9h-3.5
		v-0.9c0-1.4-1.2-2.6-2.6-2.6c-1.4,0-2.6,1.2-2.6,2.6v0.9h-3.5v-0.9c0-1.4-1.2-2.6-2.6-2.6c-1.4,0-2.6,1.2-2.6,2.6v0.9h-4.4
		c-0.5,0-0.9,0.4-0.9,0.9v45.4c0,0.5,0.4,0.9,0.9,0.9h0.9v2.6c0,0.5,0.4,0.9,0.9,0.9h50.6c0.5,0,0.9-0.4,0.9-0.9v-47.1
		C89.1,156.1,88.7,155.7,88.2,155.7z M36.8,199.4v-33.2h47.1v33.2H36.8z M76.9,153.1c0-0.5,0.4-0.9,0.9-0.9c0.5,0,0.9,0.4,0.9,0.9
		v3.5c0,0.5-0.4,0.9-0.9,0.9c-0.5,0-0.9-0.4-0.9-0.9V153.1z M68.2,153.1c0-0.5,0.4-0.9,0.9-0.9s0.9,0.4,0.9,0.9v3.5
		c0,0.5-0.4,0.9-0.9,0.9s-0.9-0.4-0.9-0.9V153.1z M59.4,153.1c0-0.5,0.4-0.9,0.9-0.9s0.9,0.4,0.9,0.9v3.5c0,0.5-0.4,0.9-0.9,0.9
		s-0.9-0.4-0.9-0.9V153.1z M50.7,153.1c0-0.5,0.4-0.9,0.9-0.9c0.5,0,0.9,0.4,0.9,0.9v3.5c0,0.5-0.4,0.9-0.9,0.9
		c-0.5,0-0.9-0.4-0.9-0.9V153.1z M42,153.1c0-0.5,0.4-0.9,0.9-0.9s0.9,0.4,0.9,0.9v3.5c0,0.5-0.4,0.9-0.9,0.9s-0.9-0.4-0.9-0.9
		V153.1z M40.3,155.7v0.9c0,1.4,1.2,2.6,2.6,2.6c1.4,0,2.6-1.2,2.6-2.6v-0.9H49v0.9c0,1.4,1.2,2.6,2.6,2.6c1.4,0,2.6-1.2,2.6-2.6
		v-0.9h3.5v0.9c0,1.4,1.2,2.6,2.6,2.6c1.4,0,2.6-1.2,2.6-2.6v-0.9h3.5v0.9c0,1.4,1.2,2.6,2.6,2.6c1.4,0,2.6-1.2,2.6-2.6v-0.9h3.5
		v0.9c0,1.4,1.2,2.6,2.6,2.6c1.4,0,2.6-1.2,2.6-2.6v-0.9H84v8.7H36.8v-8.7H40.3z M87.4,202.9H38.5v-1.8h46.2c0.5,0,0.9-0.4,0.9-0.9
		v-42.8h1.8V202.9z"/>
	<path class="st0" d="M69.2,173.2h0.7v-1.8h-3.5c-0.5,0-0.9,0.4-0.9,0.9v3.5h1.8v-1.9c4.9,3.9,5.8,11,1.9,15.9
		c-3.1,3.9-8.4,5.4-13,3.6l-0.6,1.6c1.5,0.6,3.1,0.9,4.7,0.9c7.2,0,13.1-5.9,13.1-13.1C73.4,179.1,71.8,175.6,69.2,173.2z"/>
	<path class="st0" d="M53.3,191.7c-4.9-3.9-5.8-11-1.9-15.9c3.1-3.9,8.4-5.4,13-3.6l0.6-1.6c-1.5-0.6-3.1-0.9-4.7-0.9
		c-7.2,0-13.1,5.9-13.1,13.1c0,3.6,1.5,7.1,4.2,9.6h-0.7v1.8h3.5c0.5,0,0.9-0.4,0.9-0.9v-3.5h-1.8L53.3,191.7L53.3,191.7z"/>
	<path class="st0" d="M52.5,182.8c0,4.3,3.5,7.8,7.8,7.8s7.8-3.5,7.8-7.8s-3.5-7.8-7.8-7.8S52.5,178.4,52.5,182.8z M66.4,181.9h-1.7
		v1.8h1.7c-0.4,2.7-2.5,4.8-5.2,5.2v-1.7h-1.8v1.7c-2.7-0.4-4.8-2.5-5.2-5.2h1.7v-1.8h-1.7c0.4-2.7,2.5-4.8,5.2-5.2v1.7h1.8v-1.7
		C63.9,177.1,66,179.2,66.4,181.9z"/>
	<path class="st0" d="M61.2,180.1h-1.8v2.6c0,0.2,0.1,0.4,0.2,0.6l2.6,2.6l1.2-1.2l-2.3-2.3L61.2,180.1L61.2,180.1z"/>
</g>
<g>
	<g>
		<path class="st0" d="M564.9,63.6h-8c-1.8,0-4-1.6-4-4.8v-5.5c0-2.7-1.3-5-3.4-6.9c-4.8-3.7-7.1-9-7.1-14.8
			c0.3-10.1,8.5-18,18.3-18.3c5,0,9.8,1.8,13.2,5.3s5.5,8.2,5.5,13.2c0,5.5-2.4,10.9-6.9,14.3c-2.4,1.8-3.7,4.8-3.7,7.4v6.1
			C568.9,61.8,567.1,63.6,564.9,63.6L564.9,63.6z M561,15.9c-8.5,0-15.7,7.1-15.9,15.7c0,5,2.1,9.8,6.1,12.7c2.9,2.4,4.5,5.5,4.5,9
			v5.5c0,0.5,0,2.1,1.3,2.1h8c0.8,0,1.3-0.5,1.3-1.3v-6.1c0-3.4,1.8-7.2,4.8-9.5c3.7-2.9,5.8-7.4,5.8-12.2c0-4.3-1.6-8.2-4.8-11.4
			C569.2,17.5,565.2,15.9,561,15.9L561,15.9z"/>
	</g>
	<g>
		<path class="st0" d="M567.6,55.7h-13.2c-0.8,0-1.3-0.5-1.3-1.3s0.5-1.3,1.3-1.3h13.2c0.8,0,1.3,0.5,1.3,1.3S568.4,55.7,567.6,55.7
			z"/>
	</g>
	<g>
		<path class="st0" d="M561,8c-0.8,0-1.3-0.5-1.3-1.3V1.3c0-0.8,0.5-1.3,1.3-1.3s1.3,0.5,1.3,1.3v5.3C562.3,7.4,561.8,8,561,8z"/>
	</g>
	<g>
		<path class="st0" d="M578.7,15.4c-0.3,0-0.8,0-1.1-0.3c-0.5-0.5-0.5-1.3,0-1.8l3.7-3.7c0.5-0.5,1.3-0.5,1.8,0s0.5,1.3,0,1.8
			l-3.7,3.7C579.5,15.1,579,15.4,578.7,15.4L578.7,15.4z"/>
	</g>
	<g>
		<path class="st0" d="M591.5,33.2h-5.3c-0.8,0-1.3-0.5-1.3-1.3c0-0.8,0.5-1.3,1.3-1.3h5.3c0.8,0,1.3,0.5,1.3,1.3
			C592.8,32.6,592.3,33.2,591.5,33.2z"/>
	</g>
	<g>
		<path class="st0" d="M582.4,54.7c-0.3,0-0.8,0-1.1-0.3l-3.7-3.7c-0.5-0.5-0.5-1.3,0-1.8c0.5-0.5,1.3-0.5,1.8,0l3.7,3.7
			c0.5,0.5,0.5,1.3,0,1.8C583.2,54.7,583,54.7,582.4,54.7L582.4,54.7z"/>
	</g>
	<g>
		<path class="st0" d="M539.5,54.7c-0.3,0-0.8,0-1.1-0.3c-0.5-0.5-0.5-1.3,0-1.8l3.7-3.7c0.5-0.5,1.3-0.5,1.8,0s0.5,1.3,0,1.8
			l-3.7,3.7C540,54.7,539.8,54.7,539.5,54.7z"/>
	</g>
	<g>
		<path class="st0" d="M535.8,33.2h-5.3c-0.8,0-1.3-0.5-1.3-1.3c0-0.8,0.5-1.3,1.3-1.3h5.3c0.8,0,1.3,0.5,1.3,1.3
			C537.1,32.6,536.6,33.2,535.8,33.2z"/>
	</g>
	<g>
		<path class="st0" d="M543.2,15.4c-0.3,0-0.8,0-1.1-0.3l-3.7-4c-0.5-0.5-0.5-1.3,0-1.8c0.5-0.5,1.3-0.5,1.8,0L544,13
			c0.5,0.5,0.5,1.3,0,1.8C543.7,15.1,543.5,15.4,543.2,15.4L543.2,15.4z"/>
	</g>
	<g>
		<path class="st0" d="M571.6,33.2c-0.8,0-1.3-0.5-1.3-1.3c0-5-4.3-9.3-9.3-9.3c-0.8,0-1.3-0.5-1.3-1.3c0-0.8,0.5-1.3,1.3-1.3
			c6.6,0,12,5.3,12,12C572.9,32.6,572.4,33.2,571.6,33.2z"/>
	</g>
</g>
<g>
	<path class="st0" d="M544.3,163.3h23.6v1.5h-23.6V163.3z"/>
	<path class="st0" d="M544.3,171.2h23.6v1.5h-23.6V171.2z"/>
	<path class="st0" d="M544.3,175.2H560v1.5h-15.7V175.2z"/>
	<path class="st0" d="M544.3,167.3h23.6v1.5h-23.6V167.3z"/>
	<path class="st0" d="M550.9,153.5h-7.4v7.4h7.4V153.5z M549.4,159.4H545V155h4.4V159.4z"/>
	<path class="st0" d="M576.5,179.1v-36.2h-33v3.9h-3.9v32.2h-3.9v26.8h44.8v-26.8H576.5z M545,144.4h30v34.7h-2.4v-22l-10.3-10.3
		H545V144.4z M562.7,149.4l7.3,7.3h-7.3V149.4z M541.1,148.3h20.2v9.8h9.8v20.9h-5.9v3.9h-14.3v-3.9h-9.8V148.3z M549.4,180.5v3.9
		h17.2v-3.9H579v20.7h-41.8v-20.7H549.4z M537.2,204.4v-1.7H579v1.7H537.2z"/>
	<path class="st0" d="M566.7,188.9h-17.2v5.4h17.2V188.9z M565.2,192.9h-14.3v-2.4h14.3V192.9z"/>
</g>
<g>
	<path class="st1" d="M26.3,99.8c-0.4,0.2-1.2,0.4-2.1,0.4c-2.3,0-4-1.4-4-4.1c0-2.5,1.7-4.2,4.2-4.2c1,0,1.6,0.2,1.9,0.4L26.1,93
		c-0.4-0.2-1-0.3-1.6-0.3c-1.9,0-3.2,1.2-3.2,3.3c0,2,1.1,3.3,3.1,3.3c0.6,0,1.3-0.1,1.7-0.3L26.3,99.8z"/>
	<path class="st1" d="M32.7,97.1c0,2.1-1.5,3.1-2.9,3.1c-1.6,0-2.8-1.2-2.8-3c0-1.9,1.3-3.1,2.9-3.1C31.6,94.1,32.7,95.3,32.7,97.1z
		 M28.1,97.1c0,1.3,0.7,2.2,1.8,2.2c1,0,1.8-0.9,1.8-2.3c0-1-0.5-2.2-1.7-2.2C28.6,94.9,28.1,96,28.1,97.1z"/>
	<path class="st1" d="M34,95.8c0-0.6,0-1.1,0-1.6h0.9l0,0.9h0c0.3-0.6,0.9-1.1,1.8-1.1c0.8,0,1.4,0.5,1.6,1.2h0
		c0.2-0.3,0.4-0.6,0.6-0.8c0.3-0.3,0.7-0.4,1.3-0.4c0.8,0,1.9,0.5,1.9,2.5v3.4h-1v-3.3c0-1.1-0.4-1.8-1.3-1.8c-0.6,0-1.1,0.4-1.2,1
		c0,0.1-0.1,0.3-0.1,0.5v3.6h-1v-3.5c0-0.9-0.4-1.6-1.2-1.6c-0.7,0-1.1,0.5-1.3,1.1c-0.1,0.2-0.1,0.3-0.1,0.5v3.5h-1V95.8z"/>
	<path class="st1" d="M44,95.8c0-0.6,0-1.1,0-1.6h0.9l0,0.9h0c0.3-0.6,0.9-1.1,1.8-1.1c0.8,0,1.4,0.5,1.6,1.2h0
		c0.2-0.3,0.4-0.6,0.6-0.8c0.3-0.3,0.7-0.4,1.3-0.4c0.8,0,1.9,0.5,1.9,2.5v3.4h-1v-3.3c0-1.1-0.4-1.8-1.3-1.8c-0.6,0-1.1,0.4-1.2,1
		c0,0.1-0.1,0.3-0.1,0.5v3.6h-1v-3.5c0-0.9-0.4-1.6-1.2-1.6c-0.7,0-1.1,0.5-1.3,1.1c-0.1,0.2-0.1,0.3-0.1,0.5v3.5h-1V95.8z"/>
	<path class="st1" d="M58.9,98.4c0,0.6,0,1.1,0,1.6H58l-0.1-0.9h0c-0.3,0.5-0.9,1.1-1.9,1.1c-0.9,0-2-0.5-2-2.5v-3.4h1.1v3.2
		c0,1.1,0.3,1.8,1.3,1.8c0.7,0,1.2-0.5,1.4-1c0.1-0.2,0.1-0.3,0.1-0.5v-3.6h1.1V98.4z"/>
	<path class="st1" d="M60.7,95.8c0-0.6,0-1.1,0-1.6h0.9l0.1,1h0c0.3-0.6,1-1.1,1.9-1.1c0.8,0,2.1,0.5,2.1,2.5v3.5h-1.1v-3.3
		c0-0.9-0.3-1.7-1.3-1.7c-0.7,0-1.2,0.5-1.4,1.1c0,0.1-0.1,0.3-0.1,0.5v3.5h-1.1V95.8z"/>
	<path class="st1" d="M68.5,92.6c0,0.4-0.3,0.6-0.7,0.6c-0.4,0-0.6-0.3-0.6-0.6c0-0.4,0.3-0.7,0.7-0.7
		C68.2,91.9,68.5,92.2,68.5,92.6z M67.3,100v-5.8h1.1v5.8H67.3z"/>
	<path class="st1" d="M74.3,99.8c-0.3,0.1-0.9,0.3-1.7,0.3c-1.8,0-2.9-1.2-2.9-3c0-1.8,1.2-3.1,3.1-3.1c0.6,0,1.2,0.2,1.5,0.3
		L74,95.2c-0.3-0.1-0.6-0.3-1.2-0.3c-1.3,0-2.1,1-2.1,2.2c0,1.3,0.9,2.2,2,2.2c0.6,0,1-0.2,1.3-0.3L74.3,99.8z"/>
	<path class="st1" d="M78.7,100l-0.1-0.7h0c-0.3,0.5-0.9,0.9-1.8,0.9c-1.2,0-1.8-0.8-1.8-1.7c0-1.4,1.2-2.2,3.5-2.2v-0.1
		c0-0.5-0.1-1.3-1.3-1.3c-0.5,0-1.1,0.2-1.5,0.4l-0.2-0.7c0.5-0.3,1.2-0.5,1.9-0.5c1.8,0,2.2,1.2,2.2,2.4v2.2c0,0.5,0,1,0.1,1.4
		H78.7z M78.6,97.1c-1.2,0-2.5,0.2-2.5,1.3c0,0.7,0.5,1,1,1c0.8,0,1.2-0.5,1.4-1c0-0.1,0.1-0.2,0.1-0.3V97.1z"/>
	<path class="st1" d="M82.5,92.5v1.7H84V95h-1.5v3.1c0,0.7,0.2,1.1,0.8,1.1c0.3,0,0.5,0,0.6-0.1l0,0.8c-0.2,0.1-0.5,0.1-0.9,0.1
		c-0.5,0-0.9-0.2-1.1-0.4c-0.3-0.3-0.4-0.8-0.4-1.5V95h-0.9v-0.8h0.9v-1.4L82.5,92.5z"/>
	<path class="st1" d="M86.4,92.6c0,0.4-0.3,0.6-0.7,0.6c-0.4,0-0.6-0.3-0.6-0.6c0-0.4,0.3-0.7,0.7-0.7
		C86.1,91.9,86.4,92.2,86.4,92.6z M85.2,100v-5.8h1.1v5.8H85.2z"/>
	<path class="st1" d="M93.3,97.1c0,2.1-1.5,3.1-2.9,3.1c-1.6,0-2.8-1.2-2.8-3c0-1.9,1.3-3.1,2.9-3.1C92.1,94.1,93.3,95.3,93.3,97.1z
		 M88.7,97.1c0,1.3,0.7,2.2,1.8,2.2c1,0,1.8-0.9,1.8-2.3c0-1-0.5-2.2-1.7-2.2C89.2,94.9,88.7,96,88.7,97.1z"/>
	<path class="st1" d="M94.6,95.8c0-0.6,0-1.1,0-1.6h0.9l0.1,1h0c0.3-0.6,1-1.1,1.9-1.1c0.8,0,2.1,0.5,2.1,2.5v3.5h-1.1v-3.3
		c0-0.9-0.3-1.7-1.3-1.7c-0.7,0-1.2,0.5-1.4,1.1c0,0.1-0.1,0.3-0.1,0.5v3.5h-1.1V95.8z"/>
</g>
<path d="M356.9,179.7h-93c-7.5,0-13.6-6.1-13.6-13.6v0c0-7.5,6.1-13.6,13.6-13.6h93c7.5,0,13.6,6.1,13.6,13.6v0
	C370.4,173.7,364.4,179.7,356.9,179.7z"/>
<g>
	<path class="st1" d="M282.4,162.2h-2.5v-0.9h6v0.9h-2.5v7.2h-1.1V162.2z"/>
	<path class="st1" d="M286.7,160.8h1.1v3.6h0c0.2-0.3,0.4-0.6,0.8-0.7c0.3-0.2,0.7-0.3,1.1-0.3c0.8,0,2,0.5,2,2.5v3.5h-1.1V166
		c0-0.9-0.3-1.7-1.3-1.7c-0.7,0-1.2,0.5-1.4,1.1c-0.1,0.1-0.1,0.3-0.1,0.5v3.5h-1.1V160.8z"/>
	<path class="st1" d="M293.9,166.6c0,1.4,0.9,2,2,2c0.8,0,1.2-0.1,1.6-0.3l0.2,0.8c-0.4,0.2-1,0.4-1.9,0.4c-1.8,0-2.9-1.2-2.9-2.9
		c0-1.8,1-3.1,2.7-3.1c1.9,0,2.4,1.7,2.4,2.7c0,0.2,0,0.4,0,0.5H293.9z M297,165.9c0-0.7-0.3-1.7-1.5-1.7c-1.1,0-1.5,1-1.6,1.7H297z
		"/>
	<path class="st1" d="M308.8,165.2c0,2.8-1.7,4.3-3.8,4.3c-2.1,0-3.6-1.7-3.6-4.1c0-2.6,1.6-4.2,3.8-4.2
		C307.4,161.1,308.8,162.8,308.8,165.2z M302.6,165.4c0,1.7,0.9,3.3,2.6,3.3c1.7,0,2.6-1.5,2.6-3.4c0-1.6-0.8-3.3-2.6-3.3
		C303.4,162,302.6,163.6,302.6,165.4z"/>
	<path class="st1" d="M310.2,161.4c0.5-0.1,1.2-0.2,1.9-0.2c1,0,1.7,0.2,2.2,0.6c0.4,0.3,0.7,0.8,0.7,1.4c0,0.8-0.5,1.5-1.4,1.8v0
		c0.8,0.2,1.7,0.8,1.7,2c0,0.7-0.3,1.2-0.7,1.6c-0.6,0.5-1.5,0.8-2.8,0.8c-0.7,0-1.3,0-1.6-0.1V161.4z M311.2,164.7h0.9
		c1.1,0,1.8-0.6,1.8-1.4c0-0.9-0.7-1.3-1.8-1.3c-0.5,0-0.8,0-0.9,0.1V164.7z M311.2,168.6c0.2,0,0.5,0,0.9,0c1.1,0,2.1-0.4,2.1-1.6
		c0-1.1-0.9-1.6-2.1-1.6h-0.9V168.6z"/>
	<path class="st1" d="M316.7,161.4c0.5-0.1,1.2-0.2,2-0.2c1,0,1.8,0.2,2.3,0.7c0.4,0.4,0.7,1,0.7,1.7c0,0.7-0.2,1.3-0.6,1.7
		c-0.6,0.6-1.5,0.9-2.5,0.9c-0.3,0-0.6,0-0.8-0.1v3.2h-1V161.4z M317.7,165.3c0.2,0.1,0.5,0.1,0.9,0.1c1.3,0,2-0.6,2-1.7
		c0-1.1-0.8-1.6-1.9-1.6c-0.5,0-0.8,0-1,0.1V165.3z"/>
	<path class="st1" d="M326.9,166.8l-0.8,2.5H325l2.7-8.1h1.3l2.8,8.1h-1.1l-0.9-2.5H326.9z M329.6,166l-0.8-2.3
		c-0.2-0.5-0.3-1-0.4-1.5h0c-0.1,0.5-0.3,1-0.4,1.5l-0.8,2.3H329.6z"/>
	<path class="st1" d="M332.9,165.4c0-0.7,0-1.3,0-1.9h0.9l0,1h0c0.4-0.7,1.1-1.1,2.1-1.1c1.4,0,2.5,1.2,2.5,3c0,2.1-1.3,3.1-2.6,3.1
		c-0.8,0-1.4-0.3-1.8-0.9h0v3.2h-1V165.4z M333.9,167c0,0.2,0,0.3,0,0.4c0.2,0.7,0.8,1.2,1.6,1.2c1.1,0,1.8-0.9,1.8-2.2
		c0-1.2-0.6-2.2-1.7-2.2c-0.7,0-1.4,0.5-1.6,1.3c0,0.1-0.1,0.3-0.1,0.4V167z"/>
	<path class="st1" d="M339.7,165.4c0-0.7,0-1.3,0-1.9h0.9l0,1h0c0.4-0.7,1.1-1.1,2.1-1.1c1.4,0,2.5,1.2,2.5,3c0,2.1-1.3,3.1-2.6,3.1
		c-0.8,0-1.4-0.3-1.8-0.9h0v3.2h-1V165.4z M340.8,167c0,0.2,0,0.3,0,0.4c0.2,0.7,0.8,1.2,1.6,1.2c1.1,0,1.8-0.9,1.8-2.2
		c0-1.2-0.6-2.2-1.7-2.2c-0.7,0-1.4,0.5-1.6,1.3c0,0.1-0.1,0.3-0.1,0.4V167z"/>
</g>
<path d="M607.5,109.6h-93c-7.5,0-13.6-6.1-13.6-13.6v0c0-7.5,6.1-13.6,13.6-13.6h93c7.5,0,13.6,6.1,13.6,13.6v0
	C621,103.6,615,109.6,607.5,109.6z"/>
<g>
	<path class="st1" d="M541.2,96.2h-3.1v2.9h3.5v0.9h-4.5v-8.1h4.4v0.9h-3.3v2.6h3.1V96.2z"/>
	<path class="st1" d="M547.9,91.5v7c0,0.5,0,1.1,0,1.5H547l0-1h0c-0.3,0.6-1,1.1-2,1.1c-1.4,0-2.5-1.2-2.5-3c0-1.9,1.2-3.1,2.6-3.1
		c0.9,0,1.5,0.4,1.8,0.9h0v-3.5H547.9z M546.8,96.6c0-0.1,0-0.3,0-0.4c-0.2-0.7-0.7-1.2-1.5-1.2c-1.1,0-1.7,1-1.7,2.2
		c0,1.2,0.6,2.1,1.7,2.1c0.7,0,1.4-0.5,1.5-1.3c0-0.1,0-0.3,0-0.5V96.6z"/>
	<path class="st1" d="M554.5,98.4c0,0.6,0,1.1,0,1.6h-0.9l-0.1-0.9h0c-0.3,0.5-0.9,1.1-1.9,1.1c-0.9,0-2-0.5-2-2.5v-3.4h1.1v3.2
		c0,1.1,0.3,1.8,1.3,1.8c0.7,0,1.2-0.5,1.4-1c0.1-0.2,0.1-0.3,0.1-0.5v-3.6h1.1V98.4z"/>
	<path class="st1" d="M560.4,99.8c-0.3,0.1-0.9,0.3-1.7,0.3c-1.8,0-2.9-1.2-2.9-3c0-1.8,1.2-3.1,3.1-3.1c0.6,0,1.2,0.2,1.5,0.3
		l-0.2,0.8c-0.3-0.1-0.6-0.3-1.2-0.3c-1.3,0-2.1,1-2.1,2.2c0,1.3,0.9,2.2,2,2.2c0.6,0,1-0.2,1.3-0.3L560.4,99.8z"/>
	<path class="st1" d="M564.9,100l-0.1-0.7h0c-0.3,0.5-0.9,0.9-1.8,0.9c-1.2,0-1.8-0.8-1.8-1.7c0-1.4,1.2-2.2,3.5-2.2v-0.1
		c0-0.5-0.1-1.3-1.3-1.3c-0.5,0-1.1,0.2-1.5,0.4l-0.2-0.7c0.5-0.3,1.2-0.5,1.9-0.5c1.8,0,2.2,1.2,2.2,2.4v2.2c0,0.5,0,1,0.1,1.4
		H564.9z M564.7,97.1c-1.2,0-2.5,0.2-2.5,1.3c0,0.7,0.5,1,1,1c0.8,0,1.2-0.5,1.4-1c0-0.1,0.1-0.2,0.1-0.3V97.1z"/>
	<path class="st1" d="M568.6,92.5v1.7h1.5V95h-1.5v3.1c0,0.7,0.2,1.1,0.8,1.1c0.3,0,0.5,0,0.6-0.1l0,0.8c-0.2,0.1-0.5,0.1-0.9,0.1
		c-0.5,0-0.9-0.2-1.1-0.4c-0.3-0.3-0.4-0.8-0.4-1.5V95h-0.9v-0.8h0.9v-1.4L568.6,92.5z"/>
	<path class="st1" d="M572.5,92.6c0,0.4-0.3,0.6-0.7,0.6c-0.4,0-0.6-0.3-0.6-0.6c0-0.4,0.3-0.7,0.7-0.7
		C572.3,91.9,572.5,92.2,572.5,92.6z M571.3,100v-5.8h1.1v5.8H571.3z"/>
	<path class="st1" d="M579.4,97.1c0,2.1-1.5,3.1-2.9,3.1c-1.6,0-2.8-1.2-2.8-3c0-1.9,1.3-3.1,2.9-3.1
		C578.3,94.1,579.4,95.3,579.4,97.1z M574.8,97.1c0,1.3,0.7,2.2,1.8,2.2c1,0,1.8-0.9,1.8-2.3c0-1-0.5-2.2-1.7-2.2
		S574.8,96,574.8,97.1z"/>
	<path class="st1" d="M580.7,95.8c0-0.6,0-1.1,0-1.6h0.9l0.1,1h0c0.3-0.6,1-1.1,1.9-1.1c0.8,0,2.1,0.5,2.1,2.5v3.5h-1.1v-3.3
		c0-0.9-0.3-1.7-1.3-1.7c-0.7,0-1.2,0.5-1.4,1.1c0,0.1-0.1,0.3-0.1,0.5v3.5h-1.1V95.8z"/>
</g>
<path d="M607.5,247.4h-93c-7.5,0-13.6-6.1-13.6-13.6v0c0-7.5,6.1-13.6,13.6-13.6h93c7.5,0,13.6,6.1,13.6,13.6v0
	C621,241.3,615,247.4,607.5,247.4z"/>
<g>
	<path class="st1" d="M523.1,229.8c0.6-0.1,1.4-0.2,2.2-0.2c1.5,0,2.6,0.3,3.3,1c0.7,0.7,1.1,1.6,1.1,2.9c0,1.3-0.4,2.4-1.2,3.1
		c-0.8,0.8-2,1.2-3.6,1.2c-0.7,0-1.4,0-1.9-0.1V229.8z M524.1,237c0.3,0,0.6,0.1,1.1,0.1c2.2,0,3.4-1.2,3.4-3.4
		c0-1.9-1.1-3.1-3.3-3.1c-0.5,0-0.9,0-1.2,0.1V237z"/>
	<path class="st1" d="M536.3,234.9c0,2.1-1.5,3.1-2.9,3.1c-1.6,0-2.8-1.2-2.8-3c0-1.9,1.3-3.1,2.9-3.1
		C535.2,231.9,536.3,233.1,536.3,234.9z M531.7,234.9c0,1.3,0.7,2.2,1.8,2.2c1,0,1.8-0.9,1.8-2.3c0-1-0.5-2.2-1.7-2.2
		S531.7,233.8,531.7,234.9z"/>
	<path class="st1" d="M541.8,237.6c-0.3,0.1-0.9,0.3-1.7,0.3c-1.8,0-2.9-1.2-2.9-3c0-1.8,1.2-3.1,3.1-3.1c0.6,0,1.2,0.2,1.5,0.3
		l-0.2,0.8c-0.3-0.1-0.6-0.3-1.2-0.3c-1.3,0-2.1,1-2.1,2.2c0,1.3,0.9,2.2,2,2.2c0.6,0,1-0.2,1.3-0.3L541.8,237.6z"/>
	<path class="st1" d="M547.9,236.2c0,0.6,0,1.1,0,1.6H547l-0.1-0.9h0c-0.3,0.5-0.9,1.1-1.9,1.1c-0.9,0-2-0.5-2-2.5V232h1.1v3.2
		c0,1.1,0.3,1.8,1.3,1.8c0.7,0,1.2-0.5,1.4-1c0.1-0.2,0.1-0.3,0.1-0.5V232h1.1V236.2z"/>
	<path class="st1" d="M549.7,233.6c0-0.6,0-1.1,0-1.6h0.9l0,0.9h0c0.3-0.6,0.9-1.1,1.8-1.1c0.8,0,1.4,0.5,1.6,1.2h0
		c0.2-0.3,0.4-0.6,0.6-0.8c0.3-0.3,0.7-0.4,1.3-0.4c0.8,0,1.9,0.5,1.9,2.5v3.4h-1v-3.3c0-1.1-0.4-1.8-1.3-1.8c-0.6,0-1.1,0.4-1.2,1
		c0,0.1-0.1,0.3-0.1,0.5v3.6h-1v-3.5c0-0.9-0.4-1.6-1.2-1.6c-0.7,0-1.1,0.5-1.3,1.1c-0.1,0.2-0.1,0.3-0.1,0.5v3.5h-1V233.6z"/>
	<path class="st1" d="M560.3,235.1c0,1.4,0.9,2,2,2c0.8,0,1.2-0.1,1.6-0.3l0.2,0.8c-0.4,0.2-1,0.4-1.9,0.4c-1.8,0-2.9-1.2-2.9-2.9
		c0-1.8,1-3.1,2.7-3.1c1.9,0,2.4,1.7,2.4,2.7c0,0.2,0,0.4,0,0.5H560.3z M563.4,234.3c0-0.7-0.3-1.7-1.5-1.7c-1.1,0-1.5,1-1.6,1.7
		H563.4z"/>
	<path class="st1" d="M565.7,233.6c0-0.6,0-1.1,0-1.6h0.9l0.1,1h0c0.3-0.6,1-1.1,1.9-1.1c0.8,0,2.1,0.5,2.1,2.5v3.5h-1.1v-3.3
		c0-0.9-0.3-1.7-1.3-1.7c-0.7,0-1.2,0.5-1.4,1.1c0,0.1-0.1,0.3-0.1,0.5v3.5h-1.1V233.6z"/>
	<path class="st1" d="M573.6,230.3v1.7h1.5v0.8h-1.5v3.1c0,0.7,0.2,1.1,0.8,1.1c0.3,0,0.5,0,0.6-0.1l0,0.8c-0.2,0.1-0.5,0.1-0.9,0.1
		c-0.5,0-0.9-0.2-1.1-0.4c-0.3-0.3-0.4-0.8-0.4-1.5v-3.2h-0.9V232h0.9v-1.4L573.6,230.3z"/>
	<path class="st1" d="M579.5,237.8l-0.1-0.7h0c-0.3,0.5-0.9,0.9-1.8,0.9c-1.2,0-1.8-0.8-1.8-1.7c0-1.4,1.2-2.2,3.5-2.2V234
		c0-0.5-0.1-1.3-1.3-1.3c-0.5,0-1.1,0.2-1.5,0.4l-0.2-0.7c0.5-0.3,1.2-0.5,1.9-0.5c1.8,0,2.2,1.2,2.2,2.4v2.2c0,0.5,0,1,0.1,1.4
		H579.5z M579.3,234.8c-1.2,0-2.5,0.2-2.5,1.3c0,0.7,0.5,1,1,1c0.8,0,1.2-0.5,1.4-1c0-0.1,0.1-0.2,0.1-0.3V234.8z"/>
	<path class="st1" d="M583.3,230.3v1.7h1.5v0.8h-1.5v3.1c0,0.7,0.2,1.1,0.8,1.1c0.3,0,0.5,0,0.6-0.1l0,0.8c-0.2,0.1-0.5,0.1-0.9,0.1
		c-0.5,0-0.9-0.2-1.1-0.4c-0.3-0.3-0.4-0.8-0.4-1.5v-3.2h-0.9V232h0.9v-1.4L583.3,230.3z"/>
	<path class="st1" d="M587.2,230.4c0,0.4-0.3,0.6-0.7,0.6c-0.4,0-0.6-0.3-0.6-0.6c0-0.4,0.3-0.7,0.7-0.7
		C586.9,229.7,587.2,230,587.2,230.4z M586,237.8V232h1.1v5.8H586z"/>
	<path class="st1" d="M594,234.9c0,2.1-1.5,3.1-2.9,3.1c-1.6,0-2.8-1.2-2.8-3c0-1.9,1.3-3.1,2.9-3.1
		C592.9,231.9,594,233.1,594,234.9z M589.4,234.9c0,1.3,0.7,2.2,1.8,2.2c1,0,1.8-0.9,1.8-2.3c0-1-0.5-2.2-1.7-2.2
		S589.4,233.8,589.4,234.9z"/>
	<path class="st1" d="M595.4,233.6c0-0.6,0-1.1,0-1.6h0.9l0.1,1h0c0.3-0.6,1-1.1,1.9-1.1c0.8,0,2.1,0.5,2.1,2.5v3.5h-1.1v-3.3
		c0-0.9-0.3-1.7-1.3-1.7c-0.7,0-1.2,0.5-1.4,1.1c0,0.1-0.1,0.3-0.1,0.5v3.5h-1.1V233.6z"/>
</g>
<path d="M106.6,247.4h-93c-7.5,0-13.6-6.1-13.6-13.6v0c0-7.5,6.1-13.6,13.6-13.6h93c7.5,0,13.6,6.1,13.6,13.6v0
	C120.1,241.3,114,247.4,106.6,247.4z"/>
<g>
	<path class="st1" d="M34.5,233.7c0,2.8-1.7,4.3-3.8,4.3c-2.1,0-3.6-1.7-3.6-4.1c0-2.6,1.6-4.2,3.8-4.2
		C33,229.6,34.5,231.3,34.5,233.7z M28.2,233.8c0,1.7,0.9,3.3,2.6,3.3c1.7,0,2.6-1.5,2.6-3.4c0-1.6-0.8-3.3-2.6-3.3
		C29.1,230.4,28.2,232,28.2,233.8z"/>
	<path class="st1" d="M35.8,233.8c0-0.7,0-1.3,0-1.8h0.9l0,1.1h0c0.3-0.8,0.9-1.3,1.6-1.3c0.1,0,0.2,0,0.3,0v1c-0.1,0-0.2,0-0.4,0
		c-0.7,0-1.3,0.6-1.4,1.4c0,0.1,0,0.3,0,0.5v3.1h-1V233.8z"/>
	<path class="st1" d="M44.6,232c0,0.4,0,0.9,0,1.6v3.4c0,1.3-0.3,2.1-0.8,2.7c-0.6,0.5-1.4,0.7-2.1,0.7c-0.7,0-1.5-0.2-1.9-0.5
		L40,239c0.4,0.2,1,0.5,1.7,0.5c1.1,0,1.9-0.6,1.9-2v-0.6h0c-0.3,0.5-0.9,1-1.8,1c-1.4,0-2.5-1.2-2.5-2.8c0-2,1.3-3.1,2.6-3.1
		c1,0,1.6,0.5,1.8,1h0l0-0.9H44.6z M43.5,234.3c0-0.2,0-0.3-0.1-0.5c-0.2-0.6-0.7-1.1-1.5-1.1c-1,0-1.7,0.9-1.7,2.2
		c0,1.1,0.6,2.1,1.7,2.1c0.6,0,1.2-0.4,1.5-1.1c0.1-0.2,0.1-0.4,0.1-0.6V234.3z"/>
	<path class="st1" d="M49.5,237.8l-0.1-0.7h0c-0.3,0.5-0.9,0.9-1.8,0.9c-1.2,0-1.8-0.8-1.8-1.7c0-1.4,1.2-2.2,3.5-2.2V234
		c0-0.5-0.1-1.3-1.3-1.3c-0.5,0-1.1,0.2-1.5,0.4l-0.2-0.7c0.5-0.3,1.2-0.5,1.9-0.5c1.8,0,2.2,1.2,2.2,2.4v2.2c0,0.5,0,1,0.1,1.4
		H49.5z M49.4,234.8c-1.2,0-2.5,0.2-2.5,1.3c0,0.7,0.5,1,1,1c0.8,0,1.2-0.5,1.4-1c0-0.1,0.1-0.2,0.1-0.3V234.8z"/>
	<path class="st1" d="M52.1,233.6c0-0.6,0-1.1,0-1.6H53l0.1,1h0c0.3-0.6,1-1.1,1.9-1.1c0.8,0,2.1,0.5,2.1,2.5v3.5H56v-3.3
		c0-0.9-0.3-1.7-1.3-1.7c-0.7,0-1.2,0.5-1.4,1.1c0,0.1-0.1,0.3-0.1,0.5v3.5h-1.1V233.6z"/>
	<path class="st1" d="M60,230.4c0,0.4-0.3,0.6-0.7,0.6c-0.4,0-0.6-0.3-0.6-0.6c0-0.4,0.3-0.7,0.7-0.7C59.7,229.7,60,230,60,230.4z
		 M58.8,237.8V232h1.1v5.8H58.8z"/>
	<path class="st1" d="M60.9,237.2l2.6-3.4c0.3-0.3,0.5-0.6,0.8-0.9v0h-3.1V232h4.4l0,0.7L63,236c-0.2,0.3-0.5,0.6-0.7,0.9v0h3.4v0.8
		h-4.7V237.2z"/>
	<path class="st1" d="M69.9,237.8l-0.1-0.7h0c-0.3,0.5-0.9,0.9-1.8,0.9c-1.2,0-1.8-0.8-1.8-1.7c0-1.4,1.2-2.2,3.5-2.2V234
		c0-0.5-0.1-1.3-1.3-1.3c-0.5,0-1.1,0.2-1.5,0.4l-0.2-0.7c0.5-0.3,1.2-0.5,1.9-0.5c1.8,0,2.2,1.2,2.2,2.4v2.2c0,0.5,0,1,0.1,1.4
		H69.9z M69.8,234.8c-1.2,0-2.5,0.2-2.5,1.3c0,0.7,0.5,1,1,1c0.8,0,1.2-0.5,1.4-1c0-0.1,0.1-0.2,0.1-0.3V234.8z"/>
	<path class="st1" d="M73.7,230.3v1.7h1.5v0.8h-1.5v3.1c0,0.7,0.2,1.1,0.8,1.1c0.3,0,0.5,0,0.6-0.1l0,0.8c-0.2,0.1-0.5,0.1-0.9,0.1
		c-0.5,0-0.9-0.2-1.1-0.4c-0.3-0.3-0.4-0.8-0.4-1.5v-3.2h-0.9V232h0.9v-1.4L73.7,230.3z"/>
	<path class="st1" d="M77.6,230.4c0,0.4-0.3,0.6-0.7,0.6c-0.4,0-0.6-0.3-0.6-0.6c0-0.4,0.3-0.7,0.7-0.7
		C77.4,229.7,77.6,230,77.6,230.4z M76.4,237.8V232h1.1v5.8H76.4z"/>
	<path class="st1" d="M84.5,234.9c0,2.1-1.5,3.1-2.9,3.1c-1.6,0-2.8-1.2-2.8-3c0-1.9,1.3-3.1,2.9-3.1
		C83.4,231.9,84.5,233.1,84.5,234.9z M79.9,234.9c0,1.3,0.7,2.2,1.8,2.2c1,0,1.8-0.9,1.8-2.3c0-1-0.5-2.2-1.7-2.2
		C80.4,232.7,79.9,233.8,79.9,234.9z"/>
	<path class="st1" d="M85.8,233.6c0-0.6,0-1.1,0-1.6h0.9l0.1,1h0c0.3-0.6,1-1.1,1.9-1.1c0.8,0,2.1,0.5,2.1,2.5v3.5h-1.1v-3.3
		c0-0.9-0.3-1.7-1.3-1.7c-0.7,0-1.2,0.5-1.4,1.1c0,0.1-0.1,0.3-0.1,0.5v3.5h-1.1V233.6z"/>
</g>
<g>
	<path class="st2" d="M120.1,96.1l46.3,0c5.5,0,13.6,2.7,18,6l72.1,54.3"/>
</g>
<g>
	<path class="st2" d="M120.1,233.9l46.3,0c5.5,0,13.6-2.7,18-5.9l72.5-53.6"/>
</g>
<g>
	<path class="st2" d="M501.6,96.1l-46.3,0c-5.5,0-13.6,2.7-18,6l-72.1,54.3"/>
</g>
<g>
	<path class="st2" d="M501.6,233.9l-46.3,0c-5.5,0-13.6-2.7-18-5.9l-72.5-53.6"/>
</g>
</svg>
