<?xml version="1.0" encoding="utf-8"?>
<!-- Generator: Adobe Illustrator 22.0.0, SVG Export Plug-In . SVG Version: 6.00 Build 0)  -->
<svg version="1.1" id="Layer_1" xmlns="http://www.w3.org/2000/svg" xmlns:xlink="http://www.w3.org/1999/xlink" x="0px" y="0px"
	 viewBox="0 0 1280 810.7" style="enable-background:new 0 0 1280 810.7;" xml:space="preserve">
<style type="text/css">
	.st0{fill:url(#Ellipse_7_1_);}
	.st1{fill:url(#Ellipse_8_1_);}
	.st2{fill:#F3F3F3;}
	.st3{fill:#FFFFFF;}
	.st4{fill:#F3F3F3;stroke:#F9F8F8;}
	.st5{fill:none;stroke:#000000;stroke-width:8;stroke-miterlimit:10;}
	.st6{fill:none;stroke:#000000;stroke-width:2;stroke-miterlimit:10;}
</style>
<g id="iPhone_X_-_Light" transform="translate(2 2)">
	<path d="M674,286.4h-70.4c-5.5,0-9.9,4.4-10,9.9v168.4c0,5.5,4.5,9.9,10,9.9H674c5.5,0,10-4.4,10-9.9V296.3
		C684,290.9,679.5,286.4,674,286.4z M680.9,463c0,4.7-3.8,8.5-8.5,8.5h-67c-4.7,0-8.5-3.8-8.5-8.5V298.1c0-4.7,3.8-8.5,8.5-8.5h9
		c0.6,0.1,1,0.6,1.2,1.2c0,0.2,0.1,0.4,0.1,0.6c0.1,0.5,0.2,1.1,0.4,1.7c0.2,0.8,1.1,3.3,4.2,3.3c1.1,0,8.3,0,14.1,0
		c10.7,0,22.9,0,23.5,0c3,0,3.9-2.5,4.2-3.3c0.2-0.6,0.3-1.2,0.3-1.7c0-0.2,0.1-0.5,0.1-0.6c0.1-0.6,0.6-1,1.2-1.2h8.8
		c4.7,0,8.5,3.8,8.5,8.5V463z"/>
	<g id="Camera" transform="translate(438.133 99.74)">
		
			<linearGradient id="Ellipse_7_1_" gradientUnits="userSpaceOnUse" x1="-425.1146" y1="772.5264" x2="-425.1146" y2="772.3023" gradientTransform="matrix(15 0 0 -15 6588.8618 11777.9541)">
			<stop  offset="0" style="stop-color:#F3F3F3"/>
			<stop  offset="1" style="stop-color:#FFFFFF"/>
		</linearGradient>
		<ellipse id="Ellipse_7" class="st0" cx="212.1" cy="191.7" rx="1.7" ry="1.7"/>
		
			<linearGradient id="Ellipse_8_1_" gradientUnits="userSpaceOnUse" x1="-423.0348" y1="769.3117" x2="-423.0348" y2="769.0876" gradientTransform="matrix(13 0 0 -13 5711.5962 10191.335)">
			<stop  offset="0" style="stop-color:#FFFFFF"/>
			<stop  offset="1" style="stop-color:#F3F3F3"/>
		</linearGradient>
		<circle id="Ellipse_8" class="st1" cx="212.1" cy="191.7" r="1.5"/>
		<ellipse id="Ellipse_10" class="st2" cx="212.1" cy="191.7" rx="1" ry="1"/>
		<ellipse id="Ellipse_9" class="st3" cx="212.1" cy="191" rx="0.3" ry="0.2"/>
	</g>
	<path id="Ear_Piece" class="st4" d="M632.7,290.8H645c0.4,0,0.8,0.4,0.8,0.8c0,0.4-0.4,0.8-0.8,0.8h-12.3c-0.4,0-0.8-0.4-0.8-0.8
		C631.9,291.2,632.3,290.8,632.7,290.8z"/>
</g>
<circle class="st5" cx="640" cy="382.5" r="130"/>
<g>
	<path d="M208.9,295.5c1,0,1.8,0.1,2.6,0.4s1.3,0.6,1.9,1.1v3.3c-0.4-0.3-0.8-0.6-1.2-0.8s-0.9-0.5-1.4-0.7s-1.1-0.3-1.8-0.3
		c-0.9,0-1.8,0.2-2.6,0.7s-1.4,1.1-1.8,1.8s-0.7,1.6-0.7,2.6c0,1,0.2,1.8,0.7,2.6s1.1,1.4,1.8,1.8s1.6,0.7,2.6,0.7
		c1,0,1.9-0.2,2.6-0.5s1.4-0.7,1.9-1.2v3.2c-0.5,0.5-1.2,0.9-2,1.2s-1.7,0.4-2.7,0.4c-1.1,0-2.2-0.2-3.2-0.6s-1.9-1-2.6-1.7
		s-1.4-1.6-1.8-2.6s-0.7-2.1-0.7-3.3s0.2-2.3,0.7-3.3s1-1.9,1.8-2.6s1.6-1.3,2.6-1.7S207.8,295.5,208.9,295.5z"/>
	<path d="M222,299.4c1.2,0,2.2,0.3,3.2,0.8s1.7,1.3,2.3,2.2s0.9,2,0.9,3.2s-0.3,2.2-0.9,3.2s-1.4,1.7-2.3,2.2s-2,0.8-3.2,0.8
		c-1.1,0-2.2-0.3-3.2-0.8s-1.7-1.3-2.3-2.2s-0.9-2-0.9-3.2s0.3-2.2,0.9-3.2s1.3-1.7,2.3-2.2S220.8,299.4,222,299.4z M222,302.3
		c-0.6,0-1.1,0.1-1.6,0.4s-0.9,0.6-1.2,1.1s-0.4,1.1-0.4,1.8s0.1,1.3,0.4,1.8s0.7,0.9,1.2,1.1s1,0.4,1.6,0.4s1.1-0.1,1.6-0.4
		s0.9-0.6,1.2-1.1s0.4-1.1,0.4-1.8s-0.1-1.3-0.4-1.8s-0.7-0.9-1.2-1.1S222.5,302.3,222,302.3z"/>
	<path d="M234.1,299.7v1.5c0.4-0.5,0.8-0.9,1.3-1.2s1.2-0.6,2-0.6c0.8,0,1.6,0.2,2.2,0.6s1.2,1,1.6,1.7c0.5-0.6,1-1.2,1.6-1.6
		s1.4-0.7,2.2-0.7c0.8,0,1.5,0.2,2.2,0.6s1.2,0.9,1.6,1.6s0.6,1.6,0.6,2.7v7.3h-3l0-6.9c0-0.8-0.2-1.4-0.6-1.8s-1-0.6-1.6-0.6
		c-0.5,0-1,0.2-1.3,0.5s-0.7,0.7-1.1,1.1v7.6h-3l0-6.9c0-0.8-0.2-1.4-0.6-1.8s-0.9-0.6-1.6-0.6c-0.5,0-0.9,0.2-1.3,0.5
		s-0.7,0.7-1.1,1.1v7.7h-3v-11.8H234.1z"/>
	<path d="M255.7,299.7v1.5c0.4-0.5,0.8-0.9,1.3-1.2s1.2-0.6,2-0.6c0.8,0,1.6,0.2,2.2,0.6s1.2,1,1.6,1.7c0.5-0.6,1-1.2,1.6-1.6
		s1.4-0.7,2.2-0.7c0.8,0,1.5,0.2,2.2,0.6s1.2,0.9,1.6,1.6s0.6,1.6,0.6,2.7v7.3h-3l0-6.9c0-0.8-0.2-1.4-0.6-1.8s-1-0.6-1.6-0.6
		c-0.5,0-1,0.2-1.3,0.5s-0.7,0.7-1.1,1.1v7.6h-3l0-6.9c0-0.8-0.2-1.4-0.6-1.8s-0.9-0.6-1.6-0.6c-0.5,0-0.9,0.2-1.3,0.5
		s-0.7,0.7-1.1,1.1v7.7h-3v-11.8H255.7z"/>
	<path d="M284.8,299.7v7.1c0,1-0.2,1.9-0.7,2.7s-1.1,1.3-1.9,1.7s-1.7,0.6-2.7,0.6c-1,0-1.9-0.2-2.8-0.6s-1.4-1-1.9-1.7
		s-0.7-1.7-0.7-2.7v-7.1h3l0,6.5c0,0.9,0.2,1.6,0.6,2.1s1,0.7,1.7,0.7c0.7,0,1.2-0.2,1.7-0.7s0.6-1.1,0.6-2.1v-6.5H284.8z"/>
	<path d="M291.2,299.7v1.7c0.4-0.5,0.8-0.9,1.5-1.4s1.3-0.6,2.1-0.6c1.2,0,2.2,0.4,3,1.2s1.2,2,1.2,3.7v7.3h-3l0-6.9
		c0-0.8-0.2-1.4-0.6-1.8s-0.9-0.6-1.6-0.6c-0.5,0-1,0.2-1.5,0.5s-0.9,0.8-1.2,1.2v7.5h-3v-11.8H291.2z"/>
	<path d="M306.7,299.7v11.8h-3v-9.3h-1.9v-2.5H306.7z M304.9,293.5c0.6,0,1,0.2,1.5,0.6s0.6,0.9,0.6,1.4c0,0.5-0.2,1-0.6,1.4
		s-0.9,0.6-1.5,0.6s-1-0.2-1.4-0.6s-0.6-0.9-0.6-1.4c0-0.5,0.2-1,0.6-1.4S304.4,293.5,304.9,293.5z"/>
	<path d="M315.8,299.4c0.9,0,1.6,0.1,2.2,0.4s1,0.6,1.3,0.8v2.7c-0.4-0.3-0.9-0.5-1.4-0.8s-1.1-0.3-1.9-0.3c-0.6,0-1.1,0.1-1.7,0.4
		s-0.9,0.7-1.2,1.2s-0.4,1.1-0.4,1.7c0,1,0.3,1.8,0.9,2.4s1.4,0.9,2.4,0.9c0.7,0,1.4-0.1,1.9-0.3s1-0.4,1.4-0.7v2.7
		c-0.3,0.3-0.8,0.6-1.3,0.8s-1.3,0.4-2.2,0.4c-1.2,0-2.3-0.3-3.2-0.9s-1.7-1.3-2.2-2.3s-0.8-2-0.8-3.1c0-0.8,0.2-1.6,0.5-2.4
		s0.7-1.4,1.3-2s1.2-1.1,2-1.4S314.9,299.4,315.8,299.4z"/>
	<path d="M326.6,299.4c0.6,0,1.3,0.1,1.9,0.4s1.2,0.7,1.6,1.2v-1.3h3v11.8h-3v-2c-0.3,0.6-0.8,1.2-1.5,1.7s-1.4,0.7-2.3,0.7
		c-1,0-1.8-0.2-2.6-0.7s-1.4-1.2-1.9-2.1s-0.7-2-0.7-3.4s0.2-2.4,0.7-3.4s1.2-1.7,2-2.2S325.6,299.4,326.6,299.4z M327.3,302.3
		c-0.6,0-1.2,0.2-1.6,0.5s-0.8,0.7-1,1.3s-0.4,1.1-0.4,1.7c0,0.9,0.3,1.6,0.8,2.3s1.3,0.9,2.1,0.9c0.5,0,1-0.1,1.5-0.4
		s0.8-0.7,1.1-1.2s0.4-1.1,0.4-1.8v-1.7c-0.4-0.5-0.9-0.8-1.4-1.1S327.8,302.3,327.3,302.3z"/>
	<path d="M341.2,296.3v3.4h3.3v2.5h-3.3v5.1c0,0.5,0.1,0.9,0.4,1.3s0.6,0.5,1.1,0.5c0.4,0,0.8,0,1.1-0.1s0.6-0.2,0.9-0.4v2.4
		c-0.3,0.3-0.7,0.5-1.1,0.8s-1,0.3-1.7,0.3c-1.1,0-1.9-0.3-2.6-1s-1-1.6-1-2.8v-5.9H336v-1.5c0.8-0.3,1.4-0.8,2.1-1.5
		s1.1-1.7,1.5-2.9H341.2z"/>
	<path d="M351.8,299.7v11.8h-3v-9.3h-1.9v-2.5H351.8z M350.1,293.5c0.6,0,1,0.2,1.5,0.6s0.6,0.9,0.6,1.4c0,0.5-0.2,1-0.6,1.4
		s-0.9,0.6-1.5,0.6s-1-0.2-1.4-0.6s-0.6-0.9-0.6-1.4c0-0.5,0.2-1,0.6-1.4S349.5,293.5,350.1,293.5z"/>
	<path d="M361.1,299.4c1.2,0,2.2,0.3,3.2,0.8s1.7,1.3,2.3,2.2s0.9,2,0.9,3.2s-0.3,2.2-0.9,3.2s-1.4,1.7-2.3,2.2s-2,0.8-3.2,0.8
		c-1.1,0-2.2-0.3-3.2-0.8s-1.7-1.3-2.3-2.2s-0.9-2-0.9-3.2s0.3-2.2,0.9-3.2s1.3-1.7,2.3-2.2S359.9,299.4,361.1,299.4z M361.1,302.3
		c-0.6,0-1.1,0.1-1.6,0.4s-0.9,0.6-1.2,1.1s-0.4,1.1-0.4,1.8s0.1,1.3,0.4,1.8s0.7,0.9,1.2,1.1s1,0.4,1.6,0.4s1.1-0.1,1.6-0.4
		s0.9-0.6,1.2-1.1s0.4-1.1,0.4-1.8s-0.1-1.3-0.4-1.8s-0.7-0.9-1.2-1.1S361.6,302.3,361.1,302.3z"/>
	<path d="M373.2,299.7v1.7c0.4-0.5,0.8-0.9,1.5-1.4s1.3-0.6,2.1-0.6c1.2,0,2.2,0.4,3,1.2s1.2,2,1.2,3.7v7.3h-3l0-6.9
		c0-0.8-0.2-1.4-0.6-1.8s-0.9-0.6-1.6-0.6c-0.5,0-1,0.2-1.5,0.5s-0.9,0.8-1.2,1.2v7.5h-3v-11.8H373.2z"/>
</g>
<g>
	<path d="M943.6,302.2v2.6h-6.9v3.8h7.9v2.9h-11.1v-15.7h11.1v2.8h-7.9v3.6H943.6z"/>
	<path d="M959.4,294.7v16.9h-3v-2c-0.3,0.6-0.8,1.2-1.5,1.7s-1.4,0.7-2.3,0.7c-1,0-1.8-0.2-2.6-0.7s-1.4-1.2-1.9-2.1s-0.7-2-0.7-3.4
		s0.2-2.4,0.7-3.4s1.2-1.7,2-2.2s1.8-0.8,2.8-0.8c0.6,0,1.3,0.1,1.9,0.4s1.2,0.7,1.6,1.2v-6.4H959.4z M953.5,302.3
		c-0.6,0-1.2,0.2-1.6,0.5s-0.8,0.7-1,1.2s-0.4,1.1-0.4,1.7c0,0.9,0.3,1.6,0.8,2.3s1.3,0.9,2.1,0.9c0.5,0,1-0.1,1.5-0.4
		s0.8-0.7,1.1-1.2s0.4-1.1,0.4-1.8v-1.7c-0.4-0.5-0.9-0.8-1.4-1.1S954.1,302.3,953.5,302.3z"/>
	<path d="M973.5,299.7v7.1c0,1-0.2,1.9-0.7,2.7s-1.1,1.3-1.9,1.7s-1.7,0.6-2.7,0.6c-1,0-1.9-0.2-2.8-0.6s-1.4-1-1.9-1.7
		s-0.7-1.7-0.7-2.7v-7.1h3l0,6.5c0,0.9,0.2,1.6,0.6,2.1s1,0.7,1.7,0.7c0.7,0,1.2-0.2,1.7-0.7s0.6-1.1,0.6-2.1v-6.5H973.5z"/>
	<path d="M982.3,299.4c0.9,0,1.6,0.1,2.2,0.4s1,0.6,1.3,0.8v2.7c-0.4-0.3-0.9-0.5-1.4-0.8s-1.1-0.3-1.9-0.3c-0.6,0-1.1,0.1-1.7,0.4
		s-0.9,0.7-1.2,1.2s-0.4,1.1-0.4,1.7c0,1,0.3,1.8,0.9,2.4s1.4,0.9,2.4,0.9c0.7,0,1.4-0.1,1.9-0.3s1-0.4,1.4-0.7v2.7
		c-0.3,0.3-0.8,0.6-1.3,0.8s-1.3,0.4-2.2,0.4c-1.2,0-2.3-0.3-3.2-0.9s-1.7-1.3-2.2-2.3s-0.8-2-0.8-3.1c0-0.8,0.2-1.6,0.5-2.4
		s0.7-1.4,1.3-2s1.2-1.1,2-1.4S981.4,299.4,982.3,299.4z"/>
	<path d="M993.2,299.4c0.6,0,1.3,0.1,1.9,0.4s1.2,0.7,1.6,1.2v-1.3h3v11.8h-3v-2c-0.3,0.6-0.8,1.2-1.5,1.7s-1.4,0.7-2.3,0.7
		c-1,0-1.8-0.2-2.6-0.7s-1.4-1.2-1.9-2.1s-0.7-2-0.7-3.4s0.2-2.4,0.7-3.4s1.2-1.7,2-2.2S992.1,299.4,993.2,299.4z M993.8,302.3
		c-0.6,0-1.2,0.2-1.6,0.5s-0.8,0.7-1,1.3s-0.4,1.1-0.4,1.7c0,0.9,0.3,1.6,0.8,2.3s1.3,0.9,2.1,0.9c0.5,0,1-0.1,1.5-0.4
		s0.8-0.7,1.1-1.2s0.4-1.1,0.4-1.8v-1.7c-0.4-0.5-0.9-0.8-1.4-1.1S994.4,302.3,993.8,302.3z"/>
	<path d="M1007.7,296.3v3.4h3.3v2.5h-3.3v5.1c0,0.5,0.1,0.9,0.4,1.3s0.6,0.5,1.1,0.5c0.4,0,0.8,0,1.1-0.1s0.6-0.2,0.9-0.4v2.4
		c-0.3,0.3-0.7,0.5-1.1,0.8s-1,0.3-1.7,0.3c-1.1,0-1.9-0.3-2.6-1s-1-1.6-1-2.8v-5.9h-2.1v-1.5c0.8-0.3,1.4-0.8,2.1-1.5
		s1.1-1.7,1.5-2.9H1007.7z"/>
	<path d="M1018.3,299.7v11.8h-3v-9.3h-1.9v-2.5H1018.3z M1016.6,293.5c0.6,0,1,0.2,1.5,0.6s0.6,0.9,0.6,1.4c0,0.5-0.2,1-0.6,1.4
		s-0.9,0.6-1.5,0.6s-1-0.2-1.4-0.6s-0.6-0.9-0.6-1.4c0-0.5,0.2-1,0.6-1.4S1016,293.5,1016.6,293.5z"/>
	<path d="M1027.6,299.4c1.2,0,2.2,0.3,3.2,0.8s1.7,1.3,2.3,2.2s0.9,2,0.9,3.2s-0.3,2.2-0.9,3.2s-1.4,1.7-2.3,2.2s-2,0.8-3.2,0.8
		c-1.1,0-2.2-0.3-3.2-0.8s-1.7-1.3-2.3-2.2s-0.9-2-0.9-3.2s0.3-2.2,0.9-3.2s1.3-1.7,2.3-2.2S1026.5,299.4,1027.6,299.4z
		 M1027.6,302.3c-0.6,0-1.1,0.1-1.6,0.4s-0.9,0.6-1.2,1.1s-0.4,1.1-0.4,1.8s0.1,1.3,0.4,1.8s0.7,0.9,1.2,1.1s1,0.4,1.6,0.4
		s1.1-0.1,1.6-0.4s0.9-0.6,1.2-1.1s0.4-1.1,0.4-1.8s-0.1-1.3-0.4-1.8s-0.7-0.9-1.2-1.1S1028.2,302.3,1027.6,302.3z"/>
	<path d="M1039.7,299.7v1.7c0.4-0.5,0.8-0.9,1.5-1.4s1.3-0.6,2.1-0.6c1.2,0,2.2,0.4,3,1.2s1.2,2,1.2,3.7v7.3h-3l0-6.9
		c0-0.8-0.2-1.4-0.6-1.8s-0.9-0.6-1.6-0.6c-0.5,0-1,0.2-1.5,0.5s-0.9,0.8-1.2,1.2v7.5h-3v-11.8H1039.7z"/>
</g>
<g>
	<path d="M222.4,765.8c1.1,0,2.2,0.2,3.2,0.6s1.9,1,2.6,1.7s1.4,1.6,1.8,2.6s0.6,2.1,0.6,3.3s-0.2,2.3-0.6,3.3s-1,1.9-1.8,2.6
		s-1.6,1.3-2.6,1.7s-2,0.6-3.2,0.6s-2.2-0.2-3.2-0.6s-1.9-1-2.6-1.7s-1.4-1.6-1.8-2.6s-0.6-2.1-0.6-3.3s0.2-2.3,0.6-3.3
		s1-1.9,1.8-2.6s1.6-1.3,2.6-1.7S221.3,765.8,222.4,765.8z M222.4,768.9c-0.9,0-1.8,0.2-2.5,0.7s-1.3,1.1-1.7,1.8s-0.6,1.6-0.6,2.6
		c0,1,0.2,1.8,0.6,2.6s1,1.4,1.7,1.8s1.6,0.7,2.5,0.7s1.8-0.2,2.5-0.7s1.3-1.1,1.7-1.8s0.6-1.6,0.6-2.6c0-1-0.2-1.9-0.6-2.6
		s-1-1.4-1.7-1.8S223.4,768.9,222.4,768.9z"/>
	<path d="M241,773.3c-0.5-0.3-1-0.4-1.6-0.4c-0.7,0-1.3,0.2-1.7,0.7s-0.9,1-1.2,1.7v6.6h-3V770h3v2.2c0.4-0.7,0.9-1.3,1.4-1.8
		s1.2-0.7,1.9-0.7c0.4,0,0.8,0.1,1.1,0.2V773.3z"/>
	<path d="M248,769.7c0.6,0,1.3,0.1,1.9,0.4s1.2,0.7,1.6,1.2V770h3v11.5c0,1.3-0.3,2.5-0.9,3.4s-1.4,1.6-2.4,2.1s-2.1,0.7-3.2,0.7
		c-1,0-1.9-0.2-2.6-0.5s-1.3-0.7-1.9-1.1v-2.8c0.4,0.2,0.7,0.5,1.1,0.7s0.9,0.5,1.4,0.6s1.1,0.3,1.8,0.3c0.7,0,1.3-0.1,1.9-0.4
		s1-0.6,1.3-1.1s0.5-1,0.5-1.6v-2.1c-0.3,0.6-0.8,1.2-1.5,1.7s-1.4,0.7-2.3,0.7c-1,0-1.8-0.2-2.6-0.7s-1.4-1.2-1.9-2.1
		s-0.7-2-0.7-3.4s0.2-2.4,0.7-3.4s1.2-1.7,2-2.2S247,769.7,248,769.7z M248.6,772.6c-0.6,0-1.2,0.2-1.6,0.5s-0.8,0.7-1,1.2
		s-0.4,1.1-0.4,1.7c0,0.9,0.3,1.6,0.8,2.3s1.3,0.9,2.1,0.9c0.5,0,1-0.1,1.5-0.4s0.8-0.7,1.1-1.2s0.4-1.1,0.4-1.8v-1.7
		c-0.4-0.5-0.9-0.8-1.4-1.1S249.2,772.6,248.6,772.6z"/>
	<path d="M262.9,769.7c0.6,0,1.3,0.1,1.9,0.4s1.2,0.7,1.6,1.2V770h3v11.8h-3v-2c-0.3,0.6-0.8,1.2-1.5,1.7s-1.4,0.7-2.3,0.7
		c-1,0-1.8-0.2-2.6-0.7s-1.4-1.2-1.9-2.1s-0.7-2-0.7-3.4s0.2-2.4,0.7-3.4s1.2-1.7,2-2.2S261.9,769.7,262.9,769.7z M263.5,772.6
		c-0.6,0-1.2,0.2-1.6,0.5s-0.8,0.7-1,1.3s-0.4,1.1-0.4,1.7c0,0.9,0.3,1.6,0.8,2.3s1.3,0.9,2.1,0.9c0.5,0,1-0.1,1.5-0.4
		s0.8-0.7,1.1-1.2s0.4-1.1,0.4-1.8v-1.7c-0.4-0.5-0.9-0.8-1.4-1.1S264.1,772.6,263.5,772.6z"/>
	<path d="M276.1,770v1.7c0.4-0.5,0.8-0.9,1.5-1.4s1.3-0.6,2.1-0.6c1.2,0,2.2,0.4,3,1.2s1.2,2,1.2,3.7v7.3h-3l0-6.9
		c0-0.8-0.2-1.4-0.6-1.8s-0.9-0.6-1.6-0.6c-0.5,0-1,0.2-1.5,0.5s-0.9,0.8-1.2,1.2v7.5h-3V770H276.1z"/>
	<path d="M291.5,770v11.8h-3v-9.3h-1.9V770H291.5z M289.8,763.8c0.6,0,1,0.2,1.5,0.6s0.6,0.9,0.6,1.4c0,0.5-0.2,1-0.6,1.4
		s-0.9,0.6-1.5,0.6s-1-0.2-1.4-0.6s-0.6-0.9-0.6-1.4c0-0.5,0.2-1,0.6-1.4S289.2,763.8,289.8,763.8z"/>
	<path d="M305.1,770v0.7l-6.1,8.6h6.4v2.6h-10.6v-0.8l5.9-8.6h-5.5V770H305.1z"/>
	<path d="M313,769.7c0.6,0,1.3,0.1,1.9,0.4s1.2,0.7,1.6,1.2V770h3v11.8h-3v-2c-0.3,0.6-0.8,1.2-1.5,1.7s-1.4,0.7-2.3,0.7
		c-1,0-1.8-0.2-2.6-0.7s-1.4-1.2-1.9-2.1s-0.7-2-0.7-3.4s0.2-2.4,0.7-3.4s1.2-1.7,2-2.2S312,769.7,313,769.7z M313.6,772.6
		c-0.6,0-1.2,0.2-1.6,0.5s-0.8,0.7-1,1.3s-0.4,1.1-0.4,1.7c0,0.9,0.3,1.6,0.8,2.3s1.3,0.9,2.1,0.9c0.5,0,1-0.1,1.5-0.4
		s0.8-0.7,1.1-1.2s0.4-1.1,0.4-1.8v-1.7c-0.4-0.5-0.9-0.8-1.4-1.1S314.2,772.6,313.6,772.6z"/>
	<path d="M327.5,766.6v3.4h3.3v2.5h-3.3v5.1c0,0.5,0.1,0.9,0.4,1.3s0.6,0.5,1.1,0.5c0.4,0,0.8,0,1.1-0.1s0.6-0.2,0.9-0.4v2.4
		c-0.3,0.3-0.7,0.5-1.1,0.8s-1,0.3-1.7,0.3c-1.1,0-1.9-0.3-2.6-1s-1-1.6-1-2.8v-5.9h-2.1V771c0.8-0.3,1.4-0.8,2.1-1.5
		s1.1-1.7,1.5-2.9H327.5z"/>
	<path d="M338.2,770v11.8h-3v-9.3h-1.9V770H338.2z M336.5,763.8c0.6,0,1,0.2,1.5,0.6s0.6,0.9,0.6,1.4c0,0.5-0.2,1-0.6,1.4
		s-0.9,0.6-1.5,0.6s-1-0.2-1.4-0.6s-0.6-0.9-0.6-1.4c0-0.5,0.2-1,0.6-1.4S335.9,763.8,336.5,763.8z"/>
	<path d="M347.5,769.7c1.2,0,2.2,0.3,3.2,0.8s1.7,1.3,2.3,2.2s0.9,2,0.9,3.2s-0.3,2.2-0.9,3.2s-1.4,1.7-2.3,2.2s-2,0.8-3.2,0.8
		c-1.1,0-2.2-0.3-3.2-0.8s-1.7-1.3-2.3-2.2s-0.9-2-0.9-3.2s0.3-2.2,0.9-3.2s1.3-1.7,2.3-2.2S346.3,769.7,347.5,769.7z M347.5,772.6
		c-0.6,0-1.1,0.1-1.6,0.4s-0.9,0.6-1.2,1.1s-0.4,1.1-0.4,1.8s0.1,1.3,0.4,1.8s0.7,0.9,1.2,1.1s1,0.4,1.6,0.4s1.1-0.1,1.6-0.4
		s0.9-0.6,1.2-1.1s0.4-1.1,0.4-1.8s-0.1-1.3-0.4-1.8s-0.7-0.9-1.2-1.1S348,772.6,347.5,772.6z"/>
	<path d="M359.6,770v1.7c0.4-0.5,0.8-0.9,1.5-1.4s1.3-0.6,2.1-0.6c1.2,0,2.2,0.4,3,1.2s1.2,2,1.2,3.7v7.3h-3l0-6.9
		c0-0.8-0.2-1.4-0.6-1.8s-0.9-0.6-1.6-0.6c-0.5,0-1,0.2-1.5,0.5s-0.9,0.8-1.2,1.2v7.5h-3V770H359.6z"/>
</g>
<g id="Social_network">
	<path d="M328.4,125.9h4.8v4.8h-4.8V125.9z"/>
	<path d="M354.8,109.1c4,0,7.2-3.2,7.2-7.2V82.7c0-4-3.2-7.2-7.2-7.2h-43.2c-4,0-7.2,3.2-7.2,7.2v19.2c0,3.1,1.9,5.8,4.8,6.8v7.6
		h-38.4v-7.6c2.9-1,4.8-3.7,4.8-6.8V82.7c0-4-3.2-7.2-7.2-7.2h-43.2c-4,0-7.2,3.2-7.2,7.2v19.2c0,4,3.2,7.2,7.2,7.2h27.6l5.4,7.2
		h-13.8c-4,0-7.2,3.2-7.2,7.2v11.3l-13.8,15.9c-0.4,0.4-0.6,1-0.6,1.6v48h-2.4c-1.3,0-2.4,1.1-2.4,2.4v14.4c0,1.3,1.1,2.4,2.4,2.4
		h38.4c1.3,0,2.4-1.1,2.4-2.4v-14.4c0-1.3-1.1-2.4-2.4-2.4h-5.1c3.2-3.2,5.1-7.5,5.1-12v-9.6h62.4v9.6c0,4.5,1.8,8.9,5.1,12h-5.1
		c-1.3,0-2.4,1.1-2.4,2.4v14.4c0,1.3,1.1,2.4,2.4,2.4h38.4c1.3,0,2.4-1.1,2.4-2.4v-14.4c0-1.3-1.1-2.4-2.4-2.4h-2.4v-48
		c0-0.6-0.2-1.1-0.6-1.6l-13.8-15.9v-11.3c0-4-3.2-7.2-7.2-7.2h-13.8l5.4-7.2H354.8z M255.9,105.3c-0.5-0.6-1.2-1-1.9-1h-28.8
		c-1.3,0-2.4-1.1-2.4-2.4V82.7c0-1.3,1.1-2.4,2.4-2.4h43.2c1.3,0,2.4,1.1,2.4,2.4v19.2c0,1.3-1.1,2.4-2.4,2.4
		c-1.3,0-2.4,1.1-2.4,2.4v12L255.9,105.3z M242,133.8l3,0.7c1.1,0.3,1.8,1.2,1.8,2.3v8.6c-0.1,0.1-0.3,0.2-0.4,0.3l-4.4,4.4V133.8z
		 M256.4,205.2v9.6h-33.6v-9.6H256.4z M254,188.4c0,6.6-5.4,12-12,12h-14.4v-47.1l9.6-11.1V156c0,1,0.6,1.8,1.5,2.2
		c0.9,0.4,1.9,0.2,2.6-0.5l8.5-8.5c1.9-1.8,4.9-1.8,6.8,0c1.9,1.8,1.9,4.9,0,6.7c0,0,0,0,0,0l-10.5,10.5c-2.8,2.8-2.8,7.4,0,10.2
		c1.4,1.4,3.2,2.1,5.1,2.1h2.8V188.4z M357.2,205.2v9.6h-33.6v-9.6H357.2z M341.3,158.2c0.9-0.4,1.5-1.2,1.5-2.2v-13.8l9.6,11.1
		v47.1H338c-6.6,0-12-5.4-12-12v-9.6h2.8c4,0,7.2-3.2,7.2-7.2c0-1.9-0.8-3.8-2.1-5.1L323.4,156c-1.9-1.9-1.9-4.9,0-6.8c0,0,0,0,0,0
		c1.9-1.8,4.9-1.8,6.8,0l8.5,8.5C339.4,158.4,340.4,158.6,341.3,158.2z M335.6,121.1c1.3,0,2.4,1.1,2.4,2.4v26.7l-4.4-4.4
		c-0.1-0.1-0.3-0.2-0.4-0.3v-9.9h-4.8v7.6c-0.5-0.1-1.1-0.1-1.6-0.1c-2.5,0-5,1-6.8,2.8c-3.7,3.8-3.7,9.8,0,13.6l10.5,10.5
		c0.7,0.7,0.9,1.7,0.5,2.6c-0.4,0.9-1.3,1.5-2.2,1.5h-77.6c-1,0-1.9-0.6-2.2-1.5c-0.4-0.9-0.2-1.9,0.5-2.6l10.5-10.5
		c1.8-1.8,2.8-4.2,2.8-6.8c0-5.2-4.2-9.5-9.4-9.5c-0.6,0-1.2,0-1.8,0.2v-6.3c0-3.3-2.2-6.2-5.4-7l-4.2-1v-5.3c0-1.3,1.1-2.4,2.4-2.4
		h17.4l4.7,6.2c0.4,0.6,1.2,1,1.9,1c0.3,0,0.5,0,0.8-0.1c1-0.3,1.6-1.3,1.6-2.3v-4.8h38.4v4.8c0,1,0.7,1.9,1.6,2.3
		c0.2,0.1,0.5,0.1,0.8,0.1c0.8,0,1.5-0.4,1.9-1l4.7-6.2L335.6,121.1z M324.1,105.3L314,118.7v-12c0-1.3-1.1-2.4-2.4-2.4
		c-1.3,0-2.4-1.1-2.4-2.4V82.7c0-1.3,1.1-2.4,2.4-2.4h43.2c1.3,0,2.4,1.1,2.4,2.4v19.2c0,1.3-1.1,2.4-2.4,2.4H326
		C325.3,104.3,324.5,104.7,324.1,105.3z"/>
	<path d="M227.6,85.1h4.8v4.8h-4.8V85.1z"/>
	<path d="M237.2,85.1H266v4.8h-28.8V85.1z"/>
	<path d="M227.6,94.7H266v4.8h-38.4V94.7z"/>
	<path d="M314,85.1h4.8v4.8H314V85.1z"/>
	<path d="M323.6,85.1h28.8v4.8h-28.8V85.1z"/>
	<path d="M314,94.7h38.4v4.8H314V94.7z"/>
</g>
<circle class="st5" cx="290" cy="147.5" r="119"/>
<circle class="st5" cx="990" cy="147.5" r="119"/>
<circle class="st5" cx="290" cy="618.5" r="119"/>
<g>
	<g>
		<line class="st6" x1="391.3" y1="209.5" x2="534.9" y2="294.3"/>
		<g>
			<path d="M518.3,295.6c0-0.6,0.4-1,1-1l15.3-0.5l-6.9-13.6c-0.3-0.5-0.1-1.1,0.4-1.3c0.5-0.2,1.1,0,1.3,0.4l7.6,15
				c0.2,0.3,0.1,0.7,0,1s-0.5,0.5-0.8,0.5l-16.9,0.6c-0.2,0-0.4,0-0.5-0.1C518.5,296.3,518.3,296,518.3,295.6z"/>
		</g>
	</g>
</g>
<g>
	<g>
		<line class="st6" x1="888" y1="209.5" x2="744.4" y2="294.3"/>
		<g>
			<path d="M751.3,279.1c0.5,0.2,0.7,0.9,0.4,1.3l-6.9,13.6l15.3,0.5c0.6,0,1,0.5,1,1c0,0.6-0.5,1-1,1l-16.9-0.6
				c-0.3,0-0.7-0.2-0.8-0.5c-0.2-0.3-0.2-0.7,0-1l7.6-15c0.1-0.2,0.2-0.3,0.4-0.4C750.6,279,751,279,751.3,279.1z"/>
		</g>
	</g>
</g>
<g>
	<g>
		<line class="st6" x1="391.3" y1="554.5" x2="534.9" y2="469.8"/>
		<g>
			<path d="M528,485c-0.5-0.2-0.7-0.9-0.4-1.3l6.9-13.6l-15.3-0.5c-0.6,0-1-0.5-1-1s0.5-1,1-1l16.9,0.6c0.3,0,0.7,0.2,0.8,0.5
				s0.2,0.7,0,1l-7.6,15c-0.1,0.2-0.2,0.3-0.4,0.4C528.7,485.1,528.4,485.1,528,485z"/>
		</g>
	</g>
</g>
<g>
	<g>
		<line class="st6" x1="889" y1="554.5" x2="745.4" y2="469.8"/>
		<g>
			<path d="M762,468.5c0,0.6-0.4,1-1,1l-15.3,0.5l6.9,13.6c0.3,0.5,0.1,1.1-0.4,1.3c-0.5,0.2-1.1,0-1.3-0.4l-7.6-15
				c-0.2-0.3-0.1-0.7,0-1c0.2-0.3,0.5-0.5,0.8-0.5l16.9-0.6c0.2,0,0.4,0,0.5,0.1C761.8,467.8,762,468.1,762,468.5z"/>
		</g>
	</g>
</g>
<g id="Layer_12">
	<path d="M357.8,563.7h-6.6v-2.2c0-1.2-1-2.2-2.2-2.2h-11v-2.2c0-3.6-2.9-6.6-6.6-6.6c-3.6,0-6.6,2.9-6.6,6.6v2.2h-8.8v-2.2
		c0-3.6-2.9-6.6-6.6-6.6c-3.6,0-6.6,2.9-6.6,6.6v2.2h-8.8v-2.2c0-3.6-2.9-6.6-6.6-6.6c-3.6,0-6.6,2.9-6.6,6.6v2.2h-8.8v-2.2
		c0-3.6-2.9-6.6-6.6-6.6c-3.6,0-6.6,2.9-6.6,6.6v2.2h-8.8v-2.2c0-3.6-2.9-6.6-6.6-6.6c-3.6,0-6.6,2.9-6.6,6.6v2.2h-11
		c-1.2,0-2.2,1-2.2,2.2v114.1c0,1.2,1,2.2,2.2,2.2h2.2v6.6c0,1.2,1,2.2,2.2,2.2h127.2c1.2,0,2.2-1,2.2-2.2V565.9
		C360,564.7,359,563.7,357.8,563.7z M228.4,673.4V590h118.5v83.4H228.4z M329.3,557.1c0-1.2,1-2.2,2.2-2.2c1.2,0,2.2,1,2.2,2.2v8.8
		c0,1.2-1,2.2-2.2,2.2c-1.2,0-2.2-1-2.2-2.2V557.1z M307.4,557.1c0-1.2,1-2.2,2.2-2.2c1.2,0,2.2,1,2.2,2.2v8.8c0,1.2-1,2.2-2.2,2.2
		c-1.2,0-2.2-1-2.2-2.2V557.1z M285.4,557.1c0-1.2,1-2.2,2.2-2.2c1.2,0,2.2,1,2.2,2.2v8.8c0,1.2-1,2.2-2.2,2.2c-1.2,0-2.2-1-2.2-2.2
		V557.1z M263.5,557.1c0-1.2,1-2.2,2.2-2.2c1.2,0,2.2,1,2.2,2.2v8.8c0,1.2-1,2.2-2.2,2.2c-1.2,0-2.2-1-2.2-2.2V557.1z M241.5,557.1
		c0-1.2,1-2.2,2.2-2.2c1.2,0,2.2,1,2.2,2.2v8.8c0,1.2-1,2.2-2.2,2.2c-1.2,0-2.2-1-2.2-2.2V557.1z M237.2,563.7v2.2
		c0,3.6,2.9,6.6,6.6,6.6c3.6,0,6.6-2.9,6.6-6.6v-2.2h8.8v2.2c0,3.6,2.9,6.6,6.6,6.6c3.6,0,6.6-2.9,6.6-6.6v-2.2h8.8v2.2
		c0,3.6,2.9,6.6,6.6,6.6c3.6,0,6.6-2.9,6.6-6.6v-2.2h8.8v2.2c0,3.6,2.9,6.6,6.6,6.6c3.6,0,6.6-2.9,6.6-6.6v-2.2h8.8v2.2
		c0,3.6,2.9,6.6,6.6,6.6c3.6,0,6.6-2.9,6.6-6.6v-2.2h8.8v21.9H228.4v-21.9H237.2z M355.6,682.2H232.8v-4.4H349c1.2,0,2.2-1,2.2-2.2
		V568.1h4.4V682.2z"/>
	<path d="M309.9,607.6h1.8v-4.4H303c-1.2,0-2.2,1-2.2,2.2v8.8h4.4v-4.9c12.4,9.7,14.6,27.6,4.9,40c-7.7,9.9-21,13.6-32.6,9.1
		l-1.6,4.1c3.7,1.5,7.7,2.2,11.8,2.2c18.2,0,32.9-14.8,32.9-32.9C320.5,622.5,316.6,613.8,309.9,607.6z"/>
	<path d="M270.1,654.2c-12.4-9.7-14.6-27.6-4.9-40c7.7-9.9,21-13.6,32.6-9.1l1.6-4.1c-3.7-1.5-7.7-2.2-11.8-2.2
		c-18.2,0-32.9,14.8-32.9,32.9c0,9.1,3.8,17.9,10.5,24.1h-1.8v4.4h8.8c1.2,0,2.2-1,2.2-2.2v-8.8h-4.4V654.2z"/>
	<path d="M267.9,631.7c0,10.9,8.8,19.7,19.7,19.7s19.7-8.8,19.7-19.7c0-10.9-8.8-19.7-19.7-19.7S267.9,620.8,267.9,631.7z
		 M302.8,629.5h-4.2v4.4h4.2c-1,6.7-6.3,12-13,13v-4.2h-4.4v4.2c-6.7-1-12-6.3-13-13h4.2v-4.4h-4.2c1-6.7,6.3-12,13-13v4.2h4.4v-4.2
		C296.5,617.5,301.8,622.8,302.8,629.5z"/>
	<path d="M289.8,625.1h-4.4v6.6c0,0.6,0.2,1.1,0.6,1.6l6.6,6.6l3.1-3.1l-5.9-5.9V625.1z"/>
</g>
<g>
	<path d="M914.5,765.8c1.7,0,3.1,0.3,4.4,1s2.2,1.6,2.9,2.8s1,2.6,1,4.2c0,1.5-0.3,2.9-1,4.2s-1.6,2.3-2.8,3s-2.7,1.1-4.4,1.1
		c-1.1,0-2.2-0.1-3.2-0.2s-2.1-0.3-3-0.4v-15.1c1-0.2,2-0.3,3-0.4S913.5,765.8,914.5,765.8z M914.6,768.8c-0.5,0-1,0-1.5,0.1
		s-1,0.1-1.4,0.2v9.8c0.5,0.1,1,0.2,1.5,0.2s1,0.1,1.4,0.1c1,0,1.9-0.2,2.6-0.7s1.3-1.1,1.7-1.8s0.6-1.7,0.6-2.6
		c0-1-0.2-1.9-0.6-2.6s-1-1.4-1.7-1.8S915.6,768.8,914.6,768.8z"/>
	<path d="M931.3,769.7c1.2,0,2.2,0.3,3.2,0.8s1.7,1.3,2.3,2.2s0.9,2,0.9,3.2s-0.3,2.2-0.9,3.2s-1.4,1.7-2.3,2.2s-2,0.8-3.2,0.8
		c-1.1,0-2.2-0.3-3.2-0.8s-1.7-1.3-2.3-2.2s-0.9-2-0.9-3.2s0.3-2.2,0.9-3.2s1.3-1.7,2.3-2.2S930.1,769.7,931.3,769.7z M931.3,772.6
		c-0.6,0-1.1,0.1-1.6,0.4s-0.9,0.6-1.2,1.1s-0.4,1.1-0.4,1.8s0.1,1.3,0.4,1.8s0.7,0.9,1.2,1.1s1,0.4,1.6,0.4s1.1-0.1,1.6-0.4
		s0.9-0.6,1.2-1.1s0.4-1.1,0.4-1.8s-0.1-1.3-0.4-1.8s-0.7-0.9-1.2-1.1S931.8,772.6,931.3,772.6z"/>
	<path d="M945.8,769.7c0.9,0,1.6,0.1,2.2,0.4s1,0.6,1.3,0.8v2.7c-0.4-0.3-0.9-0.5-1.4-0.8s-1.1-0.3-1.9-0.3c-0.6,0-1.1,0.1-1.7,0.4
		s-0.9,0.7-1.2,1.2s-0.4,1.1-0.4,1.7c0,1,0.3,1.8,0.9,2.4s1.4,0.9,2.4,0.9c0.7,0,1.4-0.1,1.9-0.3s1-0.4,1.4-0.7v2.7
		c-0.3,0.3-0.8,0.6-1.3,0.8s-1.3,0.4-2.2,0.4c-1.2,0-2.3-0.3-3.2-0.9s-1.7-1.3-2.2-2.3s-0.8-2-0.8-3.1c0-0.8,0.2-1.6,0.5-2.4
		s0.7-1.4,1.3-2s1.2-1.1,2-1.4S944.9,769.7,945.8,769.7z"/>
	<path d="M962.4,770v7.1c0,1-0.2,1.9-0.7,2.7s-1.1,1.3-1.9,1.7s-1.7,0.6-2.7,0.6c-1,0-1.9-0.2-2.8-0.6s-1.4-1-1.9-1.7
		s-0.7-1.7-0.7-2.7V770h3l0,6.5c0,0.9,0.2,1.6,0.6,2.1s1,0.7,1.7,0.7c0.7,0,1.2-0.2,1.7-0.7s0.6-1.1,0.6-2.1V770H962.4z"/>
	<path d="M968.8,770v1.5c0.4-0.5,0.8-0.9,1.3-1.2s1.2-0.6,2-0.6c0.8,0,1.6,0.2,2.2,0.6s1.2,1,1.6,1.7c0.5-0.6,1-1.2,1.6-1.6
		s1.4-0.7,2.2-0.7c0.8,0,1.5,0.2,2.2,0.6s1.2,0.9,1.6,1.6s0.6,1.6,0.6,2.7v7.3h-3l0-6.9c0-0.8-0.2-1.4-0.6-1.8s-1-0.6-1.6-0.6
		c-0.5,0-1,0.2-1.3,0.5s-0.7,0.7-1.1,1.1v7.6h-3l0-6.9c0-0.8-0.2-1.4-0.6-1.8s-0.9-0.6-1.6-0.6c-0.5,0-0.9,0.2-1.3,0.5
		s-0.7,0.7-1.1,1.1v7.7h-3V770H968.8z"/>
	<path d="M992.6,769.7c1.2,0,2.2,0.2,3,0.8s1.5,1.2,1.9,2.1s0.7,1.9,0.7,3.1v1.3h-8.6c0.2,0.8,0.5,1.4,1.2,1.9s1.4,0.7,2.3,0.7
		c0.9,0,1.6-0.2,2.3-0.5s1.3-0.7,1.7-1.1l0,2.8c-0.4,0.3-0.9,0.7-1.7,1s-1.6,0.5-2.4,0.5c-1.2,0-2.2-0.3-3.2-0.8s-1.7-1.3-2.3-2.2
		s-0.9-2-0.9-3.2c0-1.2,0.3-2.2,0.8-3.2s1.2-1.7,2.1-2.3S991.5,769.7,992.6,769.7z M992.5,772.3c-0.7,0-1.4,0.2-1.9,0.7
		s-0.8,1.1-1,1.8h5.7c-0.1-0.8-0.4-1.5-0.9-1.9S993.2,772.3,992.5,772.3z"/>
	<path d="M1003.9,770v1.7c0.4-0.5,0.8-0.9,1.5-1.4s1.3-0.6,2.1-0.6c1.2,0,2.2,0.4,3,1.2s1.2,2,1.2,3.7v7.3h-3l0-6.9
		c0-0.8-0.2-1.4-0.6-1.8s-0.9-0.6-1.6-0.6c-0.5,0-1,0.2-1.5,0.5s-0.9,0.8-1.2,1.2v7.5h-3V770H1003.9z"/>
	<path d="M1019.1,766.6v3.4h3.3v2.5h-3.3v5.1c0,0.5,0.1,0.9,0.4,1.3s0.6,0.5,1.1,0.5c0.4,0,0.8,0,1.1-0.1s0.6-0.2,0.9-0.4v2.4
		c-0.3,0.3-0.7,0.5-1.1,0.8s-1,0.3-1.7,0.3c-1.1,0-1.9-0.3-2.6-1s-1-1.6-1-2.8v-5.9h-2.1V771c0.8-0.3,1.4-0.8,2.1-1.5
		s1.1-1.7,1.5-2.9H1019.1z"/>
	<path d="M1030.1,769.7c0.6,0,1.3,0.1,1.9,0.4s1.2,0.7,1.6,1.2V770h3v11.8h-3v-2c-0.3,0.6-0.8,1.2-1.5,1.7s-1.4,0.7-2.3,0.7
		c-1,0-1.8-0.2-2.6-0.7s-1.4-1.2-1.9-2.1s-0.7-2-0.7-3.4s0.2-2.4,0.7-3.4s1.2-1.7,2-2.2S1029.1,769.7,1030.1,769.7z M1030.7,772.6
		c-0.6,0-1.2,0.2-1.6,0.5s-0.8,0.7-1,1.3s-0.4,1.1-0.4,1.7c0,0.9,0.3,1.6,0.8,2.3s1.3,0.9,2.1,0.9c0.5,0,1-0.1,1.5-0.4
		s0.8-0.7,1.1-1.2s0.4-1.1,0.4-1.8v-1.7c-0.4-0.5-0.9-0.8-1.4-1.1S1031.3,772.6,1030.7,772.6z"/>
	<path d="M1044.6,766.6v3.4h3.3v2.5h-3.3v5.1c0,0.5,0.1,0.9,0.4,1.3s0.6,0.5,1.1,0.5c0.4,0,0.8,0,1.1-0.1s0.6-0.2,0.9-0.4v2.4
		c-0.3,0.3-0.7,0.5-1.1,0.8s-1,0.3-1.7,0.3c-1.1,0-1.9-0.3-2.6-1s-1-1.6-1-2.8v-5.9h-2.1V771c0.8-0.3,1.4-0.8,2.1-1.5
		s1.1-1.7,1.5-2.9H1044.6z"/>
	<path d="M1055.3,770v11.8h-3v-9.3h-1.9V770H1055.3z M1053.5,763.8c0.6,0,1,0.2,1.5,0.6s0.6,0.9,0.6,1.4c0,0.5-0.2,1-0.6,1.4
		s-0.9,0.6-1.5,0.6s-1-0.2-1.4-0.6s-0.6-0.9-0.6-1.4c0-0.5,0.2-1,0.6-1.4S1053,763.8,1053.5,763.8z"/>
	<path d="M1064.5,769.7c1.2,0,2.2,0.3,3.2,0.8s1.7,1.3,2.3,2.2s0.9,2,0.9,3.2s-0.3,2.2-0.9,3.2s-1.4,1.7-2.3,2.2s-2,0.8-3.2,0.8
		c-1.1,0-2.2-0.3-3.2-0.8s-1.7-1.3-2.3-2.2s-0.9-2-0.9-3.2s0.3-2.2,0.9-3.2s1.3-1.7,2.3-2.2S1063.4,769.7,1064.5,769.7z
		 M1064.5,772.6c-0.6,0-1.1,0.1-1.6,0.4s-0.9,0.6-1.2,1.1s-0.4,1.1-0.4,1.8s0.1,1.3,0.4,1.8s0.7,0.9,1.2,1.1s1,0.4,1.6,0.4
		s1.1-0.1,1.6-0.4s0.9-0.6,1.2-1.1s0.4-1.1,0.4-1.8s-0.1-1.3-0.4-1.8s-0.7-0.9-1.2-1.1S1065.1,772.6,1064.5,772.6z"/>
	<path d="M1076.7,770v1.7c0.4-0.5,0.8-0.9,1.5-1.4s1.3-0.6,2.1-0.6c1.2,0,2.2,0.4,3,1.2s1.2,2,1.2,3.7v7.3h-3l0-6.9
		c0-0.8-0.2-1.4-0.6-1.8s-0.9-0.6-1.6-0.6c-0.5,0-1,0.2-1.5,0.5s-0.9,0.8-1.2,1.2v7.5h-3V770H1076.7z"/>
</g>
<circle class="st5" cx="990" cy="618.5" r="119"/>
<g>
	<g>
		<path d="M999.2,215.5h-18.5c-4.3,0-9.2-3.7-9.2-11.1v-12.9c0-6.2-3.1-11.7-8-16c-11.1-8.6-16.6-21-16.6-34.5
			c0.6-23.4,19.7-41.9,42.5-42.6c11.7,0,22.8,4.3,30.8,12.3c8,8,12.9,19.1,12.9,30.8c0,12.9-5.5,25.3-16,33.3
			c-5.6,4.3-8.6,11.1-8.6,17.3v14.2C1008.5,211.2,1004.2,215.5,999.2,215.5L999.2,215.5z M990,104.5c-19.7,0-36.4,16.6-37,36.4
			c0,11.7,4.9,22.8,14.2,29.6c6.8,5.5,10.5,12.9,10.5,21v12.9c0,1.2,0,4.9,3.1,4.9h18.5c1.9,0,3.1-1.2,3.1-3.1v-14.2
			c0-8,4.3-16.7,11.1-22.2c8.6-6.8,13.6-17.3,13.6-28.4c0-9.9-3.7-19.1-11.1-26.5C1009.1,108.2,999.9,104.5,990,104.5L990,104.5z"/>
	</g>
	<g>
		<path d="M1005.4,197h-30.8c-1.8,0-3.1-1.2-3.1-3.1s1.2-3.1,3.1-3.1h30.8c1.8,0,3.1,1.2,3.1,3.1S1007.3,197,1005.4,197z"/>
	</g>
	<g>
		<path d="M990,86c-1.8,0-3.1-1.2-3.1-3.1V70.6c0-1.8,1.2-3.1,3.1-3.1c1.9,0,3.1,1.2,3.1,3.1V83C993.1,84.8,991.9,86,990,86z"/>
	</g>
	<g>
		<path d="M1031.3,103.3c-0.6,0-1.8,0-2.5-0.6c-1.2-1.2-1.2-3.1,0-4.3l8.6-8.6c1.2-1.2,3.1-1.2,4.3,0c1.2,1.2,1.2,3.1,0,4.3
			l-8.6,8.6C1033.2,102.7,1031.9,103.3,1031.3,103.3L1031.3,103.3z"/>
	</g>
	<g>
		<path d="M1060.9,144.6h-12.3c-1.8,0-3.1-1.2-3.1-3.1c0-1.9,1.2-3.1,3.1-3.1h12.3c1.8,0,3.1,1.2,3.1,3.1
			C1064,143.4,1062.8,144.6,1060.9,144.6z"/>
	</g>
	<g>
		<path d="M1039.9,194.6c-0.6,0-1.8,0-2.5-0.6l-8.6-8.6c-1.2-1.2-1.2-3.1,0-4.3c1.2-1.2,3.1-1.2,4.3,0l8.6,8.6
			c1.2,1.2,1.2,3.1,0,4.3C1041.8,194.6,1041.2,194.6,1039.9,194.6L1039.9,194.6z"/>
	</g>
	<g>
		<path d="M940,194.6c-0.6,0-1.8,0-2.5-0.6c-1.2-1.2-1.2-3.1,0-4.3l8.6-8.6c1.2-1.2,3.1-1.2,4.3,0s1.2,3.1,0,4.3l-8.6,8.6
			C941.3,194.6,940.7,194.6,940,194.6z"/>
	</g>
	<g>
		<path d="M931.4,144.6h-12.3c-1.9,0-3.1-1.2-3.1-3.1c0-1.9,1.2-3.1,3.1-3.1h12.3c1.8,0,3.1,1.2,3.1,3.1
			C934.5,143.4,933.3,144.6,931.4,144.6z"/>
	</g>
	<g>
		<path d="M948.7,103.3c-0.6,0-1.8,0-2.5-0.6l-8.6-9.2c-1.2-1.2-1.2-3.1,0-4.3c1.2-1.2,3.1-1.2,4.3,0l8.6,8.6c1.2,1.2,1.2,3.1,0,4.3
			C949.9,102.7,949.3,103.3,948.7,103.3L948.7,103.3z"/>
	</g>
	<g>
		<path d="M1014.7,144.6c-1.9,0-3.1-1.2-3.1-3.1c0-11.7-9.9-21.6-21.6-21.6c-1.8,0-3.1-1.2-3.1-3.1c0-1.8,1.2-3.1,3.1-3.1
			c15.4,0,27.8,12.3,27.8,27.8C1017.8,143.4,1016.5,144.6,1014.7,144.6z"/>
	</g>
</g>
<g>
	<path d="M954,590.5h60v3.8h-60V590.5z"/>
	<path d="M954,610.5h60v3.8h-60V610.5z"/>
	<path d="M954,620.5h40v3.8h-40V620.5z"/>
	<path d="M954,600.5h60v3.8h-60V600.5z"/>
	<path d="M970.9,565.5h-18.8v18.8h18.8V565.5z M967.1,580.5h-11.2v-11.2h11.2V580.5z"/>
	<path d="M1035.9,630.4v-91.9h-83.8v10h-10v81.9h-10v68.1h113.8v-68.1H1035.9z M955.9,542.3h76.2v88.1h-6.2v-55.8l-26.1-26.1h-43.9
		V542.3z M1000.9,555l18.6,18.6h-18.6V555z M945.9,552.3h51.2v25h25v53.1h-15v10h-36.2v-10h-25V552.3z M967.1,634.2v10h43.8v-10
		h31.2v52.5H935.9v-52.5H967.1z M935.9,694.8v-4.4h106.2v4.4H935.9z"/>
	<path d="M1010.9,655.5h-43.8v13.8h43.8V655.5z M1007.1,665.5h-36.2v-6.2h36.2V665.5z"/>
</g>
<g>
</g>
<g>
</g>
<g>
</g>
<g>
</g>
<g>
</g>
<g>
</g>
<g>
</g>
<g>
</g>
<g>
</g>
<g>
</g>
<g>
</g>
<g>
</g>
<g>
</g>
<g>
</g>
<g>
</g>
<g>
</g>
</svg>
