<?xml version="1.0" encoding="utf-8"?>
<!-- Generator: Adobe Illustrator 25.0.1, SVG Export Plug-In . SVG Version: 6.00 Build 0)  -->
<svg version="1.1" id="Layer_1" xmlns="http://www.w3.org/2000/svg" xmlns:xlink="http://www.w3.org/1999/xlink" x="0px" y="0px"
	 viewBox="0 0 1280 810.7" style="enable-background:new 0 0 1280 810.7;" xml:space="preserve">
<style type="text/css">
	.st0{fill:#CECECE;}
	.st1{fill:#FFFFFF;}
	.st2{font-family:'MyriadPro-Regular';}
	.st3{font-size:12px;}
	.st4{fill:none;stroke:#000000;stroke-width:0.5;stroke-miterlimit:10;}
</style>
<path d="M337.8,217.7h-93c-7.5,0-13.6-6.1-13.6-13.6v0c0-7.5,6.1-13.6,13.6-13.6h93c7.5,0,13.6,6.1,13.6,13.6v0
	C351.3,211.6,345.3,217.7,337.8,217.7z"/>
<g id="Social_network">
	<path class="st0" d="M307.9,132.8h2.1v2.1h-2.1V132.8z"/>
	<path class="st0" d="M319.3,125.5c1.7,0,3.1-1.4,3.1-3.1v-8.3c0-1.7-1.4-3.1-3.1-3.1h-18.7c-1.7,0-3.1,1.4-3.1,3.1v8.3
		c0,1.3,0.8,2.5,2.1,2.9v3.3h-16.6v-3.3c1.3-0.4,2.1-1.6,2.1-2.9v-8.3c0-1.7-1.4-3.1-3.1-3.1h-18.7c-1.7,0-3.1,1.4-3.1,3.1v8.3
		c0,1.7,1.4,3.1,3.1,3.1h12l2.3,3.1h-6c-1.7,0-3.1,1.4-3.1,3.1v4.9l-6,6.9c-0.2,0.2-0.3,0.4-0.3,0.7v20.8h-1c-0.6,0-1,0.5-1,1v6.2
		c0,0.6,0.5,1,1,1h16.6c0.6,0,1-0.5,1-1v-6.2c0-0.6-0.5-1-1-1h-2.2c1.4-1.4,2.2-3.2,2.2-5.2v-4.2h27v4.2c0,1.9,0.8,3.9,2.2,5.2h-2.2
		c-0.6,0-1,0.5-1,1v6.2c0,0.6,0.5,1,1,1h16.6c0.6,0,1-0.5,1-1v-6.2c0-0.6-0.5-1-1-1h-1v-20.8c0-0.3-0.1-0.5-0.3-0.7l-6-6.9v-4.9
		c0-1.7-1.4-3.1-3.1-3.1h-6l2.3-3.1C307.4,125.5,319.3,125.5,319.3,125.5z M276.5,123.9c-0.2-0.3-0.5-0.4-0.8-0.4h-12.5
		c-0.6,0-1-0.5-1-1v-8.3c0-0.6,0.5-1,1-1h18.7c0.6,0,1,0.5,1,1v8.3c0,0.6-0.5,1-1,1s-1,0.5-1,1v5.2L276.5,123.9z M270.5,136.2
		l1.3,0.3c0.5,0.1,0.8,0.5,0.8,1v3.7c0,0-0.1,0.1-0.2,0.1l-1.9,1.9V136.2L270.5,136.2z M276.7,167.2v4.2h-14.6v-4.2H276.7z
		 M275.7,159.9c0,2.9-2.3,5.2-5.2,5.2h-6.2v-20.4l4.2-4.8v6c0,0.4,0.3,0.8,0.6,1c0.4,0.2,0.8,0.1,1.1-0.2l3.7-3.7
		c0.8-0.8,2.1-0.8,2.9,0s0.8,2.1,0,2.9l0,0l-4.5,4.6c-1.2,1.2-1.2,3.2,0,4.4c0.6,0.6,1.4,0.9,2.2,0.9h1.2V159.9L275.7,159.9z
		 M320.4,167.2v4.2h-14.6v-4.2H320.4z M313.5,146.8c0.4-0.2,0.7-0.5,0.7-1v-6l4.2,4.8v20.4h-6.2c-2.9,0-5.2-2.3-5.2-5.2v-4.2h1.2
		c1.7,0,3.1-1.4,3.1-3.1c0-0.8-0.3-1.6-0.9-2.2l-4.5-4.6c-0.8-0.8-0.8-2.1,0-2.9l0,0c0.8-0.8,2.1-0.8,2.9,0l3.7,3.7
		C312.7,146.9,313.1,147,313.5,146.8z M311,130.7c0.6,0,1,0.5,1,1v11.6l-1.9-1.9c0,0-0.1-0.1-0.2-0.1V137h-2.1v3.3
		c-0.2,0-0.5,0-0.7,0c-1.1,0-2.2,0.4-2.9,1.2c-1.6,1.6-1.6,4.2,0,5.9l4.6,4.6c0.3,0.3,0.4,0.7,0.2,1.1c-0.2,0.4-0.6,0.7-1,0.7h-33.6
		c-0.4,0-0.8-0.3-1-0.7c-0.2-0.4-0.1-0.8,0.2-1.1l4.5-4.6c0.8-0.8,1.2-1.8,1.2-2.9c0-2.3-1.8-4.1-4.1-4.1c-0.3,0-0.5,0-0.8,0.1v-2.7
		c0-1.4-1-2.7-2.3-3l-1.8-0.4v-2.3c0-0.6,0.5-1,1-1h7.5l2,2.7c0.2,0.3,0.5,0.4,0.8,0.4c0.1,0,0.2,0,0.3,0c0.4-0.1,0.7-0.6,0.7-1
		v-2.1h16.6v2.1c0,0.4,0.3,0.8,0.7,1c0.1,0,0.2,0,0.3,0c0.3,0,0.6-0.2,0.8-0.4l2-2.7L311,130.7z M306,123.9l-4.4,5.8v-5.2
		c0-0.6-0.5-1-1-1s-1-0.5-1-1v-8.3c0-0.6,0.5-1,1-1h18.7c0.6,0,1,0.5,1,1v8.3c0,0.6-0.5,1-1,1h-12.5
		C306.6,123.5,306.2,123.6,306,123.9z"/>
	<path class="st0" d="M264.2,115.1h2.1v2.1h-2.1V115.1z"/>
	<path class="st0" d="M268.4,115.1h12.5v2.1h-12.5V115.1z"/>
	<path class="st0" d="M264.2,119.3h16.6v2.1h-16.6V119.3z"/>
	<path class="st0" d="M301.7,115.1h2.1v2.1h-2.1V115.1z"/>
	<path class="st0" d="M305.8,115.1h12.5v2.1h-12.5V115.1z"/>
	<path class="st0" d="M301.7,119.3h16.6v2.1h-16.6V119.3z"/>
</g>
<g id="Layer_12">
	<path class="st0" d="M319.4,263.8h-2.6v-0.9c0-0.5-0.4-0.9-0.9-0.9h-4.4v-0.9c0-1.4-1.2-2.6-2.6-2.6c-1.4,0-2.6,1.2-2.6,2.6v0.9
		h-3.5v-0.9c0-1.4-1.2-2.6-2.6-2.6c-1.4,0-2.6,1.2-2.6,2.6v0.9h-3.5v-0.9c0-1.4-1.2-2.6-2.6-2.6c-1.4,0-2.6,1.2-2.6,2.6v0.9h-3.5
		v-0.9c0-1.4-1.2-2.6-2.6-2.6c-1.4,0-2.6,1.2-2.6,2.6v0.9h-3.5v-0.9c0-1.4-1.2-2.6-2.6-2.6c-1.4,0-2.6,1.2-2.6,2.6v0.9h-4.4
		c-0.5,0-0.9,0.4-0.9,0.9v45.4c0,0.5,0.4,0.9,0.9,0.9h0.9v2.6c0,0.5,0.4,0.9,0.9,0.9h50.6c0.5,0,0.9-0.4,0.9-0.9v-47.1
		C320.3,264.2,319.9,263.8,319.4,263.8z M268,307.4v-33.2h47.1v33.2H268z M308.1,261.2c0-0.5,0.4-0.9,0.9-0.9s0.9,0.4,0.9,0.9v3.5
		c0,0.5-0.4,0.9-0.9,0.9s-0.9-0.4-0.9-0.9V261.2z M299.4,261.2c0-0.5,0.4-0.9,0.9-0.9s0.9,0.4,0.9,0.9v3.5c0,0.5-0.4,0.9-0.9,0.9
		s-0.9-0.4-0.9-0.9V261.2z M290.6,261.2c0-0.5,0.4-0.9,0.9-0.9s0.9,0.4,0.9,0.9v3.5c0,0.5-0.4,0.9-0.9,0.9s-0.9-0.4-0.9-0.9V261.2z
		 M281.9,261.2c0-0.5,0.4-0.9,0.9-0.9s0.9,0.4,0.9,0.9v3.5c0,0.5-0.4,0.9-0.9,0.9s-0.9-0.4-0.9-0.9V261.2z M273.2,261.2
		c0-0.5,0.4-0.9,0.9-0.9c0.5,0,0.9,0.4,0.9,0.9v3.5c0,0.5-0.4,0.9-0.9,0.9c-0.5,0-0.9-0.4-0.9-0.9V261.2z M271.5,263.8v0.9
		c0,1.4,1.2,2.6,2.6,2.6c1.4,0,2.6-1.2,2.6-2.6v-0.9h3.5v0.9c0,1.4,1.2,2.6,2.6,2.6c1.4,0,2.6-1.2,2.6-2.6v-0.9h3.5v0.9
		c0,1.4,1.2,2.6,2.6,2.6c1.4,0,2.6-1.2,2.6-2.6v-0.9h3.5v0.9c0,1.4,1.2,2.6,2.6,2.6c1.4,0,2.6-1.2,2.6-2.6v-0.9h3.5v0.9
		c0,1.4,1.2,2.6,2.6,2.6c1.4,0,2.6-1.2,2.6-2.6v-0.9h3.5v8.7H268v-8.7H271.5z M318.6,310.9h-48.9v-1.8h46.2c0.5,0,0.9-0.4,0.9-0.9
		v-42.8h1.8V310.9z"/>
	<path class="st0" d="M300.4,281.3h0.7v-1.8h-3.5c-0.5,0-0.9,0.4-0.9,0.9v3.5h1.8v-1.9c4.9,3.9,5.8,11,1.9,15.9
		c-3.1,3.9-8.4,5.4-13,3.6l-0.6,1.6c1.5,0.6,3.1,0.9,4.7,0.9c7.2,0,13.1-5.9,13.1-13.1C304.6,287.2,303.1,283.7,300.4,281.3z"/>
	<path class="st0" d="M284.6,299.8c-4.9-3.9-5.8-11-1.9-15.9c3.1-3.9,8.4-5.4,13-3.6l0.6-1.6c-1.5-0.6-3.1-0.9-4.7-0.9
		c-7.2,0-13.1,5.9-13.1,13.1c0,3.6,1.5,7.1,4.2,9.6h-0.7v1.8h3.5c0.5,0,0.9-0.4,0.9-0.9v-3.5h-1.8L284.6,299.8L284.6,299.8z"/>
	<path class="st0" d="M283.7,290.8c0,4.3,3.5,7.8,7.8,7.8s7.8-3.5,7.8-7.8s-3.5-7.8-7.8-7.8S283.7,286.5,283.7,290.8z M297.6,290
		h-1.7v1.8h1.7c-0.4,2.7-2.5,4.8-5.2,5.2v-1.7h-1.8v1.7c-2.7-0.4-4.8-2.5-5.2-5.2h1.7V290h-1.7c0.4-2.7,2.5-4.8,5.2-5.2v1.7h1.8
		v-1.7C295.1,285.2,297.2,287.3,297.6,290z"/>
	<path class="st0" d="M292.4,288.2h-1.8v2.6c0,0.2,0.1,0.4,0.2,0.6l2.6,2.6l1.2-1.2l-2.3-2.3V288.2L292.4,288.2z"/>
</g>
<g>
	<g>
		<path class="st0" d="M796.1,171.7h-8c-1.8,0-4-1.6-4-4.8v-5.5c0-2.7-1.3-5-3.4-6.9c-4.8-3.7-7.1-9-7.1-14.8
			c0.3-10.1,8.5-18,18.3-18.3c5,0,9.8,1.8,13.2,5.3c3.4,3.4,5.5,8.2,5.5,13.2c0,5.5-2.4,10.9-6.9,14.3c-2.4,1.8-3.7,4.8-3.7,7.4v6.1
			C800.1,169.9,798.3,171.7,796.1,171.7L796.1,171.7z M792.2,124c-8.5,0-15.7,7.1-15.9,15.7c0,5,2.1,9.8,6.1,12.7
			c2.9,2.4,4.5,5.5,4.5,9v5.5c0,0.5,0,2.1,1.3,2.1h8c0.8,0,1.3-0.5,1.3-1.3v-6.1c0-3.4,1.8-7.2,4.8-9.5c3.7-2.9,5.8-7.4,5.8-12.2
			c0-4.3-1.6-8.2-4.8-11.4C800.4,125.6,796.4,124,792.2,124L792.2,124z"/>
	</g>
	<g>
		<path class="st0" d="M798.8,163.8h-13.2c-0.8,0-1.3-0.5-1.3-1.3s0.5-1.3,1.3-1.3h13.2c0.8,0,1.3,0.5,1.3,1.3
			S799.6,163.8,798.8,163.8z"/>
	</g>
	<g>
		<path class="st0" d="M792.2,116c-0.8,0-1.3-0.5-1.3-1.3v-5.3c0-0.8,0.5-1.3,1.3-1.3s1.3,0.5,1.3,1.3v5.3
			C793.5,115.5,793,116,792.2,116z"/>
	</g>
	<g>
		<path class="st0" d="M809.9,123.5c-0.3,0-0.8,0-1.1-0.3c-0.5-0.5-0.5-1.3,0-1.8l3.7-3.7c0.5-0.5,1.3-0.5,1.8,0
			c0.5,0.5,0.5,1.3,0,1.8l-3.7,3.7C810.7,123.2,810.2,123.5,809.9,123.5L809.9,123.5z"/>
	</g>
	<g>
		<path class="st0" d="M822.7,141.2h-5.3c-0.8,0-1.3-0.5-1.3-1.3s0.5-1.3,1.3-1.3h5.3c0.8,0,1.3,0.5,1.3,1.3
			C824,140.7,823.5,141.2,822.7,141.2z"/>
	</g>
	<g>
		<path class="st0" d="M813.6,162.7c-0.3,0-0.8,0-1.1-0.3l-3.7-3.7c-0.5-0.5-0.5-1.3,0-1.8c0.5-0.5,1.3-0.5,1.8,0l3.7,3.7
			c0.5,0.5,0.5,1.3,0,1.8C814.4,162.7,814.2,162.7,813.6,162.7L813.6,162.7z"/>
	</g>
	<g>
		<path class="st0" d="M770.7,162.7c-0.3,0-0.8,0-1.1-0.3c-0.5-0.5-0.5-1.3,0-1.8l3.7-3.7c0.5-0.5,1.3-0.5,1.8,0
			c0.5,0.5,0.5,1.3,0,1.8l-3.7,3.7C771.2,162.7,771,162.7,770.7,162.7z"/>
	</g>
	<g>
		<path class="st0" d="M767,141.2h-5.3c-0.8,0-1.3-0.5-1.3-1.3s0.5-1.3,1.3-1.3h5.3c0.8,0,1.3,0.5,1.3,1.3
			C768.3,140.7,767.8,141.2,767,141.2z"/>
	</g>
	<g>
		<path class="st0" d="M774.4,123.5c-0.3,0-0.8,0-1.1-0.3l-3.7-4c-0.5-0.5-0.5-1.3,0-1.8c0.5-0.5,1.3-0.5,1.8,0l3.7,3.7
			c0.5,0.5,0.5,1.3,0,1.8C774.9,123.2,774.7,123.5,774.4,123.5L774.4,123.5z"/>
	</g>
	<g>
		<path class="st0" d="M802.8,141.2c-0.8,0-1.3-0.5-1.3-1.3c0-5-4.3-9.3-9.3-9.3c-0.8,0-1.3-0.5-1.3-1.3c0-0.8,0.5-1.3,1.3-1.3
			c6.6,0,12,5.3,12,12C804.1,140.7,803.6,141.2,802.8,141.2z"/>
	</g>
</g>
<g>
	<path class="st0" d="M775.5,271.4h23.6v1.5h-23.6V271.4z"/>
	<path class="st0" d="M775.5,279.3h23.6v1.5h-23.6V279.3z"/>
	<path class="st0" d="M775.5,283.2h15.7v1.5h-15.7V283.2z"/>
	<path class="st0" d="M775.5,275.3h23.6v1.5h-23.6V275.3z"/>
	<path class="st0" d="M782.1,261.6h-7.4v7.4h7.4V261.6z M780.6,267.5h-4.4v-4.4h4.4V267.5z"/>
	<path class="st0" d="M807.7,287.1v-36.2h-33v3.9h-3.9v32.2h-3.9v26.8h44.8v-26.8H807.7z M776.2,252.4h30v34.7h-2.4v-22l-10.3-10.3
		h-17.3V252.4z M794,257.4l7.3,7.3H794V257.4z M772.3,256.4h20.2v9.8h9.8v20.9h-5.9v3.9h-14.3v-3.9h-9.8V256.4z M780.6,288.6v3.9
		h17.2v-3.9h12.3v20.7h-41.8v-20.7H780.6z M768.4,312.5v-1.7h41.8v1.7H768.4z"/>
	<path class="st0" d="M797.9,297h-17.2v5.4h17.2V297z M796.4,300.9h-14.3v-2.4h14.3V300.9z"/>
</g>
<text transform="matrix(1 0 0 1 250.9402 208.09)" class="st1 st2 st3">Communication</text>
<path d="M588.1,287.8h-93c-7.5,0-13.6-6.1-13.6-13.6v0c0-7.5,6.1-13.6,13.6-13.6h93c7.5,0,13.6,6.1,13.6,13.6v0
	C601.6,281.7,595.6,287.8,588.1,287.8z"/>
<text transform="matrix(1 0 0 1 511.115 277.4238)" class="st1 st2 st3">The OBP App</text>
<path d="M838.7,217.7h-93c-7.5,0-13.6-6.1-13.6-13.6v0c0-7.5,6.1-13.6,13.6-13.6h93c7.5,0,13.6,6.1,13.6,13.6v0
	C852.2,211.6,846.2,217.7,838.7,217.7z"/>
<text transform="matrix(1 0 0 1 767.3605 208.09)" class="st1 st2 st3">Education</text>
<path d="M838.7,355.5h-93c-7.5,0-13.6-6.1-13.6-13.6v0c0-7.5,6.1-13.6,13.6-13.6h93c7.5,0,13.6,6.1,13.6,13.6v0
	C852.2,349.4,846.2,355.5,838.7,355.5z"/>
<text transform="matrix(1 0 0 1 753.3864 345.8775)" class="st1 st2 st3">Documentation</text>
<path d="M337.8,355.5h-93c-7.5,0-13.6-6.1-13.6-13.6v0c0-7.5,6.1-13.6,13.6-13.6h93c7.5,0,13.6,6.1,13.6,13.6v0
	C351.3,349.4,345.3,355.5,337.8,355.5z"/>
<text transform="matrix(1 0 0 1 257.8598 345.8776)" class="st1 st2 st3">Organization</text>
<g>
	<path class="st4" d="M351.3,204.1l46.3,0c5.5,0,13.6,2.7,18,6l72.1,54.3"/>
</g>
<g>
	<path class="st4" d="M351.3,342h46.3c5.5,0,13.6-2.7,18-5.9l72.5-53.6"/>
</g>
<g>
	<path class="st4" d="M732.8,204.1l-46.3,0c-5.5,0-13.6,2.7-18,6l-72.1,54.3"/>
</g>
<g>
	<path class="st4" d="M732.8,342h-46.3c-5.5,0-13.6-2.7-18-5.9L596,282.4"/>
</g>
</svg>
