<?xml version="1.0" encoding="utf-8"?>
<!-- Generator: Adobe Illustrator 25.0.1, SVG Export Plug-In . SVG Version: 6.00 Build 0)  -->
<svg version="1.1" id="_x30_1_brand_attributes" xmlns="http://www.w3.org/2000/svg" xmlns:xlink="http://www.w3.org/1999/xlink"
	 x="0px" y="0px" viewBox="0 0 439.9 401.9" style="enable-background:new 0 0 439.9 401.9;" xml:space="preserve">
<style type="text/css">
	.st0{fill:none;stroke:#000000;stroke-width:2.7907;stroke-miterlimit:10;}
	.st1{fill:none;stroke:#000000;stroke-miterlimit:10;}
	.st2{fill:#FFFFFF;}
</style>
<circle class="st0" cx="221.9" cy="223.3" r="173.7"/>
<circle cx="64.6" cy="309.7" r="42.8"/>
<line class="st1" x1="340.9" y1="292" x2="221.9" y2="223.3"/>
<circle cx="379.3" cy="310.6" r="42.8"/>
<line class="st1" x1="221.9" y1="223.3" x2="221.9" y2="86"/>
<line class="st1" x1="103" y1="291.1" x2="221.9" y2="222.4"/>
<circle cx="221.9" cy="223.3" r="79.6"/>
<circle cx="221.9" cy="43.3" r="42.8"/>
<g>
	<path class="st2" d="M160,220.9v3.1h-4.5v4.2H152v-12.6h8.9v3.1h-5.4v2.1L160,220.9L160,220.9z"/>
	<path class="st2" d="M169.5,215.4c0.8,0,1.7,0.1,2.4,0.4c0.8,0.3,1.5,0.7,2.1,1.3s1.1,1.2,1.5,2.1s0.5,1.7,0.5,2.8
		c0,1-0.2,2-0.5,2.8c-0.4,0.8-0.8,1.5-1.5,2.1c-0.6,0.6-1.3,1-2.1,1.3s-1.6,0.4-2.4,0.4c-0.8,0-1.7-0.1-2.4-0.4s-1.5-0.7-2.1-1.3
		s-1.1-1.2-1.5-2.1c-0.4-0.8-0.5-1.7-0.5-2.8c0-1,0.2-2,0.5-2.8c0.4-0.8,0.8-1.5,1.5-2.1c0.6-0.6,1.3-1,2.1-1.3
		S168.7,215.4,169.5,215.4z M169.5,218.7c-0.6,0-1.1,0.1-1.5,0.4c-0.4,0.3-0.8,0.7-1,1.2c-0.3,0.5-0.4,1.1-0.4,1.7s0.1,1.2,0.4,1.7
		c0.3,0.5,0.6,0.9,1,1.2s0.9,0.4,1.5,0.4s1.1-0.1,1.5-0.4s0.8-0.7,1-1.2s0.4-1.1,0.4-1.7s-0.1-1.2-0.4-1.7c-0.2-0.5-0.6-0.9-1-1.2
		C170.6,218.8,170.1,218.7,169.5,218.7z"/>
	<path class="st2" d="M184.1,215.4c0.8,0,1.7,0.1,2.4,0.4c0.8,0.3,1.5,0.7,2.1,1.3s1.1,1.2,1.5,2.1s0.5,1.7,0.5,2.8
		c0,1-0.2,2-0.5,2.8c-0.4,0.8-0.8,1.5-1.5,2.1c-0.6,0.6-1.3,1-2.1,1.3s-1.6,0.4-2.4,0.4c-0.8,0-1.7-0.1-2.4-0.4s-1.5-0.7-2.1-1.3
		s-1.1-1.2-1.5-2.1c-0.4-0.8-0.5-1.7-0.5-2.8c0-1,0.2-2,0.5-2.8c0.4-0.8,0.8-1.5,1.5-2.1c0.6-0.6,1.3-1,2.1-1.3
		S183.2,215.4,184.1,215.4z M184.1,218.7c-0.6,0-1.1,0.1-1.5,0.4c-0.4,0.3-0.8,0.7-1,1.2c-0.3,0.5-0.4,1.1-0.4,1.7s0.1,1.2,0.4,1.7
		c0.3,0.5,0.6,0.9,1,1.2s0.9,0.4,1.5,0.4s1.1-0.1,1.5-0.4s0.8-0.7,1-1.2s0.4-1.1,0.4-1.7s-0.1-1.2-0.4-1.7c-0.2-0.5-0.6-0.9-1-1.2
		C185.2,218.8,184.6,218.7,184.1,218.7z"/>
	<path class="st2" d="M198.2,215.4c1.2,0,2.4,0.2,3.4,0.7s1.8,1.2,2.4,2.2c0.6,0.9,0.9,2.1,0.9,3.4c0,0.9-0.2,1.8-0.5,2.6
		s-0.7,1.5-1.3,2.2c-0.6,0.6-1.2,1.1-2,1.5c-0.8,0.3-1.7,0.5-2.6,0.5c-0.6,0-1.2,0-1.8-0.1c-0.6,0-1.3-0.1-1.9-0.2
		c-0.6-0.1-1.2-0.2-1.7-0.3v-12.1c0.8-0.1,1.6-0.3,2.5-0.4C196.5,215.4,197.3,215.4,198.2,215.4z M198.3,218.7c-0.3,0-0.6,0-0.9,0.1
		s-0.6,0.1-0.8,0.2v6.1c0.3,0.1,0.6,0.1,0.9,0.2s0.6,0,0.8,0c0.6,0,1.2-0.1,1.6-0.4c0.4-0.3,0.8-0.7,1-1.2s0.4-1.1,0.4-1.7
		c0-1-0.3-1.8-0.8-2.4C200,219,199.2,218.7,198.3,218.7z"/>
	<path class="st2" d="M219.2,215.7l-5.8,12.7h-1.8l-5.8-12.7h4.1l2.6,6.9l2.6-6.9H219.2z"/>
	<path class="st2" d="M228.6,225.1v3.1h-7.7v-3.1h2.1v-6.4h-2.1v-3.1h7.7v3.1h-2.1v6.4H228.6z"/>
	<path class="st2" d="M237.5,215.4c0.7,0,1.3,0.1,1.8,0.3s1.1,0.5,1.5,0.8v3.4c-0.5-0.4-1-0.7-1.4-0.9c-0.5-0.2-1-0.3-1.8-0.3
		c-0.6,0-1.1,0.1-1.6,0.4c-0.5,0.3-0.9,0.7-1.2,1.2s-0.5,1.1-0.5,1.7s0.2,1.2,0.5,1.7s0.7,0.9,1.2,1.2s1,0.4,1.6,0.4
		c0.7,0,1.3-0.1,1.8-0.3c0.4-0.2,0.9-0.5,1.4-0.9v3.4c-0.4,0.4-0.9,0.6-1.5,0.8s-1.2,0.3-1.8,0.3c-0.8,0-1.7-0.1-2.5-0.4
		c-0.8-0.3-1.5-0.7-2.1-1.3s-1.1-1.2-1.5-2.1c-0.4-0.8-0.6-1.7-0.6-2.8c0-1,0.2-2,0.6-2.8c0.4-0.8,0.9-1.5,1.5-2.1s1.3-1,2.1-1.3
		C235.8,215.5,236.7,215.4,237.5,215.4z"/>
	<path class="st2" d="M252.9,215.7v3.1h-3.7v9.4h-3.5v-9.4H242v-3.1H252.9z"/>
	<path class="st2" d="M262.6,225.1v3.1h-7.7v-3.1h2.1v-6.4h-2.1v-3.1h7.7v3.1h-2.1v6.4H262.6z"/>
	<path class="st2" d="M271.4,215.4c0.8,0,1.7,0.1,2.4,0.4c0.8,0.3,1.5,0.7,2.1,1.3s1.1,1.2,1.5,2.1c0.4,0.8,0.5,1.7,0.5,2.8
		c0,1-0.2,2-0.5,2.8c-0.4,0.8-0.8,1.5-1.5,2.1c-0.6,0.6-1.3,1-2.1,1.3c-0.8,0.3-1.6,0.4-2.4,0.4s-1.7-0.1-2.4-0.4
		c-0.8-0.3-1.5-0.7-2.1-1.3s-1.1-1.2-1.5-2.1c-0.4-0.8-0.5-1.7-0.5-2.8c0-1,0.2-2,0.5-2.8c0.4-0.8,0.8-1.5,1.5-2.1
		c0.6-0.6,1.3-1,2.1-1.3C269.7,215.5,270.6,215.4,271.4,215.4z M271.4,218.7c-0.6,0-1.1,0.1-1.5,0.4c-0.4,0.3-0.8,0.7-1,1.2
		c-0.3,0.5-0.4,1.1-0.4,1.7s0.1,1.2,0.4,1.7s0.6,0.9,1,1.2s0.9,0.4,1.5,0.4s1.1-0.1,1.5-0.4s0.8-0.7,1-1.2s0.4-1.1,0.4-1.7
		s-0.1-1.2-0.4-1.7c-0.2-0.5-0.6-0.9-1-1.2C272.5,218.8,272,218.7,271.4,218.7z"/>
	<path class="st2" d="M291.8,215.7v12.7h-1.2l-6.7-6.4v6.2h-3.5v-12.7h1.2l6.7,6.5v-6.3H291.8z"/>
</g>
<rect x="159.7" y="92.7" class="st2" width="124.5" height="29.3"/>
<g>
	<path class="st2" d="M190.8,39.3c0.4,0,0.7,0.1,1.1,0.2s0.7,0.3,1,0.6s0.5,0.5,0.7,0.9s0.3,0.7,0.3,1.2s-0.1,1-0.4,1.4
		s-0.6,0.7-1.1,1s-0.9,0.4-1.5,0.4c-0.4,0-0.7,0-0.9-0.1s-0.5-0.2-0.7-0.2v2.7h-1.6v-7.9h3.1L190.8,39.3L190.8,39.3z M189.2,40.8
		v2.3c0.2,0.1,0.4,0.1,0.6,0.2s0.5,0.1,0.8,0.1c0.5,0,0.8-0.1,1.1-0.4s0.4-0.6,0.4-0.9c0-0.4-0.2-0.7-0.5-0.9s-0.7-0.3-1.1-0.3
		L189.2,40.8L189.2,40.8z"/>
	<path class="st2" d="M198.9,42.9c-0.2-0.1-0.5-0.2-0.8-0.2s-0.6,0.1-0.9,0.3s-0.4,0.5-0.6,0.8v3.3h-1.5v-5.9h1.5v1.1
		c0.2-0.4,0.4-0.6,0.7-0.9s0.6-0.4,0.9-0.4c0.2,0,0.4,0,0.6,0.1v1.8L198.9,42.9L198.9,42.9z"/>
	<path class="st2" d="M202.8,41.1c0.6,0,1.1,0.1,1.6,0.4s0.9,0.7,1.2,1.1s0.4,1,0.4,1.6s-0.1,1.1-0.4,1.6s-0.7,0.8-1.2,1.1
		s-1,0.4-1.6,0.4s-1.1-0.1-1.6-0.4s-0.9-0.7-1.2-1.1s-0.4-1-0.4-1.6s0.1-1.1,0.4-1.6s0.7-0.8,1.2-1.1S202.2,41.1,202.8,41.1z
		 M202.8,42.5c-0.3,0-0.5,0.1-0.8,0.2s-0.4,0.3-0.6,0.6s-0.2,0.6-0.2,0.9s0.1,0.7,0.2,0.9s0.3,0.4,0.6,0.6s0.5,0.2,0.8,0.2
		s0.5-0.1,0.8-0.2s0.4-0.3,0.6-0.6s0.2-0.6,0.2-0.9s-0.1-0.7-0.2-0.9s-0.3-0.4-0.6-0.6S203.1,42.5,202.8,42.5z"/>
	<path class="st2" d="M210.8,41.2v1.2h-1.5v4.7h-1.5v-4.7h-0.9v-1.2h0.9v-0.5c0-0.5,0.1-0.8,0.3-1.2s0.4-0.6,0.8-0.7s0.7-0.3,1-0.3
		c0.2,0,0.5,0,0.7,0.1s0.4,0.1,0.5,0.2V40c-0.3-0.2-0.6-0.2-0.9-0.2c-0.2,0-0.4,0.1-0.6,0.2s-0.2,0.4-0.2,0.7v0.4L210.8,41.2
		L210.8,41.2z"/>
	<path class="st2" d="M214.7,41.1c0.6,0,1.1,0.1,1.5,0.4s0.7,0.6,1,1s0.3,1,0.3,1.5v0.6h-4.3c0.1,0.4,0.3,0.7,0.6,1s0.7,0.4,1.1,0.4
		c0.4,0,0.8-0.1,1.2-0.3s0.6-0.3,0.8-0.5v1.4c-0.2,0.2-0.5,0.3-0.8,0.5s-0.8,0.3-1.2,0.3c-0.6,0-1.1-0.1-1.6-0.4s-0.9-0.6-1.1-1.1
		s-0.4-1-0.4-1.6s0.1-1.1,0.4-1.6s0.6-0.9,1.1-1.2S214.1,41.1,214.7,41.1z M214.6,42.4c-0.4,0-0.7,0.1-0.9,0.3s-0.4,0.5-0.5,0.9h2.8
		c0-0.4-0.2-0.7-0.5-0.9S215,42.4,214.6,42.4z"/>
	<path class="st2" d="M220.7,41.1c0.4,0,0.7,0.1,1,0.2s0.6,0.2,0.7,0.4V43c-0.2-0.1-0.4-0.2-0.7-0.4s-0.5-0.2-0.8-0.2
		s-0.5,0.1-0.7,0.2S220,42.9,220,43s0,0.2,0.1,0.3s0.3,0.2,0.5,0.3l0.7,0.2c0.9,0.3,1.3,0.8,1.3,1.6c0,0.4-0.1,0.7-0.3,1
		s-0.5,0.5-0.8,0.7s-0.7,0.2-1.2,0.2c-0.4,0-0.8-0.1-1.2-0.2s-0.7-0.3-0.9-0.4v-1.3c0.1,0.1,0.3,0.2,0.5,0.3s0.4,0.2,0.7,0.2
		s0.4,0.1,0.6,0.1c0.3,0,0.5-0.1,0.7-0.2s0.2-0.3,0.2-0.5c0-0.1-0.1-0.3-0.2-0.4s-0.3-0.2-0.6-0.3l-0.7-0.3
		c-0.5-0.1-0.8-0.4-0.9-0.6s-0.3-0.6-0.3-1s0.1-0.7,0.3-1s0.5-0.5,0.8-0.7S220.3,41.1,220.7,41.1z"/>
	<path class="st2" d="M225.9,41.1c0.4,0,0.7,0.1,1,0.2s0.6,0.2,0.7,0.4V43c-0.2-0.1-0.4-0.2-0.7-0.4s-0.5-0.2-0.8-0.2
		s-0.5,0.1-0.7,0.2s-0.2,0.3-0.2,0.4c0,0.1,0,0.2,0.1,0.3s0.3,0.2,0.5,0.3l0.7,0.2c0.9,0.3,1.3,0.8,1.3,1.6c0,0.4-0.1,0.7-0.3,1
		s-0.5,0.5-0.8,0.7s-0.7,0.2-1.2,0.2c-0.4,0-0.8-0.1-1.2-0.2s-0.7-0.3-0.9-0.4v-1.3c0.1,0.1,0.3,0.2,0.5,0.3s0.4,0.2,0.7,0.2
		s0.4,0.1,0.6,0.1c0.3,0,0.5-0.1,0.7-0.2s0.2-0.3,0.2-0.5c0-0.1-0.1-0.3-0.2-0.4s-0.3-0.2-0.6-0.3l-0.7-0.3
		c-0.5-0.1-0.8-0.4-0.9-0.6s-0.3-0.6-0.3-1s0.1-0.7,0.3-1s0.5-0.5,0.8-0.7S225.4,41.1,225.9,41.1z"/>
	<path class="st2" d="M231.3,41.2v5.9h-1.5v-4.7h-0.9v-1.3L231.3,41.2L231.3,41.2z M230.4,38.2c0.3,0,0.5,0.1,0.7,0.3
		s0.3,0.4,0.3,0.7s-0.1,0.5-0.3,0.7s-0.4,0.3-0.7,0.3s-0.5-0.1-0.7-0.3s-0.3-0.4-0.3-0.7s0.1-0.5,0.3-0.7S230.1,38.2,230.4,38.2z"/>
	<path class="st2" d="M235.9,41.1c0.6,0,1.1,0.1,1.6,0.4s0.9,0.7,1.2,1.1s0.4,1,0.4,1.6s-0.1,1.1-0.4,1.6s-0.7,0.8-1.2,1.1
		s-1,0.4-1.6,0.4s-1.1-0.1-1.6-0.4s-0.9-0.7-1.2-1.1s-0.4-1-0.4-1.6s0.1-1.1,0.4-1.6s0.7-0.8,1.2-1.1S235.3,41.1,235.9,41.1z
		 M235.9,42.5c-0.3,0-0.5,0.1-0.8,0.2s-0.4,0.3-0.6,0.6s-0.2,0.6-0.2,0.9s0.1,0.7,0.2,0.9s0.3,0.4,0.6,0.6s0.5,0.2,0.8,0.2
		s0.5-0.1,0.8-0.2s0.4-0.3,0.6-0.6s0.2-0.6,0.2-0.9s-0.1-0.7-0.2-0.9s-0.3-0.4-0.6-0.6S236.2,42.5,235.9,42.5z"/>
	<path class="st2" d="M242,41.2V42c0.2-0.2,0.4-0.5,0.7-0.7s0.7-0.3,1.1-0.3c0.6,0,1.1,0.2,1.5,0.6s0.6,1,0.6,1.8V47h-1.5v-3.4
		c0-0.4-0.1-0.7-0.3-0.9s-0.5-0.3-0.8-0.3s-0.5,0.1-0.7,0.3s-0.4,0.4-0.6,0.6v3.8h-1.5v-5.9L242,41.2L242,41.2z"/>
	<path class="st2" d="M249.9,41.1c0.3,0,0.6,0.1,1,0.2s0.6,0.3,0.8,0.6v-0.7h1.5v5.9h-1.5v-1c-0.2,0.3-0.4,0.6-0.8,0.8
		s-0.7,0.3-1.1,0.3c-0.5,0-0.9-0.1-1.3-0.4s-0.7-0.6-1-1.1s-0.4-1-0.4-1.7s0.1-1.2,0.4-1.7s0.6-0.8,1-1.1S249.4,41.1,249.9,41.1z
		 M250.2,42.5c-0.3,0-0.6,0.1-0.8,0.2s-0.4,0.4-0.5,0.6s-0.2,0.5-0.2,0.8c0,0.4,0.1,0.8,0.4,1.1s0.6,0.5,1.1,0.5
		c0.3,0,0.5-0.1,0.7-0.2s0.4-0.3,0.6-0.6s0.2-0.6,0.2-0.9v-0.8c-0.2-0.2-0.4-0.4-0.7-0.5S250.5,42.5,250.2,42.5z"/>
	<path class="st2" d="M256.5,38.7v8.4H255v-8.4C255,38.7,256.5,38.7,256.5,38.7z"/>
</g>
<g>
	<path class="st2" d="M361.2,308.2v1.5h-3.1v2.9h-1.6v-7.9h5.4v1.5h-3.7v2H361.2z"/>
	<path class="st2" d="M367.4,308.4c-0.2-0.1-0.5-0.2-0.8-0.2s-0.6,0.1-0.9,0.3s-0.4,0.5-0.6,0.8v3.3h-1.5v-5.9h1.5v1.1
		c0.2-0.4,0.4-0.6,0.7-0.9s0.6-0.4,0.9-0.4c0.2,0,0.4,0,0.6,0.1L367.4,308.4L367.4,308.4z"/>
	<path class="st2" d="M370.7,306.7v5.9h-1.5V308h-0.9v-1.3H370.7z M369.8,303.6c0.3,0,0.5,0.1,0.7,0.3s0.3,0.4,0.3,0.7
		c0,0.3-0.1,0.5-0.3,0.7s-0.4,0.3-0.7,0.3s-0.5-0.1-0.7-0.3s-0.3-0.4-0.3-0.7c0-0.3,0.1-0.5,0.3-0.7S369.5,303.6,369.8,303.6z"/>
	<path class="st2" d="M375.1,306.6c0.6,0,1.1,0.1,1.5,0.4s0.7,0.6,1,1s0.3,1,0.3,1.5v0.6h-4.3c0.1,0.4,0.3,0.7,0.6,1
		s0.7,0.4,1.1,0.4s0.8-0.1,1.2-0.3s0.6-0.3,0.8-0.5v1.4c-0.2,0.2-0.5,0.3-0.8,0.5s-0.8,0.3-1.2,0.3c-0.6,0-1.1-0.1-1.6-0.4
		s-0.9-0.6-1.1-1.1s-0.4-1-0.4-1.6s0.1-1.1,0.4-1.6s0.6-0.9,1.1-1.2S374.6,306.6,375.1,306.6z M375.1,307.9c-0.4,0-0.7,0.1-0.9,0.3
		s-0.4,0.5-0.5,0.9h2.8c0-0.4-0.2-0.7-0.5-0.9S375.4,307.9,375.1,307.9z"/>
	<path class="st2" d="M380.8,306.7v0.8c0.2-0.2,0.4-0.5,0.7-0.7s0.7-0.3,1.1-0.3c0.6,0,1.1,0.2,1.5,0.6s0.6,1,0.6,1.8v3.6h-1.5v-3.4
		c0-0.4-0.1-0.7-0.3-0.9s-0.5-0.3-0.8-0.3s-0.5,0.1-0.7,0.3s-0.4,0.4-0.6,0.6v3.8h-1.5v-5.9H380.8z"/>
	<path class="st2" d="M392,304.2v8.4h-1.5v-1c-0.2,0.3-0.4,0.6-0.8,0.8s-0.7,0.3-1.1,0.3c-0.5,0-0.9-0.1-1.3-0.4s-0.7-0.6-1-1.1
		s-0.4-1-0.4-1.7s0.1-1.2,0.4-1.7s0.6-0.8,1-1.1s0.9-0.4,1.4-0.4c0.3,0,0.6,0.1,1,0.2s0.6,0.3,0.8,0.6v-3.2h1.5V304.2z M389,308
		c-0.3,0-0.6,0.1-0.8,0.2s-0.4,0.4-0.5,0.6s-0.2,0.5-0.2,0.8c0,0.4,0.1,0.8,0.4,1.1s0.6,0.5,1.1,0.5c0.3,0,0.5-0.1,0.7-0.2
		s0.4-0.3,0.6-0.6s0.2-0.6,0.2-0.9v-0.8c-0.2-0.2-0.4-0.4-0.7-0.5S389.3,308,389,308z"/>
	<path class="st2" d="M395.3,304.2v8.4h-1.5v-8.4H395.3z"/>
	<path class="st2" d="M398.1,306.7l1.7,3.8l1.6-3.8h1.7l-4.3,8.7h-1.7l1.8-3.2l-2.6-5.5H398.1z"/>
</g>
<g>
	<path class="st2" d="M43,300v1.3h-3.5v1.9h3.9v1.4h-5.6v-7.9h5.6v1.4h-3.9v1.8H43V300z"/>
	<path class="st2" d="M46.8,298.7v0.8c0.2-0.2,0.4-0.5,0.7-0.7s0.7-0.3,1.1-0.3c0.6,0,1.1,0.2,1.5,0.6s0.6,1,0.6,1.8v3.6h-1.5v-3.4
		c0-0.4-0.1-0.7-0.3-0.9s-0.5-0.3-0.8-0.3s-0.5,0.1-0.7,0.3s-0.4,0.4-0.6,0.6v3.8h-1.5v-5.9H46.8z"/>
	<path class="st2" d="M54.8,298.6c0.3,0,0.6,0.1,1,0.2s0.6,0.3,0.8,0.6v-0.7h1.5v5.8c0,0.7-0.1,1.2-0.4,1.7s-0.7,0.8-1.2,1.1
		s-1,0.4-1.6,0.4c-0.5,0-1-0.1-1.3-0.2s-0.6-0.3-0.9-0.5v-1.4c0.2,0.1,0.4,0.2,0.6,0.4s0.4,0.2,0.7,0.3s0.5,0.1,0.9,0.1
		s0.7-0.1,0.9-0.2s0.5-0.3,0.7-0.6s0.2-0.5,0.2-0.8v-1c-0.2,0.3-0.4,0.6-0.8,0.8s-0.7,0.3-1.1,0.3c-0.5,0-0.9-0.1-1.3-0.4
		s-0.7-0.6-1-1.1s-0.4-1-0.4-1.7s0.1-1.2,0.4-1.7s0.6-0.8,1-1.1S54.3,298.6,54.8,298.6z M55.1,300c-0.3,0-0.6,0.1-0.8,0.2
		s-0.4,0.4-0.5,0.6s-0.2,0.5-0.2,0.8c0,0.4,0.1,0.8,0.4,1.1s0.6,0.5,1.1,0.5c0.3,0,0.5-0.1,0.7-0.2s0.4-0.3,0.6-0.6s0.2-0.6,0.2-0.9
		v-0.8c-0.2-0.2-0.4-0.4-0.7-0.5S55.4,300,55.1,300z"/>
	<path class="st2" d="M62.3,298.6c0.3,0,0.6,0.1,1,0.2s0.6,0.3,0.8,0.6v-0.7h1.5v5.9H64v-1c-0.2,0.3-0.4,0.6-0.8,0.8
		s-0.7,0.3-1.1,0.3c-0.5,0-0.9-0.1-1.3-0.4s-0.7-0.6-1-1.1s-0.4-1-0.4-1.7s0.1-1.2,0.4-1.7s0.6-0.8,1-1.1S61.7,298.6,62.3,298.6z
		 M62.6,300c-0.3,0-0.6,0.1-0.8,0.2s-0.4,0.4-0.5,0.6s-0.2,0.5-0.2,0.8c0,0.4,0.1,0.8,0.4,1.1s0.6,0.5,1.1,0.5
		c0.3,0,0.5-0.1,0.7-0.2s0.4-0.3,0.6-0.6c0.2-0.3,0.2-0.6,0.2-0.9v-0.8c-0.2-0.2-0.4-0.4-0.7-0.5S62.9,300,62.6,300z"/>
	<path class="st2" d="M69.7,298.6c0.3,0,0.6,0.1,1,0.2s0.6,0.3,0.8,0.6v-0.7H73v5.8c0,0.7-0.1,1.2-0.4,1.7s-0.7,0.8-1.2,1.1
		s-1,0.4-1.6,0.4c-0.5,0-1-0.1-1.3-0.2s-0.6-0.3-0.9-0.5v-1.4c0.2,0.1,0.4,0.2,0.6,0.4s0.4,0.2,0.7,0.3s0.5,0.1,0.9,0.1
		s0.7-0.1,0.9-0.2s0.5-0.3,0.7-0.6s0.2-0.5,0.2-0.8v-1c-0.2,0.3-0.4,0.6-0.8,0.8s-0.7,0.3-1.1,0.3c-0.5,0-0.9-0.1-1.3-0.4
		s-0.7-0.6-1-1.1s-0.4-1-0.4-1.7s0.1-1.2,0.4-1.7s0.6-0.8,1-1.1S69.2,298.6,69.7,298.6z M70,300c-0.3,0-0.6,0.1-0.8,0.2
		s-0.4,0.4-0.5,0.6s-0.2,0.5-0.2,0.8c0,0.4,0.1,0.8,0.4,1.1s0.6,0.5,1.1,0.5c0.3,0,0.5-0.1,0.7-0.2s0.4-0.3,0.6-0.6s0.2-0.6,0.2-0.9
		v-0.8c-0.2-0.2-0.4-0.4-0.7-0.5S70.3,300,70,300z"/>
	<path class="st2" d="M76.9,298.7v5.9h-1.5V300h-0.9v-1.3H76.9z M76.1,295.6c0.3,0,0.5,0.1,0.7,0.3s0.3,0.4,0.3,0.7
		c0,0.3-0.1,0.5-0.3,0.7s-0.4,0.3-0.7,0.3s-0.5-0.1-0.7-0.3s-0.3-0.4-0.3-0.7c0-0.3,0.1-0.5,0.3-0.7S75.8,295.6,76.1,295.6z"/>
	<path class="st2" d="M80.3,298.7v0.8c0.2-0.2,0.4-0.5,0.7-0.7s0.7-0.3,1.1-0.3c0.6,0,1.1,0.2,1.5,0.6s0.6,1,0.6,1.8v3.6h-1.5v-3.4
		c0-0.4-0.1-0.7-0.3-0.9S82,300,81.6,300c-0.3,0-0.5,0.1-0.7,0.3s-0.4,0.4-0.6,0.6v3.8h-1.5v-5.9L80.3,298.7L80.3,298.7z"/>
	<path class="st2" d="M88.3,298.6c0.3,0,0.6,0.1,1,0.2s0.6,0.3,0.8,0.6v-0.7h1.5v5.8c0,0.7-0.1,1.2-0.4,1.7s-0.7,0.8-1.2,1.1
		s-1,0.4-1.6,0.4c-0.5,0-1-0.1-1.3-0.2s-0.6-0.3-0.9-0.5v-1.4c0.2,0.1,0.4,0.2,0.6,0.4s0.4,0.2,0.7,0.3s0.5,0.1,0.9,0.1
		s0.7-0.1,0.9-0.2s0.5-0.3,0.7-0.6s0.2-0.5,0.2-0.8v-1c-0.2,0.3-0.4,0.6-0.8,0.8s-0.7,0.3-1.1,0.3c-0.5,0-0.9-0.1-1.3-0.4
		s-0.7-0.6-1-1.1s-0.4-1-0.4-1.7s0.1-1.2,0.4-1.7s0.6-0.8,1-1.1S87.8,298.6,88.3,298.6z M88.6,300c-0.3,0-0.6,0.1-0.8,0.2
		s-0.4,0.4-0.5,0.6s-0.2,0.5-0.2,0.8c0,0.4,0.1,0.8,0.4,1.1s0.6,0.5,1.1,0.5c0.3,0,0.5-0.1,0.7-0.2s0.4-0.3,0.6-0.6s0.2-0.6,0.2-0.9
		v-0.8c-0.2-0.2-0.4-0.4-0.7-0.5S88.9,300,88.6,300z"/>
	<path class="st2" d="M34.3,314.4v1.3h-3.5v1.9h3.9v1.4h-5.6v-7.9h5.6v1.4h-3.9v1.8h3.5C34.3,314.3,34.3,314.4,34.3,314.4z"/>
	<path class="st2" d="M38.1,313.1v0.8c0.2-0.2,0.4-0.5,0.7-0.7s0.7-0.3,1.1-0.3c0.6,0,1.1,0.2,1.5,0.6s0.6,1,0.6,1.8v3.6h-1.5v-3.4
		c0-0.4-0.1-0.7-0.3-0.9s-0.5-0.3-0.8-0.3s-0.5,0.1-0.7,0.3s-0.4,0.4-0.6,0.6v3.8h-1.5v-5.9H38.1z"/>
	<path class="st2" d="M46.4,313c0.4,0,0.8,0.1,1.1,0.2s0.5,0.3,0.7,0.4v1.4c-0.2-0.1-0.4-0.3-0.7-0.4s-0.6-0.2-0.9-0.2
		c-0.3,0-0.6,0.1-0.8,0.2s-0.5,0.3-0.6,0.6s-0.2,0.5-0.2,0.9c0,0.5,0.2,0.9,0.5,1.2s0.7,0.5,1.2,0.5c0.4,0,0.7,0,0.9-0.1
		s0.5-0.2,0.7-0.4v1.4c-0.2,0.1-0.4,0.3-0.7,0.4s-0.6,0.2-1.1,0.2c-0.6,0-1.1-0.1-1.6-0.4s-0.8-0.7-1.1-1.1s-0.4-1-0.4-1.5
		c0-0.4,0.1-0.8,0.2-1.2s0.4-0.7,0.7-1s0.6-0.5,1-0.7S46,313,46.4,313z"/>
	<path class="st2" d="M52.3,313c0.6,0,1.1,0.1,1.6,0.4s0.9,0.7,1.2,1.1s0.4,1,0.4,1.6s-0.1,1.1-0.4,1.6s-0.7,0.8-1.2,1.1
		s-1,0.4-1.6,0.4s-1.1-0.1-1.6-0.4s-0.9-0.7-1.2-1.1s-0.4-1-0.4-1.6s0.1-1.1,0.4-1.6s0.7-0.8,1.2-1.1S51.7,313,52.3,313z
		 M52.3,314.4c-0.3,0-0.5,0.1-0.8,0.2s-0.4,0.3-0.6,0.6s-0.2,0.6-0.2,0.9s0.1,0.7,0.2,0.9s0.3,0.4,0.6,0.6s0.5,0.2,0.8,0.2
		s0.5-0.1,0.8-0.2s0.4-0.3,0.6-0.6s0.2-0.6,0.2-0.9s-0.1-0.7-0.2-0.9s-0.3-0.4-0.6-0.6S52.5,314.4,52.3,314.4z"/>
	<path class="st2" d="M62.1,313.1v3.5c0,0.5-0.1,1-0.4,1.4s-0.6,0.7-1,0.9s-0.9,0.3-1.4,0.3s-1-0.1-1.4-0.3s-0.7-0.5-0.9-0.9
		s-0.3-0.8-0.3-1.4v-3.5h1.5v3.3c0,0.5,0.1,0.8,0.3,1s0.5,0.3,0.8,0.3s0.6-0.1,0.8-0.3s0.3-0.6,0.3-1v-3.3H62.1z"/>
	<path class="st2" d="M67.5,314.8c-0.2-0.1-0.5-0.2-0.8-0.2s-0.6,0.1-0.9,0.3s-0.4,0.5-0.6,0.8v3.3h-1.5v-5.9h1.5v1.1
		c0.2-0.4,0.4-0.6,0.7-0.9s0.6-0.4,0.9-0.4c0.2,0,0.4,0,0.6,0.1v1.8L67.5,314.8L67.5,314.8z"/>
	<path class="st2" d="M71,313c0.3,0,0.6,0.1,1,0.2s0.6,0.3,0.8,0.6v-0.7h1.5v5.9h-1.5v-1c-0.2,0.3-0.4,0.6-0.8,0.8s-0.7,0.3-1.1,0.3
		c-0.5,0-0.9-0.1-1.3-0.4s-0.7-0.6-1-1.1s-0.4-1-0.4-1.7s0.1-1.2,0.4-1.7s0.6-0.8,1-1.1S70.5,313,71,313z M71.3,314.4
		c-0.3,0-0.6,0.1-0.8,0.2s-0.4,0.4-0.5,0.6s-0.2,0.5-0.2,0.8c0,0.4,0.1,0.8,0.4,1.1s0.6,0.5,1.1,0.5c0.3,0,0.5-0.1,0.7-0.2
		s0.4-0.3,0.6-0.6s0.2-0.6,0.2-0.9v-0.8c-0.2-0.2-0.4-0.4-0.7-0.5S71.6,314.4,71.3,314.4z"/>
	<path class="st2" d="M78.4,313c0.3,0,0.6,0.1,1,0.2s0.6,0.3,0.8,0.6v-0.7h1.5v5.8c0,0.7-0.1,1.2-0.4,1.7s-0.7,0.8-1.2,1.1
		s-1,0.4-1.6,0.4c-0.5,0-1-0.1-1.3-0.2s-0.6-0.3-0.9-0.5V320c0.2,0.1,0.4,0.2,0.6,0.4s0.4,0.2,0.7,0.3s0.5,0.1,0.9,0.1
		s0.7-0.1,0.9-0.2s0.5-0.3,0.7-0.6s0.2-0.5,0.2-0.8v-1c-0.2,0.3-0.4,0.6-0.8,0.8s-0.7,0.3-1.1,0.3c-0.5,0-0.9-0.1-1.3-0.4
		s-0.7-0.6-1-1.1s-0.4-1-0.4-1.7s0.1-1.2,0.4-1.7s0.6-0.8,1-1.1S77.9,313,78.4,313z M78.7,314.4c-0.3,0-0.6,0.1-0.8,0.2
		s-0.4,0.4-0.5,0.6s-0.2,0.5-0.2,0.8c0,0.4,0.1,0.8,0.4,1.1s0.6,0.5,1.1,0.5c0.3,0,0.5-0.1,0.7-0.2s0.4-0.3,0.6-0.6s0.2-0.6,0.2-0.9
		v-0.8c-0.2-0.2-0.4-0.4-0.7-0.5S79,314.4,78.7,314.4z"/>
	<path class="st2" d="M85.7,313.1v5.9h-1.5v-4.7h-0.9V313h2.4V313.1z M84.8,310c0.3,0,0.5,0.1,0.7,0.3s0.3,0.4,0.3,0.7
		c0,0.3-0.1,0.5-0.3,0.7s-0.4,0.3-0.7,0.3s-0.5-0.1-0.7-0.3s-0.3-0.4-0.3-0.7c0-0.3,0.1-0.5,0.3-0.7S84.5,310,84.8,310z"/>
	<path class="st2" d="M89,313.1v0.8c0.2-0.2,0.4-0.5,0.7-0.7s0.7-0.3,1.1-0.3c0.6,0,1.1,0.2,1.5,0.6s0.6,1,0.6,1.8v3.6h-1.5v-3.4
		c0-0.4-0.1-0.7-0.3-0.9s-0.5-0.3-0.8-0.3s-0.5,0.1-0.7,0.3s-0.4,0.4-0.6,0.6v3.8h-1.5v-5.9H89z"/>
	<path class="st2" d="M97,313c0.3,0,0.6,0.1,1,0.2s0.6,0.3,0.8,0.6v-0.7h1.5v5.8c0,0.7-0.1,1.2-0.4,1.7s-0.7,0.8-1.2,1.1
		s-1,0.4-1.6,0.4c-0.5,0-1-0.1-1.3-0.2s-0.6-0.3-0.9-0.5V320c0.2,0.1,0.4,0.2,0.6,0.4s0.4,0.2,0.7,0.3s0.5,0.1,0.9,0.1
		s0.7-0.1,0.9-0.2s0.5-0.3,0.7-0.6s0.2-0.5,0.2-0.8v-1c-0.2,0.3-0.4,0.6-0.8,0.8s-0.7,0.3-1.1,0.3c-0.5,0-0.9-0.1-1.3-0.4
		s-0.7-0.6-1-1.1s-0.4-1-0.4-1.7s0.1-1.2,0.4-1.7s0.6-0.8,1-1.1S96.5,313,97,313z M97.3,314.4c-0.3,0-0.6,0.1-0.8,0.2
		s-0.4,0.4-0.5,0.6s-0.2,0.5-0.2,0.8c0,0.4,0.1,0.8,0.4,1.1s0.6,0.5,1.1,0.5c0.3,0,0.5-0.1,0.7-0.2s0.4-0.3,0.6-0.6s0.2-0.6,0.2-0.9
		v-0.8c-0.2-0.2-0.4-0.4-0.7-0.5S97.6,314.4,97.3,314.4z"/>
</g>
<g>
	<path d="M177.9,99.4l-2.1,5.9h-0.4l-1.6-4.5l-1.6,4.5h-0.4l-2-5.9h0.9l1.4,4.4l1.6-4.4h0.5l1.5,4.4l1.4-4.4H177.9z"/>
	<path d="M180.5,100.8c0.5,0,0.8,0.1,1.1,0.3s0.5,0.4,0.7,0.8s0.2,0.7,0.2,1.1v0.4h-3.4c0,0.2,0.1,0.5,0.3,0.7s0.3,0.4,0.5,0.5
		s0.5,0.2,0.7,0.2c0.3,0,0.6-0.1,0.9-0.2s0.5-0.3,0.7-0.5v0.8c-0.1,0.1-0.2,0.2-0.4,0.3s-0.3,0.2-0.6,0.3s-0.4,0.1-0.7,0.1
		c-0.4,0-0.8-0.1-1.2-0.3s-0.6-0.5-0.8-0.8s-0.3-0.7-0.3-1.1s0.1-0.8,0.3-1.2s0.4-0.6,0.8-0.8S180.1,100.8,180.5,100.8z
		 M180.5,101.5c-0.4,0-0.7,0.1-0.9,0.4s-0.4,0.5-0.4,0.9h2.6c0-0.3-0.1-0.5-0.2-0.7s-0.3-0.3-0.5-0.4S180.7,101.5,180.5,101.5z"/>
	<path d="M188.6,100.8c0.4,0,0.7,0.1,1,0.3s0.6,0.4,0.7,0.8s0.3,0.7,0.3,1.2s-0.1,0.9-0.3,1.3s-0.4,0.6-0.8,0.8s-0.7,0.3-1.1,0.3
		c-0.3,0-0.5-0.1-0.8-0.2s-0.5-0.3-0.7-0.5v2.7h-0.7V101h0.7v0.7c0.2-0.2,0.4-0.4,0.6-0.6S188.3,100.8,188.6,100.8z M188.5,101.5
		c-0.3,0-0.5,0.1-0.7,0.2s-0.4,0.3-0.5,0.6s-0.2,0.5-0.2,0.8v0.8c0.2,0.2,0.4,0.4,0.6,0.6s0.4,0.2,0.7,0.2s0.6-0.1,0.8-0.2
		s0.4-0.4,0.5-0.6s0.2-0.5,0.2-0.8s-0.1-0.5-0.2-0.8s-0.3-0.4-0.5-0.5S188.8,101.5,188.5,101.5z"/>
	<path d="M192.6,100.9v0.9c0.2-0.3,0.4-0.5,0.6-0.7s0.5-0.3,0.7-0.3s0.3,0,0.5,0.1v0.8c-0.2-0.1-0.4-0.2-0.6-0.2
		c-0.3,0-0.5,0.1-0.7,0.3s-0.4,0.5-0.5,0.8v2.7h-0.7v-4.4C191.9,100.9,192.6,100.9,192.6,100.9z"/>
	<path d="M197.3,100.8c0.4,0,0.8,0.1,1.2,0.3s0.6,0.5,0.8,0.8s0.3,0.7,0.3,1.2s-0.1,0.8-0.3,1.1s-0.5,0.6-0.8,0.8s-0.7,0.3-1.2,0.3
		s-0.8-0.1-1.2-0.3s-0.6-0.5-0.8-0.8s-0.3-0.7-0.3-1.1s0.1-0.8,0.3-1.2s0.5-0.6,0.8-0.8S196.8,100.8,197.3,100.8z M197.3,101.5
		c-0.3,0-0.6,0.1-0.8,0.2s-0.4,0.3-0.5,0.6s-0.2,0.5-0.2,0.8s0.1,0.5,0.2,0.8s0.3,0.4,0.5,0.6s0.5,0.2,0.8,0.2s0.6-0.1,0.8-0.2
		s0.4-0.3,0.5-0.6s0.2-0.5,0.2-0.8s-0.1-0.6-0.2-0.8s-0.3-0.4-0.5-0.6S197.6,101.5,197.3,101.5z"/>
	<path d="M204.5,100.9l-2.1,4.4H202l-2-4.4h0.9l1.3,3.2l1.4-3.2H204.5z"/>
	<path d="M206.5,100.9v4.4h-0.7v-3.7h-0.7v-0.7C205.1,100.9,206.5,100.9,206.5,100.9z M206,98.8c0.2,0,0.3,0.1,0.4,0.2
		s0.2,0.3,0.2,0.4c0,0.2-0.1,0.3-0.2,0.4s-0.3,0.2-0.4,0.2s-0.3-0.1-0.4-0.2s-0.2-0.3-0.2-0.4c0-0.2,0.1-0.3,0.2-0.4
		S205.9,98.8,206,98.8z"/>
	<path d="M212,99v6.3h-0.7v-0.7c-0.2,0.2-0.4,0.4-0.6,0.6s-0.6,0.3-0.9,0.3c-0.4,0-0.7-0.1-1-0.3s-0.6-0.5-0.7-0.8s-0.3-0.7-0.3-1.2
		s0.1-0.9,0.3-1.3s0.4-0.6,0.8-0.8s0.7-0.3,1.1-0.3c0.3,0,0.5,0.1,0.8,0.2s0.5,0.3,0.7,0.5V99H212z M210,101.6
		c-0.3,0-0.6,0.1-0.8,0.2s-0.4,0.4-0.5,0.6s-0.2,0.5-0.2,0.8s0.1,0.5,0.2,0.8s0.3,0.4,0.5,0.6s0.5,0.2,0.7,0.2
		c0.3,0,0.5-0.1,0.7-0.2s0.4-0.3,0.5-0.6s0.2-0.5,0.2-0.8v-0.8c-0.2-0.2-0.4-0.4-0.6-0.5S210.3,101.6,210,101.6z"/>
	<path d="M215.3,100.8c0.5,0,0.8,0.1,1.1,0.3s0.5,0.4,0.7,0.8s0.2,0.7,0.2,1.1v0.4H214c0,0.2,0.1,0.5,0.3,0.7s0.3,0.4,0.5,0.5
		s0.5,0.2,0.7,0.2c0.3,0,0.6-0.1,0.9-0.2s0.5-0.3,0.7-0.5v0.8c-0.1,0.1-0.2,0.2-0.4,0.3s-0.3,0.2-0.6,0.3s-0.4,0.1-0.7,0.1
		c-0.4,0-0.8-0.1-1.2-0.3s-0.6-0.5-0.8-0.8s-0.3-0.7-0.3-1.1s0.1-0.8,0.3-1.2s0.4-0.6,0.8-0.8S214.9,100.8,215.3,100.8z
		 M215.3,101.5c-0.4,0-0.7,0.1-0.9,0.4s-0.4,0.5-0.4,0.9h2.6c0-0.3-0.1-0.5-0.2-0.7s-0.3-0.3-0.5-0.4S215.5,101.5,215.3,101.5z"/>
	<path d="M223.4,100.8c0.4,0,0.7,0.1,1,0.3s0.6,0.4,0.7,0.8s0.3,0.7,0.3,1.2s-0.1,0.9-0.3,1.3s-0.4,0.6-0.8,0.8s-0.7,0.3-1.1,0.3
		c-0.3,0-0.5-0.1-0.8-0.2s-0.5-0.3-0.7-0.5v2.7H221V101h0.7v0.7c0.2-0.2,0.4-0.4,0.6-0.6S223.1,100.8,223.4,100.8z M223.3,101.5
		c-0.3,0-0.5,0.1-0.7,0.2s-0.4,0.3-0.5,0.6s-0.2,0.5-0.2,0.8v0.8c0.2,0.2,0.4,0.4,0.6,0.6s0.4,0.2,0.7,0.2s0.6-0.1,0.8-0.2
		s0.4-0.4,0.5-0.6s0.2-0.5,0.2-0.8s-0.1-0.5-0.2-0.8s-0.3-0.4-0.5-0.5S223.6,101.5,223.3,101.5z"/>
	<path d="M227.4,100.9v0.9c0.2-0.3,0.4-0.5,0.6-0.7s0.5-0.3,0.7-0.3s0.3,0,0.5,0.1v0.8c-0.2-0.1-0.4-0.2-0.6-0.2
		c-0.3,0-0.5,0.1-0.7,0.3s-0.4,0.5-0.5,0.8v2.7h-0.7v-4.4C226.7,100.9,227.4,100.9,227.4,100.9z"/>
	<path d="M232.1,100.8c0.4,0,0.8,0.1,1.2,0.3s0.6,0.5,0.8,0.8s0.3,0.7,0.3,1.2s-0.1,0.8-0.3,1.1s-0.5,0.6-0.8,0.8s-0.7,0.3-1.2,0.3
		s-0.8-0.1-1.2-0.3s-0.6-0.5-0.8-0.8s-0.3-0.7-0.3-1.1s0.1-0.8,0.3-1.2s0.5-0.6,0.8-0.8S231.6,100.8,232.1,100.8z M232.1,101.5
		c-0.3,0-0.6,0.1-0.8,0.2s-0.4,0.3-0.5,0.6s-0.2,0.5-0.2,0.8s0.1,0.5,0.2,0.8s0.3,0.4,0.5,0.6s0.5,0.2,0.8,0.2s0.6-0.1,0.8-0.2
		s0.4-0.3,0.5-0.6s0.2-0.5,0.2-0.8s-0.1-0.6-0.2-0.8s-0.3-0.4-0.5-0.6S232.4,101.5,232.1,101.5z"/>
	<path d="M237.8,100.9v0.7h-1.3v3.7h-0.7v-3.7h-0.7v-0.7h0.7v-0.6c0-0.3,0.1-0.6,0.2-0.8s0.3-0.4,0.5-0.5s0.4-0.2,0.6-0.2
		c0.3,0,0.5,0.1,0.7,0.2v0.6c-0.1-0.1-0.2-0.1-0.3-0.1s-0.2,0-0.4,0s-0.4,0.1-0.5,0.2s-0.2,0.4-0.2,0.7v0.5
		C236.4,100.9,237.8,100.9,237.8,100.9z"/>
	<path d="M240.6,100.8c0.5,0,0.8,0.1,1.1,0.3s0.5,0.4,0.7,0.8s0.2,0.7,0.2,1.1v0.4h-3.4c0,0.2,0.1,0.5,0.3,0.7s0.3,0.4,0.5,0.5
		s0.5,0.2,0.7,0.2c0.3,0,0.6-0.1,0.9-0.2s0.5-0.3,0.7-0.5v0.8c-0.1,0.1-0.2,0.2-0.4,0.3s-0.3,0.2-0.6,0.3s-0.4,0.1-0.7,0.1
		c-0.4,0-0.8-0.1-1.2-0.3s-0.6-0.5-0.8-0.8s-0.3-0.7-0.3-1.1s0.1-0.8,0.3-1.2s0.4-0.6,0.8-0.8S240.2,100.8,240.6,100.8z
		 M240.6,101.5c-0.4,0-0.7,0.1-0.9,0.4s-0.4,0.5-0.4,0.9h2.6c0-0.3-0.1-0.5-0.2-0.7s-0.3-0.3-0.5-0.4S240.8,101.5,240.6,101.5z"/>
	<path d="M245.1,100.8c0.3,0,0.5,0,0.7,0.1s0.4,0.1,0.5,0.2v0.8c-0.1-0.1-0.3-0.2-0.5-0.3s-0.4-0.1-0.7-0.1s-0.5,0.1-0.6,0.2
		s-0.2,0.3-0.2,0.4s0,0.2,0.1,0.3s0.2,0.2,0.4,0.3l0.7,0.3c0.3,0.1,0.5,0.2,0.6,0.4s0.2,0.4,0.2,0.7c0,0.2-0.1,0.5-0.2,0.7
		s-0.3,0.4-0.6,0.5s-0.5,0.2-0.8,0.2c-0.2,0-0.3,0-0.5-0.1s-0.4-0.1-0.5-0.2s-0.3-0.1-0.3-0.2v-0.8c0.1,0.1,0.2,0.1,0.3,0.2
		s0.3,0.1,0.5,0.2s0.3,0.1,0.5,0.1c0.3,0,0.5-0.1,0.7-0.2s0.2-0.3,0.2-0.5c0-0.1-0.1-0.3-0.2-0.3s-0.3-0.2-0.5-0.2l-0.7-0.2
		c-0.3-0.1-0.6-0.3-0.7-0.5s-0.2-0.4-0.2-0.7c0-0.4,0.1-0.7,0.4-0.9S244.6,100.8,245.1,100.8z"/>
	<path d="M248.9,100.8c0.3,0,0.5,0,0.7,0.1s0.4,0.1,0.5,0.2v0.8c-0.1-0.1-0.3-0.2-0.5-0.3s-0.4-0.1-0.7-0.1s-0.5,0.1-0.6,0.2
		s-0.2,0.3-0.2,0.4s0,0.2,0.1,0.3s0.2,0.2,0.4,0.3l0.7,0.3c0.3,0.1,0.5,0.2,0.6,0.4s0.2,0.4,0.2,0.7c0,0.2-0.1,0.5-0.2,0.7
		s-0.3,0.4-0.6,0.5c-0.2,0.1-0.5,0.2-0.8,0.2c-0.2,0-0.3,0-0.5-0.1s-0.4-0.1-0.5-0.2s-0.3-0.1-0.3-0.2v-0.8c0.1,0.1,0.2,0.1,0.3,0.2
		s0.3,0.1,0.5,0.2s0.3,0.1,0.5,0.1c0.3,0,0.5-0.1,0.7-0.2s0.2-0.3,0.2-0.5c0-0.1-0.1-0.3-0.2-0.3c-0.1-0.1-0.3-0.2-0.5-0.2l-0.7-0.2
		c-0.3-0.1-0.6-0.3-0.7-0.5s-0.2-0.4-0.2-0.7c0-0.4,0.1-0.7,0.4-0.9S248.4,100.8,248.9,100.8z"/>
	<path d="M252.5,100.9v4.4h-0.7v-3.7h-0.7v-0.7C251.1,100.9,252.5,100.9,252.5,100.9z M252,98.8c0.2,0,0.3,0.1,0.4,0.2
		c0.1,0.1,0.2,0.3,0.2,0.4c0,0.2-0.1,0.3-0.2,0.4c-0.1,0.1-0.3,0.2-0.4,0.2s-0.3-0.1-0.4-0.2c-0.1-0.1-0.2-0.3-0.2-0.4
		c0-0.2,0.1-0.3,0.2-0.4S251.9,98.8,252,98.8z"/>
	<path d="M256,100.8c0.4,0,0.8,0.1,1.2,0.3s0.6,0.5,0.8,0.8s0.3,0.7,0.3,1.2s-0.1,0.8-0.3,1.1s-0.5,0.6-0.8,0.8s-0.7,0.3-1.2,0.3
		s-0.8-0.1-1.2-0.3s-0.6-0.5-0.8-0.8s-0.3-0.7-0.3-1.1s0.1-0.8,0.3-1.2c0.2-0.4,0.5-0.6,0.8-0.8S255.6,100.8,256,100.8z M256,101.5
		c-0.3,0-0.6,0.1-0.8,0.2s-0.4,0.3-0.5,0.6s-0.2,0.5-0.2,0.8s0.1,0.5,0.2,0.8s0.3,0.4,0.5,0.6s0.5,0.2,0.8,0.2
		c0.3,0,0.6-0.1,0.8-0.2s0.4-0.3,0.5-0.6c0.1-0.2,0.2-0.5,0.2-0.8s-0.1-0.6-0.2-0.8c-0.1-0.2-0.3-0.4-0.5-0.6S256.3,101.5,256,101.5
		z"/>
	<path d="M260.2,100.9v0.7c0.1-0.1,0.2-0.2,0.4-0.4s0.3-0.2,0.5-0.3c0.2-0.1,0.4-0.1,0.6-0.1c0.3,0,0.6,0.1,0.8,0.2s0.4,0.3,0.6,0.6
		s0.2,0.6,0.2,1v2.7h-0.7v-2.6c0-0.4-0.1-0.7-0.2-0.9c-0.2-0.2-0.4-0.3-0.8-0.3c-0.2,0-0.5,0.1-0.7,0.3s-0.4,0.4-0.6,0.6v2.9h-0.7
		v-4.4L260.2,100.9L260.2,100.9z"/>
	<path d="M266.5,100.8c0.3,0,0.5,0.1,0.8,0.2s0.5,0.3,0.7,0.5v-0.6h0.7v4.4H268v-0.7c-0.2,0.2-0.4,0.4-0.6,0.6s-0.6,0.3-0.9,0.3
		c-0.4,0-0.7-0.1-1-0.3s-0.6-0.5-0.7-0.8c-0.2-0.3-0.3-0.7-0.3-1.2s0.1-0.9,0.3-1.3c0.2-0.4,0.4-0.6,0.8-0.8
		S266.1,100.8,266.5,100.8z M266.6,101.5c-0.3,0-0.6,0.1-0.8,0.2s-0.4,0.4-0.5,0.6s-0.2,0.5-0.2,0.8s0.1,0.5,0.2,0.8
		s0.3,0.4,0.5,0.6c0.2,0.1,0.5,0.2,0.7,0.2c0.3,0,0.5-0.1,0.7-0.2s0.4-0.3,0.5-0.6s0.2-0.5,0.2-0.8v-0.8c-0.2-0.2-0.4-0.4-0.6-0.5
		C267.1,101.6,266.9,101.5,266.6,101.5z"/>
	<path d="M270.8,99v6.3h-0.7V99H270.8z"/>
	<path d="M164.8,111.6c0.3,0,0.6,0.1,0.8,0.2s0.4,0.3,0.6,0.6s0.2,0.6,0.2,1v2.7h-0.7v-2.6c0-0.4-0.1-0.7-0.3-0.9s-0.4-0.3-0.8-0.3
		c-0.2,0-0.5,0.1-0.7,0.3s-0.4,0.4-0.6,0.6v2.9h-0.7v-6.3h0.7v2.6c0.1-0.1,0.2-0.2,0.4-0.4s0.3-0.2,0.5-0.3S164.6,111.6,164.8,111.6
		z"/>
	<path d="M169.6,111.6c0.5,0,0.8,0.1,1.1,0.3s0.5,0.4,0.7,0.8s0.2,0.7,0.2,1.1v0.4h-3.4c0,0.2,0.1,0.5,0.3,0.7s0.3,0.4,0.5,0.5
		s0.5,0.2,0.7,0.2c0.3,0,0.6-0.1,0.9-0.2s0.5-0.3,0.7-0.5v0.8c-0.1,0.1-0.2,0.2-0.4,0.3s-0.3,0.2-0.6,0.3s-0.4,0.1-0.7,0.1
		c-0.4,0-0.8-0.1-1.2-0.3s-0.6-0.5-0.8-0.8s-0.3-0.7-0.3-1.1s0.1-0.8,0.3-1.2s0.4-0.6,0.8-0.8S169.2,111.6,169.6,111.6z
		 M169.6,112.3c-0.4,0-0.7,0.1-0.9,0.4s-0.4,0.5-0.4,0.9h2.6c0-0.3-0.1-0.5-0.2-0.7s-0.3-0.3-0.5-0.4S169.8,112.3,169.6,112.3z"/>
	<path d="M174.6,111.6c0.3,0,0.5,0.1,0.8,0.2s0.5,0.3,0.7,0.5v-0.6h0.7v4.4h-0.7v-0.7c-0.2,0.2-0.4,0.4-0.6,0.6s-0.6,0.3-0.9,0.3
		c-0.4,0-0.7-0.1-1-0.3s-0.6-0.5-0.7-0.8s-0.3-0.7-0.3-1.2s0.1-0.9,0.3-1.3s0.4-0.6,0.8-0.8S174.2,111.6,174.6,111.6z M174.7,112.3
		c-0.3,0-0.6,0.1-0.8,0.2s-0.4,0.4-0.5,0.6s-0.2,0.5-0.2,0.8s0.1,0.5,0.2,0.8s0.3,0.4,0.5,0.6s0.5,0.2,0.7,0.2
		c0.3,0,0.5-0.1,0.7-0.2s0.4-0.3,0.5-0.6s0.2-0.5,0.2-0.8v-0.8c-0.2-0.2-0.4-0.4-0.6-0.5S175,112.3,174.7,112.3z"/>
	<path d="M179,109.8v6.3h-0.7v-6.3H179z"/>
	<path d="M181.7,110.5v1.3h1.3v0.7h-1.3v2.6c0,0.2,0,0.3,0.1,0.4s0.2,0.2,0.4,0.2s0.3,0,0.4-0.1s0.2-0.1,0.3-0.1v0.6
		c-0.1,0.1-0.2,0.2-0.4,0.2s-0.3,0.1-0.5,0.1c-0.4,0-0.7-0.1-0.8-0.3s-0.3-0.5-0.3-0.9v-2.6h-0.8v-0.2c0.3-0.1,0.5-0.3,0.7-0.6
		s0.4-0.7,0.5-1.1h0.4L181.7,110.5L181.7,110.5z"/>
	<path d="M186.4,111.6c0.3,0,0.6,0.1,0.8,0.2s0.4,0.3,0.6,0.6s0.2,0.6,0.2,1v2.7h-0.7v-2.6c0-0.4-0.1-0.7-0.3-0.9s-0.4-0.3-0.8-0.3
		c-0.2,0-0.5,0.1-0.7,0.3s-0.4,0.4-0.6,0.6v2.9h-0.7v-6.3h0.7v2.6c0.1-0.1,0.2-0.2,0.4-0.4s0.3-0.2,0.5-0.3S186.2,111.6,186.4,111.6
		z"/>
	<path d="M194.1,111.6c0.3,0,0.6,0.1,0.8,0.2s0.4,0.2,0.5,0.3v0.7c-0.2-0.1-0.4-0.2-0.6-0.3s-0.5-0.1-0.8-0.1s-0.6,0.1-0.8,0.2
		s-0.4,0.3-0.5,0.6s-0.2,0.5-0.2,0.8s0.1,0.5,0.2,0.8s0.3,0.4,0.5,0.6s0.5,0.2,0.8,0.2s0.5,0,0.8-0.1s0.4-0.2,0.6-0.3v0.7
		c-0.1,0.1-0.2,0.2-0.5,0.3s-0.5,0.1-0.8,0.1c-0.4,0-0.8-0.1-1.2-0.3s-0.6-0.5-0.8-0.8s-0.3-0.7-0.3-1.1s0.1-0.8,0.3-1.2
		s0.5-0.6,0.8-0.8S193.6,111.6,194.1,111.6z"/>
	<path d="M198.5,111.6c0.4,0,0.8,0.1,1.2,0.3s0.6,0.5,0.8,0.8s0.3,0.7,0.3,1.2s-0.1,0.8-0.3,1.1s-0.5,0.6-0.8,0.8s-0.7,0.3-1.2,0.3
		s-0.8-0.1-1.2-0.3s-0.6-0.5-0.8-0.8s-0.3-0.7-0.3-1.1s0.1-0.8,0.3-1.2s0.5-0.6,0.8-0.8S198.1,111.6,198.5,111.6z M198.5,112.3
		c-0.3,0-0.6,0.1-0.8,0.2s-0.4,0.3-0.5,0.6s-0.2,0.5-0.2,0.8s0.1,0.5,0.2,0.8s0.3,0.4,0.5,0.6s0.5,0.2,0.8,0.2s0.6-0.1,0.8-0.2
		s0.4-0.3,0.5-0.6s0.2-0.5,0.2-0.8s-0.1-0.6-0.2-0.8s-0.3-0.4-0.5-0.6S198.9,112.3,198.5,112.3z"/>
	<path d="M202.8,111.7v0.7c0.1-0.1,0.2-0.2,0.4-0.4s0.3-0.2,0.5-0.3s0.4-0.1,0.6-0.1c0.3,0,0.6,0.1,0.8,0.2s0.4,0.3,0.6,0.6
		s0.2,0.6,0.2,1v2.7h-0.7v-2.6c0-0.4-0.1-0.7-0.3-0.9s-0.4-0.3-0.8-0.3c-0.2,0-0.5,0.1-0.7,0.3s-0.4,0.4-0.6,0.6v2.9H202v-4.4
		L202.8,111.7L202.8,111.7z"/>
	<path d="M208.5,111.6c0.3,0,0.5,0,0.7,0.1s0.4,0.1,0.5,0.2v0.8c-0.1-0.1-0.3-0.2-0.5-0.3s-0.4-0.1-0.7-0.1s-0.5,0.1-0.6,0.2
		s-0.2,0.3-0.2,0.4s0,0.2,0.1,0.3s0.2,0.2,0.4,0.3l0.7,0.3c0.3,0.1,0.5,0.2,0.6,0.4s0.2,0.4,0.2,0.7c0,0.2-0.1,0.5-0.2,0.7
		s-0.3,0.4-0.6,0.5s-0.5,0.2-0.8,0.2c-0.2,0-0.3,0-0.5-0.1s-0.4-0.1-0.5-0.2s-0.3-0.1-0.3-0.2V115c0.1,0.1,0.2,0.1,0.3,0.2
		s0.3,0.1,0.5,0.2s0.3,0.1,0.5,0.1c0.3,0,0.5-0.1,0.7-0.2s0.2-0.3,0.2-0.5c0-0.1-0.1-0.3-0.2-0.3s-0.3-0.2-0.5-0.2l-0.7-0.2
		c-0.3-0.1-0.6-0.3-0.7-0.5s-0.2-0.4-0.2-0.7c0-0.4,0.1-0.7,0.4-0.9S208,111.6,208.5,111.6z"/>
	<path d="M214.5,111.7v2.6c0,0.4-0.1,0.7-0.2,1s-0.4,0.5-0.7,0.7s-0.6,0.2-0.9,0.2s-0.7-0.1-0.9-0.2s-0.5-0.4-0.7-0.7
		s-0.2-0.6-0.2-1v-2.6h0.7v2.6c0,0.4,0.1,0.7,0.3,0.9s0.5,0.3,0.8,0.3s0.6-0.1,0.8-0.3s0.3-0.5,0.3-0.9v-2.6H214.5z"/>
	<path d="M216.6,109.8v6.3h-0.7v-6.3H216.6z"/>
	<path d="M219.3,110.5v1.3h1.3v0.7h-1.3v2.6c0,0.2,0,0.3,0.1,0.4s0.2,0.2,0.4,0.2s0.3,0,0.4-0.1s0.2-0.1,0.3-0.1v0.6
		c-0.1,0.1-0.2,0.2-0.4,0.2s-0.3,0.1-0.5,0.1c-0.4,0-0.7-0.1-0.8-0.3s-0.3-0.5-0.3-0.9v-2.6h-0.8v-0.2c0.3-0.1,0.5-0.3,0.7-0.6
		s0.4-0.7,0.5-1.1h0.4L219.3,110.5L219.3,110.5z"/>
	<path d="M223.7,111.6c0.3,0,0.5,0.1,0.8,0.2s0.5,0.3,0.7,0.5v-0.6h0.7v4.4h-0.7v-0.7c-0.2,0.2-0.4,0.4-0.6,0.6s-0.6,0.3-0.9,0.3
		c-0.4,0-0.7-0.1-1-0.3s-0.6-0.5-0.7-0.8s-0.3-0.7-0.3-1.2s0.1-0.9,0.3-1.3s0.4-0.6,0.8-0.8S223.3,111.6,223.7,111.6z M223.9,112.3
		c-0.3,0-0.6,0.1-0.8,0.2s-0.4,0.4-0.5,0.6s-0.2,0.5-0.2,0.8s0.1,0.5,0.2,0.8s0.3,0.4,0.5,0.6c0.2,0.1,0.5,0.2,0.7,0.2
		c0.3,0,0.5-0.1,0.7-0.2s0.4-0.3,0.5-0.6s0.2-0.5,0.2-0.8v-0.8c-0.2-0.2-0.4-0.4-0.6-0.5S224.1,112.3,223.9,112.3z"/>
	<path d="M228.6,110.5v1.3h1.3v0.7h-1.3v2.6c0,0.2,0,0.3,0.1,0.4s0.2,0.2,0.4,0.2s0.3,0,0.4-0.1s0.2-0.1,0.3-0.1v0.6
		c-0.1,0.1-0.2,0.2-0.4,0.2s-0.3,0.1-0.5,0.1c-0.4,0-0.7-0.1-0.8-0.3s-0.3-0.5-0.3-0.9v-2.6H227v-0.2c0.3-0.1,0.5-0.3,0.7-0.6
		s0.4-0.7,0.5-1.1h0.4L228.6,110.5L228.6,110.5z"/>
	<path d="M232.3,111.7v4.4h-0.7v-3.7h-0.7v-0.7C230.9,111.7,232.3,111.7,232.3,111.7z M231.9,109.6c0.2,0,0.3,0.1,0.4,0.2
		s0.2,0.3,0.2,0.4c0,0.2-0.1,0.3-0.2,0.4s-0.3,0.2-0.4,0.2s-0.3-0.1-0.4-0.2s-0.2-0.3-0.2-0.4c0-0.2,0.1-0.3,0.2-0.4
		S231.7,109.6,231.9,109.6z"/>
	<path d="M235.9,111.6c0.4,0,0.8,0.1,1.2,0.3s0.6,0.5,0.8,0.8s0.3,0.7,0.3,1.2s-0.1,0.8-0.3,1.1s-0.5,0.6-0.8,0.8s-0.7,0.3-1.2,0.3
		s-0.8-0.1-1.2-0.3s-0.6-0.5-0.8-0.8s-0.3-0.7-0.3-1.1s0.1-0.8,0.3-1.2s0.5-0.6,0.8-0.8S235.4,111.6,235.9,111.6z M235.9,112.3
		c-0.3,0-0.6,0.1-0.8,0.2s-0.4,0.3-0.5,0.6s-0.2,0.5-0.2,0.8s0.1,0.5,0.2,0.8s0.3,0.4,0.5,0.6s0.5,0.2,0.8,0.2s0.6-0.1,0.8-0.2
		s0.4-0.3,0.5-0.6s0.2-0.5,0.2-0.8s-0.1-0.6-0.2-0.8s-0.3-0.4-0.5-0.6S236.2,112.3,235.9,112.3z"/>
	<path d="M240.1,111.7v0.7c0.1-0.1,0.2-0.2,0.4-0.4s0.3-0.2,0.5-0.3s0.4-0.1,0.6-0.1c0.3,0,0.6,0.1,0.8,0.2s0.4,0.3,0.6,0.6
		s0.2,0.6,0.2,1v2.7h-0.7v-2.6c0-0.4-0.1-0.7-0.3-0.9s-0.4-0.3-0.8-0.3c-0.2,0-0.5,0.1-0.7,0.3s-0.4,0.4-0.6,0.6v2.9h-0.7v-4.4
		L240.1,111.7L240.1,111.7z"/>
	<path d="M248.4,111.6c0.3,0,0.5,0,0.7,0.1s0.4,0.1,0.5,0.2v0.8c-0.1-0.1-0.3-0.2-0.5-0.3s-0.4-0.1-0.7-0.1s-0.5,0.1-0.6,0.2
		s-0.2,0.3-0.2,0.4s0,0.2,0.1,0.3s0.2,0.2,0.4,0.3l0.7,0.3c0.3,0.1,0.5,0.2,0.6,0.4s0.2,0.4,0.2,0.7c0,0.2-0.1,0.5-0.2,0.7
		c-0.1,0.2-0.3,0.4-0.6,0.5s-0.5,0.2-0.8,0.2c-0.2,0-0.3,0-0.5-0.1s-0.3-0.1-0.5-0.2s-0.3-0.1-0.3-0.2V115c0.1,0.1,0.2,0.1,0.3,0.2
		s0.3,0.1,0.5,0.2s0.3,0.1,0.5,0.1c0.3,0,0.5-0.1,0.7-0.2s0.2-0.3,0.2-0.5c0-0.1-0.1-0.3-0.2-0.3s-0.3-0.2-0.5-0.2l-0.7-0.2
		c-0.3-0.1-0.6-0.3-0.7-0.5s-0.2-0.4-0.2-0.7c0-0.4,0.1-0.7,0.4-0.9S248,111.6,248.4,111.6z"/>
	<path d="M252.7,111.6c0.5,0,0.8,0.1,1.1,0.3s0.5,0.4,0.7,0.8c0.1,0.3,0.2,0.7,0.2,1.1v0.4h-3.4c0,0.2,0.1,0.5,0.3,0.7
		s0.3,0.4,0.5,0.5s0.5,0.2,0.7,0.2c0.3,0,0.6-0.1,0.9-0.2s0.5-0.3,0.7-0.5v0.8c-0.1,0.1-0.2,0.2-0.4,0.3s-0.3,0.2-0.6,0.3
		c-0.2,0.1-0.4,0.1-0.7,0.1c-0.4,0-0.8-0.1-1.2-0.3s-0.6-0.5-0.8-0.8s-0.3-0.7-0.3-1.1s0.1-0.8,0.3-1.2s0.4-0.6,0.8-0.8
		S252.3,111.6,252.7,111.6z M252.7,112.3c-0.4,0-0.7,0.1-0.9,0.4s-0.4,0.5-0.4,0.9h2.6c0-0.3-0.1-0.5-0.2-0.7
		c-0.1-0.2-0.3-0.3-0.5-0.4S252.9,112.3,252.7,112.3z"/>
	<path d="M256.6,111.7v0.9c0.2-0.3,0.4-0.5,0.6-0.7s0.5-0.3,0.7-0.3s0.3,0,0.5,0.1v0.8c-0.2-0.1-0.4-0.2-0.6-0.2
		c-0.3,0-0.5,0.1-0.7,0.3c-0.2,0.2-0.4,0.5-0.5,0.8v2.7h-0.7v-4.4C255.9,111.7,256.6,111.7,256.6,111.7z"/>
	<path d="M263.2,111.7l-2.1,4.4h-0.4l-2-4.4h0.9l1.3,3.2l1.4-3.2H263.2z"/>
	<path d="M265.3,111.7v4.4h-0.7v-3.7h-0.7v-0.7C263.9,111.7,265.3,111.7,265.3,111.7z M264.8,109.6c0.2,0,0.3,0.1,0.4,0.2
		s0.2,0.3,0.2,0.4c0,0.2-0.1,0.3-0.2,0.4s-0.3,0.2-0.4,0.2s-0.3-0.1-0.4-0.2s-0.2-0.3-0.2-0.4c0-0.2,0.1-0.3,0.2-0.4
		S264.7,109.6,264.8,109.6z"/>
	<path d="M268.8,111.6c0.3,0,0.6,0.1,0.8,0.2s0.4,0.2,0.5,0.3v0.7c-0.2-0.1-0.4-0.2-0.6-0.3s-0.5-0.1-0.8-0.1s-0.6,0.1-0.8,0.2
		s-0.4,0.3-0.5,0.6s-0.2,0.5-0.2,0.8s0.1,0.5,0.2,0.8s0.3,0.4,0.5,0.6s0.5,0.2,0.8,0.2s0.5,0,0.8-0.1s0.4-0.2,0.6-0.3v0.7
		c-0.1,0.1-0.2,0.2-0.5,0.3s-0.5,0.1-0.8,0.1c-0.4,0-0.8-0.1-1.2-0.3s-0.6-0.5-0.8-0.8c-0.2-0.3-0.3-0.7-0.3-1.1s0.1-0.8,0.3-1.2
		c0.2-0.4,0.5-0.6,0.8-0.8S268.4,111.6,268.8,111.6z"/>
	<path d="M273.1,111.6c0.5,0,0.8,0.1,1.1,0.3s0.5,0.4,0.7,0.8c0.1,0.3,0.2,0.7,0.2,1.1v0.4h-3.4c0,0.2,0.1,0.5,0.3,0.7
		s0.3,0.4,0.5,0.5s0.5,0.2,0.7,0.2c0.3,0,0.6-0.1,0.9-0.2s0.5-0.3,0.7-0.5v0.8c-0.1,0.1-0.2,0.2-0.4,0.3s-0.3,0.2-0.6,0.3
		c-0.2,0.1-0.4,0.1-0.7,0.1c-0.4,0-0.8-0.1-1.2-0.3s-0.6-0.5-0.8-0.8c-0.2-0.3-0.3-0.7-0.3-1.1s0.1-0.8,0.3-1.2s0.4-0.6,0.8-0.8
		S272.7,111.6,273.1,111.6z M273.1,112.3c-0.4,0-0.7,0.1-0.9,0.4s-0.4,0.5-0.4,0.9h2.6c0-0.3-0.1-0.5-0.2-0.7s-0.3-0.3-0.5-0.4
		S273.3,112.3,273.1,112.3z"/>
	<path d="M277.6,111.6c0.3,0,0.5,0,0.7,0.1s0.4,0.1,0.5,0.2v0.8c-0.1-0.1-0.3-0.2-0.5-0.3s-0.4-0.1-0.7-0.1c-0.3,0-0.5,0.1-0.6,0.2
		s-0.2,0.3-0.2,0.4s0,0.2,0.1,0.3c0.1,0.1,0.2,0.2,0.4,0.3l0.7,0.3c0.3,0.1,0.5,0.2,0.6,0.4s0.2,0.4,0.2,0.7c0,0.2-0.1,0.5-0.2,0.7
		s-0.3,0.4-0.6,0.5c-0.2,0.1-0.5,0.2-0.8,0.2c-0.2,0-0.3,0-0.5-0.1c-0.2,0-0.4-0.1-0.5-0.2s-0.3-0.1-0.3-0.2V115
		c0.1,0.1,0.2,0.1,0.3,0.2c0.1,0.1,0.3,0.1,0.5,0.2s0.3,0.1,0.5,0.1c0.3,0,0.5-0.1,0.7-0.2s0.2-0.3,0.2-0.5c0-0.1-0.1-0.3-0.2-0.3
		c-0.1-0.1-0.3-0.2-0.5-0.2l-0.7-0.2c-0.3-0.1-0.6-0.3-0.7-0.5s-0.2-0.4-0.2-0.7c0-0.4,0.1-0.7,0.4-0.9S277.2,111.6,277.6,111.6z"/>
</g>
<g>
	<path d="M339.6,368.1l-2.1,5.9h-0.4l-1.6-4.5l-1.6,4.5h-0.4l-2-5.9h0.9l1.4,4.4l1.6-4.4h0.5l1.5,4.4l1.4-4.4H339.6z"/>
	<path d="M342.2,369.5c0.5,0,0.8,0.1,1.1,0.3s0.5,0.4,0.7,0.8s0.2,0.7,0.2,1.1v0.4h-3.4c0,0.2,0.1,0.5,0.3,0.7s0.3,0.4,0.5,0.5
		s0.5,0.2,0.7,0.2c0.3,0,0.6-0.1,0.9-0.2s0.5-0.3,0.7-0.5v0.8c-0.1,0.1-0.2,0.2-0.4,0.3s-0.3,0.2-0.6,0.3s-0.4,0.1-0.7,0.1
		c-0.4,0-0.8-0.1-1.2-0.3s-0.6-0.5-0.8-0.8s-0.3-0.7-0.3-1.1s0.1-0.8,0.3-1.2s0.4-0.6,0.8-0.8S341.8,369.5,342.2,369.5z
		 M342.2,370.2c-0.4,0-0.7,0.1-0.9,0.4s-0.4,0.5-0.4,0.9h2.6c0-0.3-0.1-0.5-0.2-0.7s-0.3-0.3-0.5-0.4S342.4,370.2,342.2,370.2z"/>
	<path d="M349.9,369.5c0.3,0,0.5,0.1,0.8,0.2s0.5,0.3,0.7,0.5v-0.6h0.7v4.4h-0.7v-0.7c-0.2,0.2-0.4,0.4-0.6,0.6s-0.6,0.3-0.9,0.3
		c-0.4,0-0.7-0.1-1-0.3s-0.6-0.5-0.7-0.8s-0.3-0.7-0.3-1.2s0.1-0.9,0.3-1.3s0.4-0.6,0.8-0.8S349.5,369.5,349.9,369.5z M350,370.2
		c-0.3,0-0.6,0.1-0.8,0.2s-0.4,0.4-0.5,0.6s-0.2,0.5-0.2,0.8s0.1,0.5,0.2,0.8s0.3,0.4,0.5,0.6s0.5,0.2,0.7,0.2
		c0.3,0,0.5-0.1,0.7-0.2s0.4-0.3,0.5-0.6s0.2-0.5,0.2-0.8V371c-0.2-0.2-0.4-0.4-0.6-0.5S350.3,370.2,350,370.2z"/>
	<path d="M354.3,369.6v0.9c0.2-0.3,0.4-0.5,0.6-0.7s0.5-0.3,0.7-0.3s0.3,0,0.5,0.1v0.8c-0.2-0.1-0.4-0.2-0.6-0.2
		c-0.3,0-0.5,0.1-0.7,0.3s-0.4,0.5-0.5,0.8v2.7h-0.7v-4.4L354.3,369.6L354.3,369.6z"/>
	<path d="M358.8,369.5c0.5,0,0.8,0.1,1.1,0.3s0.5,0.4,0.7,0.8s0.2,0.7,0.2,1.1v0.4h-3.4c0,0.2,0.1,0.5,0.3,0.7s0.3,0.4,0.5,0.5
		s0.5,0.2,0.7,0.2c0.3,0,0.6-0.1,0.9-0.2s0.5-0.3,0.7-0.5v0.8c-0.1,0.1-0.2,0.2-0.4,0.3s-0.3,0.2-0.6,0.3s-0.4,0.1-0.7,0.1
		c-0.4,0-0.8-0.1-1.2-0.3s-0.6-0.5-0.8-0.8s-0.3-0.7-0.3-1.1s0.1-0.8,0.3-1.2s0.4-0.6,0.8-0.8S358.4,369.5,358.8,369.5z
		 M358.8,370.2c-0.4,0-0.7,0.1-0.9,0.4s-0.4,0.5-0.4,0.9h2.6c0-0.3-0.1-0.5-0.2-0.7s-0.3-0.3-0.5-0.4S359,370.2,358.8,370.2z"/>
	<path d="M366.5,369.5c0.5,0,0.8,0.1,1.1,0.3s0.5,0.4,0.7,0.8s0.2,0.7,0.2,1.1v0.4h-3.4c0,0.2,0.1,0.5,0.3,0.7s0.3,0.4,0.5,0.5
		s0.5,0.2,0.7,0.2c0.3,0,0.6-0.1,0.9-0.2s0.5-0.3,0.7-0.5v0.8c-0.1,0.1-0.2,0.2-0.4,0.3s-0.3,0.2-0.6,0.3s-0.4,0.1-0.7,0.1
		c-0.4,0-0.8-0.1-1.2-0.3s-0.6-0.5-0.8-0.8s-0.3-0.7-0.3-1.1s0.1-0.8,0.3-1.2s0.4-0.6,0.8-0.8S366,369.5,366.5,369.5z M366.5,370.2
		c-0.4,0-0.7,0.1-0.9,0.4s-0.4,0.5-0.4,0.9h2.6c0-0.3-0.1-0.5-0.2-0.7s-0.3-0.3-0.5-0.4S366.7,370.2,366.5,370.2z"/>
	<path d="M371.5,369.5c0.3,0,0.5,0.1,0.8,0.2s0.5,0.3,0.7,0.5v-0.6h0.7v4.4H373v-0.7c-0.2,0.2-0.4,0.4-0.6,0.6s-0.6,0.3-0.9,0.3
		c-0.4,0-0.7-0.1-1-0.3s-0.6-0.5-0.7-0.8s-0.3-0.7-0.3-1.2s0.1-0.9,0.3-1.3s0.4-0.6,0.8-0.8S371.1,369.5,371.5,369.5z M371.6,370.2
		c-0.3,0-0.6,0.1-0.8,0.2s-0.4,0.4-0.5,0.6s-0.2,0.5-0.2,0.8s0.1,0.5,0.2,0.8s0.3,0.4,0.5,0.6s0.5,0.2,0.7,0.2
		c0.3,0,0.5-0.1,0.7-0.2s0.4-0.3,0.5-0.6s0.2-0.5,0.2-0.8V371c-0.2-0.2-0.4-0.4-0.6-0.5S371.9,370.2,371.6,370.2z"/>
	<path d="M376.4,369.5c0.3,0,0.5,0,0.7,0.1s0.4,0.1,0.5,0.2v0.8c-0.1-0.1-0.3-0.2-0.5-0.3s-0.4-0.1-0.7-0.1c-0.3,0-0.5,0.1-0.6,0.2
		s-0.2,0.3-0.2,0.4s0,0.2,0.1,0.3s0.2,0.2,0.4,0.3l0.7,0.3c0.3,0.1,0.5,0.2,0.6,0.4s0.2,0.4,0.2,0.7c0,0.2-0.1,0.5-0.2,0.7
		s-0.3,0.4-0.6,0.5s-0.5,0.2-0.8,0.2c-0.2,0-0.3,0-0.5-0.1s-0.3-0.1-0.5-0.2s-0.3-0.1-0.3-0.2V373c0.1,0.1,0.2,0.1,0.3,0.2
		s0.3,0.1,0.5,0.2s0.3,0.1,0.5,0.1c0.3,0,0.5-0.1,0.7-0.2s0.2-0.3,0.2-0.5c0-0.1-0.1-0.3-0.2-0.3s-0.3-0.2-0.5-0.2l-0.7-0.2
		c-0.3-0.1-0.6-0.3-0.7-0.5s-0.2-0.4-0.2-0.7c0-0.4,0.1-0.7,0.4-0.9S376,369.5,376.4,369.5z"/>
	<path d="M379.1,369.6l1.5,3.2l1.5-3.2h0.9l-3.2,6.5H379l1.3-2.4l-1.9-4.1H379.1z"/>
	<path d="M387.8,368.3v1.3h1.3v0.7h-1.3v2.6c0,0.2,0,0.3,0.1,0.4s0.2,0.2,0.4,0.2c0.2,0,0.3,0,0.4-0.1s0.2-0.1,0.3-0.1v0.6
		c-0.1,0.1-0.2,0.2-0.4,0.2s-0.3,0.1-0.5,0.1c-0.4,0-0.7-0.1-0.8-0.3s-0.3-0.5-0.3-0.9v-2.6h-0.8v-0.2c0.3-0.1,0.5-0.3,0.7-0.6
		s0.4-0.7,0.5-1.1h0.4L387.8,368.3L387.8,368.3z"/>
	<path d="M392.3,369.5c0.4,0,0.8,0.1,1.2,0.3s0.6,0.5,0.8,0.8s0.3,0.7,0.3,1.2s-0.1,0.8-0.3,1.1s-0.5,0.6-0.8,0.8s-0.7,0.3-1.2,0.3
		s-0.8-0.1-1.2-0.3s-0.6-0.5-0.8-0.8s-0.3-0.7-0.3-1.1s0.1-0.8,0.3-1.2s0.5-0.6,0.8-0.8S391.9,369.5,392.3,369.5z M392.3,370.2
		c-0.3,0-0.6,0.1-0.8,0.2s-0.4,0.3-0.5,0.6s-0.2,0.5-0.2,0.8s0.1,0.5,0.2,0.8s0.3,0.4,0.5,0.6s0.5,0.2,0.8,0.2s0.6-0.1,0.8-0.2
		s0.4-0.3,0.5-0.6s0.2-0.5,0.2-0.8s-0.1-0.6-0.2-0.8s-0.3-0.4-0.5-0.6S392.7,370.2,392.3,370.2z"/>
	<path d="M400.3,369.5c0.3,0,0.5,0.1,0.8,0.2s0.5,0.3,0.7,0.5v-0.6h0.7v4.4h-0.7v-0.7c-0.2,0.2-0.4,0.4-0.6,0.6s-0.6,0.3-0.9,0.3
		c-0.4,0-0.7-0.1-1-0.3s-0.6-0.5-0.7-0.8s-0.3-0.7-0.3-1.2s0.1-0.9,0.3-1.3s0.4-0.6,0.8-0.8S399.9,369.5,400.3,369.5z M400.4,370.2
		c-0.3,0-0.6,0.1-0.8,0.2s-0.4,0.4-0.5,0.6s-0.2,0.5-0.2,0.8s0.1,0.5,0.2,0.8s0.3,0.4,0.5,0.6s0.5,0.2,0.7,0.2
		c0.3,0,0.5-0.1,0.7-0.2s0.4-0.3,0.5-0.6s0.2-0.5,0.2-0.8V371c-0.2-0.2-0.4-0.4-0.6-0.5S400.7,370.2,400.4,370.2z"/>
	<path d="M405.9,369.5c0.3,0,0.6,0.1,0.8,0.2s0.4,0.2,0.5,0.3v0.7c-0.2-0.1-0.4-0.2-0.6-0.3s-0.5-0.1-0.8-0.1s-0.6,0.1-0.8,0.2
		s-0.4,0.3-0.5,0.6s-0.2,0.5-0.2,0.8s0.1,0.5,0.2,0.8s0.3,0.4,0.5,0.6s0.5,0.2,0.8,0.2s0.5,0,0.8-0.1s0.4-0.2,0.6-0.3v0.7
		c-0.1,0.1-0.2,0.2-0.5,0.3s-0.5,0.1-0.8,0.1c-0.4,0-0.8-0.1-1.2-0.3s-0.6-0.5-0.8-0.8s-0.3-0.7-0.3-1.1s0.1-0.8,0.3-1.2
		s0.5-0.6,0.8-0.8S405.5,369.5,405.9,369.5z"/>
	<path d="M410.4,369.5c0.3,0,0.6,0.1,0.8,0.2s0.4,0.2,0.5,0.3v0.7c-0.2-0.1-0.4-0.2-0.6-0.3s-0.5-0.1-0.8-0.1s-0.6,0.1-0.8,0.2
		s-0.4,0.3-0.5,0.6s-0.2,0.5-0.2,0.8s0.1,0.5,0.2,0.8s0.3,0.4,0.5,0.6s0.5,0.2,0.8,0.2s0.5,0,0.8-0.1s0.4-0.2,0.6-0.3v0.7
		c-0.1,0.1-0.2,0.2-0.5,0.3s-0.5,0.1-0.8,0.1c-0.4,0-0.8-0.1-1.2-0.3s-0.6-0.5-0.8-0.8c-0.2-0.3-0.3-0.7-0.3-1.1s0.1-0.8,0.3-1.2
		c0.2-0.4,0.5-0.6,0.8-0.8S410,369.5,410.4,369.5z"/>
	<path d="M414.7,369.5c0.5,0,0.8,0.1,1.1,0.3s0.5,0.4,0.7,0.8c0.1,0.3,0.2,0.7,0.2,1.1v0.4h-3.4c0,0.2,0.1,0.5,0.3,0.7
		s0.3,0.4,0.5,0.5s0.5,0.2,0.7,0.2c0.3,0,0.6-0.1,0.9-0.2s0.5-0.3,0.7-0.5v0.8c-0.1,0.1-0.2,0.2-0.4,0.3s-0.3,0.2-0.6,0.3
		c-0.2,0.1-0.4,0.1-0.7,0.1c-0.4,0-0.8-0.1-1.2-0.3s-0.6-0.5-0.8-0.8c-0.2-0.3-0.3-0.7-0.3-1.1s0.1-0.8,0.3-1.2s0.4-0.6,0.8-0.8
		S414.3,369.5,414.7,369.5z M414.7,370.2c-0.4,0-0.7,0.1-0.9,0.4s-0.4,0.5-0.4,0.9h2.6c0-0.3-0.1-0.5-0.2-0.7s-0.3-0.3-0.5-0.4
		S414.9,370.2,414.7,370.2z"/>
	<path d="M419.2,369.5c0.3,0,0.5,0,0.7,0.1s0.4,0.1,0.5,0.2v0.8c-0.1-0.1-0.3-0.2-0.5-0.3s-0.4-0.1-0.7-0.1c-0.3,0-0.5,0.1-0.6,0.2
		s-0.2,0.3-0.2,0.4s0,0.2,0.1,0.3c0.1,0.1,0.2,0.2,0.4,0.3l0.7,0.3c0.3,0.1,0.5,0.2,0.6,0.4s0.2,0.4,0.2,0.7c0,0.2-0.1,0.5-0.2,0.7
		s-0.3,0.4-0.6,0.5c-0.2,0.1-0.5,0.2-0.8,0.2c-0.2,0-0.3,0-0.5-0.1c-0.2,0-0.4-0.1-0.5-0.2s-0.3-0.1-0.3-0.2V373
		c0.1,0.1,0.2,0.1,0.3,0.2c0.1,0.1,0.3,0.1,0.5,0.2s0.3,0.1,0.5,0.1c0.3,0,0.5-0.1,0.7-0.2s0.2-0.3,0.2-0.5c0-0.1-0.1-0.3-0.2-0.3
		c-0.1-0.1-0.3-0.2-0.5-0.2l-0.7-0.2c-0.3-0.1-0.6-0.3-0.7-0.5s-0.2-0.4-0.2-0.7c0-0.4,0.1-0.7,0.4-0.9S418.8,369.5,419.2,369.5z"/>
	<path d="M423,369.5c0.3,0,0.5,0,0.7,0.1s0.4,0.1,0.5,0.2v0.8c-0.1-0.1-0.3-0.2-0.5-0.3s-0.4-0.1-0.7-0.1c-0.3,0-0.5,0.1-0.6,0.2
		s-0.2,0.3-0.2,0.4s0,0.2,0.1,0.3c0.1,0.1,0.2,0.2,0.4,0.3l0.7,0.3c0.3,0.1,0.5,0.2,0.6,0.4s0.2,0.4,0.2,0.7c0,0.2-0.1,0.5-0.2,0.7
		s-0.3,0.4-0.6,0.5c-0.2,0.1-0.5,0.2-0.8,0.2c-0.2,0-0.3,0-0.5-0.1c-0.2,0-0.4-0.1-0.5-0.2s-0.3-0.1-0.3-0.2V373
		c0.1,0.1,0.2,0.1,0.3,0.2c0.1,0.1,0.3,0.1,0.5,0.2s0.3,0.1,0.5,0.1c0.3,0,0.5-0.1,0.7-0.2s0.2-0.3,0.2-0.5c0-0.1-0.1-0.3-0.2-0.3
		c-0.1-0.1-0.3-0.2-0.5-0.2l-0.7-0.2c-0.3-0.1-0.6-0.3-0.7-0.5s-0.2-0.4-0.2-0.7c0-0.4,0.1-0.7,0.4-0.9S422.5,369.5,423,369.5z"/>
	<path d="M425.8,373l0.7,0.2l-0.8,2.3l-0.5-0.1L425.8,373z"/>
	<path d="M322.1,379.1v1.3h1.3v0.7h-1.3v2.6c0,0.2,0,0.3,0.1,0.4s0.2,0.2,0.4,0.2c0.2,0,0.3,0,0.4-0.1s0.2-0.1,0.3-0.1v0.6
		c-0.1,0.1-0.2,0.2-0.4,0.2s-0.3,0.1-0.5,0.1c-0.4,0-0.7-0.1-0.8-0.3s-0.3-0.5-0.3-0.9v-2.6h-0.8V381c0.3-0.1,0.5-0.3,0.7-0.6
		s0.4-0.7,0.5-1.1h0.4L322.1,379.1L322.1,379.1z"/>
	<path d="M325.4,380.4v0.9c0.2-0.3,0.4-0.5,0.6-0.7s0.5-0.3,0.7-0.3s0.3,0,0.5,0.1v0.8c-0.2-0.1-0.4-0.2-0.6-0.2
		c-0.3,0-0.5,0.1-0.7,0.3s-0.4,0.5-0.5,0.8v2.7h-0.7v-4.4L325.4,380.4L325.4,380.4z"/>
	<path d="M331.8,380.4v2.6c0,0.4-0.1,0.7-0.2,1s-0.4,0.5-0.7,0.7s-0.6,0.2-0.9,0.2s-0.7-0.1-0.9-0.2s-0.5-0.4-0.7-0.7
		s-0.2-0.6-0.2-1v-2.6h0.7v2.6c0,0.4,0.1,0.7,0.3,0.9s0.5,0.3,0.8,0.3s0.6-0.1,0.8-0.3s0.3-0.5,0.3-0.9v-2.6H331.8z"/>
	<path d="M334.4,380.3c0.3,0,0.5,0,0.7,0.1s0.4,0.1,0.5,0.2v0.8c-0.1-0.1-0.3-0.2-0.5-0.3s-0.4-0.1-0.7-0.1c-0.3,0-0.5,0.1-0.6,0.2
		s-0.2,0.3-0.2,0.4s0,0.2,0.1,0.3s0.2,0.2,0.4,0.3l0.7,0.3c0.3,0.1,0.5,0.2,0.6,0.4s0.2,0.4,0.2,0.7c0,0.2-0.1,0.5-0.2,0.7
		s-0.3,0.4-0.6,0.5s-0.5,0.2-0.8,0.2c-0.2,0-0.3,0-0.5-0.1s-0.4-0.1-0.5-0.2s-0.3-0.1-0.3-0.2v-0.8c0.1,0.1,0.2,0.1,0.3,0.2
		s0.3,0.1,0.5,0.2s0.3,0.1,0.5,0.1c0.3,0,0.5-0.1,0.7-0.2s0.2-0.3,0.2-0.5c0-0.1-0.1-0.3-0.2-0.3s-0.3-0.2-0.5-0.2l-0.7-0.2
		c-0.3-0.1-0.6-0.3-0.7-0.5s-0.2-0.4-0.2-0.7c0-0.4,0.1-0.7,0.4-0.9S334,380.3,334.4,380.3z"/>
	<path d="M338.1,379.1v1.3h1.3v0.7h-1.3v2.6c0,0.2,0,0.3,0.1,0.4s0.2,0.2,0.4,0.2c0.2,0,0.3,0,0.4-0.1s0.2-0.1,0.3-0.1v0.6
		c-0.1,0.1-0.2,0.2-0.4,0.2s-0.3,0.1-0.5,0.1c-0.4,0-0.7-0.1-0.8-0.3s-0.3-0.5-0.3-0.9v-2.6h-0.8V381c0.3-0.1,0.5-0.3,0.7-0.6
		s0.4-0.7,0.5-1.1h0.4L338.1,379.1L338.1,379.1z"/>
	<path d="M349.1,380.4l-1.5,4.4h-0.4l-1.2-3.1l-1.2,3.1h-0.4l-1.5-4.4h0.9l1,3.1l1.2-3.1h0.4l1.2,3.1l1-3.1H349.1z"/>
	<path d="M352,380.3c0.4,0,0.8,0.1,1.2,0.3s0.6,0.5,0.8,0.8s0.3,0.7,0.3,1.2s-0.1,0.8-0.3,1.1s-0.5,0.6-0.8,0.8s-0.7,0.3-1.2,0.3
		s-0.8-0.1-1.2-0.3s-0.6-0.5-0.8-0.8s-0.3-0.7-0.3-1.1s0.1-0.8,0.3-1.2s0.5-0.6,0.8-0.8S351.5,380.3,352,380.3z M352,381
		c-0.3,0-0.6,0.1-0.8,0.2s-0.4,0.3-0.5,0.6s-0.2,0.5-0.2,0.8s0.1,0.5,0.2,0.8s0.3,0.4,0.5,0.6s0.5,0.2,0.8,0.2s0.6-0.1,0.8-0.2
		s0.4-0.3,0.5-0.6s0.2-0.5,0.2-0.8s-0.1-0.6-0.2-0.8s-0.3-0.4-0.5-0.6S352.3,381,352,381z"/>
	<path d="M356.2,380.4v0.9c0.2-0.3,0.4-0.5,0.6-0.7s0.5-0.3,0.7-0.3s0.3,0,0.5,0.1v0.8c-0.2-0.1-0.4-0.2-0.6-0.2
		c-0.3,0-0.5,0.1-0.7,0.3s-0.4,0.5-0.5,0.8v2.7h-0.7v-4.4L356.2,380.4L356.2,380.4z"/>
	<path d="M360.1,379.1v1.3h1.3v0.7h-1.3v2.6c0,0.2,0,0.3,0.1,0.4s0.2,0.2,0.4,0.2c0.2,0,0.3,0,0.4-0.1s0.2-0.1,0.3-0.1v0.6
		c-0.1,0.1-0.2,0.2-0.4,0.2s-0.3,0.1-0.5,0.1c-0.4,0-0.7-0.1-0.8-0.3s-0.3-0.5-0.3-0.9v-2.6h-0.8V381c0.3-0.1,0.5-0.3,0.7-0.6
		s0.4-0.7,0.5-1.1h0.4L360.1,379.1L360.1,379.1z"/>
	<path d="M364.8,380.3c0.3,0,0.6,0.1,0.8,0.2s0.4,0.3,0.6,0.6s0.2,0.6,0.2,1v2.7h-0.7v-2.6c0-0.4-0.1-0.7-0.2-0.9s-0.4-0.3-0.8-0.3
		c-0.2,0-0.5,0.1-0.7,0.3s-0.4,0.4-0.6,0.6v2.9h-0.7v-6.3h0.7v2.6c0.1-0.1,0.2-0.2,0.4-0.4s0.3-0.2,0.5-0.3S364.6,380.3,364.8,380.3
		z"/>
	<path d="M368.1,380.4l1.5,3.2l1.5-3.2h0.9l-3.2,6.5H368l1.3-2.4l-1.9-4.1H368.1z"/>
	<path d="M376.2,378.5v6.3h-0.7v-6.3H376.2z"/>
	<path d="M378.9,380.4v4.4h-0.7v-3.7h-0.7v-0.7L378.9,380.4L378.9,380.4z M378.4,378.3c0.2,0,0.3,0.1,0.4,0.2s0.2,0.3,0.2,0.4
		c0,0.2-0.1,0.3-0.2,0.4s-0.3,0.2-0.4,0.2s-0.3-0.1-0.4-0.2s-0.2-0.3-0.2-0.4c0-0.2,0.1-0.3,0.2-0.4S378.2,378.3,378.4,378.3z"/>
	<path d="M384.3,380.4l-2,1.9l2.2,2.5h-0.9l-1.7-2l-0.6,0.6v1.4h-0.7v-6.3h0.7v4.1l2.2-2.1h0.8V380.4z"/>
	<path d="M386.7,380.3c0.5,0,0.8,0.1,1.1,0.3s0.5,0.4,0.7,0.8s0.2,0.7,0.2,1.1v0.4h-3.4c0,0.2,0.1,0.5,0.3,0.7s0.3,0.4,0.5,0.5
		s0.5,0.2,0.7,0.2c0.3,0,0.6-0.1,0.9-0.2s0.5-0.3,0.7-0.5v0.8c-0.1,0.1-0.2,0.2-0.4,0.3s-0.3,0.2-0.6,0.3s-0.4,0.1-0.7,0.1
		c-0.4,0-0.8-0.1-1.2-0.3s-0.6-0.5-0.8-0.8s-0.3-0.7-0.3-1.1s0.1-0.8,0.3-1.2s0.4-0.6,0.8-0.8S386.3,380.3,386.7,380.3z M386.7,381
		c-0.4,0-0.7,0.1-0.9,0.4s-0.4,0.5-0.4,0.9h2.6c0-0.3-0.1-0.5-0.2-0.7s-0.3-0.3-0.5-0.4S387,381,386.7,381z"/>
	<path d="M392.8,380.4l1.5,3.2l1.5-3.2h0.9l-3.2,6.5h-0.8l1.3-2.4l-1.9-4.1H392.8z"/>
	<path d="M399.6,380.3c0.4,0,0.8,0.1,1.2,0.3s0.6,0.5,0.8,0.8s0.3,0.7,0.3,1.2s-0.1,0.8-0.3,1.1s-0.5,0.6-0.8,0.8s-0.7,0.3-1.2,0.3
		s-0.8-0.1-1.2-0.3s-0.6-0.5-0.8-0.8s-0.3-0.7-0.3-1.1s0.1-0.8,0.3-1.2s0.5-0.6,0.8-0.8S399.2,380.3,399.6,380.3z M399.6,381
		c-0.3,0-0.6,0.1-0.8,0.2s-0.4,0.3-0.5,0.6s-0.2,0.5-0.2,0.8s0.1,0.5,0.2,0.8s0.3,0.4,0.5,0.6s0.5,0.2,0.8,0.2s0.6-0.1,0.8-0.2
		s0.4-0.3,0.5-0.6s0.2-0.5,0.2-0.8s-0.1-0.6-0.2-0.8s-0.3-0.4-0.5-0.6S399.9,381,399.6,381z"/>
	<path d="M406.7,380.4v2.6c0,0.4-0.1,0.7-0.2,1s-0.4,0.5-0.7,0.7s-0.6,0.2-0.9,0.2s-0.7-0.1-0.9-0.2s-0.5-0.4-0.7-0.7
		s-0.2-0.6-0.2-1v-2.6h0.7v2.6c0,0.4,0.1,0.7,0.3,0.9s0.5,0.3,0.8,0.3s0.6-0.1,0.8-0.3s0.3-0.5,0.3-0.9v-2.6H406.7z"/>
	<path d="M408.8,380.4v0.9c0.2-0.3,0.4-0.5,0.6-0.7s0.5-0.3,0.7-0.3s0.3,0,0.5,0.1v0.8c-0.2-0.1-0.4-0.2-0.6-0.2
		c-0.3,0-0.5,0.1-0.7,0.3c-0.2,0.2-0.4,0.5-0.5,0.8v2.7H408v-4.4L408.8,380.4L408.8,380.4z"/>
	<path d="M416.4,380.4v0.7h-1.3v3.7h-0.7v-3.7h-0.7v-0.7h0.7v-0.6c0-0.3,0.1-0.6,0.2-0.8s0.3-0.4,0.5-0.5s0.4-0.2,0.6-0.2
		c0.3,0,0.5,0.1,0.7,0.2v0.6c-0.1-0.1-0.2-0.1-0.3-0.1s-0.2,0-0.4,0c-0.2,0-0.4,0.1-0.5,0.2s-0.2,0.4-0.2,0.7v0.5L416.4,380.4
		L416.4,380.4z"/>
	<path d="M418.1,380.4v0.9c0.2-0.3,0.4-0.5,0.6-0.7s0.5-0.3,0.7-0.3s0.3,0,0.5,0.1v0.8c-0.2-0.1-0.4-0.2-0.6-0.2
		c-0.3,0-0.5,0.1-0.7,0.3c-0.2,0.2-0.4,0.5-0.5,0.8v2.7h-0.7v-4.4L418.1,380.4L418.1,380.4z"/>
	<path d="M422,380.4v4.4h-0.7v-3.7h-0.7v-0.7L422,380.4L422,380.4z M421.5,378.3c0.2,0,0.3,0.1,0.4,0.2s0.2,0.3,0.2,0.4
		c0,0.2-0.1,0.3-0.2,0.4s-0.3,0.2-0.4,0.2s-0.3-0.1-0.4-0.2s-0.2-0.3-0.2-0.4c0-0.2,0.1-0.3,0.2-0.4
		C421.2,378.3,421.3,378.3,421.5,378.3z"/>
	<path d="M425.3,380.3c0.5,0,0.8,0.1,1.1,0.3s0.5,0.4,0.7,0.8c0.1,0.3,0.2,0.7,0.2,1.1v0.4H424c0,0.2,0.1,0.5,0.3,0.7
		s0.3,0.4,0.5,0.5s0.5,0.2,0.7,0.2c0.3,0,0.6-0.1,0.9-0.2s0.5-0.3,0.7-0.5v0.8c-0.1,0.1-0.2,0.2-0.4,0.3s-0.3,0.2-0.6,0.3
		c-0.2,0.1-0.4,0.1-0.7,0.1c-0.4,0-0.8-0.1-1.2-0.3s-0.6-0.5-0.8-0.8c-0.2-0.3-0.3-0.7-0.3-1.1s0.1-0.8,0.3-1.2s0.4-0.6,0.8-0.8
		S424.9,380.3,425.3,380.3z M425.3,381c-0.4,0-0.7,0.1-0.9,0.4s-0.4,0.5-0.4,0.9h2.6c0-0.3-0.1-0.5-0.2-0.7s-0.3-0.3-0.5-0.4
		S425.5,381,425.3,381z"/>
	<path d="M429.3,380.4v0.7c0.1-0.1,0.2-0.2,0.4-0.4s0.3-0.2,0.5-0.3c0.2-0.1,0.4-0.1,0.6-0.1c0.3,0,0.6,0.1,0.8,0.2s0.4,0.3,0.6,0.6
		s0.2,0.6,0.2,1v2.7h-0.7v-2.6c0-0.4-0.1-0.7-0.2-0.9c-0.2-0.2-0.4-0.3-0.8-0.3c-0.2,0-0.5,0.1-0.7,0.3s-0.4,0.4-0.6,0.6v2.9h-0.7
		v-4.4L429.3,380.4L429.3,380.4z"/>
	<path d="M437.7,378.5v6.3H437V384c-0.2,0.2-0.4,0.4-0.6,0.6s-0.6,0.3-0.9,0.3c-0.4,0-0.7-0.1-1-0.3s-0.6-0.5-0.7-0.8
		c-0.2-0.3-0.3-0.7-0.3-1.2s0.1-0.9,0.3-1.3c0.2-0.4,0.4-0.6,0.8-0.8s0.7-0.3,1.1-0.3c0.3,0,0.5,0.1,0.8,0.2s0.5,0.3,0.7,0.5v-2.5
		L437.7,378.5L437.7,378.5z M435.6,381c-0.3,0-0.6,0.1-0.8,0.2s-0.4,0.4-0.5,0.6s-0.2,0.5-0.2,0.8s0.1,0.5,0.2,0.8s0.3,0.4,0.5,0.6
		c0.2,0.1,0.5,0.2,0.7,0.2c0.3,0,0.5-0.1,0.7-0.2s0.4-0.3,0.5-0.6s0.2-0.5,0.2-0.8v-0.8c-0.2-0.2-0.4-0.4-0.6-0.5
		C436.1,381.1,435.9,381,435.6,381z"/>
</g>
<g>
	<path d="M31.1,368.1L29,374h-0.4l-1.6-4.5l-1.6,4.5H25l-2-5.9h0.9l1.4,4.4l1.6-4.4h0.5l1.5,4.4l1.4-4.4H31.1z"/>
	<path d="M33.7,369.5c0.5,0,0.8,0.1,1.1,0.3s0.5,0.4,0.7,0.8s0.2,0.7,0.2,1.1v0.4h-3.4c0,0.2,0.1,0.5,0.3,0.7s0.3,0.4,0.5,0.5
		s0.5,0.2,0.7,0.2c0.3,0,0.6-0.1,0.9-0.2s0.5-0.3,0.7-0.5v0.8c-0.1,0.1-0.2,0.2-0.4,0.3s-0.3,0.2-0.6,0.3s-0.4,0.1-0.7,0.1
		c-0.4,0-0.8-0.1-1.2-0.3s-0.6-0.5-0.8-0.8s-0.3-0.7-0.3-1.1s0.1-0.8,0.3-1.2s0.4-0.6,0.8-0.8S33.3,369.5,33.7,369.5z M33.7,370.2
		c-0.4,0-0.7,0.1-0.9,0.4s-0.4,0.5-0.4,0.9H35c0-0.3-0.1-0.5-0.2-0.7s-0.3-0.3-0.5-0.4S33.9,370.2,33.7,370.2z"/>
	<path d="M41.7,369.5c0.3,0,0.6,0.1,0.8,0.2s0.4,0.3,0.6,0.6s0.2,0.6,0.2,1v2.7h-0.7v-2.6c0-0.4-0.1-0.7-0.3-0.9s-0.4-0.3-0.8-0.3
		c-0.2,0-0.5,0.1-0.7,0.3s-0.4,0.4-0.6,0.6v2.9h-0.7v-6.3h0.7v2.6c0.1-0.1,0.2-0.2,0.4-0.4s0.3-0.2,0.5-0.3S41.5,369.5,41.7,369.5z"
		/>
	<path d="M46.5,369.5c0.5,0,0.8,0.1,1.1,0.3s0.5,0.4,0.7,0.8s0.2,0.7,0.2,1.1v0.4h-3.4c0,0.2,0.1,0.5,0.3,0.7s0.3,0.4,0.5,0.5
		s0.5,0.2,0.7,0.2c0.3,0,0.6-0.1,0.9-0.2s0.5-0.3,0.7-0.5v0.8c-0.1,0.1-0.2,0.2-0.4,0.3s-0.3,0.2-0.6,0.3s-0.4,0.1-0.7,0.1
		c-0.4,0-0.8-0.1-1.2-0.3s-0.6-0.5-0.8-0.8s-0.3-0.7-0.3-1.1s0.1-0.8,0.3-1.2s0.4-0.6,0.8-0.8S46.1,369.5,46.5,369.5z M46.5,370.2
		c-0.4,0-0.7,0.1-0.9,0.4s-0.4,0.5-0.4,0.9h2.6c0-0.3-0.1-0.5-0.2-0.7s-0.3-0.3-0.5-0.4S46.7,370.2,46.5,370.2z"/>
	<path d="M50.4,367.7v6.3h-0.7v-6.3H50.4z"/>
	<path d="M54.1,369.5c0.4,0,0.7,0.1,1,0.3s0.6,0.4,0.7,0.8s0.3,0.7,0.3,1.2s-0.1,0.9-0.3,1.3s-0.4,0.6-0.8,0.8s-0.7,0.3-1.1,0.3
		c-0.3,0-0.5-0.1-0.8-0.2s-0.5-0.3-0.7-0.5v2.7h-0.7v-6.5h0.7v0.7c0.2-0.2,0.4-0.4,0.6-0.6S53.8,369.5,54.1,369.5z M54,370.2
		c-0.3,0-0.5,0.1-0.7,0.2s-0.4,0.3-0.5,0.6s-0.2,0.5-0.2,0.8v0.8c0.2,0.2,0.4,0.4,0.6,0.6s0.4,0.2,0.7,0.2s0.6-0.1,0.8-0.2
		s0.4-0.4,0.5-0.6s0.2-0.5,0.2-0.8s-0.1-0.5-0.2-0.8s-0.3-0.4-0.5-0.5S54.3,370.2,54,370.2z"/>
	<path d="M62.2,369.5c0.4,0,0.8,0.1,1.1,0.3s0.6,0.5,0.8,0.8c0.2,0.3,0.3,0.8,0.3,1.3c0,0.4-0.1,0.8-0.3,1.2s-0.4,0.6-0.7,0.8
		s-0.7,0.3-1,0.3s-0.6-0.1-0.9-0.3s-0.5-0.4-0.6-0.6v0.7H60v-6.3h0.7v2.5c0.2-0.2,0.4-0.4,0.7-0.5S61.9,369.5,62.2,369.5z
		 M62.1,370.2c-0.3,0-0.5,0.1-0.7,0.2s-0.4,0.3-0.6,0.5v0.8c0,0.3,0.1,0.6,0.2,0.8s0.3,0.4,0.5,0.6s0.5,0.2,0.7,0.2
		c0.3,0,0.5-0.1,0.7-0.2s0.4-0.3,0.5-0.6s0.2-0.5,0.2-0.8s-0.1-0.6-0.2-0.8s-0.3-0.5-0.5-0.6S62.4,370.2,62.1,370.2z"/>
	<path d="M69.1,369.6v2.6c0,0.4-0.1,0.7-0.2,1s-0.4,0.5-0.7,0.7s-0.6,0.2-0.9,0.2s-0.7-0.1-0.9-0.2s-0.5-0.4-0.7-0.7s-0.2-0.6-0.2-1
		v-2.6h0.7v2.6c0,0.4,0.1,0.7,0.3,0.9s0.5,0.3,0.8,0.3s0.6-0.1,0.8-0.3s0.3-0.5,0.3-0.9v-2.6H69.1z"/>
	<path d="M71.6,369.6v4.4h-0.7v-3.7h-0.7v-0.7L71.6,369.6L71.6,369.6z M71.1,367.5c0.2,0,0.3,0.1,0.4,0.2s0.2,0.3,0.2,0.4
		c0,0.2-0.1,0.3-0.2,0.4s-0.3,0.2-0.4,0.2s-0.3-0.1-0.4-0.2s-0.2-0.3-0.2-0.4c0-0.2,0.1-0.3,0.2-0.4S71,367.5,71.1,367.5z"/>
	<path d="M73.9,367.7v6.3h-0.7v-6.3H73.9z"/>
	<path d="M79.3,367.7v6.3h-0.7v-0.7c-0.2,0.2-0.4,0.4-0.6,0.6s-0.6,0.3-0.9,0.3c-0.4,0-0.7-0.1-1-0.3s-0.6-0.5-0.7-0.8
		s-0.3-0.7-0.3-1.2s0.1-0.9,0.3-1.3s0.4-0.6,0.8-0.8s0.7-0.3,1.1-0.3c0.3,0,0.5,0.1,0.8,0.2s0.5,0.3,0.7,0.5v-2.5L79.3,367.7
		L79.3,367.7z M77.3,370.2c-0.3,0-0.6,0.1-0.8,0.2s-0.4,0.4-0.5,0.6s-0.2,0.5-0.2,0.8s0.1,0.5,0.2,0.8s0.3,0.4,0.5,0.6
		s0.5,0.2,0.7,0.2c0.3,0,0.5-0.1,0.7-0.2s0.4-0.3,0.5-0.6s0.2-0.5,0.2-0.8V371c-0.2-0.2-0.4-0.4-0.6-0.5S77.6,370.2,77.3,370.2z"/>
	<path d="M85.6,369.5c0.4,0,0.8,0.1,1.1,0.3s0.6,0.5,0.8,0.8s0.3,0.8,0.3,1.3c0,0.4-0.1,0.8-0.3,1.2s-0.4,0.6-0.7,0.8
		s-0.7,0.3-1,0.3s-0.6-0.1-0.9-0.3s-0.5-0.4-0.6-0.6v0.7h-0.7v-6.3h0.7v2.5c0.2-0.2,0.4-0.4,0.7-0.5S85.4,369.5,85.6,369.5z
		 M85.5,370.2c-0.3,0-0.5,0.1-0.7,0.2s-0.4,0.3-0.6,0.5v0.8c0,0.3,0.1,0.6,0.2,0.8s0.3,0.4,0.5,0.6s0.5,0.2,0.7,0.2
		c0.3,0,0.5-0.1,0.7-0.2s0.4-0.3,0.5-0.6s0.2-0.5,0.2-0.8s-0.1-0.6-0.2-0.8s-0.3-0.5-0.5-0.6S85.8,370.2,85.5,370.2z"/>
	<path d="M90.7,369.5c0.5,0,0.8,0.1,1.1,0.3s0.5,0.4,0.7,0.8c0.1,0.3,0.2,0.7,0.2,1.1v0.4h-3.4c0,0.2,0.1,0.5,0.3,0.7
		s0.3,0.4,0.5,0.5s0.5,0.2,0.7,0.2c0.3,0,0.6-0.1,0.9-0.2s0.5-0.3,0.7-0.5v0.8c-0.1,0.1-0.2,0.2-0.4,0.3c-0.2,0.1-0.3,0.2-0.6,0.3
		s-0.4,0.1-0.7,0.1c-0.4,0-0.8-0.1-1.2-0.3s-0.6-0.5-0.8-0.8s-0.3-0.7-0.3-1.1s0.1-0.8,0.3-1.2s0.4-0.6,0.8-0.8
		S90.3,369.5,90.7,369.5z M90.7,370.2c-0.4,0-0.7,0.1-0.9,0.4s-0.4,0.5-0.4,0.9H92c0-0.3-0.1-0.5-0.2-0.7s-0.3-0.3-0.5-0.4
		S91,370.2,90.7,370.2z"/>
	<path d="M94.7,367.7v6.3H94v-6.3H94.7z"/>
	<path d="M97.3,369.6v4.4h-0.7v-3.7h-0.7v-0.7L97.3,369.6L97.3,369.6z M96.9,367.5c0.2,0,0.3,0.1,0.4,0.2s0.2,0.3,0.2,0.4
		c0,0.2-0.1,0.3-0.2,0.4s-0.3,0.2-0.4,0.2s-0.3-0.1-0.4-0.2s-0.2-0.3-0.2-0.4c0-0.2,0.1-0.3,0.2-0.4
		C96.6,367.5,96.7,367.5,96.9,367.5z"/>
	<path d="M100.7,369.5c0.5,0,0.8,0.1,1.1,0.3s0.5,0.4,0.7,0.8c0.1,0.3,0.2,0.7,0.2,1.1v0.4h-3.4c0,0.2,0.1,0.5,0.3,0.7
		s0.3,0.4,0.5,0.5s0.5,0.2,0.7,0.2c0.3,0,0.6-0.1,0.9-0.2s0.5-0.3,0.7-0.5v0.8c-0.1,0.1-0.2,0.2-0.4,0.3s-0.3,0.2-0.6,0.3
		c-0.2,0.1-0.4,0.1-0.7,0.1c-0.4,0-0.8-0.1-1.2-0.3s-0.6-0.5-0.8-0.8c-0.2-0.3-0.3-0.7-0.3-1.1s0.1-0.8,0.3-1.2s0.4-0.6,0.8-0.8
		S100.3,369.5,100.7,369.5z M100.7,370.2c-0.4,0-0.7,0.1-0.9,0.4s-0.4,0.5-0.4,0.9h2.6c0-0.3-0.1-0.5-0.2-0.7s-0.3-0.3-0.5-0.4
		S100.9,370.2,100.7,370.2z"/>
	<path d="M106.2,369.6v0.7h-1.3v3.7h-0.7v-3.7h-0.7v-0.7h0.7V369c0-0.3,0.1-0.6,0.2-0.8s0.3-0.4,0.5-0.5s0.4-0.2,0.6-0.2
		c0.3,0,0.5,0.1,0.7,0.2v0.6c-0.1-0.1-0.2-0.1-0.3-0.1s-0.2,0-0.4,0c-0.2,0-0.4,0.1-0.5,0.2s-0.2,0.4-0.2,0.7v0.5L106.2,369.6
		L106.2,369.6z"/>
	<path d="M5.7,380.4v4.4H5v-3.7H4.3v-0.7L5.7,380.4L5.7,380.4z M5.3,378.3c0.2,0,0.3,0.1,0.4,0.2s0.2,0.3,0.2,0.4
		c0,0.2-0.1,0.3-0.2,0.4s-0.3,0.2-0.4,0.2s-0.3-0.1-0.4-0.2s-0.2-0.3-0.2-0.4c0-0.2,0.1-0.3,0.2-0.4S5.1,378.3,5.3,378.3z"/>
	<path d="M8,380.4v0.7c0.1-0.1,0.2-0.2,0.4-0.4s0.3-0.2,0.5-0.3s0.4-0.1,0.6-0.1c0.3,0,0.6,0.1,0.8,0.2s0.4,0.3,0.6,0.6
		s0.2,0.6,0.2,1v2.7h-0.7v-2.6c0-0.4-0.1-0.7-0.3-0.9S9.7,381,9.3,381c-0.2,0-0.5,0.1-0.7,0.3s-0.4,0.4-0.6,0.6v2.9H7.3v-4.4H8z"/>
	<path d="M17.2,380.3c0.3,0,0.6,0.1,0.8,0.2s0.4,0.3,0.6,0.6s0.2,0.6,0.2,1v2.7h-0.7v-2.6c0-0.4-0.1-0.7-0.3-0.9S17.4,381,17,381
		c-0.2,0-0.5,0.1-0.7,0.3s-0.4,0.4-0.6,0.6v2.9H15v-6.3h0.7v2.6c0.1-0.1,0.2-0.2,0.4-0.4c0.2-0.2,0.3-0.2,0.5-0.3
		S17,380.3,17.2,380.3z"/>
	<path d="M22,380.3c0.5,0,0.8,0.1,1.1,0.3s0.5,0.4,0.7,0.8s0.2,0.7,0.2,1.1v0.4h-3.4c0,0.2,0.1,0.5,0.3,0.7s0.3,0.4,0.5,0.5
		s0.5,0.2,0.7,0.2c0.3,0,0.6-0.1,0.9-0.2s0.5-0.3,0.7-0.5v0.8c-0.1,0.1-0.2,0.2-0.4,0.3s-0.3,0.2-0.6,0.3s-0.4,0.1-0.7,0.1
		c-0.4,0-0.8-0.1-1.2-0.3s-0.6-0.5-0.8-0.8s-0.3-0.7-0.3-1.1s0.1-0.8,0.3-1.2s0.4-0.6,0.8-0.8S21.6,380.3,22,380.3z M22,381
		c-0.4,0-0.7,0.1-0.9,0.4s-0.4,0.5-0.4,0.9h2.6c0-0.3-0.1-0.5-0.2-0.7s-0.3-0.3-0.5-0.4S22.2,381,22,381z"/>
	<path d="M27,380.3c0.3,0,0.5,0.1,0.8,0.2s0.5,0.3,0.7,0.5v-0.6h0.7v4.4h-0.7V384c-0.2,0.2-0.4,0.4-0.6,0.6s-0.6,0.3-0.9,0.3
		c-0.4,0-0.7-0.1-1-0.3s-0.6-0.5-0.7-0.8s-0.3-0.7-0.3-1.2s0.1-0.9,0.3-1.3s0.4-0.6,0.8-0.8S26.6,380.3,27,380.3z M27.2,381
		c-0.3,0-0.6,0.1-0.8,0.2s-0.4,0.4-0.5,0.6s-0.2,0.5-0.2,0.8s0.1,0.5,0.2,0.8s0.3,0.4,0.5,0.6s0.5,0.2,0.7,0.2
		c0.3,0,0.5-0.1,0.7-0.2s0.4-0.3,0.5-0.6s0.2-0.5,0.2-0.8v-0.8c-0.2-0.2-0.4-0.4-0.6-0.5S27.4,381,27.2,381z"/>
	<path d="M31.4,378.5v6.3h-0.7v-6.3H31.4z"/>
	<path d="M34.1,379.1v1.3h1.3v0.7h-1.3v2.6c0,0.2,0,0.3,0.1,0.4s0.2,0.2,0.4,0.2s0.3,0,0.4-0.1s0.2-0.1,0.3-0.1v0.6
		c-0.1,0.1-0.2,0.2-0.4,0.2s-0.3,0.1-0.5,0.1c-0.4,0-0.7-0.1-0.8-0.3s-0.3-0.5-0.3-0.9v-2.6h-0.8V381c0.3-0.1,0.5-0.3,0.7-0.6
		s0.4-0.7,0.5-1.1h0.4C34.1,379.3,34.1,379.1,34.1,379.1z"/>
	<path d="M38.9,380.3c0.3,0,0.6,0.1,0.8,0.2s0.4,0.3,0.6,0.6s0.2,0.6,0.2,1v2.7h-0.7v-2.6c0-0.4-0.1-0.7-0.3-0.9s-0.4-0.3-0.8-0.3
		c-0.2,0-0.5,0.1-0.7,0.3s-0.4,0.4-0.6,0.6v2.9h-0.7v-6.3h0.7v2.6c0.1-0.1,0.2-0.2,0.4-0.4s0.3-0.2,0.5-0.3S38.7,380.3,38.9,380.3z"
		/>
	<path d="M42.1,380.4l1.5,3.2l1.5-3.2H46l-3.2,6.5H42l1.3-2.4l-1.9-4.1H42.1z"/>
	<path d="M51.8,380.4v0.7h-1.3v3.7h-0.7v-3.7h-0.7v-0.7h0.7v-0.6c0-0.3,0.1-0.6,0.2-0.8s0.3-0.4,0.5-0.5s0.4-0.2,0.6-0.2
		c0.3,0,0.5,0.1,0.7,0.2v0.6c-0.1-0.1-0.2-0.1-0.3-0.1s-0.2,0-0.4,0s-0.4,0.1-0.5,0.2s-0.2,0.4-0.2,0.7v0.5L51.8,380.4L51.8,380.4z"
		/>
	<path d="M54.7,380.3c0.4,0,0.8,0.1,1.2,0.3s0.6,0.5,0.8,0.8s0.3,0.7,0.3,1.2s-0.1,0.8-0.3,1.1s-0.5,0.6-0.8,0.8s-0.7,0.3-1.2,0.3
		s-0.8-0.1-1.2-0.3s-0.6-0.5-0.8-0.8s-0.3-0.7-0.3-1.1s0.1-0.8,0.3-1.2s0.5-0.6,0.8-0.8S54.3,380.3,54.7,380.3z M54.7,381
		c-0.3,0-0.6,0.1-0.8,0.2s-0.4,0.3-0.5,0.6s-0.2,0.5-0.2,0.8s0.1,0.5,0.2,0.8s0.3,0.4,0.5,0.6s0.5,0.2,0.8,0.2s0.6-0.1,0.8-0.2
		s0.4-0.3,0.5-0.6s0.2-0.5,0.2-0.8s-0.1-0.6-0.2-0.8s-0.3-0.4-0.5-0.6S55.1,381,54.7,381z"/>
	<path d="M60.2,380.3c0.4,0,0.8,0.1,1.2,0.3s0.6,0.5,0.8,0.8s0.3,0.7,0.3,1.2s-0.1,0.8-0.3,1.1s-0.5,0.6-0.8,0.8s-0.7,0.3-1.2,0.3
		s-0.8-0.1-1.2-0.3s-0.6-0.5-0.8-0.8s-0.3-0.7-0.3-1.1s0.1-0.8,0.3-1.2s0.5-0.6,0.8-0.8S59.8,380.3,60.2,380.3z M60.2,381
		c-0.3,0-0.6,0.1-0.8,0.2s-0.4,0.3-0.5,0.6s-0.2,0.5-0.2,0.8s0.1,0.5,0.2,0.8s0.3,0.4,0.5,0.6s0.5,0.2,0.8,0.2s0.6-0.1,0.8-0.2
		s0.4-0.3,0.5-0.6s0.2-0.5,0.2-0.8s-0.1-0.6-0.2-0.8s-0.3-0.4-0.5-0.6S60.5,381,60.2,381z"/>
	<path d="M67.7,378.5v6.3H67V384c-0.2,0.2-0.4,0.4-0.6,0.6s-0.6,0.3-0.9,0.3c-0.4,0-0.7-0.1-1-0.3s-0.6-0.5-0.7-0.8
		s-0.3-0.7-0.3-1.2s0.1-0.9,0.3-1.3s0.4-0.6,0.8-0.8s0.7-0.3,1.1-0.3c0.3,0,0.5,0.1,0.8,0.2s0.5,0.3,0.7,0.5v-2.5L67.7,378.5
		L67.7,378.5z M65.6,381c-0.3,0-0.6,0.1-0.8,0.2s-0.4,0.4-0.5,0.6s-0.2,0.5-0.2,0.8s0.1,0.5,0.2,0.8s0.3,0.4,0.5,0.6
		s0.5,0.2,0.7,0.2c0.3,0,0.5-0.1,0.7-0.2s0.4-0.3,0.5-0.6s0.2-0.5,0.2-0.8v-0.8c-0.2-0.2-0.4-0.4-0.6-0.5S65.9,381,65.6,381z"/>
	<path d="M73.6,380.3c0.3,0,0.5,0.1,0.8,0.2s0.5,0.3,0.7,0.5v-0.6h0.7v4.4H75V384c-0.2,0.2-0.4,0.4-0.6,0.6s-0.6,0.3-0.9,0.3
		c-0.4,0-0.7-0.1-1-0.3s-0.6-0.5-0.7-0.8s-0.3-0.7-0.3-1.2s0.1-0.9,0.3-1.3s0.4-0.6,0.8-0.8S73.2,380.3,73.6,380.3z M73.7,381
		c-0.3,0-0.6,0.1-0.8,0.2s-0.4,0.4-0.5,0.6s-0.2,0.5-0.2,0.8s0.1,0.5,0.2,0.8s0.3,0.4,0.5,0.6s0.5,0.2,0.7,0.2
		c0.3,0,0.5-0.1,0.7-0.2s0.4-0.3,0.5-0.6s0.2-0.5,0.2-0.8v-0.8c-0.2-0.2-0.4-0.4-0.6-0.5S74,381,73.7,381z"/>
	<path d="M78,380.4v0.7c0.1-0.1,0.2-0.2,0.4-0.4s0.3-0.2,0.5-0.3s0.4-0.1,0.6-0.1c0.3,0,0.6,0.1,0.8,0.2s0.4,0.3,0.6,0.6
		s0.2,0.6,0.2,1v2.7h-0.7v-2.6c0-0.4-0.1-0.7-0.3-0.9s-0.4-0.3-0.8-0.3c-0.2,0-0.5,0.1-0.7,0.3s-0.4,0.4-0.6,0.6v2.9h-0.7v-4.4
		L78,380.4L78,380.4z"/>
	<path d="M86.4,378.5v6.3h-0.7V384c-0.2,0.2-0.4,0.4-0.6,0.6s-0.6,0.3-0.9,0.3c-0.4,0-0.7-0.1-1-0.3s-0.6-0.5-0.7-0.8
		s-0.3-0.7-0.3-1.2s0.1-0.9,0.3-1.3s0.4-0.6,0.8-0.8s0.7-0.3,1.1-0.3c0.3,0,0.5,0.1,0.8,0.2s0.5,0.3,0.7,0.5v-2.5L86.4,378.5
		L86.4,378.5z M84.3,381c-0.3,0-0.6,0.1-0.8,0.2s-0.4,0.4-0.5,0.6s-0.2,0.5-0.2,0.8s0.1,0.5,0.2,0.8s0.3,0.4,0.5,0.6
		s0.5,0.2,0.7,0.2c0.3,0,0.5-0.1,0.7-0.2s0.4-0.3,0.5-0.6s0.2-0.5,0.2-0.8v-0.8c-0.2-0.2-0.4-0.4-0.6-0.5S84.6,381,84.3,381z"/>
	<path d="M91.2,378.5v6.3h-0.7v-6.3H91.2z"/>
	<path d="M93.9,380.4v4.4h-0.7v-3.7h-0.7v-0.7L93.9,380.4L93.9,380.4z M93.4,378.3c0.2,0,0.3,0.1,0.4,0.2s0.2,0.3,0.2,0.4
		c0,0.2-0.1,0.3-0.2,0.4s-0.3,0.2-0.4,0.2s-0.3-0.1-0.4-0.2s-0.2-0.3-0.2-0.4c0-0.2,0.1-0.3,0.2-0.4
		C93.1,378.3,93.2,378.3,93.4,378.3z"/>
	<path d="M97.7,380.4v0.7h-1.3v3.7h-0.7v-3.7H95v-0.7h0.7v-0.6c0-0.3,0.1-0.6,0.2-0.8s0.3-0.4,0.5-0.5s0.4-0.2,0.6-0.2
		c0.3,0,0.5,0.1,0.7,0.2v0.6c-0.1-0.1-0.2-0.1-0.3-0.1s-0.2,0-0.4,0c-0.2,0-0.4,0.1-0.5,0.2s-0.2,0.4-0.2,0.7v0.5L97.7,380.4
		L97.7,380.4z"/>
	<path d="M100.5,380.3c0.5,0,0.8,0.1,1.1,0.3s0.5,0.4,0.7,0.8c0.1,0.3,0.2,0.7,0.2,1.1v0.4h-3.4c0,0.2,0.1,0.5,0.3,0.7
		s0.3,0.4,0.5,0.5s0.5,0.2,0.7,0.2c0.3,0,0.6-0.1,0.9-0.2s0.5-0.3,0.7-0.5v0.8c-0.1,0.1-0.2,0.2-0.4,0.3s-0.3,0.2-0.6,0.3
		c-0.2,0.1-0.4,0.1-0.7,0.1c-0.4,0-0.8-0.1-1.2-0.3s-0.6-0.5-0.8-0.8c-0.2-0.3-0.3-0.7-0.3-1.1s0.1-0.8,0.3-1.2s0.4-0.6,0.8-0.8
		S100.1,380.3,100.5,380.3z M100.5,381c-0.4,0-0.7,0.1-0.9,0.4s-0.4,0.5-0.4,0.9h2.6c0-0.3-0.1-0.5-0.2-0.7s-0.3-0.3-0.5-0.4
		S100.7,381,100.5,381z"/>
	<path d="M107.6,380.3c0.3,0,0.5,0,0.7,0.1s0.4,0.1,0.5,0.2v0.8c-0.1-0.1-0.3-0.2-0.5-0.3s-0.4-0.1-0.7-0.1c-0.3,0-0.5,0.1-0.6,0.2
		s-0.2,0.3-0.2,0.4s0,0.2,0.1,0.3c0.1,0.1,0.2,0.2,0.4,0.3l0.7,0.3c0.3,0.1,0.5,0.2,0.6,0.4s0.2,0.4,0.2,0.7c0,0.2-0.1,0.5-0.2,0.7
		s-0.3,0.4-0.6,0.5c-0.2,0.1-0.5,0.2-0.8,0.2c-0.2,0-0.3,0-0.5-0.1c-0.2,0-0.4-0.1-0.5-0.2s-0.3-0.1-0.3-0.2v-0.8
		c0.1,0.1,0.2,0.1,0.3,0.2c0.1,0.1,0.3,0.1,0.5,0.2s0.3,0.1,0.5,0.1c0.3,0,0.5-0.1,0.7-0.2s0.2-0.3,0.2-0.5c0-0.1-0.1-0.3-0.2-0.3
		c-0.1-0.1-0.3-0.2-0.5-0.2l-0.7-0.2c-0.3-0.1-0.6-0.3-0.7-0.5s-0.2-0.4-0.2-0.7c0-0.4,0.1-0.7,0.4-0.9S107.2,380.3,107.6,380.3z"/>
	<path d="M111.3,379.1v1.3h1.3v0.7h-1.3v2.6c0,0.2,0,0.3,0.1,0.4s0.2,0.2,0.4,0.2c0.2,0,0.3,0,0.4-0.1s0.2-0.1,0.3-0.1v0.6
		c-0.1,0.1-0.2,0.2-0.4,0.2c-0.1,0.1-0.3,0.1-0.5,0.1c-0.4,0-0.7-0.1-0.8-0.3c-0.2-0.2-0.3-0.5-0.3-0.9v-2.6h-0.8V381
		c0.3-0.1,0.5-0.3,0.7-0.6s0.4-0.7,0.5-1.1h0.4C111.3,379.3,111.3,379.1,111.3,379.1z"/>
	<path d="M114.1,380.4l1.5,3.2l1.5-3.2h0.9l-3.2,6.5H114l1.3-2.4l-1.9-4.1H114.1z"/>
	<path d="M119.6,378.5v6.3h-0.7v-6.3H119.6z"/>
	<path d="M122.9,380.3c0.5,0,0.8,0.1,1.1,0.3s0.5,0.4,0.7,0.8c0.1,0.3,0.2,0.7,0.2,1.1v0.4h-3.4c0,0.2,0.1,0.5,0.3,0.7
		s0.3,0.4,0.5,0.5s0.5,0.2,0.7,0.2c0.3,0,0.6-0.1,0.9-0.2s0.5-0.3,0.7-0.5v0.8c-0.1,0.1-0.2,0.2-0.4,0.3s-0.3,0.2-0.6,0.3
		c-0.2,0.1-0.4,0.1-0.7,0.1c-0.4,0-0.8-0.1-1.2-0.3s-0.6-0.5-0.8-0.8c-0.2-0.3-0.3-0.7-0.3-1.1s0.1-0.8,0.3-1.2s0.4-0.6,0.8-0.8
		S122.5,380.3,122.9,380.3z M122.9,381c-0.4,0-0.7,0.1-0.9,0.4s-0.4,0.5-0.4,0.9h2.6c0-0.3-0.1-0.5-0.2-0.7s-0.3-0.3-0.5-0.4
		S123.1,381,122.9,381z"/>
</g>
</svg>
