<?xml version="1.0" encoding="utf-8"?>
<!-- Generator: Adobe Illustrator 25.0.1, SVG Export Plug-In . SVG Version: 6.00 Build 0)  -->
<svg version="1.1" id="_x30_1_brand_attributes" xmlns="http://www.w3.org/2000/svg" xmlns:xlink="http://www.w3.org/1999/xlink"
	 x="0px" y="0px" viewBox="0 0 94.2 94.2" style="enable-background:new 0 0 94.2 94.2;" xml:space="preserve">
<style type="text/css">
	.st0{fill:#010101;}
</style>
<g>
	<path class="st0" d="M47.1,1c25.4,0,46.1,20.7,46.1,46.1S72.5,93.2,47.1,93.2S1,72.5,1,47.1S21.7,1,47.1,1 M47.1,0
		C21.1,0,0,21.1,0,47.1s21.1,47.1,47.1,47.1s47.1-21.1,47.1-47.1S73.1,0,47.1,0L47.1,0z"/>
</g>
<g>
	<g>
		<path class="st0" d="M71.7,36.6c1.4-1.6,2.3-3.7,2.4-6l0.2-3c0.2-2.8-0.8-5.6-2.8-7.7c-1.9-2.1-4.6-3.2-7.4-3.2h-0.4
			c-2.8,0-5.6,1.2-7.4,3.2c-1.9,2.1-2.9,4.9-2.8,7.7l0.2,3c0.2,2.3,1,4.4,2.4,6c-3.8,1.6-6.4,5.2-6.4,9.6v13.7h-5.3V46.1
			c0-4.3-2.6-8-6.4-9.6c1.4-1.6,2.3-3.7,2.4-6l0.2-3c0.2-2.8-0.8-5.6-2.8-7.7s-4.6-3.2-7.4-3.2h-0.4c-2.8,0-5.6,1.2-7.4,3.2
			c-1.9,2.1-2.9,4.9-2.8,7.7l0.2,3c0.2,2.3,1,4.4,2.4,6c-3.8,1.6-6.4,5.2-6.4,9.6v20.6c0,3,2.4,5.5,5.5,5.5H39c3,0,5.5-2.4,5.5-5.5
			v-3.3h5.3v3.3c0,3,2.4,5.5,5.5,5.5h17.4c3,0,5.5-2.4,5.5-5.5V46.1C78.2,41.8,75.5,38.1,71.7,36.6z M25.3,22.4
			c1.2-1.3,3-2.1,4.8-2.1h0.4c1.8,0,3.6,0.8,4.8,2.1c1.2,1.3,1.9,3.1,1.8,5l-0.2,3c-0.2,3.5-3.1,6.2-6.6,6.2c-3.5,0-6.4-2.7-6.6-6.2
			l-0.2-3C23.4,25.5,24,23.7,25.3,22.4z M34.9,39.5l-0.8,0.9c-1,1.1-2.4,1.8-3.9,1.8s-3-0.6-3.9-1.8l-0.8-0.9
			c0.3-0.1,0.5-0.1,0.8-0.1h0.1c1.2,0.5,2.4,0.7,3.8,0.7c1.3,0,2.6-0.3,3.8-0.7h0.1C34.4,39.4,34.7,39.4,34.9,39.5z M40.8,66.7
			c0,1-0.8,1.8-1.8,1.8H21.5c-1,0-1.8-0.8-1.8-1.8V46.1c0-2.1,0.9-3.9,2.4-5.1l1.5,1.7c1.7,1.9,4.1,3,6.7,3c2.5,0,5-1.1,6.7-3
			l1.5-1.7c1.5,1.2,2.4,3,2.4,5.1v13.7h-7c-1.5,0-2.6-1.2-2.6-2.6V55c0-1-0.8-1.8-1.8-1.8c-1,0-1.8,0.8-1.8,1.8v2.1
			c0,3.5,2.8,6.3,6.3,6.3h7L40.8,66.7L40.8,66.7z M58.9,22.4c1.2-1.3,3-2.1,4.8-2.1h0.4c1.8,0,3.6,0.8,4.8,2.1
			c1.2,1.3,1.9,3.1,1.8,5l-0.2,3c-0.2,3.5-3.1,6.2-6.6,6.2c-3.5,0-6.4-2.7-6.6-6.2l-0.2-3C57,25.5,57.7,23.7,58.9,22.4z M68.7,39.5
			l-0.8,0.9c-1,1.1-2.4,1.8-3.9,1.8s-3-0.6-3.9-1.8l-0.8-0.9c0.3-0.1,0.5-0.1,0.8-0.1h0.1c1.2,0.5,2.4,0.7,3.8,0.7s2.6-0.3,3.8-0.7
			h0.1C68.1,39.4,68.4,39.4,68.7,39.5z M74.5,66.7c0,1-0.8,1.8-1.8,1.8H55.3c-1,0-1.8-0.8-1.8-1.8v-3.3h7.2c3.5,0,6.3-2.8,6.3-6.3
			v-1.5l2,2c0.7,0.7,1.8,0.7,2.6,0c0.7-0.7,0.7-1.8,0-2.6l-5.4-5.4c-0.3-0.3-0.8-0.5-1.3-0.5s-1,0.2-1.3,0.5l-5.4,5.4
			c-0.7,0.7-0.7,1.8,0,2.6c0.4,0.4,0.8,0.5,1.3,0.5s0.9-0.2,1.3-0.5l2.6-2.6v2.1c0,1.5-1.2,2.6-2.6,2.6h-7.2V46.1
			c0-2.1,0.9-3.9,2.4-5.1l1.5,1.7c1.7,1.9,4.1,3,6.7,3c2.5,0,5-1.1,6.7-3l1.5-1.7c1.5,1.2,2.4,3,2.4,5.1L74.5,66.7L74.5,66.7z"/>
	</g>
</g>
</svg>
