<?xml version="1.0" encoding="utf-8"?>
<!-- Generator: Adobe Illustrator 25.0.1, SVG Export Plug-In . SVG Version: 6.00 Build 0)  -->
<svg version="1.1" id="_x30_1_brand_attributes" xmlns="http://www.w3.org/2000/svg" xmlns:xlink="http://www.w3.org/1999/xlink"
	 x="0px" y="0px" viewBox="0 0 94.2 94.2" style="enable-background:new 0 0 94.2 94.2;" xml:space="preserve">
<style type="text/css">
	.st0{fill:#010101;}
	.st1{fill:none;}
	.st2{fill:none;stroke:#000000;stroke-width:5;stroke-miterlimit:10;}
</style>
<g>
	<path class="st0" d="M47.1,1c25.4,0,46.1,20.7,46.1,46.1S72.5,93.2,47.1,93.2S1,72.5,1,47.1S21.7,1,47.1,1 M47.1,0
		C21.1,0,0,21.1,0,47.1s21.1,47.1,47.1,47.1s47.1-21.1,47.1-47.1S73.1,0,47.1,0L47.1,0z"/>
</g>
<g>
	<rect x="15.4" y="19.1" class="st1" width="45.3" height="24.3"/>
	<path d="M23.2,20.1c1.5,0,2.8,0.2,3.9,0.7c1.1,0.5,2.1,1.1,2.7,2c0.7,0.8,1,1.9,1,3c0,1.3-0.4,2.4-1.1,3.1
		c-0.7,0.8-1.6,1.3-2.7,1.4c1.1,0.2,2,0.7,2.7,1.3c0.7,0.7,1.1,1.8,1.1,3.1c0,1.2-0.4,2.2-1.1,3.1s-1.6,1.6-2.8,2.1
		c-1.2,0.5-2.5,0.7-3.9,0.7c-1,0-1.9-0.1-2.8-0.4s-1.6-0.6-2.2-1v-4.8c0.7,0.4,1.3,0.8,2,1c0.7,0.2,1.3,0.4,2.1,0.4
		c0.8,0,1.6-0.2,2.2-0.5c0.6-0.3,0.9-0.8,0.9-1.6c0-0.4-0.1-0.8-0.4-1c-0.3-0.2-0.7-0.4-1.1-0.4c-0.5-0.1-1-0.1-1.5-0.1h-1.5v-4h1.5
		c0.5,0,1,0,1.5,0s0.8-0.1,1.1-0.2c0.3-0.2,0.4-0.5,0.4-1c0-0.7-0.3-1.3-1-1.6c-0.6-0.3-1.3-0.5-2.1-0.5c-1.3,0-2.5,0.5-3.6,1.5
		v-4.8c0.5-0.5,1.1-0.8,1.9-1.2C21.2,20.3,22.1,20.1,23.2,20.1z"/>
	<path d="M42,20.1c1.7,0,3.1,0.4,4.3,1.3s2,2.1,2.6,3.6c0.6,1.6,0.9,3.4,0.9,5.4c0,2.1-0.3,3.9-0.9,5.4c-0.6,1.6-1.5,2.7-2.6,3.6
		s-2.6,1.3-4.3,1.3c-1.7,0-3.1-0.4-4.3-1.3c-1.1-0.8-2-2.1-2.6-3.6c-0.6-1.6-0.9-3.4-0.9-5.4c0-2.1,0.3-3.9,0.9-5.4
		c0.6-1.6,1.5-2.7,2.6-3.6C38.9,20.5,40.3,20.1,42,20.1z M42,24.7c-0.7,0-1.3,0.5-1.6,1.5c-0.4,1-0.5,2.4-0.5,4.4s0.2,3.3,0.5,4.3
		c0.4,1,0.8,1.5,1.6,1.5s1.3-0.5,1.6-1.5c0.3-1,0.5-2.4,0.5-4.3c0-1.9-0.2-3.4-0.5-4.4C43.3,25.2,42.7,24.7,42,24.7z"/>
</g>
<g>
	<rect x="38.4" y="51.7" class="st1" width="39.9" height="26.8"/>
	<path d="M52.5,53.2c-1.2,1.1-2.3,2.2-3.4,3.3s-2,2.2-2.7,3.5c0.4-0.3,0.8-0.4,1.2-0.5c0.4-0.1,0.7-0.1,1.1-0.1
		c1.1,0,2.1,0.2,3.1,0.8s1.8,1.3,2.4,2.3c0.6,1,0.9,2.1,0.9,3.5c0,1.5-0.4,2.8-1,3.9c-0.7,1.1-1.6,2-2.8,2.6
		c-1.1,0.6-2.5,0.9-3.9,0.9c-1.3,0-2.5-0.3-3.7-0.9c-1.1-0.6-2.1-1.5-2.8-2.6c-0.7-1.1-1.1-2.5-1.1-4c0-1.3,0.2-2.6,0.7-3.9
		c0.4-1.3,1-2.4,1.7-3.6c0.7-1.1,1.4-2.1,2.1-3s1.5-1.6,2.1-2.2L52.5,53.2L52.5,53.2z M47.3,64c-0.6,0-1.1,0.2-1.5,0.7
		s-0.5,1-0.5,1.6s0.2,1.1,0.5,1.6c0.4,0.4,0.8,0.7,1.5,0.7c0.6,0,1.1-0.2,1.5-0.7c0.4-0.4,0.5-1,0.5-1.6s-0.2-1.1-0.5-1.6
		C48.4,64.3,47.9,64,47.3,64z"/>
	<path d="M65,52.7c1.7,0,3.1,0.4,4.3,1.3c1.1,0.8,2,2.1,2.6,3.6c0.6,1.6,0.9,3.4,0.9,5.4c0,2.1-0.3,3.9-0.9,5.4
		c-0.6,1.6-1.5,2.7-2.6,3.6c-1.1,0.9-2.6,1.3-4.3,1.3c-1.7,0-3.1-0.4-4.3-1.3c-1.1-0.8-2-2.1-2.6-3.6c-0.6-1.6-0.9-3.4-0.9-5.4
		c0-2.1,0.3-3.9,0.9-5.4c0.6-1.6,1.5-2.7,2.6-3.6C61.8,53,63.3,52.7,65,52.7z M65,57.3c-0.7,0-1.3,0.5-1.6,1.5
		c-0.4,1-0.5,2.4-0.5,4.4c0,1.9,0.2,3.3,0.5,4.3c0.4,1,0.8,1.5,1.6,1.5s1.3-0.5,1.6-1.5c0.3-1,0.5-2.4,0.5-4.3
		c0-1.9-0.2-3.4-0.5-4.4C66.2,57.8,65.7,57.3,65,57.3z"/>
</g>
<g>
	<g>
		<line class="st2" x1="26" y1="45.7" x2="26" y2="69.4"/>
		<g>
			<polygon points="20.9,63.4 26,68.5 31.1,63.4 31.1,67.7 26,72.9 20.9,67.7 			"/>
		</g>
	</g>
</g>
<g>
	<line class="st1" x1="63.3" y1="46.3" x2="63.3" y2="19.1"/>
	<g>
		<line class="st2" x1="63.3" y1="46.3" x2="63.3" y2="22.5"/>
		<g>
			<polygon points="68.5,28.6 63.3,23.4 58.3,28.6 58.3,24.2 63.3,19.1 68.5,24.2 			"/>
		</g>
	</g>
</g>
</svg>
