<?xml version="1.0" encoding="utf-8"?>
<!-- Generator: Adobe Illustrator 25.0.1, SVG Export Plug-In . SVG Version: 6.00 Build 0)  -->
<svg version="1.1" id="_x30_1_brand_attributes" xmlns="http://www.w3.org/2000/svg" xmlns:xlink="http://www.w3.org/1999/xlink"
	 x="0px" y="0px" viewBox="0 0 94.2 94.2" style="enable-background:new 0 0 94.2 94.2;" xml:space="preserve">
<style type="text/css">
	.st0{fill:#010101;}
</style>
<g>
	<g>
		<path class="st0" d="M72.1,55.3c-1.2,0-2.1,0.9-2.1,2.1c0,1.2,0.9,2.1,2.1,2.1s2.1-0.9,2.1-2.1C74.2,56.2,73.2,55.3,72.1,55.3z
			 M72.1,47c-5.7,0-10.4,4.7-10.4,10.4c0,5,3.5,9.2,8.2,10.2c-0.9,7.2-7,12.7-14.5,12.7c-8,0-14.6-6.5-14.6-14.6v-3.2
			c13.8-11.7,20.8-16.1,20.8-28.2v-6.3c0-5.1-3.7-9.4-8.7-10.3c-0.8-2.5-3.2-4.3-5.9-4.3c-3.5,0-6.2,2.8-6.2,6.2s2.8,6.2,6.2,6.2
			c2.7,0,4.9-1.6,5.8-3.9c2.7,0.7,4.6,3.2,4.6,6v6.3c0,7.2-2.9,11-9.6,16.8H29.6c-6.7-5.9-9.6-9.6-9.6-16.8v-6.3c0-2.9,2-5.3,4.6-6
			c0.9,2.3,3.2,3.9,5.8,3.9c3.5,0,6.2-2.8,6.2-6.2s-2.8-6.2-6.2-6.2c-2.8,0-5.1,1.8-5.9,4.3c-4.9,0.9-8.7,5.1-8.7,10.3v6.3
			c0,5.2,1.3,9.2,4.3,13.1c3.4,4.5,8.8,8.6,16.6,15.1v3.2c0,10.3,8.4,18.7,18.7,18.7c9.7,0,17.7-7.4,18.6-16.8
			c4.8-0.9,8.4-5.1,8.4-10.2C82.5,51.6,77.9,47,72.1,47z M47.1,21.7c-1.2,0-2.1-0.9-2.1-2.1c0-1.2,0.9-2.1,2.1-2.1
			c1.2,0,2.1,0.9,2.1,2.1C49.2,20.8,48.3,21.7,47.1,21.7z M30.5,17.6c1.2,0,2.1,0.9,2.1,2.1s-0.9,2.1-2.1,2.1s-2.1-0.9-2.1-2.1
			S29.4,17.6,30.5,17.6z M34.6,55.3H43c-1.4,1.2-2.8,2.3-4.2,3.5C37.4,57.6,36,56.5,34.6,55.3z M72.1,63.6c-3.5,0-6.2-2.8-6.2-6.2
			s2.8-6.2,6.2-6.2c3.5,0,6.2,2.8,6.2,6.2S75.6,63.6,72.1,63.6z"/>
	</g>
</g>
<g>
	<path class="st0" d="M47.1,1c25.4,0,46.1,20.7,46.1,46.1S72.5,93.2,47.1,93.2S1,72.5,1,47.1S21.7,1,47.1,1 M47.1,0
		C21.1,0,0,21.1,0,47.1s21.1,47.1,47.1,47.1s47.1-21.1,47.1-47.1S73.1,0,47.1,0L47.1,0z"/>
</g>
</svg>
