<?xml version="1.0" encoding="utf-8"?>
<!-- Generator: Adobe Illustrator 22.0.0, SVG Export Plug-In . SVG Version: 6.00 Build 0)  -->
<svg version="1.1" xmlns="http://www.w3.org/2000/svg" xmlns:xlink="http://www.w3.org/1999/xlink" x="0px" y="0px"
	 viewBox="0 0 841.9 473.3" style="enable-background:new 0 0 841.9 473.3;" xml:space="preserve">
<style type="text/css">
	.st0{fill:#F3F3F4;stroke:#000000;stroke-width:5.5534;stroke-miterlimit:10;}
	.st1{fill:none;stroke:#000000;stroke-width:2.7907;stroke-miterlimit:10;}
	.st2{fill:none;stroke:#000000;stroke-miterlimit:10;}
	.st3{fill:#FFFFFF;}
	.st4{fill:#010101;}
	.st5{fill:none;}
	.st6{fill:none;stroke:#000000;stroke-width:5;stroke-miterlimit:10;}
	.st7{clip-path:url(#SVGID_2_);fill:#010101;}
	.st8{fill:#DDDDDD;}
	.st9{clip-path:url(#SVGID_4_);fill:#010101;}
	.st10{clip-path:url(#SVGID_6_);fill:#010101;}
	.st11{clip-path:url(#SVGID_8_);fill:#010101;}
	.st12{clip-path:url(#SVGID_10_);fill:#010101;}
	.st13{clip-path:url(#SVGID_12_);fill:#010101;}
	.st14{clip-path:url(#SVGID_14_);fill:#010101;}
	.st15{clip-path:url(#SVGID_16_);fill:#010101;}
	.st16{clip-path:url(#SVGID_18_);fill:#010101;}
	.st17{clip-path:url(#SVGID_20_);fill:#010101;}
	.st18{clip-path:url(#SVGID_22_);fill:#010101;}
	.st19{clip-path:url(#SVGID_24_);fill:#010101;}
	.st20{clip-path:url(#SVGID_26_);fill:#010101;}
	.st21{fill:#CC95C3;}
	.st22{fill:#ED2024;}
	.st23{fill:#F8991D;}
	.st24{clip-path:url(#SVGID_28_);fill:#F8991D;}
	.st25{clip-path:url(#SVGID_30_);fill:#010101;}
	.st26{clip-path:url(#SVGID_32_);fill:#010101;}
	.st27{clip-path:url(#SVGID_34_);fill:#010101;}
	.st28{clip-path:url(#SVGID_36_);fill:#010101;}
	.st29{clip-path:url(#SVGID_38_);fill:#010101;}
	.st30{clip-path:url(#SVGID_40_);}
	.st31{clip-path:url(#SVGID_44_);}
	.st32{clip-path:url(#SVGID_48_);fill:#F8991D;}
	.st33{clip-path:url(#SVGID_50_);fill:#F8991D;}
	.st34{clip-path:url(#SVGID_52_);fill:#010101;}
	.st35{clip-path:url(#SVGID_54_);fill:#F8991D;}
	.st36{clip-path:url(#SVGID_56_);fill:#010101;}
	.st37{clip-path:url(#SVGID_58_);fill:#010101;}
	.st38{clip-path:url(#SVGID_60_);}
	.st39{clip-path:url(#SVGID_64_);}
	.st40{clip-path:url(#SVGID_68_);}
	.st41{clip-path:url(#SVGID_72_);}
	.st42{clip-path:url(#SVGID_76_);fill:#F8991D;}
	.st43{clip-path:url(#SVGID_78_);fill:#F8991D;}
	.st44{clip-path:url(#SVGID_80_);fill:#F8991D;}
	.st45{clip-path:url(#SVGID_82_);fill:#F8991D;}
	.st46{clip-path:url(#SVGID_84_);fill:#F8991D;}
	.st47{clip-path:url(#SVGID_86_);fill:#F8991D;}
	.st48{clip-path:url(#SVGID_88_);}
	.st49{clip-path:url(#SVGID_92_);}
	.st50{clip-path:url(#SVGID_96_);}
	.st51{clip-path:url(#SVGID_100_);}
	.st52{clip-path:url(#SVGID_104_);}
	.st53{clip-path:url(#SVGID_108_);}
	.st54{clip-path:url(#SVGID_112_);}
	.st55{clip-path:url(#SVGID_116_);fill:#010101;}
	.st56{clip-path:url(#SVGID_118_);fill:#010101;}
	.st57{clip-path:url(#SVGID_120_);fill:#010101;}
	.st58{clip-path:url(#SVGID_122_);fill:#010101;}
	.st59{clip-path:url(#SVGID_124_);fill:#010101;}
	.st60{clip-path:url(#SVGID_126_);fill:#010101;}
	.st61{clip-path:url(#SVGID_128_);fill:#010101;}
	.st62{clip-path:url(#SVGID_130_);fill:#010101;}
	.st63{clip-path:url(#SVGID_132_);fill:#010101;}
	.st64{clip-path:url(#SVGID_134_);fill:#010101;}
	.st65{fill:#6353A3;}
</style>
<g id="Layer_2">
</g>
<g id="_x30_1_brand_attributes">
	<g>
		<rect x="37.3" y="29.6" class="st4" width="76.3" height="20.2"/>
		<path class="st3" d="M87.7,39.9h-2.9v2.3h3.3v0.7h-4.2v-6.6h4.1v0.7h-3.3v2.1h2.9V39.9z M77,36.4l2.2,5.4l2.2-5.4h1.1v6.6h-0.9
			v-2.6l0.1-2.8l-2.2,5.3h-0.7l-2.2-5.3l0.1,2.8v2.6h-0.9v-6.6H77z M73.7,39.4c0-0.8-0.2-1.4-0.5-1.8c-0.3-0.4-0.8-0.6-1.3-0.6
			c-0.5,0-1,0.2-1.3,0.6c-0.3,0.4-0.5,1-0.5,1.7v0.5c0,0.8,0.2,1.4,0.5,1.8c0.3,0.4,0.8,0.6,1.3,0.6c0.6,0,1-0.2,1.3-0.6
			c0.3-0.4,0.5-1,0.5-1.8V39.4z M74.6,39.9c0,0.6-0.1,1.2-0.3,1.7c-0.2,0.5-0.5,0.8-0.9,1.1S72.4,43,71.9,43c-0.5,0-1-0.1-1.4-0.4
			c-0.4-0.3-0.7-0.6-0.9-1.1c-0.2-0.5-0.3-1-0.3-1.6v-0.5c0-0.6,0.1-1.2,0.3-1.7c0.2-0.5,0.5-0.9,0.9-1.1c0.4-0.3,0.9-0.4,1.4-0.4
			c0.5,0,1,0.1,1.4,0.4c0.4,0.3,0.7,0.6,0.9,1.1c0.2,0.5,0.3,1,0.3,1.7V39.9z M68,42.9h-0.9v-3h-3.3v3h-0.9v-6.6h0.9v2.8h3.3v-2.8
			H68V42.9z"/>
		<g>
			<defs>
				<rect id="SVGID_115_" x="19.9" y="77.1" width="111" height="48.6"/>
			</defs>
			<clipPath id="SVGID_2_">
				<use xlink:href="#SVGID_115_"  style="overflow:visible;"/>
			</clipPath>
			<path class="st7" d="M20.5,125.6V77.1h-1.2v48.6H20.5z M130.9,125.1h-111v1.2h111V125.1z M130.4,77.1v48.6h1.2V77.1H130.4z
				 M19.9,77.6h111v-1.2h-111V77.6z M19.9,125.6h-0.6v0.6h0.6V125.6z M130.9,125.6v0.6h0.6v-0.6H130.9z M130.9,77.1h0.6v-0.6h-0.6
				V77.1z M19.9,77.1v-0.6h-0.6v0.6H19.9z"/>
		</g>
		<path class="st4" d="M81.4,90.9c0,0.5,0.1,1,0.4,1.3c0.3,0.3,0.6,0.5,1,0.5c0.4,0,0.8-0.2,1-0.5c0.2-0.3,0.4-0.8,0.4-1.4
			c0-0.5-0.1-1-0.4-1.3c-0.3-0.3-0.6-0.5-1-0.5c-0.4,0-0.7,0.2-1,0.5C81.5,89.8,81.4,90.3,81.4,90.9z M80.6,90.8
			c0-0.5,0.1-0.9,0.3-1.3c0.2-0.4,0.5-0.7,0.8-0.9c0.3-0.2,0.7-0.3,1.2-0.3c0.7,0,1.2,0.2,1.6,0.7c0.4,0.5,0.6,1.1,0.6,1.8v0.1
			c0,0.5-0.1,0.9-0.3,1.3c-0.2,0.4-0.4,0.7-0.8,0.9c-0.3,0.2-0.7,0.3-1.2,0.3c-0.7,0-1.2-0.2-1.6-0.7C80.8,92.2,80.6,91.6,80.6,90.8
			L80.6,90.8z M80.1,89.1c-0.1,0-0.3,0-0.4,0c-0.5,0-0.9,0.2-1.1,0.7v3.5h-0.8v-4.9h0.8l0,0.6c0.3-0.4,0.7-0.7,1.2-0.7
			c0.2,0,0.3,0,0.4,0.1V89.1z M74.8,89c-0.3,0-0.6,0.1-0.8,0.4c-0.2,0.2-0.4,0.6-0.4,1h2.4v-0.1c0-0.4-0.1-0.8-0.3-1
			C75.4,89.1,75.1,89,74.8,89z M74.9,93.3c-0.7,0-1.2-0.2-1.6-0.7c-0.4-0.4-0.6-1-0.6-1.7v-0.2c0-0.5,0.1-0.9,0.3-1.3
			c0.2-0.4,0.4-0.7,0.8-0.9c0.3-0.2,0.7-0.3,1.1-0.3c0.6,0,1.1,0.2,1.5,0.6c0.4,0.4,0.5,1,0.5,1.8v0.3h-3.3c0,0.5,0.2,0.9,0.4,1.2
			c0.3,0.3,0.6,0.4,1,0.4c0.3,0,0.5-0.1,0.7-0.2c0.2-0.1,0.4-0.3,0.5-0.5l0.5,0.4C76.3,93,75.7,93.3,74.9,93.3z M71.4,93.3h-0.9v-3
			h-3.3v3h-0.9v-6.6h0.9v2.8h3.3v-2.8h0.9V93.3z"/>
		<path class="st8" d="M34.4,109.2c0-4.6,3.8-8.4,8.4-8.4h64.8c4.6,0,8.4,3.8,8.4,8.4c0,4.6-3.8,8.4-8.4,8.4H42.8
			C38.1,117.5,34.4,113.8,34.4,109.2z"/>
		<path class="st4" d="M92,108.1l0,0.5c0.3-0.4,0.6-0.5,1.1-0.5c0.8,0,1.2,0.4,1.2,1.3v2.4h-0.6v-2.4c0-0.3-0.1-0.5-0.2-0.6
			c-0.1-0.1-0.3-0.2-0.6-0.2c-0.2,0-0.4,0.1-0.5,0.2c-0.2,0.1-0.3,0.3-0.4,0.4v2.6h-0.6v-3.7H92z M87.9,110c0,0.4,0.1,0.7,0.3,1
			c0.2,0.2,0.4,0.4,0.8,0.4c0.3,0,0.6-0.1,0.8-0.4c0.2-0.3,0.3-0.6,0.3-1.1c0-0.4-0.1-0.7-0.3-1c-0.2-0.3-0.4-0.4-0.8-0.4
			c-0.3,0-0.6,0.1-0.7,0.4C88,109.2,87.9,109.5,87.9,110z M87.3,109.9c0-0.4,0.1-0.7,0.2-1c0.1-0.3,0.3-0.5,0.6-0.7
			c0.3-0.2,0.5-0.2,0.9-0.2c0.5,0,0.9,0.2,1.2,0.5c0.3,0.3,0.5,0.8,0.5,1.4v0c0,0.4-0.1,0.7-0.2,1c-0.1,0.3-0.3,0.5-0.6,0.7
			c-0.3,0.2-0.5,0.2-0.9,0.2c-0.5,0-0.9-0.2-1.2-0.5C87.4,111,87.3,110.5,87.3,109.9L87.3,109.9z M85.7,107.1c0-0.1,0-0.2,0.1-0.3
			c0.1-0.1,0.2-0.1,0.3-0.1c0.1,0,0.2,0,0.3,0.1c0.1,0.1,0.1,0.2,0.1,0.3s0,0.2-0.1,0.3c-0.1,0.1-0.2,0.1-0.3,0.1
			c-0.1,0-0.2,0-0.3-0.1C85.8,107.3,85.7,107.2,85.7,107.1z M86.4,111.8h-0.6v-3.7h0.6V111.8z M84.3,107.2v0.9H85v0.5h-0.7v2.3
			c0,0.1,0,0.3,0.1,0.3c0.1,0.1,0.2,0.1,0.3,0.1c0.1,0,0.2,0,0.3,0v0.5c-0.2,0-0.3,0.1-0.5,0.1c-0.3,0-0.5-0.1-0.6-0.3
			c-0.1-0.2-0.2-0.4-0.2-0.7v-2.3H83v-0.5h0.7v-0.9H84.3z M81.3,111.3c0.2,0,0.4-0.1,0.6-0.2s0.3-0.3,0.3-0.5h0.6
			c0,0.2-0.1,0.4-0.2,0.6c-0.1,0.2-0.3,0.3-0.5,0.5c-0.2,0.1-0.5,0.2-0.7,0.2c-0.5,0-0.9-0.2-1.2-0.5c-0.3-0.3-0.4-0.8-0.4-1.4v-0.1
			c0-0.4,0.1-0.7,0.2-1c0.1-0.3,0.3-0.5,0.6-0.6c0.2-0.2,0.5-0.2,0.9-0.2c0.4,0,0.8,0.1,1,0.4c0.3,0.2,0.4,0.6,0.4,1h-0.6
			c0-0.2-0.1-0.4-0.3-0.6c-0.2-0.2-0.4-0.2-0.6-0.2c-0.3,0-0.6,0.1-0.7,0.3c-0.2,0.2-0.3,0.6-0.3,1v0.1c0,0.4,0.1,0.7,0.3,1
			C80.7,111.2,81,111.3,81.3,111.3z M77.3,111.3c0.2,0,0.4-0.1,0.6-0.2c0.2-0.1,0.3-0.2,0.4-0.4V110h-0.5c-0.8,0-1.2,0.2-1.2,0.7
			c0,0.2,0.1,0.4,0.2,0.5C76.9,111.2,77.1,111.3,77.3,111.3z M78.3,111.8c0-0.1-0.1-0.2-0.1-0.4c-0.3,0.3-0.6,0.5-1,0.5
			c-0.4,0-0.7-0.1-0.9-0.3c-0.2-0.2-0.3-0.5-0.3-0.8c0-0.4,0.1-0.7,0.4-0.9c0.3-0.2,0.7-0.3,1.2-0.3h0.6v-0.3c0-0.2-0.1-0.4-0.2-0.5
			c-0.1-0.1-0.3-0.2-0.6-0.2c-0.2,0-0.4,0.1-0.6,0.2c-0.2,0.1-0.2,0.2-0.2,0.4H76c0-0.2,0.1-0.4,0.2-0.5c0.1-0.2,0.3-0.3,0.5-0.4
			c0.2-0.1,0.5-0.1,0.7-0.1c0.4,0,0.8,0.1,1,0.3c0.2,0.2,0.4,0.5,0.4,0.9v1.7c0,0.3,0,0.6,0.1,0.8v0.1H78.3z M70.8,110
			c0,0.4,0.1,0.7,0.3,1c0.2,0.2,0.4,0.4,0.8,0.4c0.3,0,0.6-0.1,0.8-0.4c0.2-0.3,0.3-0.6,0.3-1.1c0-0.4-0.1-0.7-0.3-1
			c-0.2-0.3-0.4-0.4-0.8-0.4c-0.3,0-0.6,0.1-0.7,0.4C70.9,109.2,70.8,109.5,70.8,110z M70.2,109.9c0-0.4,0.1-0.7,0.2-1
			c0.1-0.3,0.3-0.5,0.6-0.7c0.3-0.2,0.5-0.2,0.9-0.2c0.5,0,0.9,0.2,1.2,0.5c0.3,0.3,0.5,0.8,0.5,1.4v0c0,0.4-0.1,0.7-0.2,1
			c-0.1,0.3-0.3,0.5-0.6,0.7c-0.3,0.2-0.5,0.2-0.9,0.2c-0.5,0-0.9-0.2-1.2-0.5C70.4,111,70.2,110.5,70.2,109.9L70.2,109.9z
			 M69,107.2v0.9h0.7v0.5H69v2.3c0,0.1,0,0.3,0.1,0.3c0.1,0.1,0.2,0.1,0.3,0.1c0.1,0,0.2,0,0.3,0v0.5c-0.2,0-0.3,0.1-0.5,0.1
			c-0.3,0-0.5-0.1-0.6-0.3c-0.1-0.2-0.2-0.4-0.2-0.7v-2.3h-0.7v-0.5h0.7v-0.9H69z M65.4,111.8h-0.6v-5.2h0.6V111.8z M63.8,111.8
			h-0.6v-5.2h0.6V111.8z M60.5,111.3c0.2,0,0.4-0.1,0.6-0.2c0.2-0.1,0.3-0.2,0.4-0.4V110H61c-0.8,0-1.2,0.2-1.2,0.7
			c0,0.2,0.1,0.4,0.2,0.5C60.2,111.2,60.3,111.3,60.5,111.3z M61.6,111.8c0-0.1-0.1-0.2-0.1-0.4c-0.3,0.3-0.6,0.5-1,0.5
			c-0.4,0-0.7-0.1-0.9-0.3c-0.2-0.2-0.3-0.5-0.3-0.8c0-0.4,0.1-0.7,0.4-0.9c0.3-0.2,0.7-0.3,1.2-0.3h0.6v-0.3c0-0.2-0.1-0.4-0.2-0.5
			c-0.1-0.1-0.3-0.2-0.6-0.2c-0.2,0-0.4,0.1-0.6,0.2c-0.2,0.1-0.2,0.2-0.2,0.4h-0.6c0-0.2,0.1-0.4,0.2-0.5c0.1-0.2,0.3-0.3,0.5-0.4
			c0.2-0.1,0.5-0.1,0.7-0.1c0.4,0,0.8,0.1,1,0.3c0.2,0.2,0.4,0.5,0.4,0.9v1.7c0,0.3,0,0.6,0.1,0.8v0.1H61.6z M57.1,111.3
			c0.2,0,0.4-0.1,0.6-0.2s0.3-0.3,0.3-0.5h0.6c0,0.2-0.1,0.4-0.2,0.6c-0.1,0.2-0.3,0.3-0.5,0.5c-0.2,0.1-0.5,0.2-0.7,0.2
			c-0.5,0-0.9-0.2-1.2-0.5c-0.3-0.3-0.4-0.8-0.4-1.4v-0.1c0-0.4,0.1-0.7,0.2-1c0.1-0.3,0.3-0.5,0.6-0.6c0.2-0.2,0.5-0.2,0.9-0.2
			c0.4,0,0.8,0.1,1,0.4c0.3,0.2,0.4,0.6,0.4,1H58c0-0.2-0.1-0.4-0.3-0.6c-0.2-0.2-0.4-0.2-0.6-0.2c-0.3,0-0.6,0.1-0.7,0.3
			c-0.2,0.2-0.3,0.6-0.3,1v0.1c0,0.4,0.1,0.7,0.3,1C56.6,111.2,56.8,111.3,57.1,111.3z"/>
		<g>
			<defs>
				<rect id="SVGID_117_" x="161" y="77.1" width="111" height="48.6"/>
			</defs>
			<clipPath id="SVGID_4_">
				<use xlink:href="#SVGID_117_"  style="overflow:visible;"/>
			</clipPath>
			<path class="st9" d="M161.6,125.6V77.1h-1.2v48.6H161.6z M272,125.1H161v1.2h111V125.1z M271.5,77.1v48.6h1.2V77.1H271.5z
				 M161,77.6h111v-1.2H161V77.6z M161,125.6h-0.6v0.6h0.6V125.6z M272,125.6v0.6h0.6v-0.6H272z M272,77.1h0.6v-0.6H272V77.1z
				 M161,77.1v-0.6h-0.6v0.6H161z"/>
		</g>
		<path class="st4" d="M227.2,98.2v1.2h0.9v0.6h-0.9v3c0,0.2,0,0.3,0.1,0.4c0.1,0.1,0.2,0.1,0.4,0.1c0.1,0,0.2,0,0.4-0.1v0.7
			c-0.2,0.1-0.4,0.1-0.6,0.1c-0.4,0-0.7-0.1-0.8-0.3c-0.2-0.2-0.3-0.5-0.3-1v-3h-0.9v-0.6h0.9v-1.2H227.2z M224,103.8
			c-0.3,0.4-0.8,0.6-1.4,0.6c-0.5,0-0.9-0.2-1.2-0.5c-0.3-0.3-0.4-0.8-0.4-1.3v-3.2h0.8v3.2c0,0.7,0.3,1.1,0.9,1.1
			c0.6,0,1.1-0.2,1.3-0.7v-3.6h0.8v4.9H224L224,103.8z M216.3,101.9c0,0.5,0.1,1,0.4,1.3c0.3,0.3,0.6,0.5,1,0.5c0.4,0,0.8-0.2,1-0.5
			c0.2-0.3,0.4-0.8,0.4-1.4c0-0.5-0.1-1-0.4-1.3c-0.3-0.3-0.6-0.5-1-0.5c-0.4,0-0.7,0.2-1,0.5C216.4,100.8,216.3,101.2,216.3,101.9z
			 M215.5,101.8c0-0.5,0.1-0.9,0.3-1.3c0.2-0.4,0.5-0.7,0.8-0.9c0.3-0.2,0.7-0.3,1.2-0.3c0.7,0,1.2,0.2,1.6,0.7
			c0.4,0.5,0.6,1.1,0.6,1.8v0.1c0,0.5-0.1,0.9-0.3,1.3c-0.2,0.4-0.4,0.7-0.8,0.9c-0.3,0.2-0.7,0.3-1.2,0.3c-0.7,0-1.2-0.2-1.6-0.7
			C215.7,103.2,215.5,102.6,215.5,101.8L215.5,101.8z M213.8,101.8c0-0.6-0.1-1-0.3-1.3c-0.2-0.3-0.5-0.5-0.9-0.5
			c-0.6,0-0.9,0.3-1.2,0.8v2.1c0.3,0.5,0.7,0.8,1.2,0.8c0.4,0,0.7-0.2,0.9-0.5C213.7,102.8,213.8,102.4,213.8,101.8z M214.6,101.9
			c0,0.7-0.2,1.3-0.5,1.8c-0.3,0.5-0.8,0.7-1.4,0.7c-0.6,0-1.1-0.2-1.4-0.7l0,0.6h-0.8v-6.9h0.8v2.6c0.3-0.4,0.8-0.6,1.4-0.6
			c0.6,0,1.1,0.2,1.4,0.7C214.4,100.4,214.6,101,214.6,101.9L214.6,101.9z M205.7,101.8h2.2l-1.1-3.1L205.7,101.8z M208.2,102.5
			h-2.8l-0.6,1.7h-0.9l2.5-6.6h0.8l2.5,6.6h-0.9L208.2,102.5z"/>
		<g>
			<defs>
				<rect id="SVGID_119_" x="574.5" y="77.1" width="111" height="48.6"/>
			</defs>
			<clipPath id="SVGID_6_">
				<use xlink:href="#SVGID_119_"  style="overflow:visible;"/>
			</clipPath>
			<path class="st10" d="M575.1,125.6V77.1h-1.2v48.6H575.1z M685.5,125.1h-111v1.2h111V125.1z M684.9,77.1v48.6h1.2V77.1H684.9z
				 M574.5,77.6h111v-1.2h-111V77.6z M574.5,125.6h-0.6v0.6h0.6V125.6z M685.5,125.6v0.6h0.6v-0.6H685.5z M685.5,77.1h0.6v-0.6h-0.6
				V77.1z M574.5,77.1v-0.6h-0.6v0.6H574.5z"/>
		</g>
		<path class="st4" d="M644.9,98.2v1.2h0.9v0.6h-0.9v3c0,0.2,0,0.3,0.1,0.4c0.1,0.1,0.2,0.1,0.4,0.1c0.1,0,0.2,0,0.4-0.1v0.7
			c-0.2,0.1-0.4,0.1-0.6,0.1c-0.4,0-0.7-0.1-0.8-0.3c-0.2-0.2-0.3-0.5-0.3-1v-3h-0.9v-0.6h0.9v-1.2H644.9z M640.9,103.7
			c0.3,0,0.6-0.1,0.8-0.3c0.2-0.2,0.3-0.4,0.4-0.7h0.8c0,0.3-0.1,0.5-0.3,0.8c-0.2,0.3-0.4,0.5-0.7,0.6c-0.3,0.2-0.6,0.2-0.9,0.2
			c-0.7,0-1.2-0.2-1.6-0.7c-0.4-0.4-0.6-1.1-0.6-1.8v-0.1c0-0.5,0.1-0.9,0.3-1.3c0.2-0.4,0.4-0.7,0.7-0.9c0.3-0.2,0.7-0.3,1.2-0.3
			c0.5,0,1,0.2,1.4,0.5c0.4,0.3,0.6,0.8,0.6,1.3H642c0-0.3-0.1-0.6-0.4-0.8c-0.2-0.2-0.5-0.3-0.8-0.3c-0.4,0-0.8,0.2-1,0.5
			c-0.2,0.3-0.3,0.7-0.3,1.3v0.2c0,0.6,0.1,1,0.3,1.3C640.1,103.5,640.4,103.7,640.9,103.7z M635.5,103.6c0.3,0,0.5-0.1,0.7-0.2
			s0.4-0.3,0.5-0.5v-1h-0.7c-1,0-1.5,0.3-1.5,0.9c0,0.3,0.1,0.5,0.3,0.6C635,103.5,635.2,103.6,635.5,103.6z M636.9,104.2
			c0-0.1-0.1-0.3-0.1-0.5c-0.4,0.4-0.9,0.6-1.4,0.6c-0.5,0-0.9-0.1-1.2-0.4c-0.3-0.3-0.5-0.6-0.5-1c0-0.5,0.2-0.9,0.6-1.2
			c0.4-0.3,0.9-0.4,1.6-0.4h0.8v-0.4c0-0.3-0.1-0.5-0.3-0.7c-0.2-0.2-0.4-0.3-0.8-0.3c-0.3,0-0.5,0.1-0.7,0.2
			c-0.2,0.2-0.3,0.3-0.3,0.5h-0.8c0-0.2,0.1-0.5,0.3-0.7c0.2-0.2,0.4-0.4,0.7-0.5c0.3-0.1,0.6-0.2,1-0.2c0.6,0,1,0.1,1.3,0.4
			c0.3,0.3,0.5,0.7,0.5,1.2v2.2c0,0.4,0.1,0.8,0.2,1.1v0.1H636.9z M632,98.2v1.2h0.9v0.6H632v3c0,0.2,0,0.3,0.1,0.4
			c0.1,0.1,0.2,0.1,0.4,0.1c0.1,0,0.2,0,0.4-0.1v0.7c-0.2,0.1-0.4,0.1-0.6,0.1c-0.4,0-0.7-0.1-0.8-0.3c-0.2-0.2-0.3-0.5-0.3-1v-3
			h-0.9v-0.6h0.9v-1.2H632z M626.5,99.4l0,0.6c0.4-0.5,0.9-0.7,1.5-0.7c1,0,1.6,0.6,1.6,1.7v3.2h-0.8V101c0-0.4-0.1-0.6-0.2-0.8
			c-0.2-0.2-0.4-0.3-0.7-0.3c-0.3,0-0.5,0.1-0.7,0.2c-0.2,0.1-0.4,0.3-0.5,0.6v3.5h-0.8v-4.9H626.5z M621.1,101.9
			c0,0.5,0.1,1,0.4,1.3c0.3,0.3,0.6,0.5,1,0.5c0.4,0,0.8-0.2,1-0.5c0.2-0.3,0.4-0.8,0.4-1.4c0-0.5-0.1-1-0.4-1.3
			c-0.3-0.3-0.6-0.5-1-0.5c-0.4,0-0.7,0.2-1,0.5C621.2,100.8,621.1,101.2,621.1,101.9z M620.2,101.8c0-0.5,0.1-0.9,0.3-1.3
			c0.2-0.4,0.5-0.7,0.8-0.9c0.3-0.2,0.7-0.3,1.2-0.3c0.7,0,1.2,0.2,1.6,0.7c0.4,0.5,0.6,1.1,0.6,1.8v0.1c0,0.5-0.1,0.9-0.3,1.3
			c-0.2,0.4-0.4,0.7-0.8,0.9c-0.3,0.2-0.7,0.3-1.2,0.3c-0.7,0-1.2-0.2-1.6-0.7C620.4,103.2,620.2,102.6,620.2,101.8L620.2,101.8z
			 M619.4,102.2c-0.1,0.7-0.3,1.2-0.8,1.6c-0.4,0.4-1,0.6-1.7,0.6c-0.8,0-1.4-0.3-1.9-0.8c-0.5-0.6-0.7-1.3-0.7-2.2v-0.6
			c0-0.6,0.1-1.1,0.3-1.6c0.2-0.5,0.5-0.8,0.9-1.1c0.4-0.2,0.9-0.4,1.4-0.4c0.7,0,1.3,0.2,1.7,0.6c0.4,0.4,0.7,0.9,0.7,1.6h-0.9
			c-0.1-0.5-0.2-0.9-0.5-1.1c-0.2-0.2-0.6-0.4-1.1-0.4c-0.6,0-1,0.2-1.3,0.6c-0.3,0.4-0.5,1-0.5,1.7v0.6c0,0.7,0.1,1.3,0.4,1.7
			c0.3,0.4,0.7,0.6,1.3,0.6c0.5,0,0.9-0.1,1.1-0.3c0.3-0.2,0.4-0.6,0.5-1.1H619.4z"/>
		<g>
			<defs>
				<rect id="SVGID_121_" x="710.9" y="77.1" width="111" height="48.6"/>
			</defs>
			<clipPath id="SVGID_8_">
				<use xlink:href="#SVGID_121_"  style="overflow:visible;"/>
			</clipPath>
			<path class="st11" d="M711.5,125.6V77.1h-1.2v48.6H711.5z M822,125.1h-111v1.2h111V125.1z M821.4,77.1v48.6h1.2V77.1H821.4z
				 M710.9,77.6h111v-1.2h-111V77.6z M710.9,125.6h-0.6v0.6h0.6V125.6z M822,125.6v0.6h0.6v-0.6H822z M822,77.1h0.6v-0.6H822V77.1z
				 M710.9,77.1v-0.6h-0.6v0.6H710.9z"/>
		</g>
		<path class="st4" d="M774,102.9c0-0.2-0.1-0.4-0.3-0.5c-0.2-0.1-0.5-0.2-0.9-0.3c-0.4-0.1-0.8-0.2-1-0.3c-0.2-0.1-0.4-0.3-0.6-0.5
			c-0.1-0.2-0.2-0.4-0.2-0.6c0-0.4,0.2-0.7,0.5-1c0.3-0.3,0.8-0.4,1.3-0.4c0.6,0,1,0.1,1.3,0.4c0.3,0.3,0.5,0.7,0.5,1.1h-0.8
			c0-0.2-0.1-0.4-0.3-0.6c-0.2-0.2-0.4-0.2-0.7-0.2c-0.3,0-0.5,0.1-0.7,0.2c-0.2,0.1-0.3,0.3-0.3,0.5c0,0.2,0.1,0.4,0.2,0.5
			c0.2,0.1,0.4,0.2,0.9,0.3c0.4,0.1,0.8,0.2,1,0.3c0.3,0.1,0.5,0.3,0.6,0.5c0.1,0.2,0.2,0.4,0.2,0.7c0,0.4-0.2,0.8-0.5,1.1
			c-0.3,0.3-0.8,0.4-1.4,0.4c-0.4,0-0.7-0.1-1-0.2c-0.3-0.1-0.5-0.3-0.7-0.6c-0.2-0.2-0.3-0.5-0.3-0.8h0.8c0,0.3,0.1,0.5,0.3,0.7
			c0.2,0.2,0.5,0.2,0.8,0.2c0.3,0,0.6-0.1,0.8-0.2C773.9,103.3,774,103.2,774,102.9z M766.6,101.9c0,0.6,0.1,1,0.3,1.3
			c0.2,0.3,0.5,0.5,0.9,0.5c0.5,0,0.9-0.2,1.2-0.7v-2.2c-0.3-0.5-0.6-0.7-1.2-0.7c-0.4,0-0.7,0.2-1,0.5
			C766.7,100.8,766.6,101.2,766.6,101.9z M765.7,101.8c0-0.8,0.2-1.4,0.5-1.8c0.4-0.5,0.8-0.7,1.4-0.7c0.6,0,1.1,0.2,1.4,0.6l0-0.5
			h0.8v4.8c0,0.6-0.2,1.1-0.6,1.5c-0.4,0.4-0.9,0.5-1.5,0.5c-0.4,0-0.7-0.1-1-0.2c-0.3-0.2-0.6-0.4-0.8-0.6l0.4-0.5
			c0.4,0.4,0.8,0.7,1.3,0.7c0.4,0,0.7-0.1,0.9-0.3c0.2-0.2,0.3-0.6,0.3-1v-0.4c-0.3,0.4-0.8,0.6-1.4,0.6c-0.6,0-1-0.2-1.4-0.7
			C765.9,103.2,765.7,102.6,765.7,101.8z M761.3,101.9c0,0.5,0.1,1,0.4,1.3c0.3,0.3,0.6,0.5,1,0.5c0.4,0,0.8-0.2,1-0.5
			c0.2-0.3,0.4-0.8,0.4-1.4c0-0.5-0.1-1-0.4-1.3c-0.3-0.3-0.6-0.5-1-0.5c-0.4,0-0.7,0.2-1,0.5C761.4,100.8,761.3,101.2,761.3,101.9z
			 M760.4,101.8c0-0.5,0.1-0.9,0.3-1.3c0.2-0.4,0.5-0.7,0.8-0.9c0.3-0.2,0.7-0.3,1.2-0.3c0.7,0,1.2,0.2,1.6,0.7
			c0.4,0.5,0.6,1.1,0.6,1.8v0.1c0,0.5-0.1,0.9-0.3,1.3c-0.2,0.4-0.4,0.7-0.8,0.9c-0.3,0.2-0.7,0.3-1.2,0.3c-0.7,0-1.2-0.2-1.6-0.7
			C760.6,103.2,760.4,102.6,760.4,101.8L760.4,101.8z M759.3,104.2h-0.8v-6.9h0.8V104.2z M753.6,100.5h1.3c0.4,0,0.7-0.1,0.9-0.3
			c0.2-0.2,0.3-0.4,0.3-0.8c0-0.4-0.1-0.6-0.3-0.8c-0.2-0.2-0.5-0.2-1-0.2h-1.3V100.5z M753.6,101.2v2.4h1.4c0.4,0,0.7-0.1,1-0.3
			c0.2-0.2,0.4-0.5,0.4-0.9c0-0.8-0.4-1.2-1.3-1.2H753.6z M752.8,104.2v-6.6h2.2c0.7,0,1.2,0.1,1.6,0.4c0.4,0.3,0.5,0.7,0.5,1.3
			c0,0.3-0.1,0.6-0.3,0.8c-0.2,0.2-0.4,0.4-0.7,0.5c0.4,0.1,0.6,0.3,0.8,0.6c0.2,0.3,0.3,0.6,0.3,1c0,0.6-0.2,1.1-0.6,1.4
			c-0.4,0.3-0.9,0.5-1.6,0.5H752.8z"/>
		<g>
			<defs>
				<rect id="SVGID_123_" x="346.9" y="77.1" width="161.9" height="48.6"/>
			</defs>
			<clipPath id="SVGID_10_">
				<use xlink:href="#SVGID_123_"  style="overflow:visible;"/>
			</clipPath>
			<path class="st12" d="M347.5,125.6V77.1h-1.2v48.6H347.5z M508.9,125.1H346.9v1.2h161.9V125.1z M508.3,77.1v48.6h1.2V77.1H508.3z
				 M346.9,77.6h161.9v-1.2H346.9V77.6z M346.9,125.6h-0.6v0.6h0.6V125.6z M508.9,125.6v0.6h0.6v-0.6H508.9z M508.9,77.1h0.6v-0.6
				h-0.6V77.1z M346.9,77.1v-0.6h-0.6v0.6H346.9z"/>
		</g>
		<path class="st4" d="M447.2,94.3c0-0.2-0.1-0.4-0.3-0.5c-0.2-0.1-0.5-0.2-0.9-0.3c-0.4-0.1-0.8-0.2-1-0.3
			c-0.2-0.1-0.4-0.3-0.6-0.5c-0.1-0.2-0.2-0.4-0.2-0.6c0-0.4,0.2-0.7,0.5-1c0.3-0.3,0.8-0.4,1.3-0.4c0.6,0,1,0.1,1.3,0.4
			c0.3,0.3,0.5,0.7,0.5,1.1h-0.8c0-0.2-0.1-0.4-0.3-0.6c-0.2-0.2-0.4-0.2-0.7-0.2c-0.3,0-0.5,0.1-0.7,0.2c-0.2,0.1-0.3,0.3-0.3,0.5
			c0,0.2,0.1,0.4,0.2,0.5c0.2,0.1,0.4,0.2,0.9,0.3c0.4,0.1,0.8,0.2,1,0.3c0.3,0.1,0.5,0.3,0.6,0.5c0.1,0.2,0.2,0.4,0.2,0.7
			c0,0.4-0.2,0.8-0.5,1.1c-0.3,0.3-0.8,0.4-1.4,0.4c-0.4,0-0.7-0.1-1-0.2c-0.3-0.1-0.5-0.3-0.7-0.6c-0.2-0.2-0.3-0.5-0.3-0.8h0.8
			c0,0.3,0.1,0.5,0.3,0.7c0.2,0.2,0.5,0.2,0.8,0.2c0.3,0,0.6-0.1,0.8-0.2C447.1,94.7,447.2,94.5,447.2,94.3z M441.4,91.3
			c-0.3,0-0.6,0.1-0.8,0.4c-0.2,0.2-0.4,0.6-0.4,1h2.4v-0.1c0-0.4-0.1-0.8-0.3-1C442,91.4,441.7,91.3,441.4,91.3z M441.5,95.7
			c-0.7,0-1.2-0.2-1.6-0.7c-0.4-0.4-0.6-1-0.6-1.7v-0.2c0-0.5,0.1-0.9,0.3-1.3c0.2-0.4,0.4-0.7,0.8-0.9c0.3-0.2,0.7-0.3,1.1-0.3
			c0.6,0,1.1,0.2,1.5,0.6c0.4,0.4,0.5,1,0.5,1.8v0.3h-3.3c0,0.5,0.2,0.9,0.4,1.2c0.3,0.3,0.6,0.4,1,0.4c0.3,0,0.5-0.1,0.7-0.2
			c0.2-0.1,0.4-0.3,0.5-0.5l0.5,0.4C442.9,95.3,442.3,95.7,441.5,95.7z M434.9,93.2c0,0.6,0.1,1,0.3,1.3c0.2,0.3,0.5,0.5,0.9,0.5
			c0.5,0,0.9-0.2,1.2-0.7V92c-0.3-0.5-0.6-0.7-1.2-0.7c-0.4,0-0.7,0.2-1,0.5C435,92.1,434.9,92.6,434.9,93.2z M434.1,93.1
			c0-0.8,0.2-1.4,0.5-1.8c0.4-0.5,0.8-0.7,1.4-0.7c0.6,0,1.1,0.2,1.4,0.6l0-0.5h0.8v4.8c0,0.6-0.2,1.1-0.6,1.5
			c-0.4,0.4-0.9,0.5-1.5,0.5c-0.4,0-0.7-0.1-1-0.2c-0.3-0.2-0.6-0.4-0.8-0.6l0.4-0.5c0.4,0.4,0.8,0.7,1.3,0.7c0.4,0,0.7-0.1,0.9-0.3
			c0.2-0.2,0.3-0.6,0.3-1v-0.4c-0.3,0.4-0.8,0.6-1.4,0.6c-0.6,0-1-0.2-1.4-0.7C434.2,94.5,434.1,93.9,434.1,93.1z M430.9,94.9
			c0.3,0,0.5-0.1,0.7-0.2c0.2-0.1,0.4-0.3,0.5-0.5v-1h-0.7c-1,0-1.5,0.3-1.5,0.9c0,0.3,0.1,0.5,0.3,0.6
			C430.4,94.9,430.6,94.9,430.9,94.9z M432.2,95.6c0-0.1-0.1-0.3-0.1-0.5c-0.4,0.4-0.9,0.6-1.4,0.6c-0.5,0-0.9-0.1-1.2-0.4
			c-0.3-0.3-0.5-0.6-0.5-1c0-0.5,0.2-0.9,0.6-1.2c0.4-0.3,0.9-0.4,1.6-0.4h0.8v-0.4c0-0.3-0.1-0.5-0.3-0.7c-0.2-0.2-0.4-0.3-0.8-0.3
			c-0.3,0-0.5,0.1-0.7,0.2c-0.2,0.2-0.3,0.3-0.3,0.5h-0.8c0-0.2,0.1-0.5,0.3-0.7c0.2-0.2,0.4-0.4,0.7-0.5c0.3-0.1,0.6-0.2,1-0.2
			c0.6,0,1,0.1,1.3,0.4c0.3,0.3,0.5,0.7,0.5,1.2v2.2c0,0.4,0.1,0.8,0.2,1.1v0.1H432.2z M425.9,93.3l-0.5,0.5v1.7h-0.8v-6.9h0.8v4.2
			l0.4-0.5l1.5-1.6h1l-1.9,2l2.1,2.8h-1L425.9,93.3z M421.7,95c0.3,0,0.6-0.1,0.8-0.3c0.2-0.2,0.3-0.4,0.4-0.7h0.8
			c0,0.3-0.1,0.5-0.3,0.8c-0.2,0.3-0.4,0.5-0.7,0.6c-0.3,0.2-0.6,0.2-0.9,0.2c-0.7,0-1.2-0.2-1.6-0.7c-0.4-0.4-0.6-1.1-0.6-1.8V93
			c0-0.5,0.1-0.9,0.3-1.3c0.2-0.4,0.4-0.7,0.7-0.9c0.3-0.2,0.7-0.3,1.2-0.3c0.5,0,1,0.2,1.4,0.5c0.4,0.3,0.6,0.8,0.6,1.3h-0.8
			c0-0.3-0.1-0.6-0.4-0.8c-0.2-0.2-0.5-0.3-0.8-0.3c-0.4,0-0.8,0.2-1,0.5c-0.2,0.3-0.3,0.7-0.3,1.3v0.2c0,0.6,0.1,1,0.3,1.3
			C420.9,94.8,421.2,95,421.7,95z M416.3,94.9c0.3,0,0.5-0.1,0.7-0.2c0.2-0.1,0.4-0.3,0.5-0.5v-1h-0.7c-1,0-1.5,0.3-1.5,0.9
			c0,0.3,0.1,0.5,0.3,0.6C415.8,94.9,416,94.9,416.3,94.9z M417.7,95.6c0-0.1-0.1-0.3-0.1-0.5c-0.4,0.4-0.9,0.6-1.4,0.6
			c-0.5,0-0.9-0.1-1.2-0.4c-0.3-0.3-0.5-0.6-0.5-1c0-0.5,0.2-0.9,0.6-1.2c0.4-0.3,0.9-0.4,1.6-0.4h0.8v-0.4c0-0.3-0.1-0.5-0.3-0.7
			c-0.2-0.2-0.4-0.3-0.8-0.3c-0.3,0-0.5,0.1-0.7,0.2c-0.2,0.2-0.3,0.3-0.3,0.5h-0.8c0-0.2,0.1-0.5,0.3-0.7c0.2-0.2,0.4-0.4,0.7-0.5
			c0.3-0.1,0.6-0.2,1-0.2c0.6,0,1,0.1,1.3,0.4c0.3,0.3,0.5,0.7,0.5,1.2v2.2c0,0.4,0.1,0.8,0.2,1.1v0.1H417.7z M409.9,92.3h1.6
			c0.5,0,0.8-0.1,1.1-0.3c0.2-0.2,0.4-0.5,0.4-0.9c0-0.4-0.1-0.7-0.4-0.9c-0.2-0.2-0.6-0.4-1-0.4h-1.6V92.3z M409.9,93v2.6H409V89
			h2.4c0.7,0,1.3,0.2,1.7,0.6c0.4,0.4,0.6,0.9,0.6,1.5c0,0.6-0.2,1.1-0.6,1.5c-0.4,0.3-1,0.5-1.7,0.5H409.9z"/>
		<circle class="st4" cx="685.5" cy="424.6" r="28.9"/>
		<g>
			<defs>
				<rect id="SVGID_125_" x="19.9" y="199.1" width="111" height="75.8"/>
			</defs>
			<clipPath id="SVGID_12_">
				<use xlink:href="#SVGID_125_"  style="overflow:visible;"/>
			</clipPath>
			<path class="st13" d="M20.5,274.8v-75.8h-1.2v75.8H20.5z M130.9,274.2h-111v1.2h111V274.2z M130.4,199.1v75.8h1.2v-75.8H130.4z
				 M19.9,199.7h111v-1.2h-111V199.7z M19.9,274.8h-0.6v0.6h0.6V274.8z M130.9,274.8v0.6h0.6v-0.6H130.9z M130.9,199.1h0.6v-0.6
				h-0.6V199.1z M19.9,199.1v-0.6h-0.6v0.6H19.9z"/>
		</g>
		<path class="st4" d="M114.6,218.2c0-0.2-0.1-0.4-0.3-0.5c-0.2-0.1-0.5-0.2-0.9-0.3c-0.4-0.1-0.8-0.2-1-0.3
			c-0.2-0.1-0.4-0.3-0.6-0.5c-0.1-0.2-0.2-0.4-0.2-0.6c0-0.4,0.2-0.7,0.5-1c0.3-0.3,0.8-0.4,1.3-0.4c0.6,0,1,0.1,1.3,0.4
			c0.3,0.3,0.5,0.7,0.5,1.1h-0.8c0-0.2-0.1-0.4-0.3-0.6c-0.2-0.2-0.4-0.2-0.7-0.2c-0.3,0-0.5,0.1-0.7,0.2s-0.3,0.3-0.3,0.5
			c0,0.2,0.1,0.4,0.2,0.5c0.2,0.1,0.4,0.2,0.9,0.3c0.4,0.1,0.8,0.2,1,0.3c0.3,0.1,0.5,0.3,0.6,0.5c0.1,0.2,0.2,0.4,0.2,0.7
			c0,0.4-0.2,0.8-0.5,1.1c-0.3,0.3-0.8,0.4-1.4,0.4c-0.4,0-0.7-0.1-1-0.2c-0.3-0.1-0.5-0.3-0.7-0.6c-0.2-0.2-0.3-0.5-0.3-0.8h0.8
			c0,0.3,0.1,0.5,0.3,0.7c0.2,0.2,0.5,0.2,0.8,0.2c0.3,0,0.6-0.1,0.8-0.2C114.5,218.6,114.6,218.4,114.6,218.2z M108.7,215.2
			c-0.3,0-0.6,0.1-0.8,0.4c-0.2,0.2-0.4,0.6-0.4,1h2.4v-0.1c0-0.4-0.1-0.8-0.3-1C109.4,215.3,109.1,215.2,108.7,215.2z M108.8,219.6
			c-0.7,0-1.2-0.2-1.6-0.7c-0.4-0.4-0.6-1-0.6-1.7V217c0-0.5,0.1-0.9,0.3-1.3c0.2-0.4,0.4-0.7,0.8-0.9c0.3-0.2,0.7-0.3,1.1-0.3
			c0.6,0,1.1,0.2,1.5,0.6c0.4,0.4,0.5,1,0.5,1.8v0.3h-3.3c0,0.5,0.2,0.9,0.4,1.2c0.3,0.3,0.6,0.4,1,0.4c0.3,0,0.5-0.1,0.7-0.2
			c0.2-0.1,0.4-0.3,0.5-0.5l0.5,0.4C110.3,219.2,109.7,219.6,108.8,219.6z M102.3,217.1c0,0.6,0.1,1,0.3,1.3
			c0.2,0.3,0.5,0.5,0.9,0.5c0.5,0,0.9-0.2,1.2-0.7v-2.2c-0.3-0.5-0.6-0.7-1.2-0.7c-0.4,0-0.7,0.2-1,0.5
			C102.4,216,102.3,216.5,102.3,217.1z M101.4,217c0-0.8,0.2-1.4,0.5-1.8c0.4-0.5,0.8-0.7,1.4-0.7c0.6,0,1.1,0.2,1.4,0.6l0-0.5h0.8
			v4.8c0,0.6-0.2,1.1-0.6,1.5c-0.4,0.4-0.9,0.5-1.5,0.5c-0.4,0-0.7-0.1-1-0.2c-0.3-0.2-0.6-0.4-0.8-0.6l0.4-0.5
			c0.4,0.4,0.8,0.7,1.3,0.7c0.4,0,0.7-0.1,0.9-0.3c0.2-0.2,0.3-0.6,0.3-1V219c-0.3,0.4-0.8,0.6-1.4,0.6c-0.6,0-1-0.2-1.4-0.7
			C101.6,218.4,101.4,217.8,101.4,217z M98.2,218.8c0.3,0,0.5-0.1,0.7-0.2s0.4-0.3,0.5-0.5v-1h-0.7c-1,0-1.5,0.3-1.5,0.9
			c0,0.3,0.1,0.5,0.3,0.6C97.7,218.8,97.9,218.8,98.2,218.8z M99.6,219.5c0-0.1-0.1-0.3-0.1-0.5c-0.4,0.4-0.9,0.6-1.4,0.6
			c-0.5,0-0.9-0.1-1.2-0.4c-0.3-0.3-0.5-0.6-0.5-1c0-0.5,0.2-0.9,0.6-1.2c0.4-0.3,0.9-0.4,1.6-0.4h0.8v-0.4c0-0.3-0.1-0.5-0.3-0.7
			c-0.2-0.2-0.4-0.3-0.8-0.3c-0.3,0-0.5,0.1-0.7,0.2c-0.2,0.2-0.3,0.3-0.3,0.5h-0.8c0-0.2,0.1-0.5,0.3-0.7c0.2-0.2,0.4-0.4,0.7-0.5
			c0.3-0.1,0.6-0.2,1-0.2c0.6,0,1,0.1,1.3,0.4c0.3,0.3,0.5,0.7,0.5,1.2v2.2c0,0.4,0.1,0.8,0.2,1.1v0.1H99.6z M93.3,217.2l-0.5,0.5
			v1.7h-0.8v-6.9h0.8v4.2l0.4-0.5l1.5-1.6h1l-1.9,2l2.1,2.8h-1L93.3,217.2z M89,218.9c0.3,0,0.6-0.1,0.8-0.3
			c0.2-0.2,0.3-0.4,0.4-0.7H91c0,0.3-0.1,0.5-0.3,0.8c-0.2,0.3-0.4,0.5-0.7,0.6c-0.3,0.2-0.6,0.2-0.9,0.2c-0.7,0-1.2-0.2-1.6-0.7
			c-0.4-0.4-0.6-1.1-0.6-1.8v-0.1c0-0.5,0.1-0.9,0.3-1.3c0.2-0.4,0.4-0.7,0.7-0.9c0.3-0.2,0.7-0.3,1.2-0.3c0.5,0,1,0.2,1.4,0.5
			c0.4,0.3,0.6,0.8,0.6,1.3h-0.8c0-0.3-0.1-0.6-0.4-0.8c-0.2-0.2-0.5-0.3-0.8-0.3c-0.4,0-0.8,0.2-1,0.5c-0.2,0.3-0.3,0.7-0.3,1.3
			v0.2c0,0.6,0.1,1,0.3,1.3C88.3,218.7,88.6,218.9,89,218.9z M83.7,218.8c0.3,0,0.5-0.1,0.7-0.2s0.4-0.3,0.5-0.5v-1h-0.7
			c-1,0-1.5,0.3-1.5,0.9c0,0.3,0.1,0.5,0.3,0.6C83.2,218.8,83.4,218.8,83.7,218.8z M85,219.5c0-0.1-0.1-0.3-0.1-0.5
			c-0.4,0.4-0.9,0.6-1.4,0.6c-0.5,0-0.9-0.1-1.2-0.4c-0.3-0.3-0.5-0.6-0.5-1c0-0.5,0.2-0.9,0.6-1.2c0.4-0.3,0.9-0.4,1.6-0.4h0.8
			v-0.4c0-0.3-0.1-0.5-0.3-0.7c-0.2-0.2-0.4-0.3-0.8-0.3c-0.3,0-0.5,0.1-0.7,0.2c-0.2,0.2-0.3,0.3-0.3,0.5H82c0-0.2,0.1-0.5,0.3-0.7
			c0.2-0.2,0.4-0.4,0.7-0.5c0.3-0.1,0.6-0.2,1-0.2c0.6,0,1,0.1,1.3,0.4c0.3,0.3,0.5,0.7,0.5,1.2v2.2c0,0.4,0.1,0.8,0.2,1.1v0.1H85z
			 M77.2,216.2h1.6c0.5,0,0.8-0.1,1.1-0.3c0.2-0.2,0.4-0.5,0.4-0.9c0-0.4-0.1-0.7-0.4-0.9c-0.2-0.2-0.6-0.4-1-0.4h-1.6V216.2z
			 M77.2,216.9v2.6h-0.9v-6.6h2.4c0.7,0,1.3,0.2,1.7,0.6c0.4,0.4,0.6,0.9,0.6,1.5c0,0.6-0.2,1.1-0.6,1.5c-0.4,0.3-1,0.5-1.7,0.5
			H77.2z M69.6,214.6l0,0.6c0.4-0.5,0.9-0.7,1.5-0.7c1,0,1.6,0.6,1.6,1.7v3.2h-0.8v-3.2c0-0.4-0.1-0.6-0.2-0.8
			c-0.2-0.2-0.4-0.3-0.7-0.3c-0.3,0-0.5,0.1-0.7,0.2c-0.2,0.1-0.4,0.3-0.5,0.6v3.5h-0.8v-4.9H69.6z M64.2,217.1c0,0.5,0.1,1,0.4,1.3
			c0.3,0.3,0.6,0.5,1,0.5c0.4,0,0.8-0.2,1-0.5c0.2-0.3,0.4-0.8,0.4-1.4c0-0.5-0.1-1-0.4-1.3c-0.3-0.3-0.6-0.5-1-0.5
			c-0.4,0-0.7,0.2-1,0.5C64.3,216,64.2,216.5,64.2,217.1z M63.3,217c0-0.5,0.1-0.9,0.3-1.3c0.2-0.4,0.5-0.7,0.8-0.9
			c0.3-0.2,0.7-0.3,1.2-0.3c0.7,0,1.2,0.2,1.6,0.7c0.4,0.5,0.6,1.1,0.6,1.8v0.1c0,0.5-0.1,0.9-0.3,1.3c-0.2,0.4-0.4,0.7-0.8,0.9
			c-0.3,0.2-0.7,0.3-1.2,0.3c-0.7,0-1.2-0.2-1.6-0.7C63.5,218.4,63.3,217.8,63.3,217L63.3,217z M61.3,213.3c0-0.1,0-0.2,0.1-0.3
			c0.1-0.1,0.2-0.1,0.4-0.1s0.3,0,0.4,0.1c0.1,0.1,0.1,0.2,0.1,0.3c0,0.1,0,0.2-0.1,0.3c-0.1,0.1-0.2,0.1-0.4,0.1s-0.3,0-0.4-0.1
			C61.4,213.5,61.3,213.4,61.3,213.3z M62.2,219.5h-0.8v-4.9h0.8V219.5z M59.4,218.2c0-0.2-0.1-0.4-0.3-0.5
			c-0.2-0.1-0.5-0.2-0.9-0.3c-0.4-0.1-0.8-0.2-1-0.3c-0.2-0.1-0.4-0.3-0.6-0.5c-0.1-0.2-0.2-0.4-0.2-0.6c0-0.4,0.2-0.7,0.5-1
			c0.3-0.3,0.8-0.4,1.3-0.4c0.6,0,1,0.1,1.3,0.4c0.3,0.3,0.5,0.7,0.5,1.1h-0.8c0-0.2-0.1-0.4-0.3-0.6c-0.2-0.2-0.4-0.2-0.7-0.2
			c-0.3,0-0.5,0.1-0.7,0.2c-0.2,0.1-0.3,0.3-0.3,0.5c0,0.2,0.1,0.4,0.2,0.5c0.2,0.1,0.4,0.2,0.9,0.3c0.4,0.1,0.8,0.2,1,0.3
			c0.3,0.1,0.5,0.3,0.6,0.5c0.1,0.2,0.2,0.4,0.2,0.7c0,0.4-0.2,0.8-0.5,1.1c-0.3,0.3-0.8,0.4-1.4,0.4c-0.4,0-0.7-0.1-1-0.2
			c-0.3-0.1-0.5-0.3-0.7-0.6c-0.2-0.2-0.3-0.5-0.3-0.8h0.8c0,0.3,0.1,0.5,0.3,0.7c0.2,0.2,0.5,0.2,0.8,0.2c0.3,0,0.6-0.1,0.8-0.2
			C59.3,218.6,59.4,218.4,59.4,218.2z M54.6,218.2c0-0.2-0.1-0.4-0.3-0.5c-0.2-0.1-0.5-0.2-0.9-0.3c-0.4-0.1-0.8-0.2-1-0.3
			c-0.2-0.1-0.4-0.3-0.6-0.5c-0.1-0.2-0.2-0.4-0.2-0.6c0-0.4,0.2-0.7,0.5-1c0.3-0.3,0.8-0.4,1.3-0.4c0.6,0,1,0.1,1.3,0.4
			c0.3,0.3,0.5,0.7,0.5,1.1h-0.8c0-0.2-0.1-0.4-0.3-0.6c-0.2-0.2-0.4-0.2-0.7-0.2c-0.3,0-0.5,0.1-0.7,0.2c-0.2,0.1-0.3,0.3-0.3,0.5
			c0,0.2,0.1,0.4,0.2,0.5c0.2,0.1,0.4,0.2,0.9,0.3c0.4,0.1,0.8,0.2,1,0.3c0.3,0.1,0.5,0.3,0.6,0.5c0.1,0.2,0.2,0.4,0.2,0.7
			c0,0.4-0.2,0.8-0.5,1.1c-0.3,0.3-0.8,0.4-1.4,0.4c-0.4,0-0.7-0.1-1-0.2c-0.3-0.1-0.5-0.3-0.7-0.6c-0.2-0.2-0.3-0.5-0.3-0.8h0.8
			c0,0.3,0.1,0.5,0.3,0.7c0.2,0.2,0.5,0.2,0.8,0.2c0.3,0,0.6-0.1,0.8-0.2C54.5,218.6,54.6,218.4,54.6,218.2z M48.8,215.2
			c-0.3,0-0.6,0.1-0.8,0.4c-0.2,0.2-0.4,0.6-0.4,1H50v-0.1c0-0.4-0.1-0.8-0.3-1C49.4,215.3,49.1,215.2,48.8,215.2z M48.9,219.6
			c-0.7,0-1.2-0.2-1.6-0.7c-0.4-0.4-0.6-1-0.6-1.7V217c0-0.5,0.1-0.9,0.3-1.3c0.2-0.4,0.4-0.7,0.8-0.9c0.3-0.2,0.7-0.3,1.1-0.3
			c0.6,0,1.1,0.2,1.5,0.6c0.4,0.4,0.5,1,0.5,1.8v0.3h-3.3c0,0.5,0.2,0.9,0.4,1.2c0.3,0.3,0.6,0.4,1,0.4c0.3,0,0.5-0.1,0.7-0.2
			c0.2-0.1,0.4-0.3,0.5-0.5l0.5,0.4C50.3,219.2,49.7,219.6,48.9,219.6z M43.4,216.5c-0.7-0.2-1.3-0.5-1.6-0.8
			c-0.3-0.3-0.5-0.7-0.5-1.2c0-0.5,0.2-0.9,0.6-1.3c0.4-0.3,1-0.5,1.6-0.5c0.5,0,0.9,0.1,1.2,0.3c0.4,0.2,0.6,0.4,0.8,0.7
			c0.2,0.3,0.3,0.6,0.3,1H45c0-0.4-0.1-0.7-0.4-0.9c-0.3-0.2-0.6-0.3-1.1-0.3c-0.4,0-0.8,0.1-1,0.3c-0.2,0.2-0.4,0.4-0.4,0.8
			c0,0.3,0.1,0.5,0.3,0.7c0.2,0.2,0.6,0.4,1.2,0.5c0.5,0.2,1,0.3,1.3,0.5c0.3,0.2,0.5,0.4,0.7,0.6c0.2,0.2,0.2,0.5,0.2,0.9
			c0,0.5-0.2,1-0.6,1.3c-0.4,0.3-1,0.5-1.7,0.5c-0.5,0-0.9-0.1-1.3-0.3c-0.4-0.2-0.7-0.4-0.9-0.7c-0.2-0.3-0.3-0.6-0.3-1H42
			c0,0.4,0.1,0.7,0.4,0.9c0.3,0.2,0.7,0.3,1.2,0.3c0.5,0,0.8-0.1,1.1-0.3c0.2-0.2,0.4-0.4,0.4-0.8c0-0.3-0.1-0.6-0.3-0.7
			C44.4,216.9,44,216.7,43.4,216.5z"/>
		<path class="st4" d="M97.6,232.5l0,0.5c0.3-0.4,0.6-0.5,1.1-0.5c0.8,0,1.2,0.4,1.2,1.3v2.4h-0.6v-2.4c0-0.3-0.1-0.5-0.2-0.6
			c-0.1-0.1-0.3-0.2-0.6-0.2c-0.2,0-0.4,0.1-0.5,0.2c-0.2,0.1-0.3,0.3-0.4,0.4v2.6H97v-3.7H97.6z M93.5,234.4c0,0.4,0.1,0.7,0.3,1
			c0.2,0.2,0.4,0.4,0.8,0.4c0.3,0,0.6-0.1,0.8-0.4c0.2-0.3,0.3-0.6,0.3-1.1c0-0.4-0.1-0.7-0.3-1c-0.2-0.3-0.4-0.4-0.8-0.4
			c-0.3,0-0.6,0.1-0.7,0.4C93.6,233.6,93.5,233.9,93.5,234.4z M92.9,234.3c0-0.4,0.1-0.7,0.2-1c0.1-0.3,0.3-0.5,0.6-0.7
			c0.3-0.2,0.5-0.2,0.9-0.2c0.5,0,0.9,0.2,1.2,0.5c0.3,0.3,0.5,0.8,0.5,1.4v0c0,0.4-0.1,0.7-0.2,1c-0.1,0.3-0.3,0.5-0.6,0.7
			c-0.3,0.2-0.5,0.2-0.9,0.2c-0.5,0-0.9-0.2-1.2-0.5C93.1,235.4,92.9,234.9,92.9,234.3L92.9,234.3z M91.4,231.5c0-0.1,0-0.2,0.1-0.3
			c0.1-0.1,0.2-0.1,0.3-0.1c0.1,0,0.2,0,0.3,0.1c0.1,0.1,0.1,0.2,0.1,0.3c0,0.1,0,0.2-0.1,0.3c-0.1,0.1-0.2,0.1-0.3,0.1
			c-0.1,0-0.2,0-0.3-0.1C91.4,231.7,91.4,231.6,91.4,231.5z M92.1,236.2h-0.6v-3.7h0.6V236.2z M90,231.6v0.9h0.7v0.5H90v2.3
			c0,0.1,0,0.3,0.1,0.3c0.1,0.1,0.2,0.1,0.3,0.1c0.1,0,0.2,0,0.3,0v0.5c-0.2,0-0.3,0.1-0.5,0.1c-0.3,0-0.5-0.1-0.6-0.3
			c-0.1-0.2-0.2-0.4-0.2-0.7V233h-0.7v-0.5h0.7v-0.9H90z M86.6,235.7c0.2,0,0.4-0.1,0.6-0.2c0.2-0.1,0.3-0.2,0.4-0.4v-0.8H87
			c-0.8,0-1.2,0.2-1.2,0.7c0,0.2,0.1,0.4,0.2,0.5C86.2,235.6,86.4,235.7,86.6,235.7z M87.6,236.2c0-0.1-0.1-0.2-0.1-0.4
			c-0.3,0.3-0.6,0.5-1,0.5c-0.4,0-0.7-0.1-0.9-0.3c-0.2-0.2-0.3-0.5-0.3-0.8c0-0.4,0.1-0.7,0.4-0.9c0.3-0.2,0.7-0.3,1.2-0.3h0.6
			v-0.3c0-0.2-0.1-0.4-0.2-0.5c-0.1-0.1-0.3-0.2-0.6-0.2c-0.2,0-0.4,0.1-0.6,0.2c-0.2,0.1-0.2,0.2-0.2,0.4h-0.6
			c0-0.2,0.1-0.4,0.2-0.5c0.1-0.2,0.3-0.3,0.5-0.4c0.2-0.1,0.5-0.1,0.7-0.1c0.4,0,0.8,0.1,1,0.3c0.2,0.2,0.4,0.5,0.4,0.9v1.7
			c0,0.3,0,0.6,0.1,0.8v0.1H87.6z M83.9,231.6v0.9h0.7v0.5h-0.7v2.3c0,0.1,0,0.3,0.1,0.3c0.1,0.1,0.2,0.1,0.3,0.1c0.1,0,0.2,0,0.3,0
			v0.5c-0.2,0-0.3,0.1-0.5,0.1c-0.3,0-0.5-0.1-0.6-0.3c-0.1-0.2-0.2-0.4-0.2-0.7V233h-0.7v-0.5h0.7v-0.9H83.9z M82.1,236.2h-0.6V231
			h0.6V236.2z M79.8,235.8c-0.2,0.3-0.6,0.4-1.1,0.4c-0.4,0-0.7-0.1-0.9-0.3c-0.2-0.2-0.3-0.6-0.3-1v-2.4h0.6v2.4
			c0,0.6,0.2,0.8,0.7,0.8c0.5,0,0.8-0.2,1-0.5v-2.7h0.6v3.7h-0.6L79.8,235.8z M76.1,235.2c0-0.2-0.1-0.3-0.2-0.4
			c-0.1-0.1-0.3-0.2-0.7-0.2c-0.3-0.1-0.6-0.1-0.8-0.2c-0.2-0.1-0.3-0.2-0.4-0.3c-0.1-0.1-0.1-0.3-0.1-0.5c0-0.3,0.1-0.6,0.4-0.8
			c0.3-0.2,0.6-0.3,1-0.3c0.4,0,0.8,0.1,1,0.3c0.3,0.2,0.4,0.5,0.4,0.8h-0.6c0-0.2-0.1-0.3-0.2-0.4c-0.1-0.1-0.3-0.2-0.5-0.2
			c-0.2,0-0.4,0-0.5,0.1c-0.1,0.1-0.2,0.2-0.2,0.4c0,0.2,0.1,0.3,0.2,0.3c0.1,0.1,0.3,0.2,0.6,0.2c0.3,0.1,0.6,0.2,0.8,0.3
			c0.2,0.1,0.3,0.2,0.4,0.4c0.1,0.1,0.1,0.3,0.1,0.5c0,0.3-0.1,0.6-0.4,0.8c-0.3,0.2-0.6,0.3-1,0.3c-0.3,0-0.6-0.1-0.8-0.2
			c-0.2-0.1-0.4-0.2-0.5-0.4c-0.1-0.2-0.2-0.4-0.2-0.6h0.6c0,0.2,0.1,0.4,0.3,0.5c0.2,0.1,0.4,0.2,0.6,0.2c0.2,0,0.4,0,0.6-0.1
			C76,235.5,76.1,235.4,76.1,235.2z M70.7,232.5l0,0.5c0.3-0.4,0.6-0.5,1.1-0.5c0.8,0,1.2,0.4,1.2,1.3v2.4h-0.6v-2.4
			c0-0.3-0.1-0.5-0.2-0.6c-0.1-0.1-0.3-0.2-0.6-0.2c-0.2,0-0.4,0.1-0.5,0.2c-0.2,0.1-0.3,0.3-0.4,0.4v2.6h-0.6v-3.7H70.7z
			 M66.6,234.4c0,0.4,0.1,0.7,0.3,1c0.2,0.2,0.4,0.4,0.8,0.4c0.3,0,0.6-0.1,0.8-0.4c0.2-0.3,0.3-0.6,0.3-1.1c0-0.4-0.1-0.7-0.3-1
			c-0.2-0.3-0.4-0.4-0.8-0.4c-0.3,0-0.6,0.1-0.7,0.4C66.7,233.6,66.6,233.9,66.6,234.4z M66,234.3c0-0.4,0.1-0.7,0.2-1
			c0.1-0.3,0.3-0.5,0.6-0.7c0.3-0.2,0.5-0.2,0.9-0.2c0.5,0,0.9,0.2,1.2,0.5c0.3,0.3,0.5,0.8,0.5,1.4v0c0,0.4-0.1,0.7-0.2,1
			c-0.1,0.3-0.3,0.5-0.6,0.7c-0.3,0.2-0.5,0.2-0.9,0.2c-0.5,0-0.9-0.2-1.2-0.5C66.2,235.4,66,234.9,66,234.3L66,234.3z M65.4,234.6
			c-0.1,0.5-0.3,0.9-0.6,1.2c-0.3,0.3-0.8,0.4-1.3,0.4c-0.6,0-1.1-0.2-1.4-0.6c-0.4-0.4-0.5-1-0.5-1.7v-0.5c0-0.5,0.1-0.9,0.2-1.2
			c0.2-0.3,0.4-0.6,0.7-0.8c0.3-0.2,0.6-0.3,1-0.3c0.5,0,0.9,0.1,1.3,0.4c0.3,0.3,0.5,0.7,0.6,1.2h-0.7c-0.1-0.4-0.2-0.7-0.4-0.9
			c-0.2-0.2-0.5-0.3-0.8-0.3c-0.4,0-0.7,0.2-1,0.5c-0.2,0.3-0.4,0.7-0.4,1.3v0.5c0,0.5,0.1,1,0.3,1.3c0.2,0.3,0.5,0.5,0.9,0.5
			c0.4,0,0.6-0.1,0.8-0.2c0.2-0.2,0.3-0.5,0.4-0.9H65.4z M58,236.2h-0.6V232l-1.3,0.5v-0.6l1.8-0.7H58V236.2z M54.3,232.8
			c0-0.1,0-0.2,0.1-0.3c0.1-0.1,0.2-0.1,0.3-0.1c0.1,0,0.2,0,0.3,0.1c0.1,0.1,0.1,0.2,0.1,0.3c0,0.1,0,0.2-0.1,0.3
			c-0.1,0.1-0.2,0.1-0.3,0.1c-0.1,0-0.2,0-0.3-0.1C54.4,233,54.3,232.9,54.3,232.8z M54.3,235.8c0-0.1,0-0.2,0.1-0.3
			c0.1-0.1,0.2-0.1,0.3-0.1c0.1,0,0.2,0,0.3,0.1c0.1,0.1,0.1,0.2,0.1,0.3c0,0.1,0,0.2-0.1,0.3c-0.1,0.1-0.2,0.1-0.3,0.1
			c-0.1,0-0.2,0-0.3-0.1C54.4,236,54.3,235.9,54.3,235.8z M52.5,236.2h-0.6V232l-1.3,0.5v-0.6l1.8-0.7h0.1V236.2z"/>
		<path class="st4" d="M98.3,244.2l0,0.5c0.3-0.4,0.6-0.5,1.1-0.5c0.8,0,1.2,0.4,1.2,1.3v2.4h-0.6v-2.4c0-0.3-0.1-0.5-0.2-0.6
			c-0.1-0.1-0.3-0.2-0.6-0.2c-0.2,0-0.4,0.1-0.5,0.2c-0.2,0.1-0.3,0.3-0.4,0.4v2.6h-0.6v-3.7H98.3z M94.2,246.1c0,0.4,0.1,0.7,0.3,1
			c0.2,0.2,0.4,0.4,0.8,0.4c0.3,0,0.6-0.1,0.8-0.4c0.2-0.3,0.3-0.6,0.3-1.1c0-0.4-0.1-0.7-0.3-1c-0.2-0.3-0.4-0.4-0.8-0.4
			c-0.3,0-0.6,0.1-0.7,0.4C94.3,245.3,94.2,245.6,94.2,246.1z M93.6,246c0-0.4,0.1-0.7,0.2-1c0.1-0.3,0.3-0.5,0.6-0.7
			c0.3-0.2,0.5-0.2,0.9-0.2c0.5,0,0.9,0.2,1.2,0.5c0.3,0.3,0.5,0.8,0.5,1.4v0c0,0.4-0.1,0.7-0.2,1c-0.1,0.3-0.3,0.5-0.6,0.7
			c-0.3,0.2-0.5,0.2-0.9,0.2c-0.5,0-0.9-0.2-1.2-0.5C93.7,247.1,93.6,246.6,93.6,246L93.6,246z M92,243.2c0-0.1,0-0.2,0.1-0.3
			c0.1-0.1,0.2-0.1,0.3-0.1c0.1,0,0.2,0,0.3,0.1c0.1,0.1,0.1,0.2,0.1,0.3c0,0.1,0,0.2-0.1,0.3c-0.1,0.1-0.2,0.1-0.3,0.1
			c-0.1,0-0.2,0-0.3-0.1C92.1,243.4,92,243.3,92,243.2z M92.7,247.9h-0.6v-3.7h0.6V247.9z M90.6,246.9c0-0.2-0.1-0.3-0.2-0.4
			c-0.1-0.1-0.3-0.2-0.7-0.2c-0.3-0.1-0.6-0.1-0.8-0.2c-0.2-0.1-0.3-0.2-0.4-0.3c-0.1-0.1-0.1-0.3-0.1-0.5c0-0.3,0.1-0.6,0.4-0.8
			c0.3-0.2,0.6-0.3,1-0.3c0.4,0,0.8,0.1,1,0.3c0.3,0.2,0.4,0.5,0.4,0.8h-0.6c0-0.2-0.1-0.3-0.2-0.4c-0.1-0.1-0.3-0.2-0.5-0.2
			c-0.2,0-0.4,0-0.5,0.1c-0.1,0.1-0.2,0.2-0.2,0.4c0,0.2,0.1,0.3,0.2,0.3c0.1,0.1,0.3,0.2,0.6,0.2c0.3,0.1,0.6,0.2,0.8,0.3
			s0.3,0.2,0.4,0.4c0.1,0.1,0.1,0.3,0.1,0.5c0,0.3-0.1,0.6-0.4,0.8c-0.3,0.2-0.6,0.3-1,0.3c-0.3,0-0.6-0.1-0.8-0.2
			c-0.2-0.1-0.4-0.2-0.5-0.4c-0.1-0.2-0.2-0.4-0.2-0.6h0.6c0,0.2,0.1,0.4,0.3,0.5c0.2,0.1,0.4,0.2,0.6,0.2c0.2,0,0.4,0,0.6-0.1
			C90.5,247.2,90.6,247,90.6,246.9z M87,246.9c0-0.2-0.1-0.3-0.2-0.4c-0.1-0.1-0.3-0.2-0.7-0.2c-0.3-0.1-0.6-0.1-0.8-0.2
			c-0.2-0.1-0.3-0.2-0.4-0.3c-0.1-0.1-0.1-0.3-0.1-0.5c0-0.3,0.1-0.6,0.4-0.8c0.3-0.2,0.6-0.3,1-0.3c0.4,0,0.8,0.1,1,0.3
			c0.3,0.2,0.4,0.5,0.4,0.8H87c0-0.2-0.1-0.3-0.2-0.4c-0.1-0.1-0.3-0.2-0.5-0.2c-0.2,0-0.4,0-0.5,0.1c-0.1,0.1-0.2,0.2-0.2,0.4
			c0,0.2,0.1,0.3,0.2,0.3c0.1,0.1,0.3,0.2,0.6,0.2c0.3,0.1,0.6,0.2,0.8,0.3s0.3,0.2,0.4,0.4c0.1,0.1,0.1,0.3,0.1,0.5
			c0,0.3-0.1,0.6-0.4,0.8c-0.3,0.2-0.6,0.3-1,0.3c-0.3,0-0.6-0.1-0.8-0.2c-0.2-0.1-0.4-0.2-0.5-0.4c-0.1-0.2-0.2-0.4-0.2-0.6h0.6
			c0,0.2,0.1,0.4,0.3,0.5c0.2,0.1,0.4,0.2,0.6,0.2c0.2,0,0.4,0,0.6-0.1C86.9,247.2,87,247,87,246.9z M82.6,244.6
			c-0.3,0-0.5,0.1-0.6,0.3c-0.2,0.2-0.3,0.4-0.3,0.8h1.8v0c0-0.3-0.1-0.6-0.3-0.7C83.1,244.7,82.9,244.6,82.6,244.6z M82.7,247.9
			c-0.5,0-0.9-0.2-1.2-0.5c-0.3-0.3-0.5-0.8-0.5-1.3V246c0-0.4,0.1-0.7,0.2-1c0.1-0.3,0.3-0.5,0.6-0.7c0.3-0.2,0.5-0.2,0.8-0.2
			c0.5,0,0.8,0.2,1.1,0.5c0.3,0.3,0.4,0.8,0.4,1.3v0.3h-2.5c0,0.4,0.1,0.7,0.3,0.9c0.2,0.2,0.5,0.3,0.8,0.3c0.2,0,0.4,0,0.6-0.1
			c0.2-0.1,0.3-0.2,0.4-0.4l0.4,0.3C83.8,247.7,83.3,247.9,82.7,247.9z M78.6,245.7c-0.6-0.2-1-0.4-1.2-0.6
			c-0.3-0.2-0.4-0.5-0.4-0.9c0-0.4,0.2-0.7,0.5-1c0.3-0.3,0.7-0.4,1.2-0.4c0.3,0,0.6,0.1,0.9,0.2c0.3,0.1,0.5,0.3,0.6,0.5
			c0.1,0.2,0.2,0.5,0.2,0.8h-0.7c0-0.3-0.1-0.5-0.3-0.7c-0.2-0.2-0.5-0.3-0.8-0.3c-0.3,0-0.6,0.1-0.8,0.2c-0.2,0.1-0.3,0.3-0.3,0.6
			c0,0.2,0.1,0.4,0.3,0.5c0.2,0.1,0.5,0.3,0.9,0.4c0.4,0.1,0.7,0.2,1,0.4c0.2,0.1,0.4,0.3,0.5,0.5c0.1,0.2,0.2,0.4,0.2,0.7
			c0,0.4-0.2,0.7-0.5,1c-0.3,0.2-0.7,0.4-1.3,0.4c-0.3,0-0.7-0.1-0.9-0.2c-0.3-0.1-0.5-0.3-0.7-0.5c-0.2-0.2-0.2-0.5-0.2-0.8h0.7
			c0,0.3,0.1,0.5,0.3,0.7c0.2,0.2,0.5,0.3,0.9,0.3c0.3,0,0.6-0.1,0.8-0.2c0.2-0.1,0.3-0.3,0.3-0.6c0-0.2-0.1-0.4-0.3-0.6
			C79.4,245.9,79.1,245.8,78.6,245.7z M73.9,246c0-0.4-0.1-0.7-0.3-1c-0.2-0.2-0.4-0.4-0.7-0.4c-0.4,0-0.7,0.2-0.9,0.5v1.8
			c0.2,0.3,0.5,0.5,0.9,0.5c0.3,0,0.5-0.1,0.7-0.4C73.8,246.8,73.9,246.5,73.9,246z M74.6,246.1c0,0.6-0.1,1-0.4,1.3
			c-0.3,0.3-0.6,0.5-1,0.5c-0.4,0-0.8-0.1-1.1-0.4v1.8h-0.6v-5.1H72l0,0.4c0.3-0.3,0.6-0.5,1.1-0.5c0.4,0,0.8,0.2,1,0.5
			C74.4,244.9,74.6,245.4,74.6,246.1L74.6,246.1z M70.5,242.9v3.4c0,0.5-0.1,0.8-0.4,1.1c-0.3,0.3-0.7,0.5-1.2,0.5l-0.2,0
			c-0.5,0-1-0.1-1.3-0.4c-0.3-0.3-0.5-0.7-0.5-1.2v-3.4h0.6v3.3c0,0.4,0.1,0.6,0.3,0.8c0.2,0.2,0.5,0.3,0.8,0.3
			c0.4,0,0.6-0.1,0.8-0.3c0.2-0.2,0.3-0.5,0.3-0.8v-3.3H70.5z M66.3,246h-1.7v-0.5h1.7V246z M62.8,244.6c-0.3,0-0.5,0.1-0.6,0.3
			c-0.2,0.2-0.3,0.4-0.3,0.8h1.8v0c0-0.3-0.1-0.6-0.3-0.7C63.3,244.7,63.1,244.6,62.8,244.6z M62.9,247.9c-0.5,0-0.9-0.2-1.2-0.5
			c-0.3-0.3-0.5-0.8-0.5-1.3V246c0-0.4,0.1-0.7,0.2-1c0.1-0.3,0.3-0.5,0.6-0.7c0.3-0.2,0.5-0.2,0.8-0.2c0.5,0,0.8,0.2,1.1,0.5
			c0.3,0.3,0.4,0.8,0.4,1.3v0.3h-2.5c0,0.4,0.1,0.7,0.3,0.9c0.2,0.2,0.5,0.3,0.8,0.3c0.2,0,0.4,0,0.6-0.1c0.2-0.1,0.3-0.2,0.4-0.4
			l0.4,0.3C64,247.7,63.5,247.9,62.9,247.9z M58.1,244.2l0,0.5c0.3-0.4,0.6-0.5,1.1-0.5c0.8,0,1.2,0.4,1.2,1.3v2.4h-0.6v-2.4
			c0-0.3-0.1-0.5-0.2-0.6c-0.1-0.1-0.3-0.2-0.6-0.2c-0.2,0-0.4,0.1-0.5,0.2c-0.2,0.1-0.3,0.3-0.4,0.4v2.6h-0.6v-3.7H58.1z M56,247.5
			c-0.2,0.3-0.6,0.4-1.1,0.4c-0.4,0-0.7-0.1-0.9-0.3c-0.2-0.2-0.3-0.6-0.3-1v-2.4h0.6v2.4c0,0.6,0.2,0.8,0.7,0.8
			c0.5,0,0.8-0.2,1-0.5v-2.7h0.6v3.7H56L56,247.5z M53.4,243.5h-1.6v4.4h-0.6v-4.4h-1.6v-0.5h3.8V243.5z"/>
		<path class="st4" d="M105.9,256.3c-0.3,0-0.5,0.1-0.6,0.3c-0.2,0.2-0.3,0.4-0.3,0.8h1.8v0c0-0.3-0.1-0.6-0.3-0.7
			C106.4,256.4,106.2,256.3,105.9,256.3z M106,259.6c-0.5,0-0.9-0.2-1.2-0.5c-0.3-0.3-0.5-0.8-0.5-1.3v-0.1c0-0.4,0.1-0.7,0.2-1
			c0.1-0.3,0.3-0.5,0.6-0.7c0.3-0.2,0.5-0.2,0.8-0.2c0.5,0,0.8,0.2,1.1,0.5s0.4,0.8,0.4,1.3v0.3h-2.5c0,0.4,0.1,0.7,0.3,0.9
			c0.2,0.2,0.5,0.3,0.8,0.3c0.2,0,0.4,0,0.6-0.1c0.2-0.1,0.3-0.2,0.4-0.4l0.4,0.3C107,259.4,106.6,259.6,106,259.6z M101,257.8
			c0,0.4,0.1,0.7,0.3,1c0.2,0.2,0.4,0.4,0.7,0.4c0.4,0,0.7-0.2,0.9-0.5v-1.7c-0.2-0.4-0.5-0.5-0.9-0.5c-0.3,0-0.5,0.1-0.7,0.4
			C101.1,256.9,101,257.3,101,257.8z M100.4,257.7c0-0.6,0.1-1,0.4-1.4c0.3-0.3,0.6-0.5,1.1-0.5c0.4,0,0.8,0.2,1,0.5l0-0.4h0.6v3.6
			c0,0.5-0.1,0.8-0.4,1.1c-0.3,0.3-0.7,0.4-1.1,0.4c-0.3,0-0.5-0.1-0.8-0.2c-0.3-0.1-0.4-0.3-0.6-0.5l0.3-0.4c0.3,0.3,0.6,0.5,1,0.5
			c0.3,0,0.5-0.1,0.7-0.3c0.2-0.2,0.3-0.4,0.3-0.7v-0.3c-0.3,0.3-0.6,0.4-1,0.4c-0.4,0-0.8-0.2-1-0.5
			C100.5,258.7,100.4,258.3,100.4,257.7z M98,259.1c0.2,0,0.4-0.1,0.6-0.2c0.2-0.1,0.3-0.2,0.4-0.4v-0.8h-0.5
			c-0.8,0-1.2,0.2-1.2,0.7c0,0.2,0.1,0.4,0.2,0.5C97.6,259,97.8,259.1,98,259.1z M99,259.5c0-0.1-0.1-0.2-0.1-0.4
			c-0.3,0.3-0.6,0.5-1,0.5c-0.4,0-0.7-0.1-0.9-0.3c-0.2-0.2-0.3-0.5-0.3-0.8c0-0.4,0.1-0.7,0.4-0.9c0.3-0.2,0.7-0.3,1.2-0.3h0.6V257
			c0-0.2-0.1-0.4-0.2-0.5c-0.1-0.1-0.3-0.2-0.6-0.2c-0.2,0-0.4,0.1-0.6,0.2c-0.2,0.1-0.2,0.2-0.2,0.4h-0.6c0-0.2,0.1-0.4,0.2-0.5
			c0.1-0.2,0.3-0.3,0.5-0.4c0.2-0.1,0.5-0.1,0.7-0.1c0.4,0,0.8,0.1,1,0.3c0.2,0.2,0.4,0.5,0.4,0.9v1.7c0,0.3,0,0.6,0.1,0.8v0.1H99z
			 M94.3,257.8l-0.4,0.4v1.3h-0.6v-5.2h0.6v3.1l0.3-0.4l1.1-1.2h0.8l-1.4,1.5l1.6,2.1h-0.7L94.3,257.8z M91.1,259.1
			c0.2,0,0.4-0.1,0.6-0.2s0.3-0.3,0.3-0.5h0.6c0,0.2-0.1,0.4-0.2,0.6c-0.1,0.2-0.3,0.3-0.5,0.5c-0.2,0.1-0.5,0.2-0.7,0.2
			c-0.5,0-0.9-0.2-1.2-0.5c-0.3-0.3-0.4-0.8-0.4-1.4v-0.1c0-0.4,0.1-0.7,0.2-1c0.1-0.3,0.3-0.5,0.6-0.6c0.2-0.2,0.5-0.2,0.9-0.2
			c0.4,0,0.8,0.1,1,0.4c0.3,0.2,0.4,0.6,0.4,1H92c0-0.2-0.1-0.4-0.3-0.6c-0.2-0.2-0.4-0.2-0.6-0.2c-0.3,0-0.6,0.1-0.7,0.3
			c-0.2,0.2-0.3,0.6-0.3,1v0.1c0,0.4,0.1,0.7,0.3,1C90.5,259,90.8,259.1,91.1,259.1z M87.1,259.1c0.2,0,0.4-0.1,0.6-0.2
			s0.3-0.2,0.4-0.4v-0.8h-0.5c-0.8,0-1.2,0.2-1.2,0.7c0,0.2,0.1,0.4,0.2,0.5C86.7,259,86.9,259.1,87.1,259.1z M88.1,259.5
			c0-0.1-0.1-0.2-0.1-0.4c-0.3,0.3-0.6,0.5-1,0.5c-0.4,0-0.7-0.1-0.9-0.3c-0.2-0.2-0.3-0.5-0.3-0.8c0-0.4,0.1-0.7,0.4-0.9
			c0.3-0.2,0.7-0.3,1.2-0.3H88V257c0-0.2-0.1-0.4-0.2-0.5c-0.1-0.1-0.3-0.2-0.6-0.2c-0.2,0-0.4,0.1-0.6,0.2
			c-0.2,0.1-0.2,0.2-0.2,0.4h-0.6c0-0.2,0.1-0.4,0.2-0.5c0.1-0.2,0.3-0.3,0.5-0.4c0.2-0.1,0.5-0.1,0.7-0.1c0.4,0,0.8,0.1,1,0.3
			c0.2,0.2,0.4,0.5,0.4,0.9v1.7c0,0.3,0,0.6,0.1,0.8v0.1H88.1z M82.3,257.1h1.2c0.3,0,0.6-0.1,0.8-0.2c0.2-0.2,0.3-0.4,0.3-0.7
			c0-0.3-0.1-0.5-0.3-0.7c-0.2-0.2-0.4-0.3-0.8-0.3h-1.2V257.1z M82.3,257.6v1.9h-0.7v-4.9h1.8c0.5,0,1,0.1,1.3,0.4
			c0.3,0.3,0.5,0.6,0.5,1.1c0,0.5-0.2,0.8-0.5,1.1c-0.3,0.3-0.7,0.4-1.3,0.4H82.3z M76.4,257.8c0,0.4,0.1,0.7,0.3,1s0.4,0.4,0.7,0.4
			c0.4,0,0.7-0.2,0.9-0.5v-1.7c-0.2-0.3-0.5-0.5-0.9-0.5c-0.3,0-0.5,0.1-0.7,0.4C76.4,256.9,76.4,257.3,76.4,257.8z M75.7,257.7
			c0-0.6,0.1-1,0.4-1.4c0.3-0.3,0.6-0.5,1-0.5c0.4,0,0.8,0.1,1,0.4v-1.9h0.6v5.2h-0.6l0-0.4c-0.3,0.3-0.6,0.5-1,0.5
			c-0.4,0-0.8-0.2-1-0.5C75.9,258.7,75.7,258.3,75.7,257.7L75.7,257.7z M73.6,256.3c-0.3,0-0.5,0.1-0.6,0.3
			c-0.2,0.2-0.3,0.4-0.3,0.8h1.8v0c0-0.3-0.1-0.6-0.3-0.7C74.1,256.4,73.9,256.3,73.6,256.3z M73.7,259.6c-0.5,0-0.9-0.2-1.2-0.5
			c-0.3-0.3-0.5-0.8-0.5-1.3v-0.1c0-0.4,0.1-0.7,0.2-1c0.1-0.3,0.3-0.5,0.6-0.7c0.3-0.2,0.5-0.2,0.8-0.2c0.5,0,0.8,0.2,1.1,0.5
			s0.4,0.8,0.4,1.3v0.3h-2.5c0,0.4,0.1,0.7,0.3,0.9c0.2,0.2,0.5,0.3,0.8,0.3c0.2,0,0.4,0,0.6-0.1c0.2-0.1,0.3-0.2,0.4-0.4l0.4,0.3
			C74.8,259.4,74.3,259.6,73.7,259.6z M69.4,259h2.1v0.5h-2.9v-0.5l2-2.7h-2v-0.5h2.8v0.4L69.4,259z M67.1,254.9
			c0-0.1,0-0.2,0.1-0.3c0.1-0.1,0.2-0.1,0.3-0.1c0.1,0,0.2,0,0.3,0.1s0.1,0.2,0.1,0.3c0,0.1,0,0.2-0.1,0.3c-0.1,0.1-0.2,0.1-0.3,0.1
			c-0.1,0-0.2,0-0.3-0.1C67.2,255.1,67.1,255,67.1,254.9z M67.8,259.5h-0.6v-3.7h0.6V259.5z M61.6,255.9l0,0.4
			c0.3-0.3,0.6-0.5,1.1-0.5c0.5,0,0.9,0.2,1,0.6c0.1-0.2,0.3-0.3,0.5-0.4c0.2-0.1,0.4-0.2,0.7-0.2c0.8,0,1.2,0.4,1.2,1.3v2.5h-0.6
			v-2.4c0-0.3-0.1-0.5-0.2-0.6c-0.1-0.1-0.3-0.2-0.6-0.2c-0.2,0-0.4,0.1-0.6,0.2c-0.2,0.1-0.2,0.3-0.3,0.6v2.4h-0.6v-2.4
			c0-0.5-0.3-0.8-0.8-0.8c-0.4,0-0.7,0.2-0.8,0.5v2.7H61v-3.7H61.6z M57.5,257.8c0,0.4,0.1,0.7,0.3,1c0.2,0.2,0.4,0.4,0.8,0.4
			c0.3,0,0.6-0.1,0.8-0.4c0.2-0.3,0.3-0.6,0.3-1.1c0-0.4-0.1-0.7-0.3-1c-0.2-0.3-0.4-0.4-0.8-0.4c-0.3,0-0.6,0.1-0.7,0.4
			C57.6,256.9,57.5,257.3,57.5,257.8z M56.9,257.7c0-0.4,0.1-0.7,0.2-1c0.1-0.3,0.3-0.5,0.6-0.7c0.3-0.2,0.5-0.2,0.9-0.2
			c0.5,0,0.9,0.2,1.2,0.5c0.3,0.3,0.5,0.8,0.5,1.4v0c0,0.4-0.1,0.7-0.2,1c-0.1,0.3-0.3,0.5-0.6,0.7c-0.3,0.2-0.5,0.2-0.9,0.2
			c-0.5,0-0.9-0.2-1.2-0.5C57.1,258.7,56.9,258.3,56.9,257.7L56.9,257.7z M55.7,255v0.9h0.7v0.5h-0.7v2.3c0,0.1,0,0.3,0.1,0.3
			c0.1,0.1,0.2,0.1,0.3,0.1c0.1,0,0.2,0,0.3,0v0.5c-0.2,0-0.3,0.1-0.5,0.1c-0.3,0-0.5-0.1-0.6-0.3c-0.1-0.2-0.2-0.4-0.2-0.7v-2.3
			h-0.7v-0.5h0.7V255H55.7z M53.4,258.6c0-0.2-0.1-0.3-0.2-0.4c-0.1-0.1-0.3-0.2-0.7-0.2c-0.3-0.1-0.6-0.1-0.8-0.2
			c-0.2-0.1-0.3-0.2-0.4-0.3c-0.1-0.1-0.1-0.3-0.1-0.5c0-0.3,0.1-0.6,0.4-0.8c0.3-0.2,0.6-0.3,1-0.3c0.4,0,0.8,0.1,1,0.3
			c0.3,0.2,0.4,0.5,0.4,0.8h-0.6c0-0.2-0.1-0.3-0.2-0.4c-0.1-0.1-0.3-0.2-0.5-0.2c-0.2,0-0.4,0-0.5,0.1c-0.1,0.1-0.2,0.2-0.2,0.4
			c0,0.2,0.1,0.3,0.2,0.3c0.1,0.1,0.3,0.2,0.6,0.2c0.3,0.1,0.6,0.2,0.8,0.3c0.2,0.1,0.3,0.2,0.4,0.4c0.1,0.1,0.1,0.3,0.1,0.5
			c0,0.3-0.1,0.6-0.4,0.8c-0.3,0.2-0.6,0.3-1,0.3c-0.3,0-0.6-0.1-0.8-0.2s-0.4-0.2-0.5-0.4c-0.1-0.2-0.2-0.4-0.2-0.6h0.6
			c0,0.2,0.1,0.4,0.3,0.5c0.2,0.1,0.4,0.2,0.6,0.2c0.2,0,0.4,0,0.6-0.1C53.4,258.9,53.4,258.7,53.4,258.6z M49.7,259.2
			c-0.2,0.3-0.6,0.4-1.1,0.4c-0.4,0-0.7-0.1-0.9-0.3c-0.2-0.2-0.3-0.6-0.3-1v-2.4h0.6v2.4c0,0.6,0.2,0.8,0.7,0.8
			c0.5,0,0.8-0.2,1-0.5v-2.7h0.6v3.7h-0.6L49.7,259.2z M46.7,258c-0.1,0.5-0.3,0.9-0.6,1.2c-0.3,0.3-0.8,0.4-1.3,0.4
			c-0.6,0-1.1-0.2-1.4-0.6c-0.4-0.4-0.5-1-0.5-1.7v-0.5c0-0.5,0.1-0.9,0.2-1.2c0.2-0.3,0.4-0.6,0.7-0.8c0.3-0.2,0.6-0.3,1-0.3
			c0.5,0,0.9,0.1,1.3,0.4c0.3,0.3,0.5,0.7,0.6,1.2H46c-0.1-0.4-0.2-0.7-0.4-0.9c-0.2-0.2-0.5-0.3-0.8-0.3c-0.4,0-0.7,0.2-1,0.5
			c-0.2,0.3-0.4,0.7-0.4,1.3v0.5c0,0.5,0.1,1,0.3,1.3c0.2,0.3,0.5,0.5,0.9,0.5c0.4,0,0.6-0.1,0.8-0.2c0.2-0.2,0.3-0.5,0.4-0.9H46.7z
			"/>
		<g>
			<defs>
				<rect id="SVGID_127_" x="19.9" y="302" width="111" height="18.5"/>
			</defs>
			<clipPath id="SVGID_14_">
				<use xlink:href="#SVGID_127_"  style="overflow:visible;"/>
			</clipPath>
			<path class="st14" d="M20.5,320.5V302h-1.2v18.5H20.5z M130.9,319.9h-111v1.2h111V319.9z M130.4,302v18.5h1.2V302H130.4z
				 M19.9,302.6h111v-1.2h-111V302.6z M19.9,320.5h-0.6v0.6h0.6V320.5z M130.9,320.5v0.6h0.6v-0.6H130.9z M130.9,302h0.6v-0.6h-0.6
				V302z M19.9,302v-0.6h-0.6v0.6H19.9z"/>
		</g>
		<path class="st4" d="M80.5,311.8c0,0.6,0.1,1,0.3,1.3c0.2,0.3,0.5,0.5,0.9,0.5c0.5,0,0.9-0.2,1.2-0.7v-2.2
			c-0.3-0.5-0.6-0.7-1.2-0.7c-0.4,0-0.7,0.2-1,0.5C80.6,310.7,80.5,311.1,80.5,311.8z M79.6,311.7c0-0.8,0.2-1.4,0.5-1.8
			c0.4-0.5,0.8-0.7,1.4-0.7c0.6,0,1.1,0.2,1.4,0.6l0-0.5h0.8v4.8c0,0.6-0.2,1.1-0.6,1.5c-0.4,0.4-0.9,0.5-1.5,0.5
			c-0.4,0-0.7-0.1-1-0.2s-0.6-0.4-0.8-0.6l0.4-0.5c0.4,0.4,0.8,0.7,1.3,0.7c0.4,0,0.7-0.1,0.9-0.3c0.2-0.2,0.3-0.6,0.3-1v-0.4
			c-0.3,0.4-0.8,0.6-1.4,0.6c-0.6,0-1-0.2-1.4-0.7C79.8,313.1,79.6,312.5,79.6,311.7z M75.2,311.8c0,0.5,0.1,1,0.4,1.3
			c0.3,0.3,0.6,0.5,1,0.5c0.4,0,0.8-0.2,1-0.5c0.2-0.3,0.4-0.8,0.4-1.4c0-0.5-0.1-1-0.4-1.3c-0.3-0.3-0.6-0.5-1-0.5
			c-0.4,0-0.7,0.2-1,0.5C75.3,310.7,75.2,311.1,75.2,311.8z M74.3,311.7c0-0.5,0.1-0.9,0.3-1.3c0.2-0.4,0.5-0.7,0.8-0.9
			c0.3-0.2,0.7-0.3,1.2-0.3c0.7,0,1.2,0.2,1.6,0.7c0.4,0.5,0.6,1.1,0.6,1.8v0.1c0,0.5-0.1,0.9-0.3,1.3c-0.2,0.4-0.4,0.7-0.8,0.9
			c-0.3,0.2-0.7,0.3-1.2,0.3c-0.7,0-1.2-0.2-1.6-0.7C74.5,313.1,74.3,312.5,74.3,311.7L74.3,311.7z M73.2,314.1h-0.8v-6.9h0.8V314.1
			z M67.5,310.4h1.3c0.4,0,0.7-0.1,0.9-0.3c0.2-0.2,0.3-0.4,0.3-0.8c0-0.4-0.1-0.6-0.3-0.8c-0.2-0.2-0.5-0.2-1-0.2h-1.3V310.4z
			 M67.5,311.1v2.4H69c0.4,0,0.7-0.1,1-0.3c0.2-0.2,0.4-0.5,0.4-0.9c0-0.8-0.4-1.2-1.3-1.2H67.5z M66.7,314.1v-6.6h2.2
			c0.7,0,1.2,0.1,1.6,0.4c0.4,0.3,0.5,0.7,0.5,1.3c0,0.3-0.1,0.6-0.3,0.8c-0.2,0.2-0.4,0.4-0.7,0.5c0.4,0.1,0.6,0.3,0.8,0.6
			c0.2,0.3,0.3,0.6,0.3,1c0,0.6-0.2,1.1-0.6,1.4c-0.4,0.3-0.9,0.5-1.6,0.5H66.7z"/>
		<g>
			<defs>
				<rect id="SVGID_129_" x="19.9" y="153.4" width="111" height="18.5"/>
			</defs>
			<clipPath id="SVGID_16_">
				<use xlink:href="#SVGID_129_"  style="overflow:visible;"/>
			</clipPath>
			<path class="st15" d="M20.5,171.9v-18.5h-1.2v18.5H20.5z M130.9,171.3h-111v1.2h111V171.3z M130.4,153.4v18.5h1.2v-18.5H130.4z
				 M19.9,154h111v-1.2h-111V154z M19.9,171.9h-0.6v0.6h0.6V171.9z M130.9,171.9v0.6h0.6v-0.6H130.9z M130.9,153.4h0.6v-0.6h-0.6
				V153.4z M19.9,153.4v-0.6h-0.6v0.6H19.9z"/>
		</g>
		<path class="st4" d="M99.2,159.5v1.2h0.9v0.6h-0.9v3c0,0.2,0,0.3,0.1,0.4c0.1,0.1,0.2,0.1,0.4,0.1c0.1,0,0.2,0,0.4-0.1v0.7
			c-0.2,0.1-0.4,0.1-0.6,0.1c-0.4,0-0.7-0.1-0.8-0.3c-0.2-0.2-0.3-0.5-0.3-1v-3h-0.9v-0.6h0.9v-1.2H99.2z M96.7,165.5h-0.8v-4.9h0.8
			V165.5z M93.2,165.5v-4.2h-0.8v-0.6h0.8v-0.4c0-0.5,0.2-1,0.5-1.3c0.3-0.3,0.8-0.5,1.3-0.5c0.3,0,0.8,0.1,1.3,0.3l-0.1,0.7
			c-0.4-0.2-0.7-0.2-1.1-0.2c-0.4,0-0.6,0.1-0.8,0.2c-0.2,0.2-0.2,0.4-0.2,0.7v0.4h1v0.6h-1v4.2H93.2z M90.7,159.4
			c0-0.1,0-0.2,0.1-0.3c0.1-0.1,0.2-0.1,0.4-0.1c0.2,0,0.3,0,0.4,0.1c0.1,0.1,0.1,0.2,0.1,0.3c0,0.1,0,0.2-0.1,0.3
			c-0.1,0.1-0.2,0.1-0.4,0.1c-0.2,0-0.3,0-0.4-0.1C90.7,159.6,90.7,159.5,90.7,159.4z M91.6,165.5h-0.8v-4.9h0.8V165.5z M86.3,160.6
			l0,0.6c0.4-0.5,0.9-0.7,1.5-0.7c1,0,1.6,0.6,1.6,1.7v3.2h-0.8v-3.2c0-0.4-0.1-0.6-0.2-0.8c-0.2-0.2-0.4-0.3-0.7-0.3
			c-0.3,0-0.5,0.1-0.7,0.2c-0.2,0.1-0.4,0.3-0.5,0.6v3.5h-0.8v-4.9H86.3z M82.6,161.2c-0.3,0-0.6,0.1-0.8,0.4
			c-0.2,0.2-0.4,0.6-0.4,1h2.4v-0.1c0-0.4-0.1-0.8-0.3-1C83.2,161.4,82.9,161.2,82.6,161.2z M82.7,165.6c-0.7,0-1.2-0.2-1.6-0.7
			c-0.4-0.4-0.6-1-0.6-1.7v-0.2c0-0.5,0.1-0.9,0.3-1.3c0.2-0.4,0.4-0.7,0.8-0.9c0.3-0.2,0.7-0.3,1.1-0.3c0.6,0,1.1,0.2,1.5,0.6
			c0.4,0.4,0.5,1,0.5,1.8v0.3h-3.3c0,0.5,0.2,0.9,0.4,1.2c0.3,0.3,0.6,0.4,1,0.4c0.3,0,0.5-0.1,0.7-0.2c0.2-0.1,0.4-0.3,0.5-0.5
			l0.5,0.4C84.1,165.3,83.5,165.6,82.7,165.6z M75.9,161.8h1.3c0.4,0,0.7-0.1,0.9-0.3c0.2-0.2,0.3-0.4,0.3-0.8
			c0-0.4-0.1-0.6-0.3-0.8c-0.2-0.2-0.5-0.2-1-0.2h-1.3V161.8z M75.9,162.5v2.4h1.4c0.4,0,0.7-0.1,1-0.3c0.2-0.2,0.4-0.5,0.4-0.9
			c0-0.8-0.4-1.2-1.3-1.2H75.9z M75,165.5V159h2.2c0.7,0,1.2,0.1,1.6,0.4c0.4,0.3,0.5,0.7,0.5,1.3c0,0.3-0.1,0.6-0.3,0.8
			c-0.2,0.2-0.4,0.4-0.7,0.5c0.4,0.1,0.6,0.3,0.8,0.6c0.2,0.3,0.3,0.6,0.3,1c0,0.6-0.2,1.1-0.6,1.4c-0.4,0.3-0.9,0.5-1.6,0.5H75z
			 M71.2,166.1h-0.7l2.7-7.1H74L71.2,166.1z M66.4,163.1c0,0.5,0.1,1,0.4,1.3c0.3,0.3,0.6,0.5,1,0.5c0.4,0,0.8-0.2,1-0.5
			c0.2-0.3,0.4-0.8,0.4-1.4c0-0.5-0.1-1-0.4-1.3c-0.3-0.3-0.6-0.5-1-0.5c-0.4,0-0.7,0.2-1,0.5C66.5,162.1,66.4,162.5,66.4,163.1z
			 M65.6,163c0-0.5,0.1-0.9,0.3-1.3c0.2-0.4,0.5-0.7,0.8-0.9c0.3-0.2,0.7-0.3,1.2-0.3c0.7,0,1.2,0.2,1.6,0.7
			c0.4,0.5,0.6,1.1,0.6,1.8v0.1c0,0.5-0.1,0.9-0.3,1.3c-0.2,0.4-0.4,0.7-0.8,0.9c-0.3,0.2-0.7,0.3-1.2,0.3c-0.7,0-1.2-0.2-1.6-0.7
			C65.8,164.5,65.6,163.9,65.6,163L65.6,163z M65.1,161.4c-0.1,0-0.3,0-0.4,0c-0.5,0-0.9,0.2-1.1,0.7v3.5h-0.8v-4.9h0.8l0,0.6
			c0.3-0.4,0.7-0.7,1.2-0.7c0.2,0,0.3,0,0.4,0.1V161.4z M60.9,159.5v1.2h0.9v0.6h-0.9v3c0,0.2,0,0.3,0.1,0.4
			c0.1,0.1,0.2,0.1,0.4,0.1c0.1,0,0.2,0,0.4-0.1v0.7c-0.2,0.1-0.4,0.1-0.6,0.1c-0.4,0-0.7-0.1-0.8-0.3c-0.2-0.2-0.3-0.5-0.3-1v-3
			h-0.9v-0.6H60v-1.2H60.9z M55.4,160.6l0,0.6c0.4-0.5,0.9-0.7,1.5-0.7c1,0,1.6,0.6,1.6,1.7v3.2h-0.8v-3.2c0-0.4-0.1-0.6-0.2-0.8
			c-0.2-0.2-0.4-0.3-0.7-0.3c-0.3,0-0.5,0.1-0.7,0.2s-0.4,0.3-0.5,0.6v3.5h-0.8v-4.9H55.4z M53.2,165.5h-0.9V159h0.9V165.5z"/>
		<g>
			<defs>
				<rect id="SVGID_131_" x="19.9" y="347.7" width="111" height="18.5"/>
			</defs>
			<clipPath id="SVGID_18_">
				<use xlink:href="#SVGID_131_"  style="overflow:visible;"/>
			</clipPath>
			<path class="st16" d="M20.5,366.2v-18.5h-1.2v18.5H20.5z M130.9,365.6h-111v1.2h111V365.6z M130.4,347.7v18.5h1.2v-18.5H130.4z
				 M19.9,348.3h111v-1.2h-111V348.3z M19.9,366.2h-0.6v0.6h0.6V366.2z M130.9,366.2v0.6h0.6v-0.6H130.9z M130.9,347.7h0.6v-0.6
				h-0.6V347.7z M19.9,347.7v-0.6h-0.6v0.6H19.9z"/>
		</g>
		<path class="st4" d="M102.7,353.2v1.2h0.9v0.6h-0.9v3c0,0.2,0,0.3,0.1,0.4c0.1,0.1,0.2,0.1,0.4,0.1c0.1,0,0.2,0,0.4-0.1v0.7
			c-0.2,0.1-0.4,0.1-0.6,0.1c-0.4,0-0.7-0.1-0.8-0.3c-0.2-0.2-0.3-0.5-0.3-1v-3H101v-0.6h0.9v-1.2H102.7z M97.3,354.3l0,0.6
			c0.4-0.5,0.9-0.7,1.5-0.7c1,0,1.6,0.6,1.6,1.7v3.2h-0.8V356c0-0.4-0.1-0.6-0.2-0.8c-0.2-0.2-0.4-0.3-0.7-0.3
			c-0.3,0-0.5,0.1-0.7,0.2c-0.2,0.1-0.4,0.3-0.5,0.6v3.5h-0.8v-4.9H97.3z M93.5,354.9c-0.3,0-0.6,0.1-0.8,0.4
			c-0.2,0.2-0.4,0.6-0.4,1h2.4v-0.1c0-0.4-0.1-0.8-0.3-1C94.1,355.1,93.8,354.9,93.5,354.9z M93.6,359.3c-0.7,0-1.2-0.2-1.6-0.7
			c-0.4-0.4-0.6-1-0.6-1.7v-0.2c0-0.5,0.1-0.9,0.3-1.3c0.2-0.4,0.4-0.7,0.8-0.9c0.3-0.2,0.7-0.3,1.1-0.3c0.6,0,1.1,0.2,1.5,0.6
			c0.4,0.4,0.5,1,0.5,1.8v0.3h-3.3c0,0.5,0.2,0.9,0.4,1.2c0.3,0.3,0.6,0.4,1,0.4c0.3,0,0.5-0.1,0.7-0.2c0.2-0.1,0.4-0.3,0.5-0.5
			l0.5,0.4C95,359,94.4,359.3,93.6,359.3z M84.2,354.3l0,0.5c0.4-0.4,0.8-0.6,1.5-0.6c0.7,0,1.1,0.3,1.4,0.8
			c0.2-0.2,0.4-0.4,0.6-0.6c0.3-0.1,0.6-0.2,0.9-0.2c1.1,0,1.6,0.6,1.6,1.7v3.3h-0.8V356c0-0.3-0.1-0.6-0.2-0.8
			c-0.2-0.2-0.4-0.3-0.8-0.3c-0.3,0-0.6,0.1-0.8,0.3c-0.2,0.2-0.3,0.4-0.4,0.7v3.2h-0.8V356c0-0.7-0.3-1.1-1-1.1
			c-0.5,0-0.9,0.2-1.1,0.7v3.6h-0.8v-4.9H84.2z M80.5,354.9c-0.3,0-0.6,0.1-0.8,0.4c-0.2,0.2-0.4,0.6-0.4,1h2.4v-0.1
			c0-0.4-0.1-0.8-0.3-1C81.1,355.1,80.8,354.9,80.5,354.9z M80.6,359.3c-0.7,0-1.2-0.2-1.6-0.7c-0.4-0.4-0.6-1-0.6-1.7v-0.2
			c0-0.5,0.1-0.9,0.3-1.3c0.2-0.4,0.4-0.7,0.8-0.9c0.3-0.2,0.7-0.3,1.1-0.3c0.6,0,1.1,0.2,1.5,0.6c0.4,0.4,0.5,1,0.5,1.8v0.3h-3.3
			c0,0.5,0.2,0.9,0.4,1.2c0.3,0.3,0.6,0.4,1,0.4c0.3,0,0.5-0.1,0.7-0.2c0.2-0.1,0.4-0.3,0.5-0.5l0.5,0.4
			C82,359,81.4,359.3,80.6,359.3z M76.6,357.9c0-0.2-0.1-0.4-0.3-0.5c-0.2-0.1-0.5-0.2-0.9-0.3c-0.4-0.1-0.8-0.2-1-0.3
			c-0.2-0.1-0.4-0.3-0.6-0.5c-0.1-0.2-0.2-0.4-0.2-0.6c0-0.4,0.2-0.7,0.5-1c0.3-0.3,0.8-0.4,1.3-0.4c0.6,0,1,0.1,1.3,0.4
			c0.3,0.3,0.5,0.7,0.5,1.1h-0.8c0-0.2-0.1-0.4-0.3-0.6c-0.2-0.2-0.4-0.2-0.7-0.2c-0.3,0-0.5,0.1-0.7,0.2c-0.2,0.1-0.3,0.3-0.3,0.5
			c0,0.2,0.1,0.4,0.2,0.5c0.2,0.1,0.4,0.2,0.9,0.3c0.4,0.1,0.8,0.2,1,0.3c0.3,0.1,0.5,0.3,0.6,0.5c0.1,0.2,0.2,0.4,0.2,0.7
			c0,0.4-0.2,0.8-0.5,1.1c-0.3,0.3-0.8,0.4-1.4,0.4c-0.4,0-0.7-0.1-1-0.2c-0.3-0.1-0.5-0.3-0.7-0.6c-0.2-0.2-0.3-0.5-0.3-0.8h0.8
			c0,0.3,0.1,0.5,0.3,0.7c0.2,0.2,0.5,0.2,0.8,0.2c0.3,0,0.6-0.1,0.8-0.2C76.5,358.3,76.6,358.1,76.6,357.9z M73,355.1
			c-0.1,0-0.3,0-0.4,0c-0.5,0-0.9,0.2-1.1,0.7v3.5h-0.8v-4.9h0.8l0,0.6c0.3-0.4,0.7-0.7,1.2-0.7c0.2,0,0.3,0,0.4,0.1V355.1z
			 M66,356.8c0,0.5,0.1,1,0.4,1.3c0.3,0.3,0.6,0.5,1,0.5c0.4,0,0.8-0.2,1-0.5c0.2-0.3,0.4-0.8,0.4-1.4c0-0.5-0.1-1-0.4-1.3
			c-0.3-0.3-0.6-0.5-1-0.5c-0.4,0-0.7,0.2-1,0.5C66.1,355.8,66,356.2,66,356.8z M65.1,356.7c0-0.5,0.1-0.9,0.3-1.3
			c0.2-0.4,0.5-0.7,0.8-0.9c0.3-0.2,0.7-0.3,1.2-0.3c0.7,0,1.2,0.2,1.6,0.7c0.4,0.5,0.6,1.1,0.6,1.8v0.1c0,0.5-0.1,0.9-0.3,1.3
			c-0.2,0.4-0.4,0.7-0.8,0.9c-0.3,0.2-0.7,0.3-1.2,0.3c-0.7,0-1.2-0.2-1.6-0.7C65.3,358.2,65.1,357.6,65.1,356.7L65.1,356.7z
			 M60.8,356.8c0,0.6,0.1,1,0.3,1.3c0.2,0.3,0.5,0.5,0.9,0.5c0.5,0,0.9-0.2,1.2-0.7v-2.2c-0.2-0.5-0.6-0.7-1.2-0.7
			c-0.4,0-0.7,0.2-1,0.5C60.9,355.7,60.8,356.2,60.8,356.8z M59.9,356.7c0-0.7,0.2-1.4,0.5-1.8c0.4-0.5,0.8-0.7,1.4-0.7
			c0.6,0,1,0.2,1.4,0.6v-2.5h0.8v6.9h-0.8l0-0.5c-0.3,0.4-0.8,0.6-1.4,0.6c-0.6,0-1-0.2-1.4-0.7C60.1,358.2,59.9,357.6,59.9,356.7
			L59.9,356.7z M55.8,354.3l0,0.6c0.4-0.5,0.9-0.7,1.5-0.7c1,0,1.6,0.6,1.6,1.7v3.2H58V356c0-0.4-0.1-0.6-0.2-0.8
			c-0.2-0.2-0.4-0.3-0.7-0.3c-0.3,0-0.5,0.1-0.7,0.2s-0.4,0.3-0.5,0.6v3.5H55v-4.9H55.8z M53.6,356.2h-2.9v2.3h3.3v0.7h-4.2v-6.6H54
			v0.7h-3.3v2.1h2.9V356.2z"/>
		<g>
			<defs>
				<rect id="SVGID_133_" x="19.9" y="393.4" width="111" height="42.2"/>
			</defs>
			<clipPath id="SVGID_20_">
				<use xlink:href="#SVGID_133_"  style="overflow:visible;"/>
			</clipPath>
			<path class="st17" d="M20.5,435.6v-42.2h-1.2v42.2H20.5z M130.9,435h-111v1.2h111V435z M130.4,393.4v42.2h1.2v-42.2H130.4z
				 M19.9,393.9h111v-1.2h-111V393.9z M19.9,435.6h-0.6v0.6h0.6V435.6z M130.9,435.6v0.6h0.6v-0.6H130.9z M130.9,393.4h0.6v-0.6
				h-0.6V393.4z M19.9,393.4v-0.6h-0.6v0.6H19.9z"/>
		</g>
		<path class="st4" d="M86.6,404.3c-0.1,0-0.3,0-0.4,0c-0.5,0-0.9,0.2-1.1,0.7v3.5h-0.8v-4.9h0.8l0,0.6c0.3-0.4,0.7-0.7,1.2-0.7
			c0.2,0,0.3,0,0.4,0.1V404.3z M81.3,404.1c-0.3,0-0.6,0.1-0.8,0.4c-0.2,0.2-0.4,0.6-0.4,1h2.4v-0.1c0-0.4-0.1-0.8-0.3-1
			C81.9,404.2,81.6,404.1,81.3,404.1z M81.4,408.5c-0.7,0-1.2-0.2-1.6-0.7c-0.4-0.4-0.6-1-0.6-1.7v-0.2c0-0.5,0.1-0.9,0.3-1.3
			c0.2-0.4,0.4-0.7,0.8-0.9c0.3-0.2,0.7-0.3,1.1-0.3c0.6,0,1.1,0.2,1.5,0.6c0.4,0.4,0.5,1,0.5,1.8v0.3H80c0,0.5,0.2,0.9,0.4,1.2
			c0.3,0.3,0.6,0.4,1,0.4c0.3,0,0.5-0.1,0.7-0.2c0.2-0.1,0.4-0.3,0.5-0.5l0.5,0.4C82.8,408.2,82.2,408.5,81.4,408.5z M77.5,402.3
			v1.2h0.9v0.6h-0.9v3c0,0.2,0,0.3,0.1,0.4c0.1,0.1,0.2,0.1,0.4,0.1c0.1,0,0.2,0,0.4-0.1v0.7c-0.2,0.1-0.4,0.1-0.6,0.1
			c-0.4,0-0.7-0.1-0.8-0.3c-0.2-0.2-0.3-0.5-0.3-1v-3h-0.9v-0.6h0.9v-1.2H77.5z M71.7,406c0,0.5,0.1,1,0.4,1.3
			c0.3,0.3,0.6,0.5,1,0.5c0.4,0,0.8-0.2,1-0.5c0.2-0.3,0.4-0.8,0.4-1.4c0-0.5-0.1-1-0.4-1.3c-0.3-0.3-0.6-0.5-1-0.5
			c-0.4,0-0.7,0.2-1,0.5S71.7,405.4,71.7,406z M70.8,405.9c0-0.5,0.1-0.9,0.3-1.3c0.2-0.4,0.5-0.7,0.8-0.9c0.3-0.2,0.7-0.3,1.2-0.3
			c0.7,0,1.2,0.2,1.6,0.7c0.4,0.5,0.6,1.1,0.6,1.8v0.1c0,0.5-0.1,0.9-0.3,1.3c-0.2,0.4-0.4,0.7-0.8,0.9c-0.3,0.2-0.7,0.3-1.2,0.3
			c-0.7,0-1.2-0.2-1.6-0.7C71,407.3,70.8,406.7,70.8,405.9L70.8,405.9z M66.4,406c0,0.5,0.1,1,0.4,1.3c0.3,0.3,0.6,0.5,1,0.5
			c0.4,0,0.8-0.2,1-0.5c0.2-0.3,0.4-0.8,0.4-1.4c0-0.5-0.1-1-0.4-1.3c-0.3-0.3-0.6-0.5-1-0.5c-0.4,0-0.7,0.2-1,0.5
			C66.5,404.9,66.4,405.4,66.4,406z M65.6,405.9c0-0.5,0.1-0.9,0.3-1.3c0.2-0.4,0.5-0.7,0.8-0.9c0.3-0.2,0.7-0.3,1.2-0.3
			c0.7,0,1.2,0.2,1.6,0.7c0.4,0.5,0.6,1.1,0.6,1.8v0.1c0,0.5-0.1,0.9-0.3,1.3c-0.2,0.4-0.4,0.7-0.8,0.9c-0.3,0.2-0.7,0.3-1.2,0.3
			c-0.7,0-1.2-0.2-1.6-0.7C65.8,407.3,65.6,406.7,65.6,405.9L65.6,405.9z M64.5,405.5h-2.8v2.9h-0.9v-6.6H65v0.7h-3.2v2.2h2.8V405.5
			z"/>
		<path class="st8" d="M35,423.2c0-4.6,3.8-8.4,8.4-8.4h64.8c4.6,0,8.4,3.8,8.4,8.4c0,4.6-3.8,8.4-8.4,8.4H43.3
			C38.7,431.5,35,427.8,35,423.2z"/>
		<path class="st4" d="M92.5,422.1l0,0.5c0.3-0.4,0.6-0.5,1.1-0.5c0.8,0,1.2,0.4,1.2,1.3v2.4h-0.6v-2.4c0-0.3-0.1-0.5-0.2-0.6
			c-0.1-0.1-0.3-0.2-0.6-0.2c-0.2,0-0.4,0.1-0.5,0.2c-0.2,0.1-0.3,0.3-0.4,0.4v2.6H92v-3.7H92.5z M88.5,424c0,0.4,0.1,0.7,0.3,1
			c0.2,0.2,0.4,0.4,0.8,0.4c0.3,0,0.6-0.1,0.8-0.4c0.2-0.3,0.3-0.6,0.3-1.1c0-0.4-0.1-0.7-0.3-1c-0.2-0.3-0.4-0.4-0.8-0.4
			c-0.3,0-0.6,0.1-0.7,0.4C88.6,423.1,88.5,423.5,88.5,424z M87.8,423.9c0-0.4,0.1-0.7,0.2-1c0.1-0.3,0.3-0.5,0.6-0.7
			c0.3-0.2,0.5-0.2,0.9-0.2c0.5,0,0.9,0.2,1.2,0.5c0.3,0.3,0.5,0.8,0.5,1.4v0c0,0.4-0.1,0.7-0.2,1c-0.1,0.3-0.3,0.5-0.6,0.7
			c-0.3,0.2-0.5,0.2-0.9,0.2c-0.5,0-0.9-0.2-1.2-0.5C88,425,87.8,424.5,87.8,423.9L87.8,423.9z M86.3,421.1c0-0.1,0-0.2,0.1-0.3
			c0.1-0.1,0.2-0.1,0.3-0.1s0.2,0,0.3,0.1c0.1,0.1,0.1,0.2,0.1,0.3s0,0.2-0.1,0.3c-0.1,0.1-0.2,0.1-0.3,0.1s-0.2,0-0.3-0.1
			C86.3,421.3,86.3,421.2,86.3,421.1z M87,425.8h-0.6v-3.7H87V425.8z M84.9,421.2v0.9h0.7v0.5h-0.7v2.3c0,0.1,0,0.3,0.1,0.3
			c0.1,0.1,0.2,0.1,0.3,0.1c0.1,0,0.2,0,0.3,0v0.5c-0.2,0-0.3,0.1-0.5,0.1c-0.3,0-0.5-0.1-0.6-0.3c-0.1-0.2-0.2-0.4-0.2-0.7v-2.3
			h-0.7v-0.5h0.7v-0.9H84.9z M81.9,425.3c0.2,0,0.4-0.1,0.6-0.2s0.3-0.3,0.3-0.5h0.6c0,0.2-0.1,0.4-0.2,0.6
			c-0.1,0.2-0.3,0.3-0.5,0.5c-0.2,0.1-0.5,0.2-0.7,0.2c-0.5,0-0.9-0.2-1.2-0.5c-0.3-0.3-0.4-0.8-0.4-1.4v-0.1c0-0.4,0.1-0.7,0.2-1
			s0.3-0.5,0.6-0.6c0.2-0.2,0.5-0.2,0.9-0.2c0.4,0,0.8,0.1,1,0.4c0.3,0.2,0.4,0.6,0.4,1h-0.6c0-0.2-0.1-0.4-0.3-0.6
			c-0.2-0.2-0.4-0.2-0.6-0.2c-0.3,0-0.6,0.1-0.7,0.3c-0.2,0.2-0.3,0.6-0.3,1v0.1c0,0.4,0.1,0.7,0.3,1S81.6,425.3,81.9,425.3z
			 M77.9,425.3c0.2,0,0.4-0.1,0.6-0.2s0.3-0.2,0.4-0.4V424h-0.5c-0.8,0-1.2,0.2-1.2,0.7c0,0.2,0.1,0.4,0.2,0.5
			S77.7,425.3,77.9,425.3z M78.9,425.8c0-0.1-0.1-0.2-0.1-0.4c-0.3,0.3-0.6,0.5-1,0.5c-0.4,0-0.7-0.1-0.9-0.3
			c-0.2-0.2-0.3-0.5-0.3-0.8c0-0.4,0.1-0.7,0.4-0.9c0.3-0.2,0.7-0.3,1.2-0.3h0.6v-0.3c0-0.2-0.1-0.4-0.2-0.5
			c-0.1-0.1-0.3-0.2-0.6-0.2c-0.2,0-0.4,0.1-0.6,0.2c-0.2,0.1-0.2,0.2-0.2,0.4h-0.6c0-0.2,0.1-0.4,0.2-0.5c0.1-0.2,0.3-0.3,0.5-0.4
			c0.2-0.1,0.5-0.1,0.7-0.1c0.4,0,0.8,0.1,1,0.3c0.2,0.2,0.4,0.5,0.4,0.9v1.7c0,0.3,0,0.6,0.1,0.8v0.1H78.9z M71.4,424
			c0,0.4,0.1,0.7,0.3,1c0.2,0.2,0.4,0.4,0.8,0.4c0.3,0,0.6-0.1,0.8-0.4c0.2-0.3,0.3-0.6,0.3-1.1c0-0.4-0.1-0.7-0.3-1
			c-0.2-0.3-0.4-0.4-0.8-0.4c-0.3,0-0.6,0.1-0.7,0.4C71.5,423.1,71.4,423.5,71.4,424z M70.8,423.9c0-0.4,0.1-0.7,0.2-1
			c0.1-0.3,0.3-0.5,0.6-0.7c0.3-0.2,0.5-0.2,0.9-0.2c0.5,0,0.9,0.2,1.2,0.5c0.3,0.3,0.5,0.8,0.5,1.4v0c0,0.4-0.1,0.7-0.2,1
			c-0.1,0.3-0.3,0.5-0.6,0.7c-0.3,0.2-0.5,0.2-0.9,0.2c-0.5,0-0.9-0.2-1.2-0.5C70.9,425,70.8,424.5,70.8,423.9L70.8,423.9z
			 M69.6,421.2v0.9h0.7v0.5h-0.7v2.3c0,0.1,0,0.3,0.1,0.3c0.1,0.1,0.2,0.1,0.3,0.1c0.1,0,0.2,0,0.3,0v0.5c-0.2,0-0.3,0.1-0.5,0.1
			c-0.3,0-0.5-0.1-0.6-0.3c-0.1-0.2-0.2-0.4-0.2-0.7v-2.3h-0.7v-0.5H69v-0.9H69.6z M66,425.8h-0.6v-5.2H66V425.8z M64.3,425.8h-0.6
			v-5.2h0.6V425.8z M61.1,425.3c0.2,0,0.4-0.1,0.6-0.2c0.2-0.1,0.3-0.2,0.4-0.4V424h-0.5c-0.8,0-1.2,0.2-1.2,0.7
			c0,0.2,0.1,0.4,0.2,0.5C60.7,425.2,60.9,425.3,61.1,425.3z M62.1,425.8c0-0.1-0.1-0.2-0.1-0.4c-0.3,0.3-0.6,0.5-1,0.5
			c-0.4,0-0.7-0.1-0.9-0.3c-0.2-0.2-0.3-0.5-0.3-0.8c0-0.4,0.1-0.7,0.4-0.9c0.3-0.2,0.7-0.3,1.2-0.3H62v-0.3c0-0.2-0.1-0.4-0.2-0.5
			c-0.1-0.1-0.3-0.2-0.6-0.2c-0.2,0-0.4,0.1-0.6,0.2s-0.2,0.2-0.2,0.4h-0.6c0-0.2,0.1-0.4,0.2-0.5c0.1-0.2,0.3-0.3,0.5-0.4
			c0.2-0.1,0.5-0.1,0.7-0.1c0.4,0,0.8,0.1,1,0.3c0.2,0.2,0.4,0.5,0.4,0.9v1.7c0,0.3,0,0.6,0.1,0.8v0.1H62.1z M57.7,425.3
			c0.2,0,0.4-0.1,0.6-0.2c0.2-0.1,0.3-0.3,0.3-0.5h0.6c0,0.2-0.1,0.4-0.2,0.6c-0.1,0.2-0.3,0.3-0.5,0.5c-0.2,0.1-0.5,0.2-0.7,0.2
			c-0.5,0-0.9-0.2-1.2-0.5c-0.3-0.3-0.4-0.8-0.4-1.4v-0.1c0-0.4,0.1-0.7,0.2-1c0.1-0.3,0.3-0.5,0.6-0.6c0.2-0.2,0.5-0.2,0.9-0.2
			c0.4,0,0.8,0.1,1,0.4c0.3,0.2,0.4,0.6,0.4,1h-0.6c0-0.2-0.1-0.4-0.3-0.6c-0.2-0.2-0.4-0.2-0.6-0.2c-0.3,0-0.6,0.1-0.7,0.3
			c-0.2,0.2-0.3,0.6-0.3,1v0.1c0,0.4,0.1,0.7,0.3,1C57.1,425.2,57.4,425.3,57.7,425.3z"/>
		<rect x="178.4" y="29.6" class="st4" width="76.3" height="20.2"/>
		<path class="st3" d="M231,37.1h-2.1v5.9H228v-5.9h-2.1v-0.7h5.1V37.1z M225.1,36.4v4.5c0,0.6-0.2,1.1-0.6,1.5
			c-0.4,0.4-0.9,0.6-1.6,0.7l-0.2,0c-0.7,0-1.3-0.2-1.7-0.6c-0.4-0.4-0.6-0.9-0.7-1.6v-4.5h0.9v4.5c0,0.5,0.1,0.8,0.4,1.1
			c0.3,0.3,0.6,0.4,1.1,0.4c0.5,0,0.9-0.1,1.1-0.4c0.3-0.3,0.4-0.6,0.4-1.1v-4.5H225.1z M218.3,39.4c0-0.8-0.2-1.4-0.5-1.8
			c-0.3-0.4-0.8-0.6-1.3-0.6c-0.5,0-1,0.2-1.3,0.6c-0.3,0.4-0.5,1-0.5,1.7v0.5c0,0.8,0.2,1.4,0.5,1.8c0.3,0.4,0.8,0.6,1.3,0.6
			c0.6,0,1-0.2,1.3-0.6c0.3-0.4,0.5-1,0.5-1.8V39.4z M219.1,39.9c0,0.6-0.1,1.2-0.3,1.7c-0.2,0.5-0.5,0.8-0.9,1.1S217,43,216.5,43
			c-0.5,0-1-0.1-1.4-0.4c-0.4-0.3-0.7-0.6-0.9-1.1c-0.2-0.5-0.3-1-0.3-1.6v-0.5c0-0.6,0.1-1.2,0.3-1.7c0.2-0.5,0.5-0.9,0.9-1.1
			c0.4-0.3,0.9-0.4,1.4-0.4c0.5,0,1,0.1,1.4,0.4c0.4,0.3,0.7,0.6,0.9,1.1c0.2,0.5,0.3,1,0.3,1.7V39.9z M209.2,39.2h1.3
			c0.4,0,0.7-0.1,0.9-0.3c0.2-0.2,0.3-0.4,0.3-0.8c0-0.4-0.1-0.6-0.3-0.8c-0.2-0.2-0.5-0.2-1-0.2h-1.3V39.2z M209.2,39.9v2.4h1.4
			c0.4,0,0.7-0.1,1-0.3c0.2-0.2,0.4-0.5,0.4-0.9c0-0.8-0.4-1.2-1.3-1.2H209.2z M208.3,42.9v-6.6h2.2c0.7,0,1.2,0.1,1.6,0.4
			c0.4,0.3,0.5,0.7,0.5,1.3c0,0.3-0.1,0.6-0.3,0.8c-0.2,0.2-0.4,0.4-0.7,0.5c0.4,0.1,0.6,0.3,0.8,0.6c0.2,0.3,0.3,0.6,0.3,1
			c0,0.6-0.2,1.1-0.6,1.4c-0.4,0.3-0.9,0.5-1.6,0.5H208.3z M203.4,40.5h2.2l-1.1-3.1L203.4,40.5z M205.9,41.2h-2.8l-0.6,1.7h-0.9
			l2.5-6.6h0.8l2.5,6.6h-0.9L205.9,41.2z"/>
		<rect x="390" y="29.6" class="st4" width="76.3" height="20.2"/>
		<path class="st3" d="M440.9,38.7c-0.3,0-0.6,0.1-0.8,0.4c-0.2,0.2-0.4,0.6-0.4,1h2.4V40c0-0.4-0.1-0.8-0.3-1
			C441.5,38.8,441.2,38.7,440.9,38.7z M441,43c-0.7,0-1.2-0.2-1.6-0.7c-0.4-0.4-0.6-1-0.6-1.7v-0.2c0-0.5,0.1-0.9,0.3-1.3
			c0.2-0.4,0.4-0.7,0.8-0.9c0.3-0.2,0.7-0.3,1.1-0.3c0.6,0,1.1,0.2,1.5,0.6c0.4,0.4,0.5,1,0.5,1.8v0.3h-3.3c0,0.5,0.2,0.9,0.4,1.2
			c0.3,0.3,0.6,0.4,1,0.4c0.3,0,0.5-0.1,0.7-0.2c0.2-0.1,0.4-0.3,0.5-0.5l0.5,0.4C442.4,42.7,441.8,43,441,43z M436.1,42.4
			c0.3,0,0.6-0.1,0.8-0.3c0.2-0.2,0.3-0.4,0.4-0.7h0.8c0,0.3-0.1,0.5-0.3,0.8c-0.2,0.3-0.4,0.5-0.7,0.6c-0.3,0.2-0.6,0.2-0.9,0.2
			c-0.7,0-1.2-0.2-1.6-0.7c-0.4-0.4-0.6-1.1-0.6-1.8v-0.1c0-0.5,0.1-0.9,0.3-1.3c0.2-0.4,0.4-0.7,0.7-0.9c0.3-0.2,0.7-0.3,1.2-0.3
			c0.5,0,1,0.2,1.4,0.5c0.4,0.3,0.6,0.8,0.6,1.3h-0.8c0-0.3-0.1-0.6-0.4-0.8c-0.2-0.2-0.5-0.3-0.8-0.3c-0.4,0-0.8,0.2-1,0.5
			c-0.2,0.3-0.3,0.7-0.3,1.3v0.2c0,0.6,0.1,1,0.3,1.3C435.3,42.2,435.6,42.4,436.1,42.4z M431.9,36.8c0-0.1,0-0.2,0.1-0.3
			c0.1-0.1,0.2-0.1,0.4-0.1s0.3,0,0.4,0.1c0.1,0.1,0.1,0.2,0.1,0.3c0,0.1,0,0.2-0.1,0.3c-0.1,0.1-0.2,0.1-0.4,0.1s-0.3,0-0.4-0.1
			C431.9,37,431.9,36.9,431.9,36.8z M432.8,42.9h-0.8v-4.9h0.8V42.9z M429,41.8l1.2-3.8h0.9l-1.8,4.9h-0.6l-1.8-4.9h0.9L429,41.8z
			 M426.5,38.8c-0.1,0-0.3,0-0.4,0c-0.5,0-0.9,0.2-1.1,0.7v3.5h-0.8v-4.9h0.8l0,0.6c0.3-0.4,0.7-0.7,1.2-0.7c0.2,0,0.3,0,0.4,0.1
			V38.8z M421.2,38.7c-0.3,0-0.6,0.1-0.8,0.4c-0.2,0.2-0.4,0.6-0.4,1h2.4V40c0-0.4-0.1-0.8-0.3-1C421.8,38.8,421.5,38.7,421.2,38.7z
			 M421.3,43c-0.7,0-1.2-0.2-1.6-0.7c-0.4-0.4-0.6-1-0.6-1.7v-0.2c0-0.5,0.1-0.9,0.3-1.3c0.2-0.4,0.4-0.7,0.8-0.9
			c0.3-0.2,0.7-0.3,1.1-0.3c0.6,0,1.1,0.2,1.5,0.6c0.4,0.4,0.5,1,0.5,1.8v0.3h-3.3c0,0.5,0.2,0.9,0.4,1.2c0.3,0.3,0.6,0.4,1,0.4
			c0.3,0,0.5-0.1,0.7-0.2c0.2-0.1,0.4-0.3,0.5-0.5l0.5,0.4C422.7,42.7,422.1,43,421.3,43z M415.8,40c-0.7-0.2-1.3-0.5-1.6-0.8
			c-0.3-0.3-0.5-0.7-0.5-1.2c0-0.5,0.2-0.9,0.6-1.3c0.4-0.3,1-0.5,1.6-0.5c0.5,0,0.9,0.1,1.2,0.3c0.4,0.2,0.6,0.4,0.8,0.7
			c0.2,0.3,0.3,0.6,0.3,1h-0.9c0-0.4-0.1-0.7-0.4-0.9c-0.3-0.2-0.6-0.3-1.1-0.3c-0.4,0-0.8,0.1-1,0.3c-0.2,0.2-0.4,0.4-0.4,0.8
			c0,0.3,0.1,0.5,0.3,0.7c0.2,0.2,0.6,0.4,1.2,0.5c0.5,0.2,1,0.3,1.3,0.5c0.3,0.2,0.5,0.4,0.7,0.6c0.2,0.2,0.2,0.5,0.2,0.9
			c0,0.5-0.2,1-0.6,1.3c-0.4,0.3-1,0.5-1.7,0.5c-0.5,0-0.9-0.1-1.3-0.3c-0.4-0.2-0.7-0.4-0.9-0.7c-0.2-0.3-0.3-0.6-0.3-1h0.9
			c0,0.4,0.1,0.7,0.4,0.9c0.3,0.2,0.7,0.3,1.2,0.3c0.5,0,0.8-0.1,1.1-0.3c0.2-0.2,0.4-0.4,0.4-0.8c0-0.3-0.1-0.6-0.3-0.7
			C416.8,40.4,416.4,40.2,415.8,40z"/>
		<rect x="588.9" y="29.6" class="st4" width="76.3" height="20.2"/>
		<path class="st3" d="M642,36.9v1.2h0.9v0.6H642v3c0,0.2,0,0.3,0.1,0.4c0.1,0.1,0.2,0.1,0.4,0.1c0.1,0,0.2,0,0.4-0.1v0.7
			c-0.2,0.1-0.4,0.1-0.6,0.1c-0.4,0-0.7-0.1-0.8-0.3c-0.2-0.2-0.3-0.5-0.3-1v-3h-0.9v-0.6h0.9v-1.2H642z M638,42.4
			c0.3,0,0.6-0.1,0.8-0.3s0.3-0.4,0.4-0.7h0.8c0,0.3-0.1,0.5-0.3,0.8c-0.2,0.3-0.4,0.5-0.7,0.6c-0.3,0.2-0.6,0.2-0.9,0.2
			c-0.7,0-1.2-0.2-1.6-0.7c-0.4-0.4-0.6-1.1-0.6-1.8v-0.1c0-0.5,0.1-0.9,0.3-1.3c0.2-0.4,0.4-0.7,0.7-0.9c0.3-0.2,0.7-0.3,1.2-0.3
			c0.5,0,1,0.2,1.4,0.5c0.4,0.3,0.6,0.8,0.6,1.3h-0.8c0-0.3-0.1-0.6-0.4-0.8c-0.2-0.2-0.5-0.3-0.8-0.3c-0.4,0-0.8,0.2-1,0.5
			c-0.2,0.3-0.3,0.7-0.3,1.3v0.2c0,0.6,0.1,1,0.3,1.3C637.2,42.2,637.5,42.4,638,42.4z M632.6,42.3c0.3,0,0.5-0.1,0.7-0.2
			s0.4-0.3,0.5-0.5v-1h-0.7c-1,0-1.5,0.3-1.5,0.9c0,0.3,0.1,0.5,0.3,0.6C632.1,42.2,632.3,42.3,632.6,42.3z M634,42.9
			c0-0.1-0.1-0.3-0.1-0.5c-0.4,0.4-0.9,0.6-1.4,0.6c-0.5,0-0.9-0.1-1.2-0.4c-0.3-0.3-0.5-0.6-0.5-1c0-0.5,0.2-0.9,0.6-1.2
			c0.4-0.3,0.9-0.4,1.6-0.4h0.8v-0.4c0-0.3-0.1-0.5-0.3-0.7c-0.2-0.2-0.4-0.3-0.8-0.3c-0.3,0-0.5,0.1-0.7,0.2
			c-0.2,0.2-0.3,0.3-0.3,0.5h-0.8c0-0.2,0.1-0.5,0.3-0.7c0.2-0.2,0.4-0.4,0.7-0.5c0.3-0.1,0.6-0.2,1-0.2c0.6,0,1,0.1,1.3,0.4
			c0.3,0.3,0.5,0.7,0.5,1.2v2.2c0,0.4,0.1,0.8,0.2,1.1v0.1H634z M629.1,36.9v1.2h0.9v0.6h-0.9v3c0,0.2,0,0.3,0.1,0.4
			c0.1,0.1,0.2,0.1,0.4,0.1c0.1,0,0.2,0,0.4-0.1v0.7c-0.2,0.1-0.4,0.1-0.6,0.1c-0.4,0-0.7-0.1-0.8-0.3c-0.2-0.2-0.3-0.5-0.3-1v-3
			h-0.9v-0.6h0.9v-1.2H629.1z M623.6,38.1l0,0.6c0.4-0.5,0.9-0.7,1.5-0.7c1,0,1.6,0.6,1.6,1.7v3.2h-0.8v-3.2c0-0.4-0.1-0.6-0.2-0.8
			c-0.2-0.2-0.4-0.3-0.7-0.3c-0.3,0-0.5,0.1-0.7,0.2c-0.2,0.1-0.4,0.3-0.5,0.6v3.5h-0.8v-4.9H623.6z M618.2,40.6
			c0,0.5,0.1,1,0.4,1.3c0.3,0.3,0.6,0.5,1,0.5c0.4,0,0.8-0.2,1-0.5c0.2-0.3,0.4-0.8,0.4-1.4c0-0.5-0.1-1-0.4-1.3
			c-0.3-0.3-0.6-0.5-1-0.5c-0.4,0-0.7,0.2-1,0.5C618.3,39.5,618.2,39.9,618.2,40.6z M617.3,40.5c0-0.5,0.1-0.9,0.3-1.3
			c0.2-0.4,0.5-0.7,0.8-0.9c0.3-0.2,0.7-0.3,1.2-0.3c0.7,0,1.2,0.2,1.6,0.7c0.4,0.5,0.6,1.1,0.6,1.8v0.1c0,0.5-0.1,0.9-0.3,1.3
			c-0.2,0.4-0.4,0.7-0.8,0.9c-0.3,0.2-0.7,0.3-1.2,0.3c-0.7,0-1.2-0.2-1.6-0.7C617.5,41.9,617.3,41.3,617.3,40.5L617.3,40.5z
			 M616.5,40.9c-0.1,0.7-0.3,1.2-0.8,1.6c-0.4,0.4-1,0.6-1.7,0.6c-0.8,0-1.4-0.3-1.9-0.8c-0.5-0.6-0.7-1.3-0.7-2.2v-0.6
			c0-0.6,0.1-1.1,0.3-1.6c0.2-0.5,0.5-0.8,0.9-1.1c0.4-0.2,0.9-0.4,1.4-0.4c0.7,0,1.3,0.2,1.7,0.6c0.4,0.4,0.7,0.9,0.7,1.6h-0.9
			c-0.1-0.5-0.2-0.9-0.5-1.1c-0.3-0.2-0.6-0.4-1.1-0.4c-0.6,0-1,0.2-1.3,0.6c-0.3,0.4-0.5,1-0.5,1.7V40c0,0.7,0.1,1.3,0.4,1.7
			c0.3,0.4,0.7,0.6,1.3,0.6c0.5,0,0.9-0.1,1.1-0.3c0.3-0.2,0.4-0.6,0.5-1.1H616.5z"/>
		<rect x="730" y="29.6" class="st4" width="76.3" height="20.2"/>
		<path class="st3" d="M789,38.8c-0.1,0-0.3,0-0.4,0c-0.5,0-0.9,0.2-1.1,0.7v3.5h-0.8v-4.9h0.8l0,0.6c0.3-0.4,0.7-0.7,1.2-0.7
			c0.2,0,0.3,0,0.4,0.1V38.8z M783.6,38.7c-0.3,0-0.6,0.1-0.8,0.4c-0.2,0.2-0.4,0.6-0.4,1h2.4V40c0-0.4-0.1-0.8-0.3-1
			C784.3,38.8,784,38.7,783.6,38.7z M783.8,43c-0.7,0-1.2-0.2-1.6-0.7c-0.4-0.4-0.6-1-0.6-1.7v-0.2c0-0.5,0.1-0.9,0.3-1.3
			c0.2-0.4,0.4-0.7,0.8-0.9c0.3-0.2,0.7-0.3,1.1-0.3c0.6,0,1.1,0.2,1.5,0.6c0.4,0.4,0.5,1,0.5,1.8v0.3h-3.3c0,0.5,0.2,0.9,0.4,1.2
			c0.3,0.3,0.6,0.4,1,0.4c0.3,0,0.5-0.1,0.7-0.2c0.2-0.1,0.4-0.3,0.5-0.5l0.5,0.4C785.2,42.7,784.6,43,783.8,43z M777.4,38.1l0,0.6
			c0.4-0.5,0.9-0.7,1.5-0.7c1,0,1.6,0.6,1.6,1.7v3.2h-0.8v-3.2c0-0.4-0.1-0.6-0.2-0.8c-0.2-0.2-0.4-0.3-0.7-0.3
			c-0.3,0-0.5,0.1-0.7,0.2c-0.2,0.1-0.4,0.3-0.5,0.6v3.5h-0.8v-4.9H777.4z M775.8,38.8c-0.1,0-0.3,0-0.4,0c-0.5,0-0.9,0.2-1.1,0.7
			v3.5h-0.8v-4.9h0.8l0,0.6c0.3-0.4,0.7-0.7,1.2-0.7c0.2,0,0.3,0,0.4,0.1V38.8z M768.8,40.6c0,0.5,0.1,1,0.4,1.3
			c0.3,0.3,0.6,0.5,1,0.5c0.4,0,0.8-0.2,1-0.5c0.2-0.3,0.4-0.8,0.4-1.4c0-0.5-0.1-1-0.4-1.3c-0.3-0.3-0.6-0.5-1-0.5
			c-0.4,0-0.7,0.2-1,0.5C769,39.5,768.8,39.9,768.8,40.6z M768,40.5c0-0.5,0.1-0.9,0.3-1.3c0.2-0.4,0.5-0.7,0.8-0.9
			c0.3-0.2,0.7-0.3,1.2-0.3c0.7,0,1.2,0.2,1.6,0.7c0.4,0.5,0.6,1.1,0.6,1.8v0.1c0,0.5-0.1,0.9-0.3,1.3c-0.2,0.4-0.4,0.7-0.8,0.9
			c-0.3,0.2-0.7,0.3-1.2,0.3c-0.7,0-1.2-0.2-1.6-0.7C768.2,41.9,768,41.3,768,40.5L768,40.5z M767.1,40.9c-0.1,0.7-0.3,1.2-0.8,1.6
			c-0.4,0.4-1,0.6-1.7,0.6c-0.8,0-1.4-0.3-1.9-0.8c-0.5-0.6-0.7-1.3-0.7-2.2v-0.6c0-0.6,0.1-1.1,0.3-1.6c0.2-0.5,0.5-0.8,0.9-1.1
			c0.4-0.2,0.9-0.4,1.4-0.4c0.7,0,1.3,0.2,1.7,0.6c0.4,0.4,0.7,0.9,0.7,1.6h-0.9c-0.1-0.5-0.2-0.9-0.5-1.1c-0.3-0.2-0.6-0.4-1.1-0.4
			c-0.6,0-1,0.2-1.3,0.6c-0.3,0.4-0.5,1-0.5,1.7V40c0,0.7,0.1,1.3,0.4,1.7c0.3,0.4,0.7,0.6,1.3,0.6c0.5,0,0.9-0.1,1.1-0.3
			c0.3-0.2,0.4-0.6,0.5-1.1H767.1z M757.1,41.7l1.1-3.7h0.9l-2,5.6c-0.3,0.8-0.8,1.2-1.5,1.2l-0.2,0l-0.3-0.1v-0.7l0.2,0
			c0.3,0,0.5-0.1,0.7-0.2c0.2-0.1,0.3-0.3,0.4-0.6l0.2-0.5l-1.7-4.8h0.9L757.1,41.7z M748.7,36.4l2.2,5.4l2.2-5.4h1.1v6.6h-0.9v-2.6
			l0.1-2.8l-2.2,5.3h-0.7l-2.2-5.3l0.1,2.8v2.6h-0.9v-6.6H748.7z"/>
		<path class="st4" d="M75.1,49.9l0,27.2h0.6l0-27.2H75.1z M75.2,77.3c0.1,0.1,0.3,0.1,0.4,0l1.8-1.8c0.1-0.1,0.1-0.3,0-0.4
			c-0.1-0.1-0.3-0.1-0.4,0l-1.6,1.6L73.8,75c-0.1-0.1-0.3-0.1-0.4,0c-0.1,0.1-0.1,0.3,0,0.4L75.2,77.3z"/>
		<path class="st4" d="M216.2,49.9l0,27.2h0.6l0-27.2H216.2z M216.3,77.3c0.1,0.1,0.3,0.1,0.4,0l1.8-1.8c0.1-0.1,0.1-0.3,0-0.4
			c-0.1-0.1-0.3-0.1-0.4,0l-1.6,1.6l-1.6-1.6c-0.1-0.1-0.3-0.1-0.4,0c-0.1,0.1-0.1,0.3,0,0.4L216.3,77.3z"/>
		<path class="st4" d="M629.7,49.9l0,27.2h0.6l0-27.2H629.7z M629.8,77.3c0.1,0.1,0.3,0.1,0.4,0l1.8-1.8c0.1-0.1,0.1-0.3,0-0.4
			c-0.1-0.1-0.3-0.1-0.4,0l-1.6,1.6l-1.6-1.6c-0.1-0.1-0.3-0.1-0.4,0c-0.1,0.1-0.1,0.3,0,0.4L629.8,77.3z"/>
		<path class="st4" d="M766.2,49.9l0,27.2h0.6l0-27.2H766.2z M766.2,77.3c0.1,0.1,0.3,0.1,0.4,0l1.8-1.8c0.1-0.1,0.1-0.3,0-0.4
			c-0.1-0.1-0.3-0.1-0.4,0l-1.6,1.6l-1.6-1.6c-0.1-0.1-0.3-0.1-0.4,0c-0.1,0.1-0.1,0.3,0,0.4L766.2,77.3z"/>
		<path class="st4" d="M427.9,49.9l0,27.2h0.6l0-27.2H427.9z M428,77.3c0.1,0.1,0.3,0.1,0.4,0l1.8-1.8c0.1-0.1,0.1-0.3,0-0.4
			c-0.1-0.1-0.3-0.1-0.4,0l-1.6,1.6l-1.6-1.6c-0.1-0.1-0.3-0.1-0.4,0c-0.1,0.1-0.1,0.3,0,0.4L428,77.3z"/>
		<path class="st4" d="M75.1,125.6l0,27.2h0.6l0-27.2H75.1z M75.2,153c0.1,0.1,0.3,0.1,0.4,0l1.8-1.8c0.1-0.1,0.1-0.3,0-0.4
			c-0.1-0.1-0.3-0.1-0.4,0l-1.6,1.6l-1.6-1.6c-0.1-0.1-0.3-0.1-0.4,0c-0.1,0.1-0.1,0.3,0,0.4L75.2,153z"/>
		<path class="st4" d="M75.1,171.9l0,27.2h0.6l0-27.2H75.1z M75.2,199.3c0.1,0.1,0.3,0.1,0.4,0l1.8-1.8c0.1-0.1,0.1-0.3,0-0.4
			c-0.1-0.1-0.3-0.1-0.4,0l-1.6,1.6l-1.6-1.6c-0.1-0.1-0.3-0.1-0.4,0c-0.1,0.1-0.1,0.3,0,0.4L75.2,199.3z"/>
		<path class="st4" d="M75.1,274.8l0,27.2h0.6l0-27.2H75.1z M75.2,302.2c0.1,0.1,0.3,0.1,0.4,0l1.8-1.8c0.1-0.1,0.1-0.3,0-0.4
			c-0.1-0.1-0.3-0.1-0.4,0l-1.6,1.6l-1.6-1.6c-0.1-0.1-0.3-0.1-0.4,0c-0.1,0.1-0.1,0.3,0,0.4L75.2,302.2z"/>
		<path class="st4" d="M75.1,320.5l0,27.2h0.6l0-27.2H75.1z M75.2,347.9c0.1,0.1,0.3,0.1,0.4,0l1.8-1.8c0.1-0.1,0.1-0.3,0-0.4
			c-0.1-0.1-0.3-0.1-0.4,0l-1.6,1.6l-1.6-1.6c-0.1-0.1-0.3-0.1-0.4,0c-0.1,0.1-0.1,0.3,0,0.4L75.2,347.9z"/>
		<path class="st4" d="M75.1,366.2l0,27.2h0.6l0-27.2H75.1z M75.2,393.6c0.1,0.1,0.3,0.1,0.4,0l1.8-1.8c0.1-0.1,0.1-0.3,0-0.4
			c-0.1-0.1-0.3-0.1-0.4,0l-1.6,1.6l-1.6-1.6c-0.1-0.1-0.3-0.1-0.4,0c-0.1,0.1-0.1,0.3,0,0.4L75.2,393.6z"/>
		<path class="st3" d="M696.6,426.8c0-0.2,0.1-0.4,0.2-0.5c0.2-0.1,0.4-0.2,0.6-0.2c0.2,0,0.4,0.1,0.6,0.2c0.2,0.1,0.2,0.3,0.2,0.5
			c0,0.2-0.1,0.4-0.2,0.6c-0.2,0.1-0.4,0.2-0.6,0.2c-0.2,0-0.4-0.1-0.6-0.2C696.7,427.2,696.6,427,696.6,426.8z M698.1,425.4h-1.2
			l-0.2-4.5h1.6L698.1,425.4z M693.2,426.3h2.8v1.2h-4.3v-6.6h1.6V426.3z M687.2,425h1.4l-0.7-2.3L687.2,425z M689,426.3h-2.2
			l-0.4,1.2h-1.7l2.4-6.6h1.5l2.4,6.6h-1.7L689,426.3z M683,424.1c0-0.7-0.1-1.1-0.3-1.5c-0.2-0.3-0.5-0.5-0.9-0.5
			c-0.8,0-1.2,0.6-1.3,1.8l0,0.5c0,0.6,0.1,1.1,0.3,1.5s0.5,0.5,1,0.5c0.4,0,0.7-0.2,0.9-0.5c0.2-0.3,0.3-0.8,0.3-1.5V424.1z
			 M684.6,424.3c0,0.6-0.1,1.2-0.4,1.7c-0.2,0.5-0.6,0.9-1,1.1c-0.4,0.3-0.9,0.4-1.5,0.4s-1.1-0.1-1.5-0.4c-0.4-0.3-0.8-0.6-1-1.1
			c-0.2-0.5-0.4-1-0.4-1.6v-0.4c0-0.6,0.1-1.2,0.4-1.7c0.2-0.5,0.6-0.9,1-1.1c0.4-0.3,0.9-0.4,1.5-0.4c0.6,0,1.1,0.1,1.5,0.4
			c0.4,0.3,0.8,0.6,1,1.1c0.2,0.5,0.4,1,0.4,1.7V424.3z M678.1,426.7c-0.2,0.3-0.6,0.5-1.1,0.7c-0.5,0.2-1,0.2-1.5,0.2
			c-0.9,0-1.5-0.3-2.1-0.8c-0.5-0.5-0.8-1.3-0.8-2.2l0-0.6c0-0.6,0.1-1.2,0.3-1.7c0.2-0.5,0.6-0.9,1-1.1c0.4-0.3,0.9-0.4,1.5-0.4
			c0.8,0,1.5,0.2,1.9,0.6c0.5,0.4,0.7,0.9,0.8,1.7h-1.5c-0.1-0.4-0.2-0.6-0.4-0.8c-0.2-0.2-0.4-0.2-0.8-0.2c-0.4,0-0.7,0.2-0.9,0.5
			c-0.2,0.3-0.3,0.8-0.3,1.4v0.4c0,0.7,0.1,1.2,0.3,1.5c0.2,0.3,0.6,0.5,1.1,0.5c0.4,0,0.7-0.1,0.9-0.3v-1h-1.1V424h2.7V426.7z"/>
		<path class="st65" d="M116.8,424.9h512.6v-0.6H116.8V424.9z M629.6,424.8c0.1-0.1,0.1-0.3,0-0.4l-1.8-1.8c-0.1-0.1-0.3-0.1-0.4,0
			c-0.1,0.1-0.1,0.3,0,0.4l1.6,1.6l-1.6,1.6c-0.1,0.1-0.1,0.3,0,0.4c0.1,0.1,0.3,0.1,0.4,0L629.6,424.8z"/>
		<path class="st8" d="M402.5,109.7c0-4.6,3.8-8.4,8.4-8.4h33.5c4.6,0,8.4,3.8,8.4,8.4c0,4.6-3.8,8.4-8.4,8.4h-33.5
			C406.2,118.1,402.5,114.4,402.5,109.7z"/>
		<path class="st4" d="M444.4,108.7l0,0.5c0.3-0.4,0.6-0.5,1.1-0.5c0.8,0,1.2,0.4,1.2,1.3v2.4h-0.6v-2.4c0-0.3-0.1-0.5-0.2-0.6
			c-0.1-0.1-0.3-0.2-0.6-0.2c-0.2,0-0.4,0.1-0.5,0.2c-0.2,0.1-0.3,0.3-0.4,0.4v2.6h-0.6v-3.7H444.4z M440.4,110.5
			c0,0.4,0.1,0.7,0.3,1c0.2,0.2,0.4,0.4,0.8,0.4c0.3,0,0.6-0.1,0.8-0.4c0.2-0.3,0.3-0.6,0.3-1.1c0-0.4-0.1-0.7-0.3-1
			c-0.2-0.3-0.4-0.4-0.8-0.4c-0.3,0-0.6,0.1-0.7,0.4C440.4,109.7,440.4,110.1,440.4,110.5z M439.7,110.5c0-0.4,0.1-0.7,0.2-1
			c0.1-0.3,0.3-0.5,0.6-0.7c0.3-0.2,0.5-0.2,0.9-0.2c0.5,0,0.9,0.2,1.2,0.5c0.3,0.3,0.5,0.8,0.5,1.4v0c0,0.4-0.1,0.7-0.2,1
			c-0.1,0.3-0.3,0.5-0.6,0.7c-0.3,0.2-0.5,0.2-0.9,0.2c-0.5,0-0.9-0.2-1.2-0.5C439.9,111.5,439.7,111.1,439.7,110.5L439.7,110.5z
			 M438.2,107.7c0-0.1,0-0.2,0.1-0.3c0.1-0.1,0.2-0.1,0.3-0.1s0.2,0,0.3,0.1c0.1,0.1,0.1,0.2,0.1,0.3s0,0.2-0.1,0.3
			c-0.1,0.1-0.2,0.1-0.3,0.1s-0.2,0-0.3-0.1C438.2,107.9,438.2,107.8,438.2,107.7z M438.9,112.3h-0.6v-3.7h0.6V112.3z M436.8,107.8
			v0.9h0.7v0.5h-0.7v2.3c0,0.1,0,0.3,0.1,0.3c0.1,0.1,0.2,0.1,0.3,0.1c0.1,0,0.2,0,0.3,0v0.5c-0.2,0-0.3,0.1-0.5,0.1
			c-0.3,0-0.5-0.1-0.6-0.3c-0.1-0.2-0.2-0.4-0.2-0.7v-2.3h-0.7v-0.5h0.7v-0.9H436.8z M433.8,111.9c0.2,0,0.4-0.1,0.6-0.2
			c0.2-0.1,0.3-0.3,0.3-0.5h0.6c0,0.2-0.1,0.4-0.2,0.6c-0.1,0.2-0.3,0.3-0.5,0.5c-0.2,0.1-0.5,0.2-0.7,0.2c-0.5,0-0.9-0.2-1.2-0.5
			c-0.3-0.3-0.4-0.8-0.4-1.4v-0.1c0-0.4,0.1-0.7,0.2-1c0.1-0.3,0.3-0.5,0.6-0.6c0.2-0.2,0.5-0.2,0.9-0.2c0.4,0,0.8,0.1,1,0.4
			c0.3,0.2,0.4,0.6,0.4,1h-0.6c0-0.2-0.1-0.4-0.3-0.6c-0.2-0.2-0.4-0.2-0.6-0.2c-0.3,0-0.6,0.1-0.7,0.3c-0.2,0.2-0.3,0.6-0.3,1v0.1
			c0,0.4,0.1,0.7,0.3,1C433.2,111.8,433.4,111.9,433.8,111.9z M429.7,111.9c0.2,0,0.4-0.1,0.6-0.2c0.2-0.1,0.3-0.2,0.4-0.4v-0.8
			h-0.5c-0.8,0-1.2,0.2-1.2,0.7c0,0.2,0.1,0.4,0.2,0.5C429.4,111.8,429.5,111.9,429.7,111.9z M430.8,112.3c0-0.1-0.1-0.2-0.1-0.4
			c-0.3,0.3-0.6,0.5-1,0.5c-0.4,0-0.7-0.1-0.9-0.3c-0.2-0.2-0.3-0.5-0.3-0.8c0-0.4,0.1-0.7,0.4-0.9c0.3-0.2,0.7-0.3,1.2-0.3h0.6
			v-0.3c0-0.2-0.1-0.4-0.2-0.5c-0.1-0.1-0.3-0.2-0.6-0.2c-0.2,0-0.4,0.1-0.6,0.2c-0.2,0.1-0.2,0.2-0.2,0.4h-0.6
			c0-0.2,0.1-0.4,0.2-0.5c0.1-0.2,0.3-0.3,0.5-0.4c0.2-0.1,0.5-0.1,0.7-0.1c0.4,0,0.8,0.1,1,0.3c0.2,0.2,0.4,0.5,0.4,0.9v1.7
			c0,0.3,0,0.6,0.1,0.8v0.1H430.8z M423.3,110.5c0,0.4,0.1,0.7,0.3,1c0.2,0.2,0.4,0.4,0.8,0.4c0.3,0,0.6-0.1,0.8-0.4
			c0.2-0.3,0.3-0.6,0.3-1.1c0-0.4-0.1-0.7-0.3-1c-0.2-0.3-0.4-0.4-0.8-0.4c-0.3,0-0.6,0.1-0.7,0.4
			C423.4,109.7,423.3,110.1,423.3,110.5z M422.7,110.5c0-0.4,0.1-0.7,0.2-1c0.1-0.3,0.3-0.5,0.6-0.7c0.3-0.2,0.5-0.2,0.9-0.2
			c0.5,0,0.9,0.2,1.2,0.5c0.3,0.3,0.5,0.8,0.5,1.4v0c0,0.4-0.1,0.7-0.2,1c-0.1,0.3-0.3,0.5-0.6,0.7c-0.3,0.2-0.5,0.2-0.9,0.2
			c-0.5,0-0.9-0.2-1.2-0.5C422.8,111.5,422.7,111.1,422.7,110.5L422.7,110.5z M421.5,107.8v0.9h0.7v0.5h-0.7v2.3
			c0,0.1,0,0.3,0.1,0.3c0.1,0.1,0.2,0.1,0.3,0.1c0.1,0,0.2,0,0.3,0v0.5c-0.2,0-0.3,0.1-0.5,0.1c-0.3,0-0.5-0.1-0.6-0.3
			c-0.1-0.2-0.2-0.4-0.2-0.7v-2.3h-0.7v-0.5h0.7v-0.9H421.5z M417.9,112.3h-0.6v-5.2h0.6V112.3z M416.2,112.3h-0.6v-5.2h0.6V112.3z
			 M413,111.9c0.2,0,0.4-0.1,0.6-0.2c0.2-0.1,0.3-0.2,0.4-0.4v-0.8h-0.5c-0.8,0-1.2,0.2-1.2,0.7c0,0.2,0.1,0.4,0.2,0.5
			C412.6,111.8,412.8,111.9,413,111.9z M414,112.3c0-0.1-0.1-0.2-0.1-0.4c-0.3,0.3-0.6,0.5-1,0.5c-0.4,0-0.7-0.1-0.9-0.3
			c-0.2-0.2-0.3-0.5-0.3-0.8c0-0.4,0.1-0.7,0.4-0.9c0.3-0.2,0.7-0.3,1.2-0.3h0.6v-0.3c0-0.2-0.1-0.4-0.2-0.5
			c-0.1-0.1-0.3-0.2-0.6-0.2c-0.2,0-0.4,0.1-0.6,0.2c-0.2,0.1-0.2,0.2-0.2,0.4h-0.6c0-0.2,0.1-0.4,0.2-0.5c0.1-0.2,0.3-0.3,0.5-0.4
			c0.2-0.1,0.5-0.1,0.7-0.1c0.4,0,0.8,0.1,1,0.3c0.2,0.2,0.4,0.5,0.4,0.9v1.7c0,0.3,0,0.6,0.1,0.8v0.1H414z M409.6,111.9
			c0.2,0,0.4-0.1,0.6-0.2c0.2-0.1,0.3-0.3,0.3-0.5h0.6c0,0.2-0.1,0.4-0.2,0.6c-0.1,0.2-0.3,0.3-0.5,0.5c-0.2,0.1-0.5,0.2-0.7,0.2
			c-0.5,0-0.9-0.2-1.2-0.5c-0.3-0.3-0.4-0.8-0.4-1.4v-0.1c0-0.4,0.1-0.7,0.2-1c0.1-0.3,0.3-0.5,0.6-0.6c0.2-0.2,0.5-0.2,0.9-0.2
			c0.4,0,0.8,0.1,1,0.4c0.3,0.2,0.4,0.6,0.4,1h-0.6c0-0.2-0.1-0.4-0.3-0.6c-0.2-0.2-0.4-0.2-0.6-0.2c-0.3,0-0.6,0.1-0.7,0.3
			c-0.2,0.2-0.3,0.6-0.3,1v0.1c0,0.4,0.1,0.7,0.3,1C409,111.8,409.3,111.9,409.6,111.9z"/>
		<path class="st65" d="M479.4,110v304.7h0.6V110H479.4z M452.2,110.3h27.5v-0.6h-27.5V110.3z M479.7,415.1H630v-0.6H479.7V415.1z
			 M479.7,110h0.3v-0.3h-0.3V110z M630.2,415c0.1-0.1,0.1-0.3,0-0.4l-1.8-1.8c-0.1-0.1-0.3-0.1-0.4,0c-0.1,0.1-0.1,0.3,0,0.4
			l1.6,1.6l-1.6,1.6c-0.1,0.1-0.1,0.3,0,0.4c0.1,0.1,0.3,0.1,0.4,0L630.2,415z M479.7,414.8h-0.3v0.3h0.3V414.8z"/>
		<path class="st21" d="M309.1,241.3V100.8h-0.6v140.5H309.1z M130.7,241.6h178.1V241H130.7V241.6z M308.8,101.1h38.2v-0.6h-38.2
			V101.1z M308.8,241.3v0.3h0.3v-0.3H308.8z M347.2,101c0.1-0.1,0.1-0.3,0-0.4l-1.8-1.8c-0.1-0.1-0.3-0.1-0.4,0
			c-0.1,0.1-0.1,0.3,0,0.4l1.6,1.6l-1.6,1.6c-0.1,0.1-0.1,0.3,0,0.4c0.1,0.1,0.3,0.1,0.4,0L347.2,101z M308.8,100.8v-0.3h-0.3v0.3
			H308.8z"/>
		<path class="st21" d="M698.8,310.7V100.8h-0.6v209.9H698.8z M130.7,311h567.8v-0.6H130.7V311z M698.5,101.1h12.1v-0.6h-12.1V101.1
			z M698.5,310.7v0.3h0.3v-0.3H698.5z M710.9,101c0.1-0.1,0.1-0.3,0-0.4l-1.8-1.8c-0.1-0.1-0.3-0.1-0.4,0c-0.1,0.1-0.1,0.3,0,0.4
			l1.6,1.6l-1.6,1.6c-0.1,0.1-0.1,0.3,0,0.4c0.1,0.1,0.3,0.1,0.4,0L710.9,101z M698.5,100.8v-0.3h-0.3v0.3H698.5z"/>
		<path class="st65" d="M148,419.7l481.7,0v-0.6l-481.7,0L148,419.7z M147.7,105.6l0,313.8h0.6l0-313.8H147.7z M115.9,105.9l32.1,0
			v-0.6l-32.1,0L115.9,105.9z M629.9,419.6c0.1-0.1,0.1-0.3,0-0.4l-1.8-1.8c-0.1-0.1-0.3-0.1-0.4,0c-0.1,0.1-0.1,0.3,0,0.4l1.6,1.6
			l-1.6,1.6c-0.1,0.1-0.1,0.3,0,0.4c0.1,0.1,0.3,0.1,0.4,0L629.9,419.6z M148,419.4h-0.3l0,0.3l0.3,0V419.4z M148,105.6h0.3v-0.3
			l-0.3,0L148,105.6z"/>
	</g>
</g>
</svg>
