<?xml version="1.0" encoding="utf-8"?>
<!-- Generator: Adobe Illustrator 25.0.1, SVG Export Plug-In . SVG Version: 6.00 Build 0)  -->
<svg version="1.1" id="Layer_1" xmlns="http://www.w3.org/2000/svg" xmlns:xlink="http://www.w3.org/1999/xlink" x="0px" y="0px"
	 viewBox="0 0 1200 379" style="enable-background:new 0 0 1200 379;" xml:space="preserve">
<style type="text/css">
	.st0{display:none;}
	.st1{display:inline;}
	.st2{fill:#FAD85B;}
	.st3{fill:#558B85;}
	.st4{fill:#E6E6E6;}
	.st5{fill:#FFFFFF;stroke:#000000;stroke-miterlimit:10;}
	.st6{fill:#414141;}
</style>
<g id="Layer_3" class="st0">
	<rect y="-121" class="st1" width="1200" height="500"/>
</g>
<g id="Layer_2_1_">
</g>
<g id="_x30_1_brand_attributes">
</g>
<rect x="74.5" y="95" class="st2" width="150.9" height="150.9"/>
<rect x="297.5" y="95" class="st3" width="150.9" height="150.9"/>
<rect x="743.6" y="95" class="st4" width="150.9" height="150.9"/>
<rect x="966.6" y="95" class="st5" width="150.9" height="150.9"/>
<rect x="520.5" y="95" class="st6" width="150.9" height="150.9"/>
<g>
	<path class="st2" d="M124.1,279.9v1h-2l-0.8,2.6h-1l0.8-2.6h-2.5l-0.8,2.6h-1l0.8-2.6h-1.7v-1h2.1l0.8-2.6h-1.7v-1.2h2.1l0.8-2.7h1
		l-0.9,2.7h2.5l0.8-2.7h1l-0.9,2.7h1.6v1.2h-2l-0.8,2.6H124.1z M118.9,279.9h2.5l0.8-2.6h-2.5L118.9,279.9z"/>
	<path class="st2" d="M133.8,278.1v1.3h-4.4v4.2H128v-10.3h6.6v1.3h-5.3v3.4h4.6v0.1H133.8z"/>
	<path class="st2" d="M141.6,273.4l4.8,10.3h-1.7l-1-2.5h-4.8l-1,2.5h-1.7l4.8-10.3H141.6z M141.4,275.6l-1.8,4.2h3.6L141.4,275.6z"
		/>
	<path class="st2" d="M152,273.2c1.2,0,2.1,0.3,2.9,0.7c0.8,0.4,1.4,1,1.8,2c0.4,0.9,0.7,1.7,0.7,2.7s-0.3,2-0.7,2.7
		c-0.4,0.8-1,1.4-1.8,2c-0.8,0.5-1.8,0.7-2.9,0.7c-0.7,0-1.3,0-2-0.1s-1.2-0.1-1.8-0.3v-9.9c0.7-0.1,1.2-0.3,1.8-0.3
		S151.3,273.2,152,273.2z M152,274.5c-0.4,0-0.8,0-1.2,0s-0.8,0-1.2,0.1v7.7c0.4,0,0.8,0.1,1.2,0.1s0.8,0,1.2,0
		c0.8,0,1.6-0.1,2.1-0.5s1-0.8,1.4-1.4s0.5-1.3,0.5-2.1c0-0.8-0.1-1.4-0.5-2.1s-0.8-1-1.4-1.4S152.8,274.5,152,274.5z"/>
	<path class="st2" d="M162.3,273.2c0.5,0,1,0.1,1.6,0.4s0.8,0.5,1,0.9c0.3,0.4,0.4,0.9,0.4,1.4c0,0.7-0.1,1-0.4,1.4
		c-0.3,0.4-0.7,0.7-1,0.9c0.5,0.3,0.9,0.5,1.3,1s0.5,0.9,0.5,1.6c0,0.5-0.1,1-0.4,1.6s-0.7,0.8-1.2,1.2s-1,0.4-1.8,0.4
		s-1.3-0.1-1.8-0.4s-0.9-0.7-1.2-1.2s-0.4-1-0.4-1.6c0-0.5,0.1-1,0.5-1.6c0.4-0.5,0.8-0.8,1.3-1c-0.4-0.3-0.8-0.5-1-0.9
		s-0.4-0.9-0.4-1.4s0.1-1,0.4-1.4s0.7-0.8,1-0.9C161.2,273.4,161.8,273.2,162.3,273.2z M162.3,278.9c-0.4,0-0.7,0.1-1,0.3
		c-0.4,0.1-0.5,0.4-0.8,0.7c-0.3,0.3-0.3,0.5-0.3,0.9s0.1,0.7,0.3,0.9c0.1,0.3,0.4,0.5,0.8,0.7c0.4,0.1,0.7,0.3,1,0.3
		c0.4,0,0.8-0.1,1-0.3c0.3-0.1,0.5-0.4,0.8-0.7c0.3-0.3,0.3-0.7,0.3-0.9c0-0.4-0.1-0.7-0.3-0.9c-0.1-0.3-0.5-0.5-0.8-0.7
		C163.1,279,162.7,278.9,162.3,278.9z M162.3,274.3c-0.3,0-0.5,0.1-0.8,0.3c-0.3,0.1-0.5,0.4-0.7,0.5c-0.1,0.1-0.3,0.5-0.3,0.8
		s0.1,0.7,0.3,0.8s0.4,0.4,0.7,0.5s0.5,0.1,0.8,0.1s0.5,0,0.9-0.1s0.5-0.3,0.7-0.5s0.3-0.5,0.3-0.8s-0.1-0.7-0.3-0.8
		c-0.1-0.1-0.4-0.4-0.7-0.5C163,274.5,162.6,274.3,162.3,274.3z"/>
	<path class="st2" d="M173.6,273.4v1.3h-4v2.7c0.1,0,0.4-0.1,0.5-0.1s0.4,0,0.8,0c0.5,0,1,0.1,1.6,0.4s0.9,0.7,1.2,1.2
		s0.4,1,0.4,1.6c0,0.7-0.1,1.3-0.5,1.8s-0.8,0.9-1.3,1.3s-1.2,0.4-2,0.4c-0.4,0-0.8,0-1-0.1c-0.3-0.1-0.7-0.3-0.9-0.4
		c-0.3-0.1-0.5-0.3-0.7-0.5v-1.6c0.1,0.1,0.4,0.4,0.7,0.5s0.5,0.4,0.9,0.5s0.8,0.3,1.2,0.3c0.5,0,0.9-0.1,1.3-0.3
		c0.4-0.1,0.7-0.4,0.9-0.8s0.4-0.7,0.4-1.2c0-0.4-0.1-0.8-0.4-1c-0.3-0.2-0.5-0.5-0.9-0.7c-0.4-0.1-0.8-0.3-1.3-0.3
		c-0.4,0-0.8,0-1,0.1c-0.3,0.1-0.7,0.3-0.9,0.3v-5.5L173.6,273.4L173.6,273.4z"/>
	<path class="st2" d="M180.2,273.2c0.8,0,1.4,0.1,2,0.4c0.5,0.3,1,0.7,1.3,1c0.3,0.4,0.5,0.9,0.5,1.4s-0.1,0.9-0.4,1.3
		c-0.3,0.4-0.7,0.8-1,0.9c0.3,0,0.7,0.1,0.9,0.4c0.3,0.3,0.5,0.5,0.8,0.8s0.3,0.8,0.3,1.3s-0.1,1-0.5,1.6c-0.4,0.5-0.8,0.8-1.4,1
		c-0.7,0.3-1.3,0.4-2.1,0.4c-0.7,0-1.3,0-2-0.1s-1.3-0.1-1.7-0.3v-9.9c0.5-0.1,1-0.3,1.7-0.3S179.6,273.2,180.2,273.2z M180.2,274.5
		c-0.4,0-0.8,0-1.2,0s-0.7,0.1-1,0.1v3.3h2.3c0.7,0,1.2-0.1,1.6-0.5c0.4-0.4,0.5-0.8,0.5-1.2s-0.1-0.7-0.4-0.9
		c-0.3-0.3-0.5-0.4-0.9-0.5S180.5,274.5,180.2,274.5z M177.9,282.3c0.4,0.1,0.8,0.1,1.2,0.1s0.8,0,1,0c0.8,0,1.4-0.1,2-0.5
		c0.5-0.4,0.8-0.8,0.8-1.3s-0.3-1-0.8-1.3s-1-0.4-1.8-0.4h-2.5v3.4L177.9,282.3L177.9,282.3z"/>
</g>
<g>
	<path class="st3" d="M350.3,279.9v1h-2l-0.8,2.6h-1l0.8-2.6h-2.5l-0.8,2.6h-1l0.8-2.6h-1.7v-1h2.1l0.8-2.6h-1.7v-1.2h2.1l0.8-2.7h1
		l-0.9,2.7h2.5l0.8-2.7h1l-0.9,2.7h1.6v1.2h-2l-0.8,2.6H350.3z M345.3,279.9h2.5l0.8-2.6h-2.5L345.3,279.9z"/>
	<path class="st3" d="M359.7,273.4v1.3h-4v2.7c0.1,0,0.4-0.1,0.5-0.1s0.4,0,0.8,0c0.5,0,1,0.1,1.6,0.4c0.5,0.3,0.9,0.7,1.2,1.2
		c0.3,0.5,0.4,1,0.4,1.6c0,0.7-0.1,1.3-0.5,1.8s-0.8,0.9-1.3,1.3s-1.2,0.4-2,0.4c-0.4,0-0.8,0-1-0.1c-0.3-0.1-0.7-0.3-0.9-0.4
		c-0.3-0.1-0.5-0.3-0.7-0.5v-1.6c0.1,0.1,0.4,0.4,0.7,0.5c0.3,0.1,0.5,0.4,0.9,0.5s0.8,0.3,1.2,0.3c0.5,0,0.9-0.1,1.3-0.3
		c0.4-0.1,0.7-0.4,0.9-0.8c0.3-0.4,0.4-0.7,0.4-1.2c0-0.4-0.1-0.8-0.4-1c-0.3-0.3-0.5-0.5-0.9-0.7c-0.4-0.1-0.8-0.3-1.3-0.3
		c-0.4,0-0.8,0-1,0.1c-0.3,0.1-0.7,0.3-0.9,0.3v-5.5L359.7,273.4L359.7,273.4z"/>
	<path class="st3" d="M368.2,273.4v1.3h-4v2.7c0.1,0,0.4-0.1,0.5-0.1s0.4,0,0.8,0c0.5,0,1,0.1,1.6,0.4c0.5,0.3,0.9,0.7,1.2,1.2
		c0.3,0.5,0.4,1,0.4,1.6c0,0.7-0.1,1.3-0.5,1.8s-0.8,0.9-1.3,1.3s-1.2,0.4-2,0.4c-0.4,0-0.8,0-1-0.1c-0.3-0.1-0.7-0.3-0.9-0.4
		c-0.3-0.1-0.5-0.3-0.7-0.5v-1.6c0.1,0.1,0.4,0.4,0.7,0.5c0.3,0.1,0.5,0.4,0.9,0.5s0.8,0.3,1.2,0.3c0.5,0,0.9-0.1,1.3-0.3
		c0.4-0.1,0.7-0.4,0.9-0.8c0.3-0.4,0.4-0.7,0.4-1.2c0-0.4-0.1-0.8-0.4-1c-0.3-0.3-0.5-0.5-0.9-0.7c-0.4-0.1-0.8-0.3-1.3-0.3
		c-0.4,0-0.8,0-1,0.1c-0.3,0.1-0.7,0.3-0.9,0.3v-5.5L368.2,273.4L368.2,273.4z"/>
	<path class="st3" d="M373.6,273.2c0.5,0,1,0.1,1.6,0.4c0.5,0.3,0.8,0.5,1,0.9c0.3,0.4,0.4,0.9,0.4,1.4c0,0.7-0.1,1-0.4,1.4
		s-0.7,0.7-1,0.9c0.5,0.3,0.9,0.5,1.3,1s0.5,0.9,0.5,1.6c0,0.5-0.1,1-0.4,1.6s-0.7,0.8-1.2,1.2s-1,0.4-1.8,0.4s-1.3-0.1-1.8-0.4
		s-0.9-0.7-1.2-1.2c-0.3-0.5-0.4-1-0.4-1.6c0-0.5,0.1-1,0.5-1.6c0.4-0.5,0.8-0.8,1.3-1c-0.4-0.3-0.8-0.5-1-0.9s-0.4-0.9-0.4-1.4
		s0.1-1,0.4-1.4s0.7-0.8,1-0.9C372.5,273.4,373.1,273.2,373.6,273.2z M373.6,278.9c-0.4,0-0.7,0.1-1,0.3c-0.4,0.1-0.5,0.4-0.8,0.7
		c-0.3,0.3-0.3,0.5-0.3,0.9s0.1,0.7,0.3,0.9c0.1,0.3,0.4,0.5,0.8,0.7c0.4,0.1,0.7,0.3,1,0.3c0.4,0,0.8-0.1,1-0.3
		c0.3-0.1,0.5-0.4,0.8-0.7c0.3-0.3,0.3-0.7,0.3-0.9c0-0.4-0.1-0.7-0.3-0.9c-0.1-0.3-0.5-0.5-0.8-0.7
		C374.4,279,374,278.9,373.6,278.9z M373.6,274.3c-0.3,0-0.5,0.1-0.8,0.3c-0.3,0.1-0.5,0.4-0.7,0.5c-0.1,0.1-0.3,0.5-0.3,0.8
		s0.1,0.7,0.3,0.8c0.1,0.1,0.4,0.4,0.7,0.5c0.3,0.1,0.5,0.1,0.8,0.1s0.5,0,0.9-0.1s0.5-0.3,0.7-0.5s0.3-0.5,0.3-0.8
		s-0.1-0.7-0.3-0.8c-0.1-0.1-0.4-0.4-0.7-0.5C374.3,274.5,373.9,274.3,373.6,274.3z"/>
	<path class="st3" d="M383.1,273.2c0.8,0,1.4,0.1,2,0.4s1,0.7,1.3,1c0.3,0.4,0.5,0.9,0.5,1.4s-0.1,0.9-0.4,1.3s-0.7,0.8-1,0.9
		c0.3,0,0.7,0.1,0.9,0.4c0.3,0.3,0.5,0.5,0.8,0.8s0.3,0.8,0.3,1.3s-0.1,1-0.5,1.6c-0.4,0.5-0.8,0.8-1.4,1c-0.7,0.3-1.3,0.4-2.1,0.4
		c-0.7,0-1.3,0-2-0.1s-1.3-0.1-1.7-0.3v-9.9c0.5-0.1,1-0.3,1.7-0.3S382.5,273.2,383.1,273.2z M383,274.5c-0.4,0-0.8,0-1.2,0
		c-0.4,0-0.7,0.1-1,0.1v3.3h2.3c0.7,0,1.2-0.1,1.6-0.5s0.5-0.8,0.5-1.2s-0.1-0.7-0.4-0.9c-0.3-0.3-0.5-0.4-0.9-0.5
		C383.5,274.6,383.4,274.5,383,274.5z M380.9,282.3c0.4,0.1,0.8,0.1,1.2,0.1c0.4,0,0.8,0,1,0c0.8,0,1.4-0.1,2-0.5
		c0.5-0.4,0.8-0.8,0.8-1.3s-0.3-1-0.8-1.3s-1-0.4-1.8-0.4h-2.5L380.9,282.3L380.9,282.3z"/>
	<path class="st3" d="M392.5,273.2c0.5,0,1,0.1,1.6,0.4c0.5,0.3,0.8,0.5,1,0.9c0.3,0.4,0.4,0.9,0.4,1.4c0,0.7-0.1,1-0.4,1.4
		s-0.7,0.7-1,0.9c0.5,0.3,0.9,0.5,1.3,1s0.5,0.9,0.5,1.6c0,0.5-0.1,1-0.4,1.6c-0.3,0.5-0.7,0.8-1.2,1.2s-1,0.4-1.8,0.4
		s-1.3-0.1-1.8-0.4s-0.9-0.7-1.2-1.2c-0.3-0.5-0.4-1-0.4-1.6c0-0.5,0.1-1,0.5-1.6c0.4-0.5,0.8-0.8,1.3-1c-0.4-0.3-0.8-0.5-1-0.9
		c-0.3-0.4-0.4-0.9-0.4-1.4s0.1-1,0.4-1.4s0.7-0.8,1-0.9C391.3,273.4,391.8,273.2,392.5,273.2z M392.5,278.9c-0.4,0-0.7,0.1-1,0.3
		c-0.4,0.1-0.5,0.4-0.8,0.7c-0.3,0.3-0.3,0.5-0.3,0.9s0.1,0.7,0.3,0.9c0.1,0.3,0.4,0.5,0.8,0.7c0.4,0.1,0.7,0.3,1,0.3
		c0.4,0,0.8-0.1,1-0.3c0.3-0.1,0.5-0.4,0.8-0.7c0.3-0.3,0.3-0.7,0.3-0.9c0-0.4-0.1-0.7-0.3-0.9c-0.1-0.3-0.5-0.5-0.8-0.7
		C393.3,279,392.8,278.9,392.5,278.9z M392.5,274.3c-0.3,0-0.5,0.1-0.8,0.3c-0.3,0.1-0.5,0.4-0.7,0.5c-0.1,0.1-0.3,0.5-0.3,0.8
		s0.1,0.7,0.3,0.8s0.4,0.4,0.7,0.5c0.3,0.1,0.5,0.1,0.8,0.1s0.5,0,0.9-0.1s0.5-0.3,0.7-0.5s0.3-0.5,0.3-0.8s-0.1-0.7-0.3-0.8
		c-0.1-0.1-0.4-0.4-0.7-0.5C393.2,274.5,392.8,274.3,392.5,274.3z"/>
	<path class="st3" d="M403.7,273.4v1.3h-4v2.7c0.1,0,0.4-0.1,0.5-0.1s0.4,0,0.8,0c0.5,0,1,0.1,1.6,0.4c0.5,0.3,0.9,0.7,1.2,1.2
		c0.3,0.5,0.4,1,0.4,1.6c0,0.7-0.1,1.3-0.5,1.8s-0.8,0.9-1.3,1.3s-1.2,0.4-2,0.4c-0.4,0-0.8,0-1-0.1c-0.3-0.1-0.7-0.3-0.9-0.4
		c-0.3-0.1-0.5-0.3-0.7-0.5v-1.6c0.1,0.1,0.4,0.4,0.7,0.5c0.3,0.1,0.5,0.4,0.9,0.5s0.8,0.3,1.2,0.3c0.5,0,0.9-0.1,1.3-0.3
		c0.4-0.1,0.7-0.4,0.9-0.8c0.2-0.4,0.4-0.7,0.4-1.2c0-0.4-0.1-0.8-0.4-1c-0.3-0.3-0.5-0.5-0.9-0.7c-0.4-0.1-0.8-0.3-1.3-0.3
		c-0.4,0-0.8,0-1,0.1c-0.3,0.1-0.7,0.3-0.9,0.3v-5.5L403.7,273.4L403.7,273.4z"/>
</g>
<g>
	<path class="st6" d="M574.4,279.9v1h-2l-0.8,2.6h-1l0.8-2.6h-2.5l-0.8,2.6h-1l0.8-2.6h-1.7v-1h2.1l0.8-2.6h-1.7v-1.2h2.1l0.8-2.7h1
		l-0.9,2.7h2.5l0.8-2.7h1l-0.9,2.7h1.6v1.2h-2l-0.8,2.6H574.4z M569.2,279.9h2.5l0.8-2.6H570L569.2,279.9z"/>
	<path class="st6" d="M583.1,273.4v6.8h1.6v1.2h-1.6v2.2h-1.4v-2.2h-4.6v-0.5c0.5-0.7,1.2-1.3,1.8-2.1c0.6-0.8,1.3-1.6,2-2.5
		s1.2-1.8,1.7-2.9H583.1z M581.8,276.7c-0.4,0.7-0.8,1.3-1.2,1.8s-0.9,1.2-1.3,1.6h2.5V276.7z"/>
	<path class="st6" d="M592.2,282.4v1.2h-5.6v-1.2h2.1v-6.6c-0.3,0.3-0.7,0.4-0.9,0.5c-0.3,0.1-0.7,0.1-1,0.3v-1.3
		c0.7-0.1,1-0.4,1.6-0.8c0.5-0.4,0.8-0.7,1-1h0.7v9h2.1L592.2,282.4L592.2,282.4z"/>
	<path class="st6" d="M599.9,273.4v6.8h1.6v1.2h-1.6v2.2h-1.4v-2.2h-4.7v-0.5c0.5-0.7,1.2-1.3,1.8-2.1c0.6-0.8,1.3-1.6,2-2.5
		s1.2-1.8,1.7-2.9H599.9z M598.6,276.7c-0.4,0.7-0.8,1.3-1.2,1.8s-0.9,1.2-1.3,1.6h2.5V276.7z"/>
	<path class="st6" d="M609,282.4v1.2h-5.6v-1.2h2.1v-6.6c-0.3,0.3-0.7,0.4-0.9,0.5s-0.7,0.1-1,0.3v-1.3c0.7-0.1,1-0.4,1.6-0.8
		s0.8-0.7,1-1h0.7v9h2.1L609,282.4L609,282.4z"/>
	<path class="st6" d="M616.7,273.4v6.8h1.6v1.2h-1.6v2.2h-1.4v-2.2h-4.7v-0.5c0.5-0.7,1.2-1.3,1.8-2.1c0.6-0.8,1.3-1.6,2-2.5
		s1.2-1.8,1.7-2.9H616.7z M615.3,276.7c-0.4,0.7-0.8,1.3-1.2,1.8s-0.9,1.2-1.3,1.6h2.5V276.7z"/>
	<path class="st6" d="M625.8,282.4v1.2h-5.6v-1.2h2.1v-6.6c-0.3,0.3-0.7,0.4-0.9,0.5s-0.7,0.1-1,0.3v-1.3c0.7-0.1,1-0.4,1.6-0.8
		s0.8-0.7,1-1h0.7v9h2.1L625.8,282.4L625.8,282.4z"/>
</g>
<g>
	<path class="st4" d="M795.2,279.9v1h-2l-0.8,2.6h-1l0.8-2.6h-2.5l-0.8,2.6h-1l0.8-2.6H787v-1h2.1l0.8-2.6h-2v-1.2h2.1l0.8-2.7h1
		l-0.9,2.7h2.5l0.8-2.7h1l-0.9,2.7h1.6v1.2h-2l-0.8,2.6H795.2z M790,279.9h2.5l0.8-2.6h-2.5L790,279.9z"/>
	<path class="st4" d="M805.5,277.7v1.3h-5v3.3h5.6v1.3h-7v-10.3h7v1.3h-5.6v3h4.9L805.5,277.7L805.5,277.7z"/>
	<path class="st4" d="M814.1,273.4c-0.3,0.3-0.7,0.7-1.2,1c-0.5,0.4-0.9,0.8-1.3,1.2s-0.8,0.9-1.2,1.3s-0.7,0.9-0.8,1.3
		c0.3-0.3,0.5-0.7,0.9-0.9c0.4-0.3,0.8-0.4,1.3-0.4c0.7,0,1.3,0.1,1.7,0.4s0.9,0.7,1,1.2s0.4,1,0.4,1.6c0,0.4-0.1,0.9-0.3,1.3
		c-0.1,0.4-0.4,0.8-0.7,1.2s-0.7,0.7-1,0.9c-0.4,0.3-0.9,0.3-1.4,0.3c-0.7,0-1.3-0.1-1.8-0.5s-1-0.8-1.3-1.3s-0.5-1.3-0.5-2.1
		c0-0.5,0.1-1,0.3-1.6c0.1-0.5,0.5-1,0.8-1.6c0.3-0.5,0.7-0.9,1-1.4s0.7-0.8,1-1.2c0.4-0.4,0.7-0.7,0.8-0.8h2.2L814.1,273.4
		L814.1,273.4z M811.6,278.2c-0.4,0-0.8,0.1-1,0.3c-0.3,0.1-0.7,0.4-0.9,0.8s-0.4,0.7-0.4,1c0,0.5,0.1,0.9,0.4,1.2
		c0.3,0.3,0.5,0.7,0.9,0.8s0.8,0.3,1,0.3c0.4,0,0.8-0.1,1-0.3c0.2-0.2,0.7-0.5,0.8-0.8s0.3-0.8,0.3-1.2s-0.1-0.8-0.3-1
		s-0.5-0.5-0.8-0.8C812.4,278.2,812,278.2,811.6,278.2z"/>
	<path class="st4" d="M823.7,277.7v1.3h-4.9v3.3h5.6v1.3h-7v-10.3h7v1.3h-5.6v3h4.9V277.7z"/>
	<path class="st4" d="M832.3,273.4c-0.3,0.3-0.7,0.7-1.2,1c-0.5,0.4-0.9,0.8-1.3,1.2c-0.4,0.4-0.8,0.9-1.2,1.3s-0.7,0.9-0.8,1.3
		c0.3-0.3,0.5-0.7,0.9-0.9c0.4-0.3,0.8-0.4,1.3-0.4c0.7,0,1.3,0.1,1.7,0.4s0.9,0.7,1,1.2s0.4,1,0.4,1.6c0,0.4-0.1,0.9-0.3,1.3
		c-0.1,0.4-0.4,0.8-0.7,1.2s-0.7,0.7-1,0.9c-0.4,0.3-0.9,0.3-1.4,0.3c-0.7,0-1.3-0.1-1.8-0.5s-1-0.8-1.3-1.3s-0.5-1.3-0.5-2.1
		c0-0.5,0.1-1,0.3-1.6c0.1-0.5,0.5-1,0.8-1.6c0.3-0.5,0.7-0.9,1-1.4s0.7-0.8,1-1.2c0.4-0.4,0.7-0.7,0.8-0.8h2.2L832.3,273.4
		L832.3,273.4z M829.9,278.2c-0.4,0-0.8,0.1-1,0.3c-0.3,0.1-0.7,0.4-0.9,0.8s-0.4,0.7-0.4,1c0,0.5,0.1,0.9,0.4,1.2
		c0.3,0.3,0.5,0.7,0.9,0.8s0.8,0.3,1,0.3c0.4,0,0.8-0.1,1-0.3c0.2-0.2,0.7-0.5,0.8-0.8s0.3-0.8,0.3-1.2s-0.1-0.8-0.3-1
		c-0.1-0.3-0.5-0.5-0.8-0.8C830.7,278.2,830.3,278.2,829.9,278.2z"/>
	<path class="st4" d="M842,277.7v1.3h-4.9v3.3h5.6v1.3h-7v-10.3h7v1.3h-5.6v3h4.9V277.7z"/>
	<path class="st4" d="M850.6,273.4c-0.3,0.3-0.7,0.7-1.2,1c-0.5,0.4-0.9,0.8-1.3,1.2s-0.8,0.9-1.2,1.3s-0.7,0.9-0.8,1.3
		c0.3-0.3,0.5-0.7,0.9-0.9c0.4-0.3,0.8-0.4,1.3-0.4c0.7,0,1.3,0.1,1.7,0.4s0.9,0.7,1,1.2s0.4,1,0.4,1.6c0,0.4-0.1,0.9-0.3,1.3
		c-0.1,0.4-0.4,0.8-0.7,1.2s-0.7,0.7-1,0.9c-0.4,0.3-0.9,0.3-1.4,0.3c-0.7,0-1.3-0.1-1.8-0.5s-1-0.8-1.3-1.3s-0.5-1.3-0.5-2.1
		c0-0.5,0.1-1,0.3-1.6c0.1-0.5,0.5-1,0.8-1.6c0.3-0.5,0.7-0.9,1-1.4s0.7-0.8,1-1.2c0.4-0.4,0.7-0.7,0.8-0.8h2.2L850.6,273.4
		L850.6,273.4z M848.2,278.2c-0.4,0-0.8,0.1-1,0.3c-0.3,0.1-0.7,0.4-0.9,0.8s-0.4,0.7-0.4,1c0,0.5,0.1,0.9,0.4,1.2
		c0.3,0.3,0.5,0.7,0.9,0.8s0.8,0.3,1,0.3c0.4,0,0.8-0.1,1-0.3c0.2-0.2,0.7-0.5,0.8-0.8s0.3-0.8,0.3-1.2s-0.1-0.8-0.3-1
		c-0.1-0.3-0.5-0.5-0.8-0.8S848.6,278.2,848.2,278.2z"/>
</g>
<g>
	<path d="M1016.5,279.9v1h-2l-0.8,2.6h-1l0.8-2.6h-2.5l-0.8,2.6h-1l0.8-2.6h-1.7v-1h2.1l0.8-2.6h-1.7v-1.2h2.1l0.8-2.7h1l-0.9,2.7
		h2.5l0.8-2.7h1l-0.9,2.7h1.6v1.2h-1.8l-0.8,2.6H1016.5z M1011.3,279.9h2.5l0.8-2.6h-2.5L1011.3,279.9z"/>
	<path d="M1026.3,278.1v1.3h-4.4v4.2h-1.4v-10.3h6.6v1.3h-5.3v3.4h4.6L1026.3,278.1L1026.3,278.1z"/>
	<path d="M1035.9,278.1v1.3h-4.4v4.2h-1.4v-10.3h6.6v1.3h-5.3v3.4h4.6L1035.9,278.1L1035.9,278.1z"/>
	<path d="M1045.5,278.1v1.3h-4.4v4.2h-1.4v-10.3h6.6v1.3h-5.3v3.4h4.6L1045.5,278.1L1045.5,278.1z"/>
	<path d="M1055.3,278.1v1.3h-4.4v4.2h-1.4v-10.3h6.6v1.3h-5.3v3.4h4.6L1055.3,278.1L1055.3,278.1z"/>
	<path d="M1064.9,278.1v1.3h-4.4v4.2h-1.4v-10.3h6.6v1.3h-5.3v3.4h4.6L1064.9,278.1L1064.9,278.1z"/>
	<path d="M1074.7,278.1v1.3h-4.4v4.2h-1.4v-10.3h6.6v1.3h-5.2v3.4h4.4V278.1z"/>
</g>
</svg>
