<?xml version="1.0" encoding="utf-8"?>
<!-- Generator: Adobe Illustrator 22.0.0, SVG Export Plug-In . SVG Version: 6.00 Build 0)  -->
<svg version="1.1" xmlns="http://www.w3.org/2000/svg" xmlns:xlink="http://www.w3.org/1999/xlink" x="0px" y="0px"
	 viewBox="0 0 1920 1080" style="enable-background:new 0 0 1920 1080;" xml:space="preserve">
<style type="text/css">
	.st0{fill:none;stroke:#19BFF9;stroke-width:3;stroke-miterlimit:10;}
	.st1{fill:none;stroke:#19BFF9;stroke-width:3;stroke-miterlimit:10;stroke-dasharray:6.1437,4.0958;}
	.st2{fill:none;stroke:#19BFF9;stroke-width:3;stroke-miterlimit:10;stroke-dasharray:6,4;}
	.st3{fill:none;stroke:#000000;stroke-width:0.1532;stroke-miterlimit:10;}
	.st4{fill:none;stroke:#000000;stroke-width:0.1532;}
	.st5{fill:none;stroke:#000000;stroke-width:3;stroke-miterlimit:10;}
	.st6{fill:none;stroke:#E110FF;stroke-width:3;stroke-miterlimit:10;}
	.st7{fill:none;stroke:#E110FF;stroke-width:3;stroke-miterlimit:10;stroke-dasharray:6.0139,4.0093;}
	.st8{fill:#E22334;}
	.st9{fill:#C21D2C;}
	.st10{fill:#F8C52D;}
	.st11{fill:#E7B729;}
	.st12{fill:#26D192;}
	.st13{fill:#1EC186;}
	.st14{fill:#1C96F9;}
	.st15{fill:#1785F8;}
	.st16{fill:#0E6AC2;}
	.st17{fill:#0857A0;}
	.st18{fill:#FB7722;}
	.st19{fill:#F2671F;}
	.st20{fill:#756F6F;}
	.st21{fill:#5B5555;}
	.st22{fill:#F82F40;}
	.st23{fill:#FEE265;}
	.st24{fill:#23F1A8;}
	.st25{fill:#31A7FB;}
	.st26{fill:#1475CB;}
	.st27{fill:#FB8627;}
	.st28{fill:#F3EAE6;}
	.st29{fill:#E0D3CE;}
	.st30{fill:#010002;}
	.st31{fill:#FFFFFF;}
	.st32{fill:#FFFFFF;stroke:#010002;stroke-miterlimit:10;}
	.st33{fill:#FFFFFF;stroke:#000000;stroke-miterlimit:10;}
	.st34{fill:none;stroke:#000000;stroke-width:2;stroke-miterlimit:10;}
	.st35{fill:none;stroke:#000000;stroke-width:2;stroke-miterlimit:10;stroke-dasharray:6.0139,4.0093;}
</style>
<g id="Layer_2">
	<g>
		<g>
			<line class="st0" x1="281.5" y1="259.5" x2="284.5" y2="259.8"/>
			<line class="st1" x1="288.6" y1="260.2" x2="439.5" y2="274"/>
			<line class="st0" x1="441.5" y1="274.2" x2="444.5" y2="274.5"/>
		</g>
	</g>
	<polyline class="st2" points="281.5,258.5 301.5,385.5 456.5,274.5 	"/>
	<polyline class="st2" points="301.5,385.5 225.5,520.5 395.5,465.5 301.5,385.5 	"/>
	<polyline class="st2" points="400.5,460.5 486.5,371.5 450.5,278.5 	"/>
	<line class="st2" x1="395.5" y1="475.5" x2="450.5" y2="278.5"/>
	<line class="st2" x1="406.5" y1="465.5" x2="581.5" y2="501.5"/>
	<line class="st2" x1="395.5" y1="475.5" x2="413.2" y2="791.3"/>
	<line class="st2" x1="225.5" y1="508.5" x2="413.2" y2="791.3"/>
	<polyline class="st2" points="492.5,376.5 581.5,501.5 779.5,562.5 	"/>
	<line class="st2" x1="581.5" y1="509.5" x2="439.2" y2="789"/>
	<polyline class="st2" points="774.5,567.5 915.5,513.5 804.5,371.5 992.5,424.5 915.5,513.5 	"/>
	<line class="st2" x1="590.5" y1="513.5" x2="717.3" y2="355.8"/>
	<polyline class="st2" points="915.5,513.5 1045.5,528.5 992.5,424.5 1084.5,362.5 	"/>
	<path class="st2" d="M1126.5,388.5c0,0,19,118,18,117s-87,31-87,31l35-156"/>
	<line class="st2" x1="496.5" y1="361.5" x2="728.7" y2="343.4"/>
	<polyline class="st2" points="1057.5,538.5 1187.5,643.5 1155.5,505.5 1246.5,465.5 1291.5,574.5 1335.5,458.5 1314.5,319.5 
		1250.5,452.5 1319.5,452.5 1419.5,415.5 	"/>
	<line class="st2" x1="1307.5" y1="314.5" x2="1130.5" y2="310.5"/>
	<line class="st2" x1="1246.5" y1="465.5" x2="1130.5" y2="376.5"/>
	<polyline class="st2" points="1057.5,536.5 1003.5,654.5 906.5,523.5 868.5,645.5 768.5,562.5 714.5,683.5 581.5,509.5 	"/>
	<polyline class="st2" points="590.5,513.5 628.5,775.5 732.5,865.5 703.5,683.5 	"/>
	<path class="st2" d="M628.5,775.5c0,0-105,9-112,11l-66,23"/>
	<polygon class="st2" points="516.5,786.5 522.5,932.5 698.5,865.5 	"/>
	<path class="st2" d="M800.5,873.5l161,32l67-119c0,0-159-124-160-122s-78,176-78,176"/>
	<polyline class="st2" points="1511.5,764.5 1655.5,584.5 1296.5,589.5 1296.5,691.5 1395.5,796.5 1319.5,861.5 1300.5,709.5 
		1187.5,643.5 1155.5,775.5 1003.5,654.5 	"/>
	<path class="st2" d="M1122.5,884.5c1,0,33-109,33-109l164,86"/>
	<polyline class="st2" points="868.5,664.5 1003.5,654.5 1181.2,656.3 1296.5,589.5 	"/>
	<polyline class="st2" points="1028.5,780.5 1155.5,775.5 1300.5,709.5 	"/>
</g>
<g id="Layer_1">
	<circle cx="424" cy="816" r="17.4"/>
	<circle class="st5" cx="424" cy="816" r="27"/>
	<circle cx="1447" cy="416" r="17.4"/>
	<circle class="st5" cx="1447" cy="416" r="27"/>
	<g>
		<g>
			<path class="st6" d="M444.7,798.6c0,0,0.6-0.8,1.8-2.4"/>
			<path class="st7" d="M448.9,793.1C475.3,759.9,624.2,589.7,895,590c387.5,0.5,509.7-126.3,529.5-150.5"/>
			<path class="st6" d="M1425.7,437.9c1.2-1.6,1.8-2.4,1.8-2.4"/>
		</g>
	</g>
	<g>
		<g>
			<g>
				<path class="st8" d="M1540,286v10h-66.2v-10c0-1.3,1-2.3,2.3-2.3h61.6C1539,283.7,1540,284.7,1540,286z"/>
				<path class="st9" d="M1540,286v10h-7.6v-10c0-1.3-1-2.3-2.3-2.3h7.6C1539,283.7,1540,284.7,1540,286z"/>
				<g>
					<path class="st10" d="M1473.8,301.4h66.2V316h-66.2V301.4z"/>
				</g>
				<g>
					<path class="st11" d="M1532.4,301.4h7.6v14.6h-7.6V301.4z"/>
				</g>
				<g>
					<path class="st12" d="M1473.8,313.7h66.2v12.3h-66.2V313.7z"/>
				</g>
				<g>
					<path class="st13" d="M1532.4,313.7h7.6v12.3h-7.6V313.7z"/>
				</g>
				<g>
					<path class="st14" d="M1473.8,323.6h66.2v12.3h-66.2V323.6z"/>
				</g>
				<g>
					<path class="st15" d="M1532.4,323.6h7.6v12.3h-7.6V323.6z"/>
				</g>
				<g>
					<path class="st16" d="M1540,333.6v7.7c0,1.3-1,2.3-2.3,2.3h-61.6c-1.3,0-2.3-1-2.3-2.3v-7.7H1540z"/>
				</g>
				<g>
					<path class="st17" d="M1504.2,333.6v3.4c0,1.3-1,2.3-2.3,2.3h-28.1v-5.6H1504.2z"/>
				</g>
				<g>
					<path class="st17" d="M1540,333.6v7.7c0,1.3-1,2.3-2.3,2.3h-7.6c1.3,0,2.3-1,2.3-2.3v-7.7H1540z"/>
				</g>
				<path class="st18" d="M1473.8,293.7h66.2v10h-66.2V293.7z"/>
				<path class="st19" d="M1532.4,293.7h7.6v10h-7.6V293.7z"/>
			</g>
			<path class="st20" d="M1447.9,381h-3.6c-1.3,0-2.3-1-2.3-2.3V269.3c0-1.3,1-2.3,2.3-2.3h3.6c1.3,0,2.3,1,2.3,2.3v109.5
				C1450.2,380,1449.1,381,1447.9,381z"/>
			<path class="st21" d="M1442,328.3h8.2v12h-8.2V328.3z"/>
			<g>
				<path class="st22" d="M1504.2,276v10H1438v-10c0-1.3,1-2.3,2.3-2.3h61.6C1503.2,273.7,1504.2,274.7,1504.2,276z"/>
				<path class="st8" d="M1504.2,276v10h-7.6v-10c0-1.3-1-2.3-2.3-2.3h7.6C1503.2,273.7,1504.2,274.7,1504.2,276z"/>
				<g>
					<path class="st23" d="M1438,291.4h66.2V306H1438L1438,291.4z"/>
				</g>
				<g>
					<path class="st10" d="M1496.6,291.4h7.6V306h-7.6V291.4z"/>
				</g>
				<g>
					<path class="st24" d="M1438,303.7h66.2v12.3H1438V303.7z"/>
				</g>
				<path class="st12" d="M1496.6,303.7h7.6v12.3h-7.6V303.7z"/>
				<g>
					<path class="st25" d="M1438,313.7h66.2v12.3H1438L1438,313.7z"/>
				</g>
				<g>
					<path class="st14" d="M1496.6,313.7h7.6v12.3h-7.6V313.7z"/>
				</g>
				<g>
					<path class="st26" d="M1504.2,323.6v7.7c0,1.3-1,2.3-2.3,2.3h-61.6c-1.3,0-2.3-1-2.3-2.3v-7.7H1504.2z"/>
				</g>
				<path class="st16" d="M1496.6,323.6h7.6v7.7c0,1.3-1,2.3-2.3,2.3h-7.6c1.3,0,2.3-1,2.3-2.3V323.6z"/>
				<path class="st27" d="M1438,283.7h66.2v10H1438V283.7z"/>
				<path class="st18" d="M1496.6,283.7h7.6v10h-7.6V283.7z"/>
			</g>
		</g>
		<g>
			<g>
				<path class="st28" d="M1477.5,305.5c3.5-3.5,3.5-9.2,0-12.8c-3.1-3.1-8-3.5-11.5-1.1c-0.8,0.5-1.8,0.5-2.6,0
					c-3.5-2.4-8.4-2-11.5,1.1c-3.5,3.5-3.5,9.2,0,12.8l11.6,11.6c0.7,0.7,1.8,0.7,2.5,0L1477.5,305.5z"/>
				<path class="st29" d="M1477.5,305.5l-11.6,11.6c-0.7,0.7-1.8,0.7-2.5,0l-2.3-2.3l11-11c3.5-3.5,3.5-9.2,0-12.8
					c-0.3-0.3-0.7-0.6-1-0.9c2.3,0,4.6,0.9,6.3,2.6C1481.1,296.3,1481.1,302,1477.5,305.5L1477.5,305.5z"/>
			</g>
		</g>
	</g>
	<g>
		<g>
			<g>
				<path class="st8" d="M526,685v10h-66.2v-10c0-1.3,1-2.3,2.3-2.3h61.6C525,682.7,526,683.7,526,685z"/>
				<path class="st9" d="M526,685v10h-7.6v-10c0-1.3-1-2.3-2.3-2.3h7.6C525,682.7,526,683.7,526,685z"/>
				<g>
					<path class="st10" d="M459.8,700.4H526V715h-66.2V700.4z"/>
				</g>
				<g>
					<path class="st11" d="M518.4,700.4h7.6v14.6h-7.6V700.4z"/>
				</g>
				<g>
					<path class="st12" d="M459.8,712.7H526v12.3h-66.2V712.7z"/>
				</g>
				<g>
					<path class="st13" d="M518.4,712.7h7.6v12.3h-7.6V712.7z"/>
				</g>
				<g>
					<path class="st14" d="M459.8,722.6H526v12.3h-66.2V722.6z"/>
				</g>
				<g>
					<path class="st15" d="M518.4,722.6h7.6v12.3h-7.6V722.6z"/>
				</g>
				<g>
					<path class="st16" d="M526,732.6v7.7c0,1.3-1,2.3-2.3,2.3h-61.6c-1.3,0-2.3-1-2.3-2.3v-7.7H526z"/>
				</g>
				<g>
					<path class="st17" d="M490.2,732.6v3.4c0,1.3-1,2.3-2.3,2.3h-28.1v-5.6H490.2z"/>
				</g>
				<g>
					<path class="st17" d="M526,732.6v7.7c0,1.3-1,2.3-2.3,2.3h-7.6c1.3,0,2.3-1,2.3-2.3v-7.7H526z"/>
				</g>
				<path class="st18" d="M459.8,692.7H526v10h-66.2V692.7z"/>
				<path class="st19" d="M518.4,692.7h7.6v10h-7.6V692.7z"/>
			</g>
			<path class="st20" d="M433.9,780h-3.6c-1.3,0-2.3-1-2.3-2.3V668.3c0-1.3,1-2.3,2.3-2.3h3.6c1.3,0,2.3,1,2.3,2.3v109.5
				C436.2,779,435.1,780,433.9,780z"/>
			<path class="st21" d="M428,727.3h8.2v12H428V727.3z"/>
			<g>
				<path class="st22" d="M490.2,675v10H424v-10c0-1.3,1-2.3,2.3-2.3h61.6C489.2,672.7,490.2,673.7,490.2,675z"/>
				<path class="st8" d="M490.2,675v10h-7.6v-10c0-1.3-1-2.3-2.3-2.3h7.6C489.2,672.7,490.2,673.7,490.2,675z"/>
				<g>
					<path class="st23" d="M424,690.4h66.2V705H424V690.4z"/>
				</g>
				<g>
					<path class="st10" d="M482.6,690.4h7.6V705h-7.6V690.4z"/>
				</g>
				<g>
					<path class="st24" d="M424,702.7h66.2v12.3H424V702.7z"/>
				</g>
				<path class="st12" d="M482.6,702.7h7.6v12.3h-7.6V702.7z"/>
				<g>
					<path class="st25" d="M424,712.7h66.2v12.3H424V712.7z"/>
				</g>
				<g>
					<path class="st14" d="M482.6,712.7h7.6v12.3h-7.6V712.7z"/>
				</g>
				<g>
					<path class="st26" d="M490.2,722.6v7.7c0,1.3-1,2.3-2.3,2.3h-61.6c-1.3,0-2.3-1-2.3-2.3v-7.7H490.2z"/>
				</g>
				<path class="st16" d="M482.6,722.6h7.6v7.7c0,1.3-1,2.3-2.3,2.3h-7.6c1.3,0,2.3-1,2.3-2.3V722.6z"/>
				<path class="st27" d="M424,682.7h66.2v10H424V682.7z"/>
				<path class="st18" d="M482.6,682.7h7.6v10h-7.6V682.7z"/>
			</g>
		</g>
		<g>
			<g>
				<path class="st28" d="M463.5,704.5c3.5-3.5,3.5-9.2,0-12.8c-3.1-3.1-8-3.5-11.5-1.1c-0.8,0.5-1.8,0.5-2.6,0
					c-3.5-2.4-8.4-2-11.5,1.1c-3.5,3.5-3.5,9.2,0,12.8l11.6,11.6c0.7,0.7,1.8,0.7,2.5,0L463.5,704.5z"/>
				<path class="st29" d="M463.5,704.5L452,716.1c-0.7,0.7-1.8,0.7-2.5,0l-2.3-2.3l11-11c3.5-3.5,3.5-9.2,0-12.8
					c-0.3-0.3-0.7-0.6-1-0.9c2.3,0,4.6,0.9,6.3,2.6C467.1,695.3,467.1,701,463.5,704.5L463.5,704.5z"/>
			</g>
		</g>
	</g>
	<g>
		<g>
			<g>
				<path class="st30" d="M1160.5,757.5c-2.8,0-5-2.2-5-5s2.2-5,5-5c2.8,0,5,2.2,5,5S1163.2,757.5,1160.5,757.5z"/>
				<path class="st31" d="M1160.5,748c2.5,0,4.5,2,4.5,4.5c0,2.5-2,4.5-4.5,4.5s-4.5-2-4.5-4.5C1156,750,1158,748,1160.5,748
					 M1160.5,747c-3,0-5.5,2.5-5.5,5.5s2.5,5.5,5.5,5.5s5.5-2.5,5.5-5.5S1163.5,747,1160.5,747L1160.5,747z"/>
			</g>
			<g>
				<path class="st30" d="M1163.9,802c-1.5,0-3.1-1-3.2-3c-0.1-1.9-0.1-3.8-0.2-5.7c0,1.9-0.1,3.8-0.2,5.7c-0.1,1.9-1.7,3-3.2,3
					c-0.9,0-1.7-0.3-2.2-0.9c-0.5-0.5-0.8-1.3-0.7-2.1c0.3-7.8,0.3-15.9,0.3-22.4l0-0.2l0-0.1c0-0.1,0-0.2,0-0.2v-6.1
					c-0.3,1.8-0.3,3.7-0.1,5.2c0.1,0.8-0.1,1.4-0.6,1.9c-0.5,0.5-1.2,0.8-2,0.8c-1.3,0-2.8-0.9-3-2.6c-1.2-11.3,5.1-16.2,9.7-16.7
					c0.6-0.1,1.2-0.2,1.9-0.2c0.6,0,1.2,0.1,1.7,0.2c2.7,0.2,5,1.4,6.8,3.5c3.1,3.7,3.8,9.3,3.3,13.3c-0.2,1.7-1.6,2.6-3,2.6l0,0
					c-0.8,0-1.5-0.3-2-0.8c-0.4-0.5-0.6-1.1-0.6-1.9c0.2-1.9,0.2-4.4-0.4-6.5c0,1,0,2.1,0,3.1c0,1.3,0,2.7,0,4
					c0.1,0.2,0.1,0.5,0.1,0.7c0,6.9,0,14.7,0.3,22.4c0,0.8-0.2,1.6-0.7,2.1C1165.6,801.7,1164.7,802,1163.9,802z"/>
				<path class="st31" d="M1160.4,759c0.6,0,1.1,0.1,1.6,0.2c7.9,0.6,10.4,9.5,9.7,16.2c-0.1,1.4-1.4,2.2-2.5,2.2
					c-1.1,0-2.2-0.7-2-2.2c0.3-2.6,0.1-6.5-1.4-9.1c0,3.2,0.1,6.5,0.1,9.7c0,0.2,0.1,0.4,0.1,0.6c0,7.5,0,15,0.3,22.4
					c0.1,1.7-1.2,2.5-2.5,2.5c-1.3,0-2.6-0.8-2.7-2.5c-0.2-5.9-0.3-11.7-0.3-17.6c-0.1,0-0.2,0-0.4,0c-0.1,0-0.3,0-0.4,0
					c0,5.9-0.1,11.7-0.3,17.6c-0.1,1.7-1.4,2.5-2.7,2.5c-1.3,0-2.5-0.8-2.5-2.5c0.3-7.5,0.3-14.9,0.3-22.4c0-0.1,0-0.1,0-0.1
					c0-0.1,0-0.2,0-0.3c0-3.1,0-6.3,0-9.4c-1.3,2.6-1.4,6.2-1.1,8.6c0.2,1.4-0.9,2.2-2,2.2c-1.1,0-2.3-0.7-2.5-2.2
					c-0.7-6.6,1.7-15.3,9.2-16.2C1159.2,759.1,1159.8,759,1160.4,759 M1160.4,758c-0.7,0-1.3,0.1-2,0.2c-3.7,0.5-6.6,2.7-8.4,6.5
					c-1.4,3.1-2,7-1.6,10.8c0.2,2,1.9,3.1,3.5,3.1c0.8,0,1.6-0.3,2.2-0.8c0,6.3,0,14-0.3,21.3c0,1,0.3,1.8,0.9,2.5
					c0.6,0.7,1.6,1,2.6,1c1.4,0,2.8-0.7,3.4-2.1c0.6,1.4,2,2.1,3.4,2.1c1,0,1.9-0.4,2.6-1c0.6-0.6,0.9-1.5,0.9-2.5
					c-0.3-6.9-0.3-13.5-0.3-21.4c0.6,0.6,1.4,0.9,2.3,0.9c1.6,0,3.3-1,3.5-3.1c0.4-4.1-0.3-9.8-3.5-13.7c-1.8-2.2-4.2-3.4-7.1-3.7
					C1161.6,758.1,1161,758,1160.4,758L1160.4,758z"/>
			</g>
		</g>
	</g>
	<g>
		<g>
			<g>
				<path class="st30" d="M1319.5,859.5c-2.8,0-5-2.2-5-5s2.2-5,5-5c2.8,0,5,2.2,5,5S1322.2,859.5,1319.5,859.5z"/>
				<path class="st31" d="M1319.5,850c2.5,0,4.5,2,4.5,4.5c0,2.5-2,4.5-4.5,4.5s-4.5-2-4.5-4.5C1315,852,1317,850,1319.5,850
					 M1319.5,849c-3,0-5.5,2.5-5.5,5.5s2.5,5.5,5.5,5.5s5.5-2.5,5.5-5.5S1322.5,849,1319.5,849L1319.5,849z"/>
			</g>
			<g>
				<path class="st30" d="M1322.9,904c-1.5,0-3.1-1-3.2-3c-0.1-1.9-0.1-3.8-0.2-5.7c0,1.9-0.1,3.8-0.2,5.7c-0.1,1.9-1.7,3-3.2,3
					c-0.9,0-1.7-0.3-2.2-0.9c-0.5-0.5-0.8-1.3-0.7-2.1c0.3-7.8,0.3-15.9,0.3-22.4l0-0.2l0-0.1c0-0.1,0-0.2,0-0.2v-6.1
					c-0.3,1.8-0.3,3.7-0.1,5.2c0.1,0.8-0.1,1.4-0.6,1.9c-0.5,0.5-1.2,0.8-2,0.8c-1.3,0-2.8-0.9-3-2.6c-1.2-11.3,5.1-16.2,9.7-16.7
					c0.6-0.1,1.2-0.2,1.9-0.2c0.6,0,1.2,0.1,1.7,0.2c2.7,0.2,5,1.4,6.8,3.5c3.1,3.7,3.8,9.3,3.3,13.3c-0.2,1.7-1.6,2.6-3,2.6l0,0
					c-0.8,0-1.5-0.3-2-0.8c-0.4-0.5-0.6-1.1-0.6-1.9c0.2-1.9,0.2-4.4-0.4-6.5c0,1,0,2.1,0,3.1c0,1.3,0,2.7,0,4
					c0.1,0.2,0.1,0.5,0.1,0.7c0,6.9,0,14.7,0.3,22.4c0,0.8-0.2,1.6-0.7,2.1C1324.6,903.7,1323.7,904,1322.9,904z"/>
				<path class="st31" d="M1319.4,861c0.6,0,1.1,0.1,1.6,0.2c7.9,0.6,10.4,9.5,9.7,16.2c-0.1,1.4-1.4,2.2-2.5,2.2
					c-1.1,0-2.2-0.7-2-2.2c0.3-2.6,0.1-6.5-1.4-9.1c0,3.2,0.1,6.5,0.1,9.7c0,0.2,0.1,0.4,0.1,0.6c0,7.5,0,15,0.3,22.4
					c0.1,1.7-1.2,2.5-2.5,2.5c-1.3,0-2.6-0.8-2.7-2.5c-0.2-5.9-0.3-11.7-0.3-17.6c-0.1,0-0.2,0-0.4,0c-0.1,0-0.3,0-0.4,0
					c0,5.9-0.1,11.7-0.3,17.6c-0.1,1.7-1.4,2.5-2.7,2.5c-1.3,0-2.5-0.8-2.5-2.5c0.3-7.5,0.3-14.9,0.3-22.4c0-0.1,0-0.1,0-0.1
					c0-0.1,0-0.2,0-0.3c0-3.1,0-6.3,0-9.4c-1.3,2.6-1.4,6.2-1.1,8.6c0.2,1.4-0.9,2.2-2,2.2c-1.1,0-2.3-0.7-2.5-2.2
					c-0.7-6.6,1.7-15.3,9.2-16.2C1318.2,861.1,1318.8,861,1319.4,861 M1319.4,860c-0.7,0-1.3,0.1-2,0.2c-3.7,0.5-6.6,2.7-8.4,6.5
					c-1.4,3.1-2,7-1.6,10.8c0.2,2,1.9,3.1,3.5,3.1c0.8,0,1.6-0.3,2.2-0.8c0,6.3,0,14-0.3,21.3c0,1,0.3,1.8,0.9,2.5
					c0.6,0.7,1.6,1,2.6,1c1.4,0,2.8-0.7,3.4-2.1c0.6,1.4,2,2.1,3.4,2.1c1,0,1.9-0.4,2.6-1c0.6-0.6,0.9-1.5,0.9-2.5
					c-0.3-6.9-0.3-13.5-0.3-21.4c0.6,0.6,1.4,0.9,2.3,0.9c1.6,0,3.3-1,3.5-3.1c0.4-4.1-0.3-9.8-3.5-13.7c-1.8-2.2-4.2-3.4-7.1-3.7
					C1320.6,860.1,1320,860,1319.4,860L1319.4,860z"/>
			</g>
		</g>
	</g>
	<g>
		<g>
			<g>
				<path class="st30" d="M1118.5,875.5c-2.8,0-5-2.2-5-5s2.2-5,5-5c2.8,0,5,2.2,5,5S1121.2,875.5,1118.5,875.5z"/>
				<path class="st31" d="M1118.5,866c2.5,0,4.5,2,4.5,4.5c0,2.5-2,4.5-4.5,4.5s-4.5-2-4.5-4.5C1114,868,1116,866,1118.5,866
					 M1118.5,865c-3,0-5.5,2.5-5.5,5.5s2.5,5.5,5.5,5.5s5.5-2.5,5.5-5.5S1121.5,865,1118.5,865L1118.5,865z"/>
			</g>
			<g>
				<path class="st30" d="M1121.9,920c-1.5,0-3.1-1-3.2-3c-0.1-1.9-0.1-3.8-0.2-5.7c0,1.9-0.1,3.8-0.2,5.7c-0.1,1.9-1.7,3-3.2,3
					c-0.9,0-1.7-0.3-2.2-0.9c-0.5-0.5-0.8-1.3-0.7-2.1c0.3-7.8,0.3-15.9,0.3-22.4l0-0.2l0-0.1c0-0.1,0-0.2,0-0.2v-6.1
					c-0.3,1.8-0.3,3.7-0.1,5.2c0.1,0.8-0.1,1.4-0.6,1.9c-0.5,0.5-1.2,0.8-2,0.8c-1.3,0-2.8-0.9-3-2.6c-1.2-11.3,5.1-16.2,9.7-16.7
					c0.6-0.1,1.2-0.2,1.9-0.2c0.6,0,1.2,0.1,1.7,0.2c2.7,0.2,5,1.4,6.8,3.5c3.1,3.7,3.8,9.3,3.3,13.3c-0.2,1.7-1.6,2.6-3,2.6l0,0
					c-0.8,0-1.5-0.3-2-0.8c-0.4-0.5-0.6-1.1-0.6-1.9c0.2-1.9,0.2-4.4-0.4-6.5c0,1,0,2.1,0,3.1c0,1.3,0,2.7,0,4
					c0.1,0.2,0.1,0.5,0.1,0.7c0,6.9,0,14.7,0.3,22.4c0,0.8-0.2,1.6-0.7,2.1C1123.6,919.7,1122.7,920,1121.9,920z"/>
				<path class="st31" d="M1118.4,877c0.6,0,1.1,0.1,1.6,0.2c7.9,0.6,10.4,9.5,9.7,16.2c-0.1,1.4-1.4,2.2-2.5,2.2
					c-1.1,0-2.2-0.7-2-2.2c0.3-2.6,0.1-6.5-1.4-9.1c0,3.2,0.1,6.5,0.1,9.7c0,0.2,0.1,0.4,0.1,0.6c0,7.5,0,15,0.3,22.4
					c0.1,1.7-1.2,2.5-2.5,2.5c-1.3,0-2.6-0.8-2.7-2.5c-0.2-5.9-0.3-11.7-0.3-17.6c-0.1,0-0.2,0-0.4,0c-0.1,0-0.3,0-0.4,0
					c0,5.9-0.1,11.7-0.3,17.6c-0.1,1.7-1.4,2.5-2.7,2.5c-1.3,0-2.5-0.8-2.5-2.5c0.3-7.5,0.3-14.9,0.3-22.4c0-0.1,0-0.1,0-0.1
					c0-0.1,0-0.2,0-0.3c0-3.1,0-6.3,0-9.4c-1.3,2.6-1.4,6.2-1.1,8.6c0.2,1.4-0.9,2.2-2,2.2c-1.1,0-2.3-0.7-2.5-2.2
					c-0.7-6.6,1.7-15.3,9.2-16.2C1117.2,877.1,1117.8,877,1118.4,877 M1118.4,876c-0.7,0-1.3,0.1-2,0.2c-3.7,0.5-6.6,2.7-8.4,6.5
					c-1.4,3.1-2,7-1.6,10.8c0.2,2,1.9,3.1,3.5,3.1c0.8,0,1.6-0.3,2.2-0.8c0,6.3,0,14-0.3,21.3c0,1,0.3,1.8,0.9,2.5
					c0.6,0.7,1.6,1,2.6,1c1.4,0,2.8-0.7,3.4-2.1c0.6,1.4,2,2.1,3.4,2.1c1,0,1.9-0.4,2.6-1c0.6-0.6,0.9-1.5,0.9-2.5
					c-0.3-6.9-0.3-13.5-0.3-21.4c0.6,0.6,1.4,0.9,2.3,0.9c1.6,0,3.3-1,3.5-3.1c0.4-4.1-0.3-9.8-3.5-13.7c-1.8-2.2-4.2-3.4-7.1-3.7
					C1119.6,876.1,1119,876,1118.4,876L1118.4,876z"/>
			</g>
		</g>
	</g>
	<g>
		<g>
			<g>
				<path class="st30" d="M518.5,771.5c-2.8,0-5-2.2-5-5s2.2-5,5-5c2.8,0,5,2.2,5,5S521.2,771.5,518.5,771.5z"/>
				<path class="st31" d="M518.5,762c2.5,0,4.5,2,4.5,4.5c0,2.5-2,4.5-4.5,4.5s-4.5-2-4.5-4.5C514,764,516,762,518.5,762 M518.5,761
					c-3,0-5.5,2.5-5.5,5.5s2.5,5.5,5.5,5.5s5.5-2.5,5.5-5.5S521.5,761,518.5,761L518.5,761z"/>
			</g>
			<g>
				<path class="st30" d="M521.9,816c-1.5,0-3.1-1-3.2-3c-0.1-1.9-0.1-3.8-0.2-5.7c0,1.9-0.1,3.8-0.2,5.7c-0.1,1.9-1.7,3-3.2,3
					c-0.9,0-1.7-0.3-2.2-0.9c-0.5-0.5-0.8-1.3-0.7-2.1c0.3-7.8,0.3-15.9,0.3-22.4l0-0.2l0-0.1c0-0.1,0-0.2,0-0.2v-6.1
					c-0.3,1.8-0.3,3.7-0.1,5.2c0.1,0.8-0.1,1.4-0.6,1.9c-0.5,0.5-1.2,0.8-2,0.8c-1.3,0-2.8-0.9-3-2.6c-1.2-11.3,5.1-16.2,9.7-16.7
					c0.6-0.1,1.2-0.2,1.9-0.2c0.6,0,1.2,0.1,1.7,0.2c2.7,0.2,5,1.4,6.8,3.5c3.1,3.7,3.8,9.3,3.3,13.3c-0.2,1.7-1.6,2.6-3,2.6l0,0
					c-0.8,0-1.5-0.3-2-0.8c-0.4-0.5-0.6-1.1-0.6-1.9c0.2-1.9,0.2-4.4-0.4-6.5c0,1,0,2.1,0,3.1c0,1.3,0,2.7,0,4
					c0.1,0.2,0.1,0.5,0.1,0.7c0,6.9,0,14.7,0.3,22.4c0,0.8-0.2,1.6-0.7,2.1C523.6,815.7,522.7,816,521.9,816z"/>
				<path class="st31" d="M518.4,773c0.6,0,1.1,0.1,1.6,0.2c7.9,0.6,10.4,9.5,9.7,16.2c-0.1,1.4-1.4,2.2-2.5,2.2
					c-1.1,0-2.2-0.7-2-2.2c0.3-2.6,0.1-6.5-1.4-9.1c0,3.2,0.1,6.5,0.1,9.7c0,0.2,0.1,0.4,0.1,0.6c0,7.5,0,15,0.3,22.4
					c0.1,1.7-1.2,2.5-2.5,2.5c-1.3,0-2.6-0.8-2.7-2.5c-0.2-5.9-0.3-11.7-0.3-17.6c-0.1,0-0.2,0-0.4,0c-0.1,0-0.3,0-0.4,0
					c0,5.9-0.1,11.7-0.3,17.6c-0.1,1.7-1.4,2.5-2.7,2.5c-1.3,0-2.5-0.8-2.5-2.5c0.3-7.5,0.3-14.9,0.3-22.4c0-0.1,0-0.1,0-0.1
					c0-0.1,0-0.2,0-0.3c0-3.1,0-6.3,0-9.4c-1.3,2.6-1.4,6.2-1.1,8.6c0.2,1.4-0.9,2.2-2,2.2c-1.1,0-2.3-0.7-2.5-2.2
					c-0.7-6.6,1.7-15.3,9.2-16.2C517.2,773.1,517.8,773,518.4,773 M518.4,772c-0.7,0-1.3,0.1-2,0.2c-3.7,0.5-6.6,2.7-8.4,6.5
					c-1.4,3.1-2,7-1.6,10.8c0.2,2,1.9,3.1,3.5,3.1c0.8,0,1.6-0.3,2.2-0.8c0,6.3,0,14-0.3,21.3c0,1,0.3,1.8,0.9,2.5
					c0.6,0.7,1.6,1,2.6,1c1.4,0,2.8-0.7,3.4-2.1c0.6,1.4,2,2.1,3.4,2.1c1,0,1.9-0.4,2.6-1c0.6-0.6,0.9-1.5,0.9-2.5
					c-0.3-6.9-0.3-13.5-0.3-21.4c0.6,0.6,1.4,0.9,2.3,0.9c1.6,0,3.3-1,3.5-3.1c0.4-4.1-0.3-9.8-3.5-13.7c-1.8-2.2-4.2-3.4-7.1-3.7
					C519.6,772.1,519,772,518.4,772L518.4,772z"/>
			</g>
		</g>
	</g>
	<g>
		<g>
			<g>
				<path class="st30" d="M957.5,897.5c-2.8,0-5-2.2-5-5s2.2-5,5-5c2.8,0,5,2.2,5,5S960.2,897.5,957.5,897.5z"/>
				<path class="st31" d="M957.5,888c2.5,0,4.5,2,4.5,4.5c0,2.5-2,4.5-4.5,4.5s-4.5-2-4.5-4.5C953,890,955,888,957.5,888 M957.5,887
					c-3,0-5.5,2.5-5.5,5.5s2.5,5.5,5.5,5.5s5.5-2.5,5.5-5.5S960.5,887,957.5,887L957.5,887z"/>
			</g>
			<g>
				<path class="st30" d="M960.9,942c-1.5,0-3.1-1-3.2-3c-0.1-1.9-0.1-3.8-0.2-5.7c0,1.9-0.1,3.8-0.2,5.7c-0.1,1.9-1.7,3-3.2,3
					c-0.9,0-1.7-0.3-2.2-0.9c-0.5-0.5-0.8-1.3-0.7-2.1c0.3-7.8,0.3-15.9,0.3-22.4l0-0.2l0-0.1c0-0.1,0-0.2,0-0.2v-6.1
					c-0.3,1.8-0.3,3.7-0.1,5.2c0.1,0.8-0.1,1.4-0.6,1.9c-0.5,0.5-1.2,0.8-2,0.8c-1.3,0-2.8-0.9-3-2.6c-1.2-11.3,5.1-16.2,9.7-16.7
					c0.6-0.1,1.2-0.2,1.9-0.2c0.6,0,1.2,0.1,1.7,0.2c2.7,0.2,5,1.4,6.8,3.5c3.1,3.7,3.8,9.3,3.3,13.3c-0.2,1.7-1.6,2.6-3,2.6l0,0
					c-0.8,0-1.5-0.3-2-0.8c-0.4-0.5-0.6-1.1-0.6-1.9c0.2-1.9,0.2-4.4-0.4-6.5c0,1,0,2.1,0,3.1c0,1.3,0,2.7,0,4
					c0.1,0.2,0.1,0.5,0.1,0.7c0,6.9,0,14.7,0.3,22.4c0,0.8-0.2,1.6-0.7,2.1C962.6,941.7,961.7,942,960.9,942z"/>
				<path class="st31" d="M957.4,899c0.6,0,1.1,0.1,1.6,0.2c7.9,0.6,10.4,9.5,9.7,16.2c-0.1,1.4-1.4,2.2-2.5,2.2
					c-1.1,0-2.2-0.7-2-2.2c0.3-2.6,0.1-6.5-1.4-9.1c0,3.2,0.1,6.5,0.1,9.7c0,0.2,0.1,0.4,0.1,0.6c0,7.5,0,15,0.3,22.4
					c0.1,1.7-1.2,2.5-2.5,2.5c-1.3,0-2.6-0.8-2.7-2.5c-0.2-5.9-0.3-11.7-0.3-17.6c-0.1,0-0.2,0-0.4,0c-0.1,0-0.3,0-0.4,0
					c0,5.9-0.1,11.7-0.3,17.6c-0.1,1.7-1.4,2.5-2.7,2.5c-1.3,0-2.5-0.8-2.5-2.5c0.3-7.5,0.3-14.9,0.3-22.4c0-0.1,0-0.1,0-0.1
					c0-0.1,0-0.2,0-0.3c0-3.1,0-6.3,0-9.4c-1.3,2.6-1.4,6.2-1.1,8.6c0.2,1.4-0.9,2.2-2,2.2c-1.1,0-2.3-0.7-2.5-2.2
					c-0.7-6.6,1.7-15.3,9.2-16.2C956.2,899.1,956.8,899,957.4,899 M957.4,898c-0.7,0-1.3,0.1-2,0.2c-3.7,0.5-6.6,2.7-8.4,6.5
					c-1.4,3.1-2,7-1.6,10.8c0.2,2,1.9,3.1,3.5,3.1c0.8,0,1.6-0.3,2.2-0.8c0,6.3,0,14-0.3,21.3c0,1,0.3,1.8,0.9,2.5
					c0.6,0.7,1.6,1,2.6,1c1.4,0,2.8-0.7,3.4-2.1c0.6,1.4,2,2.1,3.4,2.1c1,0,1.9-0.4,2.6-1c0.6-0.6,0.9-1.5,0.9-2.5
					c-0.3-6.9-0.3-13.5-0.3-21.4c0.6,0.6,1.4,0.9,2.3,0.9c1.6,0,3.3-1,3.5-3.1c0.4-4.1-0.3-9.8-3.5-13.7c-1.8-2.2-4.2-3.4-7.1-3.7
					C958.6,898.1,958,898,957.4,898L957.4,898z"/>
			</g>
		</g>
	</g>
	<g>
		<g>
			<g>
				<path class="st30" d="M516.5,915.5c-2.8,0-5-2.2-5-5s2.2-5,5-5c2.8,0,5,2.2,5,5S519.2,915.5,516.5,915.5z"/>
				<path class="st31" d="M516.5,906c2.5,0,4.5,2,4.5,4.5c0,2.5-2,4.5-4.5,4.5s-4.5-2-4.5-4.5C512,908,514,906,516.5,906 M516.5,905
					c-3,0-5.5,2.5-5.5,5.5s2.5,5.5,5.5,5.5s5.5-2.5,5.5-5.5S519.5,905,516.5,905L516.5,905z"/>
			</g>
			<g>
				<path class="st30" d="M519.9,960c-1.5,0-3.1-1-3.2-3c-0.1-1.9-0.1-3.8-0.2-5.7c0,1.9-0.1,3.8-0.2,5.7c-0.1,1.9-1.7,3-3.2,3
					c-0.9,0-1.7-0.3-2.2-0.9c-0.5-0.5-0.8-1.3-0.7-2.1c0.3-7.8,0.3-15.9,0.3-22.4l0-0.2l0-0.1c0-0.1,0-0.2,0-0.2v-6.1
					c-0.3,1.8-0.3,3.7-0.1,5.2c0.1,0.8-0.1,1.4-0.6,1.9c-0.5,0.5-1.2,0.8-2,0.8c-1.3,0-2.8-0.9-3-2.6c-1.2-11.3,5.1-16.2,9.7-16.7
					c0.6-0.1,1.2-0.2,1.9-0.2c0.6,0,1.2,0.1,1.7,0.2c2.7,0.2,5,1.4,6.8,3.5c3.1,3.7,3.8,9.3,3.3,13.3c-0.2,1.7-1.6,2.6-3,2.6l0,0
					c-0.8,0-1.5-0.3-2-0.8c-0.4-0.5-0.6-1.1-0.6-1.9c0.2-1.9,0.2-4.4-0.4-6.5c0,1,0,2.1,0,3.1c0,1.3,0,2.7,0,4
					c0.1,0.2,0.1,0.5,0.1,0.7c0,6.9,0,14.7,0.3,22.4c0,0.8-0.2,1.6-0.7,2.1C521.6,959.7,520.7,960,519.9,960z"/>
				<path class="st31" d="M516.4,917c0.6,0,1.1,0.1,1.6,0.2c7.9,0.6,10.4,9.5,9.7,16.2c-0.1,1.4-1.4,2.2-2.5,2.2
					c-1.1,0-2.2-0.7-2-2.2c0.3-2.6,0.1-6.5-1.4-9.1c0,3.2,0.1,6.5,0.1,9.7c0,0.2,0.1,0.4,0.1,0.6c0,7.5,0,15,0.3,22.4
					c0.1,1.7-1.2,2.5-2.5,2.5c-1.3,0-2.6-0.8-2.7-2.5c-0.2-5.9-0.3-11.7-0.3-17.6c-0.1,0-0.2,0-0.4,0c-0.1,0-0.3,0-0.4,0
					c0,5.9-0.1,11.7-0.3,17.6c-0.1,1.7-1.4,2.5-2.7,2.5c-1.3,0-2.5-0.8-2.5-2.5c0.3-7.5,0.3-14.9,0.3-22.4c0-0.1,0-0.1,0-0.1
					c0-0.1,0-0.2,0-0.3c0-3.1,0-6.3,0-9.4c-1.3,2.6-1.4,6.2-1.1,8.6c0.2,1.4-0.9,2.2-2,2.2c-1.1,0-2.3-0.7-2.5-2.2
					c-0.7-6.6,1.7-15.3,9.2-16.2C515.2,917.1,515.8,917,516.4,917 M516.4,916c-0.7,0-1.3,0.1-2,0.2c-3.7,0.5-6.6,2.7-8.4,6.5
					c-1.4,3.1-2,7-1.6,10.8c0.2,2,1.9,3.1,3.5,3.1c0.8,0,1.6-0.3,2.2-0.8c0,6.3,0,14-0.3,21.3c0,1,0.3,1.8,0.9,2.5
					c0.6,0.7,1.6,1,2.6,1c1.4,0,2.8-0.7,3.4-2.1c0.6,1.4,2,2.1,3.4,2.1c1,0,1.9-0.4,2.6-1c0.6-0.6,0.9-1.5,0.9-2.5
					c-0.3-6.9-0.3-13.5-0.3-21.4c0.6,0.6,1.4,0.9,2.3,0.9c1.6,0,3.3-1,3.5-3.1c0.4-4.1-0.3-9.8-3.5-13.7c-1.8-2.2-4.2-3.4-7.1-3.7
					C517.6,916.1,517,916,516.4,916L516.4,916z"/>
			</g>
		</g>
	</g>
	<g>
		<g>
			<g>
				<path class="st30" d="M628.5,762.5c-2.8,0-5-2.2-5-5s2.2-5,5-5c2.8,0,5,2.2,5,5S631.2,762.5,628.5,762.5z"/>
				<path class="st31" d="M628.5,753c2.5,0,4.5,2,4.5,4.5c0,2.5-2,4.5-4.5,4.5s-4.5-2-4.5-4.5C624,755,626,753,628.5,753 M628.5,752
					c-3,0-5.5,2.5-5.5,5.5s2.5,5.5,5.5,5.5s5.5-2.5,5.5-5.5S631.5,752,628.5,752L628.5,752z"/>
			</g>
			<g>
				<path class="st30" d="M631.9,807c-1.5,0-3.1-1-3.2-3c-0.1-1.9-0.1-3.8-0.2-5.7c0,1.9-0.1,3.8-0.2,5.7c-0.1,1.9-1.7,3-3.2,3
					c-0.9,0-1.7-0.3-2.2-0.9c-0.5-0.5-0.8-1.3-0.7-2.1c0.3-7.8,0.3-15.9,0.3-22.4l0-0.2l0-0.1c0-0.1,0-0.2,0-0.2v-6.1
					c-0.3,1.8-0.3,3.7-0.1,5.2c0.1,0.8-0.1,1.4-0.6,1.9c-0.5,0.5-1.2,0.8-2,0.8c-1.3,0-2.8-0.9-3-2.6c-1.2-11.3,5.1-16.2,9.7-16.7
					c0.6-0.1,1.2-0.2,1.9-0.2c0.6,0,1.2,0.1,1.7,0.2c2.7,0.2,5,1.4,6.8,3.5c3.1,3.7,3.8,9.3,3.3,13.3c-0.2,1.7-1.6,2.6-3,2.6l0,0
					c-0.8,0-1.5-0.3-2-0.8c-0.4-0.5-0.6-1.1-0.6-1.9c0.2-1.9,0.2-4.4-0.4-6.5c0,1,0,2.1,0,3.1c0,1.3,0,2.7,0,4
					c0.1,0.2,0.1,0.5,0.1,0.7c0,6.9,0,14.7,0.3,22.4c0,0.8-0.2,1.6-0.7,2.1C633.6,806.7,632.7,807,631.9,807z"/>
				<path class="st31" d="M628.4,764c0.6,0,1.1,0.1,1.6,0.2c7.9,0.6,10.4,9.5,9.7,16.2c-0.1,1.4-1.4,2.2-2.5,2.2
					c-1.1,0-2.2-0.7-2-2.2c0.3-2.6,0.1-6.5-1.4-9.1c0,3.2,0.1,6.5,0.1,9.7c0,0.2,0.1,0.4,0.1,0.6c0,7.5,0,15,0.3,22.4
					c0.1,1.7-1.2,2.5-2.5,2.5c-1.3,0-2.6-0.8-2.7-2.5c-0.2-5.9-0.3-11.7-0.3-17.6c-0.1,0-0.2,0-0.4,0c-0.1,0-0.3,0-0.4,0
					c0,5.9-0.1,11.7-0.3,17.6c-0.1,1.7-1.4,2.5-2.7,2.5c-1.3,0-2.5-0.8-2.5-2.5c0.3-7.5,0.3-14.9,0.3-22.4c0-0.1,0-0.1,0-0.1
					c0-0.1,0-0.2,0-0.3c0-3.1,0-6.3,0-9.4c-1.3,2.6-1.4,6.2-1.1,8.6c0.2,1.4-0.9,2.2-2,2.2c-1.1,0-2.3-0.7-2.5-2.2
					c-0.7-6.6,1.7-15.3,9.2-16.2C627.2,764.1,627.8,764,628.4,764 M628.4,763c-0.7,0-1.3,0.1-2,0.2c-3.7,0.5-6.6,2.7-8.4,6.5
					c-1.4,3.1-2,7-1.6,10.8c0.2,2,1.9,3.1,3.5,3.1c0.8,0,1.6-0.3,2.2-0.8c0,6.3,0,14-0.3,21.3c0,1,0.3,1.8,0.9,2.5
					c0.6,0.7,1.6,1,2.6,1c1.4,0,2.8-0.7,3.4-2.1c0.6,1.4,2,2.1,3.4,2.1c1,0,1.9-0.4,2.6-1c0.6-0.6,0.9-1.5,0.9-2.5
					c-0.3-6.9-0.3-13.5-0.3-21.4c0.6,0.6,1.4,0.9,2.3,0.9c1.6,0,3.3-1,3.5-3.1c0.4-4.1-0.3-9.8-3.5-13.7c-1.8-2.2-4.2-3.4-7.1-3.7
					C629.6,763.1,629,763,628.4,763L628.4,763z"/>
			</g>
		</g>
	</g>
	<g>
		<g>
			<g>
				<path class="st30" d="M1192.5,633.5c-2.8,0-5-2.2-5-5s2.2-5,5-5c2.8,0,5,2.2,5,5S1195.2,633.5,1192.5,633.5z"/>
				<path class="st31" d="M1192.5,624c2.5,0,4.5,2,4.5,4.5c0,2.5-2,4.5-4.5,4.5s-4.5-2-4.5-4.5C1188,626,1190,624,1192.5,624
					 M1192.5,623c-3,0-5.5,2.5-5.5,5.5s2.5,5.5,5.5,5.5s5.5-2.5,5.5-5.5S1195.5,623,1192.5,623L1192.5,623z"/>
			</g>
			<g>
				<path class="st30" d="M1195.9,678c-1.5,0-3.1-1-3.2-3c-0.1-1.9-0.1-3.8-0.2-5.7c0,1.9-0.1,3.8-0.2,5.7c-0.1,1.9-1.7,3-3.2,3
					c-0.9,0-1.7-0.3-2.2-0.9c-0.5-0.5-0.8-1.3-0.7-2.1c0.3-7.8,0.3-15.9,0.3-22.4l0-0.2l0-0.1c0-0.1,0-0.2,0-0.2v-6.1
					c-0.3,1.8-0.3,3.7-0.1,5.2c0.1,0.8-0.1,1.4-0.6,1.9c-0.5,0.5-1.2,0.8-2,0.8c-1.3,0-2.8-0.9-3-2.6c-1.2-11.3,5.1-16.2,9.7-16.7
					c0.6-0.1,1.2-0.2,1.9-0.2c0.6,0,1.2,0.1,1.7,0.2c2.7,0.2,5,1.4,6.8,3.5c3.1,3.7,3.8,9.3,3.3,13.3c-0.2,1.7-1.6,2.6-3,2.6l0,0
					c-0.8,0-1.5-0.3-2-0.8c-0.4-0.5-0.6-1.1-0.6-1.9c0.2-1.9,0.2-4.4-0.4-6.5c0,1,0,2.1,0,3.1c0,1.3,0,2.7,0,4
					c0.1,0.2,0.1,0.5,0.1,0.7c0,6.9,0,14.7,0.3,22.4c0,0.8-0.2,1.6-0.7,2.1C1197.6,677.7,1196.7,678,1195.9,678z"/>
				<path class="st31" d="M1192.4,635c0.6,0,1.1,0.1,1.6,0.2c7.9,0.6,10.4,9.5,9.7,16.2c-0.1,1.4-1.4,2.2-2.5,2.2
					c-1.1,0-2.2-0.7-2-2.2c0.3-2.6,0.1-6.5-1.4-9.1c0,3.2,0.1,6.5,0.1,9.7c0,0.2,0.1,0.4,0.1,0.6c0,7.5,0,15,0.3,22.4
					c0.1,1.7-1.2,2.5-2.5,2.5c-1.3,0-2.6-0.8-2.7-2.5c-0.2-5.9-0.3-11.7-0.3-17.6c-0.1,0-0.2,0-0.4,0c-0.1,0-0.3,0-0.4,0
					c0,5.9-0.1,11.7-0.3,17.6c-0.1,1.7-1.4,2.5-2.7,2.5c-1.3,0-2.5-0.8-2.5-2.5c0.3-7.5,0.3-14.9,0.3-22.4c0-0.1,0-0.1,0-0.1
					c0-0.1,0-0.2,0-0.3c0-3.1,0-6.3,0-9.4c-1.3,2.6-1.4,6.2-1.1,8.6c0.2,1.4-0.9,2.2-2,2.2c-1.1,0-2.3-0.7-2.5-2.2
					c-0.7-6.6,1.7-15.3,9.2-16.2C1191.2,635.1,1191.8,635,1192.4,635 M1192.4,634c-0.7,0-1.3,0.1-2,0.2c-3.7,0.5-6.6,2.7-8.4,6.5
					c-1.4,3.1-2,7-1.6,10.8c0.2,2,1.9,3.1,3.5,3.1c0.8,0,1.6-0.3,2.2-0.8c0,6.3,0,14-0.3,21.3c0,1,0.3,1.8,0.9,2.5
					c0.6,0.7,1.6,1,2.6,1c1.4,0,2.8-0.7,3.4-2.1c0.6,1.4,2,2.1,3.4,2.1c1,0,1.9-0.4,2.6-1c0.6-0.6,0.9-1.5,0.9-2.5
					c-0.3-6.9-0.3-13.5-0.3-21.4c0.6,0.6,1.4,0.9,2.3,0.9c1.6,0,3.3-1,3.5-3.1c0.4-4.1-0.3-9.8-3.5-13.7c-1.8-2.2-4.2-3.4-7.1-3.7
					C1193.6,634.1,1193,634,1192.4,634L1192.4,634z"/>
			</g>
		</g>
	</g>
	<g>
		<g>
			<g>
				<path class="st30" d="M1296.5,691.5c-2.8,0-5-2.2-5-5s2.2-5,5-5c2.8,0,5,2.2,5,5S1299.2,691.5,1296.5,691.5z"/>
				<path class="st31" d="M1296.5,682c2.5,0,4.5,2,4.5,4.5c0,2.5-2,4.5-4.5,4.5s-4.5-2-4.5-4.5C1292,684,1294,682,1296.5,682
					 M1296.5,681c-3,0-5.5,2.5-5.5,5.5s2.5,5.5,5.5,5.5s5.5-2.5,5.5-5.5S1299.5,681,1296.5,681L1296.5,681z"/>
			</g>
			<g>
				<path class="st30" d="M1299.9,736c-1.5,0-3.1-1-3.2-3c-0.1-1.9-0.1-3.8-0.2-5.7c0,1.9-0.1,3.8-0.2,5.7c-0.1,1.9-1.7,3-3.2,3
					c-0.9,0-1.7-0.3-2.2-0.9c-0.5-0.5-0.8-1.3-0.7-2.1c0.3-7.8,0.3-15.9,0.3-22.4l0-0.2l0-0.1c0-0.1,0-0.2,0-0.2v-6.1
					c-0.3,1.8-0.3,3.7-0.1,5.2c0.1,0.8-0.1,1.4-0.6,1.9c-0.5,0.5-1.2,0.8-2,0.8c-1.3,0-2.8-0.9-3-2.6c-1.2-11.3,5.1-16.2,9.7-16.7
					c0.6-0.1,1.2-0.2,1.9-0.2c0.6,0,1.2,0.1,1.7,0.2c2.7,0.2,5,1.4,6.8,3.5c3.1,3.7,3.8,9.3,3.3,13.3c-0.2,1.7-1.6,2.6-3,2.6l0,0
					c-0.8,0-1.5-0.3-2-0.8c-0.4-0.5-0.6-1.1-0.6-1.9c0.2-1.9,0.2-4.4-0.4-6.5c0,1,0,2.1,0,3.1c0,1.3,0,2.7,0,4
					c0.1,0.2,0.1,0.5,0.1,0.7c0,6.9,0,14.7,0.3,22.4c0,0.8-0.2,1.6-0.7,2.1C1301.6,735.7,1300.7,736,1299.9,736z"/>
				<path class="st31" d="M1296.4,693c0.6,0,1.1,0.1,1.6,0.2c7.9,0.6,10.4,9.5,9.7,16.2c-0.1,1.4-1.4,2.2-2.5,2.2
					c-1.1,0-2.2-0.7-2-2.2c0.3-2.6,0.1-6.5-1.4-9.1c0,3.2,0.1,6.5,0.1,9.7c0,0.2,0.1,0.4,0.1,0.6c0,7.5,0,15,0.3,22.4
					c0.1,1.7-1.2,2.5-2.5,2.5c-1.3,0-2.6-0.8-2.7-2.5c-0.2-5.9-0.3-11.7-0.3-17.6c-0.1,0-0.2,0-0.4,0c-0.1,0-0.3,0-0.4,0
					c0,5.9-0.1,11.7-0.3,17.6c-0.1,1.7-1.4,2.5-2.7,2.5c-1.3,0-2.5-0.8-2.5-2.5c0.3-7.5,0.3-14.9,0.3-22.4c0-0.1,0-0.1,0-0.1
					c0-0.1,0-0.2,0-0.3c0-3.1,0-6.3,0-9.4c-1.3,2.6-1.4,6.2-1.1,8.6c0.2,1.4-0.9,2.2-2,2.2c-1.1,0-2.3-0.7-2.5-2.2
					c-0.7-6.6,1.7-15.3,9.2-16.2C1295.2,693.1,1295.8,693,1296.4,693 M1296.4,692c-0.7,0-1.3,0.1-2,0.2c-3.7,0.5-6.6,2.7-8.4,6.5
					c-1.4,3.1-2,7-1.6,10.8c0.2,2,1.9,3.1,3.5,3.1c0.8,0,1.6-0.3,2.2-0.8c0,6.3,0,14-0.3,21.3c0,1,0.3,1.8,0.9,2.5
					c0.6,0.7,1.6,1,2.6,1c1.4,0,2.8-0.7,3.4-2.1c0.6,1.4,2,2.1,3.4,2.1c1,0,1.9-0.4,2.6-1c0.6-0.6,0.9-1.5,0.9-2.5
					c-0.3-6.9-0.3-13.5-0.3-21.4c0.6,0.6,1.4,0.9,2.3,0.9c1.6,0,3.3-1,3.5-3.1c0.4-4.1-0.3-9.8-3.5-13.7c-1.8-2.2-4.2-3.4-7.1-3.7
					C1297.6,692.1,1297,692,1296.4,692L1296.4,692z"/>
			</g>
		</g>
	</g>
	<g>
		<g>
			<g>
				<path class="st30" d="M1655.5,559.5c-2.8,0-5-2.2-5-5s2.2-5,5-5c2.8,0,5,2.2,5,5S1658.2,559.5,1655.5,559.5z"/>
				<path class="st31" d="M1655.5,550c2.5,0,4.5,2,4.5,4.5c0,2.5-2,4.5-4.5,4.5s-4.5-2-4.5-4.5C1651,552,1653,550,1655.5,550
					 M1655.5,549c-3,0-5.5,2.5-5.5,5.5s2.5,5.5,5.5,5.5s5.5-2.5,5.5-5.5S1658.5,549,1655.5,549L1655.5,549z"/>
			</g>
			<g>
				<path class="st30" d="M1658.9,604c-1.5,0-3.1-1-3.2-3c-0.1-1.9-0.1-3.8-0.2-5.7c0,1.9-0.1,3.8-0.2,5.7c-0.1,1.9-1.7,3-3.2,3
					c-0.9,0-1.7-0.3-2.2-0.9c-0.5-0.5-0.8-1.3-0.7-2.1c0.3-7.8,0.3-15.9,0.3-22.4l0-0.2l0-0.1c0-0.1,0-0.2,0-0.2v-6.1
					c-0.3,1.8-0.3,3.7-0.1,5.2c0.1,0.8-0.1,1.4-0.6,1.9c-0.5,0.5-1.2,0.8-2,0.8c-1.3,0-2.8-0.9-3-2.6c-1.2-11.3,5.1-16.2,9.7-16.7
					c0.6-0.1,1.2-0.2,1.9-0.2c0.6,0,1.2,0.1,1.7,0.2c2.7,0.2,5,1.4,6.8,3.5c3.1,3.7,3.8,9.3,3.3,13.3c-0.2,1.7-1.6,2.6-3,2.6l0,0
					c-0.8,0-1.5-0.3-2-0.8c-0.4-0.5-0.6-1.1-0.6-1.9c0.2-1.9,0.2-4.4-0.4-6.5c0,1,0,2.1,0,3.1c0,1.3,0,2.7,0,4
					c0.1,0.2,0.1,0.5,0.1,0.7c0,6.9,0,14.7,0.3,22.4c0,0.8-0.2,1.6-0.7,2.1C1660.6,603.7,1659.7,604,1658.9,604z"/>
				<path class="st31" d="M1655.4,561c0.6,0,1.1,0.1,1.6,0.2c7.9,0.6,10.4,9.5,9.7,16.2c-0.1,1.4-1.4,2.2-2.5,2.2
					c-1.1,0-2.2-0.7-2-2.2c0.3-2.6,0.1-6.5-1.4-9.1c0,3.2,0.1,6.5,0.1,9.7c0,0.2,0.1,0.4,0.1,0.6c0,7.5,0,15,0.3,22.4
					c0.1,1.7-1.2,2.5-2.5,2.5c-1.3,0-2.6-0.8-2.7-2.5c-0.2-5.9-0.3-11.7-0.3-17.6c-0.1,0-0.2,0-0.4,0c-0.1,0-0.3,0-0.4,0
					c0,5.9-0.1,11.7-0.3,17.6c-0.1,1.7-1.4,2.5-2.7,2.5c-1.3,0-2.5-0.8-2.5-2.5c0.3-7.5,0.3-14.9,0.3-22.4c0-0.1,0-0.1,0-0.1
					c0-0.1,0-0.2,0-0.3c0-3.1,0-6.3,0-9.4c-1.3,2.6-1.4,6.2-1.1,8.6c0.2,1.4-0.9,2.2-2,2.2c-1.1,0-2.3-0.7-2.5-2.2
					c-0.7-6.6,1.7-15.3,9.2-16.2C1654.2,561.1,1654.8,561,1655.4,561 M1655.4,560c-0.7,0-1.3,0.1-2,0.2c-3.7,0.5-6.6,2.7-8.4,6.5
					c-1.4,3.1-2,7-1.6,10.8c0.2,2,1.9,3.1,3.5,3.1c0.8,0,1.6-0.3,2.2-0.8c0,6.3,0,14-0.3,21.3c0,1,0.3,1.8,0.9,2.5
					c0.6,0.7,1.6,1,2.6,1c1.4,0,2.8-0.7,3.4-2.1c0.6,1.4,2,2.1,3.4,2.1c1,0,1.9-0.4,2.6-1c0.6-0.6,0.9-1.5,0.9-2.5
					c-0.3-6.9-0.3-13.5-0.3-21.4c0.6,0.6,1.4,0.9,2.3,0.9c1.6,0,3.3-1,3.5-3.1c0.4-4.1-0.3-9.8-3.5-13.7c-1.8-2.2-4.2-3.4-7.1-3.7
					C1656.6,560.1,1656,560,1655.4,560L1655.4,560z"/>
			</g>
		</g>
	</g>
	<g>
		<g>
			<g>
				<path class="st30" d="M1051.5,518.5c-2.8,0-5-2.2-5-5s2.2-5,5-5c2.8,0,5,2.2,5,5S1054.2,518.5,1051.5,518.5z"/>
				<path class="st31" d="M1051.5,509c2.5,0,4.5,2,4.5,4.5c0,2.5-2,4.5-4.5,4.5s-4.5-2-4.5-4.5C1047,511,1049,509,1051.5,509
					 M1051.5,508c-3,0-5.5,2.5-5.5,5.5s2.5,5.5,5.5,5.5s5.5-2.5,5.5-5.5S1054.5,508,1051.5,508L1051.5,508z"/>
			</g>
			<g>
				<path class="st30" d="M1054.9,563c-1.5,0-3.1-1-3.2-3c-0.1-1.9-0.1-3.8-0.2-5.7c0,1.9-0.1,3.8-0.2,5.7c-0.1,1.9-1.7,3-3.2,3
					c-0.9,0-1.7-0.3-2.2-0.9c-0.5-0.5-0.8-1.3-0.7-2.1c0.3-7.8,0.3-15.9,0.3-22.4l0-0.2l0-0.1c0-0.1,0-0.2,0-0.2v-6.1
					c-0.3,1.8-0.3,3.7-0.1,5.2c0.1,0.8-0.1,1.4-0.6,1.9c-0.5,0.5-1.2,0.8-2,0.8c-1.3,0-2.8-0.9-3-2.6c-1.2-11.3,5.1-16.2,9.7-16.7
					c0.6-0.1,1.2-0.2,1.9-0.2c0.6,0,1.2,0.1,1.7,0.2c2.7,0.2,5,1.4,6.8,3.5c3.1,3.7,3.8,9.3,3.3,13.3c-0.2,1.7-1.6,2.6-3,2.6l0,0
					c-0.8,0-1.5-0.3-2-0.8c-0.4-0.5-0.6-1.1-0.6-1.9c0.2-1.9,0.2-4.4-0.4-6.5c0,1,0,2.1,0,3.1c0,1.3,0,2.7,0,4
					c0.1,0.2,0.1,0.5,0.1,0.7c0,6.9,0,14.7,0.3,22.4c0,0.8-0.2,1.6-0.7,2.1C1056.6,562.7,1055.7,563,1054.9,563z"/>
				<path class="st31" d="M1051.4,520c0.6,0,1.1,0.1,1.6,0.2c7.9,0.6,10.4,9.5,9.7,16.2c-0.1,1.4-1.4,2.2-2.5,2.2
					c-1.1,0-2.2-0.7-2-2.2c0.3-2.6,0.1-6.5-1.4-9.1c0,3.2,0.1,6.5,0.1,9.7c0,0.2,0.1,0.4,0.1,0.6c0,7.5,0,15,0.3,22.4
					c0.1,1.7-1.2,2.5-2.5,2.5c-1.3,0-2.6-0.8-2.7-2.5c-0.2-5.9-0.3-11.7-0.3-17.6c-0.1,0-0.2,0-0.4,0c-0.1,0-0.3,0-0.4,0
					c0,5.9-0.1,11.7-0.3,17.6c-0.1,1.7-1.4,2.5-2.7,2.5c-1.3,0-2.5-0.8-2.5-2.5c0.3-7.5,0.3-14.9,0.3-22.4c0-0.1,0-0.1,0-0.1
					c0-0.1,0-0.2,0-0.3c0-3.1,0-6.3,0-9.4c-1.3,2.6-1.4,6.2-1.1,8.6c0.2,1.4-0.9,2.2-2,2.2c-1.1,0-2.3-0.7-2.5-2.2
					c-0.7-6.6,1.7-15.3,9.2-16.2C1050.2,520.1,1050.8,520,1051.4,520 M1051.4,519c-0.7,0-1.3,0.1-2,0.2c-3.7,0.5-6.6,2.7-8.4,6.5
					c-1.4,3.1-2,7-1.6,10.8c0.2,2,1.9,3.1,3.5,3.1c0.8,0,1.6-0.3,2.2-0.8c0,6.3,0,14-0.3,21.3c0,1,0.3,1.8,0.9,2.5
					c0.6,0.7,1.6,1,2.6,1c1.4,0,2.8-0.7,3.4-2.1c0.6,1.4,2,2.1,3.4,2.1c1,0,1.9-0.4,2.6-1c0.6-0.6,0.9-1.5,0.9-2.5
					c-0.3-6.9-0.3-13.5-0.3-21.4c0.6,0.6,1.4,0.9,2.3,0.9c1.6,0,3.3-1,3.5-3.1c0.4-4.1-0.3-9.8-3.5-13.7c-1.8-2.2-4.2-3.4-7.1-3.7
					C1052.6,519.1,1052,519,1051.4,519L1051.4,519z"/>
			</g>
		</g>
	</g>
	<g>
		<g>
			<g>
				<path class="st30" d="M873.5,637.5c-2.8,0-5-2.2-5-5s2.2-5,5-5c2.8,0,5,2.2,5,5S876.2,637.5,873.5,637.5z"/>
				<path class="st31" d="M873.5,628c2.5,0,4.5,2,4.5,4.5c0,2.5-2,4.5-4.5,4.5s-4.5-2-4.5-4.5C869,630,871,628,873.5,628 M873.5,627
					c-3,0-5.5,2.5-5.5,5.5s2.5,5.5,5.5,5.5s5.5-2.5,5.5-5.5S876.5,627,873.5,627L873.5,627z"/>
			</g>
			<g>
				<path class="st30" d="M876.9,682c-1.5,0-3.1-1-3.2-3c-0.1-1.9-0.1-3.8-0.2-5.7c0,1.9-0.1,3.8-0.2,5.7c-0.1,1.9-1.7,3-3.2,3
					c-0.9,0-1.7-0.3-2.2-0.9c-0.5-0.5-0.8-1.3-0.7-2.1c0.3-7.8,0.3-15.9,0.3-22.4l0-0.2l0-0.1c0-0.1,0-0.2,0-0.2v-6.1
					c-0.3,1.8-0.3,3.7-0.1,5.2c0.1,0.8-0.1,1.4-0.6,1.9c-0.5,0.5-1.2,0.8-2,0.8c-1.3,0-2.8-0.9-3-2.6c-1.2-11.3,5.1-16.2,9.7-16.7
					c0.6-0.1,1.2-0.2,1.9-0.2c0.6,0,1.2,0.1,1.7,0.2c2.7,0.2,5,1.4,6.8,3.5c3.1,3.7,3.8,9.3,3.3,13.3c-0.2,1.7-1.6,2.6-3,2.6l0,0
					c-0.8,0-1.5-0.3-2-0.8c-0.4-0.5-0.6-1.1-0.6-1.9c0.2-1.9,0.2-4.4-0.4-6.5c0,1,0,2.1,0,3.1c0,1.3,0,2.7,0,4
					c0.1,0.2,0.1,0.5,0.1,0.7c0,6.9,0,14.7,0.3,22.4c0,0.8-0.2,1.6-0.7,2.1C878.6,681.7,877.7,682,876.9,682z"/>
				<path class="st31" d="M873.4,639c0.6,0,1.1,0.1,1.6,0.2c7.9,0.6,10.4,9.5,9.7,16.2c-0.1,1.4-1.4,2.2-2.5,2.2
					c-1.1,0-2.2-0.7-2-2.2c0.3-2.6,0.1-6.5-1.4-9.1c0,3.2,0.1,6.5,0.1,9.7c0,0.2,0.1,0.4,0.1,0.6c0,7.5,0,15,0.3,22.4
					c0.1,1.7-1.2,2.5-2.5,2.5c-1.3,0-2.6-0.8-2.7-2.5c-0.2-5.9-0.3-11.7-0.3-17.6c-0.1,0-0.2,0-0.4,0c-0.1,0-0.3,0-0.4,0
					c0,5.9-0.1,11.7-0.3,17.6c-0.1,1.7-1.4,2.5-2.7,2.5c-1.3,0-2.5-0.8-2.5-2.5c0.3-7.5,0.3-14.9,0.3-22.4c0-0.1,0-0.1,0-0.1
					c0-0.1,0-0.2,0-0.3c0-3.1,0-6.3,0-9.4c-1.3,2.6-1.4,6.2-1.1,8.6c0.2,1.4-0.9,2.2-2,2.2c-1.1,0-2.3-0.7-2.5-2.2
					c-0.7-6.6,1.7-15.3,9.2-16.2C872.2,639.1,872.8,639,873.4,639 M873.4,638c-0.7,0-1.3,0.1-2,0.2c-3.7,0.5-6.6,2.7-8.4,6.5
					c-1.4,3.1-2,7-1.6,10.8c0.2,2,1.9,3.1,3.5,3.1c0.8,0,1.6-0.3,2.2-0.8c0,6.3,0,14-0.3,21.3c0,1,0.3,1.8,0.9,2.5
					c0.6,0.7,1.6,1,2.6,1c1.4,0,2.8-0.7,3.4-2.1c0.6,1.4,2,2.1,3.4,2.1c1,0,1.9-0.4,2.6-1c0.6-0.6,0.9-1.5,0.9-2.5
					c-0.3-6.9-0.3-13.5-0.3-21.4c0.6,0.6,1.4,0.9,2.3,0.9c1.6,0,3.3-1,3.5-3.1c0.4-4.1-0.3-9.8-3.5-13.7c-1.8-2.2-4.2-3.4-7.1-3.7
					C874.6,638.1,874,638,873.4,638L873.4,638z"/>
			</g>
		</g>
	</g>
	<g>
		<g>
			<g>
				<path class="st30" d="M1028.5,768.5c-2.8,0-5-2.2-5-5s2.2-5,5-5c2.8,0,5,2.2,5,5S1031.2,768.5,1028.5,768.5z"/>
				<path class="st31" d="M1028.5,759c2.5,0,4.5,2,4.5,4.5c0,2.5-2,4.5-4.5,4.5s-4.5-2-4.5-4.5C1024,761,1026,759,1028.5,759
					 M1028.5,758c-3,0-5.5,2.5-5.5,5.5s2.5,5.5,5.5,5.5s5.5-2.5,5.5-5.5S1031.5,758,1028.5,758L1028.5,758z"/>
			</g>
			<g>
				<path class="st30" d="M1031.9,813c-1.5,0-3.1-1-3.2-3c-0.1-1.9-0.1-3.8-0.2-5.7c0,1.9-0.1,3.8-0.2,5.7c-0.1,1.9-1.7,3-3.2,3
					c-0.9,0-1.7-0.3-2.2-0.9c-0.5-0.5-0.8-1.3-0.7-2.1c0.3-7.8,0.3-15.9,0.3-22.4l0-0.2l0-0.1c0-0.1,0-0.2,0-0.2v-6.1
					c-0.3,1.8-0.3,3.7-0.1,5.2c0.1,0.8-0.1,1.4-0.6,1.9c-0.5,0.5-1.2,0.8-2,0.8c-1.3,0-2.8-0.9-3-2.6c-1.2-11.3,5.1-16.2,9.7-16.7
					c0.6-0.1,1.2-0.2,1.9-0.2c0.6,0,1.2,0.1,1.7,0.2c2.7,0.2,5,1.4,6.8,3.5c3.1,3.7,3.8,9.3,3.3,13.3c-0.2,1.7-1.6,2.6-3,2.6l0,0
					c-0.8,0-1.5-0.3-2-0.8c-0.4-0.5-0.6-1.1-0.6-1.9c0.2-1.9,0.2-4.4-0.4-6.5c0,1,0,2.1,0,3.1c0,1.3,0,2.7,0,4
					c0.1,0.2,0.1,0.5,0.1,0.7c0,6.9,0,14.7,0.3,22.4c0,0.8-0.2,1.6-0.7,2.1C1033.6,812.7,1032.7,813,1031.9,813z"/>
				<path class="st31" d="M1028.4,770c0.6,0,1.1,0.1,1.6,0.2c7.9,0.6,10.4,9.5,9.7,16.2c-0.1,1.4-1.4,2.2-2.5,2.2
					c-1.1,0-2.2-0.7-2-2.2c0.3-2.6,0.1-6.5-1.4-9.1c0,3.2,0.1,6.5,0.1,9.7c0,0.2,0.1,0.4,0.1,0.6c0,7.5,0,15,0.3,22.4
					c0.1,1.7-1.2,2.5-2.5,2.5c-1.3,0-2.6-0.8-2.7-2.5c-0.2-5.9-0.3-11.7-0.3-17.6c-0.1,0-0.2,0-0.4,0c-0.1,0-0.3,0-0.4,0
					c0,5.9-0.1,11.7-0.3,17.6c-0.1,1.7-1.4,2.5-2.7,2.5c-1.3,0-2.5-0.8-2.5-2.5c0.3-7.5,0.3-14.9,0.3-22.4c0-0.1,0-0.1,0-0.1
					c0-0.1,0-0.2,0-0.3c0-3.1,0-6.3,0-9.4c-1.3,2.6-1.4,6.2-1.1,8.6c0.2,1.4-0.9,2.2-2,2.2c-1.1,0-2.3-0.7-2.5-2.2
					c-0.7-6.6,1.7-15.3,9.2-16.2C1027.2,770.1,1027.8,770,1028.4,770 M1028.4,769c-0.7,0-1.3,0.1-2,0.2c-3.7,0.5-6.6,2.7-8.4,6.5
					c-1.4,3.1-2,7-1.6,10.8c0.2,2,1.9,3.1,3.5,3.1c0.8,0,1.6-0.3,2.2-0.8c0,6.3,0,14-0.3,21.3c0,1,0.3,1.8,0.9,2.5
					c0.6,0.7,1.6,1,2.6,1c1.4,0,2.8-0.7,3.4-2.1c0.6,1.4,2,2.1,3.4,2.1c1,0,1.9-0.4,2.6-1c0.6-0.6,0.9-1.5,0.9-2.5
					c-0.3-6.9-0.3-13.5-0.3-21.4c0.6,0.6,1.4,0.9,2.3,0.9c1.6,0,3.3-1,3.5-3.1c0.4-4.1-0.3-9.8-3.5-13.7c-1.8-2.2-4.2-3.4-7.1-3.7
					C1029.6,769.1,1029,769,1028.4,769L1028.4,769z"/>
			</g>
		</g>
	</g>
	<g>
		<g>
			<g>
				<path class="st30" d="M999.5,635.5c-2.8,0-5-2.2-5-5s2.2-5,5-5c2.8,0,5,2.2,5,5S1002.2,635.5,999.5,635.5z"/>
				<path class="st31" d="M999.5,626c2.5,0,4.5,2,4.5,4.5c0,2.5-2,4.5-4.5,4.5s-4.5-2-4.5-4.5C995,628,997,626,999.5,626 M999.5,625
					c-3,0-5.5,2.5-5.5,5.5s2.5,5.5,5.5,5.5s5.5-2.5,5.5-5.5S1002.5,625,999.5,625L999.5,625z"/>
			</g>
			<g>
				<path class="st30" d="M1002.9,680c-1.5,0-3.1-1-3.2-3c-0.1-1.9-0.1-3.8-0.2-5.7c0,1.9-0.1,3.8-0.2,5.7c-0.1,1.9-1.7,3-3.2,3
					c-0.9,0-1.7-0.3-2.2-0.9c-0.5-0.5-0.8-1.3-0.7-2.1c0.3-7.8,0.3-15.9,0.3-22.4l0-0.2l0-0.1c0-0.1,0-0.2,0-0.2v-6.1
					c-0.3,1.8-0.3,3.7-0.1,5.2c0.1,0.8-0.1,1.4-0.6,1.9c-0.5,0.5-1.2,0.8-2,0.8c-1.3,0-2.8-0.9-3-2.6c-1.2-11.3,5.1-16.2,9.7-16.7
					c0.6-0.1,1.2-0.2,1.9-0.2c0.6,0,1.2,0.1,1.7,0.2c2.7,0.2,5,1.4,6.8,3.5c3.1,3.7,3.8,9.3,3.3,13.3c-0.2,1.7-1.6,2.6-3,2.6l0,0
					c-0.8,0-1.5-0.3-2-0.8c-0.4-0.5-0.6-1.1-0.6-1.9c0.2-1.9,0.2-4.4-0.4-6.5c0,1,0,2.1,0,3.1c0,1.3,0,2.7,0,4
					c0.1,0.2,0.1,0.5,0.1,0.7c0,6.9,0,14.7,0.3,22.4c0,0.8-0.2,1.6-0.7,2.1C1004.6,679.7,1003.7,680,1002.9,680z"/>
				<path class="st31" d="M999.4,637c0.6,0,1.1,0.1,1.6,0.2c7.9,0.6,10.4,9.5,9.7,16.2c-0.1,1.4-1.4,2.2-2.5,2.2
					c-1.1,0-2.2-0.7-2-2.2c0.3-2.6,0.1-6.5-1.4-9.1c0,3.2,0.1,6.5,0.1,9.7c0,0.2,0.1,0.4,0.1,0.6c0,7.5,0,15,0.3,22.4
					c0.1,1.7-1.2,2.5-2.5,2.5c-1.3,0-2.6-0.8-2.7-2.5c-0.2-5.9-0.3-11.7-0.3-17.6c-0.1,0-0.2,0-0.4,0c-0.1,0-0.3,0-0.4,0
					c0,5.9-0.1,11.7-0.3,17.6c-0.1,1.7-1.4,2.5-2.7,2.5c-1.3,0-2.5-0.8-2.5-2.5c0.3-7.5,0.3-14.9,0.3-22.4c0-0.1,0-0.1,0-0.1
					c0-0.1,0-0.2,0-0.3c0-3.1,0-6.3,0-9.4c-1.3,2.6-1.4,6.2-1.1,8.6c0.2,1.4-0.9,2.2-2,2.2c-1.1,0-2.3-0.7-2.5-2.2
					c-0.7-6.6,1.7-15.3,9.2-16.2C998.2,637.1,998.8,637,999.4,637 M999.4,636c-0.7,0-1.3,0.1-2,0.2c-3.7,0.5-6.6,2.7-8.4,6.5
					c-1.4,3.1-2,7-1.6,10.8c0.2,2,1.9,3.1,3.5,3.1c0.8,0,1.6-0.3,2.2-0.8c0,6.3,0,14-0.3,21.3c0,1,0.3,1.8,0.9,2.5
					c0.6,0.7,1.6,1,2.6,1c1.4,0,2.8-0.7,3.4-2.1c0.6,1.4,2,2.1,3.4,2.1c1,0,1.9-0.4,2.6-1c0.6-0.6,0.9-1.5,0.9-2.5
					c-0.3-6.9-0.3-13.5-0.3-21.4c0.6,0.6,1.4,0.9,2.3,0.9c1.6,0,3.3-1,3.5-3.1c0.4-4.1-0.3-9.8-3.5-13.7c-1.8-2.2-4.2-3.4-7.1-3.7
					C1000.6,636.1,1000,636,999.4,636L999.4,636z"/>
			</g>
		</g>
	</g>
	<g>
		<g>
			<g>
				<path class="st30" d="M709.5,664.5c-2.8,0-5-2.2-5-5s2.2-5,5-5c2.8,0,5,2.2,5,5S712.2,664.5,709.5,664.5z"/>
				<path class="st31" d="M709.5,655c2.5,0,4.5,2,4.5,4.5c0,2.5-2,4.5-4.5,4.5s-4.5-2-4.5-4.5C705,657,707,655,709.5,655 M709.5,654
					c-3,0-5.5,2.5-5.5,5.5s2.5,5.5,5.5,5.5s5.5-2.5,5.5-5.5S712.5,654,709.5,654L709.5,654z"/>
			</g>
			<g>
				<path class="st30" d="M712.9,709c-1.5,0-3.1-1-3.2-3c-0.1-1.9-0.1-3.8-0.2-5.7c0,1.9-0.1,3.8-0.2,5.7c-0.1,1.9-1.7,3-3.2,3
					c-0.9,0-1.7-0.3-2.2-0.9c-0.5-0.5-0.8-1.3-0.7-2.1c0.3-7.8,0.3-15.9,0.3-22.4l0-0.2l0-0.1c0-0.1,0-0.2,0-0.2v-6.1
					c-0.3,1.8-0.3,3.7-0.1,5.2c0.1,0.8-0.1,1.4-0.6,1.9c-0.5,0.5-1.2,0.8-2,0.8c-1.3,0-2.8-0.9-3-2.6c-1.2-11.3,5.1-16.2,9.7-16.7
					c0.6-0.1,1.2-0.2,1.9-0.2c0.6,0,1.2,0.1,1.7,0.2c2.7,0.2,5,1.4,6.8,3.5c3.1,3.7,3.8,9.3,3.3,13.3c-0.2,1.7-1.6,2.6-3,2.6l0,0
					c-0.8,0-1.5-0.3-2-0.8c-0.4-0.5-0.6-1.1-0.6-1.9c0.2-1.9,0.2-4.4-0.4-6.5c0,1,0,2.1,0,3.1c0,1.3,0,2.7,0,4
					c0.1,0.2,0.1,0.5,0.1,0.7c0,6.9,0,14.7,0.3,22.4c0,0.8-0.2,1.6-0.7,2.1C714.6,708.7,713.7,709,712.9,709z"/>
				<path class="st31" d="M709.4,666c0.6,0,1.1,0.1,1.6,0.2c7.9,0.6,10.4,9.5,9.7,16.2c-0.1,1.4-1.4,2.2-2.5,2.2
					c-1.1,0-2.2-0.7-2-2.2c0.3-2.6,0.1-6.5-1.4-9.1c0,3.2,0.1,6.5,0.1,9.7c0,0.2,0.1,0.4,0.1,0.6c0,7.5,0,15,0.3,22.4
					c0.1,1.7-1.2,2.5-2.5,2.5c-1.3,0-2.6-0.8-2.7-2.5c-0.2-5.9-0.3-11.7-0.3-17.6c-0.1,0-0.2,0-0.4,0c-0.1,0-0.3,0-0.4,0
					c0,5.9-0.1,11.7-0.3,17.6c-0.1,1.7-1.4,2.5-2.7,2.5c-1.3,0-2.5-0.8-2.5-2.5c0.3-7.5,0.3-14.9,0.3-22.4c0-0.1,0-0.1,0-0.1
					c0-0.1,0-0.2,0-0.3c0-3.1,0-6.3,0-9.4c-1.3,2.6-1.4,6.2-1.1,8.6c0.2,1.4-0.9,2.2-2,2.2c-1.1,0-2.3-0.7-2.5-2.2
					c-0.7-6.6,1.7-15.3,9.2-16.2C708.2,666.1,708.8,666,709.4,666 M709.4,665c-0.7,0-1.3,0.1-2,0.2c-3.7,0.5-6.6,2.7-8.4,6.5
					c-1.4,3.1-2,7-1.6,10.8c0.2,2,1.9,3.1,3.5,3.1c0.8,0,1.6-0.3,2.2-0.8c0,6.3,0,14-0.3,21.3c0,1,0.3,1.8,0.9,2.5
					c0.6,0.7,1.6,1,2.6,1c1.4,0,2.8-0.7,3.4-2.1c0.6,1.4,2,2.1,3.4,2.1c1,0,1.9-0.4,2.6-1c0.6-0.6,0.9-1.5,0.9-2.5
					c-0.3-6.9-0.3-13.5-0.3-21.4c0.6,0.6,1.4,0.9,2.3,0.9c1.6,0,3.3-1,3.5-3.1c0.4-4.1-0.3-9.8-3.5-13.7c-1.8-2.2-4.2-3.4-7.1-3.7
					C710.6,665.1,710,665,709.4,665L709.4,665z"/>
			</g>
		</g>
	</g>
	<g>
		<g>
			<g>
				<path class="st30" d="M450.5,255.5c-2.8,0-5-2.2-5-5c0-2.8,2.2-5,5-5c2.8,0,5,2.2,5,5C455.5,253.3,453.2,255.5,450.5,255.5z"/>
				<path class="st31" d="M450.5,246c2.5,0,4.5,2,4.5,4.5c0,2.5-2,4.5-4.5,4.5c-2.5,0-4.5-2-4.5-4.5C446,248,448,246,450.5,246
					 M450.5,245c-3,0-5.5,2.5-5.5,5.5c0,3,2.5,5.5,5.5,5.5c3,0,5.5-2.5,5.5-5.5C456,247.5,453.5,245,450.5,245L450.5,245z"/>
			</g>
			<g>
				<path class="st30" d="M453.9,300c-1.5,0-3.1-1-3.2-3c-0.1-1.9-0.1-3.8-0.2-5.7c0,1.9-0.1,3.8-0.2,5.7c-0.1,1.9-1.7,3-3.2,3
					c-0.9,0-1.7-0.3-2.2-0.9c-0.5-0.5-0.8-1.3-0.7-2.1c0.3-7.8,0.3-15.9,0.3-22.4l0-0.2l0-0.1c0-0.1,0-0.2,0-0.2v-6.1
					c-0.3,1.8-0.3,3.7-0.1,5.2c0.1,0.8-0.1,1.4-0.6,1.9c-0.5,0.5-1.2,0.8-2,0.8c-1.3,0-2.8-0.9-3-2.6c-1.2-11.3,5.1-16.2,9.7-16.7
					c0.6-0.1,1.2-0.2,1.9-0.2c0.6,0,1.2,0.1,1.7,0.2c2.7,0.2,5,1.4,6.8,3.5c3.1,3.7,3.8,9.3,3.3,13.3c-0.2,1.7-1.6,2.6-3,2.6l0,0
					c-0.8,0-1.5-0.3-2-0.8c-0.4-0.5-0.6-1.1-0.6-1.9c0.2-1.9,0.2-4.4-0.4-6.5c0,1,0,2.1,0,3.1c0,1.3,0,2.7,0,4
					c0.1,0.2,0.1,0.5,0.1,0.7c0,6.9,0,14.7,0.3,22.4c0,0.8-0.2,1.6-0.7,2.1C455.6,299.7,454.7,300,453.9,300z"/>
				<path class="st31" d="M450.4,257c0.6,0,1.1,0.1,1.6,0.2c7.9,0.6,10.4,9.5,9.7,16.2c-0.1,1.4-1.4,2.2-2.5,2.2
					c-1.1,0-2.2-0.7-2-2.2c0.3-2.6,0.1-6.5-1.4-9.1c0,3.2,0.1,6.5,0.1,9.7c0,0.2,0.1,0.4,0.1,0.6c0,7.5,0,15,0.3,22.4
					c0.1,1.7-1.2,2.5-2.5,2.5c-1.3,0-2.6-0.8-2.7-2.5c-0.2-5.9-0.3-11.7-0.3-17.6c-0.1,0-0.2,0-0.4,0c-0.1,0-0.3,0-0.4,0
					c0,5.9-0.1,11.7-0.3,17.6c-0.1,1.7-1.4,2.5-2.7,2.5c-1.3,0-2.5-0.8-2.5-2.5c0.3-7.5,0.3-14.9,0.3-22.4c0-0.1,0-0.1,0-0.1
					c0-0.1,0-0.2,0-0.3c0-3.1,0-6.3,0-9.4c-1.3,2.6-1.4,6.2-1.1,8.6c0.2,1.4-0.9,2.2-2,2.2c-1.1,0-2.3-0.7-2.5-2.2
					c-0.7-6.6,1.7-15.3,9.2-16.2C449.2,257.1,449.8,257,450.4,257 M450.4,256c-0.7,0-1.3,0.1-2,0.2c-3.7,0.5-6.6,2.7-8.4,6.5
					c-1.4,3.1-2,7-1.6,10.8c0.2,2,1.9,3.1,3.5,3.1c0.8,0,1.6-0.3,2.2-0.8c0,6.3,0,14-0.3,21.3c0,1,0.3,1.8,0.9,2.5
					c0.6,0.7,1.6,1,2.6,1c1.4,0,2.8-0.7,3.4-2.1c0.6,1.4,2,2.1,3.4,2.1c1,0,1.9-0.4,2.6-1c0.6-0.6,0.9-1.5,0.9-2.5
					c-0.3-6.9-0.3-13.5-0.3-21.4c0.6,0.6,1.4,0.9,2.3,0.9c1.6,0,3.3-1,3.5-3.1c0.4-4.1-0.3-9.8-3.5-13.6c-1.8-2.2-4.2-3.4-7.1-3.7
					C451.6,256.1,451,256,450.4,256L450.4,256z"/>
			</g>
		</g>
	</g>
	<g>
		<g>
			<g>
				<path class="st30" d="M297.5,368.5c-2.8,0-5-2.2-5-5s2.2-5,5-5c2.8,0,5,2.2,5,5S300.2,368.5,297.5,368.5z"/>
				<path class="st31" d="M297.5,359c2.5,0,4.5,2,4.5,4.5c0,2.5-2,4.5-4.5,4.5s-4.5-2-4.5-4.5C293,361,295,359,297.5,359 M297.5,358
					c-3,0-5.5,2.5-5.5,5.5s2.5,5.5,5.5,5.5s5.5-2.5,5.5-5.5S300.5,358,297.5,358L297.5,358z"/>
			</g>
			<g>
				<path class="st30" d="M300.9,413c-1.5,0-3.1-1-3.2-3c-0.1-1.9-0.1-3.8-0.2-5.7c0,1.9-0.1,3.8-0.2,5.7c-0.1,1.9-1.7,3-3.2,3
					c-0.9,0-1.7-0.3-2.2-0.9c-0.5-0.5-0.8-1.3-0.7-2.1c0.3-7.8,0.3-15.9,0.3-22.4l0-0.2l0-0.1c0-0.1,0-0.2,0-0.2v-6.1
					c-0.3,1.8-0.3,3.7-0.1,5.2c0.1,0.8-0.1,1.4-0.6,1.9c-0.5,0.5-1.2,0.8-2,0.8c-1.3,0-2.8-0.9-3-2.6c-1.2-11.3,5.1-16.2,9.7-16.7
					c0.6-0.1,1.2-0.2,1.9-0.2c0.6,0,1.2,0.1,1.7,0.2c2.7,0.2,5,1.4,6.8,3.5c3.1,3.7,3.8,9.3,3.3,13.3c-0.2,1.7-1.6,2.6-3,2.6l0,0
					c-0.8,0-1.5-0.3-2-0.8c-0.4-0.5-0.6-1.1-0.6-1.9c0.2-1.9,0.2-4.4-0.4-6.5c0,1,0,2.1,0,3.1c0,1.3,0,2.7,0,4
					c0.1,0.2,0.1,0.5,0.1,0.7c0,6.9,0,14.7,0.3,22.4c0,0.8-0.2,1.6-0.7,2.1C302.6,412.7,301.7,413,300.9,413z"/>
				<path class="st31" d="M297.4,370c0.6,0,1.1,0.1,1.6,0.2c7.9,0.6,10.4,9.5,9.7,16.2c-0.1,1.4-1.4,2.2-2.5,2.2
					c-1.1,0-2.2-0.7-2-2.2c0.3-2.6,0.1-6.5-1.4-9.1c0,3.2,0.1,6.5,0.1,9.7c0,0.2,0.1,0.4,0.1,0.6c0,7.5,0,15,0.3,22.4
					c0.1,1.7-1.2,2.5-2.5,2.5c-1.3,0-2.6-0.8-2.7-2.5c-0.2-5.9-0.3-11.7-0.3-17.6c-0.1,0-0.2,0-0.4,0c-0.1,0-0.3,0-0.4,0
					c0,5.9-0.1,11.7-0.3,17.6c-0.1,1.7-1.4,2.5-2.7,2.5c-1.3,0-2.5-0.8-2.5-2.5c0.3-7.5,0.3-14.9,0.3-22.4c0-0.1,0-0.1,0-0.1
					c0-0.1,0-0.2,0-0.3c0-3.1,0-6.3,0-9.4c-1.3,2.6-1.4,6.2-1.1,8.6c0.2,1.4-0.9,2.2-2,2.2c-1.1,0-2.3-0.7-2.5-2.2
					c-0.7-6.6,1.7-15.3,9.2-16.2C296.2,370.1,296.8,370,297.4,370 M297.4,369c-0.7,0-1.3,0.1-2,0.2c-3.7,0.5-6.6,2.7-8.4,6.5
					c-1.4,3.1-2,7-1.6,10.8c0.2,2,1.9,3.1,3.5,3.1c0.8,0,1.6-0.3,2.2-0.8c0,6.3,0,14-0.3,21.3c0,1,0.3,1.8,0.9,2.5
					c0.6,0.7,1.6,1,2.6,1c1.4,0,2.8-0.7,3.4-2.1c0.6,1.4,2,2.1,3.4,2.1c1,0,1.9-0.4,2.6-1c0.6-0.6,0.9-1.5,0.9-2.5
					c-0.3-6.9-0.3-13.5-0.3-21.4c0.6,0.6,1.4,0.9,2.3,0.9c1.6,0,3.3-1,3.5-3.1c0.4-4.1-0.3-9.8-3.5-13.7c-1.8-2.2-4.2-3.4-7.1-3.7
					C298.6,369.1,298,369,297.4,369L297.4,369z"/>
			</g>
		</g>
	</g>
	<g>
		<g>
			<g>
				<path class="st30" d="M492.5,352.5c-2.8,0-5-2.2-5-5s2.2-5,5-5c2.8,0,5,2.2,5,5S495.2,352.5,492.5,352.5z"/>
				<path class="st31" d="M492.5,343c2.5,0,4.5,2,4.5,4.5c0,2.5-2,4.5-4.5,4.5s-4.5-2-4.5-4.5C488,345,490,343,492.5,343 M492.5,342
					c-3,0-5.5,2.5-5.5,5.5s2.5,5.5,5.5,5.5s5.5-2.5,5.5-5.5S495.5,342,492.5,342L492.5,342z"/>
			</g>
			<g>
				<path class="st30" d="M495.9,397c-1.5,0-3.1-1-3.2-3c-0.1-1.9-0.1-3.8-0.2-5.7c0,1.9-0.1,3.8-0.2,5.7c-0.1,1.9-1.7,3-3.2,3
					c-0.9,0-1.7-0.3-2.2-0.9c-0.5-0.5-0.8-1.3-0.7-2.1c0.3-7.8,0.3-15.9,0.3-22.4l0-0.2l0-0.1c0-0.1,0-0.2,0-0.2v-6.1
					c-0.3,1.8-0.3,3.7-0.1,5.2c0.1,0.8-0.1,1.4-0.6,1.9c-0.5,0.5-1.2,0.8-2,0.8c-1.3,0-2.8-0.9-3-2.6c-1.2-11.3,5.1-16.2,9.7-16.7
					c0.6-0.1,1.2-0.2,1.9-0.2c0.6,0,1.2,0.1,1.7,0.2c2.7,0.2,5,1.4,6.8,3.5c3.1,3.7,3.8,9.3,3.3,13.3c-0.2,1.7-1.6,2.6-3,2.6l0,0
					c-0.8,0-1.5-0.3-2-0.8c-0.4-0.5-0.6-1.1-0.6-1.9c0.2-1.9,0.2-4.4-0.4-6.5c0,1,0,2.1,0,3.1c0,1.3,0,2.7,0,4
					c0.1,0.2,0.1,0.5,0.1,0.7c0,6.9,0,14.7,0.3,22.4c0,0.8-0.2,1.6-0.7,2.1C497.6,396.7,496.7,397,495.9,397z"/>
				<path class="st31" d="M492.4,354c0.6,0,1.1,0.1,1.6,0.2c7.9,0.6,10.4,9.5,9.7,16.2c-0.1,1.4-1.4,2.2-2.5,2.2
					c-1.1,0-2.2-0.7-2-2.2c0.3-2.6,0.1-6.5-1.4-9.1c0,3.2,0.1,6.5,0.1,9.7c0,0.2,0.1,0.4,0.1,0.6c0,7.5,0,15,0.3,22.4
					c0.1,1.7-1.2,2.5-2.5,2.5c-1.3,0-2.6-0.8-2.7-2.5c-0.2-5.9-0.3-11.7-0.3-17.6c-0.1,0-0.2,0-0.4,0c-0.1,0-0.3,0-0.4,0
					c0,5.9-0.1,11.7-0.3,17.6c-0.1,1.7-1.4,2.5-2.7,2.5c-1.3,0-2.5-0.8-2.5-2.5c0.3-7.5,0.3-14.9,0.3-22.4c0-0.1,0-0.1,0-0.1
					c0-0.1,0-0.2,0-0.3c0-3.1,0-6.3,0-9.4c-1.3,2.6-1.4,6.2-1.1,8.6c0.2,1.4-0.9,2.2-2,2.2c-1.1,0-2.3-0.7-2.5-2.2
					c-0.7-6.6,1.7-15.3,9.2-16.2C491.2,354.1,491.8,354,492.4,354 M492.4,353c-0.7,0-1.3,0.1-2,0.2c-3.7,0.5-6.6,2.7-8.4,6.5
					c-1.4,3.1-2,7-1.6,10.8c0.2,2,1.9,3.1,3.5,3.1c0.8,0,1.6-0.3,2.2-0.8c0,6.3,0,14-0.3,21.3c0,1,0.3,1.8,0.9,2.5
					c0.6,0.7,1.6,1,2.6,1c1.4,0,2.8-0.7,3.4-2.1c0.6,1.4,2,2.1,3.4,2.1c1,0,1.9-0.4,2.6-1c0.6-0.6,0.9-1.5,0.9-2.5
					c-0.3-6.9-0.3-13.5-0.3-21.4c0.6,0.6,1.4,0.9,2.3,0.9c1.6,0,3.3-1,3.5-3.1c0.4-4.1-0.3-9.8-3.5-13.7c-1.8-2.2-4.2-3.4-7.1-3.7
					C493.6,353.1,493,353,492.4,353L492.4,353z"/>
			</g>
		</g>
	</g>
	<g>
		<g>
			<g>
				<path class="st30" d="M277.5,249.5c-2.8,0-5-2.2-5-5s2.2-5,5-5c2.8,0,5,2.2,5,5S280.2,249.5,277.5,249.5z"/>
				<path class="st31" d="M277.5,240c2.5,0,4.5,2,4.5,4.5c0,2.5-2,4.5-4.5,4.5s-4.5-2-4.5-4.5C273,242,275,240,277.5,240 M277.5,239
					c-3,0-5.5,2.5-5.5,5.5s2.5,5.5,5.5,5.5s5.5-2.5,5.5-5.5S280.5,239,277.5,239L277.5,239z"/>
			</g>
			<g>
				<path class="st30" d="M280.9,294c-1.5,0-3.1-1-3.2-3c-0.1-1.9-0.1-3.8-0.2-5.7c0,1.9-0.1,3.8-0.2,5.7c-0.1,1.9-1.7,3-3.2,3
					c-0.9,0-1.7-0.3-2.2-0.9c-0.5-0.5-0.8-1.3-0.7-2.1c0.3-7.8,0.3-15.9,0.3-22.4l0-0.2l0-0.1c0-0.1,0-0.2,0-0.2v-6.1
					c-0.3,1.8-0.3,3.7-0.1,5.2c0.1,0.8-0.1,1.4-0.6,1.9c-0.5,0.5-1.2,0.8-2,0.8c-1.3,0-2.8-0.9-3-2.6c-1.2-11.3,5.1-16.2,9.7-16.7
					c0.6-0.1,1.2-0.2,1.9-0.2c0.6,0,1.2,0.1,1.7,0.2c2.7,0.2,5,1.4,6.8,3.5c3.1,3.7,3.8,9.3,3.3,13.3c-0.2,1.7-1.6,2.6-3,2.6l0,0
					c-0.8,0-1.5-0.3-2-0.8c-0.4-0.5-0.6-1.1-0.6-1.9c0.2-1.9,0.2-4.4-0.4-6.5c0,1,0,2.1,0,3.1c0,1.3,0,2.7,0,4
					c0.1,0.2,0.1,0.5,0.1,0.7c0,6.9,0,14.7,0.3,22.4c0,0.8-0.2,1.6-0.7,2.1C282.6,293.7,281.7,294,280.9,294z"/>
				<path class="st31" d="M277.4,251c0.6,0,1.1,0.1,1.6,0.2c7.9,0.6,10.4,9.5,9.7,16.2c-0.1,1.4-1.4,2.2-2.5,2.2
					c-1.1,0-2.2-0.7-2-2.2c0.3-2.6,0.1-6.5-1.4-9.1c0,3.2,0.1,6.5,0.1,9.7c0,0.2,0.1,0.4,0.1,0.6c0,7.5,0,15,0.3,22.4
					c0.1,1.7-1.2,2.5-2.5,2.5c-1.3,0-2.6-0.8-2.7-2.5c-0.2-5.9-0.3-11.7-0.3-17.6c-0.1,0-0.2,0-0.4,0c-0.1,0-0.3,0-0.4,0
					c0,5.9-0.1,11.7-0.3,17.6c-0.1,1.7-1.4,2.5-2.7,2.5c-1.3,0-2.5-0.8-2.5-2.5c0.3-7.5,0.3-14.9,0.3-22.4c0-0.1,0-0.1,0-0.1
					c0-0.1,0-0.2,0-0.3c0-3.1,0-6.3,0-9.4c-1.3,2.6-1.4,6.2-1.1,8.6c0.2,1.4-0.9,2.2-2,2.2c-1.1,0-2.3-0.7-2.5-2.2
					c-0.7-6.6,1.7-15.3,9.2-16.2C276.2,251.1,276.8,251,277.4,251 M277.4,250c-0.7,0-1.3,0.1-2,0.2c-3.7,0.5-6.6,2.7-8.4,6.5
					c-1.4,3.1-2,7-1.6,10.8c0.2,2,1.9,3.1,3.5,3.1c0.8,0,1.6-0.3,2.2-0.8c0,6.3,0,14-0.3,21.3c0,1,0.3,1.8,0.9,2.5
					c0.6,0.7,1.6,1,2.6,1c1.4,0,2.8-0.7,3.4-2.1c0.6,1.4,2,2.1,3.4,2.1c1,0,1.9-0.4,2.6-1c0.6-0.6,0.9-1.5,0.9-2.5
					c-0.3-6.9-0.3-13.5-0.3-21.4c0.6,0.6,1.4,0.9,2.3,0.9c1.6,0,3.3-1,3.5-3.1c0.4-4.1-0.3-9.8-3.5-13.7c-1.8-2.2-4.2-3.4-7.1-3.7
					C278.6,250.1,278,250,277.4,250L277.4,250z"/>
			</g>
		</g>
	</g>
	<g>
		<g>
			<g>
				<path class="st30" d="M1296.5,564.5c-2.8,0-5-2.2-5-5s2.2-5,5-5c2.8,0,5,2.2,5,5S1299.2,564.5,1296.5,564.5z"/>
				<path class="st31" d="M1296.5,555c2.5,0,4.5,2,4.5,4.5c0,2.5-2,4.5-4.5,4.5s-4.5-2-4.5-4.5C1292,557,1294,555,1296.5,555
					 M1296.5,554c-3,0-5.5,2.5-5.5,5.5s2.5,5.5,5.5,5.5s5.5-2.5,5.5-5.5S1299.5,554,1296.5,554L1296.5,554z"/>
			</g>
			<g>
				<path class="st30" d="M1299.9,609c-1.5,0-3.1-1-3.2-3c-0.1-1.9-0.1-3.8-0.2-5.7c0,1.9-0.1,3.8-0.2,5.7c-0.1,1.9-1.7,3-3.2,3
					c-0.9,0-1.7-0.3-2.2-0.9c-0.5-0.5-0.8-1.3-0.7-2.1c0.3-7.8,0.3-15.9,0.3-22.4l0-0.2l0-0.1c0-0.1,0-0.2,0-0.2v-6.1
					c-0.3,1.8-0.3,3.7-0.1,5.2c0.1,0.8-0.1,1.4-0.6,1.9c-0.5,0.5-1.2,0.8-2,0.8c-1.3,0-2.8-0.9-3-2.6c-1.2-11.3,5.1-16.2,9.7-16.7
					c0.6-0.1,1.2-0.2,1.9-0.2c0.6,0,1.2,0.1,1.7,0.2c2.7,0.2,5,1.4,6.8,3.5c3.1,3.7,3.8,9.3,3.3,13.3c-0.2,1.7-1.6,2.6-3,2.6l0,0
					c-0.8,0-1.5-0.3-2-0.8c-0.4-0.5-0.6-1.1-0.6-1.9c0.2-1.9,0.2-4.4-0.4-6.5c0,1,0,2.1,0,3.1c0,1.3,0,2.7,0,4
					c0.1,0.2,0.1,0.5,0.1,0.7c0,6.9,0,14.7,0.3,22.4c0,0.8-0.2,1.6-0.7,2.1C1301.6,608.7,1300.7,609,1299.9,609z"/>
				<path class="st31" d="M1296.4,566c0.6,0,1.1,0.1,1.6,0.2c7.9,0.6,10.4,9.5,9.7,16.2c-0.1,1.4-1.4,2.2-2.5,2.2
					c-1.1,0-2.2-0.7-2-2.2c0.3-2.6,0.1-6.5-1.4-9.1c0,3.2,0.1,6.5,0.1,9.7c0,0.2,0.1,0.4,0.1,0.6c0,7.5,0,15,0.3,22.4
					c0.1,1.7-1.2,2.5-2.5,2.5c-1.3,0-2.6-0.8-2.7-2.5c-0.2-5.9-0.3-11.7-0.3-17.6c-0.1,0-0.2,0-0.4,0c-0.1,0-0.3,0-0.4,0
					c0,5.9-0.1,11.7-0.3,17.6c-0.1,1.7-1.4,2.5-2.7,2.5c-1.3,0-2.5-0.8-2.5-2.5c0.3-7.5,0.3-14.9,0.3-22.4c0-0.1,0-0.1,0-0.1
					c0-0.1,0-0.2,0-0.3c0-3.1,0-6.3,0-9.4c-1.3,2.6-1.4,6.2-1.1,8.6c0.2,1.4-0.9,2.2-2,2.2c-1.1,0-2.3-0.7-2.5-2.2
					c-0.7-6.6,1.7-15.3,9.2-16.2C1295.2,566.1,1295.8,566,1296.4,566 M1296.4,565c-0.7,0-1.3,0.1-2,0.2c-3.7,0.5-6.6,2.7-8.4,6.5
					c-1.4,3.1-2,7-1.6,10.8c0.2,2,1.9,3.1,3.5,3.1c0.8,0,1.6-0.3,2.2-0.8c0,6.3,0,14-0.3,21.3c0,1,0.3,1.8,0.9,2.5
					c0.6,0.7,1.6,1,2.6,1c1.4,0,2.8-0.7,3.4-2.1c0.6,1.4,2,2.1,3.4,2.1c1,0,1.9-0.4,2.6-1c0.6-0.6,0.9-1.5,0.9-2.5
					c-0.3-6.9-0.3-13.5-0.3-21.4c0.6,0.6,1.4,0.9,2.3,0.9c1.6,0,3.3-1,3.5-3.1c0.4-4.1-0.3-9.8-3.5-13.7c-1.8-2.2-4.2-3.4-7.1-3.7
					C1297.6,565.1,1297,565,1296.4,565L1296.4,565z"/>
			</g>
		</g>
	</g>
	<g>
		<g>
			<g>
				<path class="st30" d="M1246.5,442.5c-2.8,0-5-2.2-5-5s2.2-5,5-5c2.8,0,5,2.2,5,5S1249.2,442.5,1246.5,442.5z"/>
				<path class="st31" d="M1246.5,433c2.5,0,4.5,2,4.5,4.5c0,2.5-2,4.5-4.5,4.5s-4.5-2-4.5-4.5C1242,435,1244,433,1246.5,433
					 M1246.5,432c-3,0-5.5,2.5-5.5,5.5s2.5,5.5,5.5,5.5s5.5-2.5,5.5-5.5S1249.5,432,1246.5,432L1246.5,432z"/>
			</g>
			<g>
				<path class="st30" d="M1249.9,487c-1.5,0-3.1-1-3.2-3c-0.1-1.9-0.1-3.8-0.2-5.7c0,1.9-0.1,3.8-0.2,5.7c-0.1,1.9-1.7,3-3.2,3
					c-0.9,0-1.7-0.3-2.2-0.9c-0.5-0.5-0.8-1.3-0.7-2.1c0.3-7.8,0.3-15.9,0.3-22.4l0-0.2l0-0.1c0-0.1,0-0.2,0-0.2v-6.1
					c-0.3,1.8-0.3,3.7-0.1,5.2c0.1,0.8-0.1,1.4-0.6,1.9c-0.5,0.5-1.2,0.8-2,0.8c-1.3,0-2.8-0.9-3-2.6c-1.2-11.3,5.1-16.2,9.7-16.7
					c0.6-0.1,1.2-0.2,1.9-0.2c0.6,0,1.2,0.1,1.7,0.2c2.7,0.2,5,1.4,6.8,3.5c3.1,3.7,3.8,9.3,3.3,13.3c-0.2,1.7-1.6,2.6-3,2.6l0,0
					c-0.8,0-1.5-0.3-2-0.8c-0.4-0.5-0.6-1.1-0.6-1.9c0.2-1.9,0.2-4.4-0.4-6.5c0,1,0,2.1,0,3.1c0,1.3,0,2.7,0,4
					c0.1,0.2,0.1,0.5,0.1,0.7c0,6.9,0,14.7,0.3,22.4c0,0.8-0.2,1.6-0.7,2.1C1251.6,486.7,1250.7,487,1249.9,487z"/>
				<path class="st31" d="M1246.4,444c0.6,0,1.1,0.1,1.6,0.2c7.9,0.6,10.4,9.5,9.7,16.2c-0.1,1.4-1.4,2.2-2.5,2.2
					c-1.1,0-2.2-0.7-2-2.2c0.3-2.6,0.1-6.5-1.4-9.1c0,3.2,0.1,6.5,0.1,9.7c0,0.2,0.1,0.4,0.1,0.6c0,7.5,0,15,0.3,22.4
					c0.1,1.7-1.2,2.5-2.5,2.5c-1.3,0-2.6-0.8-2.7-2.5c-0.2-5.9-0.3-11.7-0.3-17.6c-0.1,0-0.2,0-0.4,0c-0.1,0-0.3,0-0.4,0
					c0,5.9-0.1,11.7-0.3,17.6c-0.1,1.7-1.4,2.5-2.7,2.5c-1.3,0-2.5-0.8-2.5-2.5c0.3-7.5,0.3-14.9,0.3-22.4c0-0.1,0-0.1,0-0.1
					c0-0.1,0-0.2,0-0.3c0-3.1,0-6.3,0-9.4c-1.3,2.6-1.4,6.2-1.1,8.6c0.2,1.4-0.9,2.2-2,2.2c-1.1,0-2.3-0.7-2.5-2.2
					c-0.7-6.6,1.7-15.3,9.2-16.2C1245.2,444.1,1245.8,444,1246.4,444 M1246.4,443c-0.7,0-1.3,0.1-2,0.2c-3.7,0.5-6.6,2.7-8.4,6.5
					c-1.4,3.1-2,7-1.6,10.8c0.2,2,1.9,3.1,3.5,3.1c0.8,0,1.6-0.3,2.2-0.8c0,6.3,0,14-0.3,21.3c0,1,0.3,1.8,0.9,2.5
					c0.6,0.7,1.6,1,2.6,1c1.4,0,2.8-0.7,3.4-2.1c0.6,1.4,2,2.1,3.4,2.1c1,0,1.9-0.4,2.6-1c0.6-0.6,0.9-1.5,0.9-2.5
					c-0.3-6.9-0.3-13.5-0.3-21.4c0.6,0.6,1.4,0.9,2.3,0.9c1.6,0,3.3-1,3.5-3.1c0.4-4.1-0.3-9.8-3.5-13.7c-1.8-2.2-4.2-3.4-7.1-3.7
					C1247.6,443.1,1247,443,1246.4,443L1246.4,443z"/>
			</g>
		</g>
	</g>
	<g>
		<g>
			<g>
				<path class="st30" d="M1330.5,437.5c-1.3,0-2.6-0.5-3.5-1.5c-0.9-0.9-1.5-2.2-1.5-3.5c0-2.8,2.3-5,5-5c2.8,0,5,2.3,5,5
					C1335.5,435.3,1333.3,437.5,1330.5,437.5L1330.5,437.5z"/>
				<path class="st31" d="M1330.5,428C1330.5,428,1330.5,428,1330.5,428c2.5,0,4.5,2,4.5,4.5c0,2.5-2,4.5-4.5,4.5c0,0,0,0,0,0
					c-2.5,0-4.5-2-4.5-4.5C1326,430,1328.1,428,1330.5,428 M1330.5,427c-3,0-5.5,2.5-5.5,5.5c0,1.5,0.6,2.9,1.6,3.9s2.4,1.6,3.9,1.6
					c3,0,5.5-2.5,5.5-5.5c0-1.5-0.6-2.9-1.6-3.9C1333.4,427.6,1332,427,1330.5,427L1330.5,427L1330.5,427L1330.5,427z"/>
			</g>
			<g>
				<path class="st30" d="M1333.8,482.1c-1.5,0-3.1-1-3.2-3c-0.1-1.9-0.1-3.8-0.2-5.7c0,1.9-0.1,3.8-0.2,5.7c-0.1,1.9-1.7,3-3.2,3
					c-0.9,0-1.7-0.3-2.2-0.9c-0.5-0.5-0.8-1.3-0.7-2.1c0.3-7.8,0.4-15.9,0.4-22.4l0-0.2c0,0,0-0.2,0-0.3l0-6.1
					c-0.3,1.8-0.3,3.7-0.2,5.2c0.1,0.8-0.1,1.4-0.6,1.9c-0.5,0.5-1.2,0.8-2,0.8c-1.4,0-2.8-0.9-3-2.6c-1.1-11.3,5.2-16.2,9.7-16.7
					c0.5-0.1,1.2-0.2,1.8-0.2c0.6,0,1.2,0.1,1.8,0.2c2.7,0.2,5,1.4,6.8,3.5c3.1,3.7,3.7,9.3,3.3,13.3c-0.2,1.7-1.6,2.6-3,2.6l0,0
					c-0.8,0-1.5-0.3-2-0.8c-0.4-0.5-0.6-1.2-0.6-1.9c0.2-1.9,0.2-4.4-0.4-6.5c0,1,0,2.1,0,3.1c0,1.3,0,2.7,0,4
					c0.1,0.2,0.1,0.5,0.1,0.7c0,6.9,0,14.7,0.3,22.4c0,0.8-0.2,1.6-0.7,2.1C1335.5,481.7,1334.7,482.1,1333.8,482.1z"/>
				<path class="st31" d="M1330.4,439c0.6,0,1.1,0.1,1.7,0.2c7.9,0.6,10.4,9.5,9.7,16.2c-0.2,1.4-1.4,2.1-2.5,2.1
					c-1.1,0-2.2-0.7-2-2.2c0.3-2.6,0.1-6.5-1.4-9.1c0,3.2,0.1,6.5,0.1,9.7c0,0.2,0.1,0.4,0.1,0.6c0,7.5,0,15,0.3,22.4
					c0.1,1.7-1.2,2.5-2.5,2.5c-1.3,0-2.6-0.8-2.7-2.5c-0.2-5.9-0.3-11.7-0.3-17.6c-0.1,0-0.2,0-0.3,0c-0.1,0-0.3,0-0.4,0
					c0,5.9-0.1,11.7-0.4,17.6c-0.1,1.7-1.4,2.5-2.7,2.5c-1.3,0-2.5-0.8-2.5-2.5c0.3-7.5,0.4-14.9,0.4-22.4c0-0.1,0-0.1,0-0.1
					c0-0.1,0-0.2,0-0.3c0-3.1,0-6.3,0-9.4c-1.3,2.6-1.4,6.2-1.2,8.6c0.1,1.4-0.9,2.1-2,2.1c-1.1,0-2.3-0.7-2.5-2.2
					c-0.7-6.6,1.8-15.3,9.3-16.1C1329.2,439.1,1329.8,439,1330.4,439 M1330.4,438c-0.7,0-1.3,0.1-2,0.2c-3.7,0.4-6.6,2.7-8.4,6.5
					c-1.4,3.1-2.1,7-1.7,10.8c0.2,2,1.9,3.1,3.5,3.1c0.8,0,1.6-0.3,2.1-0.8c0,6.3-0.1,14-0.4,21.3c0,1,0.3,1.8,0.9,2.5
					c0.6,0.7,1.6,1,2.6,1c1.3,0,2.7-0.7,3.4-2c0.6,1.4,2,2.1,3.4,2.1c1,0,1.9-0.4,2.6-1c0.6-0.6,0.9-1.5,0.9-2.5
					c-0.3-6.9-0.3-13.5-0.3-21.4c0.6,0.6,1.4,0.9,2.3,0.9c1.6,0,3.3-1,3.5-3c0.4-4.1-0.2-9.8-3.4-13.7c-1.8-2.2-4.2-3.4-7.1-3.7
					C1331.6,438.1,1331,438,1330.4,438L1330.4,438z"/>
			</g>
		</g>
	</g>
	<g>
		<g>
			<g>
				<path class="st30" d="M1314.5,296.5c-1.3,0-2.6-0.5-3.5-1.5c-0.9-0.9-1.5-2.2-1.5-3.5c0-2.8,2.3-5,5-5c2.8,0,5,2.3,5,5
					C1319.5,294.3,1317.3,296.5,1314.5,296.5L1314.5,296.5z"/>
				<path class="st31" d="M1314.5,287C1314.5,287,1314.5,287,1314.5,287c2.5,0,4.5,2,4.5,4.5c0,2.5-2,4.5-4.5,4.5c0,0,0,0,0,0
					c-2.5,0-4.5-2-4.5-4.5C1310,289,1312.1,287,1314.5,287 M1314.5,286c-3,0-5.5,2.5-5.5,5.5c0,1.5,0.6,2.9,1.6,3.9s2.4,1.6,3.9,1.6
					c3,0,5.5-2.5,5.5-5.5c0-1.5-0.6-2.9-1.6-3.9C1317.4,286.6,1316,286,1314.5,286L1314.5,286L1314.5,286L1314.5,286z"/>
			</g>
			<g>
				<path class="st30" d="M1317.8,341.1c-1.5,0-3.1-1-3.2-3c-0.1-1.9-0.1-3.8-0.2-5.7c0,1.9-0.1,3.8-0.2,5.7c-0.1,1.9-1.7,3-3.2,3
					c-0.9,0-1.7-0.3-2.2-0.9c-0.5-0.5-0.8-1.3-0.7-2.1c0.3-7.8,0.4-15.9,0.4-22.4l0-0.2c0,0,0-0.2,0-0.3l0-6.1
					c-0.3,1.8-0.3,3.7-0.2,5.2c0.1,0.8-0.1,1.4-0.6,1.9c-0.5,0.5-1.2,0.8-2,0.8c-1.4,0-2.8-0.9-3-2.6c-1.1-11.3,5.2-16.2,9.7-16.7
					c0.5-0.1,1.2-0.2,1.8-0.2c0.6,0,1.2,0.1,1.8,0.2c2.7,0.2,5,1.4,6.8,3.5c3.1,3.7,3.7,9.3,3.3,13.3c-0.2,1.7-1.6,2.6-3,2.6l0,0
					c-0.8,0-1.5-0.3-2-0.8c-0.4-0.5-0.6-1.2-0.6-1.9c0.2-1.9,0.2-4.4-0.4-6.5c0,1,0,2.1,0,3.1c0,1.3,0,2.7,0,4
					c0.1,0.2,0.1,0.5,0.1,0.7c0,6.9,0,14.7,0.3,22.4c0,0.8-0.2,1.6-0.7,2.1C1319.5,340.7,1318.7,341.1,1317.8,341.1z"/>
				<path class="st31" d="M1314.4,298c0.6,0,1.1,0.1,1.7,0.2c7.9,0.6,10.4,9.5,9.7,16.2c-0.2,1.4-1.4,2.1-2.5,2.1
					c-1.1,0-2.2-0.7-2-2.2c0.3-2.6,0.1-6.5-1.4-9.1c0,3.2,0.1,6.5,0.1,9.7c0,0.2,0.1,0.4,0.1,0.6c0,7.5,0,15,0.3,22.4
					c0.1,1.7-1.2,2.5-2.5,2.5c-1.3,0-2.6-0.8-2.7-2.5c-0.2-5.9-0.3-11.7-0.3-17.6c-0.1,0-0.2,0-0.3,0c-0.1,0-0.3,0-0.4,0
					c0,5.9-0.1,11.7-0.4,17.6c-0.1,1.7-1.4,2.5-2.7,2.5c-1.3,0-2.5-0.8-2.5-2.5c0.3-7.5,0.4-14.9,0.4-22.4c0-0.1,0-0.1,0-0.1
					c0-0.1,0-0.2,0-0.3c0-3.1,0-6.3,0-9.4c-1.3,2.6-1.4,6.2-1.2,8.6c0.1,1.4-0.9,2.1-2,2.1c-1.1,0-2.3-0.7-2.5-2.2
					c-0.7-6.6,1.8-15.3,9.3-16.1C1313.2,298.1,1313.8,298,1314.4,298 M1314.4,297c-0.7,0-1.3,0.1-2,0.2c-3.7,0.4-6.6,2.7-8.4,6.5
					c-1.4,3.1-2.1,7-1.7,10.8c0.2,2,1.9,3.1,3.5,3.1c0.8,0,1.6-0.3,2.1-0.8c0,6.3-0.1,14-0.4,21.3c0,1,0.3,1.8,0.9,2.5
					c0.6,0.7,1.6,1,2.6,1c1.3,0,2.7-0.7,3.4-2c0.6,1.4,2,2.1,3.4,2.1c1,0,1.9-0.4,2.6-1c0.6-0.6,0.9-1.5,0.9-2.5
					c-0.3-6.9-0.3-13.5-0.3-21.4c0.6,0.6,1.4,0.9,2.3,0.9c1.6,0,3.3-1,3.5-3c0.4-4.1-0.2-9.8-3.4-13.7c-1.8-2.2-4.2-3.4-7.1-3.7
					C1315.6,297.1,1315,297,1314.4,297L1314.4,297z"/>
			</g>
		</g>
	</g>
	<g>
		<g>
			<g>
				<path class="st30" d="M1149.5,485.5c-2.8,0-5-2.2-5-5s2.2-5,5-5c2.8,0,5,2.2,5,5S1152.2,485.5,1149.5,485.5z"/>
				<path class="st31" d="M1149.5,476c2.5,0,4.5,2,4.5,4.5c0,2.5-2,4.5-4.5,4.5s-4.5-2-4.5-4.5C1145,478,1147,476,1149.5,476
					 M1149.5,475c-3,0-5.5,2.5-5.5,5.5s2.5,5.5,5.5,5.5s5.5-2.5,5.5-5.5S1152.5,475,1149.5,475L1149.5,475z"/>
			</g>
			<g>
				<path class="st30" d="M1152.9,530c-1.5,0-3.1-1-3.2-3c-0.1-1.9-0.1-3.8-0.2-5.7c0,1.9-0.1,3.8-0.2,5.7c-0.1,1.9-1.7,3-3.2,3
					c-0.9,0-1.7-0.3-2.2-0.9c-0.5-0.5-0.8-1.3-0.7-2.1c0.3-7.8,0.3-15.9,0.3-22.4l0-0.2l0-0.1c0-0.1,0-0.2,0-0.2v-6.1
					c-0.3,1.8-0.3,3.7-0.1,5.2c0.1,0.8-0.1,1.4-0.6,1.9c-0.5,0.5-1.2,0.8-2,0.8c-1.3,0-2.8-0.9-3-2.6c-1.2-11.3,5.1-16.2,9.7-16.7
					c0.6-0.1,1.2-0.2,1.9-0.2c0.6,0,1.2,0.1,1.7,0.2c2.7,0.2,5,1.4,6.8,3.5c3.1,3.7,3.8,9.3,3.3,13.3c-0.2,1.7-1.6,2.6-3,2.6l0,0
					c-0.8,0-1.5-0.3-2-0.8c-0.4-0.5-0.6-1.1-0.6-1.9c0.2-1.9,0.2-4.4-0.4-6.5c0,1,0,2.1,0,3.1c0,1.3,0,2.7,0,4
					c0.1,0.2,0.1,0.5,0.1,0.7c0,6.9,0,14.7,0.3,22.4c0,0.8-0.2,1.6-0.7,2.1C1154.6,529.7,1153.7,530,1152.9,530z"/>
				<path class="st31" d="M1149.4,487c0.6,0,1.1,0.1,1.6,0.2c7.9,0.6,10.4,9.5,9.7,16.2c-0.1,1.4-1.4,2.2-2.5,2.2
					c-1.1,0-2.2-0.7-2-2.2c0.3-2.6,0.1-6.5-1.4-9.1c0,3.2,0.1,6.5,0.1,9.7c0,0.2,0.1,0.4,0.1,0.6c0,7.5,0,15,0.3,22.4
					c0.1,1.7-1.2,2.5-2.5,2.5c-1.3,0-2.6-0.8-2.7-2.5c-0.2-5.9-0.3-11.7-0.3-17.6c-0.1,0-0.2,0-0.4,0c-0.1,0-0.3,0-0.4,0
					c0,5.9-0.1,11.7-0.3,17.6c-0.1,1.7-1.4,2.5-2.7,2.5c-1.3,0-2.5-0.8-2.5-2.5c0.3-7.5,0.3-14.9,0.3-22.4c0-0.1,0-0.1,0-0.1
					c0-0.1,0-0.2,0-0.3c0-3.1,0-6.3,0-9.4c-1.3,2.6-1.4,6.2-1.1,8.6c0.2,1.4-0.9,2.2-2,2.2c-1.1,0-2.3-0.7-2.5-2.2
					c-0.7-6.6,1.7-15.3,9.2-16.2C1148.2,487.1,1148.8,487,1149.4,487 M1149.4,486c-0.7,0-1.3,0.1-2,0.2c-3.7,0.5-6.6,2.7-8.4,6.5
					c-1.4,3.1-2,7-1.6,10.8c0.2,2,1.9,3.1,3.5,3.1c0.8,0,1.6-0.3,2.2-0.8c0,6.3,0,14-0.3,21.3c0,1,0.3,1.8,0.9,2.5
					c0.6,0.7,1.6,1,2.6,1c1.4,0,2.8-0.7,3.4-2.1c0.6,1.4,2,2.1,3.4,2.1c1,0,1.9-0.4,2.6-1c0.6-0.6,0.9-1.5,0.9-2.5
					c-0.3-6.9-0.3-13.5-0.3-21.4c0.6,0.6,1.4,0.9,2.3,0.9c1.6,0,3.3-1,3.5-3.1c0.4-4.1-0.3-9.8-3.5-13.7c-1.8-2.2-4.2-3.4-7.1-3.7
					C1150.6,486.1,1150,486,1149.4,486L1149.4,486z"/>
			</g>
		</g>
	</g>
	<g>
		<g>
			<g>
				<path class="st30" d="M998.5,414.5c-2.8,0-5-2.2-5-5s2.2-5,5-5c2.8,0,5,2.2,5,5S1001.2,414.5,998.5,414.5z"/>
				<path class="st31" d="M998.5,405c2.5,0,4.5,2,4.5,4.5c0,2.5-2,4.5-4.5,4.5s-4.5-2-4.5-4.5C994,407,996,405,998.5,405 M998.5,404
					c-3,0-5.5,2.5-5.5,5.5s2.5,5.5,5.5,5.5s5.5-2.5,5.5-5.5S1001.5,404,998.5,404L998.5,404z"/>
			</g>
			<g>
				<path class="st30" d="M1001.9,459c-1.5,0-3.1-1-3.2-3c-0.1-1.9-0.1-3.8-0.2-5.7c0,1.9-0.1,3.8-0.2,5.7c-0.1,1.9-1.7,3-3.2,3
					c-0.9,0-1.7-0.3-2.2-0.9c-0.5-0.5-0.8-1.3-0.7-2.1c0.3-7.8,0.3-15.9,0.3-22.4l0-0.2l0-0.1c0-0.1,0-0.2,0-0.2v-6.1
					c-0.3,1.8-0.3,3.7-0.1,5.2c0.1,0.8-0.1,1.4-0.6,1.9c-0.5,0.5-1.2,0.8-2,0.8c-1.3,0-2.8-0.9-3-2.6c-1.2-11.3,5.1-16.2,9.7-16.7
					c0.6-0.1,1.2-0.2,1.9-0.2c0.6,0,1.2,0.1,1.7,0.2c2.7,0.2,5,1.4,6.8,3.5c3.1,3.7,3.8,9.3,3.3,13.3c-0.2,1.7-1.6,2.6-3,2.6l0,0
					c-0.8,0-1.5-0.3-2-0.8c-0.4-0.5-0.6-1.1-0.6-1.9c0.2-1.9,0.2-4.4-0.4-6.5c0,1,0,2.1,0,3.1c0,1.3,0,2.7,0,4
					c0.1,0.2,0.1,0.5,0.1,0.7c0,6.9,0,14.7,0.3,22.4c0,0.8-0.2,1.6-0.7,2.1C1003.6,458.7,1002.7,459,1001.9,459z"/>
				<path class="st31" d="M998.4,416c0.6,0,1.1,0.1,1.6,0.2c7.9,0.6,10.4,9.5,9.7,16.2c-0.1,1.4-1.4,2.2-2.5,2.2
					c-1.1,0-2.2-0.7-2-2.2c0.3-2.6,0.1-6.5-1.4-9.1c0,3.2,0.1,6.5,0.1,9.7c0,0.2,0.1,0.4,0.1,0.6c0,7.5,0,15,0.3,22.4
					c0.1,1.7-1.2,2.5-2.5,2.5c-1.3,0-2.6-0.8-2.7-2.5c-0.2-5.9-0.3-11.7-0.3-17.6c-0.1,0-0.2,0-0.4,0c-0.1,0-0.3,0-0.4,0
					c0,5.9-0.1,11.7-0.3,17.6c-0.1,1.7-1.4,2.5-2.7,2.5c-1.3,0-2.5-0.8-2.5-2.5c0.3-7.5,0.3-14.9,0.3-22.4c0-0.1,0-0.1,0-0.1
					c0-0.1,0-0.2,0-0.3c0-3.1,0-6.3,0-9.4c-1.3,2.6-1.4,6.2-1.1,8.6c0.2,1.4-0.9,2.2-2,2.2c-1.1,0-2.3-0.7-2.5-2.2
					c-0.7-6.6,1.7-15.3,9.2-16.2C997.2,416.1,997.8,416,998.4,416 M998.4,415c-0.7,0-1.3,0.1-2,0.2c-3.7,0.5-6.6,2.7-8.4,6.5
					c-1.4,3.1-2,7-1.6,10.8c0.2,2,1.9,3.1,3.5,3.1c0.8,0,1.6-0.3,2.2-0.8c0,6.3,0,14-0.3,21.3c0,1,0.3,1.8,0.9,2.5
					c0.6,0.7,1.6,1,2.6,1c1.4,0,2.8-0.7,3.4-2.1c0.6,1.4,2,2.1,3.4,2.1c1,0,1.9-0.4,2.6-1c0.6-0.6,0.9-1.5,0.9-2.5
					c-0.3-6.9-0.3-13.5-0.3-21.4c0.6,0.6,1.4,0.9,2.3,0.9c1.6,0,3.3-1,3.5-3.1c0.4-4.1-0.3-9.8-3.5-13.7c-1.8-2.2-4.2-3.4-7.1-3.7
					C999.6,415.1,999,415,998.4,415L998.4,415z"/>
			</g>
		</g>
	</g>
	<g>
		<g>
			<g>
				<path class="st30" d="M400.5,458.5c-2.8,0-5-2.2-5-5s2.2-5,5-5c2.8,0,5,2.2,5,5S403.2,458.5,400.5,458.5z"/>
				<path class="st31" d="M400.5,449c2.5,0,4.5,2,4.5,4.5c0,2.5-2,4.5-4.5,4.5s-4.5-2-4.5-4.5C396,451,398,449,400.5,449 M400.5,448
					c-3,0-5.5,2.5-5.5,5.5s2.5,5.5,5.5,5.5s5.5-2.5,5.5-5.5S403.5,448,400.5,448L400.5,448z"/>
			</g>
			<g>
				<path class="st30" d="M403.9,503c-1.5,0-3.1-1-3.2-3c-0.1-1.9-0.1-3.8-0.2-5.7c0,1.9-0.1,3.8-0.2,5.7c-0.1,1.9-1.7,3-3.2,3
					c-0.9,0-1.7-0.3-2.2-0.9c-0.5-0.5-0.8-1.3-0.7-2.1c0.3-7.8,0.3-15.9,0.3-22.4l0-0.2l0-0.1c0-0.1,0-0.2,0-0.2v-6.1
					c-0.3,1.8-0.3,3.7-0.1,5.2c0.1,0.8-0.1,1.4-0.6,1.9c-0.5,0.5-1.2,0.8-2,0.8c-1.3,0-2.8-0.9-3-2.6c-1.2-11.3,5.1-16.2,9.7-16.7
					c0.6-0.1,1.2-0.2,1.9-0.2c0.6,0,1.2,0.1,1.7,0.2c2.7,0.2,5,1.4,6.8,3.5c3.1,3.7,3.8,9.3,3.3,13.3c-0.2,1.7-1.6,2.6-3,2.6l0,0
					c-0.8,0-1.5-0.3-2-0.8c-0.4-0.5-0.6-1.1-0.6-1.9c0.2-1.9,0.2-4.4-0.4-6.5c0,1,0,2.1,0,3.1c0,1.3,0,2.7,0,4
					c0.1,0.2,0.1,0.5,0.1,0.7c0,6.9,0,14.7,0.3,22.4c0,0.8-0.2,1.6-0.7,2.1C405.6,502.7,404.7,503,403.9,503z"/>
				<path class="st31" d="M400.4,460c0.6,0,1.1,0.1,1.6,0.2c7.9,0.6,10.4,9.5,9.7,16.2c-0.1,1.4-1.4,2.2-2.5,2.2
					c-1.1,0-2.2-0.7-2-2.2c0.3-2.6,0.1-6.5-1.4-9.1c0,3.2,0.1,6.5,0.1,9.7c0,0.2,0.1,0.4,0.1,0.6c0,7.5,0,15,0.3,22.4
					c0.1,1.7-1.2,2.5-2.5,2.5c-1.3,0-2.6-0.8-2.7-2.5c-0.2-5.9-0.3-11.7-0.3-17.6c-0.1,0-0.2,0-0.4,0c-0.1,0-0.3,0-0.4,0
					c0,5.9-0.1,11.7-0.3,17.6c-0.1,1.7-1.4,2.5-2.7,2.5c-1.3,0-2.5-0.8-2.5-2.5c0.3-7.5,0.3-14.9,0.3-22.4c0-0.1,0-0.1,0-0.1
					c0-0.1,0-0.2,0-0.3c0-3.1,0-6.3,0-9.4c-1.3,2.6-1.4,6.2-1.1,8.6c0.2,1.4-0.9,2.2-2,2.2c-1.1,0-2.3-0.7-2.5-2.2
					c-0.7-6.6,1.7-15.3,9.2-16.2C399.2,460.1,399.8,460,400.4,460 M400.4,459c-0.7,0-1.3,0.1-2,0.2c-3.7,0.5-6.6,2.7-8.4,6.5
					c-1.4,3.1-2,7-1.6,10.8c0.2,2,1.9,3.1,3.5,3.1c0.8,0,1.6-0.3,2.2-0.8c0,6.3,0,14-0.3,21.3c0,1,0.3,1.8,0.9,2.5
					c0.6,0.7,1.6,1,2.6,1c1.4,0,2.8-0.7,3.4-2.1c0.6,1.4,2,2.1,3.4,2.1c1,0,1.9-0.4,2.6-1c0.6-0.6,0.9-1.5,0.9-2.5
					c-0.3-6.9-0.3-13.5-0.3-21.4c0.6,0.6,1.4,0.9,2.3,0.9c1.6,0,3.3-1,3.5-3.1c0.4-4.1-0.3-9.8-3.5-13.7c-1.8-2.2-4.2-3.4-7.1-3.7
					C401.6,459.1,401,459,400.4,459L400.4,459z"/>
			</g>
		</g>
	</g>
	<g>
		<g>
			<g>
				<path class="st30" d="M230.5,500.5c-2.8,0-5-2.2-5-5c0-2.8,2.2-5,5-5c2.8,0,5,2.2,5,5C235.5,498.3,233.2,500.5,230.5,500.5z"/>
				<path class="st31" d="M230.5,491c2.5,0,4.5,2,4.5,4.5c0,2.5-2,4.5-4.5,4.5s-4.5-2-4.5-4.5C226,493,228,491,230.5,491 M230.5,490
					c-3,0-5.5,2.5-5.5,5.5c0,3,2.5,5.5,5.5,5.5s5.5-2.5,5.5-5.5C236,492.5,233.5,490,230.5,490L230.5,490z"/>
			</g>
			<g>
				<path class="st30" d="M233.9,545c-1.5,0-3.1-1-3.2-3c-0.1-1.9-0.1-3.8-0.2-5.7c0,1.9-0.1,3.8-0.2,5.7c-0.1,1.9-1.7,3-3.2,3
					c-0.9,0-1.7-0.3-2.2-0.9c-0.5-0.5-0.8-1.3-0.7-2.1c0.3-7.8,0.3-15.9,0.3-22.4l0-0.2l0-0.1c0-0.1,0-0.2,0-0.2v-6.1
					c-0.3,1.8-0.3,3.7-0.1,5.2c0.1,0.8-0.1,1.4-0.6,1.9c-0.5,0.5-1.2,0.8-2,0.8c-1.3,0-2.8-0.9-3-2.6c-1.2-11.3,5.1-16.2,9.7-16.7
					c0.6-0.1,1.2-0.2,1.9-0.2c0.6,0,1.2,0.1,1.7,0.2c2.7,0.2,5,1.4,6.8,3.5c3.1,3.7,3.8,9.3,3.3,13.3c-0.2,1.7-1.6,2.6-3,2.6l0,0
					c-0.8,0-1.5-0.3-2-0.8c-0.4-0.5-0.6-1.1-0.6-1.9c0.2-1.9,0.2-4.4-0.4-6.5c0,1,0,2.1,0,3.1c0,1.3,0,2.7,0,4
					c0.1,0.2,0.1,0.5,0.1,0.7c0,6.9,0,14.7,0.3,22.4c0,0.8-0.2,1.6-0.7,2.1C235.6,544.7,234.7,545,233.9,545z"/>
				<path class="st31" d="M230.4,502c0.6,0,1.1,0.1,1.6,0.2c7.9,0.6,10.4,9.5,9.7,16.2c-0.1,1.4-1.4,2.2-2.5,2.2
					c-1.1,0-2.2-0.7-2-2.2c0.3-2.6,0.1-6.5-1.4-9.1c0,3.2,0.1,6.5,0.1,9.7c0,0.2,0.1,0.4,0.1,0.6c0,7.5,0,15,0.3,22.4
					c0.1,1.7-1.2,2.5-2.5,2.5c-1.3,0-2.6-0.8-2.7-2.5c-0.2-5.9-0.3-11.7-0.3-17.6c-0.1,0-0.2,0-0.4,0c-0.1,0-0.3,0-0.4,0
					c0,5.9-0.1,11.7-0.3,17.6c-0.1,1.7-1.4,2.5-2.7,2.5c-1.3,0-2.5-0.8-2.5-2.5c0.3-7.5,0.3-14.9,0.3-22.4c0-0.1,0-0.1,0-0.1
					c0-0.1,0-0.2,0-0.3c0-3.1,0-6.3,0-9.4c-1.3,2.6-1.4,6.2-1.1,8.6c0.2,1.4-0.9,2.2-2,2.2c-1.1,0-2.3-0.7-2.5-2.2
					c-0.7-6.6,1.7-15.3,9.2-16.2C229.2,502.1,229.8,502,230.4,502 M230.4,501c-0.7,0-1.3,0.1-2,0.2c-3.7,0.5-6.6,2.7-8.4,6.5
					c-1.4,3.1-2,7-1.6,10.8c0.2,2,1.9,3.1,3.5,3.1c0.8,0,1.6-0.3,2.2-0.8c0,6.3,0,14-0.3,21.3c0,1,0.3,1.8,0.9,2.5
					c0.6,0.7,1.6,1,2.6,1c1.4,0,2.8-0.7,3.4-2.1c0.6,1.4,2,2.1,3.4,2.1c1,0,1.9-0.4,2.6-1c0.6-0.6,0.9-1.5,0.9-2.5
					c-0.3-6.9-0.3-13.5-0.3-21.4c0.6,0.6,1.4,0.9,2.3,0.9c1.6,0,3.3-1,3.5-3.1c0.4-4.1-0.3-9.8-3.5-13.7c-1.8-2.2-4.2-3.4-7.1-3.7
					C231.6,501.1,231,501,230.4,501L230.4,501z"/>
			</g>
		</g>
	</g>
	<g>
		<g>
			<g>
				<path class="st30" d="M773.5,543.5c-2.8,0-5-2.2-5-5s2.2-5,5-5c2.8,0,5,2.2,5,5S776.2,543.5,773.5,543.5z"/>
				<path class="st31" d="M773.5,534c2.5,0,4.5,2,4.5,4.5c0,2.5-2,4.5-4.5,4.5s-4.5-2-4.5-4.5C769,536,771,534,773.5,534 M773.5,533
					c-3,0-5.5,2.5-5.5,5.5s2.5,5.5,5.5,5.5s5.5-2.5,5.5-5.5S776.5,533,773.5,533L773.5,533z"/>
			</g>
			<g>
				<path class="st30" d="M776.9,588c-1.5,0-3.1-1-3.2-3c-0.1-1.9-0.1-3.8-0.2-5.7c0,1.9-0.1,3.8-0.2,5.7c-0.1,1.9-1.7,3-3.2,3
					c-0.9,0-1.7-0.3-2.2-0.9c-0.5-0.5-0.8-1.3-0.7-2.1c0.3-7.8,0.3-15.9,0.3-22.4l0-0.2l0-0.1c0-0.1,0-0.2,0-0.2v-6.1
					c-0.3,1.8-0.3,3.7-0.1,5.2c0.1,0.8-0.1,1.4-0.6,1.9c-0.5,0.5-1.2,0.8-2,0.8c-1.3,0-2.8-0.9-3-2.6c-1.2-11.3,5.1-16.2,9.7-16.7
					c0.6-0.1,1.2-0.2,1.9-0.2c0.6,0,1.2,0.1,1.7,0.2c2.7,0.2,5,1.4,6.8,3.5c3.1,3.7,3.8,9.3,3.3,13.3c-0.2,1.7-1.6,2.6-3,2.6l0,0
					c-0.8,0-1.5-0.3-2-0.8c-0.4-0.5-0.6-1.1-0.6-1.9c0.2-1.9,0.2-4.4-0.4-6.5c0,1,0,2.1,0,3.1c0,1.3,0,2.7,0,4
					c0.1,0.2,0.1,0.5,0.1,0.7c0,6.9,0,14.7,0.3,22.4c0,0.8-0.2,1.6-0.7,2.1C778.6,587.7,777.7,588,776.9,588z"/>
				<path class="st31" d="M773.4,545c0.6,0,1.1,0.1,1.6,0.2c7.9,0.6,10.4,9.5,9.7,16.2c-0.1,1.4-1.4,2.2-2.5,2.2
					c-1.1,0-2.2-0.7-2-2.2c0.3-2.6,0.1-6.5-1.4-9.1c0,3.2,0.1,6.5,0.1,9.7c0,0.2,0.1,0.4,0.1,0.6c0,7.5,0,15,0.3,22.4
					c0.1,1.7-1.2,2.5-2.5,2.5c-1.3,0-2.6-0.8-2.7-2.5c-0.2-5.9-0.3-11.7-0.3-17.6c-0.1,0-0.2,0-0.4,0c-0.1,0-0.3,0-0.4,0
					c0,5.9-0.1,11.7-0.3,17.6c-0.1,1.7-1.4,2.5-2.7,2.5c-1.3,0-2.5-0.8-2.5-2.5c0.3-7.5,0.3-14.9,0.3-22.4c0-0.1,0-0.1,0-0.1
					c0-0.1,0-0.2,0-0.3c0-3.1,0-6.3,0-9.4c-1.3,2.6-1.4,6.2-1.1,8.6c0.2,1.4-0.9,2.2-2,2.2c-1.1,0-2.3-0.7-2.5-2.2
					c-0.7-6.6,1.7-15.3,9.2-16.2C772.2,545.1,772.8,545,773.4,545 M773.4,544c-0.7,0-1.3,0.1-2,0.2c-3.7,0.5-6.6,2.7-8.4,6.5
					c-1.4,3.1-2,7-1.6,10.8c0.2,2,1.9,3.1,3.5,3.1c0.8,0,1.6-0.3,2.2-0.8c0,6.3,0,14-0.3,21.3c0,1,0.3,1.8,0.9,2.5
					c0.6,0.7,1.6,1,2.6,1c1.4,0,2.8-0.7,3.4-2.1c0.6,1.4,2,2.1,3.4,2.1c1,0,1.9-0.4,2.6-1c0.6-0.6,0.9-1.5,0.9-2.5
					c-0.3-6.9-0.3-13.5-0.3-21.4c0.6,0.6,1.4,0.9,2.3,0.9c1.6,0,3.3-1,3.5-3.1c0.4-4.1-0.3-9.8-3.5-13.7c-1.8-2.2-4.2-3.4-7.1-3.7
					C774.6,544.1,774,544,773.4,544L773.4,544z"/>
			</g>
		</g>
	</g>
	<g>
		<g>
			<g>
				<path class="st30" d="M586.5,492.5c-2.8,0-5-2.2-5-5s2.2-5,5-5c2.8,0,5,2.2,5,5S589.2,492.5,586.5,492.5z"/>
				<path class="st31" d="M586.5,483c2.5,0,4.5,2,4.5,4.5c0,2.5-2,4.5-4.5,4.5s-4.5-2-4.5-4.5C582,485,584,483,586.5,483 M586.5,482
					c-3,0-5.5,2.5-5.5,5.5s2.5,5.5,5.5,5.5s5.5-2.5,5.5-5.5S589.5,482,586.5,482L586.5,482z"/>
			</g>
			<g>
				<path class="st30" d="M589.9,537c-1.5,0-3.1-1-3.2-3c-0.1-1.9-0.1-3.8-0.2-5.7c0,1.9-0.1,3.8-0.2,5.7c-0.1,1.9-1.7,3-3.2,3
					c-0.9,0-1.7-0.3-2.2-0.9c-0.5-0.5-0.8-1.3-0.7-2.1c0.3-7.8,0.3-15.9,0.3-22.4l0-0.2l0-0.1c0-0.1,0-0.2,0-0.2v-6.1
					c-0.3,1.8-0.3,3.7-0.1,5.2c0.1,0.8-0.1,1.4-0.6,1.9c-0.5,0.5-1.2,0.8-2,0.8c-1.3,0-2.8-0.9-3-2.6c-1.2-11.3,5.1-16.2,9.7-16.7
					c0.6-0.1,1.2-0.2,1.9-0.2c0.6,0,1.2,0.1,1.7,0.2c2.7,0.2,5,1.4,6.8,3.5c3.1,3.7,3.8,9.3,3.3,13.3c-0.2,1.7-1.6,2.6-3,2.6l0,0
					c-0.8,0-1.5-0.3-2-0.8c-0.4-0.5-0.6-1.1-0.6-1.9c0.2-1.9,0.2-4.4-0.4-6.5c0,1,0,2.1,0,3.1c0,1.3,0,2.7,0,4
					c0.1,0.2,0.1,0.5,0.1,0.7c0,6.9,0,14.7,0.3,22.4c0,0.8-0.2,1.6-0.7,2.1C591.6,536.7,590.7,537,589.9,537z"/>
				<path class="st31" d="M586.4,494c0.6,0,1.1,0.1,1.6,0.2c7.9,0.6,10.4,9.5,9.7,16.2c-0.1,1.4-1.4,2.2-2.5,2.2
					c-1.1,0-2.2-0.7-2-2.2c0.3-2.6,0.1-6.5-1.4-9.1c0,3.2,0.1,6.5,0.1,9.7c0,0.2,0.1,0.4,0.1,0.6c0,7.5,0,15,0.3,22.4
					c0.1,1.7-1.2,2.5-2.5,2.5c-1.3,0-2.6-0.8-2.7-2.5c-0.2-5.9-0.3-11.7-0.3-17.6c-0.1,0-0.2,0-0.4,0c-0.1,0-0.3,0-0.4,0
					c0,5.9-0.1,11.7-0.3,17.6c-0.1,1.7-1.4,2.5-2.7,2.5c-1.3,0-2.5-0.8-2.5-2.5c0.3-7.5,0.3-14.9,0.3-22.4c0-0.1,0-0.1,0-0.1
					c0-0.1,0-0.2,0-0.3c0-3.1,0-6.3,0-9.4c-1.3,2.6-1.4,6.2-1.1,8.6c0.2,1.4-0.9,2.2-2,2.2c-1.1,0-2.3-0.7-2.5-2.2
					c-0.7-6.6,1.7-15.3,9.2-16.2C585.2,494.1,585.8,494,586.4,494 M586.4,493c-0.7,0-1.3,0.1-2,0.2c-3.7,0.5-6.6,2.7-8.4,6.5
					c-1.4,3.1-2,7-1.6,10.8c0.2,2,1.9,3.1,3.5,3.1c0.8,0,1.6-0.3,2.2-0.8c0,6.3,0,14-0.3,21.3c0,1,0.3,1.8,0.9,2.5
					c0.6,0.7,1.6,1,2.6,1c1.4,0,2.8-0.7,3.4-2.1c0.6,1.4,2,2.1,3.4,2.1c1,0,1.9-0.4,2.6-1c0.6-0.6,0.9-1.5,0.9-2.5
					c-0.3-6.9-0.3-13.5-0.3-21.4c0.6,0.6,1.4,0.9,2.3,0.9c1.6,0,3.3-1,3.5-3.1c0.4-4.1-0.3-9.8-3.5-13.7c-1.8-2.2-4.2-3.4-7.1-3.7
					C587.6,493.1,587,493,586.4,493L586.4,493z"/>
			</g>
		</g>
	</g>
	<g>
		<g>
			<g>
				<path class="st30" d="M910.5,505.5c-1.3,0-2.6-0.5-3.5-1.5c-0.9-0.9-1.5-2.2-1.5-3.5c0-2.8,2.3-5,5-5c2.8,0,5,2.3,5,5
					C915.5,503.3,913.3,505.5,910.5,505.5L910.5,505.5z"/>
				<path class="st31" d="M910.5,496C910.5,496,910.5,496,910.5,496c2.5,0,4.5,2,4.5,4.5c0,2.5-2,4.5-4.5,4.5c0,0,0,0,0,0
					c-2.5,0-4.5-2-4.5-4.5C906,498,908.1,496,910.5,496 M910.5,495c-3,0-5.5,2.5-5.5,5.5c0,1.5,0.6,2.9,1.6,3.9s2.4,1.6,3.9,1.6
					c3,0,5.5-2.5,5.5-5.5c0-1.5-0.6-2.9-1.6-3.9C913.4,495.6,912,495,910.5,495L910.5,495L910.5,495L910.5,495z"/>
			</g>
			<g>
				<path class="st30" d="M913.8,550.1c-1.5,0-3.1-1-3.2-3c-0.1-1.9-0.1-3.8-0.2-5.7c0,1.9-0.1,3.8-0.2,5.7c-0.1,1.9-1.7,3-3.2,3
					c-0.9,0-1.7-0.3-2.2-0.9c-0.5-0.5-0.8-1.3-0.7-2.1c0.3-7.8,0.4-15.9,0.4-22.4l0-0.2c0,0,0-0.2,0-0.3l0-6.1
					c-0.3,1.8-0.3,3.7-0.2,5.2c0.1,0.8-0.1,1.4-0.6,1.9c-0.5,0.5-1.2,0.8-2,0.8c-1.4,0-2.8-0.9-3-2.6c-1.1-11.3,5.2-16.2,9.7-16.7
					c0.5-0.1,1.2-0.2,1.8-0.2c0.6,0,1.2,0.1,1.8,0.2c2.7,0.2,5,1.4,6.8,3.5c3.1,3.7,3.7,9.3,3.3,13.3c-0.2,1.7-1.6,2.6-3,2.6l0,0
					c-0.8,0-1.5-0.3-2-0.8c-0.4-0.5-0.6-1.2-0.6-1.9c0.2-1.9,0.2-4.4-0.4-6.5c0,1,0,2.1,0,3.1c0,1.3,0,2.7,0,4
					c0.1,0.2,0.1,0.5,0.1,0.7c0,6.9,0,14.7,0.3,22.4c0,0.8-0.2,1.6-0.7,2.1C915.5,549.7,914.7,550.1,913.8,550.1z"/>
				<path class="st31" d="M910.4,507c0.6,0,1.1,0.1,1.7,0.2c7.9,0.6,10.4,9.5,9.7,16.2c-0.2,1.4-1.4,2.1-2.5,2.1
					c-1.1,0-2.2-0.7-2-2.2c0.3-2.6,0.1-6.5-1.4-9.1c0,3.2,0.1,6.5,0.1,9.7c0,0.2,0.1,0.4,0.1,0.6c0,7.5,0,15,0.3,22.4
					c0.1,1.7-1.2,2.5-2.5,2.5c-1.3,0-2.6-0.8-2.7-2.5c-0.2-5.9-0.3-11.7-0.3-17.6c-0.1,0-0.2,0-0.3,0c-0.1,0-0.3,0-0.4,0
					c0,5.9-0.1,11.7-0.4,17.6c-0.1,1.7-1.4,2.5-2.7,2.5c-1.3,0-2.5-0.8-2.5-2.5c0.3-7.5,0.4-14.9,0.4-22.4c0-0.1,0-0.1,0-0.1
					c0-0.1,0-0.2,0-0.3c0-3.1,0-6.3,0-9.4c-1.3,2.6-1.4,6.2-1.2,8.6c0.1,1.4-0.9,2.1-2,2.1c-1.1,0-2.3-0.7-2.5-2.2
					c-0.7-6.6,1.8-15.3,9.3-16.1C909.2,507.1,909.8,507,910.4,507 M910.4,506c-0.7,0-1.3,0.1-2,0.2c-3.7,0.4-6.6,2.7-8.4,6.5
					c-1.4,3.1-2.1,7-1.7,10.8c0.2,2,1.9,3.1,3.5,3.1c0.8,0,1.6-0.3,2.1-0.8c0,6.3-0.1,14-0.4,21.3c0,1,0.3,1.8,0.9,2.5
					c0.6,0.7,1.6,1,2.6,1c1.3,0,2.7-0.7,3.4-2c0.6,1.4,2,2.1,3.4,2.1c1,0,1.9-0.4,2.6-1c0.6-0.6,0.9-1.5,0.9-2.5
					c-0.3-6.9-0.3-13.5-0.3-21.4c0.6,0.6,1.4,0.9,2.3,0.9c1.6,0,3.3-1,3.5-3c0.4-4.1-0.2-9.8-3.4-13.7c-1.8-2.2-4.2-3.4-7.1-3.7
					C911.6,506.1,911,506,910.4,506L910.4,506z"/>
			</g>
		</g>
	</g>
	<g>
		<polygon class="st32" points="960.1,141 960.1,347.4 1130.8,445.9 1203.9,403.7 1203.9,197.3 1130.8,239.5 		"/>
		<polygon class="st32" points="1203.9,197.3 1203.9,403.7 1130.8,445.9 1130.8,239.5 		"/>
		<polygon class="st32" points="952,127 1033.3,80.1 1212,183.3 1203.9,197.3 1130.8,239.5 960.1,141 		"/>
		<polygon class="st32" points="952,127 960.1,141 1130.8,239.5 1130.8,230.2 		"/>
		<g>
			<polygon class="st32" points="1130.8,239.5 1203.9,197.3 1212,183.3 1130.8,230.2 			"/>
			<polygon class="st32" points="968.3,127 1033.3,89.4 1195.8,183.3 1130.8,220.8 			"/>
			<polygon class="st32" points="976.4,131.7 1033.3,98.8 1033.3,89.4 968.3,127 			"/>
		</g>
		<polygon class="st32" points="1033.3,98.8 1187.6,187.9 1195.8,183.3 1033.3,89.4 		"/>
		<g>
			<polygon class="st32" points="976.4,206.7 976.4,169.2 992.6,178.6 992.6,216.1 			"/>
			<polygon class="st32" points="1006.8,224.3 1006.8,186.8 1023.1,196.2 1023.1,233.7 			"/>
			<polygon class="st32" points="1037.3,241.9 1037.3,204.4 1053.6,213.7 1053.6,251.3 			"/>
			<polygon class="st32" points="1067.8,259.5 1067.8,222 1084,231.3 1084,268.9 			"/>
			<polygon class="st32" points="1098.3,277.1 1098.3,239.5 1114.5,248.9 1114.5,286.5 			"/>
			<polygon class="st32" points="976.4,272.3 976.4,234.7 992.6,244.1 992.6,281.6 			"/>
			<polygon class="st32" points="1006.8,289.9 1006.8,252.3 1023.1,261.7 1023.1,299.2 			"/>
			<polygon class="st32" points="1037.3,307.4 1037.3,269.9 1053.6,279.3 1053.6,316.8 			"/>
			<polygon class="st32" points="1067.8,325 1067.8,287.5 1084,296.9 1084,334.4 			"/>
			<polygon class="st32" points="1098.3,342.6 1098.3,305.1 1114.5,314.5 1114.5,352 			"/>
			<polygon class="st32" points="976.4,337.8 976.4,300.3 992.6,309.7 992.6,347.2 			"/>
			<polygon class="st32" points="1006.8,355.4 1006.8,317.9 1023.1,327.3 1023.1,364.8 			"/>
			<polygon class="st32" points="1037.3,373 1037.3,335.5 1053.6,344.8 1053.6,382.4 			"/>
			<polygon class="st32" points="1067.8,390.6 1067.8,353.1 1084,362.4 1084,400 			"/>
			<polygon class="st32" points="1098.3,408.2 1098.3,370.6 1114.5,380 1114.5,417.6 			"/>
		</g>
		<g>
			<polygon class="st32" points="1163.3,277.1 1163.3,239.5 1147,248.9 1147,286.5 			"/>
			<polygon class="st32" points="1187.6,263 1187.6,225.5 1171.4,234.9 1171.4,272.4 			"/>
			<polygon class="st32" points="1163.3,342.7 1163.3,305.2 1147,314.6 1147,352.1 			"/>
			<polygon class="st32" points="1187.6,328.7 1187.6,291.1 1171.4,300.5 1171.4,338.1 			"/>
			<polygon class="st32" points="1163.3,408.4 1163.3,370.9 1147,380.3 1147,417.8 			"/>
			<polygon class="st32" points="1187.6,394.3 1187.6,356.8 1171.4,366.2 1171.4,403.7 			"/>
		</g>
		<polygon class="st32" points="960.1,197.3 1130.7,295.8 1130.7,310.5 952,207.3 952,202 		"/>
		<polygon class="st32" points="1130.7,295.8 1203.7,253.5 1212,258.3 1130.7,305.1 952,202 960.1,197.3 		"/>
		<polygon class="st32" points="1130.7,310.5 1212,263.6 1212,258.3 1130.7,305.1 		"/>
		<polygon class="st32" points="960.1,263 1130.7,361.5 1130.7,376.2 952,273 952,267.7 		"/>
		<polygon class="st32" points="1130.7,361.5 1203.7,319.2 1212,324 1130.7,370.8 952,267.7 960.1,263 		"/>
		<polygon class="st32" points="1130.7,376.2 1212,329.3 1212,324 1130.7,370.8 		"/>
		<polygon class="st32" points="1118.9,168.3 1135.1,158.9 1169.4,178.7 1169.4,188 1153.1,197.4 1118.9,177.7 		"/>
		<polygon class="st32" points="1118.9,168.3 1118.9,177.7 1153.1,197.4 1153.1,188 		"/>
		<polygon class="st32" points="1153.1,197.4 1169.4,188 1169.4,178.7 1153.1,188 		"/>
		<polygon class="st32" points="1092.2,184.7 1108.4,175.3 1142.7,195.1 1142.7,204.4 1126.5,213.8 1092.2,194.1 		"/>
		<polygon class="st32" points="1092.2,184.7 1092.2,194.1 1126.5,213.8 1126.5,204.4 		"/>
		<polygon class="st32" points="1126.5,213.8 1142.7,204.4 1142.7,195.1 1126.5,204.4 		"/>
		<polygon class="st32" points="1000.8,117.6 1033.3,98.8 1065.8,117.6 1065.8,136.3 1033.3,155.1 1000.8,136.3 		"/>
		<polygon class="st32" points="1000.8,117.6 1000.8,136.3 1033.3,155.1 1033.3,136.3 		"/>
		<polygon class="st32" points="1033.3,155.1 1065.8,136.3 1065.8,117.6 1033.3,136.3 		"/>
		<path class="st32" d="M1080.6,166.4v-5.1l0,0c0-1.7-1.1-3.4-3.3-4.7c-4.5-2.6-11.8-2.6-16.3,0c-2.2,1.3-3.4,3-3.4,4.7l0,0v5.1l0,0
			c0,1.7,1.1,3.4,3.3,4.7c4.5,2.6,11.8,2.6,16.3,0C1079.4,169.8,1080.6,168.1,1080.6,166.4L1080.6,166.4z"/>
		<path class="st32" d="M1061,156.5c-4.5,2.6-4.5,6.8,0,9.4c4.5,2.6,11.8,2.6,16.3,0c4.5-2.6,4.5-6.8,0-9.4
			C1072.7,153.9,1065.4,153.9,1061,156.5z"/>
		<path class="st32" d="M1104.9,152.3v-5.1l0,0c0-1.7-1.1-3.4-3.3-4.7c-4.5-2.6-11.8-2.6-16.2,0c-2.2,1.3-3.4,3-3.4,4.7l0,0v5.1l0,0
			c0,1.7,1.1,3.4,3.3,4.7c4.5,2.6,11.8,2.6,16.2,0C1103.8,155.7,1104.9,154,1104.9,152.3L1104.9,152.3z"/>
		<path class="st32" d="M1085.3,142.5c-4.5,2.6-4.5,6.8,0,9.4s11.8,2.6,16.2,0s4.5-6.8,0-9.4
			C1097.1,139.9,1089.8,139.9,1085.3,142.5z"/>
	</g>
	<g>
		<polygon class="st32" points="1418.2,631.5 1345.1,589.3 1345.1,795.7 1418.2,837.9 1588.9,739.4 1588.9,533 		"/>
		<polygon class="st32" points="1418.2,631.5 1418.2,837.9 1345.1,795.7 1345.1,589.3 		"/>
		<polygon class="st32" points="1588.9,533 1418.2,631.5 1345.1,589.3 1337,575.3 1515.7,472.1 1597,519 		"/>
		<polygon class="st32" points="1418.2,622.2 1418.2,631.5 1588.9,533 1597,519 		"/>
		<g>
			<polygon class="st32" points="1418.2,622.2 1337,575.3 1345.1,589.3 1418.2,631.5 			"/>
			<polygon class="st32" points="1418.2,612.8 1353.2,575.3 1515.7,481.4 1580.7,519 			"/>
			<polygon class="st32" points="1580.7,519 1515.7,481.4 1515.7,490.8 1572.6,523.7 			"/>
		</g>
		<polygon class="st32" points="1515.7,481.4 1353.2,575.3 1361.4,579.9 1515.7,490.8 		"/>
		<g>
			<polygon class="st32" points="1556.4,608.1 1556.4,570.6 1572.6,561.2 1572.6,598.7 			"/>
			<polygon class="st32" points="1525.9,625.7 1525.9,588.2 1542.2,578.8 1542.2,616.3 			"/>
			<polygon class="st32" points="1495.4,643.3 1495.4,605.7 1511.7,596.4 1511.7,633.9 			"/>
			<polygon class="st32" points="1465,660.9 1465,623.3 1481.2,614 1481.2,651.5 			"/>
			<polygon class="st32" points="1434.5,678.5 1434.5,640.9 1450.7,631.5 1450.7,669.1 			"/>
			<polygon class="st32" points="1556.4,673.6 1556.4,636.1 1572.6,626.7 1572.6,664.3 			"/>
			<polygon class="st32" points="1525.9,691.2 1525.9,653.7 1542.2,644.3 1542.2,681.9 			"/>
			<polygon class="st32" points="1495.4,708.8 1495.4,671.3 1511.7,661.9 1511.7,699.4 			"/>
			<polygon class="st32" points="1465,726.4 1465,688.9 1481.2,679.5 1481.2,717 			"/>
			<polygon class="st32" points="1434.5,744 1434.5,706.5 1450.7,697.1 1450.7,734.6 			"/>
			<polygon class="st32" points="1556.4,739.2 1556.4,701.7 1572.6,692.3 1572.6,729.8 			"/>
			<polygon class="st32" points="1525.9,756.8 1525.9,719.3 1542.2,709.9 1542.2,747.4 			"/>
			<polygon class="st32" points="1495.4,774.4 1495.4,736.8 1511.7,727.5 1511.7,765 			"/>
			<polygon class="st32" points="1465,792 1465,754.4 1481.2,745.1 1481.2,782.6 			"/>
			<polygon class="st32" points="1434.5,809.6 1434.5,772 1450.7,762.6 1450.7,800.2 			"/>
		</g>
		<g>
			<polygon class="st32" points="1402,678.5 1402,640.9 1385.7,631.5 1385.7,669.1 			"/>
			<polygon class="st32" points="1377.6,664.4 1377.6,626.9 1361.4,617.5 1361.4,655 			"/>
			<polygon class="st32" points="1402,744.1 1402,706.6 1385.7,697.2 1385.7,734.7 			"/>
			<polygon class="st32" points="1377.6,730.1 1377.6,692.5 1361.4,683.1 1361.4,720.7 			"/>
			<polygon class="st32" points="1402,809.8 1402,772.3 1385.7,762.9 1385.7,800.4 			"/>
			<polygon class="st32" points="1377.6,795.7 1377.6,758.2 1361.4,748.8 1361.4,786.3 			"/>
		</g>
		<polygon class="st32" points="1597,594 1597,599.3 1418.3,702.5 1418.3,687.8 1588.9,589.3 		"/>
		<polygon class="st32" points="1588.9,589.3 1597,594 1418.3,697.1 1337,650.3 1345.3,645.5 1418.3,687.8 		"/>
		<polygon class="st32" points="1418.3,697.1 1337,650.3 1337,655.6 1418.3,702.5 		"/>
		<polygon class="st32" points="1597,659.7 1597,665 1418.3,768.2 1418.3,753.5 1588.9,655 		"/>
		<polygon class="st32" points="1588.9,655 1597,659.7 1418.3,762.8 1337,716 1345.3,711.2 1418.3,753.5 		"/>
		<polygon class="st32" points="1418.3,762.8 1337,716 1337,721.3 1418.3,768.2 		"/>
		<polygon class="st32" points="1430.1,569.7 1395.9,589.4 1379.6,580 1379.6,570.7 1413.9,550.9 1430.1,560.3 		"/>
		<polygon class="st32" points="1395.9,580 1395.9,589.4 1430.1,569.7 1430.1,560.3 		"/>
		<polygon class="st32" points="1395.9,580 1379.6,570.7 1379.6,580 1395.9,589.4 		"/>
		<polygon class="st32" points="1456.8,586.1 1422.5,605.8 1406.3,596.4 1406.3,587.1 1440.6,567.3 1456.8,576.7 		"/>
		<polygon class="st32" points="1422.5,596.4 1422.5,605.8 1456.8,586.1 1456.8,576.7 		"/>
		<polygon class="st32" points="1422.5,596.4 1406.3,587.1 1406.3,596.4 1422.5,605.8 		"/>
		<polygon class="st32" points="1548.2,528.3 1515.7,547.1 1483.2,528.3 1483.2,509.6 1515.7,490.8 1548.2,509.6 		"/>
		<polygon class="st32" points="1515.7,528.3 1515.7,547.1 1548.2,528.3 1548.2,509.6 		"/>
		<polygon class="st32" points="1515.7,528.3 1483.2,509.6 1483.2,528.3 1515.7,547.1 		"/>
		<path class="st32" d="M1468.4,558.4c0,1.7,1.1,3.4,3.4,4.7c4.5,2.6,11.8,2.6,16.3,0c2.2-1.3,3.3-3,3.3-4.7l0,0v-5.1l0,0
			c0-1.7-1.1-3.4-3.4-4.7c-4.5-2.6-11.8-2.6-16.3,0c-2.2,1.3-3.4,3-3.3,4.7l0,0V558.4L1468.4,558.4z"/>
		<path class="st32" d="M1471.8,548.5c-4.5,2.6-4.5,6.8,0,9.4c4.5,2.6,11.8,2.6,16.3,0c4.5-2.6,4.5-6.8,0-9.4
			C1483.6,545.9,1476.3,545.9,1471.8,548.5z"/>
		<path class="st32" d="M1444.1,544.3c0,1.7,1.1,3.4,3.4,4.7c4.5,2.6,11.8,2.6,16.2,0c2.2-1.3,3.3-3,3.3-4.7l0,0v-5.1l0,0
			c0-1.7-1.1-3.4-3.4-4.7c-4.5-2.6-11.8-2.6-16.2,0c-2.2,1.3-3.4,3-3.3,4.7l0,0V544.3L1444.1,544.3z"/>
		<path class="st32" d="M1447.5,534.5c-4.5,2.6-4.5,6.8,0,9.4s11.8,2.6,16.2,0s4.5-6.8,0-9.4
			C1459.2,531.9,1451.9,531.9,1447.5,534.5z"/>
	</g>
	<g>
		<polygon class="st33" points="648.7,386 764.4,452.9 909.3,369.5 793.4,302.4 		"/>
		<polygon class="st33" points="764.5,408.2 860.5,352.8 860.5,288.5 764.5,343.8 		"/>
		<polygon class="st33" points="648.7,386 648.7,396.1 764.4,463 764.4,452.9 		"/>
		<g>
			<polygon class="st33" points="764.4,463 909.3,380.5 909.3,369.5 764.4,452.9 			"/>
			<path class="st33" d="M805,415.6v-7.4c0,0,0,0,0,0v0h0c0-1.7-1.1-3.4-3.4-4.7c-4.5-2.6-11.9-2.6-16.4,0c-2.3,1.3-3.4,3-3.4,4.7
				v7.4c0,1.7,1.1,3.4,3.4,4.7c4.5,2.6,11.9,2.6,16.4,0C803.9,419.1,805,417.3,805,415.6L805,415.6z"/>
		</g>
		<path class="st33" d="M785.2,412.9c-4.5-2.6-4.5-6.9,0-9.5c4.5-2.6,11.9-2.6,16.4,0c4.5,2.6,4.5,6.9,0,9.5
			C797.1,415.5,789.7,415.5,785.2,412.9z"/>
		<g>
			<path class="st33" d="M800.3,408.2L800.3,408.2v-64.9h-13.7v64.9l0,0c0,1,0.7,2,2,2.8c2.7,1.5,7,1.5,9.7,0
				C799.6,410.2,800.3,409.2,800.3,408.2z"/>
			<path class="st33" d="M834,398.7v-7.4c0,0,0,0,0,0v0h0c0-1.7-1.1-3.4-3.4-4.7c-4.5-2.6-11.9-2.6-16.4,0c-2.3,1.3-3.4,3-3.4,4.7
				v7.4c0,1.7,1.1,3.4,3.4,4.7c4.5,2.6,11.9,2.6,16.4,0C832.9,402.1,834,400.4,834,398.7L834,398.7z"/>
		</g>
		<path class="st33" d="M814.2,396c-4.5-2.6-4.5-6.9,0-9.5s11.9-2.6,16.4,0c4.5,2.6,4.5,6.9,0,9.5
			C826.1,398.6,818.7,398.6,814.2,396z"/>
		<g>
			<path class="st33" d="M829.3,391.2L829.3,391.2l0-64.9h-13.7v64.9l0,0c0,1,0.7,2,2,2.8c2.7,1.5,7,1.5,9.7,0
				C828.6,393.3,829.3,392.3,829.3,391.2z"/>
			<path class="st33" d="M863,381.7v-7.4c0,0,0,0,0,0v0h0c0-1.7-1.1-3.4-3.4-4.7c-4.5-2.6-11.9-2.6-16.4,0c-2.3,1.3-3.4,3-3.4,4.7
				v7.4c0,1.7,1.1,3.4,3.4,4.7c4.5,2.6,11.9,2.6,16.4,0C861.9,385.2,863,383.5,863,381.7L863,381.7z"/>
		</g>
		<path class="st33" d="M843.2,379c-4.5-2.6-4.5-6.9,0-9.5c4.5-2.6,11.9-2.6,16.4,0c4.5,2.6,4.5,6.9,0,9.5
			C855.1,381.6,847.7,381.6,843.2,379z"/>
		<g>
			<path class="st33" d="M858.3,374.3L858.3,374.3l0-64.9h-13.7v64.9l0,0c0,1,0.7,2,2,2.8c2.7,1.5,7,1.5,9.7,0
				C857.6,376.3,858.3,375.3,858.3,374.3z"/>
			<path class="st33" d="M892,364.8v-7.4c0,0,0,0,0,0v0h0c0-1.7-1.1-3.4-3.4-4.7c-4.5-2.6-11.9-2.6-16.4,0c-2.3,1.3-3.4,3-3.4,4.7
				v7.4c0,1.7,1.1,3.4,3.4,4.7c4.5,2.6,11.9,2.6,16.4,0C890.9,368.3,892,366.5,892,364.8L892,364.8z"/>
		</g>
		<path class="st33" d="M872.2,362.1c-4.5-2.6-4.5-6.9,0-9.5c4.5-2.6,11.9-2.6,16.4,0c4.5,2.6,4.5,6.9,0,9.5
			C884.1,364.7,876.7,364.7,872.2,362.1z"/>
		<g>
			<path class="st33" d="M887.3,357.4L887.3,357.4v-64.9h-13.7v64.9l0,0c0,1,0.7,2,2,2.8c2.7,1.5,7,1.5,9.7,0
				C886.6,359.4,887.3,358.4,887.3,357.4z"/>
			<path class="st33" d="M689.5,382.2v-7.4c0,0,0,0,0,0v0h0c0-1.7-1.1-3.4-3.4-4.7c-4.5-2.6-11.9-2.6-16.4,0c-2.3,1.3-3.4,3-3.4,4.7
				v7.4c0,1.7,1.1,3.4,3.4,4.7c4.5,2.6,11.9,2.6,16.4,0C688.4,385.6,689.5,383.9,689.5,382.2L689.5,382.2z"/>
		</g>
		<path class="st33" d="M669.7,379.5c-4.5-2.6-4.5-6.9,0-9.5c4.5-2.6,11.9-2.6,16.4,0c4.5,2.6,4.5,6.9,0,9.5
			S674.2,382.1,669.7,379.5z"/>
		<g>
			<path class="st33" d="M684.8,374.7L684.8,374.7l0-64.9h-13.7v64.9l0,0c0,1,0.7,2,2,2.8c2.7,1.5,7,1.5,9.7,0
				C684.1,376.8,684.8,375.8,684.8,374.7z"/>
			<path class="st33" d="M720.7,368v-7.4c0,0,0,0,0,0v0h0c0-1.7-1.1-3.4-3.4-4.7c-4.5-2.6-11.9-2.6-16.4,0c-2.3,1.3-3.4,3-3.4,4.7
				v7.4c0,1.7,1.1,3.4,3.4,4.7c4.5,2.6,11.9,2.6,16.4,0C719.6,371.4,720.7,369.7,720.7,368L720.7,368z"/>
		</g>
		<path class="st33" d="M700.9,365.3c-4.5-2.6-4.5-6.9,0-9.5c4.5-2.6,11.9-2.6,16.4,0c4.5,2.6,4.5,6.9,0,9.5
			C712.8,367.9,705.4,367.9,700.9,365.3z"/>
		<path class="st33" d="M716,360.5L716,360.5l0-64.9h-13.7v64.9l0,0c0,1,0.7,2,2,2.8c2.7,1.5,7,1.5,9.7,0
			C715.3,362.6,716,361.5,716,360.5z"/>
		<polygon class="st33" points="706.1,375.1 706.1,310.1 764.5,343.8 764.5,408.2 		"/>
		<path class="st33" d="M718.3,399v-7.4c0,0,0,0,0,0v0h0c0-1.7-1.1-3.4-3.4-4.7c-4.5-2.6-11.9-2.6-16.4,0c-2.3,1.3-3.4,3-3.4,4.7
			v7.4c0,1.7,1.1,3.4,3.4,4.7c4.5,2.6,11.9,2.6,16.4,0C717.2,402.4,718.3,400.7,718.3,399L718.3,399z"/>
		<path class="st33" d="M698.5,396.3c-4.5-2.6-4.5-6.9,0-9.5c4.5-2.6,11.9-2.6,16.4,0c4.5,2.6,4.5,6.9,0,9.5
			C710.4,398.9,703,398.9,698.5,396.3z"/>
		<g>
			<path class="st33" d="M713.6,391.5L713.6,391.5l0-64.9h-13.7v64.9l0,0c0,1,0.7,2,2,2.8c2.7,1.5,7,1.5,9.7,0
				C712.9,393.6,713.6,392.6,713.6,391.5z"/>
			<path class="st33" d="M776,432.6v-7.4c0,0,0,0,0,0v0h0c0-1.7-1.1-3.4-3.4-4.7c-4.5-2.6-11.9-2.6-16.4,0c-2.3,1.3-3.4,3-3.4,4.7
				v7.4c0,1.7,1.1,3.4,3.4,4.7c4.5,2.6,11.9,2.6,16.4,0C774.8,436,776,434.3,776,432.6L776,432.6z"/>
		</g>
		<path class="st33" d="M756.2,429.8c-4.5-2.6-4.5-6.9,0-9.5c4.5-2.6,11.9-2.6,16.4,0c4.5,2.6,4.5,6.9,0,9.5
			C768.1,432.5,760.7,432.5,756.2,429.8z"/>
		<path class="st33" d="M771.2,425.1L771.2,425.1l0-64.9h-13.7v64.9l0,0c0,1,0.7,2,2,2.8c2.7,1.5,7,1.5,9.7,0
			C770.6,427.1,771.2,426.1,771.2,425.1z"/>
		<polygon class="st33" points="725.9,386.4 725.9,341.4 745.2,352.5 745.1,397.2 		"/>
		<path class="st33" d="M747.2,415.8v-7.4c0,0,0,0,0,0v0h0c0-1.7-1.1-3.4-3.4-4.7c-4.5-2.6-11.9-2.6-16.4,0c-2.3,1.3-3.4,3-3.4,4.7
			v7.4c0,1.7,1.1,3.4,3.4,4.7c4.5,2.6,11.9,2.6,16.4,0C746,419.2,747.2,417.5,747.2,415.8L747.2,415.8z"/>
		<path class="st33" d="M727.3,413.1c-4.5-2.6-4.5-6.9,0-9.5c4.5-2.6,11.9-2.6,16.4,0c4.5,2.6,4.5,6.9,0,9.5
			C739.3,415.7,731.9,415.7,727.3,413.1z"/>
		<path class="st33" d="M742.4,408.3L742.4,408.3l0-64.9h-13.7v64.9l0,0c0,1,0.7,2,2,2.8c2.7,1.5,7,1.5,9.7,0
			C741.8,410.4,742.4,409.3,742.4,408.3z"/>
		<polygon class="st33" points="658.4,293.1 658.4,304.2 774.2,371.1 774.2,359.9 		"/>
		<polygon class="st33" points="783.8,354.4 783.8,365.5 774.2,371.1 774.2,359.9 		"/>
		<polygon class="st33" points="648.7,287.5 783.8,365.5 716.3,270.8 		"/>
		<polygon class="st33" points="661.5,289.3 714.3,276.3 767,350.2 		"/>
		<polygon class="st33" points="661.5,289.3 668.3,287.7 760.2,340.8 767,350.2 		"/>
		<polygon class="st33" points="716.3,270.8 832.1,204 899.6,298.7 783.8,365.5 		"/>
		<polygon class="st33" points="648.7,287.5 764.5,220.7 832.1,204 716.3,270.8 		"/>
		<path class="st33" d="M828.8,230L828.8,230L828.8,230c0.1-7.5-4.8-14.9-14.6-20.6c-19.6-11.3-51.9-11.3-71.8,0
			c-9.9,5.7-15,13.1-15,20.6v23.1c-0.1,7.5,4.8,14.9,14.6,20.6c19.6,11.3,52,11.3,71.8,0c9.9-5.7,14.9-13.1,15-20.6h0v0
			C828.8,253.1,828.8,230,828.8,230z"/>
		<path class="st33" d="M762.7,273c-1.5-0.3-3.1-0.6-4.6-1v-11.5c1.5,0.4,3,0.7,4.6,1V273z M751,258.4c-1.6-0.6-3.1-1.2-4.6-1.9V268
			c1.5,0.7,3,1.3,4.6,1.9V258.4L751,258.4z M774.5,262.8c-1.5-0.1-3.1-0.2-4.6-0.3V274c1.5,0.1,3,0.2,4.6,0.3V262.8z M739.2,252.5
			c-1.7-1.2-3.2-2.4-4.6-3.7v11.5c1.3,1.3,2.9,2.5,4.6,3.7L739.2,252.5L739.2,252.5z M821.6,248.6c-1.3,1.3-2.9,2.5-4.6,3.7v11.5
			c1.7-1.2,3.2-2.4,4.6-3.7V248.6z M809.8,256.4c-1.5,0.7-3,1.3-4.6,1.9v11.5c1.6-0.6,3.1-1.2,4.6-1.9V256.4z M798.1,260.4
			c-1.5,0.4-3,0.7-4.6,1v11.5c1.5-0.3,3.1-0.6,4.6-1V260.4z M786.3,262.4c-1.5,0.1-3,0.3-4.6,0.3v11.5c1.5-0.1,3.1-0.2,4.6-0.3
			V262.4z"/>
		<path class="st33" d="M742,250.6c-19.6-11.3-19.4-29.9,0.4-41.2s52.2-11.3,71.8,0s19.4,29.9-0.4,41.2S761.6,261.9,742,250.6z"/>
		<path class="st33" d="M822.5,229.1c0,6.6-4.4,13.1-13.1,18.1c-17.4,9.9-45.6,9.9-62.8,0c-8.4-4.9-12.7-11.3-12.8-17.7
			c0-0.1,0-0.2,0-0.3c0-24.5,19.9-44.4,44.4-44.4c24.4,0,44.2,19.7,44.4,44C822.5,228.9,822.5,229,822.5,229.1z"/>
		<path class="st33" d="M810.2,227.1c0,5.3-3.6,10.7-10.7,14.7c-14.1,8-37,8-50.9,0c-6.8-4-10.3-9.1-10.3-14.3c0-0.1,0-0.2,0-0.3
			c0-19.9,16.1-36,36-36c19.8,0,35.8,16,36,35.7C810.2,227,810.2,227.1,810.2,227.1z"/>
		<path class="st33" d="M780.2,178.2L780.2,178.2L780.2,178.2c0-0.3-0.2-0.6-0.6-0.9c-0.8-0.5-2.2-0.5-3,0c-0.4,0.2-0.6,0.6-0.6,0.9
			v19.2c0,0.3,0.2,0.6,0.6,0.9c0.8,0.5,2.2,0.5,3,0c0.4-0.2,0.6-0.6,0.6-0.9l0,0l0,0L780.2,178.2L780.2,178.2z"/>
		<path class="st33" d="M776.6,179.1c-0.8-0.5-0.8-1.3,0-1.7c0.8-0.5,2.2-0.5,3,0s0.8,1.3,0,1.7S777.4,179.6,776.6,179.1z"/>
	</g>
	<g>
		<polygon class="st32" points="655.4,840.5 693.9,818.3 732.5,885 732.5,974 655.4,929.5 		"/>
		<rect x="701.3" y="768.7" transform="matrix(0.866 -0.5 0.5 0.866 -297.718 503.2859)" class="st32" width="177.9" height="77"/>
		<polygon class="st32" points="732.5,885 732.5,974 886.6,885 886.6,796.1 		"/>
		<polygon class="st32" points="693.9,818.3 693.9,740.4 732.5,762.7 732.5,851.7 708,810.2 		"/>
		<polygon class="st32" points="732.5,851.7 771,829.4 771.5,740.7 732.5,762.7 		"/>
		<polygon class="st32" points="693.9,740.4 732.5,696 732.5,762.7 		"/>
		<polygon class="st32" points="732.5,696 771.5,740.7 732.5,762.7 		"/>
		<polygon class="st32" points="726.4,661.5 732.5,658 738.5,661.5 738.5,703.6 732.5,707.1 726.4,703.6 		"/>
		<polygon class="st32" points="738.5,661.5 732.5,665 732.5,707.1 738.5,703.6 		"/>
		<polygon class="st32" points="720.3,665 720.3,672 738.5,682.5 738.5,675.5 		"/>
		<g>
			<polygon class="st32" points="732.5,672 738.5,668.5 744.6,672 738.5,675.5 			"/>
			<polygon class="st32" points="720.1,665.1 726.2,661.6 732.3,665.1 726.2,668.6 			"/>
		</g>
		<polygon class="st32" points="744.6,672 744.6,679 738.5,682.5 738.5,675.5 		"/>
		<path class="st32" d="M693.9,848.3c-5.5-3.2-10-0.6-10,5.8c0,6.3,4.5,14.1,10,17.3c5.5,3.2,10,0.6,10-5.8
			C703.9,859.2,699.4,851.4,693.9,848.3z"/>
		<path class="st32" d="M718.2,770.6v17.1l-9.8-5.6l0-16c0-2.7,3-4.5,5.4-3.2l0,0C716.5,764.6,718.2,767.5,718.2,770.6z"/>
		<path class="st32" d="M695,899.2L695,899.2c-5.8-3.2-13,1-13,7.6l0,38.1l23.8,13.7v-41.1C705.8,909.9,701.7,902.9,695,899.2z"/>
		<path class="st32" d="M694.8,909.3c-4.7-2.6-10.5,0.8-10.5,6.2l0,30.7l19.3,11.1v-33.2C703.6,918,700.2,912.3,694.8,909.3z"/>
		<g>
			<path class="st32" d="M747,892.4v17.1l9.8-5.7l0-15.9c0-2.7-3-4.5-5.4-3.2l0,0C748.7,886.4,747,889.3,747,892.4z"/>
			<path class="st32" d="M766.1,881.4v17.1l9.8-5.7l0-15.9c0-2.7-3-4.5-5.4-3.2l0,0C767.8,875.3,766.1,878.2,766.1,881.4z"/>
			<path class="st32" d="M785.2,870.4v17.1l9.8-5.7l0-15.9c0-2.7-3-4.5-5.4-3.2l0,0C786.9,864.3,785.2,867.2,785.2,870.4z"/>
			<path class="st32" d="M804.2,859.4v17.1l9.8-5.7l0-15.9c0-2.7-3-4.5-5.4-3.2l0,0C805.9,853.3,804.2,856.2,804.2,859.4z"/>
			<path class="st32" d="M823.3,848.3v17.1l9.8-5.7l0-15.9c0-2.7-3-4.5-5.4-3.2l0,0C825,842.3,823.3,845.2,823.3,848.3z"/>
			<path class="st32" d="M842.4,837.3v17.1l9.8-5.7l0-15.9c0-2.7-3-4.5-5.4-3.2l0,0C844.1,831.3,842.4,834.2,842.4,837.3z"/>
			<path class="st32" d="M861.5,826.3v17.1l9.8-5.7l0-15.9c0-2.7-3-4.5-5.4-3.2l0,0C863.2,820.3,861.5,823.2,861.5,826.3z"/>
			<path class="st32" d="M746.8,770.6v17.1l9.8-5.7l0-15.9c0-2.7-3-4.5-5.4-3.2l0,0C748.5,764.6,746.8,767.5,746.8,770.6z"/>
		</g>
		<polygon class="st32" points="726.4,661.5 732.5,665 732.5,707.1 726.4,703.6 		"/>
	</g>
</g>
</svg>
