<?xml version="1.0" encoding="utf-8"?>
<!-- Generator: Adobe Illustrator 22.0.0, SVG Export Plug-In . SVG Version: 6.00 Build 0)  -->
<svg version="1.1" id="Layer_1" xmlns="http://www.w3.org/2000/svg" xmlns:xlink="http://www.w3.org/1999/xlink" x="0px" y="0px"
	 viewBox="0 0 3186 1101.1" style="enable-background:new 0 0 3186 1101.1;" xml:space="preserve">
<style type="text/css">
	.st0{fill:none;stroke:#000000;stroke-width:2;stroke-miterlimit:10;}
	.st1{fill:none;stroke:#000000;stroke-width:1.5645;stroke-miterlimit:10;}
	.st2{fill:none;stroke:#000000;stroke-width:2;stroke-miterlimit:10;stroke-dasharray:7.9842,5.9881;}
</style>
<g id="Layer_2_1_">
</g>
<g id="Layer_1_1_">
</g>
<g id="Layer_3">
</g>
<g id="Layer_4">
</g>
<g id="Layer_5">
	<path class="st0" d="M1104.1,507.7H916.3c-10.5,0-18.9-8.5-18.9-18.9l0,0c0-10.5,8.5-18.9,18.9-18.9h187.8
		c10.5,0,18.9,8.5,18.9,18.9l0,0C1123,499.3,1114.5,507.7,1104.1,507.7z"/>
	<path class="st0" d="M824.1,507.7H527.9c-10.5,0-18.9-8.5-18.9-18.9l0,0c0-10.5,8.5-18.9,18.9-18.9H824c10.5,0,18.9,8.5,18.9,18.9
		l0,0C843,499.3,834.5,507.7,824.1,507.7z"/>
	<path class="st0" d="M436.1,507.7H248.3c-10.5,0-18.9-8.5-18.9-18.9l0,0c0-10.5,8.5-18.9,18.9-18.9h187.8
		c10.5,0,18.9,8.5,18.9,18.9l0,0C455,499.3,446.5,507.7,436.1,507.7z"/>
	<g>
		<path d="M288.4,484.3c1.2,0,2.2,0.3,3.2,0.8s1.6,1.3,2.2,2.2s0.8,2,0.8,3.1s-0.3,2.1-0.8,3.1s-1.2,1.7-2.2,2.2s-2,0.8-3.2,0.8
			s-2.2-0.3-3.2-0.8s-1.6-1.3-2.2-2.2s-0.8-1.9-0.8-3.1s0.3-2.1,0.8-3.1s1.2-1.7,2.2-2.2S287.2,484.3,288.4,484.3z M288.4,486.2
			c-0.8,0-1.6,0.2-2.2,0.6s-1.1,0.9-1.4,1.6s-0.5,1.4-0.5,2.1c0,0.8,0.2,1.4,0.5,2.1s0.8,1.2,1.4,1.6s1.4,0.6,2.2,0.6
			c0.8,0,1.6-0.2,2.2-0.6s1.1-0.9,1.4-1.6s0.5-1.3,0.5-2.1c0-0.8-0.2-1.5-0.5-2.1s-0.8-1.2-1.4-1.6S289.2,486.2,288.4,486.2z"/>
		<path d="M303.6,484.3c1,0,1.9,0.2,2.8,0.7s1.5,1.2,2,2.1s0.7,1.9,0.7,3.1c0,1.3-0.2,2.4-0.7,3.4s-1.2,1.7-2,2.2s-1.8,0.8-2.9,0.8
			c-0.7,0-1.4-0.2-2.1-0.5s-1.3-0.8-1.8-1.4v7.2h-1.9v-17.3h1.9v2c0.4-0.6,1-1.2,1.7-1.6S302.7,484.3,303.6,484.3z M303.3,486.2
			c-0.7,0-1.3,0.2-1.9,0.5s-1,0.9-1.3,1.5s-0.5,1.4-0.5,2.2v2.2c0.5,0.6,1,1.1,1.6,1.5s1.2,0.6,1.9,0.6c0.8,0,1.6-0.2,2.2-0.7
			s1.1-1,1.4-1.7s0.5-1.4,0.5-2.2c0-0.8-0.2-1.4-0.5-2.1s-0.8-1.1-1.3-1.4S304.1,486.2,303.3,486.2z"/>
		<path d="M317.1,484.3c1.2,0,2.2,0.2,3,0.8s1.4,1.2,1.8,2s0.6,1.8,0.6,2.9v1.1h-9c0.1,0.7,0.3,1.3,0.7,1.8s0.8,1,1.4,1.3
			s1.2,0.5,2,0.5s1.6-0.2,2.4-0.6s1.4-0.9,1.9-1.4v2.1c-0.2,0.3-0.5,0.5-1,0.8s-0.9,0.5-1.5,0.7s-1.1,0.3-1.7,0.3
			c-1.2,0-2.2-0.3-3.2-0.8s-1.6-1.3-2.2-2.2s-0.8-1.9-0.8-3.1s0.2-2.1,0.7-3.1s1.2-1.7,2-2.2S316,484.3,317.1,484.3z M317.1,486.2
			c-1,0-1.8,0.3-2.4,1s-1,1.4-1.2,2.4h7.1c-0.1-0.8-0.3-1.4-0.6-1.9s-0.8-0.8-1.3-1.1S317.6,486.2,317.1,486.2z"/>
		<path d="M327.6,484.5v1.9c0.2-0.3,0.6-0.6,1-0.9s0.8-0.6,1.3-0.8s1-0.3,1.5-0.3c0.8,0,1.5,0.2,2.2,0.5s1.2,0.9,1.6,1.6
			s0.6,1.6,0.6,2.7v7.1h-1.9v-7c0-1-0.2-1.8-0.7-2.3s-1.1-0.8-2.1-0.8c-0.6,0-1.2,0.2-1.9,0.7s-1.2,1-1.6,1.6v7.8h-1.9v-11.7h1.9
			V484.5z"/>
		<path d="M348.3,479.4v16.9h-1.9v-16.9H348.3z"/>
		<path d="M355.4,484.5v11.7h-1.9v-9.9h-1.9v-1.8L355.4,484.5L355.4,484.5z M354.2,478.9c0.5,0,0.8,0.2,1.1,0.5s0.5,0.7,0.5,1.1
			s-0.2,0.8-0.5,1.1s-0.7,0.5-1.1,0.5s-0.8-0.2-1.1-0.5s-0.5-0.7-0.5-1.1s0.2-0.8,0.5-1.1S353.7,478.9,354.2,478.9z"/>
		<path d="M361.4,484.5v1.9c0.2-0.3,0.6-0.6,1-0.9s0.8-0.6,1.3-0.8s1-0.3,1.5-0.3c0.8,0,1.5,0.2,2.2,0.5s1.2,0.9,1.6,1.6
			s0.6,1.6,0.6,2.7v7.1h-1.9v-7c0-1-0.2-1.8-0.7-2.3s-1.1-0.8-2.1-0.8c-0.6,0-1.2,0.2-1.9,0.7s-1.2,1-1.6,1.6v7.8h-1.9v-11.7h1.9
			V484.5z"/>
		<path d="M383.6,484.5l-5.4,5.1l5.7,6.6h-2.4l-4.6-5.3l-1.7,1.5v3.8h-1.9v-16.9h1.9v10.9l5.8-5.7H383.6z"/>
	</g>
	<g>
		<path d="M548.1,481.2v3.4h3.4v1.8h-3.4v6.9c0,0.5,0.1,0.9,0.4,1.1s0.6,0.4,1.1,0.4s0.9-0.1,1.2-0.2s0.6-0.2,0.8-0.4v1.6
			c-0.3,0.2-0.6,0.4-1,0.6s-0.8,0.2-1.4,0.2c-1,0-1.8-0.3-2.3-0.9s-0.8-1.4-0.8-2.4v-7h-2.2v-0.6c0.8-0.3,1.4-0.9,1.9-1.7
			s1-1.8,1.4-2.9h0.9V481.2z"/>
		<path d="M564.6,484.5v6.9c0,1-0.2,1.9-0.7,2.7s-1,1.3-1.8,1.7s-1.6,0.6-2.5,0.6s-1.8-0.2-2.5-0.6s-1.3-1-1.8-1.7s-0.7-1.6-0.7-2.7
			v-6.9h2v6.9c0,1,0.3,1.8,0.9,2.3s1.3,0.8,2.1,0.8s1.5-0.3,2.1-0.8s0.9-1.3,0.9-2.3v-6.9H564.6z"/>
		<path d="M570.2,484.5v2.3c0.5-0.8,1-1.4,1.6-1.9s1.3-0.7,2-0.7c0.5,0,0.9,0.1,1.2,0.2v2.2c-0.5-0.3-1-0.4-1.5-0.4
			c-0.8,0-1.4,0.3-1.9,0.8s-1,1.2-1.4,2v7.1h-1.9v-11.7h1.9V484.5z"/>
		<path d="M579.4,484.5v1.9c0.2-0.3,0.6-0.6,1-0.9s0.8-0.6,1.3-0.8s1-0.3,1.5-0.3c0.8,0,1.5,0.2,2.2,0.5s1.2,0.9,1.6,1.6
			s0.6,1.6,0.6,2.7v7.1h-1.9v-7c0-1-0.2-1.8-0.7-2.3s-1.1-0.8-2.1-0.8c-0.6,0-1.2,0.2-1.9,0.7s-1.2,1-1.6,1.6v7.8h-1.9v-11.7h1.9
			V484.5z"/>
		<path d="M603.5,484.3c1.2,0,2.2,0.3,3.2,0.8s1.6,1.3,2.2,2.2s0.8,2,0.8,3.1s-0.3,2.1-0.8,3.1s-1.2,1.7-2.2,2.2s-2,0.8-3.2,0.8
			s-2.2-0.3-3.2-0.8s-1.6-1.3-2.2-2.2s-0.8-1.9-0.8-3.1s0.3-2.1,0.8-3.1s1.2-1.7,2.2-2.2S602.3,484.3,603.5,484.3z M603.5,486.2
			c-0.8,0-1.6,0.2-2.2,0.6s-1.1,0.9-1.4,1.6s-0.5,1.4-0.5,2.1c0,0.8,0.2,1.4,0.5,2.1s0.8,1.2,1.4,1.6s1.4,0.6,2.2,0.6
			s1.6-0.2,2.2-0.6s1.1-0.9,1.4-1.6s0.5-1.3,0.5-2.1c0-0.8-0.2-1.5-0.5-2.1s-0.8-1.2-1.4-1.6S604.3,486.2,603.5,486.2z"/>
		<path d="M614.7,484.5v1.9c0.2-0.3,0.6-0.6,1-0.9s0.8-0.6,1.3-0.8s1-0.3,1.5-0.3c0.8,0,1.5,0.2,2.2,0.5s1.2,0.9,1.6,1.6
			s0.6,1.6,0.6,2.7v7.1H621v-7c0-1-0.2-1.8-0.7-2.3s-1.1-0.8-2.1-0.8c-0.6,0-1.2,0.2-1.9,0.7s-1.2,1-1.6,1.6v7.8h-1.9v-11.7h1.9
			V484.5z"/>
		<path d="M638.8,484.3c0.9,0,1.6,0.1,2.2,0.4s1.1,0.5,1.3,0.7v1.9c-0.4-0.3-0.9-0.6-1.5-0.9s-1.2-0.4-2-0.4s-1.6,0.2-2.2,0.6
			s-1.1,0.9-1.4,1.6s-0.5,1.4-0.5,2.1c0,0.8,0.2,1.4,0.5,2.1s0.8,1.2,1.4,1.6s1.4,0.6,2.2,0.6s1.5-0.1,2-0.4s1.1-0.5,1.5-0.9v1.9
			c-0.2,0.2-0.7,0.5-1.3,0.8s-1.4,0.4-2.2,0.4c-1.2,0-2.2-0.3-3.2-0.8s-1.6-1.3-2.2-2.2s-0.8-1.9-0.8-3.1s0.3-2.1,0.8-3.1
			s1.2-1.7,2.2-2.2S637.6,484.3,638.8,484.3z"/>
		<path d="M650.3,484.3c0.7,0,1.4,0.2,2.1,0.5s1.3,0.8,1.8,1.3v-1.6h1.9v11.7h-1.9v-2c-0.4,0.6-1,1.2-1.7,1.6s-1.5,0.7-2.4,0.7
			c-1,0-1.9-0.3-2.7-0.8s-1.5-1.2-2-2.1s-0.7-2-0.7-3.1c0-1.3,0.2-2.4,0.7-3.4s1.2-1.7,2-2.2S649.3,484.3,650.3,484.3z M650.7,486.2
			c-0.8,0-1.6,0.2-2.2,0.6s-1.1,1-1.4,1.6s-0.5,1.4-0.5,2.1c0,0.8,0.2,1.4,0.5,2.1s0.8,1.1,1.3,1.5s1.2,0.6,2,0.6
			c0.7,0,1.4-0.2,1.9-0.6s1-0.9,1.3-1.6s0.5-1.4,0.5-2.2v-2.2c-0.5-0.6-1-1.1-1.6-1.4S651.4,486.2,650.7,486.2z"/>
		<path d="M662,484.5v1.5c0.4-0.4,0.9-0.8,1.4-1.2s1.3-0.6,2.1-0.6s1.6,0.2,2.4,0.6s1.3,1,1.7,1.8c0.5-0.7,1.1-1.2,1.8-1.7
			s1.4-0.7,2.2-0.7s1.5,0.2,2.2,0.5s1.3,0.9,1.7,1.6s0.6,1.6,0.6,2.7v7.1h-1.9v-7c0-1-0.3-1.8-0.8-2.3s-1.2-0.8-2.2-0.8
			c-0.7,0-1.3,0.2-1.8,0.6s-1,0.9-1.4,1.5v8h-1.9v-7c0-1-0.3-1.8-0.8-2.3s-1.2-0.8-2.2-0.8c-0.6,0-1.2,0.2-1.7,0.6s-1,0.8-1.4,1.4
			v8.2h-1.9v-11.7L662,484.5L662,484.5z"/>
		<path d="M686.6,484.3c1.2,0,2.2,0.2,3,0.8s1.4,1.2,1.8,2s0.6,1.8,0.6,2.9v1.1h-9c0.1,0.7,0.3,1.3,0.7,1.8s0.8,1,1.4,1.3
			s1.2,0.5,2,0.5s1.6-0.2,2.4-0.6s1.4-0.9,1.9-1.4v2.1c-0.2,0.3-0.5,0.5-1,0.8s-0.9,0.5-1.5,0.7s-1.1,0.3-1.7,0.3
			c-1.2,0-2.2-0.3-3.2-0.8s-1.6-1.3-2.2-2.2s-0.8-1.9-0.8-3.1s0.2-2.1,0.7-3.1s1.2-1.7,2-2.2S685.5,484.3,686.6,484.3z M686.6,486.2
			c-1,0-1.8,0.3-2.4,1s-1,1.4-1.2,2.4h7.1c-0.1-0.8-0.3-1.4-0.6-1.9s-0.8-0.8-1.3-1.1S687.2,486.2,686.6,486.2z"/>
		<path d="M697.1,484.5v2.3c0.5-0.8,1-1.4,1.6-1.9s1.3-0.7,2-0.7c0.5,0,0.9,0.1,1.2,0.2v2.2c-0.5-0.3-1-0.4-1.5-0.4
			c-0.8,0-1.4,0.3-1.9,0.8s-1,1.2-1.4,2v7.1h-1.9v-11.7h1.9V484.5z"/>
		<path d="M709.2,484.3c0.7,0,1.4,0.2,2.1,0.5s1.3,0.8,1.8,1.3v-1.6h1.9v11.7h-1.9v-2c-0.4,0.6-1,1.2-1.7,1.6s-1.5,0.7-2.4,0.7
			c-1,0-1.9-0.3-2.7-0.8s-1.5-1.2-2-2.1s-0.7-2-0.7-3.1c0-1.3,0.2-2.4,0.7-3.4s1.2-1.7,2-2.2S708.2,484.3,709.2,484.3z M709.6,486.2
			c-0.8,0-1.6,0.2-2.2,0.6s-1.1,1-1.4,1.6s-0.5,1.4-0.5,2.1c0,0.8,0.2,1.4,0.5,2.1s0.8,1.1,1.3,1.5s1.2,0.6,2,0.6
			c0.7,0,1.4-0.2,1.9-0.6s1-0.9,1.3-1.6s0.5-1.4,0.5-2.2v-2.2c-0.5-0.6-1-1.1-1.6-1.4S710.3,486.2,709.6,486.2z"/>
		<path d="M730.8,484.3c0.7,0,1.4,0.2,2.1,0.5s1.3,0.8,1.8,1.3v-1.6h1.9v11.7h-1.9v-2c-0.4,0.6-1,1.2-1.7,1.6s-1.5,0.7-2.4,0.7
			c-1,0-1.9-0.3-2.7-0.8s-1.5-1.2-2-2.1s-0.7-2-0.7-3.1c0-1.3,0.2-2.4,0.7-3.4s1.2-1.7,2-2.2S729.8,484.3,730.8,484.3z M731.2,486.2
			c-0.8,0-1.6,0.2-2.2,0.6s-1.1,1-1.4,1.6s-0.5,1.4-0.5,2.1c0,0.8,0.2,1.4,0.5,2.1s0.8,1.1,1.3,1.5s1.2,0.6,2,0.6
			c0.7,0,1.4-0.2,1.9-0.6s1-0.9,1.3-1.6s0.5-1.4,0.5-2.2v-2.2c-0.5-0.6-1-1.1-1.6-1.4S731.9,486.2,731.2,486.2z"/>
		<path d="M742.5,484.5v1.9c0.2-0.3,0.6-0.6,1-0.9s0.8-0.6,1.3-0.8s1-0.3,1.5-0.3c0.8,0,1.5,0.2,2.2,0.5s1.2,0.9,1.6,1.6
			s0.6,1.6,0.6,2.7v7.1h-1.9v-7c0-1-0.2-1.8-0.7-2.3s-1.1-0.8-2.1-0.8c-0.6,0-1.2,0.2-1.9,0.7s-1.2,1-1.6,1.6v7.8h-1.9v-11.7h1.9
			V484.5z"/>
		<path d="M764.9,479.4v16.9H763v-2c-0.4,0.6-1,1.2-1.7,1.6s-1.5,0.7-2.4,0.7c-1,0-1.9-0.3-2.7-0.8s-1.5-1.2-2-2.1s-0.7-2-0.7-3.1
			c0-1.3,0.2-2.4,0.7-3.4s1.2-1.7,2-2.2s1.8-0.8,2.9-0.8c0.7,0,1.4,0.2,2.1,0.5s1.3,0.8,1.8,1.3v-6.7h1.9V479.4z M759.5,486.2
			c-0.8,0-1.6,0.2-2.2,0.6s-1.1,0.9-1.4,1.6s-0.5,1.4-0.5,2.1c0,0.8,0.2,1.4,0.5,2.1s0.8,1.1,1.3,1.5s1.2,0.6,2,0.6
			c0.7,0,1.4-0.2,1.9-0.6s1-0.9,1.3-1.6s0.5-1.4,0.5-2.2v-2.2c-0.5-0.6-1-1.1-1.6-1.4S760.2,486.2,759.5,486.2z"/>
		<path d="M780.7,484.3c0.7,0,1.4,0.2,2.1,0.5s1.3,0.8,1.8,1.3v-1.6h1.9V496c0,1.4-0.3,2.5-0.8,3.5s-1.3,1.6-2.2,2.1s-2,0.7-3.1,0.7
			c-0.7,0-1.3-0.1-1.8-0.2s-0.9-0.4-1.3-0.6s-0.7-0.5-1-0.7v-2.1c0.2,0.2,0.5,0.4,0.9,0.7s0.8,0.5,1.4,0.7s1.1,0.3,1.8,0.3
			c0.8,0,1.5-0.1,2.1-0.4s1.2-0.7,1.5-1.2s0.6-1.2,0.6-2v-2.5c-0.4,0.6-1,1.2-1.7,1.6s-1.5,0.7-2.4,0.7c-1,0-1.9-0.3-2.7-0.8
			s-1.5-1.2-2-2.1s-0.7-2-0.7-3.1c0-1.3,0.2-2.4,0.7-3.4s1.2-1.7,2-2.2S779.7,484.3,780.7,484.3z M781.1,486.2
			c-0.8,0-1.6,0.2-2.2,0.6s-1.1,1-1.4,1.6s-0.5,1.4-0.5,2.1c0,0.8,0.2,1.4,0.5,2.1s0.8,1.1,1.3,1.5s1.2,0.6,2,0.6
			c0.7,0,1.4-0.2,1.9-0.6s1-0.9,1.3-1.5s0.5-1.4,0.5-2.2v-2.2c-0.5-0.6-1-1.1-1.6-1.4S781.8,486.2,781.1,486.2z"/>
		<path d="M796.4,484.3c1,0,1.9,0.2,2.8,0.7s1.5,1.2,2,2.1s0.7,1.9,0.7,3.1c0,1.3-0.2,2.4-0.7,3.4s-1.2,1.7-2,2.2s-1.8,0.8-2.9,0.8
			c-0.7,0-1.4-0.2-2.1-0.5s-1.3-0.8-1.8-1.4v7.2h-1.9v-17.3h1.9v2c0.4-0.6,1-1.2,1.7-1.6S795.6,484.3,796.4,484.3z M796.1,486.2
			c-0.7,0-1.3,0.2-1.9,0.5s-1,0.9-1.3,1.5s-0.5,1.4-0.5,2.2v2.2c0.5,0.6,1,1.1,1.6,1.5s1.2,0.6,1.9,0.6c0.8,0,1.6-0.2,2.2-0.7
			s1.1-1,1.4-1.7s0.5-1.4,0.5-2.2c0-0.8-0.2-1.4-0.5-2.1s-0.8-1.1-1.3-1.4S796.9,486.2,796.1,486.2z"/>
		<path d="M808.6,484.3c0.7,0,1.3,0.1,1.9,0.3s1,0.4,1.3,0.6v2.1c-0.3-0.2-0.8-0.5-1.3-0.7s-1.1-0.4-1.7-0.4c-0.7,0-1.3,0.2-1.7,0.5
			s-0.6,0.7-0.6,1.1c0,0.3,0.1,0.6,0.3,0.9s0.6,0.6,1.1,0.7l2,0.7c0.8,0.3,1.3,0.6,1.7,1.1s0.6,1.1,0.6,1.8c0,0.7-0.2,1.3-0.6,1.8
			s-0.9,1-1.5,1.3s-1.4,0.5-2.2,0.5c-0.5,0-0.9-0.1-1.4-0.2s-0.9-0.3-1.3-0.4s-0.7-0.3-0.9-0.4v-2.1c0.2,0.2,0.5,0.3,0.9,0.5
			s0.8,0.4,1.3,0.5s0.9,0.2,1.3,0.2c0.7,0,1.3-0.2,1.7-0.5s0.6-0.7,0.6-1.2c0-0.4-0.1-0.7-0.4-0.9s-0.7-0.4-1.3-0.6l-1.7-0.6
			c-0.9-0.3-1.5-0.8-1.8-1.3s-0.4-1.1-0.4-1.8c0-1,0.4-1.8,1.1-2.5S807.3,484.3,808.6,484.3z"/>
	</g>
	<g>
		<path d="M946.5,479.4v16.9h-1.9v-16.9H946.5z"/>
		<path d="M955.8,484.3c1.2,0,2.2,0.3,3.2,0.8s1.6,1.3,2.2,2.2s0.8,2,0.8,3.1s-0.3,2.1-0.8,3.1s-1.2,1.7-2.2,2.2s-2,0.8-3.2,0.8
			s-2.2-0.3-3.2-0.8s-1.6-1.3-2.2-2.2s-0.8-1.9-0.8-3.1s0.3-2.1,0.8-3.1s1.2-1.7,2.2-2.2S954.6,484.3,955.8,484.3z M955.8,486.2
			c-0.8,0-1.6,0.2-2.2,0.6s-1.1,0.9-1.4,1.6s-0.5,1.4-0.5,2.1c0,0.8,0.2,1.4,0.5,2.1s0.8,1.2,1.4,1.6s1.4,0.6,2.2,0.6
			s1.6-0.2,2.2-0.6s1.1-0.9,1.4-1.6s0.5-1.3,0.5-2.1c0-0.8-0.2-1.5-0.5-2.1s-0.8-1.2-1.4-1.6S956.7,486.2,955.8,486.2z"/>
		<path d="M970.4,484.3c1.2,0,2.2,0.3,3.2,0.8s1.6,1.3,2.2,2.2s0.8,2,0.8,3.1s-0.3,2.1-0.8,3.1s-1.2,1.7-2.2,2.2s-2,0.8-3.2,0.8
			s-2.2-0.3-3.2-0.8s-1.6-1.3-2.2-2.2s-0.8-1.9-0.8-3.1s0.3-2.1,0.8-3.1s1.2-1.7,2.2-2.2S969.2,484.3,970.4,484.3z M970.4,486.2
			c-0.8,0-1.6,0.2-2.2,0.6s-1.1,0.9-1.4,1.6s-0.5,1.4-0.5,2.1c0,0.8,0.2,1.4,0.5,2.1s0.8,1.2,1.4,1.6s1.4,0.6,2.2,0.6
			s1.6-0.2,2.2-0.6s1.1-0.9,1.4-1.6s0.5-1.3,0.5-2.1c0-0.8-0.2-1.5-0.5-2.1s-0.8-1.2-1.4-1.6S971.2,486.2,970.4,486.2z"/>
		<path d="M990,484.5l-5.4,5.1l5.7,6.6h-2.4l-4.6-5.3l-1.7,1.5v3.8h-1.9v-16.9h1.9v10.9l5.8-5.7H990z"/>
		<path d="M1004.3,484.3c0.7,0,1.4,0.2,2.1,0.5s1.3,0.8,1.8,1.3v-1.6h1.9v11.7h-1.9v-2c-0.4,0.6-1,1.2-1.7,1.6s-1.5,0.7-2.4,0.7
			c-1,0-1.9-0.3-2.7-0.8s-1.5-1.2-2-2.1s-0.7-2-0.7-3.1c0-1.3,0.2-2.4,0.7-3.4s1.2-1.7,2-2.2S1003.3,484.3,1004.3,484.3z
			 M1004.7,486.2c-0.8,0-1.6,0.2-2.2,0.6s-1.1,1-1.4,1.6s-0.5,1.4-0.5,2.1c0,0.8,0.2,1.4,0.5,2.1s0.8,1.1,1.3,1.5s1.2,0.6,2,0.6
			c0.7,0,1.4-0.2,1.9-0.6s1-0.9,1.3-1.6s0.5-1.4,0.5-2.2v-2.2c-0.5-0.6-1-1.1-1.6-1.4S1005.4,486.2,1004.7,486.2z"/>
		<path d="M1016,484.5v2.3c0.5-0.8,1-1.4,1.6-1.9s1.3-0.7,2-0.7c0.5,0,0.9,0.1,1.2,0.2v2.2c-0.5-0.3-1-0.4-1.5-0.4
			c-0.8,0-1.4,0.3-1.9,0.8s-1,1.2-1.4,2v7.1h-1.9v-11.7h1.9V484.5z"/>
		<path d="M1028.6,484.3c1.2,0,2.2,0.3,3.2,0.8s1.6,1.3,2.2,2.2s0.8,2,0.8,3.1s-0.3,2.1-0.8,3.1s-1.2,1.7-2.2,2.2s-2,0.8-3.2,0.8
			s-2.2-0.3-3.2-0.8s-1.6-1.3-2.2-2.2s-0.8-1.9-0.8-3.1s0.3-2.1,0.8-3.1s1.2-1.7,2.2-2.2S1027.4,484.3,1028.6,484.3z M1028.6,486.2
			c-0.8,0-1.6,0.2-2.2,0.6s-1.1,0.9-1.4,1.6s-0.5,1.4-0.5,2.1c0,0.8,0.2,1.4,0.5,2.1s0.8,1.2,1.4,1.6s1.4,0.6,2.2,0.6
			c0.8,0,1.6-0.2,2.2-0.6s1.1-0.9,1.4-1.6s0.5-1.3,0.5-2.1c0-0.8-0.2-1.5-0.5-2.1s-0.8-1.2-1.4-1.6S1029.4,486.2,1028.6,486.2z"/>
		<path d="M1047.4,484.5v6.9c0,1-0.2,1.9-0.7,2.7s-1,1.3-1.8,1.7s-1.6,0.6-2.5,0.6s-1.8-0.2-2.5-0.6s-1.3-1-1.8-1.7
			s-0.7-1.6-0.7-2.7v-6.9h2v6.9c0,1,0.3,1.8,0.9,2.3s1.3,0.8,2.1,0.8s1.5-0.3,2.1-0.8s0.9-1.3,0.9-2.3v-6.9H1047.4z"/>
		<path d="M1053,484.5v1.9c0.2-0.3,0.6-0.6,1-0.9s0.8-0.6,1.3-0.8s1-0.3,1.5-0.3c0.8,0,1.5,0.2,2.2,0.5s1.2,0.9,1.6,1.6
			s0.6,1.6,0.6,2.7v7.1h-1.9v-7c0-1-0.2-1.8-0.7-2.3s-1.1-0.8-2.1-0.8c-0.6,0-1.2,0.2-1.9,0.7s-1.2,1-1.6,1.6v7.8h-1.9v-11.7h1.9
			V484.5z"/>
		<path d="M1075.4,479.4v16.9h-1.9v-2c-0.4,0.6-1,1.2-1.7,1.6s-1.5,0.7-2.4,0.7c-1,0-1.9-0.3-2.7-0.8s-1.5-1.2-2-2.1s-0.7-2-0.7-3.1
			c0-1.3,0.2-2.4,0.7-3.4s1.2-1.7,2-2.2s1.8-0.8,2.9-0.8c0.7,0,1.4,0.2,2.1,0.5s1.3,0.8,1.8,1.3v-6.7h1.9V479.4z M1070,486.2
			c-0.8,0-1.6,0.2-2.2,0.6s-1.1,0.9-1.4,1.6s-0.5,1.4-0.5,2.1c0,0.8,0.2,1.4,0.5,2.1s0.8,1.1,1.3,1.5s1.2,0.6,2,0.6
			c0.7,0,1.4-0.2,1.9-0.6s1-0.9,1.3-1.6s0.5-1.4,0.5-2.2v-2.2c-0.5-0.6-1-1.1-1.6-1.4S1070.7,486.2,1070,486.2z"/>
	</g>
	<path class="st0" d="M2797.1,507.7h-187.8c-10.5,0-18.9-8.5-18.9-18.9l0,0c0-10.5,8.5-18.9,18.9-18.9h187.8
		c10.5,0,18.9,8.5,18.9,18.9l0,0C2816,499.3,2807.5,507.7,2797.1,507.7z"/>
	<g>
		<path d="M2639.5,479.4v16.9h-1.9v-16.9H2639.5z"/>
		<path d="M2648.8,484.3c1.2,0,2.2,0.3,3.2,0.8s1.6,1.3,2.2,2.2s0.8,2,0.8,3.1s-0.3,2.1-0.8,3.1s-1.2,1.7-2.2,2.2s-2,0.8-3.2,0.8
			s-2.2-0.3-3.2-0.8s-1.6-1.3-2.2-2.2s-0.8-1.9-0.8-3.1s0.3-2.1,0.8-3.1s1.2-1.7,2.2-2.2S2647.6,484.3,2648.8,484.3z M2648.8,486.2
			c-0.8,0-1.6,0.2-2.2,0.6s-1.1,0.9-1.4,1.6s-0.5,1.4-0.5,2.1c0,0.8,0.2,1.4,0.5,2.1s0.8,1.2,1.4,1.6s1.4,0.6,2.2,0.6
			s1.6-0.2,2.2-0.6s1.1-0.9,1.4-1.6s0.5-1.3,0.5-2.1c0-0.8-0.2-1.5-0.5-2.1s-0.8-1.2-1.4-1.6S2649.7,486.2,2648.8,486.2z"/>
		<path d="M2663.4,484.3c1.2,0,2.2,0.3,3.2,0.8s1.6,1.3,2.2,2.2s0.8,2,0.8,3.1s-0.3,2.1-0.8,3.1s-1.2,1.7-2.2,2.2s-2,0.8-3.2,0.8
			s-2.2-0.3-3.2-0.8s-1.6-1.3-2.2-2.2s-0.8-1.9-0.8-3.1s0.3-2.1,0.8-3.1s1.2-1.7,2.2-2.2S2662.2,484.3,2663.4,484.3z M2663.4,486.2
			c-0.8,0-1.6,0.2-2.2,0.6s-1.1,0.9-1.4,1.6s-0.5,1.4-0.5,2.1c0,0.8,0.2,1.4,0.5,2.1s0.8,1.2,1.4,1.6s1.4,0.6,2.2,0.6
			s1.6-0.2,2.2-0.6s1.1-0.9,1.4-1.6s0.5-1.3,0.5-2.1c0-0.8-0.2-1.5-0.5-2.1s-0.8-1.2-1.4-1.6S2664.2,486.2,2663.4,486.2z"/>
		<path d="M2683,484.5l-5.4,5.1l5.7,6.6h-2.4l-4.6-5.3l-1.7,1.5v3.8h-1.9v-16.9h1.9v10.9l5.8-5.7H2683z"/>
		<path d="M2697.3,484.3c0.7,0,1.4,0.2,2.1,0.5s1.3,0.8,1.8,1.3v-1.6h1.9v11.7h-1.9v-2c-0.4,0.6-1,1.2-1.7,1.6s-1.5,0.7-2.4,0.7
			c-1,0-1.9-0.3-2.7-0.8s-1.5-1.2-2-2.1s-0.7-2-0.7-3.1c0-1.3,0.2-2.4,0.7-3.4s1.2-1.7,2-2.2S2696.3,484.3,2697.3,484.3z
			 M2697.7,486.2c-0.8,0-1.6,0.2-2.2,0.6s-1.1,1-1.4,1.6s-0.5,1.4-0.5,2.1c0,0.8,0.2,1.4,0.5,2.1s0.8,1.1,1.3,1.5s1.2,0.6,2,0.6
			c0.7,0,1.4-0.2,1.9-0.6s1-0.9,1.3-1.6s0.5-1.4,0.5-2.2v-2.2c-0.5-0.6-1-1.1-1.6-1.4S2698.4,486.2,2697.7,486.2z"/>
		<path d="M2709,484.5v2.3c0.5-0.8,1-1.4,1.6-1.9s1.3-0.7,2-0.7c0.5,0,0.9,0.1,1.2,0.2v2.2c-0.5-0.3-1-0.4-1.5-0.4
			c-0.8,0-1.4,0.3-1.9,0.8s-1,1.2-1.4,2v7.1h-1.9v-11.7h1.9V484.5z"/>
		<path d="M2721.6,484.3c1.2,0,2.2,0.3,3.2,0.8s1.6,1.3,2.2,2.2s0.8,2,0.8,3.1s-0.3,2.1-0.8,3.1s-1.2,1.7-2.2,2.2s-2,0.8-3.2,0.8
			s-2.2-0.3-3.2-0.8s-1.6-1.3-2.2-2.2s-0.8-1.9-0.8-3.1s0.3-2.1,0.8-3.1s1.2-1.7,2.2-2.2S2720.4,484.3,2721.6,484.3z M2721.6,486.2
			c-0.8,0-1.6,0.2-2.2,0.6s-1.1,0.9-1.4,1.6s-0.5,1.4-0.5,2.1c0,0.8,0.2,1.4,0.5,2.1s0.8,1.2,1.4,1.6s1.4,0.6,2.2,0.6
			s1.6-0.2,2.2-0.6s1.1-0.9,1.4-1.6s0.5-1.3,0.5-2.1c0-0.8-0.2-1.5-0.5-2.1s-0.8-1.2-1.4-1.6S2722.4,486.2,2721.6,486.2z"/>
		<path d="M2740.4,484.5v6.9c0,1-0.2,1.9-0.7,2.7s-1,1.3-1.8,1.7s-1.6,0.6-2.5,0.6s-1.8-0.2-2.5-0.6s-1.3-1-1.8-1.7
			s-0.7-1.6-0.7-2.7v-6.9h2v6.9c0,1,0.3,1.8,0.9,2.3s1.3,0.8,2.1,0.8s1.5-0.3,2.1-0.8s0.9-1.3,0.9-2.3v-6.9H2740.4z"/>
		<path d="M2746,484.5v1.9c0.2-0.3,0.6-0.6,1-0.9s0.8-0.6,1.3-0.8s1-0.3,1.5-0.3c0.8,0,1.5,0.2,2.2,0.5s1.2,0.9,1.6,1.6
			s0.6,1.6,0.6,2.7v7.1h-1.9v-7c0-1-0.2-1.8-0.7-2.3s-1.1-0.8-2.1-0.8c-0.6,0-1.2,0.2-1.9,0.7s-1.2,1-1.6,1.6v7.8h-1.9v-11.7h1.9
			V484.5z"/>
		<path d="M2768.4,479.4v16.9h-1.9v-2c-0.4,0.6-1,1.2-1.7,1.6s-1.5,0.7-2.4,0.7c-1,0-1.9-0.3-2.7-0.8s-1.5-1.2-2-2.1s-0.7-2-0.7-3.1
			c0-1.3,0.2-2.4,0.7-3.4s1.2-1.7,2-2.2s1.8-0.8,2.9-0.8c0.7,0,1.4,0.2,2.1,0.5s1.3,0.8,1.8,1.3v-6.7h1.9V479.4z M2763,486.2
			c-0.8,0-1.6,0.2-2.2,0.6s-1.1,0.9-1.4,1.6s-0.5,1.4-0.5,2.1c0,0.8,0.2,1.4,0.5,2.1s0.8,1.1,1.3,1.5s1.2,0.6,2,0.6
			c0.7,0,1.4-0.2,1.9-0.6s1-0.9,1.3-1.6s0.5-1.4,0.5-2.2v-2.2c-0.5-0.6-1-1.1-1.6-1.4S2763.7,486.2,2763,486.2z"/>
	</g>
	<path class="st0" d="M1602.1,331.7h-326.8c-10.5,0-18.9-8.5-18.9-18.9l0,0c0-10.5,8.5-18.9,18.9-18.9h326.8
		c10.5,0,18.9,8.5,18.9,18.9l0,0C1621,323.3,1612.5,331.7,1602.1,331.7z"/>
	<path class="st0" d="M2020.1,331.7h-326.8c-10.5,0-18.9-8.5-18.9-18.9l0,0c0-10.5,8.5-18.9,18.9-18.9h326.8
		c10.5,0,18.9,8.5,18.9,18.9l0,0C2039,323.3,2030.5,331.7,2020.1,331.7z"/>
	<g>
		<path d="M1319,308.3c0.9,0,1.6,0.1,2.2,0.4s1.1,0.5,1.3,0.7v1.9c-0.4-0.3-0.9-0.6-1.5-0.9s-1.2-0.4-2-0.4s-1.6,0.2-2.2,0.6
			c-0.6,0.4-1.1,0.9-1.4,1.6s-0.5,1.4-0.5,2.1c0,0.8,0.2,1.4,0.5,2.1s0.8,1.2,1.4,1.6c0.6,0.4,1.4,0.6,2.2,0.6c0.8,0,1.5-0.1,2-0.4
			s1.1-0.5,1.5-0.9v1.9c-0.2,0.2-0.7,0.5-1.3,0.8c-0.6,0.3-1.4,0.4-2.2,0.4c-1.2,0-2.2-0.3-3.2-0.8s-1.6-1.3-2.2-2.2
			s-0.8-1.9-0.8-3.1s0.3-2.1,0.8-3.1s1.2-1.7,2.2-2.2S1317.8,308.3,1319,308.3z"/>
		<path d="M1327.6,303.4v16.9h-1.9v-16.9H1327.6z"/>
		<path d="M1334.6,308.5v11.7h-1.9v-9.9h-1.9v-1.8H1334.6z M1333.4,302.9c0.5,0,0.8,0.2,1.1,0.5c0.3,0.3,0.5,0.7,0.5,1.1
			s-0.2,0.8-0.5,1.1c-0.3,0.3-0.7,0.5-1.1,0.5s-0.8-0.2-1.1-0.5c-0.3-0.3-0.5-0.7-0.5-1.1c0-0.4,0.2-0.8,0.5-1.1
			C1332.6,303.1,1333,302.9,1333.4,302.9z"/>
		<path d="M1344.1,308.3c0.9,0,1.6,0.1,2.2,0.4s1.1,0.5,1.3,0.7v1.9c-0.4-0.3-0.9-0.6-1.5-0.9s-1.2-0.4-2-0.4s-1.6,0.2-2.2,0.6
			c-0.6,0.4-1.1,0.9-1.4,1.6s-0.5,1.4-0.5,2.1c0,0.8,0.2,1.4,0.5,2.1s0.8,1.2,1.4,1.6c0.6,0.4,1.4,0.6,2.2,0.6c0.8,0,1.5-0.1,2-0.4
			s1.1-0.5,1.5-0.9v1.9c-0.2,0.2-0.7,0.5-1.3,0.8c-0.6,0.3-1.4,0.4-2.2,0.4c-1.2,0-2.2-0.3-3.2-0.8s-1.6-1.3-2.2-2.2
			s-0.8-1.9-0.8-3.1s0.3-2.1,0.8-3.1s1.2-1.7,2.2-2.2S1342.9,308.3,1344.1,308.3z"/>
		<path d="M1361.1,308.5l-5.4,5.1l5.7,6.6h-2.4l-4.6-5.3l-1.7,1.5v3.8h-1.9v-16.9h1.9v10.9l5.8-5.7L1361.1,308.5L1361.1,308.5z"/>
		<path d="M1375.9,308.3c1.2,0,2.2,0.3,3.2,0.8s1.6,1.3,2.2,2.2s0.8,2,0.8,3.1s-0.3,2.1-0.8,3.1s-1.2,1.7-2.2,2.2s-2,0.8-3.2,0.8
			s-2.2-0.3-3.2-0.8s-1.6-1.3-2.2-2.2s-0.8-1.9-0.8-3.1s0.3-2.1,0.8-3.1s1.2-1.7,2.2-2.2S1374.7,308.3,1375.9,308.3z M1375.9,310.2
			c-0.8,0-1.6,0.2-2.2,0.6c-0.6,0.4-1.1,0.9-1.4,1.6s-0.5,1.4-0.5,2.1c0,0.8,0.2,1.4,0.5,2.1s0.8,1.2,1.4,1.6
			c0.6,0.4,1.4,0.6,2.2,0.6c0.8,0,1.6-0.2,2.2-0.6c0.6-0.4,1.1-0.9,1.4-1.6s0.5-1.3,0.5-2.1c0-0.8-0.2-1.5-0.5-2.1s-0.8-1.2-1.4-1.6
			C1377.5,310.4,1376.7,310.2,1375.9,310.2z"/>
		<path d="M1387.1,308.5v1.9c0.2-0.3,0.6-0.6,1-0.9s0.8-0.6,1.3-0.8c0.5-0.2,1-0.3,1.5-0.3c0.8,0,1.5,0.2,2.2,0.5
			c0.7,0.3,1.2,0.9,1.6,1.6s0.6,1.6,0.6,2.7v7.1h-1.9v-7c0-1-0.2-1.8-0.7-2.3s-1.1-0.8-2.1-0.8c-0.6,0-1.2,0.2-1.9,0.7
			s-1.2,1-1.6,1.6v7.8h-1.9v-11.7h1.9V308.5z"/>
		<path d="M1411.2,308.3c1.2,0,2.2,0.3,3.2,0.8s1.6,1.3,2.2,2.2s0.8,2,0.8,3.1s-0.3,2.1-0.8,3.1s-1.2,1.7-2.2,2.2s-2,0.8-3.2,0.8
			s-2.2-0.3-3.2-0.8s-1.6-1.3-2.2-2.2s-0.8-1.9-0.8-3.1s0.3-2.1,0.8-3.1s1.2-1.7,2.2-2.2S1410,308.3,1411.2,308.3z M1411.2,310.2
			c-0.8,0-1.6,0.2-2.2,0.6c-0.6,0.4-1.1,0.9-1.4,1.6s-0.5,1.4-0.5,2.1c0,0.8,0.2,1.4,0.5,2.1s0.8,1.2,1.4,1.6
			c0.6,0.4,1.4,0.6,2.2,0.6c0.8,0,1.6-0.2,2.2-0.6c0.6-0.4,1.1-0.9,1.4-1.6s0.5-1.3,0.5-2.1c0-0.8-0.2-1.5-0.5-2.1s-0.8-1.2-1.4-1.6
			C1412.8,310.4,1412,310.2,1411.2,310.2z"/>
		<path d="M1423.2,305.2v3.4h3.4v1.8h-3.4v6.9c0,0.5,0.1,0.9,0.4,1.1s0.6,0.4,1.1,0.4s0.9-0.1,1.2-0.2c0.3-0.1,0.6-0.2,0.8-0.4v1.6
			c-0.3,0.2-0.6,0.4-1,0.6s-0.8,0.2-1.4,0.2c-1,0-1.8-0.3-2.3-0.9c-0.5-0.6-0.8-1.4-0.8-2.4v-7h-2.2v-0.6c0.8-0.3,1.4-0.9,1.9-1.7
			c0.5-0.8,1-1.8,1.4-2.9L1423.2,305.2L1423.2,305.2z"/>
		<path d="M1435.9,308.3c0.8,0,1.5,0.2,2.2,0.5c0.7,0.3,1.2,0.9,1.6,1.6s0.6,1.6,0.6,2.7v7.1h-1.9v-7c0-1-0.2-1.8-0.7-2.3
			s-1.1-0.8-2.1-0.8c-0.6,0-1.2,0.2-1.9,0.7s-1.2,1-1.6,1.6v7.8h-1.9v-16.9h1.9v7c0.2-0.3,0.6-0.6,1-0.9s0.8-0.6,1.3-0.8
			C1434.9,308.4,1435.3,308.3,1435.9,308.3z"/>
		<path d="M1448.7,308.3c1.2,0,2.2,0.2,3,0.8s1.4,1.2,1.8,2c0.4,0.8,0.6,1.8,0.6,2.9v1.1h-9c0.1,0.7,0.3,1.3,0.7,1.8s0.8,1,1.4,1.3
			c0.6,0.3,1.2,0.5,2,0.5s1.6-0.2,2.4-0.6c0.8-0.4,1.4-0.9,1.9-1.4v2.1c-0.2,0.3-0.5,0.5-1,0.8c-0.5,0.3-0.9,0.5-1.5,0.7
			c-0.6,0.2-1.1,0.3-1.7,0.3c-1.2,0-2.2-0.3-3.2-0.8s-1.6-1.3-2.2-2.2s-0.8-1.9-0.8-3.1s0.2-2.1,0.7-3.1s1.2-1.7,2-2.2
			S1447.6,308.3,1448.7,308.3z M1448.7,310.2c-1,0-1.8,0.3-2.4,1c-0.6,0.7-1,1.4-1.2,2.4h7.1c-0.1-0.8-0.3-1.4-0.6-1.9
			s-0.8-0.8-1.3-1.1C1449.8,310.3,1449.2,310.2,1448.7,310.2z"/>
		<path d="M1459.2,308.5v2.3c0.5-0.8,1-1.4,1.6-1.9s1.3-0.7,2-0.7c0.5,0,0.9,0.1,1.2,0.2v2.2c-0.5-0.3-1-0.4-1.5-0.4
			c-0.8,0-1.4,0.3-1.9,0.8s-1,1.2-1.4,2v7.1h-1.9v-11.7L1459.2,308.5L1459.2,308.5z"/>
		<path d="M1469.9,308.3c0.7,0,1.3,0.1,1.9,0.3c0.6,0.2,1,0.4,1.3,0.6v2.1c-0.3-0.2-0.8-0.5-1.3-0.7c-0.5-0.2-1.1-0.4-1.7-0.4
			c-0.7,0-1.3,0.2-1.7,0.5c-0.4,0.3-0.6,0.7-0.6,1.1c0,0.3,0.1,0.6,0.3,0.9s0.6,0.6,1.1,0.7l2,0.7c0.8,0.3,1.3,0.6,1.7,1.1
			s0.6,1.1,0.6,1.8c0,0.7-0.2,1.3-0.6,1.8s-0.9,1-1.5,1.3c-0.6,0.3-1.4,0.5-2.2,0.5c-0.5,0-0.9-0.1-1.4-0.2
			c-0.5-0.1-0.9-0.3-1.3-0.4c-0.4-0.1-0.7-0.3-0.9-0.4v-2.1c0.2,0.2,0.5,0.3,0.9,0.5c0.4,0.2,0.8,0.4,1.3,0.5s0.9,0.2,1.3,0.2
			c0.7,0,1.3-0.2,1.7-0.5c0.4-0.3,0.6-0.7,0.6-1.2c0-0.4-0.1-0.7-0.4-0.9c-0.3-0.2-0.7-0.4-1.3-0.6l-1.7-0.6
			c-0.9-0.3-1.5-0.8-1.8-1.3s-0.4-1.1-0.4-1.8c0-1,0.4-1.8,1.1-2.5C1467.6,308.6,1468.7,308.3,1469.9,308.3z"/>
		<path d="M1477.1,304.1l1.9,0.7l-2.6,6l-1.5-0.4L1477.1,304.1z"/>
		<path d="M1494.2,308.3c1.1,0,2,0.3,2.9,0.8s1.5,1.2,2,2.2s0.7,2.1,0.7,3.4c0,1.2-0.2,2.2-0.7,3.1c-0.5,0.9-1.1,1.6-2,2.1
			s-1.7,0.8-2.8,0.8c-0.9,0-1.7-0.2-2.4-0.7s-1.2-1-1.7-1.6v2h-1.9v-16.9h1.9v6.7c0.5-0.6,1.1-1,1.8-1.3
			C1492.7,308.6,1493.6,308.3,1494.2,308.3z M1493.9,310.2c-0.7,0-1.4,0.2-1.9,0.5c-0.5,0.3-1.1,0.8-1.6,1.4v2.2
			c0,0.8,0.2,1.6,0.5,2.2c0.3,0.6,0.8,1.2,1.3,1.5c0.5,0.3,1.2,0.6,1.9,0.6c0.8,0,1.4-0.2,2-0.6c0.6-0.4,1-0.9,1.3-1.5
			s0.5-1.3,0.5-2.1c0-0.8-0.2-1.5-0.5-2.1s-0.8-1.2-1.4-1.6C1495.4,310.3,1494.7,310.2,1493.9,310.2z"/>
		<path d="M1507.9,308.3c0.7,0,1.4,0.2,2.1,0.5c0.7,0.3,1.3,0.8,1.8,1.3v-1.6h1.9v11.7h-1.9v-2c-0.4,0.6-1,1.2-1.7,1.6
			c-0.7,0.4-1.5,0.7-2.4,0.7c-1,0-1.9-0.3-2.7-0.8s-1.5-1.2-2-2.1c-0.5-0.9-0.7-2-0.7-3.1c0-1.3,0.2-2.4,0.7-3.4s1.2-1.7,2-2.2
			S1506.8,308.3,1507.9,308.3z M1508.2,310.2c-0.8,0-1.6,0.2-2.2,0.6c-0.6,0.4-1.1,1-1.4,1.6s-0.5,1.4-0.5,2.1
			c0,0.8,0.2,1.4,0.5,2.1s0.8,1.1,1.3,1.5s1.2,0.6,2,0.6c0.7,0,1.4-0.2,1.9-0.6c0.5-0.4,1-0.9,1.3-1.6s0.5-1.4,0.5-2.2v-2.2
			c-0.5-0.6-1-1.1-1.6-1.4S1508.9,310.2,1508.2,310.2z"/>
		<path d="M1519.6,303.4v16.9h-1.9v-16.9H1519.6z"/>
		<path d="M1525.5,303.4v16.9h-1.9v-16.9H1525.5z"/>
		<path d="M1534.7,308.3c1.2,0,2.2,0.3,3.2,0.8s1.6,1.3,2.2,2.2s0.8,2,0.8,3.1s-0.3,2.1-0.8,3.1s-1.2,1.7-2.2,2.2s-2,0.8-3.2,0.8
			s-2.2-0.3-3.2-0.8s-1.6-1.3-2.2-2.2s-0.8-1.9-0.8-3.1s0.3-2.1,0.8-3.1s1.2-1.7,2.2-2.2S1533.6,308.3,1534.7,308.3z M1534.7,310.2
			c-0.8,0-1.6,0.2-2.2,0.6c-0.6,0.4-1.1,0.9-1.4,1.6s-0.5,1.4-0.5,2.1c0,0.8,0.2,1.4,0.5,2.1s0.8,1.2,1.4,1.6
			c0.6,0.4,1.4,0.6,2.2,0.6c0.8,0,1.6-0.2,2.2-0.6c0.6-0.4,1.1-0.9,1.4-1.6s0.5-1.3,0.5-2.1c0-0.8-0.2-1.5-0.5-2.1s-0.8-1.2-1.4-1.6
			C1536.3,310.4,1535.6,310.2,1534.7,310.2z"/>
		<path d="M1549.3,308.3c1.2,0,2.2,0.3,3.2,0.8s1.6,1.3,2.2,2.2s0.8,2,0.8,3.1s-0.3,2.1-0.8,3.1s-1.2,1.7-2.2,2.2s-2,0.8-3.2,0.8
			s-2.2-0.3-3.2-0.8s-1.6-1.3-2.2-2.2s-0.8-1.9-0.8-3.1s0.3-2.1,0.8-3.1s1.2-1.7,2.2-2.2S1548.1,308.3,1549.3,308.3z M1549.3,310.2
			c-0.8,0-1.6,0.2-2.2,0.6c-0.6,0.4-1.1,0.9-1.4,1.6s-0.5,1.4-0.5,2.1c0,0.8,0.2,1.4,0.5,2.1s0.8,1.2,1.4,1.6
			c0.6,0.4,1.4,0.6,2.2,0.6c0.8,0,1.6-0.2,2.2-0.6c0.6-0.4,1.1-0.9,1.4-1.6s0.5-1.3,0.5-2.1c0-0.8-0.2-1.5-0.5-2.1s-0.8-1.2-1.4-1.6
			C1550.9,310.4,1550.2,310.2,1549.3,310.2z"/>
		<path d="M1560.5,308.5v1.9c0.2-0.3,0.6-0.6,1-0.9s0.8-0.6,1.3-0.8c0.5-0.2,1-0.3,1.5-0.3c0.8,0,1.5,0.2,2.2,0.5
			c0.7,0.3,1.2,0.9,1.6,1.6s0.6,1.6,0.6,2.7v7.1h-1.9v-7c0-1-0.2-1.8-0.7-2.3s-1.1-0.8-2.1-0.8c-0.6,0-1.2,0.2-1.9,0.7
			s-1.2,1-1.6,1.6v7.8h-1.9v-11.7h1.9V308.5z"/>
	</g>
	<path class="st0" d="M1602.1,507.7h-326.8c-10.5,0-18.9-8.5-18.9-18.9l0,0c0-10.5,8.5-18.9,18.9-18.9h326.8
		c10.5,0,18.9,8.5,18.9,18.9l0,0C1621,499.3,1612.5,507.7,1602.1,507.7z"/>
	<g>
		<path d="M1359.4,484.3c0.7,0,1.4,0.2,2.1,0.5s1.3,0.8,1.8,1.3v-1.6h1.9v11.7h-1.9v-2c-0.4,0.6-1,1.2-1.7,1.6s-1.5,0.7-2.4,0.7
			c-1,0-1.9-0.3-2.7-0.8s-1.5-1.2-2-2.1s-0.7-2-0.7-3.1c0-1.3,0.2-2.4,0.7-3.4s1.2-1.7,2-2.2S1358.4,484.3,1359.4,484.3z
			 M1359.8,486.2c-0.8,0-1.6,0.2-2.2,0.6s-1.1,1-1.4,1.6s-0.5,1.4-0.5,2.1c0,0.8,0.2,1.4,0.5,2.1s0.8,1.1,1.3,1.5s1.2,0.6,2,0.6
			c0.7,0,1.4-0.2,1.9-0.6s1-0.9,1.3-1.6s0.5-1.4,0.5-2.2v-2.2c-0.5-0.6-1-1.1-1.6-1.4S1360.5,486.2,1359.8,486.2z"/>
		<path d="M1379.8,479.4v16.9h-1.9v-2c-0.4,0.6-1,1.2-1.7,1.6s-1.5,0.7-2.4,0.7c-1,0-1.9-0.3-2.7-0.8s-1.5-1.2-2-2.1s-0.7-2-0.7-3.1
			c0-1.3,0.2-2.4,0.7-3.4s1.2-1.7,2-2.2s1.8-0.8,2.9-0.8c0.7,0,1.4,0.2,2.1,0.5s1.3,0.8,1.8,1.3v-6.7h1.9V479.4z M1374.4,486.2
			c-0.8,0-1.6,0.2-2.2,0.6s-1.1,0.9-1.4,1.6s-0.5,1.4-0.5,2.1c0,0.8,0.2,1.4,0.5,2.1s0.8,1.1,1.3,1.5s1.2,0.6,2,0.6
			c0.7,0,1.4-0.2,1.9-0.6s1-0.9,1.3-1.6s0.5-1.4,0.5-2.2v-2.2c-0.5-0.6-1-1.1-1.6-1.4S1375.1,486.2,1374.4,486.2z"/>
		<path d="M1394.4,479.4v16.9h-1.9v-2c-0.4,0.6-1,1.2-1.7,1.6s-1.5,0.7-2.4,0.7c-1,0-1.9-0.3-2.7-0.8s-1.5-1.2-2-2.1s-0.7-2-0.7-3.1
			c0-1.3,0.2-2.4,0.7-3.4s1.2-1.7,2-2.2s1.8-0.8,2.9-0.8c0.7,0,1.4,0.2,2.1,0.5s1.3,0.8,1.8,1.3v-6.7h1.9V479.4z M1389,486.2
			c-0.8,0-1.6,0.2-2.2,0.6s-1.1,0.9-1.4,1.6s-0.5,1.4-0.5,2.1c0,0.8,0.2,1.4,0.5,2.1s0.8,1.1,1.3,1.5s1.2,0.6,2,0.6
			c0.7,0,1.4-0.2,1.9-0.6s1-0.9,1.3-1.6s0.5-1.4,0.5-2.2v-2.2c-0.5-0.6-1-1.1-1.6-1.4S1389.7,486.2,1389,486.2z"/>
		<path d="M1407.3,484.5v1.5c0.4-0.4,0.9-0.8,1.4-1.2s1.3-0.6,2.1-0.6c0.8,0,1.6,0.2,2.4,0.6s1.3,1,1.7,1.8c0.5-0.7,1.1-1.2,1.8-1.7
			s1.4-0.7,2.2-0.7c0.8,0,1.5,0.2,2.2,0.5s1.3,0.9,1.7,1.6s0.6,1.6,0.6,2.7v7.1h-1.9v-7c0-1-0.3-1.8-0.8-2.3s-1.2-0.8-2.2-0.8
			c-0.7,0-1.3,0.2-1.8,0.6s-1,0.9-1.4,1.5v8h-1.9v-7c0-1-0.3-1.8-0.8-2.3s-1.2-0.8-2.2-0.8c-0.6,0-1.2,0.2-1.7,0.6s-1,0.8-1.4,1.4
			v8.2h-1.9v-11.7L1407.3,484.5L1407.3,484.5z"/>
		<path d="M1427.8,484.5l4.1,8.6l4-8.6h2.3l-8.6,17.3h-2.2l3.4-6.3l-5.2-11H1427.8z"/>
		<path d="M1453.3,484.3c1.1,0,2,0.3,2.9,0.8s1.5,1.2,2,2.2s0.7,2.1,0.7,3.4c0,1.2-0.2,2.2-0.7,3.1s-1.1,1.6-2,2.1s-1.7,0.8-2.8,0.8
			c-0.9,0-1.7-0.2-2.4-0.7s-1.2-1-1.7-1.6v2h-1.9v-16.9h1.9v6.7c0.5-0.6,1.1-1,1.8-1.3S1452.6,484.3,1453.3,484.3z M1452.9,486.2
			c-0.7,0-1.4,0.2-1.9,0.5s-1.1,0.8-1.6,1.4v2.2c0,0.8,0.2,1.6,0.5,2.2s0.8,1.2,1.3,1.5s1.2,0.6,1.9,0.6c0.8,0,1.4-0.2,2-0.6
			s1-0.9,1.3-1.5s0.5-1.3,0.5-2.1c0-0.8-0.2-1.5-0.5-2.1s-0.8-1.2-1.4-1.6S1453.8,486.2,1452.9,486.2z"/>
		<path d="M1466.9,484.3c0.7,0,1.4,0.2,2.1,0.5s1.3,0.8,1.8,1.3v-1.6h1.9v11.7h-1.9v-2c-0.4,0.6-1,1.2-1.7,1.6s-1.5,0.7-2.4,0.7
			c-1,0-1.9-0.3-2.7-0.8s-1.5-1.2-2-2.1s-0.7-2-0.7-3.1c0-1.3,0.2-2.4,0.7-3.4s1.2-1.7,2-2.2S1465.9,484.3,1466.9,484.3z
			 M1467.3,486.2c-0.8,0-1.6,0.2-2.2,0.6s-1.1,1-1.4,1.6s-0.5,1.4-0.5,2.1c0,0.8,0.2,1.4,0.5,2.1s0.8,1.1,1.3,1.5s1.2,0.6,2,0.6
			c0.7,0,1.4-0.2,1.9-0.6s1-0.9,1.3-1.6s0.5-1.4,0.5-2.2v-2.2c-0.5-0.6-1-1.1-1.6-1.4S1468,486.2,1467.3,486.2z"/>
		<path d="M1478.6,479.4v16.9h-1.9v-16.9H1478.6z"/>
		<path d="M1484.5,479.4v16.9h-1.9v-16.9H1484.5z"/>
		<path d="M1493.8,484.3c1.2,0,2.2,0.3,3.2,0.8s1.6,1.3,2.2,2.2s0.8,2,0.8,3.1s-0.3,2.1-0.8,3.1s-1.2,1.7-2.2,2.2s-2,0.8-3.2,0.8
			s-2.2-0.3-3.2-0.8s-1.6-1.3-2.2-2.2s-0.8-1.9-0.8-3.1s0.3-2.1,0.8-3.1s1.2-1.7,2.2-2.2S1492.6,484.3,1493.8,484.3z M1493.8,486.2
			c-0.8,0-1.6,0.2-2.2,0.6s-1.1,0.9-1.4,1.6s-0.5,1.4-0.5,2.1c0,0.8,0.2,1.4,0.5,2.1s0.8,1.2,1.4,1.6s1.4,0.6,2.2,0.6
			c0.8,0,1.6-0.2,2.2-0.6s1.1-0.9,1.4-1.6s0.5-1.3,0.5-2.1c0-0.8-0.2-1.5-0.5-2.1s-0.8-1.2-1.4-1.6S1494.6,486.2,1493.8,486.2z"/>
		<path d="M1508.4,484.3c1.2,0,2.2,0.3,3.2,0.8s1.6,1.3,2.2,2.2s0.8,2,0.8,3.1s-0.3,2.1-0.8,3.1s-1.2,1.7-2.2,2.2s-2,0.8-3.2,0.8
			s-2.2-0.3-3.2-0.8s-1.6-1.3-2.2-2.2s-0.8-1.9-0.8-3.1s0.3-2.1,0.8-3.1s1.2-1.7,2.2-2.2S1507.2,484.3,1508.4,484.3z M1508.4,486.2
			c-0.8,0-1.6,0.2-2.2,0.6s-1.1,0.9-1.4,1.6s-0.5,1.4-0.5,2.1c0,0.8,0.2,1.4,0.5,2.1s0.8,1.2,1.4,1.6s1.4,0.6,2.2,0.6
			c0.8,0,1.6-0.2,2.2-0.6s1.1-0.9,1.4-1.6s0.5-1.3,0.5-2.1c0-0.8-0.2-1.5-0.5-2.1s-0.8-1.2-1.4-1.6S1509.2,486.2,1508.4,486.2z"/>
		<path d="M1519.6,484.5v1.9c0.2-0.3,0.6-0.6,1-0.9s0.8-0.6,1.3-0.8s1-0.3,1.5-0.3c0.8,0,1.5,0.2,2.2,0.5s1.2,0.9,1.6,1.6
			s0.6,1.6,0.6,2.7v7.1h-1.9v-7c0-1-0.2-1.8-0.7-2.3s-1.1-0.8-2.1-0.8c-0.6,0-1.2,0.2-1.9,0.7s-1.2,1-1.6,1.6v7.8h-1.9v-11.7h1.9
			V484.5z"/>
	</g>
	<path class="st0" d="M1602.1,683.7h-326.8c-10.5,0-18.9-8.5-18.9-18.9l0,0c0-10.5,8.5-18.9,18.9-18.9h326.8
		c10.5,0,18.9,8.5,18.9,18.9l0,0C1621,675.3,1612.5,683.7,1602.1,683.7z"/>
	<g>
		<path d="M1297.4,660.5v2.3c0.5-0.8,1-1.4,1.6-1.9s1.3-0.7,2-0.7c0.5,0,0.9,0.1,1.2,0.2v2.2c-0.5-0.3-1-0.4-1.5-0.4
			c-0.8,0-1.4,0.3-1.9,0.8s-1,1.2-1.4,2v7.1h-1.9v-11.7h1.9V660.5z"/>
		<path d="M1309.5,660.3c1.2,0,2.2,0.2,3,0.8s1.4,1.2,1.8,2s0.6,1.8,0.6,2.9v1.1h-9c0.1,0.7,0.3,1.3,0.7,1.8s0.8,1,1.4,1.3
			s1.2,0.5,2,0.5s1.6-0.2,2.4-0.6s1.4-0.9,1.9-1.4v2.1c-0.2,0.3-0.5,0.5-1,0.8s-0.9,0.5-1.5,0.7s-1.1,0.3-1.7,0.3
			c-1.2,0-2.2-0.3-3.2-0.8s-1.6-1.3-2.2-2.2s-0.8-1.9-0.8-3.1s0.2-2.1,0.7-3.1s1.2-1.7,2-2.2S1308.4,660.3,1309.5,660.3z
			 M1309.5,662.2c-1,0-1.8,0.3-2.4,1s-1,1.4-1.2,2.4h7.1c-0.1-0.8-0.3-1.4-0.6-1.9s-0.8-0.8-1.3-1.1S1310,662.2,1309.5,662.2z"/>
		<path d="M1324,660.3c1,0,1.9,0.2,2.8,0.7s1.5,1.2,2,2.1s0.7,1.9,0.7,3.1c0,1.3-0.2,2.4-0.7,3.4s-1.2,1.7-2,2.2s-1.8,0.8-2.9,0.8
			c-0.7,0-1.4-0.2-2.1-0.5s-1.3-0.8-1.8-1.4v7.2h-1.9v-17.3h1.9v2c0.4-0.6,1-1.2,1.7-1.6S1323.1,660.3,1324,660.3z M1323.7,662.2
			c-0.7,0-1.3,0.2-1.9,0.5s-1,0.9-1.3,1.5s-0.5,1.4-0.5,2.2v2.2c0.5,0.6,1,1.1,1.6,1.5s1.2,0.6,1.9,0.6c0.8,0,1.6-0.2,2.2-0.7
			s1.1-1,1.4-1.7s0.5-1.4,0.5-2.2s-0.2-1.4-0.5-2.1s-0.8-1.1-1.3-1.4S1324.4,662.2,1323.7,662.2z"/>
		<path d="M1334.5,655.4v16.9h-1.9v-16.9H1334.5z"/>
		<path d="M1339.2,660.5l4.1,8.6l4-8.6h2.3l-8.6,17.3h-2.2l3.4-6.3l-5.2-11H1339.2z"/>
		<path d="M1362.2,657.2v3.4h3.4v1.8h-3.4v6.9c0,0.5,0.1,0.9,0.4,1.1s0.6,0.4,1.1,0.4s0.9-0.1,1.2-0.2s0.6-0.2,0.8-0.4v1.6
			c-0.3,0.2-0.6,0.4-1,0.6s-0.8,0.2-1.4,0.2c-1,0-1.8-0.3-2.3-0.9s-0.8-1.4-0.8-2.4v-7h-2.2v-0.6c0.8-0.3,1.4-0.9,1.9-1.7
			s1-1.8,1.4-2.9h0.9V657.2z"/>
		<path d="M1374.4,660.3c1.2,0,2.2,0.3,3.2,0.8s1.6,1.3,2.2,2.2s0.8,2,0.8,3.1s-0.3,2.1-0.8,3.1s-1.2,1.7-2.2,2.2s-2,0.8-3.2,0.8
			s-2.2-0.3-3.2-0.8s-1.6-1.3-2.2-2.2s-0.8-1.9-0.8-3.1s0.3-2.1,0.8-3.1s1.2-1.7,2.2-2.2S1373.2,660.3,1374.4,660.3z M1374.4,662.2
			c-0.8,0-1.6,0.2-2.2,0.6s-1.1,0.9-1.4,1.6s-0.5,1.4-0.5,2.1c0,0.8,0.2,1.4,0.5,2.1s0.8,1.2,1.4,1.6s1.4,0.6,2.2,0.6
			c0.8,0,1.6-0.2,2.2-0.6s1.1-0.9,1.4-1.6s0.5-1.3,0.5-2.1s-0.2-1.5-0.5-2.1s-0.8-1.2-1.4-1.6S1375.2,662.2,1374.4,662.2z"/>
		<path d="M1396,660.3c1.2,0,2.2,0.3,3.2,0.8s1.6,1.3,2.2,2.2s0.8,2,0.8,3.1s-0.3,2.1-0.8,3.1s-1.2,1.7-2.2,2.2s-2,0.8-3.2,0.8
			s-2.2-0.3-3.2-0.8s-1.6-1.3-2.2-2.2s-0.8-1.9-0.8-3.1s0.3-2.1,0.8-3.1s1.2-1.7,2.2-2.2S1394.8,660.3,1396,660.3z M1396,662.2
			c-0.8,0-1.6,0.2-2.2,0.6s-1.1,0.9-1.4,1.6s-0.5,1.4-0.5,2.1c0,0.8,0.2,1.4,0.5,2.1s0.8,1.2,1.4,1.6s1.4,0.6,2.2,0.6
			c0.8,0,1.6-0.2,2.2-0.6s1.1-0.9,1.4-1.6s0.5-1.3,0.5-2.1s-0.2-1.5-0.5-2.1s-0.8-1.2-1.4-1.6S1396.8,662.2,1396,662.2z"/>
		<path d="M1408,657.2v3.4h3.4v1.8h-3.4v6.9c0,0.5,0.1,0.9,0.4,1.1s0.6,0.4,1.1,0.4s0.9-0.1,1.2-0.2s0.6-0.2,0.8-0.4v1.6
			c-0.3,0.2-0.6,0.4-1,0.6s-0.8,0.2-1.4,0.2c-1,0-1.8-0.3-2.3-0.9s-0.8-1.4-0.8-2.4v-7h-2.2v-0.6c0.8-0.3,1.4-0.9,1.9-1.7
			s1-1.8,1.4-2.9h0.9V657.2z"/>
		<path d="M1420.7,660.3c0.8,0,1.5,0.2,2.2,0.5s1.2,0.9,1.6,1.6s0.6,1.6,0.6,2.7v7.1h-1.9v-7c0-1-0.2-1.8-0.7-2.3s-1.1-0.8-2.1-0.8
			c-0.6,0-1.2,0.2-1.9,0.7s-1.2,1-1.6,1.6v7.8h-1.9v-16.9h1.9v7c0.2-0.3,0.6-0.6,1-0.9s0.8-0.6,1.3-0.8S1420.1,660.3,1420.7,660.3z"
			/>
		<path d="M1433.5,660.3c1.2,0,2.2,0.2,3,0.8s1.4,1.2,1.8,2s0.6,1.8,0.6,2.9v1.1h-9c0.1,0.7,0.3,1.3,0.7,1.8s0.8,1,1.4,1.3
			s1.2,0.5,2,0.5s1.6-0.2,2.4-0.6s1.4-0.9,1.9-1.4v2.1c-0.2,0.3-0.5,0.5-1,0.8s-0.9,0.5-1.5,0.7s-1.1,0.3-1.7,0.3
			c-1.2,0-2.2-0.3-3.2-0.8s-1.6-1.3-2.2-2.2s-0.8-1.9-0.8-3.1s0.2-2.1,0.7-3.1s1.2-1.7,2-2.2S1432.4,660.3,1433.5,660.3z
			 M1433.5,662.2c-1,0-1.8,0.3-2.4,1s-1,1.4-1.2,2.4h7.1c-0.1-0.8-0.3-1.4-0.6-1.9s-0.8-0.8-1.3-1.1S1434,662.2,1433.5,662.2z"/>
		<path d="M1444,660.5v2.3c0.5-0.8,1-1.4,1.6-1.9s1.3-0.7,2-0.7c0.5,0,0.9,0.1,1.2,0.2v2.2c-0.5-0.3-1-0.4-1.5-0.4
			c-0.8,0-1.4,0.3-1.9,0.8s-1,1.2-1.4,2v7.1h-1.9v-11.7h1.9V660.5z"/>
		<path d="M1454.7,660.3c0.7,0,1.3,0.1,1.9,0.3s1,0.4,1.3,0.6v2.1c-0.3-0.2-0.8-0.5-1.3-0.7s-1.1-0.4-1.7-0.4
			c-0.7,0-1.3,0.2-1.7,0.5s-0.6,0.7-0.6,1.1c0,0.3,0.1,0.6,0.3,0.9s0.6,0.6,1.1,0.7l2,0.7c0.8,0.3,1.3,0.6,1.7,1.1s0.6,1.1,0.6,1.8
			s-0.2,1.3-0.6,1.8s-0.9,1-1.5,1.3s-1.4,0.5-2.2,0.5c-0.5,0-0.9-0.1-1.4-0.2s-0.9-0.3-1.3-0.4s-0.7-0.3-0.9-0.4v-2.1
			c0.2,0.2,0.5,0.3,0.9,0.5s0.8,0.4,1.3,0.5s0.9,0.2,1.3,0.2c0.7,0,1.3-0.2,1.7-0.5s0.6-0.7,0.6-1.2c0-0.4-0.1-0.7-0.4-0.9
			s-0.7-0.4-1.3-0.6l-1.7-0.6c-0.9-0.3-1.5-0.8-1.8-1.3s-0.4-1.1-0.4-1.8c0-1,0.4-1.8,1.1-2.5S1453.5,660.3,1454.7,660.3z"/>
		<path d="M1461.9,656.1l1.9,0.7l-2.6,6l-1.5-0.4L1461.9,656.1z"/>
		<path d="M1478.6,660.3c0.9,0,1.6,0.1,2.2,0.4s1.1,0.5,1.3,0.7v1.9c-0.4-0.3-0.9-0.6-1.5-0.9s-1.2-0.4-2-0.4s-1.6,0.2-2.2,0.6
			s-1.1,0.9-1.4,1.6s-0.5,1.4-0.5,2.1c0,0.8,0.2,1.4,0.5,2.1s0.8,1.2,1.4,1.6s1.4,0.6,2.2,0.6c0.8,0,1.5-0.1,2-0.4s1.1-0.5,1.5-0.9
			v1.9c-0.2,0.2-0.7,0.5-1.3,0.8s-1.4,0.4-2.2,0.4c-1.2,0-2.2-0.3-3.2-0.8s-1.6-1.3-2.2-2.2s-0.8-1.9-0.8-3.1s0.3-2.1,0.8-3.1
			s1.2-1.7,2.2-2.2S1477.4,660.3,1478.6,660.3z"/>
		<path d="M1490.5,660.3c1.2,0,2.2,0.3,3.2,0.8s1.6,1.3,2.2,2.2s0.8,2,0.8,3.1s-0.3,2.1-0.8,3.1s-1.2,1.7-2.2,2.2s-2,0.8-3.2,0.8
			s-2.2-0.3-3.2-0.8s-1.6-1.3-2.2-2.2s-0.8-1.9-0.8-3.1s0.3-2.1,0.8-3.1s1.2-1.7,2.2-2.2S1489.4,660.3,1490.5,660.3z M1490.5,662.2
			c-0.8,0-1.6,0.2-2.2,0.6s-1.1,0.9-1.4,1.6s-0.5,1.4-0.5,2.1c0,0.8,0.2,1.4,0.5,2.1s0.8,1.2,1.4,1.6s1.4,0.6,2.2,0.6
			c0.8,0,1.6-0.2,2.2-0.6s1.1-0.9,1.4-1.6s0.5-1.3,0.5-2.1s-0.2-1.5-0.5-2.1s-0.8-1.2-1.4-1.6S1491.4,662.2,1490.5,662.2z"/>
		<path d="M1501.8,660.5v1.5c0.4-0.4,0.9-0.8,1.4-1.2s1.3-0.6,2.1-0.6c0.8,0,1.6,0.2,2.4,0.6s1.3,1,1.7,1.8c0.5-0.7,1.1-1.2,1.8-1.7
			s1.4-0.7,2.2-0.7c0.8,0,1.5,0.2,2.2,0.5s1.3,0.9,1.7,1.6s0.6,1.6,0.6,2.7v7.1h-1.9v-7c0-1-0.3-1.8-0.8-2.3s-1.2-0.8-2.2-0.8
			c-0.7,0-1.3,0.2-1.8,0.6s-1,0.9-1.4,1.5v8h-1.9v-7c0-1-0.3-1.8-0.8-2.3s-1.2-0.8-2.2-0.8c-0.6,0-1.2,0.2-1.7,0.6s-1,0.8-1.4,1.4
			v8.2h-1.9v-11.7L1501.8,660.5L1501.8,660.5z"/>
		<path d="M1523.5,660.5v1.5c0.4-0.4,0.9-0.8,1.4-1.2s1.3-0.6,2.1-0.6c0.8,0,1.6,0.2,2.4,0.6s1.3,1,1.7,1.8c0.5-0.7,1.1-1.2,1.8-1.7
			s1.4-0.7,2.2-0.7c0.8,0,1.5,0.2,2.2,0.5s1.3,0.9,1.7,1.6s0.6,1.6,0.6,2.7v7.1h-1.9v-7c0-1-0.3-1.8-0.8-2.3s-1.2-0.8-2.2-0.8
			c-0.7,0-1.3,0.2-1.8,0.6s-1,0.9-1.4,1.5v8h-1.9v-7c0-1-0.3-1.8-0.8-2.3s-1.2-0.8-2.2-0.8c-0.6,0-1.2,0.2-1.7,0.6s-1,0.8-1.4,1.4
			v8.2h-1.9v-11.7L1523.5,660.5L1523.5,660.5z"/>
		<path d="M1548.1,660.3c1.2,0,2.2,0.2,3,0.8s1.4,1.2,1.8,2s0.6,1.8,0.6,2.9v1.1h-9c0.1,0.7,0.3,1.3,0.7,1.8s0.8,1,1.4,1.3
			s1.2,0.5,2,0.5s1.6-0.2,2.4-0.6s1.4-0.9,1.9-1.4v2.1c-0.2,0.3-0.5,0.5-1,0.8s-0.9,0.5-1.5,0.7s-1.1,0.3-1.7,0.3
			c-1.2,0-2.2-0.3-3.2-0.8s-1.6-1.3-2.2-2.2s-0.8-1.9-0.8-3.1s0.2-2.1,0.7-3.1s1.2-1.7,2-2.2S1547,660.3,1548.1,660.3z
			 M1548.1,662.2c-1,0-1.8,0.3-2.4,1s-1,1.4-1.2,2.4h7.1c-0.1-0.8-0.3-1.4-0.6-1.9s-0.8-0.8-1.3-1.1S1548.7,662.2,1548.1,662.2z"/>
		<path d="M1558.6,660.5v1.9c0.2-0.3,0.6-0.6,1-0.9s0.8-0.6,1.3-0.8s1-0.3,1.5-0.3c0.8,0,1.5,0.2,2.2,0.5s1.2,0.9,1.6,1.6
			s0.6,1.6,0.6,2.7v7.1h-1.9v-7c0-1-0.2-1.8-0.7-2.3s-1.1-0.8-2.1-0.8c-0.6,0-1.2,0.2-1.9,0.7s-1.2,1-1.6,1.6v7.8h-1.9v-11.7
			L1558.6,660.5L1558.6,660.5z"/>
		<path d="M1573.6,657.2v3.4h3.4v1.8h-3.4v6.9c0,0.5,0.1,0.9,0.4,1.1s0.6,0.4,1.1,0.4s0.9-0.1,1.2-0.2s0.6-0.2,0.8-0.4v1.6
			c-0.3,0.2-0.6,0.4-1,0.6s-0.8,0.2-1.4,0.2c-1,0-1.8-0.3-2.3-0.9s-0.8-1.4-0.8-2.4v-7h-2.2v-0.6c0.8-0.3,1.4-0.9,1.9-1.7
			s1-1.8,1.4-2.9h0.9V657.2z"/>
		<path d="M1584,660.3c0.7,0,1.3,0.1,1.9,0.3s1,0.4,1.3,0.6v2.1c-0.3-0.2-0.8-0.5-1.3-0.7s-1.1-0.4-1.7-0.4c-0.7,0-1.3,0.2-1.7,0.5
			s-0.6,0.7-0.6,1.1c0,0.3,0.1,0.6,0.3,0.9s0.6,0.6,1.1,0.7l2,0.7c0.8,0.3,1.3,0.6,1.7,1.1s0.6,1.1,0.6,1.8s-0.2,1.3-0.6,1.8
			s-0.9,1-1.5,1.3s-1.4,0.5-2.2,0.5c-0.5,0-0.9-0.1-1.4-0.2s-0.9-0.3-1.3-0.4s-0.7-0.3-0.9-0.4v-2.1c0.2,0.2,0.5,0.3,0.9,0.5
			s0.8,0.4,1.3,0.5s0.9,0.2,1.3,0.2c0.7,0,1.3-0.2,1.7-0.5s0.6-0.7,0.6-1.2c0-0.4-0.1-0.7-0.4-0.9s-0.7-0.4-1.3-0.6l-1.7-0.6
			c-0.9-0.3-1.5-0.8-1.8-1.3s-0.4-1.1-0.4-1.8c0-1,0.4-1.8,1.1-2.5S1582.8,660.3,1584,660.3z"/>
	</g>
	<path class="st0" d="M2020.1,507.7h-326.8c-10.5,0-18.9-8.5-18.9-18.9l0,0c0-10.5,8.5-18.9,18.9-18.9h326.8
		c10.5,0,18.9,8.5,18.9,18.9l0,0C2039,499.3,2030.5,507.7,2020.1,507.7z"/>
	<g>
		<path d="M1783.9,484.3c1.2,0,2.2,0.2,3,0.8s1.4,1.2,1.8,2s0.6,1.8,0.6,2.9v1.1h-9c0.1,0.7,0.3,1.3,0.7,1.8s0.8,1,1.4,1.3
			s1.2,0.5,2,0.5s1.6-0.2,2.4-0.6s1.4-0.9,1.9-1.4v2.1c-0.2,0.3-0.5,0.5-1,0.8s-0.9,0.5-1.5,0.7s-1.1,0.3-1.7,0.3
			c-1.2,0-2.2-0.3-3.2-0.8s-1.6-1.3-2.2-2.2s-0.8-1.9-0.8-3.1s0.2-2.1,0.7-3.1s1.2-1.7,2-2.2S1782.8,484.3,1783.9,484.3z
			 M1783.9,486.2c-1,0-1.8,0.3-2.4,1s-1,1.4-1.2,2.4h7.1c-0.1-0.8-0.3-1.4-0.6-1.9s-0.8-0.8-1.3-1.1S1784.5,486.2,1783.9,486.2z"/>
		<path d="M1803.1,479.4v16.9h-1.9v-2c-0.4,0.6-1,1.2-1.7,1.6s-1.5,0.7-2.4,0.7c-1,0-1.9-0.3-2.7-0.8s-1.5-1.2-2-2.1s-0.7-2-0.7-3.1
			c0-1.3,0.2-2.4,0.7-3.4s1.2-1.7,2-2.2s1.8-0.8,2.9-0.8c0.7,0,1.4,0.2,2.1,0.5s1.3,0.8,1.8,1.3v-6.7h1.9V479.4z M1797.7,486.2
			c-0.8,0-1.6,0.2-2.2,0.6s-1.1,0.9-1.4,1.6s-0.5,1.4-0.5,2.1c0,0.8,0.2,1.4,0.5,2.1s0.8,1.1,1.3,1.5s1.2,0.6,2,0.6
			c0.7,0,1.4-0.2,1.9-0.6s1-0.9,1.3-1.6s0.5-1.4,0.5-2.2v-2.2c-0.5-0.6-1-1.1-1.6-1.4S1798.4,486.2,1797.7,486.2z"/>
		<path d="M1810.1,484.5v11.7h-1.9v-9.9h-1.9v-1.8L1810.1,484.5L1810.1,484.5z M1808.9,478.9c0.5,0,0.8,0.2,1.1,0.5s0.5,0.7,0.5,1.1
			s-0.2,0.8-0.5,1.1s-0.7,0.5-1.1,0.5s-0.8-0.2-1.1-0.5s-0.5-0.7-0.5-1.1s0.2-0.8,0.5-1.1S1808.5,478.9,1808.9,478.9z"/>
		<path d="M1817.5,481.2v3.4h3.4v1.8h-3.4v6.9c0,0.5,0.1,0.9,0.4,1.1s0.6,0.4,1.1,0.4s0.9-0.1,1.2-0.2s0.6-0.2,0.8-0.4v1.6
			c-0.3,0.2-0.6,0.4-1,0.6s-0.8,0.2-1.4,0.2c-1,0-1.8-0.3-2.3-0.9s-0.8-1.4-0.8-2.4v-7h-2.2v-0.6c0.8-0.3,1.4-0.9,1.9-1.7
			s1-1.8,1.4-2.9h0.9V481.2z"/>
		<path d="M1833.4,484.5v1.5c0.4-0.4,0.9-0.8,1.4-1.2s1.3-0.6,2.1-0.6c0.8,0,1.6,0.2,2.4,0.6s1.3,1,1.7,1.8c0.5-0.7,1.1-1.2,1.8-1.7
			s1.4-0.7,2.2-0.7c0.8,0,1.5,0.2,2.2,0.5s1.3,0.9,1.7,1.6s0.6,1.6,0.6,2.7v7.1h-1.9v-7c0-1-0.3-1.8-0.8-2.3s-1.2-0.8-2.2-0.8
			c-0.7,0-1.3,0.2-1.8,0.6s-1,0.9-1.4,1.5v8h-1.9v-7c0-1-0.3-1.8-0.8-2.3s-1.2-0.8-2.2-0.8c-0.6,0-1.2,0.2-1.7,0.6s-1,0.8-1.4,1.4
			v8.2h-1.9v-11.7L1833.4,484.5L1833.4,484.5z"/>
		<path d="M1853.9,484.5l4.1,8.6l4-8.6h2.3l-8.6,17.3h-2.2l3.4-6.3l-5.2-11H1853.9z"/>
		<path d="M1879.4,484.3c1.1,0,2,0.3,2.9,0.8s1.5,1.2,2,2.2s0.7,2.1,0.7,3.4c0,1.2-0.2,2.2-0.7,3.1s-1.1,1.6-2,2.1s-1.7,0.8-2.8,0.8
			c-0.9,0-1.7-0.2-2.4-0.7s-1.2-1-1.7-1.6v2h-1.9v-16.9h1.9v6.7c0.5-0.6,1.1-1,1.8-1.3S1878.7,484.3,1879.4,484.3z M1879,486.2
			c-0.7,0-1.4,0.2-1.9,0.5s-1.1,0.8-1.6,1.4v2.2c0,0.8,0.2,1.6,0.5,2.2s0.8,1.2,1.3,1.5s1.2,0.6,1.9,0.6c0.8,0,1.4-0.2,2-0.6
			s1-0.9,1.3-1.5s0.5-1.3,0.5-2.1c0-0.8-0.2-1.5-0.5-2.1s-0.8-1.2-1.4-1.6S1879.9,486.2,1879,486.2z"/>
		<path d="M1893,484.3c0.7,0,1.4,0.2,2.1,0.5s1.3,0.8,1.8,1.3v-1.6h1.9v11.7h-1.9v-2c-0.4,0.6-1,1.2-1.7,1.6s-1.5,0.7-2.4,0.7
			c-1,0-1.9-0.3-2.7-0.8s-1.5-1.2-2-2.1s-0.7-2-0.7-3.1c0-1.3,0.2-2.4,0.7-3.4s1.2-1.7,2-2.2S1892,484.3,1893,484.3z M1893.4,486.2
			c-0.8,0-1.6,0.2-2.2,0.6s-1.1,1-1.4,1.6s-0.5,1.4-0.5,2.1c0,0.8,0.2,1.4,0.5,2.1s0.8,1.1,1.3,1.5s1.2,0.6,2,0.6
			c0.7,0,1.4-0.2,1.9-0.6s1-0.9,1.3-1.6s0.5-1.4,0.5-2.2v-2.2c-0.5-0.6-1-1.1-1.6-1.4S1894.1,486.2,1893.4,486.2z"/>
		<path d="M1904.7,479.4v16.9h-1.9v-16.9H1904.7z"/>
		<path d="M1910.6,479.4v16.9h-1.9v-16.9H1910.6z"/>
		<path d="M1919.9,484.3c1.2,0,2.2,0.3,3.2,0.8s1.6,1.3,2.2,2.2s0.8,2,0.8,3.1s-0.3,2.1-0.8,3.1s-1.2,1.7-2.2,2.2s-2,0.8-3.2,0.8
			s-2.2-0.3-3.2-0.8s-1.6-1.3-2.2-2.2s-0.8-1.9-0.8-3.1s0.3-2.1,0.8-3.1s1.2-1.7,2.2-2.2S1918.7,484.3,1919.9,484.3z M1919.9,486.2
			c-0.8,0-1.6,0.2-2.2,0.6s-1.1,0.9-1.4,1.6s-0.5,1.4-0.5,2.1c0,0.8,0.2,1.4,0.5,2.1s0.8,1.2,1.4,1.6s1.4,0.6,2.2,0.6
			c0.8,0,1.6-0.2,2.2-0.6s1.1-0.9,1.4-1.6s0.5-1.3,0.5-2.1c0-0.8-0.2-1.5-0.5-2.1s-0.8-1.2-1.4-1.6S1920.7,486.2,1919.9,486.2z"/>
		<path d="M1931.1,484.5v1.9c0.2-0.3,0.6-0.6,1-0.9s0.8-0.6,1.3-0.8s1-0.3,1.5-0.3c0.8,0,1.5,0.2,2.2,0.5s1.2,0.9,1.6,1.6
			s0.6,1.6,0.6,2.7v7.1h-1.9v-7c0-1-0.2-1.8-0.7-2.3s-1.1-0.8-2.1-0.8c-0.6,0-1.2,0.2-1.9,0.7s-1.2,1-1.6,1.6v7.8h-1.9v-11.7h1.9
			V484.5z"/>
	</g>
	<path class="st0" d="M2438.1,507.7h-326.8c-10.5,0-18.9-8.5-18.9-18.9l0,0c0-10.5,8.5-18.9,18.9-18.9h326.8
		c10.5,0,18.9,8.5,18.9,18.9l0,0C2457,499.3,2448.5,507.7,2438.1,507.7z"/>
	<g>
		<path d="M2256.6,484.3c0.7,0,1.3,0.1,1.9,0.3s1,0.4,1.3,0.6v2.1c-0.3-0.2-0.8-0.5-1.3-0.7s-1.1-0.4-1.7-0.4
			c-0.7,0-1.3,0.2-1.7,0.5s-0.6,0.7-0.6,1.1c0,0.3,0.1,0.6,0.3,0.9s0.6,0.6,1.1,0.7l2,0.7c0.8,0.3,1.3,0.6,1.7,1.1s0.6,1.1,0.6,1.8
			c0,0.7-0.2,1.3-0.6,1.8s-0.9,1-1.5,1.3s-1.4,0.5-2.2,0.5c-0.5,0-0.9-0.1-1.4-0.2s-0.9-0.3-1.3-0.4s-0.7-0.3-0.9-0.4v-2.1
			c0.2,0.2,0.5,0.3,0.9,0.5s0.8,0.4,1.3,0.5s0.9,0.2,1.3,0.2c0.7,0,1.3-0.2,1.7-0.5s0.6-0.7,0.6-1.2c0-0.4-0.1-0.7-0.4-0.9
			s-0.7-0.4-1.3-0.6l-1.7-0.6c-0.9-0.3-1.5-0.8-1.8-1.3s-0.4-1.1-0.4-1.8c0-1,0.4-1.8,1.1-2.5S2255.4,484.3,2256.6,484.3z"/>
		<path d="M2268,484.3c1.2,0,2.2,0.2,3,0.8s1.4,1.2,1.8,2s0.6,1.8,0.6,2.9v1.1h-9c0.1,0.7,0.3,1.3,0.7,1.8s0.8,1,1.4,1.3
			s1.2,0.5,2,0.5s1.6-0.2,2.4-0.6s1.4-0.9,1.9-1.4v2.1c-0.2,0.3-0.5,0.5-1,0.8s-0.9,0.5-1.5,0.7s-1.1,0.3-1.7,0.3
			c-1.2,0-2.2-0.3-3.2-0.8s-1.6-1.3-2.2-2.2s-0.8-1.9-0.8-3.1s0.2-2.1,0.7-3.1s1.2-1.7,2-2.2S2266.9,484.3,2268,484.3z M2268,486.2
			c-1,0-1.8,0.3-2.4,1s-1,1.4-1.2,2.4h7.1c-0.1-0.8-0.3-1.4-0.6-1.9s-0.8-0.8-1.3-1.1S2268.5,486.2,2268,486.2z"/>
		<path d="M2278.5,484.5v1.9c0.2-0.3,0.6-0.6,1-0.9s0.8-0.6,1.3-0.8s1-0.3,1.5-0.3c0.8,0,1.5,0.2,2.2,0.5s1.2,0.9,1.6,1.6
			s0.6,1.6,0.6,2.7v7.1h-1.9v-7c0-1-0.2-1.8-0.7-2.3s-1.1-0.8-2.1-0.8c-0.6,0-1.2,0.2-1.9,0.7s-1.2,1-1.6,1.6v7.8h-1.9v-11.7h1.9
			V484.5z"/>
		<path d="M2300.9,479.4v16.9h-1.9v-2c-0.4,0.6-1,1.2-1.7,1.6s-1.5,0.7-2.4,0.7c-1,0-1.9-0.3-2.7-0.8s-1.5-1.2-2-2.1s-0.7-2-0.7-3.1
			c0-1.3,0.2-2.4,0.7-3.4s1.2-1.7,2-2.2s1.8-0.8,2.9-0.8c0.7,0,1.4,0.2,2.1,0.5s1.3,0.8,1.8,1.3v-6.7h1.9V479.4z M2295.4,486.2
			c-0.8,0-1.6,0.2-2.2,0.6s-1.1,0.9-1.4,1.6s-0.5,1.4-0.5,2.1c0,0.8,0.2,1.4,0.5,2.1s0.8,1.1,1.3,1.5s1.2,0.6,2,0.6
			c0.7,0,1.4-0.2,1.9-0.6s1-0.9,1.3-1.6s0.5-1.4,0.5-2.2v-2.2c-0.5-0.6-1-1.1-1.6-1.4S2296.2,486.2,2295.4,486.2z"/>
	</g>
	<g>
		<path d="M1761.6,308.5v2.3c0.5-0.8,1-1.4,1.6-1.9s1.3-0.7,2-0.7c0.5,0,0.9,0.1,1.2,0.2v2.2c-0.5-0.3-1-0.4-1.5-0.4
			c-0.8,0-1.4,0.3-1.9,0.8s-1,1.2-1.4,2v7.1h-1.9v-11.7L1761.6,308.5L1761.6,308.5z"/>
		<path d="M1773.7,308.3c1.2,0,2.2,0.2,3,0.8s1.4,1.2,1.8,2c0.4,0.8,0.6,1.8,0.6,2.9v1.1h-9c0.1,0.7,0.3,1.3,0.7,1.8s0.8,1,1.4,1.3
			c0.6,0.3,1.2,0.5,2,0.5s1.6-0.2,2.4-0.6c0.8-0.4,1.4-0.9,1.9-1.4v2.1c-0.2,0.3-0.5,0.5-1,0.8c-0.5,0.3-0.9,0.5-1.5,0.7
			c-0.6,0.2-1.1,0.3-1.7,0.3c-1.2,0-2.2-0.3-3.2-0.8s-1.6-1.3-2.2-2.2s-0.8-1.9-0.8-3.1s0.2-2.1,0.7-3.1s1.2-1.7,2-2.2
			S1772.6,308.3,1773.7,308.3z M1773.7,310.2c-1,0-1.8,0.3-2.4,1c-0.6,0.7-1,1.4-1.2,2.4h7.1c-0.1-0.8-0.3-1.4-0.6-1.9
			s-0.8-0.8-1.3-1.1C1774.8,310.3,1774.2,310.2,1773.7,310.2z"/>
		<path d="M1787.1,308.3c0.7,0,1.4,0.2,2.1,0.5c0.7,0.3,1.3,0.8,1.8,1.3v-1.6h1.9v11.7h-1.9v-2c-0.4,0.6-1,1.2-1.7,1.6
			c-0.7,0.4-1.5,0.7-2.4,0.7c-1,0-1.9-0.3-2.7-0.8s-1.5-1.2-2-2.1c-0.5-0.9-0.7-2-0.7-3.1c0-1.3,0.2-2.4,0.7-3.4s1.2-1.7,2-2.2
			S1786,308.3,1787.1,308.3z M1787.4,310.2c-0.8,0-1.6,0.2-2.2,0.6c-0.6,0.4-1.1,1-1.4,1.6s-0.5,1.4-0.5,2.1c0,0.8,0.2,1.4,0.5,2.1
			s0.8,1.1,1.3,1.5s1.2,0.6,2,0.6c0.7,0,1.4-0.2,1.9-0.6c0.5-0.4,1-0.9,1.3-1.6s0.5-1.4,0.5-2.2v-2.2c-0.5-0.6-1-1.1-1.6-1.4
			S1788.1,310.2,1787.4,310.2z"/>
		<path d="M1807.4,303.4v16.9h-1.9v-2c-0.4,0.6-1,1.2-1.7,1.6c-0.7,0.4-1.5,0.7-2.4,0.7c-1,0-1.9-0.3-2.7-0.8s-1.5-1.2-2-2.1
			c-0.5-0.9-0.7-2-0.7-3.1c0-1.3,0.2-2.4,0.7-3.4s1.2-1.7,2-2.2s1.8-0.8,2.9-0.8c0.7,0,1.4,0.2,2.1,0.5c0.7,0.3,1.3,0.8,1.8,1.3
			v-6.7h1.9V303.4z M1802,310.2c-0.8,0-1.6,0.2-2.2,0.6c-0.6,0.4-1.1,0.9-1.4,1.6s-0.5,1.4-0.5,2.1c0,0.8,0.2,1.4,0.5,2.1
			s0.8,1.1,1.3,1.5s1.2,0.6,2,0.6c0.7,0,1.4-0.2,1.9-0.6c0.5-0.4,1-0.9,1.3-1.6s0.5-1.4,0.5-2.2v-2.2c-0.5-0.6-1-1.1-1.6-1.4
			S1802.7,310.2,1802,310.2z"/>
		<path d="M1823.7,308.3c1.2,0,2.2,0.3,3.2,0.8s1.6,1.3,2.2,2.2s0.8,2,0.8,3.1s-0.3,2.1-0.8,3.1s-1.2,1.7-2.2,2.2s-2,0.8-3.2,0.8
			s-2.2-0.3-3.2-0.8s-1.6-1.3-2.2-2.2s-0.8-1.9-0.8-3.1s0.3-2.1,0.8-3.1s1.2-1.7,2.2-2.2S1822.5,308.3,1823.7,308.3z M1823.7,310.2
			c-0.8,0-1.6,0.2-2.2,0.6c-0.6,0.4-1.1,0.9-1.4,1.6s-0.5,1.4-0.5,2.1c0,0.8,0.2,1.4,0.5,2.1s0.8,1.2,1.4,1.6
			c0.6,0.4,1.4,0.6,2.2,0.6c0.8,0,1.6-0.2,2.2-0.6c0.6-0.4,1.1-0.9,1.4-1.6s0.5-1.3,0.5-2.1c0-0.8-0.2-1.5-0.5-2.1s-0.8-1.2-1.4-1.6
			C1825.3,310.4,1824.6,310.2,1823.7,310.2z"/>
		<path d="M1835.8,305.2v3.4h3.4v1.8h-3.4v6.9c0,0.5,0.1,0.9,0.4,1.1s0.6,0.4,1.1,0.4s0.9-0.1,1.2-0.2c0.3-0.1,0.6-0.2,0.8-0.4v1.6
			c-0.3,0.2-0.6,0.4-1,0.6s-0.8,0.2-1.4,0.2c-1,0-1.8-0.3-2.3-0.9c-0.5-0.6-0.8-1.4-0.8-2.4v-7h-2.2v-0.6c0.8-0.3,1.4-0.9,1.9-1.7
			c0.5-0.8,1-1.8,1.4-2.9L1835.8,305.2L1835.8,305.2z"/>
		<path d="M1848.4,308.3c0.8,0,1.5,0.2,2.2,0.5c0.7,0.3,1.2,0.9,1.6,1.6s0.6,1.6,0.6,2.7v7.1h-1.9v-7c0-1-0.2-1.8-0.7-2.3
			s-1.1-0.8-2.1-0.8c-0.6,0-1.2,0.2-1.9,0.7s-1.2,1-1.6,1.6v7.8h-1.9v-16.9h1.9v7c0.2-0.3,0.6-0.6,1-0.9s0.8-0.6,1.3-0.8
			C1847.4,308.4,1847.9,308.3,1848.4,308.3z"/>
		<path d="M1861.2,308.3c1.2,0,2.2,0.2,3,0.8s1.4,1.2,1.8,2c0.4,0.8,0.6,1.8,0.6,2.9v1.1h-9c0.1,0.7,0.3,1.3,0.7,1.8s0.8,1,1.4,1.3
			c0.6,0.3,1.2,0.5,2,0.5s1.6-0.2,2.4-0.6c0.8-0.4,1.4-0.9,1.9-1.4v2.1c-0.2,0.3-0.5,0.5-1,0.8c-0.5,0.3-0.9,0.5-1.5,0.7
			c-0.6,0.2-1.1,0.3-1.7,0.3c-1.2,0-2.2-0.3-3.2-0.8s-1.6-1.3-2.2-2.2s-0.8-1.9-0.8-3.1s0.2-2.1,0.7-3.1s1.2-1.7,2-2.2
			S1860.1,308.3,1861.2,308.3z M1861.2,310.2c-1,0-1.8,0.3-2.4,1c-0.6,0.7-1,1.4-1.2,2.4h7.1c-0.1-0.8-0.3-1.4-0.6-1.9
			s-0.8-0.8-1.3-1.1C1862.3,310.3,1861.8,310.2,1861.2,310.2z"/>
		<path d="M1871.7,308.5v2.3c0.5-0.8,1-1.4,1.6-1.9s1.3-0.7,2-0.7c0.5,0,0.9,0.1,1.2,0.2v2.2c-0.5-0.3-1-0.4-1.5-0.4
			c-0.8,0-1.4,0.3-1.9,0.8s-1,1.2-1.4,2v7.1h-1.9v-11.7L1871.7,308.5L1871.7,308.5z"/>
		<path d="M1882.5,308.3c0.7,0,1.3,0.1,1.9,0.3c0.6,0.2,1,0.4,1.3,0.6v2.1c-0.3-0.2-0.8-0.5-1.3-0.7c-0.5-0.2-1.1-0.4-1.7-0.4
			c-0.7,0-1.3,0.2-1.7,0.5c-0.4,0.3-0.6,0.7-0.6,1.1c0,0.3,0.1,0.6,0.3,0.9s0.6,0.6,1.1,0.7l2,0.7c0.8,0.3,1.3,0.6,1.7,1.1
			s0.6,1.1,0.6,1.8c0,0.7-0.2,1.3-0.6,1.8s-0.9,1-1.5,1.3c-0.6,0.3-1.4,0.5-2.2,0.5c-0.5,0-0.9-0.1-1.4-0.2
			c-0.5-0.1-0.9-0.3-1.3-0.4c-0.4-0.1-0.7-0.3-0.9-0.4v-2.1c0.2,0.2,0.5,0.3,0.9,0.5c0.4,0.2,0.8,0.4,1.3,0.5s0.9,0.2,1.3,0.2
			c0.7,0,1.3-0.2,1.7-0.5c0.4-0.3,0.6-0.7,0.6-1.2c0-0.4-0.1-0.7-0.4-0.9c-0.3-0.2-0.7-0.4-1.3-0.6l-1.7-0.6
			c-0.9-0.3-1.5-0.8-1.8-1.3s-0.4-1.1-0.4-1.8c0-1,0.4-1.8,1.1-2.5C1880.2,308.6,1881.2,308.3,1882.5,308.3z"/>
		<path d="M1889.6,304.1l1.9,0.7l-2.6,6l-1.5-0.4L1889.6,304.1z"/>
		<path d="M1904.5,308.3c0.7,0,1.3,0.1,1.9,0.3c0.6,0.2,1,0.4,1.3,0.6v2.1c-0.3-0.2-0.8-0.5-1.3-0.7c-0.5-0.2-1.1-0.4-1.7-0.4
			c-0.7,0-1.3,0.2-1.7,0.5c-0.4,0.3-0.6,0.7-0.6,1.1c0,0.3,0.1,0.6,0.3,0.9s0.6,0.6,1.1,0.7l2,0.7c0.8,0.3,1.3,0.6,1.7,1.1
			s0.6,1.1,0.6,1.8c0,0.7-0.2,1.3-0.6,1.8s-0.9,1-1.5,1.3c-0.6,0.3-1.4,0.5-2.2,0.5c-0.5,0-0.9-0.1-1.4-0.2
			c-0.5-0.1-0.9-0.3-1.3-0.4c-0.4-0.1-0.7-0.3-0.9-0.4v-2.1c0.2,0.2,0.5,0.3,0.9,0.5c0.4,0.2,0.8,0.4,1.3,0.5s0.9,0.2,1.3,0.2
			c0.7,0,1.3-0.2,1.7-0.5c0.4-0.3,0.6-0.7,0.6-1.2c0-0.4-0.1-0.7-0.4-0.9c-0.3-0.2-0.7-0.4-1.3-0.6l-1.7-0.6
			c-0.9-0.3-1.5-0.8-1.8-1.3s-0.4-1.1-0.4-1.8c0-1,0.4-1.8,1.1-2.5C1902.2,308.6,1903.2,308.3,1904.5,308.3z"/>
		<path d="M1914.3,305.2v3.4h3.4v1.8h-3.4v6.9c0,0.5,0.1,0.9,0.4,1.1s0.6,0.4,1.1,0.4s0.9-0.1,1.2-0.2c0.3-0.1,0.6-0.2,0.8-0.4v1.6
			c-0.3,0.2-0.6,0.4-1,0.6s-0.8,0.2-1.4,0.2c-1,0-1.8-0.3-2.3-0.9c-0.5-0.6-0.8-1.4-0.8-2.4v-7h-2.2v-0.6c0.8-0.3,1.4-0.9,1.9-1.7
			c0.5-0.8,1-1.8,1.4-2.9L1914.3,305.2L1914.3,305.2z"/>
		<path d="M1926.5,308.3c1.2,0,2.2,0.3,3.2,0.8s1.6,1.3,2.2,2.2s0.8,2,0.8,3.1s-0.3,2.1-0.8,3.1s-1.2,1.7-2.2,2.2s-2,0.8-3.2,0.8
			s-2.2-0.3-3.2-0.8s-1.6-1.3-2.2-2.2s-0.8-1.9-0.8-3.1s0.3-2.1,0.8-3.1s1.2-1.7,2.2-2.2S1925.3,308.3,1926.5,308.3z M1926.5,310.2
			c-0.8,0-1.6,0.2-2.2,0.6c-0.6,0.4-1.1,0.9-1.4,1.6s-0.5,1.4-0.5,2.1c0,0.8,0.2,1.4,0.5,2.1s0.8,1.2,1.4,1.6
			c0.6,0.4,1.4,0.6,2.2,0.6c0.8,0,1.6-0.2,2.2-0.6c0.6-0.4,1.1-0.9,1.4-1.6s0.5-1.3,0.5-2.1c0-0.8-0.2-1.5-0.5-2.1s-0.8-1.2-1.4-1.6
			C1928.1,310.4,1927.3,310.2,1926.5,310.2z"/>
		<path d="M1937.7,308.5v2.3c0.5-0.8,1-1.4,1.6-1.9s1.3-0.7,2-0.7c0.5,0,0.9,0.1,1.2,0.2v2.2c-0.5-0.3-1-0.4-1.5-0.4
			c-0.8,0-1.4,0.3-1.9,0.8s-1,1.2-1.4,2v7.1h-1.9v-11.7L1937.7,308.5L1937.7,308.5z"/>
		<path d="M1945.6,308.5l4.1,8.6l4-8.6h2.3l-8.6,17.3h-2.2l3.4-6.3l-5.2-11H1945.6z"/>
	</g>
	<path class="st0" d="M2438.1,331.7h-326.8c-10.5,0-18.9-8.5-18.9-18.9l0,0c0-10.5,8.5-18.9,18.9-18.9h326.8
		c10.5,0,18.9,8.5,18.9,18.9l0,0C2457,323.3,2448.5,331.7,2438.1,331.7z"/>
	<g>
		<path d="M2177.5,303.4v16.9h-1.9v-16.9H2177.5z"/>
		<path d="M2184.6,308.5v11.7h-1.9v-9.9h-1.9v-1.8H2184.6z M2183.4,302.9c0.5,0,0.8,0.2,1.1,0.5c0.3,0.3,0.5,0.7,0.5,1.1
			s-0.2,0.8-0.5,1.1c-0.3,0.3-0.7,0.5-1.1,0.5s-0.8-0.2-1.1-0.5c-0.3-0.3-0.5-0.7-0.5-1.1c0-0.4,0.2-0.8,0.5-1.1
			C2182.6,303.1,2182.9,302.9,2183.4,302.9z"/>
		<path d="M2199.1,308.5l-5.4,5.1l5.7,6.6h-2.4l-4.6-5.3l-1.7,1.5v3.8h-1.9v-16.9h1.9v10.9l5.8-5.7L2199.1,308.5L2199.1,308.5z"/>
		<path d="M2205.6,308.3c1.2,0,2.2,0.2,3,0.8s1.4,1.2,1.8,2c0.4,0.8,0.6,1.8,0.6,2.9v1.1h-9c0.1,0.7,0.3,1.3,0.7,1.8s0.8,1,1.4,1.3
			c0.6,0.3,1.2,0.5,2,0.5s1.6-0.2,2.4-0.6c0.8-0.4,1.4-0.9,1.9-1.4v2.1c-0.2,0.3-0.5,0.5-1,0.8c-0.5,0.3-0.9,0.5-1.5,0.7
			c-0.6,0.2-1.1,0.3-1.7,0.3c-1.2,0-2.2-0.3-3.2-0.8s-1.6-1.3-2.2-2.2s-0.8-1.9-0.8-3.1s0.2-2.1,0.7-3.1s1.2-1.7,2-2.2
			S2204.5,308.3,2205.6,308.3z M2205.6,310.2c-1,0-1.8,0.3-2.4,1c-0.6,0.7-1,1.4-1.2,2.4h7.1c-0.1-0.8-0.3-1.4-0.6-1.9
			s-0.8-0.8-1.3-1.1C2206.7,310.3,2206.2,310.2,2205.6,310.2z"/>
		<path d="M2226.1,308.3c0.7,0,1.4,0.2,2.1,0.5c0.7,0.3,1.3,0.8,1.8,1.3v-1.6h1.9v11.7h-1.9v-2c-0.4,0.6-1,1.2-1.7,1.6
			c-0.7,0.4-1.5,0.7-2.4,0.7c-1,0-1.9-0.3-2.7-0.8s-1.5-1.2-2-2.1c-0.5-0.9-0.7-2-0.7-3.1c0-1.3,0.2-2.4,0.7-3.4s1.2-1.7,2-2.2
			S2225,308.3,2226.1,308.3z M2226.4,310.2c-0.8,0-1.6,0.2-2.2,0.6c-0.6,0.4-1.1,1-1.4,1.6s-0.5,1.4-0.5,2.1c0,0.8,0.2,1.4,0.5,2.1
			s0.8,1.1,1.3,1.5s1.2,0.6,2,0.6c0.7,0,1.4-0.2,1.9-0.6c0.5-0.4,1-0.9,1.3-1.6s0.5-1.4,0.5-2.2v-2.2c-0.5-0.6-1-1.1-1.6-1.4
			S2227.1,310.2,2226.4,310.2z"/>
		<path d="M2237.7,308.5v1.9c0.2-0.3,0.6-0.6,1-0.9s0.8-0.6,1.3-0.8c0.5-0.2,1-0.3,1.5-0.3c0.8,0,1.5,0.2,2.2,0.5
			c0.7,0.3,1.2,0.9,1.6,1.6s0.6,1.6,0.6,2.7v7.1h-1.9v-7c0-1-0.2-1.8-0.7-2.3s-1.1-0.8-2.1-0.8c-0.6,0-1.2,0.2-1.9,0.7
			s-1.2,1-1.6,1.6v7.8h-1.9v-11.7h1.9V308.5z"/>
		<path d="M2260.1,303.4v16.9h-1.9v-2c-0.4,0.6-1,1.2-1.7,1.6c-0.7,0.4-1.5,0.7-2.4,0.7c-1,0-1.9-0.3-2.7-0.8s-1.5-1.2-2-2.1
			c-0.5-0.9-0.7-2-0.7-3.1c0-1.3,0.2-2.4,0.7-3.4s1.2-1.7,2-2.2s1.8-0.8,2.9-0.8c0.7,0,1.4,0.2,2.1,0.5c0.7,0.3,1.3,0.8,1.8,1.3
			v-6.7h1.9V303.4z M2254.7,310.2c-0.8,0-1.6,0.2-2.2,0.6c-0.6,0.4-1.1,0.9-1.4,1.6s-0.5,1.4-0.5,2.1c0,0.8,0.2,1.4,0.5,2.1
			s0.8,1.1,1.3,1.5s1.2,0.6,2,0.6c0.7,0,1.4-0.2,1.9-0.6c0.5-0.4,1-0.9,1.3-1.6s0.5-1.4,0.5-2.2v-2.2c-0.5-0.6-1-1.1-1.6-1.4
			S2255.4,310.2,2254.7,310.2z"/>
		<path d="M2276.4,308.3c0.9,0,1.6,0.1,2.2,0.4s1.1,0.5,1.3,0.7v1.9c-0.4-0.3-0.9-0.6-1.5-0.9s-1.2-0.4-2-0.4s-1.6,0.2-2.2,0.6
			c-0.6,0.4-1.1,0.9-1.4,1.6s-0.5,1.4-0.5,2.1c0,0.8,0.2,1.4,0.5,2.1s0.8,1.2,1.4,1.6c0.6,0.4,1.4,0.6,2.2,0.6s1.5-0.1,2-0.4
			s1.1-0.5,1.5-0.9v1.9c-0.2,0.2-0.7,0.5-1.3,0.8c-0.6,0.3-1.4,0.4-2.2,0.4c-1.2,0-2.2-0.3-3.2-0.8s-1.6-1.3-2.2-2.2
			s-0.8-1.9-0.8-3.1s0.3-2.1,0.8-3.1s1.2-1.7,2.2-2.2S2275.2,308.3,2276.4,308.3z"/>
		<path d="M2288.4,308.3c1.2,0,2.2,0.3,3.2,0.8s1.6,1.3,2.2,2.2s0.8,2,0.8,3.1s-0.3,2.1-0.8,3.1s-1.2,1.7-2.2,2.2s-2,0.8-3.2,0.8
			s-2.2-0.3-3.2-0.8s-1.6-1.3-2.2-2.2s-0.8-1.9-0.8-3.1s0.3-2.1,0.8-3.1s1.2-1.7,2.2-2.2S2287.2,308.3,2288.4,308.3z M2288.4,310.2
			c-0.8,0-1.6,0.2-2.2,0.6c-0.6,0.4-1.1,0.9-1.4,1.6s-0.5,1.4-0.5,2.1c0,0.8,0.2,1.4,0.5,2.1s0.8,1.2,1.4,1.6
			c0.6,0.4,1.4,0.6,2.2,0.6s1.6-0.2,2.2-0.6c0.6-0.4,1.1-0.9,1.4-1.6s0.5-1.3,0.5-2.1c0-0.8-0.2-1.5-0.5-2.1s-0.8-1.2-1.4-1.6
			C2290,310.4,2289.2,310.2,2288.4,310.2z"/>
		<path d="M2299.6,308.5v1.5c0.4-0.4,0.9-0.8,1.4-1.2s1.3-0.6,2.1-0.6s1.6,0.2,2.4,0.6c0.8,0.4,1.3,1,1.7,1.8
			c0.5-0.7,1.1-1.2,1.8-1.7s1.4-0.7,2.2-0.7s1.5,0.2,2.2,0.5c0.7,0.3,1.3,0.9,1.7,1.6s0.6,1.6,0.6,2.7v7.1h-1.9v-7
			c0-1-0.3-1.8-0.8-2.3s-1.2-0.8-2.2-0.8c-0.7,0-1.3,0.2-1.8,0.6c-0.5,0.4-1,0.9-1.4,1.5v8h-1.9v-7c0-1-0.3-1.8-0.8-2.3
			s-1.2-0.8-2.2-0.8c-0.6,0-1.2,0.2-1.7,0.6c-0.5,0.4-1,0.8-1.4,1.4v8.2h-1.9v-11.7L2299.6,308.5L2299.6,308.5z"/>
		<path d="M2321.3,308.5v1.5c0.4-0.4,0.9-0.8,1.4-1.2s1.3-0.6,2.1-0.6s1.6,0.2,2.4,0.6c0.8,0.4,1.3,1,1.7,1.8
			c0.5-0.7,1.1-1.2,1.8-1.7s1.4-0.7,2.2-0.7s1.5,0.2,2.2,0.5c0.7,0.3,1.3,0.9,1.7,1.6s0.6,1.6,0.6,2.7v7.1h-1.9v-7
			c0-1-0.3-1.8-0.8-2.3s-1.2-0.8-2.2-0.8c-0.7,0-1.3,0.2-1.8,0.6c-0.5,0.4-1,0.9-1.4,1.5v8h-1.9v-7c0-1-0.3-1.8-0.8-2.3
			s-1.2-0.8-2.2-0.8c-0.6,0-1.2,0.2-1.7,0.6c-0.5,0.4-1,0.8-1.4,1.4v8.2h-1.9v-11.7L2321.3,308.5L2321.3,308.5z"/>
		<path d="M2346,308.3c1.2,0,2.2,0.2,3,0.8s1.4,1.2,1.8,2c0.4,0.8,0.6,1.8,0.6,2.9v1.1h-9c0.1,0.7,0.3,1.3,0.7,1.8s0.8,1,1.4,1.3
			c0.6,0.3,1.2,0.5,2,0.5s1.6-0.2,2.4-0.6c0.8-0.4,1.4-0.9,1.9-1.4v2.1c-0.2,0.3-0.5,0.5-1,0.8c-0.5,0.3-0.9,0.5-1.5,0.7
			c-0.6,0.2-1.1,0.3-1.7,0.3c-1.2,0-2.2-0.3-3.2-0.8s-1.6-1.3-2.2-2.2s-0.8-1.9-0.8-3.1s0.2-2.1,0.7-3.1s1.2-1.7,2-2.2
			S2344.9,308.3,2346,308.3z M2346,310.2c-1,0-1.8,0.3-2.4,1c-0.6,0.7-1,1.4-1.2,2.4h7.1c-0.1-0.8-0.3-1.4-0.6-1.9s-0.8-0.8-1.3-1.1
			C2347.1,310.3,2346.5,310.2,2346,310.2z"/>
		<path d="M2356.4,308.5v1.9c0.2-0.3,0.6-0.6,1-0.9s0.8-0.6,1.3-0.8c0.5-0.2,1-0.3,1.5-0.3c0.8,0,1.5,0.2,2.2,0.5
			c0.7,0.3,1.2,0.9,1.6,1.6s0.6,1.6,0.6,2.7v7.1h-1.9v-7c0-1-0.2-1.8-0.7-2.3s-1.1-0.8-2.1-0.8c-0.6,0-1.2,0.2-1.9,0.7
			s-1.2,1-1.6,1.6v7.8h-1.9v-11.7h1.9V308.5z"/>
		<path d="M2371.5,305.2v3.4h3.4v1.8h-3.4v6.9c0,0.5,0.1,0.9,0.4,1.1s0.6,0.4,1.1,0.4s0.9-0.1,1.2-0.2c0.3-0.1,0.6-0.2,0.8-0.4v1.6
			c-0.3,0.2-0.6,0.4-1,0.6s-0.8,0.2-1.4,0.2c-1,0-1.8-0.3-2.3-0.9c-0.5-0.6-0.8-1.4-0.8-2.4v-7h-2.2v-0.6c0.8-0.3,1.4-0.9,1.9-1.7
			c0.5-0.8,1-1.8,1.4-2.9L2371.5,305.2L2371.5,305.2z"/>
	</g>
	<g>
		<g>
			<line class="st0" x1="455" y1="489.3" x2="506.8" y2="489.3"/>
			<g>
				<polygon points="500.2,497.4 498.8,496 506.1,489.3 498.8,482.5 500.2,481.1 509,489.3 				"/>
			</g>
		</g>
	</g>
	<g>
		<g>
			<line class="st1" x1="843" y1="489.3" x2="895.3" y2="489.3"/>
			<g>
				<polygon points="890.1,495.6 889.1,494.5 894.7,489.3 889.1,484 890.1,482.9 897,489.3 				"/>
			</g>
		</g>
	</g>
	<g>
		<g>
			<path class="st0" d="M1123,489.3c0,0,7.9,0,17.5,0s17.5-13.5,17.5-30v-116c0-16.5,13.5-30,30-30h65.8"/>
			<g>
				<polygon points="1247.2,321.4 1245.8,320 1253.1,313.3 1245.8,306.5 1247.2,305.1 1256,313.3 				"/>
			</g>
		</g>
	</g>
	<g>
		<g>
			<line class="st0" x1="1253.8" y1="489.3" x2="1123" y2="489.3"/>
			<g>
				<polygon points="1247.2,481.1 1245.8,482.5 1253.1,489.2 1245.8,496 1247.2,497.4 1256,489.2 				"/>
			</g>
		</g>
	</g>
	<g>
		<g>
			<path class="st0" d="M1123,489.3c0,0,7.9,0,17.5,0s17.5,13.5,17.5,30v116c0,16.5,13.5,30,30,30h65.8"/>
			<g>
				<polygon points="1247.2,673.4 1245.8,672 1253.1,665.3 1245.8,658.5 1247.2,657.1 1256,665.3 				"/>
			</g>
		</g>
	</g>
	<g>
		<path class="st0" d="M2590,489.2c0,0-7.9,0-17.5,0s-17.5-13.5-17.5-30l-0.1-116c0-16.5-13.5-30-30-30l-68,0.1"/>
	</g>
	<g>
		<g>
			<line class="st0" x1="2457" y1="489.3" x2="2587.8" y2="489.2"/>
			<g>
				<polygon points="2581.2,497.4 2579.8,495.9 2587.1,489.2 2579.8,482.5 2581.2,481 2590,489.2 				"/>
			</g>
		</g>
	</g>
	<g>
		<path class="st0" d="M2590,489.2c0,0-7.9,0-17.5,0s-17.5,13.5-17.5,30l0.1,116c0,16.5-13.5,30-30,30l-904.1,0.1"/>
	</g>
	<g>
		<g>
			<line class="st0" x1="1621" y1="313.3" x2="1671.8" y2="313.3"/>
			<g>
				<polygon points="1665.2,321.4 1663.8,320 1671.1,313.3 1663.8,306.5 1665.2,305.1 1674,313.3 				"/>
			</g>
		</g>
	</g>
	<g>
		<g>
			<line class="st0" x1="2039" y1="313.3" x2="2089.8" y2="313.3"/>
			<g>
				<polygon points="2083.2,321.4 2081.8,320 2089.1,313.3 2081.8,306.5 2083.2,305.1 2092,313.3 				"/>
			</g>
		</g>
	</g>
	<g>
		<g>
			<line class="st0" x1="1621" y1="489.3" x2="1671.8" y2="489.3"/>
			<g>
				<polygon points="1665.2,497.4 1663.8,496 1671.1,489.3 1663.8,482.5 1665.2,481.1 1674,489.3 				"/>
			</g>
		</g>
	</g>
	<g>
		<g>
			<line class="st0" x1="2039" y1="489.3" x2="2089.8" y2="489.3"/>
			<g>
				<polygon points="2083.2,497.4 2081.8,496 2089.1,489.3 2081.8,482.5 2083.2,481.1 2092,489.3 				"/>
			</g>
		</g>
	</g>
	<g>
		<g>
			<line class="st0" x1="2816" y1="489.3" x2="2820" y2="489.3"/>
			<path class="st2" d="M2826,489.3h65c16.5,0,30,13.5,30,30v331c0,16.5-13.5,30-30,30H1040c-16.5,0-30-13.5-30-30V516.9"/>
			<line class="st0" x1="1010" y1="513.9" x2="1010" y2="509.9"/>
			<g>
				<polygon points="1018.2,516.5 1016.7,517.9 1010,510.7 1003.3,517.9 1001.8,516.5 1010,507.7 				"/>
			</g>
		</g>
	</g>
</g>
</svg>
